# https://github.com/mikedh/trimesh
v 0.19948914 0.18684411 -0.05188364
v 0.20007618 0.18780991 -0.05312371
v 0.19882222 0.18853291 -0.05363864
v 0.19825622 0.18840793 -0.05486728
v 0.19942980 0.18790421 -0.05566379
v 0.19761629 0.18682306 -0.05641565
v 0.19842165 0.18354586 -0.05453123
v 0.19947640 0.18369076 -0.05457999
v 0.19932762 0.18436747 -0.05228803
v 0.19876713 0.18528639 -0.05652103
v 0.19783082 0.18431876 -0.05588963
v 0.19883535 0.18433126 -0.05597696
v 0.19999682 0.18424078 -0.05306853
v 0.20048912 0.18612411 -0.05244281
v 0.19891622 0.18672754 -0.05652081
v 0.20025163 0.18777192 -0.05480636
v 0.20040282 0.18432343 -0.05434483
v 0.20097389 0.18526874 -0.05386171
v 0.20101128 0.18673824 -0.05401990
v 0.19994372 0.18604186 -0.05624728
v 0.20035085 0.18482429 -0.05542023
v 0.20067755 0.18659571 -0.05532986
v 0.20077840 0.18570106 -0.05521238
f 2 3 1
f 7 9 11
f 11 9 1
f 1 9 14
f 19 2 14
f 14 2 1
f 7 11 12
f 4 5 6
f 3 5 4
f 1 3 4
f 6 11 4
f 4 11 1
f 6 5 15
f 15 5 20
f 13 14 9
f 18 23 19
f 19 14 18
f 18 13 17
f 14 13 18
f 20 5 22
f 22 23 20
f 19 23 22
f 21 18 17
f 23 18 21
f 20 23 21
f 7 12 8
f 17 13 8
f 8 21 17
f 12 21 8
f 8 9 7
f 8 13 9
f 10 15 20
f 20 21 10
f 10 21 12
f 10 12 11
f 10 11 6
f 6 15 10
f 19 22 16
f 16 22 5
f 16 2 19
f 3 2 16
f 16 5 3

