# https://github.com/mikedh/trimesh
v -0.11738566 0.17006116 0.09290972
v -0.12792567 0.17103190 0.09288687
v -0.07207181 0.21480891 0.04937643
v -0.16244946 0.22041626 0.09285999
v -0.16082824 0.22845905 0.09237636
v -0.15642443 0.23791299 0.09270916
v -0.16552941 0.21748734 0.05687130
v -0.16534366 0.22025659 0.06387347
v -0.16542588 0.22066934 0.05108461
v -0.08253376 0.18704786 0.09239397
v -0.11506829 0.16662906 0.05162776
v -0.10785979 0.16822675 0.05009624
v -0.10378387 0.16654448 0.07821209
v -0.10539741 0.16678014 0.08329239
v -0.10930622 0.16649096 0.08760739
v -0.14704884 0.17865133 0.04921585
v -0.13476469 0.17146033 0.04933889
v -0.13994801 0.17207151 0.05052520
v -0.16126811 0.23189562 0.04934183
v -0.16327113 0.22937150 0.05030687
v -0.15847183 0.23973182 0.05030157
v -0.13515964 0.17312393 0.09252336
v -0.14275491 0.17873168 0.09330146
v -0.11701799 0.21435366 0.11564597
v -0.11741245 0.26222527 0.05171044
v -0.12040248 0.26210077 0.05334960
v -0.16376708 0.21181364 0.04937825
v -0.16320854 0.22841649 0.05717366
v -0.11497551 0.16637541 0.05527895
v -0.07464094 0.19510033 0.05036733
v -0.08188651 0.18354413 0.05026904
v -0.07637689 0.19407968 0.04933350
v -0.10758374 0.17110251 0.09278214
v -0.11839386 0.16898516 0.04939887
v -0.15340611 0.18427856 0.04937679
v -0.11437050 0.26055250 0.04932533
v -0.09061653 0.25195701 0.04934560
v -0.09842432 0.17418700 0.09245759
v -0.09082144 0.18057570 0.09325252
v -0.08970556 0.17972646 0.09224474
v -0.07502401 0.22035782 0.09329079
v -0.10646329 0.16636278 0.07682474
v -0.14008968 0.25490101 0.04931400
v -0.10406326 0.17054074 0.04928158
v -0.11240840 0.26185925 0.06387661
v -0.11197391 0.26189601 0.05108494
v -0.14710748 0.25220375 0.05008672
v -0.13874276 0.25756526 0.05044613
v -0.07635698 0.23721633 0.05005361
v -0.07295471 0.22952716 0.05022818
v -0.07357433 0.22730445 0.04923484
v -0.07312546 0.21249830 0.09210629
v -0.08171046 0.18649794 0.04926949
v -0.07978756 0.23802976 0.09267119
v -0.07534356 0.22853431 0.09236482
v -0.12742469 0.16636308 0.07863092
v -0.14169134 0.17627424 0.09213594
v -0.10784047 0.16636363 0.07362499
v -0.13214941 0.16649834 0.06205946
v -0.13034379 0.16692987 0.05781389
v -0.16557348 0.21565404 0.05233683
v -0.16558401 0.21226282 0.05334959
v -0.11910306 0.21482217 0.11566337
v -0.07071536 0.22059140 0.05108556
v -0.07060086 0.21697833 0.05744795
v -0.07056453 0.21691925 0.05334959
v -0.15630198 0.23996713 0.04941055
v -0.15413614 0.24518516 0.04967984
v -0.11973556 0.16636274 0.08378419
v -0.16302536 0.21251903 0.09210299
v -0.16191342 0.20614493 0.09284629
v -0.13018036 0.26070151 0.05020092
v -0.10687774 0.25815825 0.09212039
v -0.13030919 0.16878951 0.04990622
v -0.11817044 0.16640291 0.05174591
v -0.12556871 0.16644979 0.05344151
v -0.08842641 0.25209276 0.05060590
v -0.08431216 0.24817400 0.05060940
v -0.08041438 0.24346821 0.04997365
v -0.10570951 0.16643078 0.05825257
v -0.10977949 0.16642588 0.05424814
v -0.07128486 0.22200882 0.04998178
v -0.11848575 0.26202126 0.04986902
v -0.10684370 0.26096375 0.05075684
v -0.10083001 0.25839026 0.04962888
v -0.08946964 0.17830373 0.04923254
v -0.09184761 0.17485288 0.05059985
v -0.09635529 0.17202661 0.05055601
v -0.15264093 0.18190364 0.05048833
v -0.15920908 0.19080113 0.05000387
v -0.07493056 0.20132970 0.09019895
v -0.07401951 0.20748968 0.09290862
v -0.07789601 0.19480983 0.09275187
v -0.12097976 0.16641253 0.05373215
v -0.07057508 0.21352808 0.05233684
v -0.07061989 0.21169538 0.05687094
v -0.16554771 0.21220382 0.05744792
v -0.12046153 0.26206450 0.05744791
v -0.10862643 0.25705376 0.09317359
v -0.12742469 0.16636293 0.07365379
v -0.11601657 0.16636299 0.08684002
v -0.12610320 0.25810852 0.09305504
v -0.13979823 0.25401576 0.09242126
v -0.14437334 0.24935661 0.09323486
v -0.16044616 0.19807827 0.04940837
v -0.11770461 0.25955276 0.09248024
v -0.16122623 0.20134802 0.09018279
v -0.15722164 0.19253041 0.09264281
v -0.11945932 0.16651618 0.09040597
v -0.11503963 0.16672923 0.09032419
v -0.10381746 0.16690533 0.06204266
v -0.12262196 0.16744839 0.04987498
v -0.14767874 0.25137751 0.05687710
v -0.15011729 0.18299034 0.09212611
v -0.15250716 0.18793334 0.09322464
v -0.07224153 0.20334158 0.05640907
v -0.07153311 0.20537393 0.04997813
v -0.07074006 0.20850865 0.05108205
v -0.08325356 0.24456627 0.04935783
v -0.07081571 0.22031121 0.06390001
v -0.09135898 0.25063226 0.09287802
v -0.08533446 0.24528787 0.09250854
v -0.09862209 0.25503602 0.09249767
v -0.12990399 0.16636304 0.07591624
v -0.14975979 0.24648645 0.09246177
v -0.11966719 0.16636274 0.06498247
v -0.12980193 0.25910301 0.04925183
v -0.07080541 0.20892541 0.06387476
v -0.16256403 0.19800034 0.05021433
v -0.07088098 0.21435392 0.04978341
v -0.11667971 0.16636293 0.06468700
v -0.13219999 0.16656764 0.07971994
v -0.12887481 0.16658748 0.08575879
v -0.16521558 0.21970556 0.04979450
v -0.16454024 0.20480607 0.04997617
v -0.12007442 0.16636363 0.08714292
v -0.07296044 0.22852342 0.05711501
v -0.09765938 0.25767851 0.05074177
v -0.07356266 0.22070305 0.09213002
v -0.14438531 0.17491684 0.05056706
v -0.12888986 0.25825677 0.09220351
v -0.12410151 0.26191025 0.05108473
v -0.12379438 0.26184950 0.06390006
v -0.16542389 0.20857952 0.05108309
v -0.16532133 0.20884374 0.06390365
v -0.12400149 0.16656164 0.08931927
f 63 125 6
f 104 125 63
f 51 127 37
f 118 128 117
f 87 86 31
f 19 127 16
f 16 127 51
f 51 86 16
f 122 77 121
f 24 1 33
f 54 122 24
f 24 122 121
f 24 99 63
f 106 102 63
f 63 99 106
f 121 77 138
f 19 16 27
f 127 48 72
f 125 113 68
f 63 102 103
f 103 104 63
f 125 104 103
f 103 113 125
f 103 48 113
f 117 3 130
f 130 118 117
f 51 82 130
f 130 3 51
f 130 95 118
f 32 3 117
f 51 3 32
f 44 16 86
f 44 112 34
f 12 112 44
f 87 111 88
f 12 44 88
f 88 86 87
f 88 44 86
f 81 29 75
f 65 120 128
f 64 130 82
f 64 65 66
f 120 65 64
f 66 95 64
f 95 130 64
f 139 120 55
f 55 41 139
f 55 49 54
f 54 24 55
f 55 24 41
f 52 120 139
f 128 120 52
f 139 41 52
f 51 37 119
f 119 49 51
f 50 82 51
f 51 49 50
f 50 64 82
f 120 64 50
f 123 24 121
f 99 24 123
f 121 138 123
f 142 72 143
f 77 37 85
f 85 138 77
f 135 27 105
f 35 90 105
f 105 16 35
f 105 27 16
f 134 20 19
f 19 27 134
f 134 27 135
f 135 144 134
f 89 90 35
f 35 16 89
f 89 16 140
f 62 144 97
f 20 28 5
f 63 6 5
f 19 68 67
f 43 48 127
f 43 67 68
f 43 127 19
f 19 67 43
f 19 20 21
f 21 68 19
f 21 5 6
f 20 5 21
f 21 6 125
f 125 68 21
f 128 118 96
f 118 95 96
f 96 65 128
f 96 95 66
f 66 65 96
f 53 86 51
f 51 32 53
f 53 31 86
f 53 32 31
f 117 128 116
f 31 32 30
f 10 31 30
f 128 91 30
f 30 116 128
f 30 32 117
f 117 116 30
f 76 112 75
f 76 74 112
f 17 44 34
f 16 44 17
f 34 112 17
f 112 74 17
f 12 81 11
f 11 81 75
f 11 112 12
f 75 112 11
f 80 88 111
f 12 88 80
f 80 81 12
f 29 81 80
f 80 58 29
f 23 22 63
f 63 115 23
f 23 115 114
f 63 22 2
f 2 24 63
f 1 24 2
f 40 31 10
f 87 31 40
f 92 91 128
f 128 52 92
f 41 24 92
f 92 52 41
f 49 119 79
f 79 37 77
f 79 119 37
f 79 122 54
f 54 49 79
f 137 55 120
f 120 50 137
f 49 55 137
f 137 50 49
f 73 106 99
f 99 123 73
f 73 123 138
f 26 25 142
f 142 143 26
f 25 26 98
f 98 26 143
f 141 143 72
f 141 72 48
f 48 103 141
f 141 103 102
f 102 106 141
f 106 143 141
f 36 37 127
f 36 85 37
f 8 28 20
f 8 5 28
f 135 105 129
f 129 105 90
f 145 144 135
f 135 129 145
f 145 129 107
f 107 71 145
f 145 71 70
f 145 97 144
f 70 8 145
f 145 8 97
f 108 89 114
f 90 89 108
f 114 115 108
f 108 129 90
f 107 129 108
f 108 71 107
f 108 115 63
f 63 71 108
f 48 43 47
f 47 43 68
f 113 48 47
f 47 68 113
f 126 29 131
f 29 58 131
f 94 76 75
f 59 74 60
f 60 76 59
f 74 76 60
f 18 17 74
f 59 140 18
f 18 74 59
f 140 16 18
f 16 17 18
f 13 80 111
f 13 111 87
f 87 40 13
f 13 40 14
f 14 15 13
f 57 23 114
f 22 23 57
f 59 76 124
f 76 94 124
f 124 94 75
f 124 29 126
f 75 29 124
f 1 2 109
f 109 101 15
f 136 101 109
f 38 15 14
f 14 40 38
f 33 15 38
f 38 24 33
f 93 24 10
f 93 92 24
f 91 92 93
f 10 30 93
f 93 30 91
f 77 122 78
f 78 79 77
f 122 79 78
f 106 73 45
f 25 98 45
f 45 143 106
f 45 98 143
f 127 72 83
f 83 36 127
f 83 72 142
f 142 25 83
f 20 134 9
f 9 8 20
f 9 134 144
f 4 8 70
f 5 8 4
f 63 5 4
f 4 71 63
f 70 71 4
f 61 144 62
f 61 9 144
f 58 80 42
f 80 13 42
f 42 131 58
f 42 13 15
f 126 131 42
f 15 101 42
f 69 101 136
f 126 42 69
f 69 42 101
f 33 1 110
f 1 109 110
f 110 15 33
f 110 109 15
f 133 124 136
f 22 57 133
f 24 38 39
f 39 38 40
f 10 24 39
f 39 40 10
f 84 73 138
f 84 45 73
f 138 85 84
f 85 36 84
f 36 83 84
f 8 9 7
f 9 61 7
f 97 8 7
f 62 97 7
f 7 61 62
f 136 124 56
f 56 69 136
f 124 69 56
f 100 124 126
f 126 69 100
f 100 69 124
f 136 109 146
f 146 133 136
f 22 133 146
f 146 2 22
f 146 109 2
f 59 124 132
f 124 133 132
f 132 133 57
f 132 140 59
f 132 57 114
f 114 89 132
f 132 89 140
f 25 45 46
f 45 84 46
f 46 83 25
f 46 84 83

