# https://github.com/mikedh/trimesh
v 0.14451760 -0.04203879 0.03591221
v 0.14597055 -0.03746721 0.03139417
v 0.14452807 -0.03738508 0.03144686
v 0.14594924 -0.03747076 0.11517251
v 0.14453047 -0.03739801 0.11512669
v 0.14451494 -0.04205399 0.11065866
v 0.14268194 0.00765118 0.12864509
v 0.12383727 0.05074444 0.07882276
v 0.12391381 0.05106474 0.06900393
v 0.12389095 0.04838886 0.05673986
v 0.12389683 0.04415634 0.04748652
v 0.12385915 0.03786849 0.03893077
v 0.12393315 0.02849032 0.03068962
v 0.12389683 0.01723759 0.02514212
v 0.12391711 0.00740805 0.02268043
v 0.12383013 -0.00565162 0.02237119
v 0.12393315 -0.02033064 0.02624782
v 0.12389680 -0.03109568 0.03269058
v 0.12385914 -0.03880318 0.03999351
v 0.12622980 -0.04390321 0.04645997
v 0.12393315 -0.04581436 0.05032385
v 0.12389092 -0.04991858 0.06218814
v 0.12386880 -0.05111913 0.07233343
v 0.12389092 -0.05031246 0.08245081
v 0.12389682 -0.04750641 0.09223151
v 0.12389682 -0.04281188 0.10126973
v 0.12385914 -0.03610528 0.10950149
v 0.12404387 -0.02849738 0.11582131
v 0.12388910 -0.01745870 0.12147411
v 0.12387267 -0.00245845 0.12447311
v 0.12387860 0.01272901 0.12292933
v 0.12388760 0.02463159 0.11811296
v 0.12388910 0.03491042 0.11081154
v 0.12622978 0.04251407 0.10228283
v 0.12388910 0.04441807 0.09885523
v 0.12388205 0.04928494 0.08694216
v 0.15034350 -0.04685111 0.07360611
v 0.15034355 -0.04509271 0.08561686
v 0.15034459 -0.03460699 0.10487636
v 0.15034352 -0.02526420 0.11262559
v 0.15034459 -0.01417911 0.11794936
v 0.15034460 0.02369866 0.11371236
v 0.15034460 0.04073306 0.09644899
v 0.15034355 0.04521596 0.08516871
v 0.15034351 0.04685429 0.07298127
v 0.15034460 0.02315678 0.03256212
v 0.15034353 -0.02142794 0.03174692
v 0.15034355 -0.02959771 0.03711029
v 0.15034067 -0.04918699 0.08063626
v 0.15034245 -0.04965911 0.07058542
v 0.15034067 -0.04809619 0.06064330
v 0.15034510 -0.04456884 0.05122267
v 0.15034195 -0.03761961 0.04060368
v 0.15034068 -0.02825286 0.03236550
v 0.15034068 -0.01943573 0.02751574
v 0.15034296 -0.00725143 0.02398410
v 0.15034510 0.00521915 0.02383228
v 0.15034068 0.01507172 0.02589831
v 0.15034068 0.02430403 0.02990221
v 0.15034068 0.03254129 0.03568254
v 0.15034388 0.03944589 0.04299950
v 0.15034510 0.04473679 0.05155863
v 0.15034068 0.04819499 0.06101253
v 0.15034246 0.04968144 0.07096347
v 0.15034068 0.04913244 0.08101306
v 0.15034296 0.04568449 0.09322141
v 0.15034195 0.03762279 0.10598369
v 0.15034068 0.02825614 0.11422181
v 0.15034067 0.01943868 0.11907171
v 0.15034067 0.00982610 0.12204724
v 0.15034774 -0.00018326 0.12303049
v 0.15034067 -0.01019660 0.12197044
v 0.15033949 -0.02221531 0.11790619
v 0.15034067 -0.03253804 0.11090489
v 0.15034389 -0.03944266 0.10358794
v 0.15034295 -0.04591601 0.09267444
v 0.12387564 0.03087027 0.10995244
v 0.14595271 0.04182399 0.03583327
v 0.14452825 0.04185081 0.03590724
v 0.15030628 0.04418156 0.03832277
v 0.14449508 0.04694809 0.04234441
v 0.15030755 0.05223651 0.05217564
v 0.14451008 0.05377906 0.05606944
v 0.15029495 0.05563609 0.06503345
v 0.14451606 0.05631974 0.07322033
v 0.15027600 0.05613087 0.07859436
v 0.14448355 0.05519434 0.08423376
v 0.15030755 0.05223354 0.09441901
v 0.14449810 0.05176444 0.09526136
v 0.14449507 0.04694379 0.10424949
v 0.15030625 0.04417674 0.10827069
v 0.14453060 0.04183754 0.11069301
v 0.14593757 0.04181691 0.11075866
v 0.14597055 0.03747039 0.11519321
v 0.15028325 0.03282309 0.11912844
v 0.14452813 0.03738834 0.11513996
v 0.14449712 0.02903509 0.12158011
v 0.15029492 0.02090938 0.12550724
v 0.14451024 0.01598737 0.12729936
v 0.15029947 0.00786072 0.12910406
v 0.14266942 -0.00003563 0.12944736
v 0.15031035 -0.00823565 0.12902396
v 0.14283285 -0.00755845 0.12894461
v 0.14451024 -0.01599193 0.12729709
v 0.15029492 -0.02091359 0.12550429
v 0.14449712 -0.02903871 0.12157604
v 0.15028325 -0.03282629 0.11912386
v 0.15030627 -0.04417841 0.10826456
v 0.14450112 -0.05198706 0.09532519
v 0.15030754 -0.05223336 0.09441161
v 0.15029494 -0.05563293 0.08155381
v 0.14450454 -0.05607851 0.07836389
v 0.15027599 -0.05612769 0.06799298
v 0.14452316 -0.05512104 0.06100945
v 0.15030755 -0.05223038 0.05216836
v 0.14448752 -0.04955331 0.04672856
v 0.15030627 -0.04417351 0.03831659
v 0.15028428 -0.03477989 0.02906631
v 0.14451783 -0.03129024 0.02656182
v 0.15029450 -0.02560172 0.02321399
v 0.14451922 -0.02002685 0.02063541
v 0.15030723 -0.01060010 0.01780936
v 0.14450220 -0.00763429 0.01758066
v 0.14450155 0.00511940 0.01719671
v 0.15030726 0.01061116 0.01781089
v 0.14451848 0.01758145 0.01986999
v 0.15029452 0.02561184 0.02321754
v 0.14451870 0.02922244 0.02512628
v 0.15028428 0.03478921 0.02907116
v 0.14453043 0.03740109 0.03146013
v 0.14594925 0.03747394 0.03141484
f 23 27 16
f 25 27 23
f 125 122 124
f 16 15 124
f 57 122 125
f 8 9 10
f 10 12 8
f 85 9 8
f 8 12 16
f 16 27 8
f 27 30 8
f 85 8 87
f 87 8 36
f 14 15 16
f 16 12 14
f 14 12 13
f 32 99 97
f 95 96 97
f 97 33 32
f 96 33 97
f 95 97 98
f 98 97 99
f 42 69 71
f 95 98 68
f 68 98 69
f 68 42 67
f 69 42 68
f 114 115 113
f 116 115 114
f 29 30 27
f 123 121 16
f 122 121 123
f 16 124 123
f 123 124 122
f 120 121 122
f 19 23 16
f 31 8 30
f 31 99 32
f 7 99 31
f 31 101 7
f 30 101 31
f 35 33 34
f 36 8 35
f 8 33 35
f 11 12 10
f 11 81 12
f 128 14 13
f 100 102 71
f 69 98 100
f 100 101 102
f 100 98 99
f 7 101 100
f 100 99 7
f 26 27 25
f 25 109 26
f 25 23 24
f 24 109 25
f 109 24 112
f 112 24 23
f 112 114 113
f 23 114 112
f 71 102 72
f 71 75 39
f 121 120 119
f 119 120 118
f 2 119 118
f 3 119 2
f 117 115 116
f 117 2 118
f 118 120 117
f 116 114 21
f 1 19 3
f 3 2 1
f 116 19 1
f 2 117 1
f 1 117 116
f 77 31 32
f 8 31 77
f 32 33 77
f 77 33 8
f 85 87 86
f 87 88 86
f 83 9 85
f 10 9 83
f 83 82 81
f 83 11 10
f 81 11 83
f 94 96 95
f 90 35 34
f 92 33 96
f 96 94 92
f 92 94 93
f 34 33 92
f 92 90 34
f 14 128 126
f 125 124 126
f 126 124 15
f 15 14 126
f 71 69 70
f 70 100 71
f 69 100 70
f 30 29 103
f 29 104 103
f 103 101 30
f 103 104 102
f 102 101 103
f 110 109 111
f 109 112 111
f 111 112 113
f 113 115 111
f 40 75 71
f 71 41 40
f 110 75 108
f 108 109 110
f 106 104 29
f 115 117 52
f 52 117 53
f 52 57 71
f 71 39 52
f 52 39 75
f 75 38 52
f 55 120 122
f 3 19 18
f 18 119 3
f 18 19 16
f 20 19 116
f 116 21 20
f 20 21 19
f 22 114 23
f 22 21 114
f 23 19 22
f 19 21 22
f 65 64 88
f 82 64 63
f 85 86 84
f 84 83 85
f 82 83 84
f 84 64 82
f 88 64 84
f 84 86 88
f 88 90 91
f 91 92 93
f 90 92 91
f 91 94 95
f 93 94 91
f 95 68 91
f 91 68 67
f 89 88 87
f 89 90 88
f 35 90 89
f 89 87 36
f 36 35 89
f 13 12 130
f 130 128 13
f 130 131 128
f 50 111 115
f 73 72 102
f 73 40 41
f 71 72 73
f 73 41 71
f 6 26 109
f 109 108 6
f 27 26 6
f 28 29 27
f 28 106 29
f 122 57 56
f 56 55 122
f 53 117 54
f 54 117 120
f 120 55 54
f 121 119 17
f 119 18 17
f 16 121 17
f 17 18 16
f 58 57 125
f 125 59 58
f 58 59 57
f 67 42 43
f 43 42 71
f 12 81 79
f 79 130 12
f 79 78 131
f 131 130 79
f 128 131 129
f 115 52 51
f 51 50 115
f 52 50 51
f 37 52 38
f 37 50 52
f 110 111 49
f 111 50 49
f 74 108 75
f 75 40 74
f 40 73 74
f 107 108 105
f 105 73 102
f 108 74 105
f 105 74 73
f 102 104 105
f 104 106 105
f 105 106 107
f 27 6 5
f 5 28 27
f 106 28 5
f 107 106 5
f 57 52 47
f 47 56 57
f 55 56 47
f 47 54 55
f 67 43 66
f 66 65 88
f 64 65 66
f 66 91 67
f 88 91 66
f 66 45 64
f 45 43 62
f 71 57 62
f 62 43 71
f 64 45 62
f 62 63 64
f 82 63 62
f 128 129 127
f 125 126 127
f 127 126 128
f 127 59 125
f 60 59 127
f 76 49 50
f 76 37 38
f 50 37 76
f 76 38 75
f 76 75 110
f 110 49 76
f 4 6 108
f 4 5 6
f 4 108 107
f 107 5 4
f 53 54 48
f 54 47 48
f 48 52 53
f 48 47 52
f 44 43 45
f 45 66 44
f 44 66 43
f 46 62 57
f 57 59 46
f 60 127 80
f 80 127 129
f 82 62 80
f 81 82 80
f 131 78 80
f 80 129 131
f 80 79 81
f 78 79 80
f 62 46 61
f 60 80 61
f 61 80 62
f 61 59 60
f 61 46 59

