# https://github.com/mikedh/trimesh
v 0.15622933 0.17486437 0.10687611
v 0.15275806 0.17231714 0.11005941
v 0.14916731 0.17273406 0.10987671
v 0.15174968 0.17315328 0.10820941
v 0.15651734 0.17363487 0.10777854
v 0.15674655 0.17650833 0.10897701
v 0.15328629 0.17734069 0.11147861
v 0.14966305 0.17781852 0.11062784
v 0.15006243 0.17755326 0.11219664
v 0.15715328 0.17537704 0.10979612
v 0.15361291 0.17374001 0.11215309
v 0.15074791 0.17565302 0.11371353
v 0.15052433 0.17351634 0.11326744
v 0.15661398 0.17457747 0.10709316
v 0.14868393 0.17469851 0.10884641
v 0.15722558 0.17386629 0.10877356
v 0.15653423 0.17630444 0.10739014
v 0.15761514 0.17597274 0.10890307
v 0.15736426 0.17636063 0.10918709
v 0.15371290 0.17570161 0.11237649
v 0.14996073 0.17250531 0.11188734
v 0.15167596 0.17516877 0.10749434
v 0.14882213 0.17650701 0.10915579
v 0.15733186 0.17493302 0.10947832
v 0.15217421 0.17743706 0.10866056
v 0.15732614 0.17403937 0.10797521
v 0.15707086 0.17388392 0.10931104
v 0.15011214 0.17585172 0.11238094
v 0.15690491 0.17598504 0.10739231
v 0.14919008 0.17449851 0.11010864
v 0.14923524 0.17589023 0.11023584
v 0.14965544 0.17365259 0.11125349
v 0.15013448 0.17440762 0.11243724
f 11 21 2
f 23 9 8
f 2 21 3
f 12 11 20
f 27 11 2
f 13 11 12
f 21 11 13
f 13 33 21
f 25 6 17
f 25 23 8
f 29 1 17
f 15 23 22
f 23 25 22
f 17 1 22
f 22 25 17
f 2 3 4
f 4 22 1
f 4 3 15
f 15 22 4
f 21 33 32
f 15 3 32
f 32 3 21
f 31 23 15
f 31 32 33
f 9 23 31
f 12 9 28
f 28 13 12
f 33 13 28
f 9 31 28
f 28 31 33
f 8 9 7
f 7 9 12
f 12 20 7
f 7 25 8
f 6 25 7
f 10 20 11
f 11 27 10
f 26 29 18
f 15 32 30
f 30 31 15
f 32 31 30
f 6 7 19
f 17 6 19
f 19 10 18
f 18 29 19
f 19 29 17
f 19 7 20
f 20 10 19
f 18 10 24
f 24 10 27
f 1 29 14
f 29 26 14
f 16 27 2
f 16 24 27
f 16 26 18
f 18 24 16
f 5 14 26
f 2 4 5
f 5 16 2
f 26 16 5
f 5 4 1
f 1 14 5

