# https://github.com/mikedh/trimesh
v 0.08267587 0.10695582 -0.08869282
v 0.08243419 0.10514074 -0.07582767
v 0.08319892 0.10601236 -0.07814239
v 0.08182902 0.10614714 -0.07846987
v 0.08130444 0.10488487 -0.07823994
v 0.08187957 0.10409357 -0.07858895
v 0.08120319 0.10490700 -0.07870207
v 0.08171875 0.10625070 -0.07887562
v 0.08336894 0.10624847 -0.07900530
v 0.08390219 0.10540287 -0.07903385
v 0.08335942 0.10440174 -0.07837239
v 0.08388447 0.10764089 -0.08868689
v 0.08089587 0.10749356 -0.08869184
v 0.08520339 0.10437924 -0.08868714
v 0.08181314 0.10221455 -0.08867434
v 0.07959429 0.10518602 -0.08869024
v 0.08108052 0.10469356 -0.07949012
v 0.08179555 0.10380000 -0.07939994
v 0.08328112 0.10388205 -0.07924349
v 0.08421632 0.10491771 -0.08869037
v 0.08095082 0.10548572 -0.08062467
v 0.08127431 0.10419652 -0.08053925
v 0.08258987 0.10365817 -0.08035594
v 0.08254409 0.10668451 -0.07986419
v 0.08118094 0.10599559 -0.07969347
f 14 12 10
f 20 12 14
f 20 1 12
f 16 1 20
f 20 15 16
f 14 15 20
f 13 1 16
f 12 1 13
f 19 15 14
f 25 13 16
f 11 10 2
f 2 19 11
f 14 10 11
f 11 19 14
f 21 25 16
f 25 21 7
f 16 17 7
f 7 21 16
f 12 13 24
f 6 19 2
f 6 18 19
f 15 18 22
f 22 18 17
f 16 15 22
f 22 17 16
f 15 19 23
f 23 18 15
f 19 18 23
f 17 18 5
f 5 7 17
f 18 6 5
f 5 6 2
f 2 25 5
f 25 7 5
f 12 24 9
f 9 10 12
f 13 25 8
f 8 24 13
f 3 24 2
f 3 9 24
f 2 10 3
f 10 9 3
f 2 24 4
f 24 8 4
f 4 25 2
f 4 8 25

