# https://github.com/mikedh/trimesh
v -0.04125464 0.14845690 0.09828017
v -0.04061424 0.15203150 0.09204235
v -0.04850039 0.14827486 0.11605772
v -0.20078907 0.14499486 0.06216551
v -0.08068837 0.09648776 0.13424862
v -0.18454108 0.07535127 0.12212574
v -0.18434325 0.08334659 0.12458886
v -0.18826714 0.08045119 0.12169934
v -0.06430357 0.12399281 0.13501807
v -0.04647147 0.08037400 0.11192475
v -0.05214230 0.09077128 0.12339667
v -0.06173082 0.07984028 0.13397827
v -0.06172375 0.08521056 0.13490817
v -0.10040689 0.08758958 0.13316877
v -0.05805914 0.13217101 0.13311885
v -0.05442489 0.14420655 0.12686307
v -0.05820780 0.14075908 0.13137287
v -0.17557412 0.12998087 0.12755514
v -0.10040689 0.12894479 0.13316877
v -0.06177520 0.13185293 0.13490312
v -0.18146209 0.06298411 0.10730226
v -0.03911315 0.06038113 0.06307687
v -0.05287303 0.06312586 0.11412610
v -0.19280492 0.15422220 0.06216793
v -0.05674348 0.06724623 0.12454170
v -0.17933397 0.06431326 0.11196556
v -0.05456275 0.06448363 0.11948747
v -0.04289797 0.15404106 0.09166627
v -0.05202560 0.15209598 0.11720035
v -0.04898894 0.15148191 0.11355495
v -0.19314670 0.06073602 0.06242946
v -0.20148693 0.06392594 0.06316426
v -0.03407412 0.14658648 0.06356334
v -0.03477966 0.15248045 0.06312527
v -0.03677627 0.15095053 0.07962832
v -0.06089497 0.13609360 0.13397630
v -0.06408557 0.11624771 0.13502427
v -0.08068832 0.12601546 0.13424930
v -0.06439465 0.12598588 0.13501057
v -0.05222720 0.14836507 0.12192547
v -0.20771489 0.14318014 0.06216650
v -0.20830787 0.07321619 0.06308047
v -0.20839615 0.14319134 0.06320182
v -0.20352905 0.13965852 0.08662741
v -0.19345575 0.14207022 0.11289941
v -0.18006615 0.07174511 0.12157209
v -0.17871618 0.07938877 0.12588982
v -0.04813503 0.06802038 0.11515807
v -0.04993682 0.06495728 0.11523677
v -0.04097187 0.06681278 0.09692437
v -0.18163986 0.15353309 0.10724461
v -0.03903164 0.15614750 0.06309103
v -0.19278649 0.15590433 0.06246243
v -0.03987799 0.14324395 0.09376317
v -0.03523971 0.14560018 0.06215816
v -0.03527134 0.15142991 0.06216677
v -0.19394385 0.06246029 0.06216799
v -0.05258217 0.06903091 0.12304672
v -0.05740435 0.07241460 0.12922097
v -0.18155335 0.06768991 0.11721459
v -0.05970977 0.07108830 0.12904395
v -0.18805155 0.15010566 0.10987874
v -0.18463974 0.15025632 0.11321579
v -0.05592782 0.07606685 0.12974124
v -0.06439460 0.09054853 0.13501062
v -0.05886712 0.08413766 0.13368935
v -0.19975309 0.15137439 0.06216582
v -0.17972115 0.08507666 0.12664946
v -0.17516010 0.08599131 0.12754804
v -0.05394984 0.15325740 0.11588852
v -0.18073262 0.15149069 0.11338921
v -0.04109530 0.06236068 0.08611305
v -0.05407722 0.11953343 0.12683570
v -0.04838185 0.13361650 0.11627097
v -0.18789016 0.14485609 0.11749551
v -0.18081329 0.14602559 0.12033984
v -0.06408543 0.10028668 0.13502520
v -0.20349904 0.07697896 0.08689506
v -0.17889792 0.14057601 0.12446534
v -0.17913613 0.13357554 0.12665701
v -0.06032777 0.14267343 0.13102622
v -0.05802057 0.14670683 0.12757075
v -0.03764052 0.07138695 0.08629187
v -0.05612542 0.15012836 0.12325130
v -0.20145672 0.06498272 0.06216604
v -0.03478840 0.06412955 0.06307971
v -0.03477997 0.07066813 0.06223040
v -0.03544772 0.06454461 0.06216244
v -0.06051045 0.07706900 0.13271687
v -0.18662115 0.06562774 0.11014434
v -0.19495980 0.13628932 0.11323931
v -0.08096805 0.09066138 0.13423422
v -0.05538335 0.10507650 0.12902862
v -0.20085263 0.15196782 0.06216625
v -0.20139060 0.15267921 0.06315169
v -0.19239979 0.14595644 0.11013864
v -0.18338712 0.13407991 0.12499974
v -0.18833750 0.07071754 0.11616508
v -0.19205455 0.07715979 0.11688796
v -0.19192424 0.13729234 0.11773891
v -0.18842814 0.13414631 0.12180131
v -0.18790597 0.13962322 0.12072291
v -0.03708142 0.06585245 0.08135977
v -0.20722912 0.07235507 0.06216514
v -0.19419444 0.07532229 0.11214064
v -0.19268697 0.07105431 0.11032104
v -0.08071872 0.09251566 0.13424687
v -0.03879974 0.15527822 0.06216333
v -0.03934490 0.06108363 0.06216687
v -0.18404797 0.14070313 0.12273106
v -0.06430307 0.09254140 0.13501875
v -0.19549524 0.07984716 0.11195009
v -0.17768777 0.07529312 0.12428929
f 33 83 86
f 86 87 33
f 42 78 43
f 71 70 51
f 53 95 51
f 68 47 69
f 47 14 69
f 12 14 47
f 106 32 90
f 106 42 32
f 78 42 106
f 7 47 68
f 33 87 55
f 55 56 33
f 108 56 55
f 84 70 71
f 28 30 2
f 33 56 34
f 34 56 108
f 35 83 33
f 35 54 83
f 33 34 35
f 35 34 2
f 14 12 13
f 78 106 105
f 105 106 99
f 99 106 98
f 60 46 98
f 90 60 98
f 98 106 90
f 43 78 44
f 43 95 41
f 41 42 43
f 88 55 87
f 88 57 85
f 87 86 88
f 71 76 82
f 82 84 71
f 82 76 81
f 40 84 82
f 70 84 29
f 29 28 70
f 30 28 29
f 29 84 40
f 40 30 29
f 2 30 1
f 54 35 1
f 1 35 2
f 83 54 1
f 1 50 83
f 52 28 2
f 2 34 52
f 52 34 108
f 70 28 52
f 108 53 52
f 53 51 52
f 52 51 70
f 103 86 83
f 83 50 103
f 27 23 49
f 66 13 12
f 66 20 13
f 10 1 74
f 50 1 10
f 15 66 64
f 20 66 15
f 113 12 47
f 61 60 25
f 61 46 60
f 25 59 61
f 61 113 46
f 6 98 46
f 47 7 6
f 99 98 6
f 6 113 47
f 46 113 6
f 112 105 99
f 99 100 112
f 78 105 112
f 112 44 78
f 96 95 43
f 43 44 96
f 94 95 53
f 94 41 95
f 42 41 104
f 32 42 104
f 104 85 32
f 55 88 104
f 104 88 85
f 32 85 31
f 85 57 31
f 19 20 36
f 20 15 36
f 77 13 37
f 13 20 37
f 37 9 77
f 20 9 37
f 38 20 19
f 3 30 40
f 3 1 30
f 74 1 3
f 22 86 72
f 86 103 72
f 72 23 22
f 49 23 72
f 72 50 49
f 72 103 50
f 25 60 26
f 26 27 25
f 26 60 90
f 14 13 92
f 13 65 92
f 92 19 14
f 92 38 19
f 5 38 92
f 92 107 5
f 49 50 48
f 50 10 48
f 48 10 74
f 12 113 89
f 113 61 89
f 89 61 59
f 89 59 64
f 89 66 12
f 64 66 89
f 99 6 8
f 8 6 7
f 7 101 8
f 8 100 99
f 8 101 100
f 19 36 80
f 91 112 100
f 44 112 91
f 24 53 108
f 108 94 24
f 24 94 53
f 4 104 41
f 55 104 4
f 57 88 109
f 109 31 57
f 22 31 109
f 109 86 22
f 109 88 86
f 81 36 17
f 17 36 15
f 17 82 81
f 39 9 20
f 20 38 39
f 39 38 9
f 21 26 90
f 90 32 21
f 32 31 21
f 22 23 21
f 21 31 22
f 23 27 21
f 27 26 21
f 77 9 111
f 111 92 65
f 107 92 111
f 5 107 111
f 111 13 77
f 111 65 13
f 111 38 5
f 9 38 111
f 49 48 58
f 58 59 25
f 64 59 58
f 58 48 64
f 25 27 58
f 58 27 49
f 93 15 64
f 93 73 15
f 64 48 11
f 11 93 64
f 73 93 11
f 11 48 74
f 74 73 11
f 15 73 16
f 16 3 40
f 74 3 16
f 16 73 74
f 16 17 15
f 40 82 16
f 82 17 16
f 19 80 18
f 18 69 14
f 14 19 18
f 68 69 18
f 18 80 68
f 100 75 45
f 45 75 96
f 45 91 100
f 45 96 44
f 44 91 45
f 96 75 62
f 62 51 95
f 95 96 62
f 76 75 110
f 41 94 67
f 67 4 41
f 55 4 67
f 108 55 67
f 67 94 108
f 63 62 75
f 63 76 71
f 63 75 76
f 71 51 63
f 51 62 63
f 80 110 97
f 97 101 7
f 97 7 68
f 68 80 97
f 100 101 102
f 102 75 100
f 102 110 75
f 101 97 102
f 102 97 110
f 76 110 79
f 79 110 80
f 81 76 79
f 79 36 81
f 79 80 36

