# https://github.com/mikedh/trimesh
v -0.00876573 0.05030853 -0.03335787
v -0.00714346 0.05217958 -0.03315958
v -0.01056828 0.05027088 -0.03313632
v -0.00952874 0.05563708 -0.03319657
v -0.00991267 0.05558142 -0.03597685
v -0.01176632 0.05469795 -0.03316073
v -0.01234042 0.05403768 -0.03594388
v -0.01251790 0.05239703 -0.03316347
v -0.01180516 0.05100137 -0.03595350
v -0.00934511 0.05023942 -0.03595185
v -0.00728736 0.05175495 -0.03592230
v -0.00755683 0.05449263 -0.03597258
v -0.00774205 0.05454703 -0.03312992
v -0.00876289 0.05226075 -0.04766245
v -0.01006753 0.05128758 -0.04754697
v -0.00875954 0.05349405 -0.04768910
v -0.00942146 0.05406323 -0.04754503
v -0.01133942 0.05307272 -0.04762047
v -0.01081692 0.05360885 -0.04744785
v -0.00846763 0.05209328 -0.04740013
v -0.00848470 0.05373158 -0.04732517
v -0.00980633 0.05443380 -0.04724245
v -0.01117132 0.05367993 -0.04717525
v -0.01102515 0.05186583 -0.04703923
v -0.00927753 0.05139873 -0.04695033
v -0.00872403 0.05404345 -0.04679975
v -0.01033081 0.05435230 -0.04670785
v -0.01142862 0.05283723 -0.04664023
v -0.00862549 0.05183055 -0.04644670
v -0.00925507 0.05443282 -0.04580970
v -0.00826686 0.05344892 -0.04538815
v -0.00831006 0.05252875 -0.04689045
v -0.00980657 0.05434835 -0.03312455
v -0.01108649 0.05355195 -0.03311332
v -0.01097899 0.05199825 -0.03310517
v -0.00857439 0.05212688 -0.03309655
v -0.00852667 0.05355198 -0.03311332
f 13 36 2
f 2 12 13
f 13 12 4
f 35 34 8
f 36 34 35
f 2 36 3
f 36 35 3
f 3 35 8
f 11 12 2
f 12 11 31
f 16 20 14
f 8 34 6
f 6 7 8
f 37 34 36
f 36 13 37
f 9 3 8
f 1 11 2
f 2 3 1
f 1 3 10
f 32 11 20
f 32 31 11
f 23 22 19
f 27 22 23
f 23 7 27
f 7 6 27
f 34 37 33
f 33 37 13
f 33 6 34
f 33 13 4
f 4 6 33
f 15 14 20
f 10 3 15
f 3 9 15
f 5 30 22
f 22 27 5
f 4 12 5
f 12 30 5
f 5 6 4
f 5 27 6
f 12 31 21
f 31 32 21
f 16 17 21
f 21 20 16
f 21 32 20
f 21 17 22
f 20 11 29
f 11 1 29
f 24 15 9
f 26 30 12
f 12 21 26
f 22 30 26
f 26 21 22
f 25 15 20
f 20 29 25
f 10 15 25
f 25 1 10
f 25 29 1
f 18 7 23
f 23 19 18
f 15 24 18
f 18 17 16
f 16 14 18
f 14 15 18
f 22 17 18
f 18 19 22
f 28 9 8
f 28 24 9
f 28 18 24
f 8 7 28
f 7 18 28

