# https://github.com/mikedh/trimesh
v 0.20721130 -0.18633299 0.09836694
v 0.20800638 -0.19422176 0.10427737
v 0.20503738 -0.19330899 0.09613762
v 0.19258659 -0.17799807 0.08774432
v 0.19538128 -0.17958349 0.08619169
v 0.19181846 -0.18737409 0.08588967
v 0.19737646 -0.16807376 0.09930739
v 0.20155673 -0.16814874 0.10052696
v 0.19937883 -0.16917445 0.09583179
v 0.19997615 -0.20411854 0.10558386
v 0.20140708 -0.20393169 0.10032914
v 0.20301330 -0.20374229 0.10441431
v 0.19736665 -0.20389903 0.09928404
v 0.19933693 -0.20286796 0.09575252
v 0.20575845 -0.20069509 0.11109104
v 0.20304279 -0.20092585 0.11298777
v 0.20457384 -0.20261877 0.10806064
v 0.19522426 -0.18410761 0.08521989
v 0.20095979 -0.18252014 0.08975737
v 0.20050266 -0.18780649 0.08898927
v 0.19553943 -0.19870974 0.09029444
v 0.19309276 -0.19634571 0.08896556
v 0.20699055 -0.19815902 0.10812472
v 0.20819363 -0.19503499 0.10796982
v 0.20453224 -0.19998779 0.10068959
v 0.19438119 -0.17196372 0.09207652
v 0.20871727 -0.19367962 0.11060582
v 0.20040968 -0.16816903 0.10663049
v 0.20325141 -0.16842784 0.10469897
v 0.20462293 -0.20085530 0.11181582
v 0.20629355 -0.19639135 0.11581379
v 0.20353944 -0.17397294 0.11418649
v 0.20366211 -0.17584365 0.11448274
v 0.19632440 -0.19615276 0.08819264
v 0.19501704 -0.19255781 0.08625762
v 0.19531011 -0.18949529 0.08538729
v 0.20697653 -0.17387396 0.10814804
v 0.20788493 -0.17614951 0.10771506
v 0.20038671 -0.19370674 0.09064329
v 0.19445051 -0.19865767 0.09224404
v 0.20456555 -0.16948304 0.10822494
v 0.20857265 -0.17802682 0.10911159
v 0.20992920 -0.18565619 0.11135409
v 0.20916192 -0.18269316 0.10528072
v 0.20519006 -0.19406546 0.11817169
v 0.20804507 -0.19187766 0.11779317
v 0.20595774 -0.18469399 0.12002487
v 0.20191798 -0.17626351 0.09324402
v 0.20159336 -0.19440254 0.09214829
v 0.19670689 -0.17128407 0.09267349
v 0.19630105 -0.17591684 0.08816217
v 0.20885844 -0.18683322 0.11821779
v 0.20885250 -0.19166370 0.11639214
v 0.20846917 -0.19425856 0.11268599
v 0.19502431 -0.20131314 0.09362884
v 0.20271103 -0.17358229 0.11218659
v 0.20068378 -0.17361636 0.09348332
v 0.19890276 -0.19417388 0.08939012
v 0.19931961 -0.17814962 0.08961119
v 0.20114978 -0.17812162 0.09149122
v 0.20180395 -0.19647652 0.09349162
v 0.20050019 -0.19865279 0.09340959
v 0.20752561 -0.19614284 0.11522157
v 0.20631840 -0.17564056 0.11588549
v 0.20282681 -0.17086679 0.11246572
v 0.20473053 -0.17593699 0.11706179
v 0.20874333 -0.18286579 0.11802769
v 0.20462813 -0.17132459 0.11179132
v 0.20556869 -0.17320436 0.10210224
v 0.19500791 -0.17563427 0.08857179
v 0.20754215 -0.17593361 0.11522024
v 0.20579843 -0.17139942 0.11103382
v 0.20858285 -0.17813494 0.11208244
v 0.20704841 -0.17877864 0.10059267
v 0.20379843 -0.17575351 0.09578021
v 0.20821073 -0.17891611 0.11695054
v 0.19804543 -0.17141115 0.09235271
v 0.19806295 -0.20066962 0.09236019
f 6 4 5
f 47 76 66
f 73 76 43
f 45 4 16
f 26 28 7
f 26 4 28
f 33 45 47
f 33 4 45
f 19 5 59
f 59 5 51
f 9 26 7
f 18 5 19
f 6 5 18
f 18 36 6
f 13 11 10
f 10 16 13
f 76 73 71
f 67 76 47
f 47 52 67
f 43 76 67
f 67 52 43
f 47 45 46
f 46 52 47
f 46 45 63
f 19 75 1
f 63 45 31
f 31 16 63
f 45 16 31
f 63 16 30
f 70 26 51
f 4 26 70
f 51 5 70
f 70 5 4
f 28 4 56
f 4 33 56
f 60 75 19
f 19 59 60
f 51 26 77
f 77 59 51
f 7 28 8
f 8 9 7
f 8 69 75
f 75 9 8
f 55 21 78
f 22 21 55
f 40 13 16
f 40 4 6
f 40 16 4
f 55 13 40
f 6 22 40
f 40 22 55
f 66 65 32
f 47 66 32
f 32 33 47
f 32 56 33
f 32 65 28
f 28 56 32
f 64 66 76
f 76 71 64
f 64 65 66
f 64 71 72
f 53 46 63
f 43 52 53
f 52 46 53
f 61 25 62
f 3 25 61
f 19 1 20
f 20 1 3
f 20 18 19
f 36 18 20
f 44 1 74
f 74 1 75
f 75 69 74
f 74 38 44
f 69 38 74
f 44 38 42
f 42 38 73
f 43 44 42
f 42 73 43
f 37 38 69
f 73 38 37
f 72 71 37
f 37 71 73
f 26 9 50
f 50 77 26
f 9 77 50
f 57 9 75
f 57 77 9
f 59 77 57
f 41 65 72
f 28 65 41
f 72 37 41
f 41 37 69
f 11 13 14
f 14 78 62
f 14 13 55
f 55 78 14
f 62 25 14
f 14 25 11
f 34 78 21
f 21 22 34
f 72 65 68
f 68 64 72
f 65 64 68
f 3 61 49
f 49 20 3
f 39 20 49
f 43 53 27
f 17 16 10
f 17 30 16
f 2 25 3
f 3 1 2
f 2 1 44
f 2 44 43
f 43 27 2
f 2 27 24
f 75 60 48
f 48 57 75
f 48 60 59
f 59 57 48
f 69 8 29
f 29 41 69
f 29 8 28
f 28 41 29
f 62 78 58
f 78 34 58
f 39 49 58
f 58 34 36
f 58 61 62
f 58 49 61
f 36 20 58
f 58 20 39
f 36 34 35
f 35 34 22
f 6 36 35
f 35 22 6
f 54 53 63
f 54 27 53
f 11 25 12
f 25 17 12
f 10 11 12
f 12 17 10
f 15 54 63
f 63 30 15
f 30 17 15
f 23 2 24
f 23 15 17
f 23 17 25
f 25 2 23
f 54 15 23
f 24 27 23
f 27 54 23

