# https://github.com/mikedh/trimesh
v 0.21011232 -0.19940132 -0.04799188
v 0.21261659 -0.19856239 -0.05023276
v 0.21358107 -0.19972484 -0.04811441
v 0.20729426 -0.19809727 -0.04436259
v 0.20679453 -0.19849914 -0.04578083
v 0.20660976 -0.19849894 -0.04483311
v 0.20994497 -0.19485519 -0.04842506
v 0.21266771 -0.19571881 -0.05043691
v 0.20949004 -0.19731381 -0.04944813
v 0.20600570 -0.19781294 -0.04655353
v 0.20598882 -0.19815562 -0.04546941
v 0.20581003 -0.19730609 -0.04624351
v 0.20622574 -0.19589429 -0.04629953
v 0.20684894 -0.19555792 -0.04532061
v 0.21113699 -0.19945469 -0.04567313
v 0.21448732 -0.19843222 -0.04599708
v 0.20640262 -0.19801856 -0.04454378
v 0.20650366 -0.19738934 -0.04397676
v 0.21357830 -0.19429392 -0.04811275
v 0.20661286 -0.19555384 -0.04440188
v 0.20695556 -0.19739672 -0.04378441
v 0.20731717 -0.19617912 -0.04402691
v 0.21314209 -0.19763849 -0.04928808
v 0.21405447 -0.19780797 -0.04709673
v 0.21381002 -0.19562204 -0.04765811
v 0.21443256 -0.19545499 -0.04605131
v 0.21089764 -0.19444522 -0.04599416
v 0.20563379 -0.19627327 -0.04566908
v 0.20637916 -0.19627131 -0.04422863
v 0.21156717 -0.19734881 -0.04448743
v 0.21160212 -0.19526059 -0.04493483
v 0.21318324 -0.19614269 -0.04922006
v 0.21355990 -0.19837994 -0.04831631
f 19 8 7
f 25 8 19
f 9 7 8
f 2 9 8
f 1 9 2
f 26 25 19
f 19 7 27
f 27 26 19
f 31 26 27
f 8 25 32
f 15 6 1
f 31 27 20
f 20 27 7
f 8 32 33
f 1 2 3
f 3 15 1
f 16 15 3
f 3 33 16
f 7 9 13
f 28 20 13
f 10 9 1
f 10 13 9
f 23 2 8
f 8 33 23
f 23 3 2
f 33 3 23
f 24 32 25
f 24 33 32
f 16 33 24
f 24 26 16
f 25 26 24
f 6 15 4
f 4 21 6
f 15 21 4
f 31 20 22
f 16 26 30
f 30 26 31
f 30 15 16
f 30 21 15
f 31 22 30
f 30 22 21
f 14 20 7
f 7 13 14
f 14 13 20
f 29 20 28
f 29 22 20
f 21 22 29
f 6 21 18
f 21 29 18
f 28 11 18
f 18 29 28
f 1 6 5
f 6 11 5
f 5 10 1
f 11 10 5
f 12 11 28
f 12 10 11
f 28 13 12
f 13 10 12
f 17 11 6
f 6 18 17
f 17 18 11

