# https://github.com/mikedh/trimesh
v 0.15962583 0.04478964 0.10223831
v 0.15681495 0.04524204 0.10244344
v 0.15685398 0.04320516 0.10017664
v 0.15961275 0.04329866 0.10040554
v 0.15964172 0.04421896 0.09775061
v 0.15683192 0.04479981 0.09738516
v 0.15964616 0.04677206 0.09727314
v 0.15683887 0.04722496 0.09748054
v 0.15960810 0.04881079 0.09954181
v 0.15684552 0.04871326 0.09931579
v 0.15681920 0.04779334 0.10196761
v 0.15962830 0.04721676 0.10233534
v 0.14521195 0.04592297 0.09829256
v 0.14512935 0.04717334 0.09950758
v 0.14536742 0.04718536 0.09883774
v 0.14509890 0.04687626 0.10070541
v 0.14526493 0.04569199 0.10107129
v 0.14492090 0.04498231 0.09993754
v 0.14532918 0.04480754 0.10017724
v 0.14537307 0.04483946 0.09936076
v 0.14546403 0.04732719 0.10085918
v 0.14557908 0.04522632 0.10124814
v 0.14567292 0.04445967 0.09978221
v 0.14578657 0.04503802 0.09879863
v 0.14577443 0.04629039 0.09833589
v 0.14587350 0.04745456 0.09926476
v 0.14601362 0.04585992 0.10145564
v 0.14612502 0.04450354 0.10027246
v 0.14619315 0.04489419 0.09874526
v 0.14659558 0.04457754 0.10051036
v 0.14675068 0.04510989 0.09846931
v 0.14747555 0.04659999 0.10136444
v 0.15967810 0.04567676 0.10127736
v 0.15968300 0.04485256 0.09892759
v 0.15967360 0.04740701 0.09935879
v 0.15969522 0.04707504 0.10083841
f 36 9 12
f 1 22 3
f 2 22 1
f 1 12 2
f 35 9 36
f 7 9 35
f 36 34 35
f 35 34 7
f 8 9 7
f 7 6 8
f 6 13 8
f 19 22 18
f 30 28 3
f 3 22 30
f 30 22 28
f 5 6 7
f 7 34 5
f 3 29 5
f 5 29 6
f 27 22 2
f 2 12 27
f 33 34 36
f 36 12 33
f 12 1 33
f 3 28 23
f 23 29 3
f 23 19 18
f 28 22 23
f 22 19 23
f 31 13 6
f 6 29 31
f 31 29 13
f 25 8 13
f 13 15 25
f 25 15 8
f 9 8 10
f 8 15 10
f 10 15 26
f 4 5 34
f 4 1 3
f 3 5 4
f 34 33 4
f 4 33 1
f 11 27 12
f 11 12 9
f 9 10 11
f 26 15 14
f 14 13 18
f 14 15 13
f 16 14 18
f 18 13 20
f 20 23 18
f 29 23 20
f 21 11 10
f 14 16 21
f 26 14 21
f 21 10 26
f 22 27 17
f 18 22 17
f 17 16 18
f 27 21 17
f 17 21 16
f 13 29 24
f 24 20 13
f 29 20 24
f 27 11 32
f 32 21 27
f 11 21 32

