# https://github.com/mikedh/trimesh
v -0.02668764 -0.15130415 0.05114432
v -0.02678659 -0.15137302 0.11019940
v -0.04071706 -0.13694587 0.05114432
v -0.03997899 -0.13780940 0.11019940
v -0.04640939 -0.12483174 0.11019940
v -0.04673583 -0.12348302 0.05114432
v -0.04911796 -0.10944982 0.05114432
v -0.04911796 -0.10807095 0.11019940
v -0.04697486 -0.09485932 0.05114432
v -0.04673581 -0.09403772 0.11019940
v -0.04145676 -0.08173850 0.05114432
v -0.04071706 -0.08057489 0.11019940
v -0.02678658 -0.06614772 0.05114432
v -0.02668764 -0.06621663 0.11019940
v 0.03074376 -0.06598450 0.11019940
v 0.03993964 -0.07396395 0.11019940
v 0.04720049 -0.08382830 0.11019940
v 0.05300579 -0.09978315 0.11019940
v 0.05306004 -0.11660285 0.11019940
v 0.04980239 -0.12804181 0.11019940
v 0.04395198 -0.13880271 0.11019940
v 0.03135998 -0.15130415 0.11019940
v 0.03135999 -0.06621663 0.05114432
v 0.03074376 -0.15153627 0.05114432
v 0.03993966 -0.14355680 0.05114432
v 0.04720049 -0.13369248 0.05114432
v 0.05164722 -0.12266133 0.05114432
v 0.05379027 -0.10807096 0.05114433
v 0.05068769 -0.09153983 0.05114432
v 0.04395199 -0.07871808 0.05114432
f 22 2 24
f 24 2 1
f 28 19 27
f 25 22 24
f 26 27 20
f 20 27 19
f 2 4 3
f 3 1 2
f 18 19 28
f 11 10 12
f 13 12 14
f 11 12 13
f 13 14 15
f 15 23 13
f 21 25 26
f 26 20 21
f 22 25 21
f 5 3 4
f 7 5 8
f 17 18 29
f 29 30 17
f 29 18 28
f 17 30 16
f 16 30 23
f 16 23 15
f 8 10 9
f 9 7 8
f 9 10 11
f 3 5 6
f 5 7 6
f 22 21 16
f 19 18 16
f 16 10 8
f 16 20 19
f 2 22 16
f 16 4 2
f 8 5 16
f 15 14 16
f 16 12 10
f 16 18 17
f 14 12 16
f 16 21 20
f 16 5 4
f 24 1 6
f 28 27 6
f 11 13 6
f 6 25 24
f 6 27 26
f 6 29 28
f 26 25 6
f 1 3 6
f 23 30 6
f 6 13 23
f 6 9 11
f 30 29 6
f 7 9 6

