# https://github.com/mikedh/trimesh
v 0.15962582 -0.04745919 0.09760896
v 0.15685144 -0.04831874 0.09823879
v 0.15681669 -0.04544756 0.09721589
v 0.15961275 -0.04512651 0.09723411
v 0.15681920 -0.04343269 0.09885159
v 0.15964171 -0.04328741 0.09935859
v 0.15684552 -0.04388864 0.10162114
v 0.15964615 -0.04415051 0.10180841
v 0.15683886 -0.04607196 0.10252459
v 0.15960810 -0.04713456 0.10243964
v 0.15683191 -0.04824914 0.10145191
v 0.15962829 -0.04875681 0.09966244
v 0.14521194 -0.04460879 0.10056334
v 0.14512932 -0.04628621 0.10103864
v 0.14536349 -0.04570339 0.10138051
v 0.14509892 -0.04717503 0.10018244
v 0.14526492 -0.04689974 0.09897394
v 0.14492089 -0.04556306 0.09892619
v 0.14537307 -0.04499211 0.09909091
v 0.14542335 -0.04743951 0.10061246
v 0.14554349 -0.04720074 0.09884604
v 0.14562104 -0.04599189 0.09832758
v 0.14565156 -0.04482579 0.09881066
v 0.14587349 -0.04621651 0.10140364
v 0.14601361 -0.04731656 0.09892719
v 0.14612196 -0.04552256 0.09835394
v 0.14622080 -0.04447591 0.09957099
v 0.14647954 -0.04755161 0.10026069
v 0.14682022 -0.04487914 0.10103089
v 0.14690362 -0.04691304 0.10115743
v 0.14700294 -0.04747769 0.09907744
v 0.15966899 -0.04563926 0.09845321
v 0.15967464 -0.04460764 0.09935179
v 0.15969522 -0.04494016 0.10083194
v 0.15967279 -0.04645654 0.10127534
v 0.15967857 -0.04703924 0.09883179
f 33 6 34
f 12 2 1
f 35 10 12
f 3 23 5
f 24 10 9
f 12 1 36
f 34 35 36
f 36 35 12
f 4 1 3
f 3 5 4
f 4 5 6
f 31 2 12
f 30 10 24
f 24 20 30
f 6 5 13
f 24 9 15
f 29 13 15
f 8 9 10
f 8 35 34
f 10 35 8
f 34 6 8
f 26 23 3
f 6 33 32
f 32 4 6
f 32 33 34
f 34 36 32
f 32 36 1
f 1 4 32
f 12 20 28
f 28 31 12
f 21 1 2
f 10 30 11
f 11 30 20
f 12 10 11
f 11 20 12
f 27 5 23
f 23 13 27
f 27 13 5
f 19 23 18
f 18 13 19
f 19 13 23
f 14 20 24
f 24 15 14
f 14 13 18
f 14 15 13
f 7 15 9
f 9 8 7
f 29 15 7
f 7 13 29
f 6 13 7
f 7 8 6
f 2 31 25
f 25 21 2
f 20 21 25
f 25 28 20
f 31 28 25
f 16 21 20
f 16 14 18
f 20 14 16
f 18 23 22
f 23 26 22
f 22 26 3
f 1 21 22
f 3 1 22
f 18 22 17
f 17 22 21
f 17 16 18
f 21 16 17

