# https://github.com/mikedh/trimesh
v 0.14692571 0.02012031 -0.07330629
v 0.14713376 0.01844079 -0.07424584
v 0.14713501 0.02177216 -0.07388876
v 0.14690863 0.01809909 -0.07787024
v 0.14712336 0.01955393 -0.07871391
v 0.14711878 0.01765275 -0.07616101
v 0.14432434 0.01753027 -0.07568354
v 0.14428959 0.01887358 -0.07841949
v 0.14429208 0.02145827 -0.07865336
v 0.14711461 0.02191609 -0.07839148
v 0.14434239 0.02306047 -0.07641719
v 0.14711904 0.02300689 -0.07603426
v 0.14430074 0.02212029 -0.07418284
v 0.14430481 0.01982183 -0.07343014
v 0.13268486 0.02180994 -0.07660647
v 0.13260222 0.02093976 -0.07509566
v 0.13283639 0.02159584 -0.07525739
v 0.13254131 0.01982283 -0.07507761
v 0.13273153 0.01917191 -0.07571111
v 0.13239379 0.01998411 -0.07711367
v 0.13285333 0.02045892 -0.07737121
v 0.13288911 0.02033490 -0.07460456
v 0.13297714 0.01896467 -0.07532486
v 0.13306221 0.01891159 -0.07677318
v 0.13315059 0.02019815 -0.07772726
v 0.13322472 0.02156208 -0.07701649
v 0.13331111 0.02179685 -0.07558034
v 0.13339288 0.02041489 -0.07458469
v 0.13356694 0.01888432 -0.07681768
v 0.13380996 0.02126125 -0.07490019
v 0.13391779 0.01965833 -0.07471489
v 0.13399701 0.01878005 -0.07593289
v 0.13407031 0.01933210 -0.07736612
v 0.13416183 0.02088908 -0.07757129
v 0.13428729 0.02194617 -0.07607606
v 0.13448008 0.01871818 -0.07567871
v 0.14715244 0.01887117 -0.07620471
v 0.14715948 0.01974178 -0.07749659
v 0.14714228 0.02098638 -0.07740399
v 0.14713886 0.02177103 -0.07613933
v 0.14715136 0.02097535 -0.07485943
v 0.14715136 0.01953522 -0.07492487
f 38 6 5
f 11 12 10
f 10 5 9
f 38 5 10
f 13 12 11
f 7 6 2
f 2 23 7
f 9 26 15
f 11 10 15
f 15 10 9
f 38 10 39
f 39 10 12
f 3 13 1
f 12 13 3
f 1 2 3
f 34 26 9
f 27 15 17
f 27 13 11
f 17 13 27
f 14 2 1
f 23 2 14
f 1 13 14
f 30 13 17
f 17 22 30
f 23 22 18
f 7 23 36
f 38 39 40
f 40 39 12
f 42 3 2
f 25 24 20
f 25 33 24
f 26 34 25
f 25 15 26
f 9 5 25
f 25 34 9
f 11 15 35
f 35 27 11
f 15 27 35
f 31 22 23
f 23 14 31
f 31 14 22
f 28 14 13
f 22 14 28
f 13 30 28
f 28 30 22
f 16 22 17
f 16 18 22
f 17 15 16
f 16 15 20
f 20 18 16
f 19 18 20
f 23 18 19
f 20 24 19
f 19 24 23
f 23 24 32
f 32 36 23
f 32 24 7
f 7 36 32
f 4 5 6
f 4 6 7
f 7 24 4
f 24 29 4
f 38 42 37
f 37 42 2
f 37 6 38
f 37 2 6
f 41 42 38
f 3 42 41
f 38 40 41
f 12 3 41
f 41 40 12
f 20 15 21
f 21 25 20
f 15 25 21
f 8 4 29
f 24 33 8
f 8 29 24
f 5 4 8
f 8 25 5
f 33 25 8

