# https://github.com/mikedh/trimesh
v 0.11414343 -0.23352188 0.02651480
v 0.11469939 -0.23309142 0.02957343
v 0.13063857 -0.20696146 0.01361846
v 0.13210284 -0.21206488 0.01328354
v 0.12795649 -0.21020209 0.00963686
v 0.11302667 -0.23323905 0.02668345
v 0.10354186 -0.22485923 0.02958799
v 0.10796268 -0.23043601 0.02373844
v 0.10761961 -0.23123476 0.02959102
v 0.10212324 -0.22573463 0.02956892
v 0.13000673 -0.19961189 0.02285954
v 0.13340541 -0.20157010 0.02731610
v 0.13488934 -0.20591609 0.02134361
v 0.12432116 -0.23326795 0.02668113
v 0.11962298 -0.23425648 0.02958745
v 0.12269780 -0.23333566 0.02958106
v 0.11711818 -0.19549263 0.02479153
v 0.10364821 -0.21781201 0.01573868
v 0.10651953 -0.22194168 0.01366003
v 0.10347378 -0.22251703 0.01842916
v 0.10580427 -0.20376956 0.01773298
v 0.10668186 -0.20057861 0.02153741
v 0.11006314 -0.20306999 0.01404963
v 0.13209418 -0.22453222 0.01758759
v 0.13602116 -0.21808266 0.01960494
v 0.13504085 -0.22447869 0.02395855
v 0.13795711 -0.21978364 0.02958592
v 0.13727806 -0.22010231 0.02557923
v 0.13582281 -0.20460059 0.02958691
v 0.13806911 -0.21068174 0.02958210
v 0.13699288 -0.20821383 0.02532991
v 0.12232607 -0.20624930 0.00877669
v 0.12222672 -0.21222169 0.00600736
v 0.11883674 -0.21044311 0.00595336
v 0.11221924 -0.19637546 0.02499996
v 0.11564796 -0.23126580 0.01801071
v 0.11585418 -0.23323130 0.02300201
v 0.11920836 -0.23407990 0.02652400
v 0.10888438 -0.21719975 0.00953213
v 0.11010256 -0.21240301 0.00860766
v 0.11388139 -0.21576845 0.00629103
v 0.10946058 -0.23179378 0.02668218
v 0.13136609 -0.20304486 0.01857751
v 0.10649771 -0.20841700 0.01303286
v 0.10203601 -0.20671310 0.02149668
v 0.10824108 -0.22847916 0.01894633
v 0.11078548 -0.22683496 0.01419848
v 0.11450644 -0.21113119 0.00646228
v 0.11900948 -0.21465506 0.00448961
v 0.13597304 -0.21128735 0.01965226
v 0.10016811 -0.22024590 0.02521902
v 0.10260599 -0.22423560 0.02262948
v 0.11854686 -0.22461798 0.00950798
v 0.11549894 -0.21960890 0.00676901
v 0.12078408 -0.21871778 0.00617388
v 0.11540606 -0.20137896 0.01294786
v 0.11165168 -0.20639340 0.01018608
v 0.13253219 -0.22883925 0.02956500
v 0.12921634 -0.23022587 0.02279324
v 0.13794636 -0.21523091 0.02625242
v 0.10148228 -0.21770367 0.01968194
v 0.10564734 -0.21260316 0.01275418
v 0.10421718 -0.21152989 0.01484568
v 0.12727543 -0.23142423 0.02959586
v 0.12786486 -0.23176777 0.02668347
v 0.12853614 -0.19725745 0.02955673
v 0.10632019 -0.21427955 0.01182911
v 0.13192166 -0.21692214 0.01305594
v 0.13097979 -0.21466994 0.01177999
v 0.11605262 -0.20607559 0.00871598
v 0.12329006 -0.23368651 0.02640300
v 0.12327129 -0.22495844 0.01054054
v 0.12802767 -0.22231557 0.01130799
v 0.12635614 -0.22901663 0.01683441
v 0.12201643 -0.19499038 0.02958617
v 0.12315437 -0.19662121 0.02169311
v 0.12450758 -0.21885075 0.00755703
v 0.11957791 -0.22879087 0.01386383
v 0.12606518 -0.19892401 0.01890876
v 0.10687869 -0.19854611 0.02955685
v 0.10222549 -0.20347330 0.02956961
v 0.12109866 -0.20125660 0.01288663
v 0.11870054 -0.19716676 0.01913573
v 0.10009193 -0.20894119 0.02554289
v 0.09905304 -0.21150116 0.02958708
v 0.13356556 -0.21785421 0.01543509
v 0.12009174 -0.19556243 0.02473127
v 0.09914069 -0.21775295 0.02957555
v 0.12735326 -0.21510653 0.00843884
v 0.09937096 -0.21531567 0.02626801
v 0.12264651 -0.20043406 0.02959673
v 0.10129843 -0.21124553 0.01979141
v 0.13808516 -0.21372552 0.02640448
v 0.11803673 -0.23409326 0.02669192
v 0.11503221 -0.22808680 0.01358106
v 0.10572083 -0.21658830 0.01264821
v 0.09938071 -0.21394145 0.02625481
v 0.12552797 -0.20213239 0.01376869
v 0.10478281 -0.20278656 0.02957860
v 0.11539501 -0.19501616 0.02958801
v 0.12886383 -0.23119359 0.02651211
v 0.09998226 -0.21698148 0.02327115
v 0.11361467 -0.22315924 0.00948018
v 0.11267638 -0.19805604 0.01940553
v 0.12121127 -0.23203632 0.01948681
v 0.11289435 -0.23244314 0.02960943
v 0.12932749 -0.23114531 0.02958745
f 30 27 93
f 29 27 30
f 35 80 100
f 9 7 10
f 91 100 85
f 93 27 60
f 27 28 60
f 29 66 75
f 75 91 29
f 100 91 75
f 87 75 76
f 76 75 66
f 100 80 81
f 80 35 22
f 22 81 80
f 25 60 28
f 93 60 25
f 17 35 100
f 17 75 87
f 100 75 17
f 93 25 50
f 8 9 10
f 46 36 8
f 15 64 106
f 106 9 15
f 29 91 106
f 106 91 85
f 106 27 29
f 106 64 27
f 85 7 106
f 7 9 106
f 24 74 73
f 74 72 73
f 47 36 46
f 46 8 52
f 52 8 10
f 15 71 16
f 37 8 36
f 105 37 36
f 87 76 83
f 83 17 87
f 12 66 29
f 79 43 98
f 98 43 3
f 21 44 45
f 45 44 92
f 45 22 21
f 81 22 45
f 85 100 99
f 99 81 85
f 100 81 99
f 104 22 35
f 104 83 56
f 35 17 104
f 17 83 104
f 98 3 32
f 29 30 31
f 31 30 93
f 93 50 31
f 69 68 89
f 89 68 73
f 49 33 89
f 63 44 62
f 92 44 63
f 85 90 88
f 88 7 85
f 10 7 88
f 97 90 85
f 53 55 72
f 96 63 62
f 19 47 46
f 19 96 39
f 38 71 15
f 38 105 71
f 37 105 38
f 15 9 2
f 8 37 6
f 6 2 9
f 15 2 6
f 71 65 14
f 26 28 27
f 27 58 26
f 24 25 26
f 26 25 28
f 107 58 27
f 27 64 107
f 107 14 65
f 107 65 101
f 101 58 107
f 107 64 15
f 15 16 107
f 107 16 71
f 71 14 107
f 11 12 43
f 43 79 11
f 66 12 11
f 11 76 66
f 11 79 76
f 4 3 50
f 4 68 69
f 13 3 43
f 50 3 13
f 13 31 50
f 43 12 13
f 13 12 29
f 29 31 13
f 85 81 84
f 81 45 84
f 84 45 92
f 84 97 85
f 92 97 84
f 21 22 23
f 22 104 23
f 23 104 56
f 56 57 23
f 23 44 21
f 57 44 23
f 98 32 82
f 56 83 82
f 82 79 98
f 82 83 76
f 76 79 82
f 70 57 56
f 56 82 70
f 70 82 32
f 103 19 39
f 47 19 103
f 40 44 57
f 62 44 40
f 40 41 39
f 77 89 73
f 72 55 77
f 77 73 72
f 77 55 49
f 49 89 77
f 5 89 33
f 33 32 5
f 5 32 3
f 3 4 5
f 69 89 5
f 5 4 69
f 36 47 95
f 47 103 95
f 95 103 53
f 67 96 62
f 39 96 67
f 62 40 67
f 67 40 39
f 51 52 10
f 10 88 51
f 92 63 18
f 18 61 92
f 63 96 18
f 96 19 18
f 9 8 42
f 42 6 9
f 8 6 42
f 37 38 94
f 94 38 15
f 59 58 101
f 59 26 58
f 24 26 59
f 59 74 24
f 101 65 59
f 59 65 71
f 59 105 74
f 71 105 59
f 68 4 86
f 86 25 24
f 86 50 25
f 86 4 50
f 24 73 86
f 73 68 86
f 57 70 48
f 48 40 57
f 49 41 48
f 41 40 48
f 34 70 32
f 34 33 49
f 34 32 33
f 49 48 34
f 34 48 70
f 39 41 54
f 54 103 39
f 54 41 49
f 49 55 54
f 55 53 54
f 53 103 54
f 78 105 36
f 36 95 78
f 78 95 53
f 78 53 72
f 78 72 74
f 74 105 78
f 61 51 102
f 92 61 102
f 102 88 90
f 102 51 88
f 102 97 92
f 90 97 102
f 20 18 19
f 46 52 20
f 20 19 46
f 61 18 20
f 52 51 20
f 20 51 61
f 1 6 37
f 37 94 1
f 15 6 1
f 1 94 15

