# https://github.com/mikedh/trimesh
v 0.13389998 -0.02861084 -0.00799704
v 0.13248728 -0.02848503 -0.00798074
v 0.13393305 -0.03305526 -0.01233329
v 0.13249286 -0.03298508 -0.01242014
v 0.13391223 0.03304334 -0.01233742
v 0.13249569 0.03297391 -0.01241167
v 0.13391621 0.02861194 -0.00800354
v 0.13249255 0.02853659 -0.00797524
v 0.13065459 0.04271292 -0.04862177
v 0.13240674 0.04279259 -0.04871817
v 0.11183304 0.00216636 -0.08017874
v 0.11185318 -0.00773132 -0.07956867
v 0.11181556 -0.01651321 -0.07661420
v 0.11185183 -0.02391638 -0.07213089
v 0.11185183 -0.02970206 -0.06667857
v 0.11185183 -0.03427181 -0.06017309
v 0.11184638 -0.03743516 -0.05288228
v 0.11183706 -0.03906433 -0.04510599
v 0.11183706 -0.03909988 -0.03715774
v 0.11184638 -0.03753803 -0.02935976
v 0.11186951 -0.03353356 -0.02029979
v 0.11181713 -0.02629418 -0.01162859
v 0.11181820 -0.01809396 -0.00607367
v 0.11184148 -0.01001581 -0.00296941
v 0.11185315 -0.00020047 -0.00157964
v 0.11180861 0.00900471 -0.00271202
v 0.11185183 0.01715058 -0.00560716
v 0.11185183 0.02391530 -0.00978322
v 0.11185183 0.02970094 -0.01523554
v 0.11185183 0.03427074 -0.02174104
v 0.11186351 0.03807297 -0.03088791
v 0.11179788 0.03912457 -0.03819539
v 0.11183188 0.03892714 -0.04682129
v 0.11184179 0.03613604 -0.05637521
v 0.11184124 0.03118892 -0.06498500
v 0.11195638 0.02422920 -0.07194867
v 0.11181821 0.01809288 -0.07584044
v 0.11184149 0.01001492 -0.07894467
v 0.11181716 -0.02181770 -0.06985905
v 0.13831036 -0.00895125 -0.00770811
v 0.13831036 0.00895018 -0.07420604
v 0.13831036 -0.03271614 -0.05169484
v 0.13831036 -0.03420106 -0.03696526
v 0.13831035 -0.02936399 -0.02297382
v 0.13830660 -0.00000054 -0.00373634
v 0.13830737 -0.00950057 -0.00488404
v 0.13831078 -0.01833467 -0.00856266
v 0.13830840 -0.02603636 -0.01424216
v 0.13830532 -0.03388866 -0.02509554
v 0.13830963 -0.03691468 -0.03617777
v 0.13830858 -0.03681244 -0.04766534
v 0.13830623 -0.03198041 -0.06016012
v 0.13830660 -0.02597864 -0.06761269
v 0.13831079 -0.01997795 -0.07236472
v 0.13830713 -0.00952979 -0.07714069
v 0.13830738 0.00383505 -0.07806234
v 0.13830963 0.01312984 -0.07578649
v 0.13830934 0.02161407 -0.07136089
v 0.13830661 0.02858044 -0.06480054
v 0.13830738 0.03378492 -0.05677019
v 0.13830829 0.03661797 -0.04763021
v 0.13831173 0.03721041 -0.03999851
v 0.13830661 0.03622506 -0.03240791
v 0.13830623 0.03292544 -0.02342566
v 0.13830840 0.02603521 -0.01424209
v 0.13831079 0.01833366 -0.00856269
v 0.13830738 0.00949941 -0.00488404
v 0.11176498 0.03332682 -0.03921312
v 0.11167558 -0.00015118 -0.00934331
v 0.11177270 -0.03369923 -0.04277651
v 0.11176094 -0.00170870 -0.07462651
v 0.13247509 -0.02851508 -0.07411272
v 0.13827743 -0.02869106 -0.07419616
v 0.13246548 -0.01794746 -0.08091454
v 0.13827078 -0.01623932 -0.08164459
v 0.13248321 -0.00815593 -0.08392189
v 0.13825392 -0.00415418 -0.08457664
v 0.13248321 0.00205358 -0.08472071
v 0.13825907 0.00826896 -0.08398389
v 0.13248321 0.01214300 -0.08296922
v 0.13827468 0.01811639 -0.08075184
v 0.13245981 0.01976290 -0.07995528
v 0.13827744 0.02868994 -0.07419621
v 0.13247781 0.02852577 -0.07410154
v 0.13393306 0.03305419 -0.06958081
v 0.13824492 0.03674151 -0.06472589
v 0.13249626 0.03297674 -0.06945938
v 0.13247163 0.03790831 -0.06285184
v 0.13824021 0.04147389 -0.05512414
v 0.13245539 0.04172096 -0.05402654
v 0.13829371 0.04342792 -0.04631204
v 0.13067936 0.04374944 -0.04103959
v 0.13827571 0.04352794 -0.03676321
v 0.13063866 0.04272814 -0.03328269
v 0.13240649 0.04278949 -0.03320559
v 0.13825943 0.04201132 -0.02881559
v 0.13245538 0.04172094 -0.02788756
v 0.13824123 0.03787639 -0.01886189
v 0.13247163 0.03790834 -0.01906232
v 0.13825645 0.03152929 -0.01064511
v 0.13828748 0.02644144 -0.00618471
v 0.13245880 0.02160943 -0.00285974
v 0.13827508 0.01729487 -0.00056474
v 0.13248320 0.01017980 0.00165559
v 0.13826610 0.00530796 0.00246886
v 0.13248320 -0.00205479 0.00280659
v 0.13820453 -0.00643689 0.00250214
v 0.13248320 -0.01214412 0.00105506
v 0.13829473 -0.01702618 -0.00065089
v 0.13245880 -0.02161050 -0.00285974
v 0.13826485 -0.02712916 -0.00654971
v 0.13826553 -0.03686031 -0.01707924
v 0.13248555 -0.03933481 -0.02140927
v 0.13825943 -0.04316366 -0.03267239
v 0.13245836 -0.04334974 -0.03483121
v 0.13246760 -0.04320771 -0.04880732
v 0.13829463 -0.04296976 -0.05016829
v 0.13248733 -0.03827403 -0.06228134
v 0.13822250 -0.03759113 -0.06349756
v 0.13248753 -0.03297933 -0.06944138
v 0.13391223 -0.03304446 -0.06957669
f 69 71 70
f 68 71 69
f 13 70 71
f 20 19 115
f 70 19 20
f 18 19 70
f 115 19 18
f 113 20 115
f 21 20 113
f 71 68 37
f 36 82 37
f 70 13 39
f 17 70 16
f 17 18 70
f 16 118 17
f 105 106 107
f 104 106 105
f 104 105 103
f 103 105 67
f 21 113 4
f 73 117 119
f 119 117 118
f 73 54 53
f 107 106 108
f 108 106 24
f 109 110 111
f 109 105 107
f 107 108 109
f 109 108 110
f 23 108 24
f 110 108 23
f 23 24 69
f 27 26 104
f 90 88 34
f 89 88 90
f 90 91 89
f 86 88 89
f 86 91 83
f 89 91 86
f 34 68 32
f 32 68 69
f 79 77 78
f 11 13 71
f 71 37 11
f 62 58 60
f 83 91 60
f 73 74 75
f 75 54 73
f 75 55 54
f 72 74 73
f 78 77 76
f 77 75 76
f 76 75 74
f 18 17 116
f 115 18 116
f 118 117 116
f 116 17 118
f 104 26 25
f 25 106 104
f 24 106 25
f 69 24 25
f 25 26 69
f 101 103 67
f 112 4 113
f 112 109 111
f 111 110 2
f 118 120 121
f 121 119 118
f 73 119 121
f 121 72 73
f 120 72 121
f 52 53 54
f 52 117 73
f 73 53 52
f 8 100 5
f 100 101 98
f 98 5 100
f 99 5 98
f 26 27 28
f 69 26 28
f 83 82 84
f 84 82 36
f 88 86 85
f 85 87 88
f 85 86 83
f 83 84 85
f 85 84 87
f 35 84 36
f 87 84 35
f 88 87 35
f 36 37 35
f 34 88 35
f 35 68 34
f 35 37 68
f 33 90 34
f 34 32 33
f 81 82 83
f 83 58 81
f 80 79 78
f 82 81 80
f 80 81 79
f 80 37 82
f 61 91 62
f 62 60 61
f 61 60 91
f 59 58 83
f 83 60 59
f 59 60 58
f 13 74 14
f 74 72 14
f 13 11 12
f 12 74 13
f 12 76 74
f 12 11 78
f 78 76 12
f 7 100 8
f 8 101 7
f 7 101 100
f 102 101 8
f 103 101 102
f 8 28 102
f 102 28 27
f 104 103 102
f 102 27 104
f 3 112 111
f 4 112 3
f 3 2 4
f 115 116 114
f 114 116 117
f 114 113 115
f 114 112 113
f 112 114 49
f 110 23 22
f 22 2 110
f 21 4 22
f 4 2 22
f 22 20 21
f 22 23 69
f 70 20 22
f 69 70 22
f 29 99 30
f 69 28 29
f 29 28 8
f 29 32 69
f 30 32 29
f 96 98 101
f 92 33 32
f 32 94 92
f 31 94 32
f 31 32 30
f 62 54 41
f 41 58 62
f 79 81 56
f 77 79 56
f 56 75 77
f 55 75 56
f 54 55 56
f 38 11 37
f 37 80 38
f 78 11 38
f 38 80 78
f 13 14 15
f 15 39 13
f 16 70 15
f 70 39 15
f 15 118 16
f 15 120 118
f 15 72 120
f 15 14 72
f 64 65 62
f 101 65 64
f 64 96 101
f 66 101 67
f 66 65 101
f 62 65 66
f 111 2 1
f 1 3 111
f 2 3 1
f 109 112 48
f 112 49 48
f 117 52 51
f 6 5 99
f 99 29 6
f 8 5 6
f 6 29 8
f 94 31 97
f 99 98 97
f 98 96 97
f 30 99 97
f 97 31 30
f 90 33 9
f 33 92 9
f 93 92 94
f 91 92 93
f 96 64 93
f 57 81 58
f 57 56 81
f 58 41 57
f 57 41 54
f 54 56 57
f 62 91 63
f 63 64 62
f 91 93 63
f 63 93 64
f 109 48 47
f 47 54 62
f 62 66 47
f 42 52 54
f 42 51 52
f 10 92 91
f 10 9 92
f 91 90 10
f 90 9 10
f 95 93 94
f 96 93 95
f 94 97 95
f 95 97 96
f 67 105 45
f 105 109 45
f 45 66 67
f 51 42 50
f 50 48 49
f 117 51 50
f 50 114 117
f 50 49 114
f 109 47 46
f 46 45 109
f 40 47 66
f 66 45 40
f 40 46 47
f 45 46 40
f 43 50 42
f 54 47 43
f 43 42 54
f 44 43 47
f 50 43 44
f 44 47 48
f 48 50 44

