# https://github.com/mikedh/trimesh
v -0.11008825 -0.00089683 -0.00459941
v -0.11024044 0.00929317 -0.00604778
v -0.10864847 0.00532495 -0.00446441
v -0.10798655 -0.00071289 -0.00451966
v -0.10766385 0.00833546 -0.00604256
v -0.10855489 0.01161746 -0.00599946
v -0.10788809 0.02287762 -0.01241236
v -0.10856762 0.02572973 -0.06741978
v -0.10756534 0.02904876 -0.06183383
v -0.10768821 0.01848224 -0.07199143
v -0.10856764 0.00386681 -0.07766355
v -0.10756471 0.01185261 -0.07473879
v -0.10768482 -0.00090837 -0.07680656
v -0.10774399 -0.00841410 -0.07623011
v -0.10863742 -0.01379825 -0.07522968
v -0.10764966 -0.02352408 -0.06844605
v -0.10847372 -0.02793237 -0.06499479
v -0.10766935 -0.03219064 -0.05706595
v -0.10844490 -0.03279382 -0.02392361
v -0.10782762 -0.03511199 -0.03160441
v -0.10765752 -0.03206374 -0.02499148
v -0.10799248 -0.02430182 -0.01366593
v -0.10856710 -0.01058302 -0.00563763
v -0.10768345 -0.01741888 -0.00939296
v -0.10767249 -0.00783762 -0.00581503
v -0.10939472 -0.00332454 -0.00422688
v -0.10774204 -0.02640914 -0.01782636
v -0.10773482 -0.03529017 -0.04290433
v -0.10768568 0.03463308 -0.05149123
v -0.10766927 0.03604258 -0.03981816
v -0.10766996 0.03067261 -0.02209713
v -0.10771569 0.02075175 -0.01240486
v -0.11019917 0.02046313 -0.01097478
v -0.10926507 0.01695681 -0.00815153
v -0.10929854 0.02663138 -0.01544983
v -0.11001669 0.03553843 -0.03212928
v -0.10813944 0.03492533 -0.02961696
v -0.10888011 0.03684828 -0.03878513
v -0.10998117 -0.00137776 -0.07747508
v -0.10896809 -0.00524655 -0.07744464
v -0.10957719 -0.02776039 -0.06512871
v -0.10896809 -0.02138307 -0.07098453
v -0.10896809 -0.03276539 -0.05784863
v -0.10973757 -0.03551282 -0.05039366
v -0.10797332 -0.03532474 -0.05027333
v -0.11004062 -0.02864889 -0.01825166
v -0.10896810 -0.02667937 -0.01551888
v -0.10936857 -0.01965105 -0.00971323
v -0.11023762 -0.01416093 -0.00760866
v -0.11027085 -0.03024384 -0.02174048
v -0.11010292 -0.03522929 -0.03162903
v -0.11023467 -0.03099207 -0.05956298
v -0.11027696 -0.02051254 -0.07058163
v -0.10923074 0.01400409 -0.07514698
v -0.11022489 0.01059958 -0.07554493
v -0.10979307 0.02057958 -0.07137203
v -0.10923066 0.03484838 -0.05322031
v -0.10966614 0.03140958 -0.06018546
v -0.11018839 0.03553026 -0.04773503
v -0.11029634 0.03522856 -0.04459606
v -0.10930146 0.03667241 -0.04460443
v -0.11025599 0.03335391 -0.02757021
v -0.11008052 0.02996906 -0.02047728
v -0.11026459 0.02674693 -0.06507723
v -0.11021757 -0.01341550 -0.07456970
v -0.11022147 -0.03366694 -0.05152266
v -0.11028252 -0.03598904 -0.04100031
v -0.10895039 -0.03491049 -0.02883363
v -0.10896810 -0.03702939 -0.04095708
v -0.10896809 0.03198351 -0.02249111
v -0.10784168 -0.03625712 -0.03993648
f 65 55 39
f 31 9 30
f 30 9 29
f 30 37 31
f 38 37 30
f 29 61 30
f 30 61 38
f 10 9 12
f 67 50 60
f 28 18 21
f 12 9 21
f 21 16 12
f 21 18 16
f 2 3 6
f 60 50 2
f 50 49 2
f 60 2 62
f 62 2 33
f 55 64 56
f 35 7 31
f 6 7 34
f 33 2 34
f 34 2 6
f 34 35 33
f 7 35 34
f 26 49 23
f 5 7 6
f 6 3 5
f 5 9 31
f 65 39 40
f 12 16 13
f 16 14 13
f 14 40 13
f 53 41 52
f 52 67 53
f 65 42 53
f 53 42 41
f 53 55 65
f 53 64 55
f 60 64 53
f 53 67 60
f 51 67 69
f 50 67 51
f 69 67 44
f 16 18 17
f 17 42 16
f 41 42 17
f 45 18 28
f 69 44 45
f 69 45 71
f 71 45 28
f 24 23 48
f 48 23 49
f 24 48 22
f 22 48 47
f 21 22 19
f 19 22 47
f 1 49 26
f 1 2 49
f 26 3 1
f 3 2 1
f 36 37 38
f 60 62 36
f 38 61 36
f 59 64 60
f 59 58 64
f 60 36 59
f 59 36 61
f 55 56 54
f 54 10 12
f 54 56 10
f 9 10 8
f 10 56 8
f 8 58 9
f 64 58 8
f 8 56 64
f 37 36 70
f 70 36 62
f 31 37 70
f 70 35 31
f 31 7 32
f 32 5 31
f 7 5 32
f 4 5 3
f 4 3 26
f 26 23 4
f 65 40 15
f 15 40 14
f 15 42 65
f 15 14 16
f 16 42 15
f 11 40 39
f 11 13 40
f 11 39 55
f 55 54 11
f 12 13 11
f 11 54 12
f 66 67 52
f 52 44 66
f 66 44 67
f 43 17 18
f 43 44 52
f 52 41 43
f 41 17 43
f 18 45 43
f 43 45 44
f 27 21 24
f 24 22 27
f 27 22 21
f 46 19 47
f 47 48 46
f 46 49 50
f 46 48 49
f 50 51 68
f 68 46 50
f 19 46 68
f 68 51 69
f 58 59 57
f 29 9 57
f 9 58 57
f 57 61 29
f 57 59 61
f 63 70 62
f 35 70 63
f 63 62 33
f 33 35 63
f 25 23 24
f 25 4 23
f 5 4 25
f 24 21 25
f 25 21 9
f 9 5 25
f 21 19 20
f 19 68 20
f 28 21 20
f 20 71 28
f 69 71 20
f 20 68 69

