# https://github.com/mikedh/trimesh
v -0.20306902 -0.14469096 0.06898072
v -0.20329556 -0.14554474 0.06712201
v -0.20231221 -0.14525581 0.06650758
v -0.20372400 -0.14573984 0.06646985
v -0.20392911 -0.14494421 0.06703288
v -0.20432763 -0.14454028 0.06631210
v -0.20333299 -0.14364309 0.06663570
v -0.20359163 -0.14345629 0.06616331
v -0.20189333 -0.14384598 0.06597222
v -0.20351338 -0.14378049 0.06698021
v -0.20224809 -0.14599559 0.06581883
v -0.20466849 -0.14510991 0.04863022
v -0.20443310 -0.14552066 0.04859066
v -0.20541413 -0.14619123 0.04961658
v -0.20422194 -0.14710943 0.04944452
v -0.20267844 -0.14624366 0.04859089
v -0.20224216 -0.14614866 0.04855636
v -0.20284490 -0.14751065 0.05002806
v -0.20140316 -0.14691816 0.04981121
v -0.20134453 -0.14562584 0.04878878
v -0.20149636 -0.14426076 0.04863067
v -0.20123818 -0.14256865 0.05009364
v -0.20037167 -0.14414956 0.04952848
v -0.20224683 -0.14216868 0.04941562
v -0.20424170 -0.14207779 0.04972847
v -0.20344739 -0.14311621 0.04855700
v -0.20388744 -0.14337143 0.04857725
v -0.20496318 -0.14411449 0.04876681
v -0.20561506 -0.14347782 0.04969810
v -0.20039746 -0.14562621 0.05006029
v -0.20589203 -0.14446581 0.05006634
v -0.20412268 -0.14203472 0.05009428
v -0.20172381 -0.14384808 0.04859490
v -0.20520451 -0.14635916 0.05014027
v -0.20160682 -0.14451466 0.06493400
v -0.20236265 -0.14339009 0.06516012
v -0.20358226 -0.14326523 0.06526048
v -0.20460851 -0.14456593 0.06542252
v -0.20381536 -0.14596563 0.06568700
v -0.20274255 -0.14319121 0.06413215
v -0.20404222 -0.14357273 0.06426607
v -0.20457773 -0.14499286 0.06444279
v -0.20353126 -0.14609093 0.06463607
f 31 38 29
f 26 17 13
f 43 39 18
f 39 43 11
f 11 43 18
f 15 14 13
f 18 39 15
f 39 38 42
f 42 14 39
f 42 38 31
f 31 14 42
f 28 14 31
f 31 29 28
f 18 17 19
f 19 11 18
f 30 11 19
f 2 11 1
f 1 11 3
f 4 38 39
f 4 5 38
f 1 5 4
f 4 2 1
f 39 11 4
f 11 2 4
f 36 22 24
f 24 22 23
f 36 37 8
f 41 29 38
f 38 8 41
f 41 8 37
f 13 17 16
f 16 15 13
f 16 17 18
f 18 15 16
f 39 14 34
f 34 15 39
f 14 15 34
f 27 26 13
f 13 14 12
f 14 28 12
f 12 27 13
f 28 27 12
f 20 19 17
f 30 19 20
f 23 30 20
f 20 21 23
f 17 21 20
f 35 30 23
f 1 3 35
f 35 11 30
f 35 3 11
f 32 24 25
f 25 24 26
f 26 27 25
f 29 41 25
f 25 28 29
f 25 27 28
f 25 37 32
f 25 41 37
f 26 24 33
f 17 26 33
f 33 21 17
f 23 21 33
f 33 24 23
f 40 37 36
f 36 24 40
f 32 37 40
f 40 24 32
f 6 8 38
f 6 5 1
f 38 5 6
f 36 8 7
f 23 22 9
f 9 35 23
f 9 22 36
f 1 35 9
f 9 7 1
f 36 7 9
f 1 7 10
f 10 7 8
f 10 6 1
f 8 6 10

