# https://github.com/mikedh/trimesh
v 0.13919514 -0.18899463 -0.03665432
v 0.14358594 -0.18459706 -0.04119469
v 0.14432759 -0.18351813 -0.03940414
v 0.14095984 -0.18711011 -0.03210876
v 0.14153501 -0.18312951 -0.03244331
v 0.14030569 -0.18194508 -0.03361644
v 0.14440644 -0.18855786 -0.03921379
v 0.14345895 -0.18709929 -0.04150131
v 0.14525200 -0.18496873 -0.03717246
v 0.14513490 -0.18742087 -0.03745519
v 0.14228812 -0.18894853 -0.04420864
v 0.13893396 -0.19187431 -0.03758879
v 0.13720184 -0.18900374 -0.04180219
v 0.14634177 -0.18313778 -0.03443499
v 0.14628789 -0.18915748 -0.03457061
v 0.14437012 -0.18001831 -0.03920051
v 0.13876359 -0.18029776 -0.03780906
v 0.14235575 -0.18287899 -0.04405947
v 0.14080089 -0.18970946 -0.03296404
v 0.14428812 -0.19203784 -0.03939791
v 0.13685712 -0.18444531 -0.04201644
v 0.13757426 -0.18272961 -0.04193616
f 14 4 15
f 21 18 11
f 20 12 11
f 5 4 14
f 22 18 21
f 21 17 22
f 22 17 18
f 1 4 21
f 21 12 1
f 1 12 4
f 4 12 19
f 19 15 4
f 19 12 20
f 20 15 19
f 13 12 21
f 21 11 13
f 13 11 12
f 4 5 6
f 21 4 6
f 6 17 21
f 6 5 14
f 7 15 20
f 16 2 18
f 18 17 16
f 16 6 14
f 17 6 16
f 20 11 8
f 8 7 20
f 8 11 18
f 18 2 8
f 14 15 9
f 9 16 14
f 9 8 2
f 15 7 10
f 10 9 15
f 7 8 10
f 8 9 10
f 2 16 3
f 3 9 2
f 16 9 3

