# https://github.com/mikedh/trimesh
v 0.15675598 0.04687441 0.04523924
v 0.15035833 0.04674971 0.04521168
v 0.15035807 0.04413506 0.04582383
v 0.15675598 0.04716661 0.04809632
v 0.15035805 0.04586136 0.04881436
v 0.15675597 0.04695686 0.09845849
v 0.15675597 0.04716291 0.10122131
v 0.15035832 0.04643136 0.10144241
v 0.15035832 0.04769536 0.09973776
v 0.15675597 -0.00136405 0.12757429
v 0.15035832 0.00094724 0.12781974
v 0.15675597 0.00115658 0.12757756
v 0.15035807 0.00172445 0.12524931
v 0.15035831 -0.04773441 0.09985281
v 0.15675597 -0.04729821 0.10114314
v 0.15035806 -0.04413194 0.10076354
v 0.15035804 -0.04585819 0.09777301
v 0.15035832 -0.04686733 0.04523267
v 0.15675597 -0.04754324 0.04623097
v 0.15035832 -0.04754331 0.04722464
v 0.15675598 -0.00046682 0.01840614
v 0.15035832 -0.00094407 0.01876764
v 0.15035807 -0.00172127 0.02133804
v 0.15035852 -0.00507632 0.12945941
v 0.15656042 -0.00352610 0.12905009
v 0.15035854 0.01070701 0.12894196
v 0.15657862 0.00356547 0.12897486
v 0.15534784 0.00623867 0.12875352
v 0.15518479 0.01619011 0.12702039
v 0.15035829 0.03066514 0.12093524
v 0.15517679 0.03027576 0.12054531
v 0.15518807 0.04024359 0.11225611
v 0.15035852 0.04468061 0.10790554
v 0.15656042 0.04652464 0.10422662
v 0.15035843 0.05145346 0.09637201
v 0.15658036 0.05000314 0.09805109
v 0.15518809 -0.01363420 0.12762184
v 0.15035829 -0.02116367 0.12584846
v 0.15517677 -0.02579456 0.12313144
v 0.15035829 -0.03490106 0.11760451
v 0.15518474 -0.03844309 0.11416714
v 0.15035854 -0.04468099 0.10790044
v 0.15534789 -0.04490976 0.10642483
v 0.15657855 -0.04643801 0.10422069
v 0.15656039 -0.05004884 0.09811634
v 0.15035849 -0.05145776 0.09634841
v 0.15035850 0.01026359 0.01753496
v 0.15656043 0.00352927 0.01753729
v 0.15035855 -0.01070379 0.01764539
v 0.15657863 -0.00356232 0.01761251
v 0.15534785 -0.00623550 0.01783386
v 0.15518480 -0.01618691 0.01956696
v 0.15035830 -0.03066201 0.02565215
v 0.15517677 -0.03027256 0.02604203
v 0.15518807 -0.04024046 0.03433129
v 0.15035852 -0.04467744 0.03868183
v 0.15656042 -0.04652146 0.04236074
v 0.15035843 -0.05145029 0.05021533
v 0.15657867 -0.05000159 0.04853969
v 0.15518810 0.01363736 0.01896551
v 0.15517678 0.02579771 0.02345591
v 0.15035830 0.03067184 0.02565644
v 0.15518475 0.03844626 0.03242022
v 0.15035855 0.04468412 0.03868685
v 0.15534790 0.04491294 0.04016253
v 0.15657856 0.04644119 0.04236670
v 0.15656125 0.05005169 0.04847206
v 0.15035850 0.05146091 0.05023890
v 0.15035840 -0.05845129 0.07328944
v 0.15035867 -0.05662673 0.06017894
v 0.15035856 -0.05662266 0.08643274
v 0.15035878 0.05662989 0.08640844
v 0.15035841 0.05845446 0.07329781
v 0.15035858 0.05662584 0.06015466
v 0.15635268 0.05235791 0.07426189
v 0.15454407 0.05760551 0.06828312
v 0.15453623 0.05626831 0.06051345
v 0.15454513 0.05763116 0.07810001
v 0.15453145 0.05625534 0.08612714
v 0.15635267 -0.05235476 0.07232557
v 0.15454406 -0.05760234 0.07830419
v 0.15453619 -0.05626514 0.08607391
v 0.15454509 -0.05762801 0.06848748
v 0.15453144 -0.05625214 0.06046022
v 0.15641050 0.01826875 0.12172804
v 0.15641050 -0.03281016 0.11333066
v 0.15641051 0.03281331 0.03325664
v 0.15641051 -0.01826564 0.02485935
f 74 5 73
f 13 5 17
f 76 74 73
f 27 12 7
f 5 74 68
f 17 69 71
f 20 69 17
f 17 18 20
f 47 61 60
f 17 5 23
f 23 18 17
f 57 21 19
f 50 21 57
f 56 55 57
f 53 55 56
f 53 23 49
f 56 18 53
f 18 23 53
f 78 76 73
f 36 75 78
f 78 75 76
f 74 76 77
f 73 5 9
f 5 13 9
f 34 7 36
f 27 7 34
f 36 7 4
f 4 21 1
f 44 15 10
f 10 12 27
f 69 70 83
f 5 68 2
f 2 68 64
f 58 70 69
f 69 20 58
f 58 20 18
f 58 18 56
f 56 57 58
f 47 60 48
f 48 49 47
f 50 49 48
f 48 21 50
f 48 60 61
f 61 87 48
f 1 21 48
f 1 48 66
f 66 48 87
f 61 63 66
f 66 87 61
f 47 23 62
f 62 61 47
f 64 63 62
f 62 63 61
f 47 49 22
f 22 23 47
f 49 23 22
f 50 57 88
f 55 53 54
f 50 88 54
f 54 57 55
f 54 88 57
f 16 13 17
f 16 38 13
f 27 26 24
f 67 68 74
f 74 77 67
f 64 68 67
f 67 66 64
f 1 66 67
f 67 77 76
f 67 4 1
f 76 75 67
f 67 75 36
f 36 4 67
f 33 9 8
f 27 31 29
f 26 29 30
f 30 29 31
f 30 13 26
f 33 8 30
f 30 9 13
f 30 8 9
f 32 34 33
f 31 34 32
f 33 30 32
f 32 30 31
f 85 31 27
f 27 34 85
f 85 34 31
f 6 7 12
f 6 4 7
f 21 4 6
f 37 24 38
f 84 83 70
f 65 63 64
f 64 66 65
f 65 66 63
f 3 23 5
f 3 62 23
f 64 62 3
f 5 2 3
f 3 2 64
f 50 54 52
f 52 53 49
f 52 54 53
f 13 38 11
f 38 24 11
f 26 13 11
f 11 24 26
f 72 78 73
f 36 78 79
f 79 72 36
f 78 72 79
f 28 26 27
f 27 29 28
f 28 29 26
f 25 10 27
f 27 24 25
f 24 37 25
f 44 10 25
f 25 86 44
f 19 15 45
f 45 15 44
f 71 82 45
f 44 42 45
f 51 49 50
f 50 52 51
f 51 52 49
f 17 71 46
f 71 45 46
f 46 45 42
f 73 9 35
f 35 72 73
f 35 9 33
f 36 72 35
f 35 34 36
f 33 34 35
f 19 45 59
f 59 45 80
f 59 80 83
f 59 57 19
f 83 84 59
f 59 58 57
f 59 84 70
f 70 58 59
f 83 80 81
f 80 45 81
f 81 45 82
f 69 83 81
f 81 71 69
f 81 82 71
f 17 46 14
f 14 46 42
f 14 16 17
f 43 42 44
f 44 41 43
f 43 41 42
f 42 41 40
f 38 16 40
f 16 14 40
f 40 14 42
f 39 25 37
f 39 37 38
f 86 25 39
f 38 40 39
f 39 40 41
f 44 86 39
f 39 41 44
f 6 10 15
f 19 21 6
f 6 15 19
f 12 10 6

