# https://github.com/mikedh/trimesh
v -0.10655623 0.10497405 -0.08745071
v -0.10646308 0.10485501 -0.08832483
v -0.10748376 0.10265646 -0.08833406
v -0.10612604 0.10064746 -0.08832205
v -0.10616200 0.10048073 -0.08744061
v -0.10370306 0.10077456 -0.08833406
v -0.10349555 0.10073986 -0.08744713
v -0.10255198 0.10293543 -0.08833746
v -0.10239625 0.10318346 -0.08742473
v -0.10361905 0.10496628 -0.08821428
v -0.10483985 0.10051508 -0.08660875
v -0.10656201 0.10100491 -0.08666701
v -0.10761028 0.10273268 -0.08686813
v -0.10765081 0.10264128 -0.08628820
v -0.10663661 0.10504895 -0.08629565
v -0.10720910 0.10377496 -0.08537843
v -0.10391213 0.10533646 -0.08626231
v -0.10232411 0.10312244 -0.08626848
v -0.10342491 0.10067009 -0.08629239
v -0.10474615 0.10051858 -0.08548844
v -0.10665083 0.10503220 -0.08515825
v -0.10721466 0.10378946 -0.08442038
v -0.10514493 0.10524940 -0.08437734
v -0.10392605 0.10533599 -0.08513068
v -0.10235863 0.10314734 -0.08518791
v -0.10284366 0.10193753 -0.08439828
v -0.10488736 0.10050176 -0.08425903
v -0.10609383 0.10036626 -0.08515476
v -0.10697568 0.10150838 -0.08438386
v -0.10772223 0.10257398 -0.08517536
v -0.10661623 0.10490873 -0.08408718
v -0.10760316 0.10263324 -0.08409901
v -0.10604411 0.10038184 -0.08406303
v -0.10346221 0.10077855 -0.08410035
v -0.10243738 0.10321470 -0.08407298
v -0.10397226 0.10527230 -0.08406056
v -0.10724653 0.10358056 -0.08313353
v -0.10513944 0.10524986 -0.08331429
v -0.10285253 0.10191656 -0.08333940
v -0.10498746 0.10050331 -0.08312761
v -0.10689620 0.10150423 -0.08310265
v -0.10337615 0.10105696 -0.08294526
v -0.10281238 0.10412013 -0.08294526
v -0.10601576 0.10514335 -0.08294526
v -0.10657571 0.10248239 -0.08865963
v -0.10573141 0.10152671 -0.08861451
v -0.10393793 0.10532268 -0.08869328
v -0.10450018 0.10138578 -0.08858106
v -0.10371493 0.10218091 -0.08857325
f 43 44 42
f 40 42 41
f 41 42 44
f 30 29 41
f 17 43 10
f 10 47 17
f 2 47 45
f 24 43 17
f 24 36 43
f 38 44 43
f 43 36 38
f 36 24 38
f 18 43 25
f 43 35 25
f 43 42 39
f 39 35 43
f 39 25 35
f 18 25 39
f 37 41 44
f 3 2 45
f 23 24 17
f 23 38 24
f 17 47 23
f 44 38 23
f 34 39 42
f 34 42 40
f 30 41 32
f 32 37 30
f 41 37 32
f 47 10 9
f 9 8 47
f 18 8 9
f 9 43 18
f 9 10 43
f 45 47 46
f 47 48 46
f 47 8 49
f 49 48 47
f 49 8 6
f 6 48 49
f 31 37 44
f 44 21 31
f 31 21 37
f 30 37 22
f 37 21 22
f 18 39 26
f 19 8 18
f 18 26 19
f 19 26 39
f 19 28 11
f 20 28 19
f 39 34 19
f 19 34 40
f 40 41 33
f 33 41 29
f 29 28 33
f 4 3 45
f 45 46 4
f 4 48 6
f 4 46 48
f 47 2 1
f 2 3 1
f 3 13 1
f 14 3 30
f 30 13 14
f 14 13 3
f 15 22 21
f 15 1 13
f 47 1 15
f 15 23 47
f 15 21 44
f 44 23 15
f 6 8 7
f 8 19 7
f 7 11 6
f 7 19 11
f 27 19 40
f 20 19 27
f 27 28 20
f 40 33 27
f 27 33 28
f 30 3 5
f 3 4 5
f 5 28 29
f 11 28 5
f 6 11 5
f 5 4 6
f 30 22 16
f 22 15 16
f 16 13 30
f 16 15 13
f 12 29 30
f 30 5 12
f 12 5 29

