# https://github.com/mikedh/trimesh
v 0.13832335 0.02016613 -0.00392779
v 0.13832335 0.02183407 -0.00666619
v 0.13832335 -0.04077136 -0.03911006
v 0.13832335 -0.04174119 -0.04243626
v 0.13832335 -0.02060708 -0.07779156
v 0.13832336 0.02212791 -0.07577194
v 0.13832336 0.01919633 -0.07761857
v 0.13832335 -0.02045887 -0.00392779
v 0.13832336 0.04210386 -0.04031687
v 0.13832336 0.04155792 -0.04245374
v 0.13832336 0.03909769 -0.04165364
v 0.13850577 -0.00961352 0.00451421
v 0.14422886 -0.00970608 0.00467741
v 0.13848453 -0.00042915 0.00575844
v 0.14422886 0.00054311 0.00591941
v 0.13852553 0.00962452 0.00454921
v 0.14422886 0.00970086 0.00464644
v 0.14422886 -0.00970190 -0.08656059
v 0.14422886 -0.00054421 -0.08783356
v 0.14422887 0.00970498 -0.08659156
v 0.14422887 0.03134734 -0.07201162
v 0.14422887 0.04115154 -0.05648146
v 0.14422886 0.03810849 -0.01871351
v 0.14422886 0.04404354 -0.03827501
v 0.14422886 0.02727086 -0.00659099
v 0.14422886 0.01217839 0.00142684
v 0.14422886 -0.02974048 -0.00855276
v 0.14422886 -0.03727271 -0.01796456
v 0.14422886 -0.04242234 -0.02934269
v 0.14422886 -0.04379254 -0.04131934
v 0.14422886 -0.04255736 -0.05161902
v 0.14422886 -0.03794231 -0.06298389
v 0.14422886 -0.02886984 -0.07413936
v 0.13848454 0.00042810 -0.08767256
v 0.13852553 -0.00962559 -0.08646334
v 0.13850578 0.00961241 -0.08642836
v 0.13853893 -0.02252823 -0.07860634
v 0.13847818 -0.03463281 -0.06784634
v 0.13841198 -0.04106789 -0.05572939
v 0.13851338 -0.04368276 -0.04465929
v 0.13847300 -0.04210088 -0.02875451
v 0.13840850 -0.03592091 -0.01615869
v 0.13852541 -0.02884721 -0.00793609
v 0.13843228 -0.01893184 -0.00170061
v 0.13845560 0.01894085 -0.00164046
v 0.13851480 0.02952297 -0.00853106
v 0.13841611 0.03618664 -0.01651454
v 0.13847458 0.04229804 -0.02948146
v 0.13845178 0.04354579 -0.04583046
v 0.13850241 0.03871604 -0.06153411
v 0.13847363 0.03152746 -0.07113111
v 0.13850122 0.02245125 -0.07856338
f 41 40 30
f 48 23 24
f 40 41 4
f 14 13 15
f 15 16 14
f 29 41 30
f 19 18 35
f 19 20 21
f 52 51 21
f 21 20 52
f 30 40 31
f 22 24 21
f 17 16 15
f 17 25 16
f 46 25 23
f 16 25 46
f 3 4 41
f 27 13 43
f 43 44 8
f 13 14 12
f 12 43 13
f 44 43 12
f 8 44 12
f 12 14 8
f 41 29 28
f 34 19 35
f 20 19 34
f 32 38 33
f 32 31 39
f 39 38 32
f 39 31 40
f 40 4 39
f 21 51 50
f 50 22 21
f 26 17 15
f 25 17 26
f 47 23 48
f 47 46 23
f 1 14 16
f 46 47 1
f 8 14 1
f 41 28 42
f 42 43 8
f 42 28 27
f 27 43 42
f 8 3 42
f 42 3 41
f 36 52 20
f 20 34 36
f 5 39 4
f 38 39 5
f 5 34 35
f 37 33 38
f 37 5 35
f 38 5 37
f 18 33 37
f 35 18 37
f 16 46 45
f 45 1 16
f 46 1 45
f 11 10 6
f 6 50 51
f 6 10 50
f 51 52 6
f 50 10 49
f 24 22 49
f 22 50 49
f 48 24 49
f 9 47 48
f 48 49 9
f 9 49 10
f 5 6 7
f 34 5 7
f 7 36 34
f 52 36 7
f 7 6 52
f 2 1 47
f 47 9 2
f 28 29 30
f 30 31 28
f 18 31 33
f 33 31 32
f 21 24 26
f 26 19 21
f 23 25 26
f 26 24 23
f 26 13 27
f 15 13 26
f 18 19 26
f 26 31 18
f 26 28 31
f 27 28 26
f 8 1 6
f 4 3 6
f 6 3 8
f 6 5 4
f 6 1 11
f 11 1 2
f 2 10 11
f 2 9 10

