# https://github.com/mikedh/trimesh
v 0.17000931 -0.17965149 0.11745716
v 0.17118023 -0.17796963 0.11763654
v 0.17038761 -0.17676244 0.11805069
v 0.17078270 -0.17908937 0.11859329
v 0.17037086 -0.17961432 0.11838282
v 0.17126869 -0.17866117 0.11809874
v 0.17083461 -0.17831564 0.11670509
v 0.16973508 -0.17927596 0.11672439
v 0.16821683 -0.17786621 0.11855631
v 0.16983083 -0.17960521 0.11700766
v 0.17018663 -0.17689231 0.11705501
v 0.16919823 -0.17853256 0.11939574
v 0.16897028 -0.17705359 0.11925311
v 0.16918263 -0.17941426 0.11924969
v 0.17114281 -0.17727581 0.11821794
v 0.17052905 -0.17702029 0.11886179
v 0.17113056 -0.17799711 0.11854814
v 0.16869828 -0.17703692 0.11883829
v 0.16880526 -0.17849126 0.11916849
v 0.16802638 -0.17807276 0.11727964
v 0.16825528 -0.17869171 0.11659941
v 0.16865608 -0.17927043 0.11710301
v 0.16987280 -0.17917716 0.11913671
v 0.17106446 -0.17775959 0.11719289
v 0.16868236 -0.17732097 0.11642551
v 0.17062826 -0.17824601 0.11630464
v 0.16985644 -0.17834506 0.11591789
v 0.17016971 -0.17771379 0.11621924
v 0.16933450 -0.17658712 0.11800784
v 0.16805375 -0.17719419 0.11753781
v 0.16827931 -0.17929134 0.11756149
v 0.16888864 -0.17691479 0.11683081
v 0.16973878 -0.17671254 0.11673204
v 0.17078663 -0.17885749 0.11873871
v 0.17046928 -0.17951869 0.11782536
v 0.16876548 -0.17924379 0.11897396
v 0.16890794 -0.17670971 0.11765794
v 0.16883243 -0.17940963 0.11840919
v 0.16809613 -0.17775794 0.11808634
v 0.16934291 -0.17739909 0.11936104
v 0.17016413 -0.17666071 0.11870329
f 30 9 18
f 26 10 27
f 29 18 13
f 12 40 13
f 18 9 13
f 41 33 29
f 29 13 41
f 39 30 20
f 9 30 39
f 20 31 39
f 39 31 9
f 7 24 6
f 7 26 24
f 25 30 32
f 32 33 25
f 24 26 28
f 28 26 27
f 27 25 28
f 25 33 28
f 12 13 19
f 19 13 9
f 21 25 27
f 21 31 20
f 20 30 21
f 21 30 25
f 6 5 35
f 35 7 6
f 10 26 35
f 26 7 35
f 9 31 36
f 36 19 9
f 38 36 31
f 24 28 11
f 11 28 33
f 16 13 40
f 16 41 13
f 23 40 12
f 23 16 40
f 6 24 2
f 37 32 30
f 37 18 29
f 37 30 18
f 29 33 37
f 33 32 37
f 27 10 8
f 8 21 27
f 10 21 8
f 10 31 22
f 22 21 10
f 31 21 22
f 10 35 1
f 1 35 5
f 1 31 10
f 1 38 31
f 36 38 14
f 5 23 14
f 14 1 5
f 38 1 14
f 14 23 12
f 12 19 14
f 19 36 14
f 33 41 3
f 3 11 33
f 17 16 34
f 16 23 34
f 6 17 34
f 15 16 17
f 15 17 6
f 6 2 15
f 15 2 24
f 24 11 15
f 11 3 15
f 41 16 15
f 15 3 41
f 4 5 6
f 6 34 4
f 4 23 5
f 4 34 23

