# https://github.com/mikedh/trimesh
v 0.19377289 0.18453937 0.10698949
v 0.19465091 0.18554021 0.10691239
v 0.19387108 0.18709531 0.10722374
v 0.19459711 0.18793988 0.10569989
v 0.19309191 0.18858496 0.10533382
v 0.19379336 0.18819267 0.10392974
v 0.19224436 0.18766348 0.10329822
v 0.19288331 0.18347396 0.10477829
v 0.19458746 0.18433564 0.10609469
v 0.19473493 0.18696383 0.10663224
v 0.19220986 0.18496089 0.10286149
v 0.19367619 0.18434801 0.10330594
v 0.19424911 0.18384466 0.10474572
v 0.19362353 0.18682078 0.10273967
v 0.19202801 0.18629311 0.10273559
v 0.19538304 0.18592004 0.10589219
v 0.19457789 0.18576523 0.10309622
v 0.19478638 0.18742694 0.10391289
v 0.19505323 0.18463514 0.10506034
v 0.19528326 0.18534402 0.10427217
v 0.19539917 0.18649758 0.10451279
f 4 5 3
f 4 6 5
f 11 8 15
f 11 12 8
f 15 14 11
f 21 4 16
f 5 6 7
f 7 14 15
f 6 14 7
f 15 8 7
f 8 1 7
f 3 5 7
f 7 1 3
f 18 4 21
f 6 4 18
f 18 14 6
f 17 18 21
f 14 18 17
f 12 11 17
f 17 11 14
f 3 1 2
f 10 4 3
f 10 16 4
f 3 2 10
f 10 2 16
f 8 12 13
f 9 1 8
f 8 13 9
f 9 2 1
f 16 2 9
f 12 17 20
f 20 13 12
f 20 17 21
f 21 16 20
f 19 9 13
f 13 20 19
f 16 9 19
f 19 20 16

