# https://github.com/mikedh/trimesh
v -0.08251305 -0.10632497 -0.07582768
v -0.08362790 -0.10622684 -0.07828668
v -0.08277485 -0.10749191 -0.07810956
v -0.08149620 -0.10587855 -0.07821218
v -0.08190435 -0.10530830 -0.07858898
v -0.08127153 -0.10615595 -0.07870208
v -0.08151240 -0.10687782 -0.07835864
v -0.08183292 -0.10763874 -0.07878926
v -0.08344977 -0.10729847 -0.07905133
v -0.08399275 -0.10650989 -0.07903386
v -0.08156200 -0.10906341 -0.08868738
v -0.08446317 -0.10832919 -0.08869171
v -0.08523859 -0.10541952 -0.08868716
v -0.08173969 -0.10343527 -0.08867435
v -0.07967942 -0.10651887 -0.08869025
v -0.08180515 -0.10501947 -0.07939995
v -0.08329295 -0.10502367 -0.07924350
v -0.08428105 -0.10600897 -0.08869039
v -0.08215022 -0.10454799 -0.08869283
v -0.08071135 -0.10668605 -0.08869283
v -0.08104972 -0.10674702 -0.08062469
v -0.08130555 -0.10544262 -0.08053918
v -0.08259102 -0.10483626 -0.08035593
v -0.08270357 -0.10786087 -0.07986420
v -0.08130627 -0.10724424 -0.07969348
f 25 11 15
f 17 14 13
f 13 14 19
f 19 14 15
f 15 11 20
f 11 12 20
f 20 19 15
f 12 19 20
f 13 12 10
f 10 17 13
f 24 12 11
f 15 14 22
f 14 16 22
f 14 17 23
f 23 16 14
f 17 16 23
f 18 12 13
f 13 19 18
f 18 19 12
f 1 17 2
f 2 10 1
f 17 10 2
f 11 25 8
f 8 24 11
f 1 10 9
f 9 10 12
f 12 24 9
f 15 22 6
f 3 8 1
f 24 8 3
f 1 9 3
f 3 9 24
f 21 25 15
f 15 6 21
f 21 6 25
f 1 8 7
f 7 6 1
f 7 8 25
f 25 6 7
f 5 17 1
f 5 16 17
f 4 22 16
f 4 6 22
f 16 5 4
f 1 6 4
f 4 5 1

