# https://github.com/mikedh/trimesh
v 0.10618771 0.16760882 0.07622988
v 0.10751516 0.16670857 0.07821698
v 0.10762209 0.16759722 0.07843573
v 0.10970591 0.16684162 0.07844101
v 0.11126176 0.16672186 0.07611546
v 0.11140514 0.16760519 0.07594921
v 0.10993374 0.16674792 0.07384748
v 0.11000458 0.16761014 0.07377088
v 0.10742264 0.16761537 0.07385246
v 0.10745347 0.16670857 0.07405823
v 0.10632981 0.16673109 0.07607468
v 0.10681169 0.16844906 0.07480341
v 0.10863826 0.16842347 0.07373533
v 0.11101818 0.16837509 0.07523226
v 0.11094333 0.16842719 0.07706174
v 0.10712929 0.16837929 0.07780461
v 0.11141728 0.16874637 0.07601666
v 0.10607923 0.16876032 0.07624781
v 0.10688851 0.16968519 0.07752866
v 0.11004368 0.16878750 0.07368028
v 0.11090837 0.16956747 0.07712971
v 0.11027234 0.16878151 0.07837493
v 0.10752916 0.16987789 0.07846464
v 0.11021918 0.16988819 0.07835133
v 0.11005106 0.16988297 0.07371386
v 0.10736283 0.16990979 0.07382308
v 0.10682072 0.17063549 0.07741856
v 0.10831928 0.17067789 0.07371618
v 0.11101157 0.17077360 0.07515021
v 0.11150123 0.16992002 0.07590806
v 0.10859164 0.17061042 0.07845546
v 0.10616576 0.17098382 0.07624701
v 0.10769256 0.17098057 0.07846676
v 0.11031354 0.17099714 0.07829486
v 0.11145504 0.17096245 0.07600661
v 0.10995181 0.17095826 0.07377376
v 0.10715501 0.17195054 0.07776291
v 0.10885708 0.17200996 0.07374304
v 0.11076924 0.17193169 0.07487644
v 0.11085271 0.17196450 0.07720871
v 0.10908264 0.17194937 0.07837579
v 0.10749041 0.17143814 0.07387668
v 0.10646851 0.17211067 0.07527896
v 0.10890356 0.17207490 0.07451388
v 0.10721978 0.17208611 0.07687793
v 0.11027209 0.16636264 0.07835481
v 0.11017859 0.17203136 0.07547061
v 0.11033201 0.16648479 0.07578068
v 0.10746584 0.16659154 0.07626973
v 0.10757258 0.16658949 0.07530906
v 0.10919284 0.16653091 0.07465804
f 32 43 18
f 46 15 22
f 22 15 34
f 48 5 46
f 7 5 48
f 18 43 12
f 7 9 13
f 43 38 42
f 27 32 18
f 18 19 27
f 23 27 19
f 4 2 46
f 4 3 2
f 4 23 3
f 46 22 4
f 33 23 4
f 2 3 16
f 18 2 16
f 16 19 18
f 16 23 19
f 3 23 16
f 46 2 49
f 49 50 46
f 1 2 18
f 35 15 30
f 46 5 6
f 6 15 46
f 6 14 30
f 6 5 7
f 33 41 37
f 43 32 37
f 32 27 37
f 37 23 33
f 27 23 37
f 31 41 33
f 33 4 31
f 31 4 22
f 24 22 34
f 34 41 24
f 24 31 22
f 41 31 24
f 7 48 51
f 46 50 51
f 51 48 46
f 30 14 20
f 20 29 30
f 43 42 26
f 26 12 43
f 9 12 26
f 10 9 7
f 10 51 50
f 7 51 10
f 11 49 2
f 2 1 11
f 50 49 11
f 11 10 50
f 9 10 11
f 11 12 9
f 18 12 11
f 11 1 18
f 34 15 21
f 15 35 21
f 30 15 17
f 17 6 30
f 15 6 17
f 43 37 45
f 45 37 41
f 44 38 43
f 43 45 44
f 44 45 47
f 38 36 25
f 25 20 38
f 29 20 25
f 7 13 8
f 13 20 8
f 8 20 14
f 8 6 7
f 14 6 8
f 28 42 38
f 28 26 42
f 38 20 28
f 28 20 13
f 28 13 9
f 9 26 28
f 40 45 41
f 47 45 40
f 40 41 34
f 34 21 40
f 40 21 35
f 39 40 35
f 47 40 39
f 39 36 38
f 39 25 36
f 29 25 39
f 39 35 30
f 30 29 39
f 38 44 39
f 39 44 47

