# https://github.com/mikedh/trimesh
v 0.16265345 -0.19675711 0.13280469
v 0.15957340 -0.19822266 0.13378316
v 0.16212678 -0.19937252 0.13165259
v 0.16587110 -0.19679398 0.13016879
v 0.15958003 -0.19583543 0.13372512
v 0.16592615 -0.19747991 0.12750804
v 0.16578866 -0.19860439 0.12834039
v 0.16533765 -0.19686574 0.12733381
v 0.15891115 -0.19436822 0.13220449
v 0.16208675 -0.19452649 0.13134934
v 0.16087088 -0.19495278 0.12853209
v 0.16519605 -0.19580841 0.12766251
v 0.16611893 -0.19585321 0.12891879
v 0.16573663 -0.19583021 0.12808586
v 0.15810478 -0.19472098 0.13021706
v 0.16491501 -0.19771486 0.12733196
v 0.16112278 -0.19935966 0.12903124
v 0.15796007 -0.19918524 0.12995279
v 0.16061028 -0.19743304 0.12781476
v 0.16577503 -0.19560873 0.12910514
v 0.16649178 -0.19710747 0.12960689
v 0.16548513 -0.19562046 0.12940656
v 0.16561398 -0.19850669 0.12928301
v 0.16632325 -0.19596746 0.12842636
v 0.16635521 -0.19811421 0.12879754
v 0.15854255 -0.19556983 0.13147224
v 0.15886473 -0.19952054 0.13220939
v 0.15904661 -0.19765954 0.13269299
v 0.15761248 -0.19654804 0.12896899
v 0.16637558 -0.19721001 0.13004474
v 0.15855306 -0.19840986 0.13145239
v 0.15804620 -0.19659859 0.13019659
v 0.15902480 -0.19623291 0.13264034
f 18 17 27
f 27 17 3
f 15 11 29
f 9 11 15
f 15 26 9
f 9 26 33
f 29 18 32
f 32 18 26
f 32 15 29
f 26 15 32
f 31 18 27
f 26 18 31
f 7 3 17
f 1 3 30
f 10 11 9
f 28 33 26
f 28 31 27
f 26 31 28
f 9 33 5
f 5 10 9
f 1 10 5
f 3 7 23
f 23 30 3
f 4 30 20
f 1 30 4
f 4 10 1
f 33 28 2
f 2 5 33
f 2 28 27
f 1 5 2
f 27 3 2
f 2 3 1
f 25 24 21
f 21 30 25
f 25 23 7
f 30 23 25
f 13 30 21
f 21 24 13
f 20 30 13
f 13 24 20
f 20 10 22
f 22 4 20
f 10 4 22
f 11 10 12
f 12 10 20
f 29 11 19
f 11 12 19
f 19 12 8
f 19 18 29
f 17 18 19
f 6 25 7
f 24 25 6
f 6 12 24
f 8 12 6
f 20 24 14
f 14 12 20
f 24 12 14
f 16 19 8
f 8 6 16
f 17 19 16
f 16 7 17
f 16 6 7

