# https://github.com/mikedh/trimesh
v -0.09644271 0.08928773 -0.08742698
v -0.09634851 0.08913948 -0.08831693
v -0.09744398 0.08691304 -0.08745636
v -0.09727856 0.08690818 -0.08834376
v -0.09582581 0.08487366 -0.08831009
v -0.09591418 0.08473446 -0.08741971
v -0.09330023 0.08506113 -0.08745075
v -0.09341394 0.08519368 -0.08835115
v -0.09236578 0.08727518 -0.08831943
v -0.09223623 0.08742198 -0.08744581
v -0.09379268 0.08941450 -0.08832568
v -0.09376246 0.08957603 -0.08743245
v -0.09701511 0.08814696 -0.08650268
v -0.09269813 0.08820981 -0.08664546
v -0.09278071 0.08598616 -0.08662388
v -0.09443918 0.08484643 -0.08664703
v -0.09646528 0.08543396 -0.08646566
v -0.09649568 0.08928113 -0.08634628
v -0.09595494 0.08469863 -0.08627473
v -0.09324141 0.08506416 -0.08627744
v -0.09224774 0.08748521 -0.08630695
v -0.09374673 0.08966115 -0.08626188
v -0.09295771 0.08859201 -0.08550774
v -0.09444178 0.08484603 -0.08552836
v -0.09757381 0.08694466 -0.08514740
v -0.09596126 0.08470673 -0.08514491
v -0.09227441 0.08749956 -0.08519664
v -0.09379241 0.08965308 -0.08513893
v -0.09265846 0.08625376 -0.08439830
v -0.09324053 0.08500143 -0.08517233
v -0.09645256 0.08927598 -0.08405446
v -0.09596563 0.08473215 -0.08407426
v -0.09331886 0.08507213 -0.08409778
v -0.09635241 0.08937491 -0.08505279
v -0.09689601 0.08832901 -0.08333933
v -0.09578093 0.08928183 -0.08308908
v -0.09266736 0.08623276 -0.08333940
v -0.09478066 0.08482743 -0.08312619
v -0.09662028 0.08571546 -0.08311623
v -0.09753238 0.08685728 -0.08403905
v -0.09714941 0.08764163 -0.08302073
v -0.09330848 0.08530096 -0.08294526
v -0.09245818 0.08789420 -0.08294526
v -0.09234206 0.08770146 -0.08355818
v -0.09382066 0.08960403 -0.08385984
v -0.09417673 0.08937488 -0.08290635
v -0.09619601 0.08648106 -0.08865113
v -0.09531218 0.08571758 -0.08860961
v -0.09374351 0.08605283 -0.08857113
v -0.09485083 0.08862393 -0.08846643
v -0.09342238 0.08761976 -0.08852503
f 17 19 25
f 3 17 25
f 9 11 10
f 49 9 8
f 19 38 26
f 38 32 26
f 46 43 45
f 42 43 46
f 4 5 6
f 6 3 4
f 6 16 19
f 19 17 6
f 17 3 6
f 39 32 38
f 38 42 39
f 47 5 4
f 8 5 48
f 48 49 8
f 5 47 48
f 48 47 49
f 46 45 36
f 36 45 34
f 2 47 4
f 4 3 2
f 10 14 21
f 30 16 7
f 8 9 7
f 16 6 7
f 7 5 8
f 7 6 5
f 24 30 38
f 24 16 30
f 24 38 19
f 19 16 24
f 38 30 33
f 33 42 38
f 32 39 40
f 40 26 32
f 25 19 40
f 19 26 40
f 49 47 51
f 11 9 51
f 9 49 51
f 35 36 31
f 31 36 34
f 43 42 37
f 37 33 30
f 42 33 37
f 10 21 37
f 34 45 28
f 28 22 34
f 28 45 43
f 43 22 28
f 34 22 1
f 11 2 1
f 1 2 3
f 43 14 23
f 23 22 43
f 14 22 23
f 30 7 20
f 41 40 39
f 41 36 35
f 41 35 25
f 25 40 41
f 46 36 41
f 41 42 46
f 41 39 42
f 50 51 47
f 47 2 50
f 11 51 50
f 50 2 11
f 43 37 44
f 44 14 43
f 44 21 14
f 15 37 30
f 30 20 15
f 15 20 7
f 15 9 10
f 15 7 9
f 18 31 34
f 34 1 18
f 25 35 18
f 35 31 18
f 11 1 12
f 12 1 22
f 12 22 14
f 10 11 12
f 12 14 10
f 27 37 21
f 21 44 27
f 27 44 37
f 10 37 29
f 29 15 10
f 37 15 29
f 25 18 13
f 13 18 1
f 13 3 25
f 13 1 3

