# https://github.com/mikedh/trimesh
v -0.16558711 0.21637142 0.05497190
v -0.15272441 0.21457951 0.05529103
v -0.15536656 0.21561768 0.05583989
v -0.15541756 0.21342061 0.05551689
v -0.15520646 0.21432898 0.05410003
v -0.15513673 0.21438623 0.05643322
v -0.15561830 0.21423574 0.05647718
v -0.15574256 0.21554392 0.05620131
v -0.15581741 0.21599343 0.05494060
v -0.15594311 0.21491120 0.05381598
v -0.16558410 0.21732059 0.05623458
v -0.16558841 0.21657844 0.05333545
v -0.16558388 0.21366654 0.05256802
v -0.16557001 0.21192642 0.05496623
v -0.16556316 0.21363395 0.05819112
v -0.15639538 0.21476281 0.05666486
v -0.15633139 0.21337867 0.05623702
v -0.15614021 0.21327603 0.05451478
v -0.16558711 0.21492343 0.05708460
v -0.16558711 0.21281066 0.05563664
v -0.15681633 0.21582086 0.05442238
v -0.15667068 0.21591363 0.05607045
f 17 15 14
f 12 11 9
f 8 11 15
f 14 15 20
f 20 13 14
f 12 13 20
f 14 13 18
f 16 8 15
f 22 9 11
f 11 8 22
f 12 20 19
f 15 11 19
f 19 20 15
f 10 9 2
f 10 13 12
f 4 17 14
f 14 18 4
f 2 17 4
f 4 18 2
f 6 17 2
f 2 8 6
f 8 16 6
f 6 16 15
f 9 22 3
f 3 22 8
f 2 9 3
f 3 8 2
f 1 11 12
f 12 19 1
f 1 19 11
f 5 18 13
f 13 10 5
f 2 18 5
f 5 10 2
f 12 9 21
f 21 10 12
f 9 10 21
f 15 17 7
f 7 6 15
f 17 6 7

