# https://github.com/mikedh/trimesh
v 0.07115446 -0.21358191 0.05682097
v 0.08401958 -0.21458425 0.05528859
v 0.08127959 -0.21382927 0.05611681
v 0.08137741 -0.21469511 0.05645769
v 0.08160729 -0.21571373 0.05554610
v 0.08127531 -0.21555130 0.05456366
v 0.08114518 -0.21579541 0.05560980
v 0.08097166 -0.21474976 0.05659873
v 0.08084199 -0.21326257 0.05588353
v 0.08081344 -0.21314718 0.05489047
v 0.08138641 -0.21456935 0.05411213
v 0.08159921 -0.21349045 0.05505606
v 0.07115988 -0.21440960 0.05818221
v 0.07115558 -0.21201362 0.05638922
v 0.07116014 -0.21241621 0.05340504
v 0.07117333 -0.21532055 0.05271510
v 0.07118084 -0.21762568 0.05552198
v 0.08034858 -0.21578397 0.05598260
v 0.08041264 -0.21591705 0.05453986
v 0.08060378 -0.21436452 0.05378748
v 0.07115446 -0.21560225 0.05378759
v 0.07115446 -0.21610881 0.05631448
v 0.07899064 -0.21426448 0.05677807
v 0.07922261 -0.21577291 0.05624075
v 0.07949133 -0.21508464 0.05388433
v 0.07992768 -0.21330747 0.05610415
v 0.08007328 -0.21479520 0.05681923
f 17 13 22
f 22 13 1
f 1 13 14
f 21 17 22
f 16 17 21
f 21 15 16
f 14 15 21
f 22 1 21
f 21 1 14
f 19 17 16
f 13 17 24
f 16 15 20
f 13 24 27
f 14 13 26
f 26 9 14
f 17 19 5
f 2 5 6
f 6 5 19
f 25 19 16
f 16 20 25
f 25 6 19
f 20 6 25
f 4 5 2
f 13 27 23
f 23 26 13
f 9 26 3
f 3 23 27
f 26 23 3
f 2 9 3
f 3 4 2
f 2 20 10
f 10 20 15
f 14 9 10
f 10 15 14
f 18 27 24
f 18 24 17
f 11 20 2
f 2 6 11
f 11 6 20
f 12 9 2
f 2 10 12
f 12 10 9
f 17 5 7
f 7 18 17
f 5 18 7
f 27 18 8
f 8 3 27
f 4 3 8
f 5 4 8
f 8 18 5

