# https://github.com/mikedh/trimesh
v 0.05947483 0.18067722 0.06216792
v 0.05954031 0.18074267 0.06610495
v 0.06852641 0.18071922 0.06216792
v 0.06850884 0.18070162 0.06610495
v 0.06893358 0.17123204 0.06626286
v 0.05909106 0.17144329 0.06616227
v 0.05951586 0.17029967 0.07650691
v 0.05949826 0.16636264 0.07652451
v 0.06848439 0.17029967 0.07654790
v 0.06854986 0.16636264 0.07648246
v 0.06893358 0.16636264 0.06216792
v 0.05909106 0.16636264 0.06216792
v 0.06893358 0.17031774 0.06768580
v 0.05909106 0.17031537 0.06760322
f 2 9 4
f 7 2 14
f 7 9 2
f 9 7 8
f 14 12 8
f 8 7 14
f 6 12 14
f 6 1 12
f 14 2 6
f 2 1 6
f 2 4 3
f 3 1 2
f 3 4 5
f 5 11 3
f 13 11 5
f 5 4 13
f 13 4 9
f 9 8 10
f 10 13 9
f 11 13 10
f 3 11 12
f 12 1 3
f 12 11 10
f 10 8 12

