# https://github.com/mikedh/trimesh
v -0.11727358 0.21204216 0.00531829
v -0.12201543 0.21045272 0.00661119
v -0.11814790 0.21457086 0.00448312
v -0.10120188 0.22090475 0.02052652
v -0.10209358 0.22524683 0.02453343
v -0.09948870 0.22036037 0.02586434
v -0.10065235 0.20994327 0.02958149
v -0.13496448 0.21352947 0.02958729
v -0.13609008 0.21739230 0.02142849
v -0.13375128 0.21794262 0.01682584
v -0.10570373 0.21535551 0.01185389
v -0.11243061 0.23324039 0.02668324
v -0.10752154 0.23033466 0.02312682
v -0.11491580 0.23314543 0.02294309
v -0.11949584 0.19556441 0.02473193
v -0.12372853 0.23326879 0.02668403
v -0.10481883 0.22492616 0.01777834
v -0.12463368 0.22133937 0.00904527
v -0.12067940 0.21705844 0.00571702
v -0.12587631 0.21675336 0.00801074
v -0.12678808 0.20994990 0.00926732
v -0.13132718 0.21692345 0.01305292
v -0.11542763 0.20244951 0.01169812
v -0.10917216 0.20409615 0.01310907
v -0.11347633 0.19888016 0.01680497
v -0.12813426 0.19934038 0.02958392
v -0.12210236 0.23333464 0.02958103
v -0.11902756 0.23425541 0.02958743
v -0.11861291 0.23407886 0.02652397
v -0.10796656 0.23025055 0.02959322
v -0.13271871 0.21144407 0.01514076
v -0.12121951 0.20463216 0.00989454
v -0.11739723 0.20678396 0.00790394
v -0.12667998 0.23142324 0.02959584
v -0.12737886 0.23172855 0.02650714
v -0.10875900 0.19963293 0.01950557
v -0.10992868 0.22944386 0.01787087
v -0.13093281 0.22100072 0.01391859
v -0.13741753 0.21538961 0.02629550
v -0.11425156 0.22732403 0.01263424
v -0.12021583 0.22699721 0.01195319
v -0.11756427 0.23089366 0.01686107
v -0.13104258 0.21269908 0.01265279
v -0.13062458 0.20758710 0.01395647
v -0.12267560 0.22984078 0.01628324
v -0.12594071 0.22600322 0.01323387
v -0.12633286 0.23072219 0.02067147
v -0.10081798 0.21399731 0.02958702
v -0.12259996 0.23352060 0.02651540
v -0.12075505 0.23319459 0.02278844
v -0.11036538 0.21940346 0.00876072
v -0.10823997 0.21445925 0.00930229
v -0.11308825 0.21369526 0.00631532
v -0.11040143 0.19673668 0.02508811
v -0.10528881 0.20128991 0.02155719
v -0.10532771 0.19926101 0.02957026
v -0.13038323 0.21465499 0.01177564
v -0.11789018 0.22096443 0.00697937
v -0.09928731 0.22104451 0.02958693
v -0.09867956 0.21543970 0.02634576
v -0.11404771 0.21921496 0.00692114
v -0.12983178 0.22840841 0.02087782
v -0.13257140 0.22378879 0.01836427
v -0.13296416 0.22714276 0.02508500
v -0.13438990 0.20664342 0.02062629
v -0.12904094 0.20114088 0.01886347
v -0.13284285 0.20229690 0.02429226
v -0.11520888 0.19552883 0.02631799
v -0.12142096 0.19498931 0.02958615
v -0.12261223 0.19618758 0.02337419
v -0.10253816 0.21792385 0.01659009
v -0.10518683 0.21278012 0.01258784
v -0.10372378 0.21155782 0.01467722
v -0.13014086 0.19873693 0.02955740
v -0.12726896 0.19767431 0.02469426
v -0.11654846 0.19554778 0.02480163
v -0.10780913 0.23123121 0.02652554
v -0.11354803 0.23352084 0.02651480
v -0.11410393 0.23309033 0.02957341
v -0.10025693 0.21763449 0.02086877
v -0.11226881 0.20920188 0.00799269
v -0.11744133 0.23409224 0.02669187
v -0.10175083 0.21133971 0.01798892
v -0.12675400 0.20353487 0.01362827
v -0.11479964 0.19501506 0.02958799
v -0.10490196 0.22038920 0.01393772
v -0.10483525 0.21689188 0.01302462
v -0.11055278 0.22440984 0.01159992
v -0.11692068 0.19653978 0.02069799
v -0.12186888 0.19797671 0.01822189
v -0.13626743 0.22076416 0.02432337
v -0.10931918 0.23164439 0.02958991
v -0.13742073 0.20988875 0.02955587
v -0.13737623 0.21969349 0.02958464
v -0.10617886 0.20813341 0.01289784
v -0.10132513 0.20715182 0.02102369
v -0.09846334 0.21121518 0.02957084
v -0.10007183 0.21169288 0.02137424
v -0.09868346 0.21378102 0.02635807
v -0.10761978 0.19962959 0.02958682
v -0.10357886 0.22811451 0.02957418
v -0.12227643 0.20103180 0.01369337
v -0.10096283 0.20446126 0.02957100
v -0.13300336 0.20405369 0.02958562
v -0.12834763 0.23114295 0.02667750
v -0.13632733 0.21177895 0.02185327
v -0.12205105 0.20043304 0.02959671
v -0.13245206 0.22817736 0.02958717
v -0.13541788 0.20488067 0.02957865
v -0.10886578 0.23179603 0.02668508
v -0.13734378 0.21391575 0.02626006
v -0.11229893 0.23244202 0.02960941
f 100 112 107
f 34 112 28
f 91 64 63
f 94 64 91
f 103 100 56
f 85 100 107
f 56 100 85
f 108 64 94
f 94 34 108
f 109 94 93
f 23 81 24
f 33 81 23
f 97 103 96
f 58 18 41
f 93 94 39
f 94 91 39
f 19 58 3
f 18 58 19
f 1 81 33
f 1 2 3
f 33 2 1
f 63 64 62
f 41 18 46
f 46 62 47
f 18 38 46
f 46 38 63
f 63 62 46
f 112 100 48
f 48 59 112
f 112 59 30
f 30 59 101
f 30 92 112
f 101 92 30
f 101 59 5
f 70 15 69
f 69 85 107
f 76 85 69
f 69 15 76
f 68 85 76
f 56 85 54
f 85 68 54
f 54 68 76
f 28 112 79
f 112 92 79
f 93 106 65
f 65 109 93
f 65 106 31
f 75 69 74
f 70 69 75
f 102 66 84
f 36 54 25
f 25 102 23
f 24 36 25
f 25 23 24
f 73 96 95
f 95 72 73
f 24 81 95
f 55 103 56
f 55 96 103
f 56 54 55
f 55 54 36
f 55 36 24
f 24 95 55
f 55 95 96
f 97 96 98
f 98 99 97
f 3 58 61
f 61 58 88
f 40 58 41
f 88 58 40
f 106 39 9
f 9 39 91
f 9 91 63
f 41 46 45
f 45 46 47
f 77 92 101
f 111 106 93
f 93 39 111
f 111 39 106
f 21 43 57
f 27 34 28
f 35 108 34
f 100 103 7
f 7 48 100
f 7 103 97
f 97 59 7
f 59 48 7
f 6 5 59
f 8 104 107
f 107 112 8
f 112 34 8
f 8 34 94
f 94 109 8
f 109 104 8
f 26 104 109
f 26 109 74
f 74 69 26
f 26 69 107
f 107 104 26
f 67 65 66
f 67 75 74
f 66 75 67
f 74 109 67
f 109 65 67
f 44 65 31
f 44 21 84
f 84 66 44
f 66 65 44
f 31 43 44
f 44 43 21
f 33 23 32
f 23 102 32
f 32 2 33
f 32 102 84
f 84 21 32
f 21 2 32
f 89 54 76
f 89 25 54
f 76 15 89
f 89 15 70
f 60 59 97
f 97 99 60
f 60 6 59
f 80 6 60
f 60 98 80
f 99 98 60
f 83 96 73
f 83 98 96
f 80 98 83
f 31 106 10
f 106 9 10
f 63 38 10
f 10 9 63
f 51 61 88
f 86 88 17
f 86 51 88
f 71 83 73
f 80 83 71
f 73 72 87
f 72 11 87
f 87 71 73
f 86 71 87
f 51 86 87
f 53 1 3
f 81 1 53
f 3 61 53
f 61 51 53
f 42 40 41
f 41 45 42
f 37 42 14
f 40 42 37
f 17 88 37
f 88 40 37
f 20 38 18
f 18 19 20
f 21 57 20
f 20 2 21
f 3 2 20
f 20 19 3
f 12 79 92
f 28 79 12
f 47 35 16
f 28 49 16
f 16 27 28
f 34 27 16
f 16 35 34
f 47 62 105
f 105 35 47
f 105 62 64
f 64 108 105
f 108 35 105
f 4 6 80
f 5 6 4
f 17 5 4
f 80 71 4
f 4 86 17
f 4 71 86
f 102 25 90
f 25 89 90
f 90 89 70
f 66 102 90
f 70 75 90
f 90 75 66
f 22 10 38
f 38 20 22
f 22 20 57
f 22 57 43
f 22 43 31
f 31 10 22
f 52 53 51
f 52 87 11
f 51 87 52
f 52 11 72
f 72 95 52
f 52 95 81
f 81 53 52
f 29 82 14
f 29 49 28
f 28 82 29
f 50 42 45
f 50 45 47
f 49 29 50
f 47 16 50
f 50 16 49
f 14 42 50
f 50 29 14
f 13 37 14
f 14 12 13
f 17 37 13
f 13 5 17
f 101 5 13
f 13 77 101
f 92 77 110
f 110 12 92
f 77 13 110
f 110 13 12
f 78 82 28
f 28 12 78
f 14 82 78
f 78 12 14

