# https://github.com/mikedh/trimesh
v -0.13008394 0.16764146 0.07626367
v -0.12863434 0.16673518 0.07828044
v -0.12857774 0.16760026 0.07844169
v -0.12611389 0.16672514 0.07816407
v -0.12600984 0.16762633 0.07833302
v -0.12495872 0.16672188 0.07611544
v -0.12481534 0.16760521 0.07594917
v -0.12616327 0.16673648 0.07395954
v -0.12873461 0.16673026 0.07399109
v -0.12893766 0.16761951 0.07394832
v -0.12987454 0.16672514 0.07616224
v -0.12624494 0.16804678 0.07373112
v -0.12522074 0.16839371 0.07519674
v -0.13014125 0.16876034 0.07624779
v -0.12888889 0.16878086 0.07380679
v -0.12618559 0.16877663 0.07367992
v -0.12594814 0.16878153 0.07837492
v -0.12867759 0.16879784 0.07852587
v -0.12473249 0.16990803 0.07595012
v -0.12616944 0.16988299 0.07371384
v -0.13012197 0.16987181 0.07625022
v -0.12938912 0.17066531 0.07741744
v -0.12949849 0.17067881 0.07488372
v -0.12733211 0.17062346 0.07372637
v -0.12527139 0.17065943 0.07500327
v -0.12595243 0.16991011 0.07836937
v -0.12762886 0.17061044 0.07845544
v -0.13006312 0.17099619 0.07626042
v -0.12483471 0.17095819 0.07595874
v -0.12626866 0.17095828 0.07377374
v -0.12884544 0.17098528 0.07388254
v -0.12960021 0.17202231 0.07691552
v -0.12870836 0.17146064 0.07832547
v -0.12950802 0.17195768 0.07514422
v -0.12835259 0.17164556 0.07386204
v -0.12784382 0.17203681 0.07376084
v -0.12545324 0.17171654 0.07478024
v -0.12593078 0.17100148 0.07834542
v -0.12767366 0.17196518 0.07842794
v -0.12523687 0.17211069 0.07747242
v -0.12579679 0.17211069 0.07427564
v -0.12731689 0.17207491 0.07451384
v -0.12646168 0.16644636 0.07727894
v -0.12588849 0.16648483 0.07578064
v -0.12875461 0.16659156 0.07626974
v -0.12864786 0.16658951 0.07530904
v -0.12702767 0.16653093 0.07465802
f 8 7 6
f 1 18 14
f 2 18 1
f 2 1 11
f 19 7 13
f 13 8 16
f 7 8 13
f 43 6 4
f 4 2 43
f 6 7 40
f 40 7 19
f 40 32 39
f 40 41 32
f 16 8 12
f 12 8 9
f 9 8 47
f 39 18 27
f 43 2 45
f 2 11 45
f 14 18 22
f 33 18 39
f 39 32 33
f 33 22 18
f 32 22 33
f 16 12 15
f 15 12 9
f 36 15 31
f 19 13 25
f 25 13 16
f 5 4 6
f 6 40 5
f 5 40 17
f 17 18 5
f 2 4 5
f 29 40 19
f 38 40 39
f 17 40 38
f 39 27 38
f 44 8 6
f 44 47 8
f 44 6 43
f 43 47 44
f 9 47 46
f 46 11 9
f 46 45 11
f 46 47 43
f 43 45 46
f 28 22 32
f 31 15 23
f 10 1 14
f 14 23 10
f 10 23 15
f 10 15 9
f 9 11 10
f 10 11 1
f 32 36 34
f 34 28 32
f 31 23 34
f 34 23 28
f 32 41 42
f 42 36 32
f 41 36 42
f 30 36 41
f 16 15 24
f 24 36 16
f 15 36 24
f 3 18 2
f 2 5 3
f 3 5 18
f 41 40 37
f 40 29 37
f 37 25 41
f 19 25 37
f 37 29 19
f 17 38 26
f 26 38 27
f 26 18 17
f 26 27 18
f 14 22 21
f 22 28 21
f 21 23 14
f 28 23 21
f 35 36 31
f 31 34 35
f 35 34 36
f 20 30 41
f 20 25 16
f 41 25 20
f 16 36 20
f 36 30 20

