# https://github.com/mikedh/trimesh
v -0.10965067 -0.14535701 -0.04145198
v -0.10135845 -0.13540502 -0.04047278
v -0.10354538 -0.13725194 -0.04122776
v -0.10377796 -0.13698422 -0.04036198
v -0.10288820 -0.13728789 -0.03934343
v -0.10223485 -0.13811807 -0.03953813
v -0.10319338 -0.13764076 -0.03926168
v -0.10411725 -0.13724770 -0.04030728
v -0.10356598 -0.13781521 -0.04171170
v -0.10277078 -0.13831077 -0.04190985
v -0.10184543 -0.13816097 -0.04077778
v -0.10243915 -0.13759797 -0.04156283
v -0.10972732 -0.14530310 -0.04286108
v -0.11070178 -0.14467616 -0.04010233
v -0.10678253 -0.14721576 -0.04264086
v -0.10619313 -0.14758239 -0.03975631
v -0.10854665 -0.14604541 -0.03743138
v -0.10393986 -0.13810585 -0.03927306
v -0.10269500 -0.13883786 -0.03913996
v -0.10195991 -0.13908734 -0.04069251
v -0.10710310 -0.14701439 -0.03945675
v -0.10922568 -0.14563592 -0.03894826
v -0.10534663 -0.13881147 -0.04079256
v -0.10476958 -0.13890957 -0.03928411
v -0.10264360 -0.13997175 -0.03998178
v -0.10427106 -0.13839259 -0.04174958
v -0.10479225 -0.13788134 -0.04026140
f 23 13 14
f 16 17 21
f 21 15 16
f 19 17 16
f 16 15 20
f 27 23 14
f 22 17 14
f 14 21 22
f 22 21 17
f 13 15 1
f 15 21 1
f 14 13 1
f 1 21 14
f 5 19 2
f 17 19 5
f 13 23 26
f 26 9 13
f 10 15 13
f 13 9 10
f 10 20 15
f 2 19 6
f 6 20 2
f 19 20 6
f 25 19 16
f 16 20 25
f 25 20 19
f 24 27 14
f 18 27 24
f 14 17 24
f 17 18 24
f 4 5 2
f 7 18 17
f 17 5 7
f 7 5 18
f 23 27 3
f 3 26 23
f 9 26 3
f 2 9 3
f 3 4 2
f 12 9 2
f 2 10 12
f 12 10 9
f 2 20 11
f 11 10 2
f 20 10 11
f 8 3 27
f 4 3 8
f 8 27 18
f 18 5 8
f 5 4 8

