# https://github.com/mikedh/trimesh
v 0.16935180 0.16641051 0.11302929
v 0.16830780 0.15688976 0.11399796
v -0.21350467 0.15698766 0.03851991
v -0.21240532 0.16636266 0.03751296
v -0.21369459 0.16636266 0.04050851
v -0.21240534 0.15698766 0.04213781
v -0.10025326 0.16636265 0.12527832
v 0.09931501 0.16636264 0.12586156
v -0.13081813 0.15698766 -0.09943408
v -0.12954870 0.16636266 -0.10163276
v -0.12850003 0.15698766 -0.10194271
v 0.12671930 0.15698764 -0.10184202
v 0.12635679 0.16636264 -0.10163274
v 0.13060597 0.15698764 -0.10049419
v 0.13039670 0.16636264 -0.10085669
v -0.05020082 0.16636265 0.13067170
v -0.04689557 0.16636265 0.13099862
v -0.00051545 0.16636265 0.13129165
v 0.04789581 0.15687287 0.13137791
v 0.04931768 0.16636264 0.13122308
v 0.18469272 0.16636263 -0.06232023
v 0.18490412 0.15698763 -0.06232449
v -0.13867140 0.16456921 -0.10873028
v -0.13886997 0.15882653 -0.10863556
v -0.22414221 0.16452422 -0.05359839
v -0.22431137 0.15878224 -0.05345711
v -0.23367673 0.16464669 -0.03767034
v -0.23371164 0.15867052 -0.03735327
v -0.23391819 0.16451282 0.05113004
v -0.23391144 0.15887234 0.05141145
v -0.23083761 0.16458574 0.07367823
v -0.23144307 0.15894519 0.07039446
v -0.22495535 0.15876449 0.09395041
v -0.22370894 0.16440507 0.09704846
v -0.21388152 0.16455657 0.11727664
v -0.21372257 0.15875316 0.11747174
v 0.18024233 0.15880449 0.12667079
v 0.18001498 0.16451733 0.12673959
v 0.11097803 0.15874489 0.13368658
v 0.12981985 0.16466451 0.13201419
v 0.05563383 0.16460532 0.13683918
v 0.01757898 0.15874492 0.13790998
v -0.03785402 0.16460530 0.13787450
v -0.07590704 0.15874493 0.13675494
v -0.13124709 0.16460536 0.13353144
v -0.14826997 0.15800196 0.13171984
v -0.20074499 0.15883813 0.12638626
v -0.20096906 0.16455017 0.12631031
v 0.19521686 0.16456598 0.11507211
v 0.19534728 0.15881354 0.11485784
v 0.20369368 0.16454481 0.09202317
v 0.20387220 0.15880541 0.09144914
v 0.20926216 0.16454481 0.07146741
v 0.20939651 0.15880540 0.07088143
v 0.21325116 0.16454483 0.05054794
v 0.21334062 0.15880538 0.04995304
v 0.21575873 0.16436318 0.02853553
v 0.21571327 0.15882191 0.02853477
v 0.21546989 0.15893489 -0.04059398
v 0.21542309 0.16475531 -0.04027471
v 0.20829640 0.15859491 -0.05396503
v 0.13003363 0.15876606 -0.10893030
v 0.20829376 0.16467441 -0.05406429
v 0.12986235 0.16463554 -0.10895587
v 0.12212082 0.15859356 -0.11132781
v -0.13069980 0.15859648 -0.11135156
v 0.12218583 0.16465269 -0.11137967
v -0.13059728 0.16482581 -0.11131096
v -0.19650902 0.16625631 0.12548044
v -0.21253784 0.16623744 0.11621446
v -0.10737561 0.16625081 0.13346087
v -0.03110234 0.16626553 0.13614618
v 0.04781686 0.16627265 0.13539863
v 0.15819823 0.16627217 0.12797039
v 0.18724068 0.16623526 0.12149616
v 0.19352525 0.16623404 0.11456454
v 0.18992848 0.16636263 0.11592319
v 0.20469201 0.16625981 0.08307522
v 0.21360102 0.16624480 0.03665115
v 0.21369434 0.16622058 -0.04193273
v 0.19568952 0.16636263 -0.04761593
v 0.20708142 0.16618355 -0.05305666
v 0.19141830 0.16636263 -0.05727599
v 0.12274890 0.16626287 -0.10970075
v -0.12959211 0.16616439 -0.10994344
v -0.13760538 0.16621903 -0.10737261
v -0.17822127 0.16634634 -0.05331626
v -0.22658245 0.16619131 -0.04979947
v -0.23203575 0.16621124 -0.03754897
v -0.23210962 0.16621202 0.05542960
v -0.22457485 0.16625592 0.08966648
v 0.17244423 0.15698761 0.12535169
v 0.10348528 0.15714762 0.13278034
v -0.00575278 0.15711900 0.13646398
v -0.08582052 0.15709773 0.13451829
v -0.10341927 0.15698765 0.13243234
v -0.20012546 0.15707971 0.12470959
v -0.21058569 0.15718314 0.11905569
v -0.22365029 0.15709314 0.09234513
v -0.23211160 0.15715147 0.05672457
v -0.23125502 0.15714849 -0.04213024
v -0.22415475 0.15709421 -0.05140739
v -0.13620558 0.15705729 -0.10814871
v 0.12801160 0.15706321 -0.10813374
v 0.20870963 0.15716071 -0.05162016
v 0.19200469 0.15698763 -0.05651176
v 0.19581524 0.15698763 -0.04666091
v 0.21374901 0.15710426 -0.04027928
v 0.21379357 0.15711140 0.03394500
v 0.20575948 0.15709046 0.07911784
v 0.19409406 0.15718091 0.11379462
v 0.19000003 0.15693481 0.11572956
v 0.18085971 0.15708131 0.12471052
v -0.20714877 0.16548944 0.12300754
v -0.20776010 0.15880452 0.12298359
v 0.18869816 0.16455681 0.12255214
v 0.18889469 0.15879341 0.12240154
v 0.21296497 0.16454569 -0.04758823
v 0.21287726 0.15880453 -0.04775661
v -0.23036775 0.16455751 -0.04684531
v -0.23049671 0.15879277 -0.04663314
v 0.12152505 0.15737926 -0.11017854
v -0.13018870 0.15738969 -0.11021820
v 0.18830388 0.15736474 0.12116789
v 0.12979105 0.16597609 -0.10758176
v 0.17954170 0.16596004 0.12550394
f 103 104 12
f 29 28 30
f 24 66 103
f 23 66 24
f 122 104 103
f 27 28 29
f 27 121 28
f 19 12 2
f 39 42 93
f 37 39 93
f 93 113 37
f 41 42 39
f 40 39 37
f 40 41 39
f 73 41 40
f 110 52 111
f 111 52 50
f 37 113 117
f 81 1 77
f 11 102 103
f 103 12 11
f 11 12 19
f 28 121 101
f 101 121 102
f 102 121 26
f 103 102 26
f 26 24 103
f 96 6 19
f 103 66 123
f 123 122 103
f 65 66 67
f 67 62 65
f 65 123 66
f 122 123 65
f 65 62 104
f 104 122 65
f 67 66 68
f 68 66 23
f 29 30 32
f 32 31 29
f 104 62 61
f 81 77 79
f 79 77 78
f 57 60 79
f 79 55 57
f 78 53 79
f 53 55 79
f 84 82 125
f 94 93 42
f 44 95 94
f 94 42 44
f 19 93 94
f 94 96 19
f 95 96 94
f 54 52 110
f 53 52 54
f 54 55 53
f 124 117 113
f 124 111 50
f 50 117 124
f 50 52 51
f 51 53 78
f 51 52 53
f 38 40 37
f 49 117 50
f 50 51 49
f 73 40 74
f 74 38 126
f 40 38 74
f 6 96 97
f 97 96 95
f 102 11 9
f 9 11 19
f 100 32 30
f 100 30 28
f 28 101 100
f 3 101 102
f 102 9 3
f 3 100 101
f 19 6 3
f 3 9 19
f 73 74 20
f 20 72 73
f 48 47 45
f 42 41 43
f 44 42 43
f 43 41 73
f 73 72 43
f 43 45 44
f 43 71 45
f 72 71 43
f 98 97 115
f 115 97 47
f 47 48 115
f 44 45 46
f 45 47 46
f 46 95 44
f 46 97 95
f 47 97 46
f 86 68 23
f 35 115 114
f 114 115 48
f 120 26 121
f 121 27 120
f 31 32 33
f 108 58 109
f 118 60 59
f 59 58 108
f 57 58 59
f 59 60 57
f 14 12 104
f 14 2 12
f 22 14 104
f 22 106 2
f 2 14 22
f 104 61 105
f 105 22 104
f 108 106 105
f 106 22 105
f 81 79 80
f 80 79 60
f 118 82 80
f 80 60 118
f 83 1 81
f 83 21 1
f 81 80 83
f 82 21 83
f 83 80 82
f 64 62 67
f 67 84 64
f 84 125 64
f 19 2 92
f 92 93 19
f 113 93 92
f 112 124 113
f 111 124 112
f 113 92 112
f 110 111 112
f 112 92 2
f 112 109 110
f 108 109 112
f 55 54 56
f 57 55 56
f 56 58 57
f 56 109 58
f 56 54 110
f 110 109 56
f 117 49 116
f 37 117 116
f 116 38 37
f 126 38 116
f 76 51 78
f 76 49 51
f 78 77 76
f 76 116 49
f 6 97 99
f 99 3 6
f 100 3 99
f 99 97 98
f 32 100 99
f 99 33 32
f 18 20 1
f 72 20 18
f 8 77 1
f 1 20 8
f 8 74 77
f 8 20 74
f 68 86 85
f 85 84 67
f 67 68 85
f 84 85 10
f 10 85 86
f 10 86 88
f 26 120 25
f 25 120 88
f 23 24 25
f 24 26 25
f 25 86 23
f 88 86 25
f 98 115 36
f 36 115 35
f 36 99 98
f 33 99 36
f 31 33 34
f 34 36 35
f 33 36 34
f 119 105 61
f 118 59 119
f 119 59 108
f 108 105 119
f 63 125 82
f 63 64 125
f 63 82 118
f 63 61 62
f 62 64 63
f 118 119 63
f 63 119 61
f 2 106 107
f 107 112 2
f 107 106 108
f 108 112 107
f 126 116 75
f 116 76 75
f 75 76 77
f 75 74 126
f 77 74 75
f 17 71 72
f 72 18 17
f 17 18 1
f 84 10 13
f 13 10 1
f 71 17 69
f 69 114 48
f 69 48 45
f 45 71 69
f 84 13 15
f 15 82 84
f 15 21 82
f 1 21 15
f 15 13 1
f 89 10 88
f 89 87 10
f 89 27 29
f 89 120 27
f 88 120 89
f 10 87 4
f 4 5 1
f 1 10 4
f 4 89 5
f 87 89 4
f 5 69 7
f 1 5 7
f 31 34 91
f 16 69 17
f 16 7 69
f 16 17 1
f 1 7 16
f 70 69 5
f 5 91 70
f 114 69 70
f 35 114 70
f 70 34 35
f 70 91 34
f 5 89 90
f 90 91 5
f 90 89 29
f 29 31 90
f 31 91 90

