# https://github.com/mikedh/trimesh
v -0.10764317 -0.09822349 -0.05847903
v -0.10235775 -0.09008464 -0.05958971
v -0.05685338 -0.11406734 -0.05883793
v -0.11416825 -0.10827124 -0.03697938
v -0.11407660 -0.10813004 -0.04535438
v -0.11245317 -0.10563027 -0.02921716
v -0.05763283 -0.11527383 -0.02141268
v -0.09448580 -0.07796292 -0.03158681
v -0.09342965 -0.07633656 -0.04298438
v -0.11157255 -0.10427421 -0.05357133
v -0.10333996 -0.09159709 -0.02111963
v -0.10851573 -0.09956707 -0.02318478
v -0.09640087 -0.08091184 -0.05432243
v -0.05999272 -0.06973627 -0.04152143
v -0.05790997 -0.07105237 -0.04046691
v -0.05935140 -0.07016790 -0.03916043
v -0.08281151 -0.10487411 0.00249090
v -0.08131960 -0.10710001 0.00252190
v -0.08344931 -0.10727532 0.00247610
v -0.10678243 -0.14178611 -0.03940831
v -0.10473323 -0.14315385 -0.04046256
v -0.10612615 -0.14219464 -0.04176946
v -0.08396247 -0.10664649 -0.08342081
v -0.08132220 -0.10710404 -0.08345180
v -0.08202830 -0.10508719 -0.08340598
v -0.09826648 -0.08378462 -0.02421431
v -0.05036707 -0.10407675 -0.03610923
v -0.07147660 -0.13658359 -0.04456038
v -0.05282768 -0.10786380 -0.02738330
v -0.07157943 -0.13674112 -0.03767721
v -0.07074405 -0.13545230 -0.03241501
v -0.06386573 -0.12485995 -0.05951631
v -0.05275888 -0.10775787 -0.05339947
v -0.06056512 -0.11977392 -0.06016650
v -0.11207280 -0.13810434 -0.04402728
v -0.10233023 -0.14467092 -0.04410983
v -0.05049668 -0.10427752 -0.04560158
v -0.06767673 -0.13072905 -0.05582523
v -0.07032938 -0.13481392 -0.05027778
v -0.05559137 -0.07264759 -0.04409743
v -0.05559482 -0.07266997 -0.03679435
v -0.08092286 -0.11170655 0.00248544
v -0.07696653 -0.10555034 0.00237767
v -0.10230071 -0.14456157 -0.03679203
v -0.08096732 -0.11171106 -0.08330755
v -0.07698670 -0.10557820 -0.08341593
v -0.09073000 -0.10523926 0.00228445
v -0.08684965 -0.09926404 -0.08321433
v -0.06798458 -0.13120310 -0.02524945
v -0.09073182 -0.10524135 -0.08330260
v -0.11212118 -0.13817811 -0.03689991
v -0.08684850 -0.09926157 0.00237269
v -0.06550685 -0.06639899 -0.03690260
v -0.06305000 -0.12330895 -0.02105565
v -0.06545907 -0.06632472 -0.04402880
f 48 13 55
f 37 40 27
f 27 40 41
f 41 29 27
f 4 35 51
f 51 6 4
f 44 49 42
f 42 51 44
f 5 35 4
f 4 6 5
f 55 40 46
f 46 48 55
f 13 48 2
f 2 5 13
f 1 5 2
f 50 36 35
f 1 2 50
f 50 2 48
f 55 13 9
f 13 5 9
f 7 37 27
f 27 29 7
f 52 41 53
f 55 9 53
f 53 9 8
f 15 41 40
f 38 36 45
f 24 46 45
f 36 50 45
f 21 36 44
f 30 7 49
f 44 36 30
f 51 42 47
f 6 51 47
f 52 11 47
f 29 41 43
f 43 7 29
f 42 7 43
f 43 41 52
f 25 46 24
f 48 46 25
f 37 7 3
f 10 50 35
f 1 50 10
f 35 5 10
f 10 5 1
f 54 42 49
f 49 7 54
f 54 7 42
f 14 40 55
f 14 15 40
f 55 53 14
f 26 11 52
f 52 53 26
f 26 53 8
f 8 9 26
f 26 9 5
f 20 51 35
f 44 51 20
f 20 21 44
f 39 36 38
f 31 49 44
f 44 30 31
f 31 30 49
f 19 47 42
f 6 47 12
f 12 47 11
f 12 5 6
f 12 26 5
f 11 26 12
f 23 50 48
f 48 25 23
f 23 25 24
f 24 45 23
f 23 45 50
f 38 45 32
f 32 3 38
f 40 37 33
f 37 3 33
f 33 46 40
f 33 3 46
f 16 14 53
f 15 14 16
f 16 53 41
f 41 15 16
f 22 20 35
f 21 20 22
f 35 36 22
f 36 21 22
f 28 30 36
f 36 39 28
f 7 30 28
f 28 3 7
f 38 3 28
f 28 39 38
f 42 43 18
f 18 19 42
f 46 3 34
f 3 32 34
f 34 45 46
f 34 32 45
f 19 18 17
f 52 47 17
f 47 19 17
f 17 43 52
f 17 18 43

