# https://github.com/mikedh/trimesh
v 0.11697941 -0.16636423 0.05462338
v 0.11867213 -0.17922936 0.05532166
v 0.11753489 -0.17691460 0.05554811
v 0.11810318 -0.17658718 0.05429435
v 0.11945862 -0.17681705 0.05447123
v 0.11985631 -0.17646808 0.05536493
v 0.11949009 -0.17635496 0.05437249
v 0.11806864 -0.17618143 0.05414705
v 0.11724544 -0.17605171 0.05557735
v 0.11771114 -0.17602320 0.05646192
v 0.11884946 -0.17668466 0.05649244
v 0.11689348 -0.16636966 0.05303256
v 0.11592916 -0.16636536 0.05586557
v 0.11794707 -0.16636991 0.05810062
v 0.12073034 -0.16638328 0.05703094
v 0.12104997 -0.16639060 0.05341105
v 0.12015258 -0.17565706 0.05543891
v 0.11969161 -0.17548376 0.05425054
v 0.11933879 -0.17581356 0.05668444
v 0.12036007 -0.16636424 0.05598516
v 0.11935061 -0.16636424 0.05361397
v 0.11756549 -0.17420169 0.05427665
v 0.11911512 -0.17443236 0.05386455
v 0.11987344 -0.17469946 0.05620728
v 0.11715784 -0.17513743 0.05536994
v 0.11815174 -0.17532093 0.05382248
f 10 14 13
f 9 10 13
f 26 12 16
f 16 12 21
f 16 15 17
f 14 10 11
f 11 10 2
f 16 17 18
f 4 26 2
f 1 12 13
f 1 21 12
f 14 15 20
f 13 14 20
f 20 15 16
f 16 21 20
f 20 1 13
f 21 1 20
f 24 17 15
f 19 11 2
f 17 24 19
f 19 24 15
f 19 15 14
f 14 11 19
f 23 26 16
f 16 18 23
f 2 26 5
f 5 18 17
f 3 4 2
f 9 4 3
f 2 10 3
f 10 9 3
f 13 12 25
f 25 9 13
f 22 25 12
f 2 5 6
f 6 5 17
f 6 19 2
f 17 19 6
f 26 23 7
f 7 5 26
f 7 23 18
f 18 5 7
f 26 4 8
f 12 26 8
f 8 22 12
f 8 4 9
f 9 25 8
f 25 22 8

