# https://github.com/mikedh/trimesh
v 0.19354986 0.18067716 0.04966793
v 0.19348439 0.18074263 0.04573093
v 0.18449829 0.18071923 0.04966793
v 0.18451586 0.18070164 0.04573093
v 0.18409106 0.17172387 0.04570650
v 0.19393359 0.17136666 0.04563282
v 0.19350881 0.17029966 0.03532895
v 0.19352642 0.16636263 0.03531135
v 0.18454034 0.17029966 0.03528789
v 0.18447487 0.16636263 0.03535336
v 0.18409106 0.16636263 0.04966793
v 0.19393359 0.16636263 0.04966793
v 0.18409106 0.17040279 0.04467049
v 0.19393359 0.17032222 0.04430302
f 11 3 5
f 2 9 4
f 4 3 2
f 9 5 4
f 4 5 3
f 2 3 1
f 14 12 8
f 11 5 13
f 13 5 9
f 6 1 12
f 6 12 14
f 14 2 6
f 2 1 6
f 7 2 14
f 14 8 7
f 7 9 2
f 7 8 9
f 9 8 10
f 11 13 10
f 10 13 9
f 11 12 1
f 1 3 11
f 10 12 11
f 10 8 12

