# https://github.com/mikedh/trimesh
v -0.10956710 -0.09153094 -0.08869321
v -0.07787012 -0.09493984 -0.08825845
v -0.10325677 -0.07017797 -0.08121269
v -0.09936510 -0.06467149 -0.07727231
v -0.06018578 -0.08290034 -0.00641248
v -0.05627325 -0.07515602 -0.01538136
v -0.06008493 -0.08057265 -0.00693718
v -0.10588080 -0.14778997 -0.04152810
v -0.10673610 -0.14724606 -0.03813676
v -0.11381547 -0.09917086 -0.08850309
v -0.07984506 -0.10884749 0.00716934
v -0.07959240 -0.10544846 0.00704479
v -0.10093937 -0.06496274 -0.07633994
v -0.13764820 -0.12360845 -0.03444073
v -0.13796545 -0.12202626 -0.03649111
v -0.13778013 -0.12403581 -0.04263473
v -0.05414120 -0.06811642 -0.03940196
v -0.05498477 -0.06755607 -0.04279313
v -0.09356788 -0.13267564 -0.07877863
v -0.08777367 -0.12548645 -0.08280253
v -0.09575150 -0.13772999 -0.07267490
v -0.06203747 -0.08343419 -0.07715593
v -0.05841342 -0.07896677 -0.07124835
v -0.06166630 -0.08543397 -0.07652653
v -0.05948482 -0.06746602 -0.02663943
v -0.13368150 -0.07432534 -0.04069611
v -0.13293953 -0.11584831 -0.06812371
v -0.13526268 -0.12351476 -0.05372636
v -0.13785230 -0.12272099 -0.04868821
v -0.13578868 -0.11963737 -0.06024609
v -0.10331820 -0.14822312 -0.04976076
v -0.10307443 -0.14882667 -0.04075131
v -0.10473753 -0.14833089 -0.04654770
v -0.10214075 -0.14761702 -0.03370041
v -0.10044014 -0.14513154 -0.02165966
v -0.06650965 -0.09034402 -0.08279403
v -0.06986785 -0.09785754 -0.08480458
v -0.09431385 -0.09925854 -0.08869324
v -0.05317110 -0.06892180 -0.03438698
v -0.06394500 -0.06202527 -0.03479905
v -0.11843858 -0.09238417 0.00309764
v -0.11357403 -0.08629742 0.00453917
v -0.10985501 -0.07877724 0.00239309
v -0.11972714 -0.09483264 -0.08392251
v -0.09025882 -0.12683832 -0.08312183
v -0.08369550 -0.11776642 -0.08681950
v -0.09817557 -0.06170379 -0.00626371
v -0.10239123 -0.06877211 -0.00054013
v -0.09306968 -0.13193404 -0.00153576
v -0.08847356 -0.12520135 0.00304957
v -0.09923470 -0.12790472 -0.00175721
v -0.13253125 -0.07258606 -0.04022758
v -0.09599985 -0.05837907 -0.01003306
v -0.09252315 -0.05414009 -0.01686801
v -0.09255300 -0.05205269 -0.02342666
v -0.05404300 -0.07181527 -0.05718277
v -0.05272592 -0.07026545 -0.05024893
v -0.09030562 -0.05028909 -0.02659683
v -0.08983305 -0.04868302 -0.03455468
v -0.07872865 -0.11138932 0.00603115
v -0.07057238 -0.09888965 0.00344155
v -0.10339353 -0.14751027 -0.05367876
v -0.10048435 -0.14355924 -0.06450641
v -0.10641018 -0.10498159 -0.08869281
v -0.10298160 -0.10418450 -0.08869301
v -0.09243865 -0.13258492 -0.00307060
v -0.09641846 -0.13864587 -0.01041778
v -0.07008097 -0.09605967 -0.08547423
v -0.07795967 -0.11028341 -0.08699746
v -0.07771728 -0.10895155 0.00696524
v -0.08465088 -0.11894980 0.00574072
v -0.09002327 -0.05017094 -0.05361790
v -0.09103312 -0.04960522 -0.04743696
v -0.08891447 -0.04862769 -0.04348765
v -0.11066677 -0.10488616 -0.08849901
v -0.09585990 -0.11452890 -0.08842133
v -0.09102748 -0.11520069 -0.08825918
v -0.05521392 -0.07536005 -0.06232658
v -0.09231279 -0.05368127 -0.06326923
v -0.09358207 -0.05431645 -0.06450163
v -0.09663946 -0.13783324 -0.00740833
v -0.07943418 -0.10705662 -0.08867358
v -0.08547352 -0.10581732 -0.08868948
v -0.10965980 -0.14528209 -0.04336111
v -0.11015351 -0.14498347 -0.03807771
v -0.05796817 -0.06568392 -0.03756880
v -0.05844172 -0.06535495 -0.04285188
v -0.08299743 -0.10316682 0.00700850
v -0.08062280 -0.11020322 -0.08863671
v -0.11543323 -0.14131004 -0.04613086
v -0.11544768 -0.14128927 -0.03474481
v -0.08659363 -0.09685740 0.00679352
v -0.11220805 -0.08704367 -0.08806418
v -0.08045955 -0.09078662 -0.08844405
v -0.07693872 -0.10062422 -0.08863645
v -0.08676452 -0.11415462 -0.08862816
v -0.07531995 -0.10514217 -0.08762978
v -0.08980535 -0.10084937 -0.08869321
v -0.12436262 -0.10260869 -0.08085650
v -0.13035820 -0.11107097 -0.07360538
v -0.11441340 -0.08643252 -0.08499478
v -0.10877624 -0.07777434 -0.08404958
v -0.09968810 -0.14370045 -0.06172578
v -0.09529365 -0.08118872 -0.08848345
v -0.10755553 -0.07716897 0.00320092
v -0.05261197 -0.07119947 -0.04299851
v -0.06383488 -0.08785944 -0.00068318
v -0.06731615 -0.09150399 0.00249612
v -0.07163873 -0.09898044 0.00565017
v -0.10365196 -0.14701435 -0.02640968
v -0.10351581 -0.14835742 -0.03216541
v -0.09240590 -0.08729882 -0.08869306
v -0.05369265 -0.07115300 -0.02568445
v -0.05559903 -0.07596282 -0.01720135
v -0.06826352 -0.08039830 -0.00369320
v -0.10037493 -0.14302671 -0.01549463
v -0.09719305 -0.13777924 -0.07339349
v -0.10213835 -0.08068824 -0.08846779
v -0.07567833 -0.10357972 0.00685422
v -0.10816235 -0.08308572 -0.08855299
v -0.08228370 -0.11375066 0.00684000
v -0.09277501 -0.10641945 0.00680320
v -0.11418287 -0.09246602 -0.08856153
v -0.05605725 -0.07474329 -0.06481305
v -0.09410007 -0.08488187 -0.08869313
v -0.05203340 -0.07019227 -0.03935380
v -0.10475523 -0.14835267 -0.03446463
v -0.12938216 -0.10951512 -0.00571193
v -0.13477082 -0.11815032 -0.01718591
v -0.13155298 -0.11352678 -0.00976914
v -0.09592932 -0.05940834 -0.07206566
v -0.12752927 -0.10788094 -0.07717950
v -0.12532143 -0.10402559 -0.00095421
v -0.12000003 -0.09630869 0.00289227
v -0.13686780 -0.12199784 -0.02656961
v -0.10627802 -0.08793844 -0.08869301
v -0.05256588 -0.07017845 -0.03223198
v -0.10726342 -0.10212882 -0.08869324
v -0.05317117 -0.06892475 -0.04647650
v -0.06397762 -0.06202850 -0.04621210
v -0.10976022 -0.08842002 -0.08869293
f 15 29 16
f 90 29 28
f 28 62 90
f 90 16 29
f 90 91 16
f 69 24 20
f 35 21 20
f 20 24 35
f 34 21 35
f 117 21 63
f 63 27 117
f 35 24 114
f 6 114 113
f 53 7 54
f 7 6 54
f 6 113 54
f 109 108 105
f 78 114 24
f 60 70 71
f 71 122 134
f 126 78 57
f 128 130 51
f 33 90 62
f 19 21 117
f 19 20 21
f 117 75 19
f 19 75 76
f 103 34 32
f 21 34 103
f 103 63 21
f 62 63 103
f 35 116 110
f 110 135 91
f 27 63 30
f 28 29 30
f 30 62 28
f 30 63 62
f 76 75 64
f 69 20 46
f 117 27 100
f 100 75 117
f 10 64 75
f 61 70 60
f 109 70 61
f 35 114 61
f 60 66 61
f 61 66 35
f 52 53 55
f 53 54 55
f 55 59 52
f 11 70 119
f 119 70 109
f 48 105 108
f 108 115 48
f 126 114 106
f 106 78 126
f 114 78 106
f 37 24 69
f 36 68 94
f 24 37 36
f 36 37 68
f 121 70 11
f 121 71 70
f 11 122 121
f 122 71 121
f 49 66 50
f 51 49 50
f 50 66 60
f 60 71 50
f 50 71 134
f 81 66 49
f 81 49 51
f 81 116 35
f 51 130 81
f 130 116 81
f 124 79 56
f 140 57 56
f 56 78 124
f 56 57 78
f 140 56 72
f 72 56 79
f 72 79 80
f 72 80 52
f 15 16 14
f 14 135 15
f 16 91 14
f 91 135 14
f 129 116 130
f 129 110 116
f 135 110 129
f 130 128 26
f 26 129 130
f 26 41 52
f 135 129 26
f 15 135 26
f 26 29 15
f 26 30 29
f 27 30 26
f 26 100 27
f 99 100 26
f 26 44 99
f 26 101 44
f 52 102 26
f 102 101 26
f 32 33 31
f 31 33 62
f 31 103 32
f 62 103 31
f 45 19 76
f 20 19 45
f 45 46 20
f 111 34 35
f 35 110 111
f 32 34 111
f 46 45 96
f 76 64 96
f 132 100 99
f 75 100 132
f 99 10 132
f 132 10 75
f 80 79 131
f 104 4 131
f 13 131 4
f 52 80 13
f 80 131 13
f 118 4 104
f 102 120 93
f 93 101 102
f 44 101 93
f 99 44 123
f 123 10 99
f 44 93 123
f 123 93 120
f 138 64 123
f 64 10 123
f 5 61 114
f 5 6 7
f 5 114 6
f 126 39 137
f 137 39 113
f 137 114 126
f 137 113 114
f 139 57 140
f 126 57 139
f 139 39 126
f 113 39 40
f 40 25 113
f 39 86 40
f 59 55 58
f 58 55 54
f 58 40 59
f 25 40 58
f 58 54 113
f 113 25 58
f 109 105 92
f 92 119 109
f 7 115 107
f 107 115 108
f 107 5 7
f 61 5 107
f 107 108 109
f 109 61 107
f 47 48 115
f 47 7 53
f 47 115 7
f 47 53 52
f 52 48 47
f 43 48 52
f 105 48 43
f 134 41 133
f 133 128 51
f 133 26 128
f 41 26 133
f 51 50 133
f 133 50 134
f 94 104 22
f 22 36 94
f 104 131 22
f 24 36 22
f 97 95 68
f 97 37 69
f 68 37 97
f 94 68 2
f 2 95 94
f 68 95 2
f 125 104 94
f 94 95 125
f 125 118 104
f 120 118 125
f 35 66 67
f 67 81 35
f 66 81 67
f 140 72 74
f 59 40 74
f 74 40 140
f 90 33 84
f 33 8 84
f 127 110 91
f 127 111 110
f 32 111 127
f 127 33 32
f 127 8 33
f 83 96 64
f 77 45 76
f 76 96 77
f 77 96 45
f 46 96 89
f 69 46 89
f 89 97 69
f 4 118 3
f 3 118 120
f 3 120 102
f 3 13 4
f 3 102 52
f 52 13 3
f 141 123 120
f 120 125 141
f 39 139 17
f 17 86 39
f 88 122 11
f 88 92 122
f 105 43 42
f 52 41 42
f 42 43 52
f 122 92 42
f 42 92 105
f 134 122 42
f 42 41 134
f 23 22 131
f 23 79 124
f 23 131 79
f 24 22 23
f 124 78 23
f 23 78 24
f 38 98 138
f 38 125 98
f 73 72 52
f 73 74 72
f 52 59 73
f 59 74 73
f 8 127 9
f 9 84 8
f 65 83 64
f 98 83 65
f 65 64 138
f 138 98 65
f 98 125 112
f 112 83 98
f 112 125 95
f 95 97 82
f 97 89 82
f 82 112 95
f 83 112 82
f 96 83 82
f 82 89 96
f 1 38 138
f 125 38 1
f 138 123 1
f 123 141 1
f 140 40 87
f 87 40 86
f 87 139 140
f 119 92 12
f 92 88 12
f 11 119 12
f 12 88 11
f 84 9 85
f 91 90 85
f 90 84 85
f 85 127 91
f 85 9 127
f 136 141 125
f 125 1 136
f 136 1 141
f 86 17 18
f 18 87 86
f 18 17 139
f 139 87 18

