# https://github.com/mikedh/trimesh
v -0.10282346 0.03562831 -0.06651890
v -0.10327089 0.02857893 -0.07409601
v -0.10327282 0.04169198 -0.05424485
v -0.10288350 0.00117942 0.00282624
v -0.10325460 0.01024406 0.00163544
v -0.10315320 -0.01043900 0.00149562
v -0.10318670 -0.03765562 -0.05562608
v -0.10320247 -0.04033782 -0.04107491
v -0.10320280 -0.03868077 -0.02951573
v -0.10320317 -0.03378214 -0.01891576
v -0.10320358 -0.02605259 -0.01016331
v -0.10320402 -0.01613937 -0.00399153
v -0.10321239 0.02971191 -0.01342113
v -0.10320656 0.03739211 -0.02584183
v -0.10320316 0.00847137 -0.08039368
v -0.10320282 -0.00318027 -0.08116848
v -0.10320246 -0.01456547 -0.07857323
v -0.10318784 -0.02719144 -0.07085498
v -0.10306215 -0.04289927 -0.04960838
v 0.13260240 -0.04045823 -0.05779516
v 0.13280116 -0.04363598 -0.04364247
v -0.10316972 -0.04227942 -0.03000896
v 0.13240030 -0.04345631 -0.03571299
v 0.13277333 -0.04117421 -0.02627624
v -0.10312640 -0.03913907 -0.02127421
v 0.13277035 -0.03548976 -0.01540531
v 0.13273278 -0.01217393 0.00112264
v 0.13281243 -0.00135466 0.00275484
v 0.13242448 0.00677818 0.00236446
v 0.13272492 0.01738656 -0.00076371
v -0.10313462 0.03324193 -0.01254551
v 0.13272656 0.02769996 -0.00704089
v 0.13277211 0.03568792 -0.01578941
v -0.10309839 0.04002656 -0.02296998
v 0.13277573 0.04033992 -0.02426079
v -0.10314486 0.04388696 -0.04032681
v 0.13277471 0.04282649 -0.03211699
v 0.13270699 0.04349617 -0.04661619
v 0.13277306 0.03953769 -0.05948809
v 0.13270467 0.03408639 -0.06856431
v 0.13275097 0.02285107 -0.07822704
v -0.10317139 0.01684396 -0.08131350
v 0.13274981 0.01185374 -0.08303731
v -0.10309796 0.00287083 -0.08473695
v 0.13272541 -0.00169747 -0.08473431
v 0.13275785 -0.01196696 -0.08298442
v -0.10316929 -0.01086873 -0.08325738
v -0.10316851 -0.01831088 -0.08066940
v 0.13275006 -0.02300386 -0.07813801
v -0.10301334 -0.03019787 -0.07268281
v 0.13257601 -0.03036071 -0.07211844
v 0.12877549 -0.03028821 -0.07252124
v 0.12703351 -0.03118059 -0.07165874
v -0.09759634 -0.03595502 -0.06566826
v -0.09793749 -0.04013299 -0.05835116
v -0.10317350 -0.04361387 -0.03801005
v -0.10316143 -0.03120462 -0.01036568
v 0.13277085 -0.03020789 -0.00941984
v 0.13272745 -0.02297084 -0.00365784
v -0.10316262 -0.02174416 -0.00305283
v -0.10316739 0.02383114 -0.00433208
v 0.12724133 -0.03589228 -0.06562509
v -0.10297227 -0.03991774 -0.05815360
v 0.13279986 -0.01727604 -0.07760034
v 0.13280224 -0.00318029 -0.08116847
v 0.13280258 0.00847134 -0.08039367
v 0.13280299 0.01941246 -0.07631383
v 0.13280347 0.02872661 -0.06927071
v 0.13280399 0.03563292 -0.05985451
v 0.13280456 0.03955254 -0.04885352
v 0.13280524 0.04015604 -0.03719011
v 0.13280598 0.03739209 -0.02584181
v 0.13281181 0.02971189 -0.01342114
v 0.13280524 0.01790647 -0.00481734
v 0.13280346 -0.01613939 -0.00399151
v 0.13280298 -0.02605261 -0.01016329
v 0.13280257 -0.03378216 -0.01891574
v 0.13280223 -0.03868078 -0.02951571
v 0.13278733 -0.03765681 -0.05562802
f 28 21 65
f 14 36 3
f 76 77 28
f 58 77 76
f 28 27 59
f 78 24 21
f 77 24 78
f 78 21 28
f 28 77 78
f 26 77 58
f 26 24 77
f 28 65 73
f 65 66 73
f 39 1 3
f 40 1 39
f 34 14 31
f 36 14 34
f 13 5 61
f 13 61 31
f 31 14 13
f 3 5 13
f 13 14 3
f 75 76 28
f 58 76 75
f 28 59 75
f 75 59 58
f 21 24 23
f 57 26 58
f 58 59 57
f 40 39 41
f 41 39 68
f 68 73 67
f 67 73 66
f 67 41 68
f 61 5 30
f 3 36 38
f 38 39 3
f 2 5 3
f 3 1 2
f 2 41 42
f 2 1 40
f 40 41 2
f 60 59 27
f 60 57 59
f 21 23 56
f 43 67 66
f 41 67 43
f 43 44 42
f 42 41 43
f 43 66 65
f 50 52 53
f 53 54 50
f 52 51 53
f 49 51 52
f 49 52 50
f 28 73 74
f 74 30 28
f 28 30 29
f 29 30 5
f 29 4 28
f 29 5 4
f 31 61 32
f 61 30 32
f 32 74 73
f 30 74 32
f 68 39 69
f 69 73 68
f 35 73 72
f 73 71 72
f 39 38 37
f 37 38 36
f 35 72 37
f 37 72 71
f 36 34 37
f 37 34 35
f 50 18 48
f 48 49 50
f 46 49 48
f 17 2 16
f 17 48 18
f 15 2 42
f 16 2 15
f 6 60 27
f 28 4 6
f 6 27 28
f 4 5 6
f 5 60 6
f 12 60 5
f 50 54 63
f 24 26 25
f 26 57 25
f 44 43 45
f 65 46 45
f 45 43 65
f 54 53 62
f 62 53 51
f 31 32 33
f 33 34 31
f 35 34 33
f 33 73 35
f 33 32 73
f 70 69 39
f 39 37 70
f 70 37 71
f 70 71 73
f 73 69 70
f 42 44 47
f 46 48 47
f 47 17 16
f 48 17 47
f 47 15 42
f 16 15 47
f 44 45 47
f 47 45 46
f 7 18 50
f 50 63 7
f 55 63 54
f 64 79 49
f 64 46 65
f 64 49 46
f 64 65 21
f 21 79 64
f 11 10 57
f 57 60 11
f 60 12 11
f 11 12 5
f 5 10 11
f 22 25 57
f 57 10 22
f 24 25 22
f 22 23 24
f 22 56 23
f 5 2 8
f 2 17 8
f 8 7 56
f 8 17 18
f 18 7 8
f 56 7 19
f 19 7 63
f 63 55 19
f 21 56 19
f 54 62 20
f 20 55 54
f 20 62 51
f 20 19 55
f 21 19 20
f 20 79 21
f 51 49 20
f 49 79 20
f 9 22 10
f 9 10 5
f 5 8 9
f 56 22 9
f 9 8 56

