# https://github.com/mikedh/trimesh
v 0.04143000 0.06807740 0.09828030
v 0.04078965 0.06450285 0.09204253
v 0.04867580 0.06825949 0.11605786
v 0.06426075 0.11624772 0.13502453
v 0.03915603 0.06040192 0.06306159
v 0.03493545 0.06411117 0.06315144
v 0.03541433 0.07093340 0.06215914
v 0.04005338 0.07329047 0.09376335
v 0.04855715 0.08291782 0.11627095
v 0.05425250 0.09700072 0.12683560
v 0.05275756 0.14750349 0.12304673
v 0.05691883 0.14928809 0.12454175
v 0.05428138 0.15141432 0.12019726
v 0.19257515 0.07057784 0.11013849
v 0.20846531 0.07313989 0.06316226
v 0.19363106 0.07446416 0.11289944
v 0.08114335 0.09066134 0.13423436
v 0.08086368 0.10042480 0.13424893
v 0.20096437 0.07153948 0.06216532
v 0.20860405 0.14313230 0.06315264
v 0.20789024 0.07335428 0.06216653
v 0.20740440 0.14417944 0.06216516
v 0.04246073 0.15395162 0.09063203
v 0.03919408 0.15614110 0.06310325
v 0.03496306 0.15242230 0.06309040
v 0.18471641 0.14118307 0.12212579
v 0.18327863 0.13327587 0.12523277
v 0.18844248 0.13608321 0.12169937
v 0.20156593 0.06385518 0.06315172
v 0.18181525 0.06300126 0.10724462
v 0.19293435 0.06062354 0.06246167
v 0.04114721 0.14972153 0.09692443
v 0.05007938 0.15156159 0.11521323
v 0.04307340 0.06249330 0.09166650
v 0.05220087 0.06443835 0.11720020
v 0.04916430 0.06505245 0.11355493
v 0.04831033 0.14851397 0.11515808
v 0.05610323 0.14046739 0.12974135
v 0.18822685 0.06642871 0.10987881
v 0.20102788 0.06456649 0.06216628
v 0.20163211 0.15155156 0.06216607
v 0.20166223 0.15260838 0.06316429
v 0.03562309 0.15198977 0.06216244
v 0.03936680 0.06118767 0.06216508
v 0.03556985 0.06458097 0.06216338
v 0.05757963 0.14411962 0.12922103
v 0.18481517 0.06627806 0.11321577
v 0.03424946 0.14658648 0.06356335
v 0.19209957 0.07924209 0.11773897
v 0.18860340 0.08238801 0.12180139
v 0.18808130 0.07691113 0.12072294
v 0.17907328 0.07595826 0.12446534
v 0.18356242 0.08245454 0.12499979
v 0.17700870 0.08214896 0.12690286
v 0.05630077 0.06640600 0.12325131
v 0.05240253 0.06816929 0.12192548
v 0.06107028 0.08044075 0.13397628
v 0.06195050 0.08468147 0.13490313
v 0.05823445 0.08436332 0.13311883
v 0.05904245 0.13239660 0.13368936
v 0.06189905 0.13132385 0.13490815
v 0.06190613 0.13669410 0.13397828
v 0.03952021 0.15545073 0.06216688
v 0.19332209 0.15579834 0.06242949
v 0.03695158 0.06558387 0.07962830
v 0.17950926 0.15222108 0.11196559
v 0.05441036 0.15306029 0.11689780
v 0.18172878 0.14884441 0.11721459
v 0.05988508 0.14544607 0.12904396
v 0.18024145 0.14478918 0.12157217
v 0.19411909 0.15407408 0.06216802
v 0.19498953 0.13717861 0.11333752
v 0.19286233 0.14548004 0.11032097
v 0.19222985 0.13937464 0.11688794
v 0.18679644 0.15090663 0.11014436
v 0.05231768 0.12576295 0.12339678
v 0.05555870 0.11145764 0.12902863
v 0.17986098 0.13635464 0.12589471
v 0.06456992 0.09054850 0.13501058
v 0.06447888 0.09254154 0.13501808
v 0.05838313 0.07577525 0.13137286
v 0.18098870 0.07050878 0.12033986
v 0.06050313 0.07386095 0.13102623
v 0.05819587 0.06982754 0.12757076
v 0.03725673 0.15068190 0.08135973
v 0.08089403 0.09251567 0.13424688
v 0.05412513 0.06327692 0.11588848
v 0.18851283 0.14581676 0.11616517
v 0.18806552 0.07167831 0.11749557
v 0.04664681 0.13616037 0.11192476
v 0.06426090 0.10028667 0.13502428
v 0.06456990 0.12598585 0.13501063
v 0.18163749 0.15355018 0.10730252
v 0.03424946 0.06994790 0.06356335
v 0.05460022 0.07232780 0.12686308
v 0.06068578 0.13946540 0.13271688
v 0.19992848 0.06516006 0.06216585
v 0.19298022 0.06231219 0.06216796
v 0.18090796 0.06504369 0.11338931
v 0.20384797 0.07683514 0.08609634
v 0.19519377 0.08031551 0.11315094
v 0.10058223 0.12894477 0.13316879
v 0.10058223 0.08758957 0.13316879
v 0.04005338 0.14324390 0.09376335
v 0.20362246 0.13959681 0.08698202
v 0.19534961 0.14124271 0.10960544
v 0.08114338 0.12587297 0.13423423
v 0.08089403 0.12401869 0.13424688
v 0.08086368 0.11610955 0.13424903
v 0.17763756 0.08605504 0.12728859
v 0.18422330 0.07583121 0.12273109
v 0.17786313 0.14124127 0.12428931
v 0.03541431 0.14560095 0.06215914
v 0.06447840 0.12399294 0.13501876
v 0.17588443 0.13165527 0.12748159
f 25 48 85
f 63 25 24
f 23 85 32
f 24 25 23
f 25 85 23
f 75 42 93
f 94 48 113
f 30 31 29
f 29 31 40
f 105 72 101
f 73 42 75
f 20 42 73
f 73 105 20
f 29 14 39
f 47 30 39
f 39 30 29
f 15 14 29
f 27 115 110
f 27 50 28
f 27 28 26
f 94 6 65
f 6 2 65
f 65 48 94
f 65 85 48
f 24 93 64
f 64 63 24
f 71 63 64
f 64 93 42
f 24 23 67
f 67 93 24
f 66 68 75
f 75 93 66
f 93 67 66
f 12 68 66
f 66 67 12
f 43 63 71
f 25 63 43
f 43 48 25
f 43 113 48
f 94 113 7
f 99 30 47
f 47 82 99
f 44 31 5
f 31 30 5
f 5 2 6
f 98 31 44
f 44 40 98
f 98 40 31
f 22 7 113
f 22 42 20
f 75 68 88
f 88 73 75
f 72 105 106
f 105 73 106
f 14 15 100
f 100 105 101
f 20 105 100
f 100 15 20
f 89 82 47
f 47 39 89
f 89 39 14
f 101 72 49
f 28 50 49
f 55 99 84
f 84 99 82
f 78 27 26
f 115 27 78
f 33 23 32
f 33 67 23
f 85 65 8
f 37 33 32
f 38 37 76
f 45 6 94
f 94 7 45
f 45 7 44
f 44 5 45
f 45 5 6
f 95 3 56
f 56 35 55
f 3 36 56
f 56 36 35
f 55 84 56
f 56 84 95
f 87 5 30
f 55 35 87
f 87 99 55
f 30 99 87
f 41 22 113
f 41 43 71
f 113 43 41
f 71 64 41
f 41 64 42
f 42 22 41
f 7 22 19
f 29 40 21
f 21 15 29
f 21 19 22
f 20 15 21
f 21 22 20
f 53 54 52
f 110 54 53
f 53 27 110
f 50 27 53
f 83 82 52
f 83 84 82
f 52 82 111
f 82 89 111
f 111 53 52
f 74 49 72
f 28 49 74
f 73 88 74
f 26 28 74
f 74 88 26
f 72 106 74
f 74 106 73
f 16 89 14
f 16 49 89
f 101 49 16
f 16 100 101
f 14 100 16
f 12 67 13
f 67 33 13
f 2 36 1
f 1 36 3
f 1 65 2
f 1 8 65
f 32 85 104
f 85 8 104
f 104 1 32
f 8 1 104
f 11 37 38
f 33 37 11
f 11 13 33
f 12 13 11
f 95 59 10
f 2 5 34
f 5 87 34
f 34 36 2
f 35 36 34
f 34 87 35
f 7 19 97
f 97 40 44
f 44 7 97
f 97 21 40
f 19 21 97
f 4 91 114
f 89 49 51
f 51 111 89
f 51 49 50
f 50 53 51
f 53 111 51
f 62 102 115
f 115 78 62
f 38 96 46
f 12 11 46
f 46 11 38
f 90 37 32
f 32 1 90
f 9 10 76
f 9 3 95
f 95 10 9
f 9 1 3
f 9 90 1
f 9 76 37
f 37 90 9
f 77 59 38
f 77 10 59
f 38 76 77
f 76 10 77
f 80 114 91
f 80 58 79
f 91 58 80
f 92 114 107
f 81 59 95
f 95 84 81
f 84 83 81
f 61 91 4
f 61 58 91
f 4 114 61
f 61 114 92
f 102 62 61
f 61 107 102
f 92 107 61
f 52 54 57
f 57 83 52
f 57 81 83
f 57 58 59
f 59 81 57
f 103 54 110
f 103 57 54
f 58 57 103
f 110 115 103
f 115 102 103
f 26 88 70
f 70 88 68
f 114 80 18
f 59 58 60
f 58 61 60
f 38 59 60
f 60 61 62
f 60 96 38
f 60 62 96
f 69 46 96
f 12 46 69
f 69 68 12
f 69 70 68
f 112 62 78
f 96 62 112
f 112 78 26
f 26 70 112
f 112 69 96
f 70 69 112
f 114 18 109
f 17 80 79
f 79 58 17
f 58 103 17
f 102 107 17
f 17 103 102
f 107 109 17
f 17 109 18
f 108 107 114
f 114 109 108
f 108 109 107
f 86 18 80
f 80 17 86
f 86 17 18

