# https://github.com/mikedh/trimesh
v 0.16405070 -0.04336949 0.04621594
v 0.16129615 -0.04462939 0.04426971
v 0.16122947 -0.04332639 0.04688765
v 0.16406227 -0.04410539 0.04876042
v 0.16123910 -0.04472274 0.04920487
v 0.16405268 -0.04745919 0.04914283
v 0.16133170 -0.04789721 0.04883489
v 0.16401917 -0.04869076 0.04586999
v 0.16125510 -0.04864366 0.04605377
v 0.16122572 -0.04738706 0.04445623
v 0.16409584 -0.04654504 0.04412310
v 0.16403295 -0.04465339 0.04435815
v 0.14577672 -0.04486484 0.04610270
v 0.14564575 -0.04619276 0.04551547
v 0.14536457 -0.04540819 0.04753401
v 0.14582797 -0.04693329 0.04806321
v 0.14555142 -0.04716189 0.04654772
v 0.14587899 -0.04752161 0.04644871
v 0.14597505 -0.04645221 0.04520676
v 0.14614937 -0.04453126 0.04717541
v 0.14624137 -0.04592714 0.04833679
v 0.14634340 -0.04766231 0.04684158
v 0.14654822 -0.04471161 0.04576602
v 0.14667487 -0.04480424 0.04777464
v 0.14681154 -0.04748911 0.04724394
v 0.14691175 -0.04715186 0.04567590
v 0.14697633 -0.04550824 0.04519414
v 0.14707705 -0.04449379 0.04647149
v 0.14606450 -0.04478036 0.04575018
v 0.16409622 -0.04500926 0.04567539
v 0.16408834 -0.04745549 0.04660524
f 30 31 11
f 11 31 8
f 4 31 30
f 10 11 8
f 19 11 10
f 30 11 12
f 31 4 6
f 6 7 8
f 8 31 6
f 6 4 5
f 5 4 24
f 24 20 15
f 3 20 24
f 24 4 3
f 3 4 1
f 1 4 30
f 30 12 1
f 7 6 16
f 22 16 18
f 19 14 29
f 29 27 19
f 25 22 7
f 7 16 25
f 25 16 22
f 21 16 6
f 21 6 5
f 21 24 15
f 15 16 21
f 5 24 21
f 22 18 9
f 8 7 9
f 7 22 9
f 9 10 8
f 17 14 19
f 19 18 17
f 15 14 17
f 17 16 15
f 17 18 16
f 15 20 13
f 20 29 13
f 13 14 15
f 13 29 14
f 28 20 3
f 28 29 20
f 27 29 2
f 2 12 11
f 2 1 12
f 2 11 19
f 19 27 2
f 10 9 26
f 26 9 18
f 19 10 26
f 26 18 19
f 23 28 3
f 29 28 23
f 3 1 23
f 1 2 23
f 23 2 29

