# https://github.com/mikedh/trimesh
v 0.07577432 0.19807825 0.04940838
v 0.11160769 0.25861700 0.09296261
v 0.10599079 0.25791724 0.09219238
v 0.09653694 0.25397800 0.09243058
v 0.11842948 0.21557232 0.11568754
v 0.11685479 0.21372765 0.11541286
v 0.11868022 0.21314712 0.11543371
v 0.10897464 0.16636297 0.07857439
v 0.09135779 0.17532140 0.05006869
v 0.08357941 0.18190374 0.05048830
v 0.08345046 0.18385789 0.04929412
v 0.08488314 0.24471396 0.09250466
v 0.08904714 0.24858421 0.09284381
v 0.08755932 0.24940525 0.04930738
v 0.11883478 0.17006114 0.09290974
v 0.10782456 0.17112529 0.09289726
v 0.10357468 0.17043067 0.04931673
v 0.10793304 0.16815329 0.05021820
v 0.09622064 0.17210755 0.05058600
v 0.13050131 0.16643634 0.05823924
v 0.12643869 0.16642286 0.05425116
v 0.11902008 0.16782107 0.04938335
v 0.12996667 0.16636361 0.07521166
v 0.11805004 0.16640292 0.05174593
v 0.11179091 0.16641917 0.05303043
v 0.09349056 0.17871575 0.09330273
v 0.09425756 0.17658485 0.09255036
v 0.07190052 0.21188270 0.04921816
v 0.07539229 0.22845920 0.09237638
v 0.07982974 0.23818792 0.09213878
v 0.12046876 0.16636274 0.06724309
v 0.12627591 0.16636291 0.07398089
v 0.15137034 0.18233968 0.04922605
v 0.13585899 0.17212279 0.04925463
v 0.12989607 0.26079674 0.05023870
v 0.11834409 0.25961025 0.09219353
v 0.16560130 0.21169479 0.05687133
v 0.16541559 0.20892551 0.06387353
v 0.16547994 0.20850847 0.05108203
v 0.12124496 0.16637539 0.05527898
v 0.11242606 0.26184948 0.06390005
v 0.07678074 0.23531760 0.04926949
v 0.07294939 0.22937163 0.05030688
v 0.07774862 0.23973175 0.05030159
v 0.12767544 0.16636295 0.07857439
v 0.16564539 0.21352806 0.05233687
v 0.16561959 0.21697831 0.05744796
v 0.07069122 0.21748718 0.05687132
v 0.07067219 0.21220334 0.05744821
v 0.16565592 0.21691923 0.05334961
v 0.11880307 0.26222325 0.05171045
v 0.11575897 0.26206449 0.05744793
v 0.12115221 0.16662905 0.05162778
v 0.12835981 0.16822654 0.05009631
v 0.08156479 0.18874524 0.09275963
v 0.07775461 0.19495777 0.09227413
v 0.10398439 0.25852125 0.04918304
v 0.08911302 0.25220400 0.05008674
v 0.09645622 0.25700374 0.05039107
v 0.08854179 0.25137749 0.05687714
v 0.12863679 0.17110252 0.09278216
v 0.13779621 0.17418702 0.09245759
v 0.14444476 0.17980113 0.09324324
v 0.15864499 0.23601179 0.04939745
v 0.15227434 0.24588285 0.04925281
v 0.16279499 0.23068149 0.04987441
v 0.11090306 0.16650562 0.08852746
v 0.11511155 0.16672922 0.09032421
v 0.11953121 0.16651617 0.09040599
v 0.10640537 0.16653704 0.05714712
v 0.10402024 0.16661279 0.06200553
v 0.13240304 0.16690529 0.06204278
v 0.12934277 0.25815824 0.09212041
v 0.16107216 0.22069004 0.09327596
v 0.08086119 0.23680263 0.09330711
v 0.07377099 0.22041622 0.09286001
v 0.14645784 0.17967644 0.09219619
v 0.11766449 0.26086898 0.04933777
v 0.11773469 0.26202124 0.04986903
v 0.16128991 0.20132971 0.09019891
v 0.16228216 0.20788300 0.09290941
v 0.15832446 0.19480981 0.09275189
v 0.15865277 0.23956132 0.05031270
v 0.15187404 0.24821515 0.05062436
v 0.11111839 0.16636274 0.07659348
v 0.07301192 0.22841652 0.05717339
v 0.10402051 0.16656762 0.07971993
v 0.07054002 0.21350852 0.05127135
v 0.11581802 0.26210075 0.05334962
v 0.11990840 0.16636274 0.08385259
v 0.14111960 0.25354350 0.04943207
v 0.07346562 0.22418493 0.04939082
v 0.07151834 0.22282422 0.04989265
v 0.07324871 0.21159397 0.09220926
v 0.07498766 0.20222455 0.09275133
v 0.13882489 0.25762749 0.05072973
v 0.14318042 0.25498150 0.04993446
v 0.15359494 0.18693223 0.09242606
v 0.15643294 0.23802974 0.09267121
v 0.16087689 0.22853441 0.09236484
v 0.07077204 0.20852982 0.05095268
v 0.07701149 0.19080097 0.05000389
v 0.16309793 0.21242137 0.09202651
v 0.07087806 0.22025691 0.06387660
v 0.07082074 0.22068466 0.05108436
v 0.16412339 0.20158320 0.05036438
v 0.15915891 0.19054946 0.05011444
v 0.16467739 0.20526297 0.05000706
v 0.11644418 0.16636274 0.06504271
v 0.15251886 0.18166249 0.05050208
v 0.16404302 0.21101949 0.04928002
v 0.12920466 0.25862225 0.04942609
v 0.11211899 0.26191023 0.05108474
v 0.12381206 0.26185923 0.06387661
v 0.12424660 0.26189600 0.05108496
v 0.16535831 0.21993761 0.05002409
v 0.08610321 0.18299030 0.09212611
v 0.16347842 0.22129836 0.04929362
v 0.16550512 0.22059138 0.05108558
v 0.08261124 0.24611612 0.05025235
v 0.11675164 0.16636297 0.08750321
v 0.16266151 0.22064557 0.09216891
v 0.12898026 0.16658264 0.08570901
v 0.16540477 0.22031119 0.06390008
v 0.15089276 0.24528690 0.09252761
v 0.12517161 0.16636274 0.07671809
v 0.12020391 0.16636297 0.08684006
v 0.11936686 0.16636286 0.06463049
v 0.08087696 0.19217430 0.09326711
v 0.07325204 0.19929837 0.04991935
v 0.15878433 0.19318264 0.04936924
v 0.14498399 0.25053423 0.09286024
v 0.14482941 0.17517527 0.05032449
v 0.07089689 0.20884422 0.06389819
v 0.13980184 0.17199649 0.05059230
v 0.10734566 0.16658747 0.08575878
v 0.13227644 0.16658284 0.07971731
v 0.12408041 0.16656117 0.08931594
v 0.14766979 0.25134223 0.05749734
v 0.10519579 0.26053425 0.05072396
v 0.16325999 0.22852345 0.05711535
v 0.12664136 0.25800224 0.09305136
v 0.10625995 0.16636314 0.07609509
v 0.13765162 0.25501025 0.09249929
f 5 2 4
f 142 2 5
f 12 60 120
f 137 62 123
f 129 95 55
f 86 43 104
f 29 43 86
f 29 104 76
f 86 104 29
f 122 81 103
f 5 81 74
f 74 81 122
f 13 12 5
f 5 4 13
f 13 60 12
f 13 4 60
f 3 4 2
f 5 125 132
f 125 84 132
f 2 142 36
f 116 118 66
f 99 125 5
f 22 17 34
f 34 17 11
f 27 16 6
f 6 26 27
f 55 26 6
f 6 129 55
f 95 129 6
f 76 95 6
f 6 29 76
f 55 10 117
f 117 26 55
f 27 26 117
f 102 10 55
f 11 10 102
f 11 17 9
f 9 10 11
f 23 20 137
f 137 123 23
f 133 110 137
f 138 61 69
f 62 61 138
f 138 123 62
f 111 118 116
f 111 65 118
f 80 81 82
f 82 106 80
f 131 106 107
f 107 106 82
f 82 98 107
f 107 98 110
f 94 95 76
f 94 134 95
f 76 104 94
f 94 104 134
f 44 120 42
f 42 43 44
f 88 134 49
f 134 104 49
f 105 104 43
f 5 12 75
f 75 6 5
f 29 6 75
f 122 103 124
f 124 66 141
f 41 3 2
f 2 36 41
f 144 142 5
f 5 132 144
f 60 4 59
f 4 3 59
f 118 65 64
f 64 66 118
f 83 65 84
f 83 64 65
f 66 64 83
f 83 84 125
f 125 99 83
f 122 124 100
f 100 124 141
f 100 74 122
f 141 66 100
f 5 74 100
f 100 99 5
f 66 83 100
f 100 83 99
f 28 34 11
f 7 6 16
f 7 61 62
f 62 63 7
f 5 6 7
f 63 98 7
f 7 98 82
f 7 81 5
f 82 81 7
f 87 136 27
f 143 136 87
f 27 117 87
f 87 117 10
f 10 9 87
f 67 16 27
f 27 136 67
f 67 121 69
f 143 121 67
f 67 136 143
f 55 95 56
f 56 102 55
f 95 134 130
f 130 56 95
f 102 56 130
f 18 17 22
f 20 23 40
f 143 25 40
f 123 138 127
f 69 121 127
f 127 138 69
f 137 20 72
f 72 133 137
f 33 133 34
f 33 111 131
f 110 133 33
f 65 111 33
f 131 107 33
f 33 107 110
f 34 28 33
f 77 63 62
f 77 98 63
f 77 62 137
f 137 110 77
f 110 98 77
f 121 85 90
f 90 127 121
f 8 121 143
f 143 85 8
f 8 85 121
f 39 46 37
f 37 46 50
f 108 39 106
f 108 106 131
f 131 111 108
f 116 39 108
f 108 111 116
f 106 39 38
f 38 80 106
f 81 80 38
f 39 37 38
f 38 103 81
f 38 124 103
f 48 105 88
f 104 105 48
f 88 49 48
f 48 49 104
f 30 75 12
f 29 75 30
f 12 120 30
f 120 44 30
f 43 29 30
f 30 44 43
f 116 66 119
f 66 124 119
f 50 46 119
f 119 39 116
f 119 46 39
f 51 52 114
f 114 41 36
f 114 52 41
f 96 144 132
f 58 120 60
f 60 59 58
f 51 79 113
f 3 41 140
f 140 59 3
f 41 113 140
f 140 113 79
f 22 34 54
f 54 53 22
f 42 28 92
f 93 105 43
f 93 92 28
f 88 105 93
f 93 28 88
f 93 43 42
f 42 92 93
f 69 61 15
f 61 7 15
f 15 7 16
f 68 67 69
f 16 67 68
f 69 15 68
f 68 15 16
f 88 28 101
f 28 130 101
f 101 134 88
f 101 130 134
f 1 28 11
f 1 130 28
f 11 102 1
f 102 130 1
f 71 87 9
f 143 87 71
f 20 40 21
f 21 54 20
f 53 54 21
f 128 40 23
f 45 23 123
f 123 127 45
f 45 90 126
f 127 90 45
f 135 72 20
f 133 72 135
f 20 54 135
f 34 133 135
f 135 54 34
f 47 37 50
f 50 119 47
f 47 119 124
f 124 38 47
f 47 38 37
f 142 144 73
f 73 36 142
f 73 114 36
f 144 96 73
f 139 132 84
f 51 114 115
f 115 79 51
f 65 78 112
f 42 120 14
f 120 58 14
f 41 52 89
f 89 113 41
f 89 52 51
f 51 113 89
f 59 140 57
f 79 78 57
f 57 140 79
f 57 58 59
f 57 14 58
f 57 78 65
f 42 14 57
f 57 28 42
f 65 33 57
f 57 33 28
f 19 71 9
f 19 9 17
f 17 18 19
f 24 40 25
f 24 21 40
f 53 21 24
f 22 53 24
f 24 18 22
f 25 18 24
f 143 40 109
f 40 128 109
f 109 85 143
f 32 128 23
f 23 45 32
f 32 45 126
f 114 73 35
f 35 73 96
f 35 115 114
f 79 115 35
f 35 78 79
f 35 112 78
f 97 96 132
f 132 139 97
f 97 139 84
f 84 65 97
f 97 35 96
f 112 35 97
f 70 19 18
f 71 19 70
f 70 18 25
f 70 25 143
f 143 71 70
f 31 32 126
f 128 32 31
f 31 109 128
f 65 112 91
f 91 97 65
f 112 97 91
f 31 90 85
f 126 90 31
f 85 109 31

