# https://github.com/mikedh/trimesh
v 0.17504065 -0.17698433 -0.04264716
v 0.17548965 -0.17675216 -0.04255286
v 0.17577325 -0.17790209 -0.04299536
v 0.17371294 -0.17805478 -0.04255184
v 0.17385310 -0.17739056 -0.04207911
v 0.17516012 -0.17743621 -0.04317144
v 0.17382245 -0.17705214 -0.04175053
v 0.17576502 -0.17681304 -0.04213063
v 0.17464125 -0.17907616 -0.04293761
v 0.17662619 -0.17825152 -0.04206921
v 0.17436872 -0.17679472 -0.04148186
v 0.17633420 -0.17688979 -0.04079406
v 0.17580066 -0.17701313 -0.04020798
v 0.17666469 -0.17760833 -0.04062259
v 0.17383220 -0.17906818 -0.04199448
v 0.17582659 -0.17959719 -0.04127951
v 0.17404106 -0.17715304 -0.04077006
v 0.17405277 -0.17818776 -0.03970911
v 0.17349191 -0.17851199 -0.04154626
v 0.17418354 -0.17924716 -0.04072654
v 0.17589427 -0.17865246 -0.04268798
v 0.17472609 -0.17977424 -0.04194351
v 0.17517834 -0.17932689 -0.04242689
v 0.17528604 -0.17910083 -0.04002586
v 0.17467107 -0.17825299 -0.03971859
v 0.17636811 -0.17855211 -0.04249869
v 0.17449599 -0.17927043 -0.04030373
v 0.17675725 -0.17840077 -0.04159381
v 0.17576307 -0.17940966 -0.04041969
v 0.17423384 -0.17940742 -0.04123718
v 0.17555484 -0.17961951 -0.04171649
v 0.17509636 -0.17670189 -0.04018284
v 0.17499692 -0.17736324 -0.03987469
v 0.17572527 -0.17671826 -0.04158164
v 0.17668386 -0.17858231 -0.04071363
v 0.17617834 -0.17918984 -0.04036414
v 0.17362557 -0.17791004 -0.04110861
v 0.17583192 -0.17969346 -0.04076829
v 0.17625137 -0.17695409 -0.04130113
v 0.17478175 -0.17673179 -0.04058736
v 0.17699122 -0.17824238 -0.04114413
f 5 7 6
f 13 12 32
f 37 7 19
f 19 18 37
f 17 18 32
f 7 37 17
f 17 37 18
f 20 18 19
f 11 2 7
f 6 7 1
f 1 2 6
f 7 2 1
f 32 12 34
f 34 2 32
f 39 12 41
f 32 18 33
f 33 13 32
f 41 12 14
f 12 13 14
f 13 36 14
f 41 26 10
f 10 39 41
f 41 38 16
f 15 9 22
f 15 20 19
f 3 9 6
f 6 2 3
f 2 10 3
f 3 10 26
f 22 9 23
f 24 18 27
f 18 20 27
f 27 38 24
f 22 38 27
f 7 17 40
f 40 11 7
f 40 17 32
f 32 2 40
f 2 11 40
f 12 39 8
f 8 34 12
f 2 34 8
f 8 10 2
f 39 10 8
f 25 18 24
f 25 33 18
f 24 36 25
f 13 33 25
f 25 36 13
f 24 38 29
f 29 36 24
f 38 36 29
f 41 14 35
f 35 14 36
f 35 38 41
f 35 36 38
f 28 26 41
f 41 16 28
f 28 16 26
f 31 38 22
f 31 16 38
f 22 23 31
f 26 16 31
f 31 23 26
f 30 15 22
f 20 15 30
f 22 27 30
f 30 27 20
f 9 15 4
f 4 5 6
f 6 9 4
f 4 15 19
f 19 7 4
f 7 5 4
f 26 23 21
f 21 23 9
f 21 3 26
f 9 3 21

