# https://github.com/mikedh/trimesh
v -0.08251640 -0.10634207 -0.00581483
v -0.08161383 -0.10559082 -0.00317266
v -0.08331283 -0.10715674 -0.00320618
v -0.08355245 -0.10584954 -0.00337113
v -0.08230075 -0.10748442 -0.00303495
v -0.08153370 -0.10695542 -0.00340248
v -0.08147590 -0.10705592 -0.00294708
v -0.08137795 -0.10568334 -0.00278288
v -0.08268083 -0.10488592 -0.00269028
v -0.08380478 -0.10558639 -0.00259903
v -0.08060090 -0.10416625 0.00704487
v -0.08356431 -0.10374945 0.00704919
v -0.08538201 -0.10615025 0.00704465
v -0.08289261 -0.10930969 0.00703185
v -0.07981968 -0.10723352 0.00704777
v -0.08117618 -0.10669524 -0.00214380
v -0.08209861 -0.10781260 -0.00220785
v -0.08373028 -0.10725212 -0.00239903
v -0.08427273 -0.10596639 0.00704787
v -0.08071186 -0.10668876 0.00705032
v -0.08123900 -0.10717331 -0.00105978
v -0.08128736 -0.10540485 -0.00186786
f 20 14 15
f 13 12 10
f 11 20 15
f 12 20 11
f 15 14 17
f 13 14 19
f 14 20 19
f 19 12 13
f 19 20 12
f 9 10 12
f 1 10 9
f 12 11 9
f 18 17 14
f 18 14 13
f 13 10 18
f 4 10 1
f 1 18 4
f 4 18 10
f 3 18 1
f 17 18 3
f 15 17 21
f 6 17 1
f 22 9 11
f 22 11 15
f 1 17 5
f 5 3 1
f 17 3 5
f 7 21 17
f 17 6 7
f 15 21 7
f 7 16 15
f 7 6 16
f 15 16 8
f 8 22 15
f 16 6 8
f 8 6 1
f 9 22 2
f 22 8 2
f 1 9 2
f 2 8 1

