# https://github.com/mikedh/trimesh
v 0.20225089 0.19248186 0.11101384
v 0.19438121 0.18662449 0.09227354
v 0.20017251 0.19652106 0.10836419
v 0.19802681 0.19777416 0.10427732
v 0.19997311 0.19424206 0.11053389
v 0.19445491 0.18227988 0.09270152
v 0.19348348 0.18153311 0.09305521
v 0.19287571 0.18610878 0.09253599
v 0.19440551 0.17739264 0.09602587
v 0.19535672 0.17755818 0.09545922
v 0.19601761 0.17552344 0.09807542
v 0.19982310 0.17796571 0.10952327
v 0.20186398 0.19285144 0.11210027
v 0.20293314 0.18859453 0.11326874
v 0.20224437 0.18808519 0.11394342
v 0.20296690 0.18383655 0.11337422
v 0.19518029 0.19483448 0.09562927
v 0.19474576 0.19232093 0.09379744
v 0.19330759 0.19057221 0.09345142
v 0.20105196 0.19022374 0.11305949
v 0.20124861 0.18615436 0.11345129
v 0.19625024 0.17545592 0.10127994
v 0.19638679 0.19738406 0.10010004
v 0.19783721 0.19742844 0.10076119
v 0.20012571 0.19700398 0.10631927
v 0.19603301 0.17497141 0.10034801
v 0.19784993 0.17417159 0.10222304
v 0.19845483 0.17478393 0.10608904
v 0.19454024 0.19512382 0.09680689
v 0.19380413 0.19172511 0.09517707
v 0.19371483 0.17972933 0.09525864
v 0.19697733 0.19697481 0.10321424
v 0.20196006 0.18429271 0.11403117
v 0.20155921 0.18109016 0.11322229
v 0.20215450 0.17919679 0.11094452
v 0.19914941 0.17494678 0.10344899
v 0.20147784 0.17757060 0.11071584
v 0.19708586 0.17582068 0.09859456
v 0.20014273 0.17681856 0.10988191
v 0.19392966 0.18930336 0.09255819
v 0.19989239 0.17493546 0.10644767
v 0.19323361 0.18624367 0.09371937
f 40 2 8
f 2 36 38
f 8 42 30
f 23 32 4
f 4 32 5
f 2 40 18
f 16 35 1
f 1 35 36
f 1 36 2
f 2 38 6
f 6 38 10
f 8 2 6
f 26 28 22
f 29 30 32
f 32 23 29
f 29 23 17
f 3 5 13
f 13 1 3
f 3 1 25
f 3 25 4
f 4 5 3
f 31 5 32
f 22 5 31
f 32 30 31
f 31 30 42
f 31 42 8
f 31 26 22
f 20 15 13
f 13 5 20
f 20 22 21
f 20 5 22
f 24 18 17
f 17 23 24
f 2 18 24
f 4 25 24
f 24 23 4
f 24 1 2
f 25 1 24
f 14 15 16
f 16 1 14
f 13 15 14
f 14 1 13
f 36 35 41
f 10 38 11
f 28 26 27
f 36 41 27
f 27 41 28
f 26 11 27
f 27 38 36
f 27 11 38
f 19 18 40
f 30 29 19
f 17 18 19
f 19 29 17
f 19 40 8
f 8 30 19
f 8 6 7
f 7 31 8
f 7 6 10
f 12 34 21
f 21 22 12
f 22 28 12
f 37 41 35
f 37 35 16
f 16 34 37
f 21 34 33
f 33 20 21
f 15 20 33
f 16 15 33
f 33 34 16
f 26 31 9
f 9 11 26
f 10 11 9
f 9 7 10
f 31 7 9
f 34 12 39
f 39 37 34
f 39 12 28
f 28 41 39
f 41 37 39

