# https://github.com/mikedh/trimesh
v 0.19910860 0.20348031 -0.06013879
v 0.19650072 0.19975421 -0.06641388
v 0.17277155 0.17521054 -0.02739254
v 0.16020365 0.18860601 -0.05778216
v 0.16164208 0.19755631 -0.05435869
v 0.17407185 0.18882041 -0.02416924
v 0.16047034 0.17958529 -0.05694498
v 0.21055080 0.19237484 -0.04029778
v 0.20710861 0.19579526 -0.04083151
v 0.20826479 0.18729396 -0.03804623
v 0.20018553 0.18497393 -0.06544913
v 0.20086267 0.18011243 -0.06383194
v 0.17113755 0.18061809 -0.02356881
v 0.16873427 0.17140839 -0.02937079
v 0.20057634 0.20221188 -0.06437815
v 0.20347191 0.20426791 -0.05738755
v 0.21087793 0.18255648 -0.03950801
v 0.20745071 0.17764741 -0.04004673
v 0.20956932 0.17516938 -0.04266731
v 0.20776907 0.18753298 -0.04714816
v 0.20744740 0.18164756 -0.04791403
v 0.20556885 0.17172378 -0.04454276
v 0.20698541 0.16930921 -0.04890523
v 0.16484610 0.16765349 -0.03875771
v 0.20677127 0.19305013 -0.04952401
v 0.19465833 0.19259787 -0.07093285
v 0.16161888 0.16920644 -0.04654889
v 0.20290619 0.17643726 -0.05887784
v 0.17247294 0.16636241 -0.04582299
v 0.17374362 0.16636256 -0.04889894
v 0.17731240 0.16636272 -0.04009786
v 0.17432045 0.16636244 -0.04136279
v 0.19586047 0.16636244 -0.05028498
v 0.19458988 0.16636254 -0.04720908
v 0.19102107 0.16636269 -0.05601014
v 0.19401302 0.16636240 -0.05474521
v 0.20337578 0.16777611 -0.05761974
v 0.20252055 0.16790754 -0.05194904
v 0.19758468 0.19427535 -0.07160060
v 0.20187302 0.20432608 -0.05367790
v 0.20063039 0.19086291 -0.06438690
v 0.20648295 0.20321538 -0.05011831
v 0.20509969 0.20145316 -0.04582496
v 0.20895718 0.19877953 -0.04414511
v 0.17231705 0.19855719 -0.02839009
v 0.16923847 0.20353630 -0.03602891
v 0.16071292 0.19660698 -0.04868966
v 0.16823542 0.20129738 -0.03057511
v 0.17031875 0.19593743 -0.02554559
v 0.15757744 0.18129686 -0.05630576
v 0.16812440 0.17601232 -0.03078006
v 0.16534184 0.20431197 -0.03756081
v 0.16063429 0.17571411 -0.04884176
v 0.16655532 0.20426581 -0.04237104
v 0.15865498 0.19679526 -0.05370438
v 0.16160777 0.20292685 -0.04657569
v 0.20048630 0.17004858 -0.06459551
v 0.19598185 0.17357081 -0.06776578
v 0.19818242 0.17556486 -0.07015750
v 0.19428375 0.18353734 -0.07202654
v 0.15923780 0.17357784 -0.05229731
v 0.15750263 0.18923273 -0.05648644
v 0.17130550 0.18874626 -0.02316329
v 0.19697130 0.18355011 -0.07308146
f 44 43 45
f 7 60 59
f 17 8 10
f 20 8 17
f 44 8 20
f 42 43 44
f 40 52 42
f 52 46 42
f 39 26 62
f 62 55 39
f 61 7 59
f 27 53 61
f 60 7 50
f 7 61 50
f 50 53 62
f 50 61 53
f 59 12 57
f 12 20 21
f 21 20 17
f 48 49 45
f 48 46 52
f 48 45 43
f 43 42 48
f 48 42 46
f 6 49 63
f 8 49 6
f 6 10 8
f 44 45 9
f 45 49 9
f 9 8 44
f 9 49 8
f 62 53 47
f 47 55 62
f 47 56 55
f 52 56 47
f 47 48 52
f 54 52 40
f 54 56 52
f 56 54 1
f 5 56 2
f 55 56 5
f 2 39 5
f 5 39 55
f 44 20 25
f 25 42 44
f 59 60 64
f 64 12 59
f 64 60 26
f 26 39 64
f 4 50 62
f 60 50 4
f 62 26 4
f 26 60 4
f 13 6 63
f 17 10 13
f 10 6 13
f 58 61 59
f 59 57 58
f 17 13 18
f 18 13 3
f 12 21 28
f 28 57 12
f 37 57 28
f 19 21 17
f 17 18 19
f 19 18 3
f 49 48 51
f 48 47 51
f 51 47 53
f 63 49 51
f 51 13 63
f 15 39 2
f 2 56 15
f 56 1 15
f 12 64 11
f 14 19 3
f 22 19 14
f 3 13 14
f 13 51 14
f 22 14 34
f 41 25 20
f 39 15 41
f 41 20 12
f 12 11 41
f 41 64 39
f 41 11 64
f 24 14 51
f 24 53 27
f 24 51 53
f 22 34 23
f 23 19 22
f 21 19 23
f 37 28 23
f 23 28 21
f 35 57 37
f 35 58 57
f 16 41 15
f 40 42 16
f 42 25 16
f 25 41 16
f 16 15 1
f 16 54 40
f 16 1 54
f 37 23 38
f 37 38 33
f 33 23 34
f 33 38 23
f 29 24 27
f 31 34 14
f 14 24 31
f 33 29 36
f 36 35 37
f 37 33 36
f 30 29 27
f 27 61 30
f 35 36 30
f 30 36 29
f 61 58 30
f 58 35 30
f 24 29 32
f 32 31 24
f 34 31 32
f 32 33 34
f 32 29 33

