# https://github.com/mikedh/trimesh
v 0.15840120 -0.17403294 -0.05043699
v 0.16735946 -0.19870344 -0.02880981
v 0.16701894 -0.19542861 -0.02963189
v 0.16771589 -0.17368774 -0.02794934
v 0.16679079 -0.17403294 -0.03018269
v 0.15857214 -0.19848634 -0.05002431
v 0.15960439 -0.19728758 -0.04753219
v 0.16803439 -0.17272168 -0.02718046
v 0.17063757 -0.17523147 -0.02603973
v 0.16802847 -0.16963181 -0.03233869
v 0.16442774 -0.16799198 -0.03588771
v 0.16476247 -0.16758499 -0.04022351
v 0.16175062 -0.16811147 -0.04235078
v 0.16151675 -0.17001503 -0.04805936
v 0.15922552 -0.17068814 -0.04844691
v 0.15945577 -0.17454366 -0.05303504
v 0.15675419 -0.17790428 -0.05441329
v 0.15798617 -0.18243539 -0.05658294
v 0.15608817 -0.18650644 -0.05602111
v 0.15846685 -0.19379437 -0.05542249
v 0.15693206 -0.19504941 -0.05398383
v 0.16174657 -0.20263128 -0.04750454
v 0.16012389 -0.20287683 -0.04627806
v 0.16608072 -0.20423291 -0.03704099
v 0.16378145 -0.20425792 -0.03744799
v 0.16667357 -0.20185034 -0.03046571
v 0.16888227 -0.20106456 -0.03027749
v 0.17014989 -0.19807316 -0.02721709
v 0.16907634 -0.19569129 -0.02466499
v 0.17141872 -0.19300531 -0.02415391
v 0.16998289 -0.18910781 -0.02247634
v 0.17191324 -0.18430574 -0.02296001
v 0.16995632 -0.18202454 -0.02254051
v 0.17609000 -0.17865522 -0.03253703
v 0.16813777 -0.17698189 -0.05171336
v 0.16700450 -0.18212213 -0.05445879
v 0.16684169 -0.18804036 -0.05486011
v 0.16766214 -0.19352319 -0.05285776
v 0.17552472 -0.19524091 -0.03387959
v 0.17670159 -0.19012539 -0.03106311
v 0.17690201 -0.18420176 -0.03058876
v 0.17640454 -0.17544712 -0.04354649
v 0.17564002 -0.18087816 -0.04539234
v 0.17459662 -0.17544712 -0.04791126
v 0.17459557 -0.18083717 -0.04791376
v 0.17744799 -0.18087816 -0.04102754
v 0.17745682 -0.17548834 -0.04100616
v 0.17564002 -0.19662619 -0.04539231
v 0.17459661 -0.19119514 -0.04791126
v 0.17459557 -0.19658517 -0.04791376
v 0.17744799 -0.19662616 -0.04102754
v 0.17745681 -0.19123636 -0.04100616
f 47 12 10
f 47 10 9
f 9 10 8
f 23 22 25
f 41 9 32
f 25 22 24
f 24 22 50
f 42 12 47
f 14 13 12
f 33 31 32
f 32 9 33
f 33 9 8
f 8 10 11
f 12 13 11
f 11 10 12
f 50 22 38
f 22 20 38
f 22 23 21
f 21 20 22
f 23 6 21
f 19 20 21
f 47 41 52
f 52 41 51
f 47 9 34
f 34 41 47
f 9 41 34
f 40 41 32
f 51 41 40
f 48 24 50
f 51 24 48
f 13 14 15
f 16 17 15
f 15 14 16
f 16 14 44
f 44 14 12
f 12 42 44
f 47 46 44
f 44 42 47
f 19 17 18
f 18 20 19
f 18 17 16
f 16 36 18
f 5 11 13
f 13 15 5
f 31 33 5
f 5 3 31
f 7 6 23
f 7 5 19
f 3 5 7
f 19 21 7
f 7 21 6
f 35 36 16
f 16 44 35
f 35 44 36
f 49 48 50
f 20 18 37
f 37 18 36
f 37 38 20
f 50 38 37
f 37 45 50
f 44 45 37
f 36 44 37
f 4 33 8
f 4 5 33
f 8 11 4
f 11 5 4
f 19 5 1
f 1 5 15
f 1 17 19
f 1 15 17
f 51 40 39
f 39 28 51
f 32 31 30
f 30 40 32
f 30 39 40
f 28 39 30
f 25 24 26
f 26 23 25
f 26 7 23
f 3 7 26
f 43 49 44
f 48 49 43
f 43 44 46
f 43 46 51
f 51 48 43
f 29 30 31
f 28 30 29
f 29 26 28
f 31 3 2
f 3 26 2
f 2 29 31
f 26 29 2
f 27 24 51
f 27 26 24
f 51 28 27
f 28 26 27
f 51 46 52
f 52 46 47
f 49 45 44
f 50 45 49

