# https://github.com/mikedh/trimesh
v -0.11494269 -0.16760989 0.06687948
v -0.11634109 -0.16673629 0.06893003
v -0.11629306 -0.16762377 0.06905925
v -0.11901499 -0.16762474 0.06895176
v -0.11891512 -0.16673219 0.06879406
v -0.12016221 -0.16760311 0.06660764
v -0.12001014 -0.16672299 0.06663195
v -0.11872224 -0.16673219 0.06457852
v -0.11870604 -0.16763367 0.06436610
v -0.11610049 -0.16763232 0.06451044
v -0.11629782 -0.16672591 0.06462302
v -0.11508479 -0.16673219 0.06672429
v -0.11788286 -0.16840299 0.06437758
v -0.11973747 -0.16843036 0.06576067
v -0.11905969 -0.16876375 0.06898155
v -0.12016761 -0.16874949 0.06663801
v -0.11872567 -0.16876026 0.06439733
v -0.11606524 -0.16876915 0.06449347
v -0.11483697 -0.16875596 0.06689947
v -0.11546459 -0.16956731 0.06564301
v -0.11787926 -0.16951642 0.06437907
v -0.11631006 -0.16878599 0.06917811
v -0.11905746 -0.16990864 0.06898857
v -0.12021432 -0.16990099 0.06649880
v -0.11872004 -0.16988164 0.06440256
v -0.11606969 -0.16992635 0.06446780
v -0.11794351 -0.17056354 0.06440127
v -0.11955551 -0.17077796 0.06552399
v -0.11759629 -0.17063869 0.06912057
v -0.11483763 -0.17102966 0.06683908
v -0.11633765 -0.17096564 0.06902128
v -0.11870784 -0.17096194 0.06442406
v -0.11560681 -0.17173759 0.06812493
v -0.11556754 -0.17197849 0.06546451
v -0.11606654 -0.17102267 0.06447966
v -0.11779724 -0.17196267 0.06442765
v -0.11941909 -0.17191021 0.06535325
v -0.12022640 -0.17097014 0.06659245
v -0.11980207 -0.17192940 0.06731698
v -0.11712594 -0.17193195 0.06906311
v -0.11524582 -0.17211174 0.06740797
v -0.11873041 -0.17211174 0.06888219
v -0.11897789 -0.17132937 0.06891325
v -0.11772902 -0.17207249 0.06522203
v -0.11607319 -0.17210759 0.06605127
v -0.11885656 -0.17202282 0.06591764
v -0.11851379 -0.16644741 0.06792851
v -0.11908697 -0.16648589 0.06643033
v -0.11622078 -0.16659261 0.06691927
v -0.11632749 -0.16659057 0.06595867
v -0.11794782 -0.16653202 0.06530763
f 39 23 38
f 2 1 12
f 12 1 19
f 5 2 47
f 47 7 5
f 37 39 38
f 37 32 36
f 37 25 32
f 42 41 40
f 40 41 33
f 21 25 9
f 9 11 10
f 11 12 10
f 10 12 19
f 48 7 47
f 47 51 48
f 8 11 9
f 8 51 11
f 8 6 7
f 7 48 8
f 8 48 51
f 9 14 8
f 14 6 8
f 16 6 38
f 47 2 49
f 2 12 49
f 29 42 40
f 2 5 4
f 7 6 4
f 4 5 7
f 24 37 38
f 38 6 24
f 24 6 14
f 9 25 17
f 25 37 17
f 23 39 43
f 39 42 43
f 43 29 23
f 42 29 43
f 44 37 36
f 22 33 19
f 22 29 40
f 36 32 27
f 27 21 36
f 32 25 27
f 25 21 27
f 9 10 13
f 13 10 26
f 13 21 9
f 26 21 13
f 18 10 19
f 26 10 18
f 35 34 36
f 36 21 35
f 35 21 26
f 30 35 26
f 34 35 30
f 41 34 30
f 19 33 30
f 30 33 41
f 50 51 47
f 47 49 50
f 11 51 50
f 50 12 11
f 50 49 12
f 23 29 15
f 15 4 6
f 6 16 15
f 29 22 15
f 15 22 4
f 38 23 15
f 15 16 38
f 28 17 37
f 28 24 14
f 37 24 28
f 28 14 9
f 9 17 28
f 45 34 41
f 41 42 45
f 42 44 45
f 36 34 45
f 45 44 36
f 37 44 46
f 46 44 42
f 39 37 46
f 46 42 39
f 40 33 31
f 31 22 40
f 33 22 31
f 2 4 3
f 4 22 3
f 3 22 19
f 19 1 3
f 3 1 2
f 20 18 19
f 19 30 20
f 26 18 20
f 20 30 26

