# https://github.com/mikedh/trimesh
v -0.15574145 0.05142416 0.04608828
v -0.16256179 0.05176366 0.04639321
v -0.16699413 -0.04525086 0.04823233
v -0.16698921 -0.04729919 0.04794229
v -0.16701137 0.04677036 0.04824598
v -0.16699575 -0.05265936 0.04135304
v -0.15569071 -0.05217654 0.04135307
v -0.15568966 -0.05069609 0.04260918
v -0.15569693 -0.05126264 0.04433137
v -0.16699413 -0.05166476 0.04452861
v -0.15570096 -0.05316854 0.04452492
v -0.16698343 -0.05357271 0.04432799
v -0.15571172 -0.05417049 0.04249777
v -0.16698415 -0.05413136 0.04260797
v -0.15569070 0.05266716 0.04136049
v -0.16696502 0.05417279 0.04250690
v -0.15569337 0.05414499 0.04261631
v -0.15572947 0.05357583 0.04432166
v -0.16700666 0.05318317 0.04454125
v -0.15567507 0.05166606 0.04454308
v -0.16696870 0.00060582 0.01103556
v -0.15571399 0.00105460 0.01126184
v -0.15567507 -0.00075355 0.01427369
v -0.15571632 -0.00174406 0.01223644
v -0.16700165 -0.00148858 0.01196779
v -0.16549939 0.03113836 0.02662292
v -0.16548410 -0.02483039 0.02296849
v -0.15574930 -0.05153541 0.04608187
v -0.15576786 -0.05322609 0.03993160
v -0.15575608 -0.05557942 0.04373889
v -0.15575607 -0.00219373 0.01038171
v -0.15576785 0.00228015 0.01051609
v -0.16692193 -0.05331566 0.03986195
v -0.16690875 -0.05550989 0.04396301
v -0.16688578 0.00230930 0.01039596
v -0.16695892 -0.00232194 0.01053571
v -0.16274595 0.04510161 0.04978693
v -0.16691185 0.04504904 0.04983676
v -0.16274595 -0.04509511 0.04978058
v -0.16697255 -0.04517091 0.04979115
v -0.16272362 0.02839041 0.02477675
v -0.16276268 -0.02643516 0.02382481
v -0.16259657 -0.05095241 0.04659489
v -0.15575122 0.05338614 0.03993896
v -0.15577615 0.05551204 0.04387930
v -0.16692684 0.05561026 0.04383541
v -0.16690054 0.05316014 0.03988082
f 30 33 29
f 47 46 44
f 31 29 42
f 42 29 33
f 7 29 31
f 1 28 20
f 1 37 39
f 39 28 1
f 5 40 38
f 38 46 5
f 39 37 38
f 38 40 39
f 34 33 30
f 20 23 15
f 5 46 19
f 19 25 5
f 31 42 36
f 24 7 31
f 23 7 24
f 30 29 13
f 29 7 13
f 8 23 20
f 8 7 23
f 37 1 2
f 2 38 37
f 46 38 2
f 45 44 46
f 46 2 45
f 45 2 1
f 30 28 43
f 43 34 30
f 40 34 43
f 43 28 39
f 39 40 43
f 47 44 41
f 44 32 41
f 22 32 44
f 44 15 22
f 22 15 23
f 23 24 22
f 31 32 22
f 22 24 31
f 3 40 5
f 16 46 47
f 16 19 46
f 27 42 33
f 33 36 27
f 27 36 42
f 11 13 7
f 7 8 11
f 11 28 30
f 30 13 11
f 20 28 11
f 18 1 20
f 20 45 18
f 18 45 1
f 17 15 44
f 44 45 17
f 20 15 17
f 17 45 20
f 47 41 26
f 40 3 4
f 9 8 20
f 20 11 9
f 9 11 8
f 35 41 32
f 35 26 41
f 35 32 31
f 31 36 35
f 47 26 35
f 5 25 6
f 6 3 5
f 6 36 33
f 25 36 6
f 21 16 47
f 47 35 21
f 25 19 21
f 19 16 21
f 21 36 25
f 21 35 36
f 10 4 3
f 3 6 10
f 4 10 12
f 12 34 40
f 40 4 12
f 12 10 6
f 34 12 14
f 14 12 6
f 33 34 14
f 14 6 33

