# https://github.com/mikedh/trimesh
v 0.21003200 0.19964826 -0.04697483
v 0.21314384 0.19971323 -0.04788411
v 0.20921592 0.19864596 -0.04900836
v 0.21069044 0.19907633 -0.04533656
v 0.21387976 0.19854336 -0.04617391
v 0.20510451 0.19688231 -0.04621421
v 0.20535933 0.19598133 -0.04508159
v 0.20516645 0.19775931 -0.04595988
v 0.21365031 0.19480698 -0.04673606
v 0.21404020 0.19646960 -0.04566143
v 0.21076666 0.19486029 -0.04531283
v 0.20580784 0.19818919 -0.04487008
v 0.20642709 0.19809718 -0.04422141
v 0.20583772 0.19850606 -0.04547896
v 0.20628747 0.19548309 -0.04503721
v 0.20622491 0.19632985 -0.04414856
v 0.20527674 0.19748886 -0.04654836
v 0.20573191 0.19748694 -0.04413826
v 0.20547186 0.19555339 -0.04588258
v 0.20664703 0.19649751 -0.04388676
v 0.21108965 0.19706660 -0.04442281
v 0.21204633 0.19824781 -0.05047969
v 0.20909239 0.19557758 -0.04910916
v 0.21359702 0.19757193 -0.04696723
v 0.21313590 0.19839878 -0.04805976
v 0.21213991 0.19593781 -0.05040038
v 0.21271132 0.19440223 -0.04893881
v 0.20995990 0.19435460 -0.04709876
v 0.21267272 0.19788148 -0.04918683
v 0.21352199 0.19608198 -0.04716133
v 0.21298438 0.19557386 -0.04846511
f 2 22 3
f 23 3 22
f 2 3 1
f 1 4 2
f 13 4 1
f 26 23 22
f 27 23 26
f 9 30 10
f 10 11 9
f 2 4 5
f 10 30 5
f 3 23 17
f 17 23 6
f 6 23 19
f 21 4 13
f 13 20 21
f 10 5 21
f 21 5 4
f 21 11 10
f 21 20 11
f 18 20 13
f 27 26 31
f 31 9 27
f 30 9 31
f 13 1 14
f 14 1 3
f 3 17 14
f 28 23 27
f 28 19 23
f 27 9 28
f 28 9 11
f 11 20 15
f 15 28 11
f 19 28 15
f 29 31 26
f 29 22 2
f 29 26 22
f 12 18 13
f 13 14 12
f 20 18 16
f 16 15 20
f 30 31 24
f 31 29 24
f 24 5 30
f 8 14 17
f 8 12 14
f 8 17 6
f 18 12 8
f 19 15 7
f 15 16 7
f 7 16 18
f 6 19 7
f 7 8 6
f 18 8 7
f 25 29 2
f 25 24 29
f 2 5 25
f 5 24 25

