# https://github.com/mikedh/trimesh
v 0.09795545 -0.17017280 -0.09145362
v 0.09772180 -0.16653121 -0.09141174
v 0.09447618 -0.17019076 -0.09316257
v 0.09439610 -0.16648518 -0.09327564
v 0.09470575 -0.17019198 -0.09706857
v 0.09435375 -0.16641378 -0.09613882
v 0.09661800 -0.16647680 -0.09834736
v 0.09806627 -0.17013448 -0.09839299
v 0.10005670 -0.16653336 -0.09733169
v 0.10016075 -0.17021509 -0.09703084
v 0.10088830 -0.17019169 -0.09397099
v 0.10089457 -0.16646326 -0.09486424
v 0.10012152 -0.16641530 -0.09280827
v 0.09890567 -0.14860011 -0.09454444
v 0.09802987 -0.14883920 -0.09644817
v 0.09672480 -0.14859769 -0.09616192
v 0.09898610 -0.14892889 -0.09540321
v 0.09875248 -0.14900163 -0.09393411
v 0.09645230 -0.14894691 -0.09330207
v 0.09557488 -0.14907955 -0.09506944
v 0.09653230 -0.14914260 -0.09677504
v 0.09892867 -0.14919996 -0.09656032
v 0.09944290 -0.14935629 -0.09420206
v 0.09743452 -0.14948661 -0.09277381
v 0.09553577 -0.14965098 -0.09431699
v 0.09608625 -0.14977923 -0.09652544
v 0.09851883 -0.14990836 -0.09677279
v 0.09952632 -0.14995856 -0.09522324
v 0.09901213 -0.15007579 -0.09349634
v 0.09599933 -0.15024311 -0.09353062
v 0.09546690 -0.15035884 -0.09540732
v 0.09692828 -0.15047443 -0.09695307
v 0.09838285 -0.15084848 -0.09310932
v 0.09651515 -0.15093743 -0.09309979
v 0.09539665 -0.15103983 -0.09522637
v 0.09785870 -0.15261673 -0.09708694
v 0.09627137 -0.17024663 -0.09383372
v 0.09770772 -0.17021858 -0.09323437
v 0.09874670 -0.17025716 -0.09607334
v 0.09739697 -0.17024366 -0.09668877
f 5 7 8
f 8 22 9
f 27 22 8
f 2 4 3
f 6 5 3
f 3 4 6
f 8 9 10
f 11 39 10
f 12 11 10
f 10 9 12
f 8 7 36
f 36 27 8
f 21 15 22
f 22 27 21
f 16 15 21
f 21 20 16
f 13 29 2
f 12 9 28
f 28 9 22
f 2 3 1
f 1 13 2
f 11 13 1
f 40 10 39
f 40 5 8
f 8 10 40
f 35 20 31
f 35 31 6
f 6 4 35
f 27 36 32
f 32 21 27
f 32 36 7
f 7 21 32
f 7 5 26
f 26 21 7
f 26 5 6
f 6 31 26
f 31 20 26
f 20 21 26
f 2 29 33
f 33 24 2
f 29 24 33
f 34 4 2
f 2 24 34
f 25 4 30
f 25 35 4
f 20 35 25
f 37 1 3
f 37 40 39
f 37 3 5
f 5 40 37
f 19 34 24
f 19 25 30
f 30 4 19
f 4 34 19
f 20 25 19
f 16 20 19
f 18 24 29
f 11 1 38
f 1 37 38
f 38 39 11
f 38 37 39
f 23 18 29
f 23 28 22
f 29 13 23
f 12 28 23
f 23 13 11
f 23 11 12
f 18 23 14
f 22 15 14
f 14 15 16
f 16 19 14
f 14 19 24
f 24 18 14
f 17 23 22
f 22 14 17
f 17 14 23

