# https://github.com/mikedh/trimesh
v 0.06207574 -0.00234431 -0.10953255
v 0.06301021 -0.00258898 -0.10921982
v 0.06268106 -0.00111043 -0.09169732
v 0.06125901 -0.00186079 -0.09262867
v 0.06125281 -0.00138875 -0.09185562
v 0.06024866 -0.00053822 -0.09202793
v 0.05970084 -0.00010662 -0.09289039
v 0.06176939 0.00195225 -0.09322029
v 0.06368278 0.00022271 -0.09332782
v 0.06283021 0.00060478 -0.09169985
v 0.06154286 0.00411530 -0.10762907
v 0.06009019 0.00258656 -0.10921645
v 0.05950336 0.00356385 -0.10743662
v 0.06121724 0.00258847 -0.10953309
v 0.06323671 0.00125722 -0.10978780
v 0.06198779 0.00105453 -0.11010555
v 0.06389148 0.00334467 -0.10792019
v 0.06506194 0.00211566 -0.10767762
v 0.06485874 0.00067205 -0.10882665
v 0.06556181 0.00044527 -0.10741942
v 0.06543934 -0.00122760 -0.10743072
v 0.06439141 -0.00182794 -0.10880407
v 0.06479049 -0.00250221 -0.10766692
v 0.06128099 -0.00315383 -0.10900752
v 0.06156106 -0.00411623 -0.10762864
v 0.06324499 -0.00368491 -0.10740977
v 0.05921191 -0.00334576 -0.10792022
v 0.05791894 -0.00192481 -0.10744120
v 0.05824469 -0.00067313 -0.10882670
v 0.05746624 -0.00002606 -0.10761634
v 0.05871198 0.00182690 -0.10880407
v 0.05790293 0.00185772 -0.10745042
v 0.05986976 -0.00126811 -0.10978312
v 0.05920831 -0.00052405 -0.10953245
v 0.06044744 0.00049478 -0.11015212
v 0.06111511 -0.00105558 -0.11010637
v 0.06265599 -0.00049584 -0.11015215
v 0.06389508 0.00052297 -0.10953245
v 0.06070238 0.00123008 -0.09170234
v 0.06199146 -0.00210188 -0.09369539
v 0.06042181 -0.00181601 -0.09382155
v 0.05953514 -0.00079304 -0.09398867
v 0.05951918 0.00078271 -0.09410889
v 0.06061949 0.00197577 -0.09432517
v 0.06255276 0.00200057 -0.09449177
v 0.06311911 -0.00145774 -0.09352747
v 0.06359444 -0.00075879 -0.09483089
f 25 41 27
f 20 21 19
f 28 27 41
f 45 17 11
f 14 11 17
f 4 40 3
f 4 41 25
f 25 40 4
f 3 40 46
f 29 28 30
f 27 28 29
f 3 46 9
f 9 21 20
f 20 19 18
f 18 19 17
f 18 9 20
f 18 17 45
f 45 9 18
f 21 46 23
f 25 27 24
f 24 2 25
f 30 28 42
f 42 28 41
f 44 11 13
f 37 35 16
f 35 14 16
f 31 32 13
f 30 32 31
f 31 29 30
f 3 39 5
f 5 4 3
f 41 4 5
f 10 39 3
f 3 9 10
f 10 9 45
f 47 46 21
f 21 9 47
f 47 9 46
f 22 23 2
f 22 2 37
f 22 19 21
f 21 23 22
f 26 46 40
f 26 23 46
f 26 40 25
f 25 2 26
f 2 23 26
f 27 29 33
f 33 24 27
f 37 2 1
f 2 24 1
f 43 32 30
f 39 44 43
f 13 32 43
f 43 44 13
f 38 22 37
f 19 22 38
f 15 14 17
f 15 16 14
f 17 19 15
f 19 38 15
f 37 16 15
f 15 38 37
f 12 14 35
f 35 31 12
f 12 31 13
f 13 11 12
f 11 14 12
f 6 5 39
f 6 42 41
f 41 5 6
f 8 10 45
f 39 10 8
f 8 44 39
f 45 11 8
f 11 44 8
f 35 33 34
f 34 33 29
f 34 31 35
f 29 31 34
f 37 1 36
f 36 35 37
f 36 33 35
f 24 33 36
f 36 1 24
f 39 43 7
f 7 6 39
f 42 6 7
f 30 42 7
f 7 43 30

