# https://github.com/mikedh/trimesh
v -0.07003794 -0.21637247 0.05497191
v -0.08290064 -0.21458056 0.05529104
v -0.08016064 -0.21563430 0.05490948
v -0.08025849 -0.21561878 0.05583986
v -0.08048829 -0.21438730 0.05643325
v -0.08014799 -0.21353729 0.05587125
v -0.08002622 -0.21441491 0.05653304
v -0.07985271 -0.21572821 0.05594432
v -0.07972301 -0.21563514 0.05429669
v -0.07969522 -0.21476100 0.05381138
v -0.08032409 -0.21368718 0.05459203
v -0.08047284 -0.21473062 0.05417359
v -0.07004094 -0.21732159 0.05623453
v -0.07003662 -0.21657939 0.05333544
v -0.07004116 -0.21366759 0.05256803
v -0.07005527 -0.21192935 0.05496339
v -0.07006189 -0.21363500 0.05819112
v -0.07922962 -0.21476391 0.05666486
v -0.07929366 -0.21337972 0.05623702
v -0.07948482 -0.21327706 0.05451482
v -0.07003794 -0.21492443 0.05708461
v -0.07003794 -0.21281174 0.05563665
v -0.07880872 -0.21582184 0.05442239
v -0.07895434 -0.21591468 0.05607045
f 19 17 16
f 18 13 17
f 16 17 22
f 22 15 16
f 14 15 22
f 16 15 20
f 20 19 16
f 17 19 5
f 5 19 2
f 13 18 24
f 14 22 21
f 17 13 21
f 21 22 17
f 2 19 6
f 6 20 2
f 19 20 6
f 9 3 2
f 2 20 11
f 10 20 15
f 10 15 14
f 10 11 20
f 14 9 10
f 2 11 10
f 7 18 17
f 17 5 7
f 7 5 18
f 2 3 4
f 4 5 2
f 1 13 14
f 14 21 1
f 1 21 13
f 14 13 23
f 23 9 14
f 3 9 23
f 13 24 23
f 23 24 3
f 12 9 2
f 2 10 12
f 12 10 9
f 3 24 8
f 8 4 3
f 8 24 18
f 18 5 8
f 5 4 8

