# https://github.com/mikedh/trimesh
v -0.11924106 -0.16636422 0.05462336
v -0.11754833 -0.17922934 0.05532164
v -0.11868559 -0.17691462 0.05554810
v -0.11811731 -0.17658716 0.05429434
v -0.11676186 -0.17681704 0.05447122
v -0.11636417 -0.17646804 0.05536488
v -0.11673042 -0.17635495 0.05437246
v -0.11815184 -0.17618141 0.05414704
v -0.11897504 -0.17605169 0.05557733
v -0.11850934 -0.17602319 0.05646189
v -0.11737103 -0.17668464 0.05649242
v -0.11932701 -0.16636964 0.05303256
v -0.12029134 -0.16636534 0.05586554
v -0.11827341 -0.16636989 0.05810060
v -0.11549014 -0.16638327 0.05703093
v -0.11517051 -0.16639059 0.05341102
v -0.11606789 -0.17565705 0.05543887
v -0.11652887 -0.17548374 0.05425052
v -0.11688169 -0.17581354 0.05668443
v -0.11587851 -0.16636664 0.05599975
v -0.11686987 -0.16636422 0.05361395
v -0.11865358 -0.17420037 0.05427318
v -0.11710529 -0.17443234 0.05386455
v -0.11634706 -0.17469944 0.05620727
v -0.11906264 -0.17513741 0.05536992
v -0.11806874 -0.17532091 0.05382247
f 10 14 13
f 9 10 13
f 26 12 16
f 16 12 21
f 16 15 17
f 14 10 11
f 11 10 2
f 16 17 18
f 4 26 2
f 1 12 13
f 1 21 12
f 14 15 20
f 13 14 20
f 20 15 16
f 16 21 20
f 20 1 13
f 21 1 20
f 24 17 15
f 19 11 2
f 17 24 19
f 19 24 15
f 19 15 14
f 14 11 19
f 23 26 16
f 16 18 23
f 2 26 5
f 5 18 17
f 3 4 2
f 9 4 3
f 2 10 3
f 10 9 3
f 13 12 25
f 25 9 13
f 22 25 12
f 2 5 6
f 6 5 17
f 6 19 2
f 17 19 6
f 26 23 7
f 7 5 26
f 7 23 18
f 18 5 7
f 26 4 8
f 12 26 8
f 8 22 12
f 8 4 9
f 9 25 8
f 25 22 8

