# https://github.com/mikedh/trimesh
v 0.14450369 0.04101309 -0.04371189
v 0.14430124 0.03867339 -0.04290026
v 0.14428048 0.04259289 -0.04284184
v 0.14690681 0.04101311 -0.03820226
v 0.14710509 0.03867264 -0.03901149
v 0.14712836 0.04259296 -0.03907094
v 0.14709871 0.03983714 -0.04351086
v 0.14708563 0.04218396 -0.04323807
v 0.14713476 0.04324164 -0.04136106
v 0.14427273 0.04323991 -0.04055396
v 0.14431841 0.04218381 -0.03867974
v 0.14431176 0.03983714 -0.03840326
v 0.14430481 0.03803316 -0.04002689
v 0.14710119 0.03803061 -0.04188709
v 0.13260222 0.04003452 -0.03989154
v 0.13271771 0.04165092 -0.03970104
v 0.13238254 0.03959754 -0.04095294
v 0.13269286 0.03942101 -0.04128459
v 0.13264419 0.04185982 -0.04188299
v 0.13279506 0.04122051 -0.04206019
v 0.13286456 0.03986249 -0.03959886
v 0.13279128 0.04026697 -0.04211029
v 0.13293868 0.03905879 -0.04102676
v 0.13302226 0.03985162 -0.04229514
v 0.13309449 0.04146822 -0.04230139
v 0.13323358 0.04216819 -0.04054614
v 0.13331983 0.04081229 -0.03939479
v 0.13339199 0.03933664 -0.04007469
v 0.13346696 0.03921451 -0.04160386
v 0.13356998 0.04050362 -0.04253104
v 0.13416151 0.04215326 -0.04117286
v 0.13437039 0.03956774 -0.03969161
v 0.14715244 0.04128824 -0.04223749
v 0.14715948 0.04005429 -0.03959981
v 0.14714408 0.03919236 -0.04088306
v 0.14714179 0.03977189 -0.04212276
f 34 5 35
f 35 5 14
f 14 2 7
f 7 2 1
f 34 9 6
f 6 5 34
f 14 5 13
f 1 25 3
f 29 2 14
f 33 9 34
f 4 6 11
f 5 6 4
f 32 13 5
f 5 21 32
f 8 7 1
f 1 3 8
f 8 3 9
f 9 33 8
f 8 33 7
f 10 6 9
f 9 3 10
f 11 6 10
f 11 10 16
f 16 10 26
f 14 13 23
f 23 29 14
f 23 21 17
f 1 2 24
f 2 29 24
f 29 23 24
f 7 33 36
f 36 35 14
f 14 7 36
f 34 35 36
f 36 33 34
f 12 21 5
f 5 4 12
f 19 10 3
f 19 3 25
f 19 16 26
f 17 16 19
f 17 21 15
f 15 16 17
f 21 16 15
f 28 32 21
f 21 23 28
f 13 32 28
f 28 23 13
f 30 25 1
f 1 24 30
f 30 24 25
f 18 23 17
f 17 24 18
f 18 24 23
f 27 12 4
f 27 4 11
f 11 16 27
f 27 16 21
f 21 12 27
f 26 10 31
f 31 19 26
f 10 19 31
f 25 24 22
f 22 24 17
f 17 19 22
f 20 19 25
f 25 22 20
f 20 22 19

