# https://github.com/mikedh/trimesh
v 0.11912214 -0.04447146 0.07111209
v 0.11891634 -0.04612583 0.07061192
v 0.11892514 -0.04357939 0.07293759
v 0.11912210 -0.04592631 0.07608306
v 0.11891827 -0.04420418 0.07498271
v 0.11890989 -0.04727896 0.07577621
v 0.12155519 -0.04657048 0.07049779
v 0.12176569 -0.04521871 0.07080304
v 0.12175724 -0.04829323 0.07159720
v 0.12170255 -0.04695248 0.07601343
v 0.11893737 -0.04883686 0.07404341
v 0.12173322 -0.04893209 0.07376811
v 0.11894407 -0.04838361 0.07160549
v 0.12173769 -0.04365888 0.07253688
v 0.12172852 -0.04411161 0.07497726
v 0.11123777 -0.04509656 0.07301248
v 0.11110732 -0.04565843 0.07230244
v 0.11123388 -0.04534908 0.07405699
v 0.11137374 -0.04643856 0.07452523
v 0.11096867 -0.04708701 0.07388791
v 0.11136477 -0.04777591 0.07285761
v 0.11127662 -0.04671681 0.07184494
v 0.11141760 -0.04534506 0.07202768
v 0.11150264 -0.04472868 0.07313500
v 0.11155580 -0.04509423 0.07432033
v 0.11163672 -0.04643923 0.07483116
v 0.11171449 -0.04769498 0.07389638
v 0.11180620 -0.04749828 0.07236702
v 0.11187415 -0.04598581 0.07173762
v 0.11200442 -0.04460596 0.07321768
v 0.11208745 -0.04571218 0.07475614
v 0.11217439 -0.04721873 0.07452481
v 0.11234729 -0.04656706 0.07166337
v 0.11245290 -0.04482853 0.07263862
v 0.12175710 -0.04673971 0.07459361
v 0.12175710 -0.04536546 0.07436751
v 0.12175710 -0.04487418 0.07306426
v 0.12176257 -0.04705226 0.07208686
v 0.12175710 -0.04762266 0.07351659
f 12 13 9
f 4 6 10
f 10 15 4
f 35 15 10
f 12 35 10
f 26 6 4
f 4 31 26
f 20 27 26
f 36 35 8
f 36 15 35
f 36 14 15
f 11 13 12
f 12 10 11
f 11 10 6
f 8 9 7
f 7 9 13
f 8 35 38
f 38 9 8
f 39 35 12
f 12 9 39
f 39 38 35
f 9 38 39
f 4 15 5
f 6 26 32
f 32 26 27
f 32 11 6
f 27 11 32
f 19 18 20
f 20 26 19
f 19 26 18
f 8 14 37
f 37 36 8
f 14 36 37
f 20 18 17
f 17 22 20
f 23 22 17
f 1 14 8
f 25 26 31
f 18 26 25
f 25 31 4
f 4 5 25
f 25 5 30
f 30 24 25
f 25 24 18
f 15 14 3
f 3 5 15
f 30 5 3
f 14 1 3
f 3 24 30
f 3 1 24
f 2 7 13
f 13 22 2
f 8 7 2
f 2 1 8
f 13 11 21
f 21 11 27
f 21 27 20
f 20 22 21
f 23 17 16
f 16 24 23
f 16 17 18
f 18 24 16
f 23 24 34
f 34 1 23
f 24 1 34
f 33 2 22
f 23 1 29
f 1 2 29
f 2 33 29
f 29 22 23
f 29 33 22
f 28 22 13
f 13 21 28
f 28 21 22

