# https://github.com/mikedh/trimesh
v 0.03896361 -0.14947901 0.06848072
v 0.03873701 -0.15033277 0.06662202
v 0.03972036 -0.15004388 0.06600758
v 0.03830861 -0.15052788 0.06596988
v 0.03810351 -0.14973226 0.06653290
v 0.03770496 -0.14932838 0.06581211
v 0.03869961 -0.14843116 0.06613574
v 0.03844089 -0.14824436 0.06566333
v 0.04013926 -0.14863403 0.06547224
v 0.03851916 -0.14856850 0.06648025
v 0.03983494 -0.15073037 0.06533291
v 0.03731444 -0.14974828 0.04800990
v 0.03755439 -0.15031960 0.04813180
v 0.03661839 -0.15097926 0.04911662
v 0.03781061 -0.15189743 0.04894449
v 0.03946041 -0.15112926 0.04809294
v 0.03859119 -0.15232955 0.04951449
v 0.04096309 -0.15143225 0.04920536
v 0.03976969 -0.15079622 0.04806827
v 0.04091354 -0.14984856 0.04826646
v 0.04053624 -0.14904885 0.04813069
v 0.04092459 -0.14756298 0.04899365
v 0.03834069 -0.14669230 0.04917431
v 0.03860509 -0.14794663 0.04801890
v 0.03812726 -0.14812475 0.04811905
v 0.03635669 -0.14818252 0.04946521
v 0.04175946 -0.14975358 0.04937019
v 0.03628691 -0.15030565 0.04957193
v 0.03760311 -0.14703600 0.04958578
v 0.04029514 -0.14863813 0.04808997
v 0.04021216 -0.14692700 0.04954868
v 0.04056136 -0.15170598 0.04962514
v 0.04149471 -0.14865813 0.04964483
v 0.04039859 -0.14891323 0.06448015
v 0.03863596 -0.14797530 0.06478000
v 0.03745269 -0.14924101 0.06491844
v 0.03815736 -0.15073845 0.06516118
v 0.03929004 -0.14797925 0.06363218
v 0.03799049 -0.14836075 0.06376608
v 0.03745486 -0.14978093 0.06394279
v 0.03850294 -0.15087980 0.06413713
f 28 36 26
f 26 12 28
f 9 31 38
f 40 36 28
f 40 37 36
f 28 12 14
f 14 15 37
f 14 40 28
f 37 40 14
f 37 15 17
f 16 17 15
f 23 26 29
f 33 34 27
f 11 34 9
f 1 2 11
f 27 34 11
f 11 17 32
f 9 38 35
f 23 29 35
f 35 31 23
f 35 38 31
f 4 2 1
f 1 5 4
f 4 5 37
f 37 11 4
f 4 11 2
f 36 37 6
f 37 5 6
f 6 5 1
f 12 26 25
f 25 24 12
f 25 26 23
f 23 24 25
f 30 24 22
f 23 31 22
f 22 24 23
f 22 33 27
f 22 31 9
f 9 34 22
f 34 33 22
f 12 16 13
f 13 16 15
f 13 14 12
f 15 14 13
f 12 24 19
f 19 16 12
f 19 24 30
f 3 9 1
f 1 11 3
f 3 11 9
f 37 17 41
f 41 11 37
f 17 11 41
f 1 9 7
f 9 35 7
f 39 26 36
f 39 29 26
f 39 35 29
f 20 22 27
f 10 6 1
f 1 7 10
f 21 19 30
f 21 20 19
f 30 22 21
f 22 20 21
f 19 20 18
f 16 19 18
f 18 20 27
f 32 17 18
f 17 16 18
f 27 11 18
f 18 11 32
f 8 7 35
f 8 10 7
f 35 39 8
f 8 39 36
f 36 6 8
f 6 10 8

