# https://github.com/mikedh/trimesh
v 0.20376933 0.14469261 0.06848073
v 0.20417378 0.14547791 0.06662203
v 0.20315137 0.14540664 0.06600760
v 0.20463412 0.14557654 0.06596989
v 0.20466373 0.14475546 0.06653289
v 0.20496638 0.14427546 0.06581212
v 0.20380247 0.14361246 0.06613571
v 0.20401509 0.14337454 0.06566335
v 0.20243981 0.14411940 0.06547225
v 0.20400817 0.14370795 0.06648027
v 0.20324731 0.14614296 0.06531888
v 0.20542143 0.14475874 0.04813025
v 0.20529609 0.14520751 0.04809653
v 0.20652311 0.14533723 0.04913357
v 0.20640359 0.14565360 0.04955689
v 0.20534733 0.14674543 0.04884511
v 0.20364981 0.14637574 0.04806730
v 0.20447469 0.14746501 0.04956676
v 0.20217563 0.14702260 0.04932263
v 0.20326388 0.14616969 0.04810625
v 0.20190903 0.14565139 0.04834327
v 0.20214104 0.14460974 0.04813070
v 0.20107211 0.14383266 0.04928889
v 0.20425599 0.14194149 0.04916097
v 0.20242534 0.14240539 0.04891560
v 0.20379086 0.14311893 0.04801893
v 0.20429287 0.14319369 0.04811733
v 0.20549581 0.14372331 0.04826683
v 0.20599597 0.14296156 0.04919816
v 0.20115216 0.14577551 0.04959023
v 0.20225982 0.14416014 0.04809996
v 0.20478101 0.14216716 0.04960778
v 0.20198903 0.14253354 0.04962093
v 0.20623815 0.14360284 0.04962044
v 0.20230334 0.14483401 0.06443403
v 0.20280995 0.14356604 0.06465479
v 0.20396488 0.14318995 0.06476050
v 0.20524621 0.14424028 0.06492255
v 0.20477176 0.14577746 0.06518701
v 0.20312846 0.14329721 0.06363378
v 0.20448003 0.14339168 0.06376610
v 0.20530777 0.14466388 0.06394279
v 0.20449555 0.14597869 0.06414674
f 25 26 24
f 11 18 19
f 33 25 24
f 23 25 33
f 33 9 23
f 36 9 33
f 24 26 27
f 27 28 24
f 26 28 27
f 24 28 29
f 29 28 14
f 30 11 19
f 36 8 7
f 1 9 7
f 7 9 36
f 6 8 38
f 38 8 41
f 41 29 38
f 40 33 24
f 36 33 40
f 1 11 3
f 14 38 34
f 34 29 14
f 38 29 34
f 12 28 26
f 26 13 12
f 14 28 12
f 12 13 14
f 19 18 17
f 17 13 26
f 23 9 35
f 35 30 23
f 11 30 35
f 35 3 11
f 35 9 1
f 1 3 35
f 10 6 1
f 8 6 10
f 1 7 10
f 10 7 8
f 37 41 8
f 37 40 24
f 37 8 36
f 36 40 37
f 24 29 32
f 29 41 32
f 32 37 24
f 41 37 32
f 16 17 18
f 13 17 16
f 14 13 16
f 16 15 14
f 18 39 16
f 16 39 15
f 19 17 21
f 21 30 19
f 23 30 21
f 21 22 23
f 31 17 26
f 22 17 31
f 26 25 31
f 31 25 23
f 23 22 31
f 5 6 38
f 1 6 5
f 42 39 38
f 15 39 42
f 42 38 14
f 14 15 42
f 2 11 1
f 18 11 43
f 43 39 18
f 11 39 43
f 20 17 22
f 22 21 20
f 20 21 17
f 4 39 11
f 11 2 4
f 4 2 1
f 1 5 4
f 38 39 4
f 4 5 38

