# https://github.com/mikedh/trimesh
v 0.16337932 -0.18347873 -0.02464321
v 0.16207659 -0.18179314 -0.02609039
v 0.16284439 -0.18534659 -0.02448378
v 0.15820934 -0.18695448 -0.03564536
v 0.16357551 -0.18863488 -0.03774644
v 0.15867202 -0.18993406 -0.03437801
v 0.17327264 -0.18713201 -0.03845569
v 0.17398706 -0.18567856 -0.03832141
v 0.17420637 -0.18775198 -0.03757921
v 0.17402354 -0.18899684 -0.03627631
v 0.16459171 -0.18057049 -0.03529694
v 0.16020922 -0.18001889 -0.03072864
v 0.16561486 -0.17998161 -0.03319699
v 0.16812390 -0.18343596 -0.02677524
v 0.17470024 -0.18725109 -0.03655201
v 0.16147881 -0.17978064 -0.02887526
v 0.15918117 -0.18089826 -0.03342179
v 0.15852885 -0.18458141 -0.03599686
v 0.16037620 -0.19231026 -0.03151661
v 0.16085299 -0.19207827 -0.02925221
v 0.17540129 -0.18738826 -0.03401399
v 0.17599282 -0.18583071 -0.03373274
v 0.17569391 -0.18532594 -0.03344451
v 0.17501829 -0.18856978 -0.03564716
v 0.17366189 -0.18379446 -0.03788911
v 0.17484414 -0.18353144 -0.03645253
v 0.16828449 -0.18670053 -0.02622389
v 0.17480310 -0.18424221 -0.03336393
v 0.17513132 -0.18645986 -0.03289123
v 0.17480114 -0.18843199 -0.03401696
v 0.17504887 -0.18344027 -0.03477839
v 0.16554502 -0.19255343 -0.03286566
v 0.16189395 -0.19114369 -0.02684494
v 0.16684456 -0.19197742 -0.02985839
v 0.16282830 -0.18795994 -0.02455254
v 0.16330462 -0.18536377 -0.03825476
v 0.16639155 -0.17981089 -0.03089571
f 16 2 37
f 10 34 32
f 32 5 10
f 14 37 2
f 4 5 6
f 32 19 6
f 6 5 32
f 37 14 31
f 25 11 13
f 16 37 13
f 36 5 4
f 36 11 25
f 7 10 5
f 5 36 7
f 1 2 3
f 1 14 2
f 27 1 3
f 14 1 27
f 34 30 27
f 34 33 20
f 20 19 32
f 32 34 20
f 20 6 19
f 2 6 20
f 3 2 35
f 35 27 3
f 2 20 35
f 35 20 33
f 35 33 34
f 34 27 35
f 28 31 14
f 37 31 26
f 26 13 37
f 25 13 26
f 26 31 22
f 11 17 12
f 12 13 11
f 16 13 12
f 12 2 16
f 12 17 4
f 4 6 12
f 12 6 2
f 18 17 11
f 11 36 18
f 4 17 18
f 18 36 4
f 24 15 22
f 34 10 24
f 24 30 34
f 8 36 25
f 8 7 36
f 25 26 8
f 22 15 8
f 8 26 22
f 22 27 29
f 29 27 30
f 23 28 14
f 23 27 22
f 14 27 23
f 22 31 23
f 31 28 23
f 21 24 22
f 30 24 21
f 22 29 21
f 21 29 30
f 15 24 9
f 9 8 15
f 7 8 9
f 10 7 9
f 9 24 10

