# https://github.com/mikedh/trimesh
v 0.08216208 0.10334760 0.00705033
v 0.08243664 0.10515799 -0.00581482
v 0.08292766 0.10410754 -0.00350012
v 0.08157461 0.10436052 -0.00317264
v 0.08142321 0.10571910 -0.00340249
v 0.08219636 0.10631834 -0.00305354
v 0.08131984 0.10572607 -0.00294040
v 0.08143981 0.10429186 -0.00276689
v 0.08302509 0.10383340 -0.00263719
v 0.08377316 0.10449662 -0.00260867
v 0.08353133 0.10560937 -0.00327009
v 0.08063761 0.10288487 0.00704491
v 0.08361881 0.10262377 0.00704921
v 0.08530834 0.10511640 0.00704466
v 0.08265704 0.10814126 0.00703186
v 0.07969696 0.10590717 0.00704778
v 0.08212863 0.10651017 -0.00218029
v 0.08356034 0.10619971 -0.00240639
v 0.08061643 0.10540980 0.00705033
v 0.08095476 0.10539792 -0.00096482
v 0.08181958 0.10651519 -0.00115757
v 0.08284454 0.10369887 -0.00172292
v 0.08110539 0.10429535 -0.00190710
f 19 13 14
f 19 15 16
f 14 15 19
f 12 19 16
f 14 13 10
f 16 15 21
f 9 10 13
f 13 19 1
f 1 12 13
f 19 12 1
f 18 15 14
f 23 5 2
f 23 12 16
f 16 20 23
f 11 10 2
f 2 18 11
f 14 10 11
f 11 18 14
f 6 18 2
f 2 5 6
f 16 21 7
f 21 5 7
f 7 20 16
f 7 23 20
f 5 23 7
f 2 10 3
f 10 9 3
f 12 23 8
f 17 5 21
f 17 6 5
f 17 21 15
f 15 18 17
f 18 6 17
f 12 8 22
f 22 8 9
f 13 12 22
f 22 9 13
f 4 3 9
f 9 8 4
f 2 3 4
f 4 23 2
f 4 8 23

