# https://github.com/mikedh/trimesh
v 0.05835571 0.06417935 -0.03867745
v 0.06508384 0.07515024 -0.04047647
v 0.06322366 0.07355144 -0.03964827
v 0.06423804 0.07258764 -0.03943825
v 0.06486681 0.07249005 -0.04066979
v 0.06423274 0.07245317 -0.04149149
v 0.06472224 0.07203995 -0.04064207
v 0.06412564 0.07218402 -0.03932882
v 0.06263386 0.07289552 -0.03942192
v 0.06219886 0.07311374 -0.04029565
v 0.06304668 0.07338800 -0.04126530
v 0.05947108 0.06354167 -0.03773542
v 0.05695821 0.06498750 -0.03847762
v 0.05629589 0.06537515 -0.04138942
v 0.05933711 0.06363407 -0.04336402
v 0.06110606 0.06259437 -0.04027477
v 0.06443809 0.07128414 -0.04029312
v 0.06409956 0.07155354 -0.04167737
v 0.06270366 0.07258022 -0.04177992
v 0.05712211 0.06489437 -0.04079732
v 0.05896971 0.06382485 -0.04225244
v 0.06228563 0.07204085 -0.03923512
v 0.06378569 0.07134294 -0.03914234
f 19 15 14
f 14 15 21
f 21 15 16
f 14 13 10
f 9 10 13
f 16 12 1
f 12 13 1
f 1 21 16
f 13 21 1
f 16 15 18
f 15 19 18
f 20 13 14
f 14 21 20
f 20 21 13
f 2 19 11
f 11 10 2
f 11 19 14
f 14 10 11
f 22 13 12
f 22 9 13
f 2 10 3
f 10 9 3
f 7 17 16
f 16 18 7
f 6 19 2
f 2 18 6
f 6 18 19
f 9 22 23
f 23 22 12
f 23 12 16
f 16 17 23
f 5 18 2
f 5 7 18
f 17 7 5
f 4 3 9
f 2 3 4
f 4 5 2
f 9 23 8
f 8 4 9
f 8 23 17
f 17 5 8
f 5 4 8

