# https://github.com/mikedh/trimesh
v 0.16854871 0.19457497 0.12545666
v 0.16960856 0.18346976 0.12797386
v 0.16436883 0.19796593 0.11568269
v 0.16191538 0.17354121 0.11331854
v 0.16412116 0.17259613 0.11726594
v 0.16456116 0.17326707 0.12032984
v 0.16780401 0.18097086 0.12838259
v 0.16895333 0.18362054 0.12947216
v 0.16797414 0.18640222 0.12874781
v 0.15914184 0.18902371 0.10502301
v 0.16040623 0.19337181 0.10663461
v 0.15970751 0.18453619 0.10470586
v 0.15987294 0.17666109 0.10880006
v 0.15891904 0.18148262 0.10572379
v 0.16072793 0.17584776 0.10893409
v 0.16469408 0.19909768 0.11972369
v 0.16694149 0.19720273 0.12413631
v 0.16597358 0.19884974 0.12006266
v 0.16021861 0.18735389 0.10568214
v 0.16197841 0.19590591 0.10970284
v 0.16868999 0.18950774 0.12919764
v 0.16969740 0.18700988 0.12918704
v 0.16903461 0.19275954 0.12751577
v 0.16342203 0.17333887 0.11361004
v 0.16895406 0.17933126 0.12760704
v 0.16269263 0.19917641 0.11449451
v 0.15906569 0.19281448 0.10715274
v 0.15848426 0.18716274 0.10524372
v 0.15878439 0.18175969 0.10654739
v 0.16599261 0.19753921 0.11969352
v 0.16019245 0.17994669 0.10608861
v 0.16139958 0.17688419 0.10837787
v 0.16727465 0.17699682 0.12630561
v 0.16747799 0.19372844 0.12730461
v 0.16606401 0.17335109 0.12019971
v 0.16775778 0.17553308 0.12441359
v 0.16657629 0.17449631 0.12346109
v 0.16078043 0.19674992 0.10983334
v 0.16181558 0.19811129 0.11394409
v 0.16522636 0.19738693 0.12234169
v 0.16210146 0.19735121 0.11069721
v 0.16381389 0.19902367 0.11474909
f 33 25 7
f 10 12 28
f 10 11 12
f 28 12 14
f 7 25 8
f 22 8 2
f 2 8 25
f 28 14 29
f 29 14 13
f 40 39 29
f 7 40 29
f 9 40 7
f 9 34 40
f 7 8 9
f 40 34 17
f 23 17 34
f 25 33 36
f 33 37 36
f 36 37 35
f 35 2 36
f 36 2 25
f 6 33 7
f 6 37 33
f 7 29 6
f 6 29 13
f 5 35 6
f 35 37 6
f 31 14 12
f 12 32 31
f 31 32 15
f 15 13 31
f 13 14 31
f 24 32 2
f 24 2 35
f 24 35 5
f 15 32 24
f 2 32 20
f 20 41 42
f 11 41 20
f 38 41 11
f 16 18 42
f 16 39 40
f 40 17 16
f 16 17 18
f 28 29 27
f 27 29 39
f 39 38 27
f 27 10 28
f 11 10 27
f 27 38 11
f 21 8 22
f 21 9 8
f 34 9 21
f 22 23 21
f 21 23 34
f 5 6 4
f 4 6 13
f 4 13 15
f 4 24 5
f 15 24 4
f 2 20 1
f 18 17 1
f 17 23 1
f 22 2 1
f 1 23 22
f 19 32 12
f 19 20 32
f 12 11 19
f 11 20 19
f 26 38 39
f 26 16 42
f 39 16 26
f 42 41 26
f 41 38 26
f 3 20 42
f 3 1 20
f 42 18 3
f 18 1 30
f 30 3 18
f 1 3 30

