# https://github.com/mikedh/trimesh
v -0.12428429 -0.16761737 0.07626059
v -0.12442219 -0.16673759 0.07612397
v -0.12570049 -0.16760067 0.07841572
v -0.12572347 -0.16670184 0.07826524
v -0.12790489 -0.16684273 0.07842812
v -0.12936057 -0.16672299 0.07598227
v -0.12953361 -0.16763484 0.07586284
v -0.12802074 -0.16674010 0.07388417
v -0.12808231 -0.16760389 0.07376819
v -0.12538296 -0.16761662 0.07395074
v -0.12559034 -0.16671669 0.07402612
v -0.12904869 -0.16842831 0.07706167
v -0.12418736 -0.16875596 0.07624984
v -0.12495221 -0.16969477 0.07743652
v -0.12496414 -0.16956701 0.07466102
v -0.12543272 -0.16878797 0.07380609
v -0.12814907 -0.16878856 0.07368027
v -0.12961512 -0.16879041 0.07592164
v -0.12901374 -0.16956854 0.07712967
v -0.12837766 -0.16878259 0.07837492
v -0.12566052 -0.16878599 0.07852854
v -0.12427470 -0.16988757 0.07625424
v -0.12900691 -0.17080296 0.07502109
v -0.12950804 -0.17040094 0.07608082
v -0.12838824 -0.16995971 0.07836534
v -0.12576326 -0.17097805 0.07845269
v -0.12573177 -0.17000380 0.07851102
v -0.12956337 -0.17095911 0.07593534
v -0.12542871 -0.17124356 0.07386737
v -0.12449527 -0.17159107 0.07563112
v -0.12556741 -0.17202224 0.07424352
v -0.12699121 -0.17168231 0.07372129
v -0.12809674 -0.17099986 0.07368084
v -0.12897872 -0.17193239 0.07502447
v -0.12892414 -0.17195576 0.07726362
v -0.12840093 -0.17104169 0.07834044
v -0.12699436 -0.17197005 0.07840444
v -0.12507475 -0.17191199 0.07757662
v -0.12771729 -0.17211174 0.07376782
v -0.12446367 -0.17211174 0.07595674
v -0.12837746 -0.16636372 0.07835479
v -0.12843734 -0.16648589 0.07578066
v -0.12557122 -0.16659261 0.07626969
v -0.12567794 -0.16659057 0.07530904
v -0.12729816 -0.16653202 0.07465802
f 13 21 14
f 13 40 30
f 40 37 39
f 39 37 35
f 18 35 19
f 22 40 13
f 38 37 40
f 38 14 21
f 40 22 38
f 13 14 38
f 38 22 13
f 5 4 41
f 13 30 15
f 34 39 35
f 18 41 7
f 41 6 7
f 12 41 18
f 18 19 12
f 12 25 41
f 37 38 26
f 3 5 21
f 4 5 3
f 35 37 36
f 37 25 36
f 36 19 35
f 36 12 19
f 25 12 36
f 20 5 41
f 41 25 20
f 20 25 5
f 18 34 28
f 28 34 35
f 40 39 31
f 29 31 39
f 16 15 29
f 29 15 30
f 29 30 40
f 40 31 29
f 4 3 1
f 1 21 13
f 1 3 21
f 9 11 16
f 39 34 33
f 23 34 18
f 23 33 34
f 37 26 27
f 27 25 37
f 27 38 21
f 27 26 38
f 21 5 27
f 5 25 27
f 24 35 18
f 18 28 24
f 24 28 35
f 4 1 2
f 2 1 13
f 7 9 17
f 18 7 17
f 17 9 16
f 17 23 18
f 33 23 17
f 16 29 32
f 32 17 16
f 33 17 32
f 32 29 39
f 39 33 32
f 42 6 41
f 41 45 42
f 8 7 6
f 8 9 7
f 6 42 8
f 8 42 45
f 11 9 8
f 8 45 11
f 41 4 43
f 4 2 43
f 16 11 10
f 11 2 10
f 10 2 13
f 13 15 10
f 10 15 16
f 44 45 41
f 41 43 44
f 11 45 44
f 44 2 11
f 44 43 2

