# https://github.com/mikedh/trimesh
v -0.13575304 -0.21346948 0.02620262
v -0.13566529 -0.21551137 0.02640642
v -0.13481262 -0.21245329 0.02641135
v -0.13091494 -0.21292133 0.02620261
v -0.13272704 -0.21197646 0.02640642
v -0.13050704 -0.21424694 0.02641478
v -0.13285927 -0.21738534 0.02620261
v -0.13113492 -0.21628852 0.02640641
v -0.13421193 -0.21707439 0.02641633
v -0.13067837 -0.21342967 0.02357025
v -0.13119534 -0.21654422 0.02361269
v -0.13349979 -0.21723151 0.02359538
v -0.13534662 -0.21623487 0.02359619
v -0.13562096 -0.21319520 0.02361472
v -0.13299152 -0.21186354 0.02358119
v -0.13327247 -0.21335211 0.03404115
v -0.13437296 -0.21444855 0.03418375
v -0.13226512 -0.21441262 0.03445583
v -0.13278982 -0.21613212 0.03395994
v -0.13419571 -0.21571834 0.03404809
v -0.13469279 -0.21394603 0.03388188
v -0.13294284 -0.21305008 0.03377061
v -0.13174495 -0.21398942 0.03368793
v -0.13192936 -0.21554446 0.03361055
v -0.13334519 -0.21613531 0.03351733
v -0.13465439 -0.21513545 0.03344817
v -0.13431989 -0.21352155 0.03334146
v -0.13201492 -0.21354117 0.03272270
v -0.13171171 -0.21530800 0.03264269
v -0.13172359 -0.21469777 0.02355986
v -0.13252746 -0.21329651 0.02356379
v -0.13405657 -0.21351325 0.02356762
v -0.13455044 -0.21481550 0.02356763
f 6 10 4
f 29 8 6
f 11 8 7
f 11 10 6
f 6 8 11
f 20 2 9
f 17 20 18
f 6 4 23
f 23 29 6
f 14 2 1
f 18 20 19
f 7 8 19
f 26 2 20
f 13 9 2
f 2 14 13
f 20 9 25
f 25 19 20
f 25 9 7
f 7 19 25
f 8 29 24
f 24 19 8
f 29 23 24
f 18 19 24
f 24 23 18
f 12 11 7
f 7 9 12
f 9 13 12
f 4 5 22
f 18 23 22
f 15 32 14
f 31 32 15
f 10 31 15
f 15 4 10
f 15 5 4
f 28 23 4
f 4 22 28
f 28 22 23
f 1 2 21
f 2 26 21
f 20 17 21
f 21 26 20
f 3 22 5
f 5 15 3
f 1 21 3
f 3 14 1
f 3 15 14
f 33 13 14
f 14 32 33
f 33 12 13
f 16 21 17
f 22 21 16
f 16 17 18
f 18 22 16
f 27 21 22
f 22 3 27
f 27 3 21
f 30 31 10
f 30 32 31
f 30 33 32
f 12 33 30
f 10 11 30
f 11 12 30

