# https://github.com/mikedh/trimesh
v 0.19959420 -0.18830220 -0.05292434
v 0.20076115 -0.18787559 -0.05314723
v 0.20012167 -0.18663137 -0.05163841
v 0.20084804 -0.18509129 -0.05231266
v 0.19991626 -0.18449951 -0.05211103
v 0.20050542 -0.18412659 -0.05294621
v 0.19919004 -0.18347313 -0.05395298
v 0.19839387 -0.18741231 -0.05598804
v 0.19984220 -0.18763491 -0.05578773
v 0.19903994 -0.18856516 -0.05428021
v 0.20051062 -0.18791463 -0.05501326
v 0.20013009 -0.18398461 -0.05504371
v 0.19865155 -0.18410007 -0.05557841
v 0.19983067 -0.18560716 -0.05639561
v 0.19824439 -0.18594909 -0.05632159
v 0.20134252 -0.18658924 -0.05274718
v 0.20109679 -0.18439134 -0.05409899
v 0.20162286 -0.18556782 -0.05365938
v 0.20126559 -0.18737459 -0.05413618
v 0.20066754 -0.18507692 -0.05573051
v 0.20100234 -0.18633087 -0.05563736
v 0.20148910 -0.18670926 -0.05464030
v 0.20144330 -0.18564286 -0.05486416
f 15 10 7
f 5 7 10
f 5 6 7
f 15 7 13
f 12 13 7
f 3 2 16
f 10 2 1
f 1 2 3
f 1 5 10
f 3 5 1
f 8 10 15
f 8 9 10
f 11 9 21
f 11 2 10
f 10 9 11
f 13 12 14
f 15 13 14
f 21 9 14
f 14 8 15
f 9 8 14
f 6 5 4
f 4 16 18
f 4 5 3
f 3 16 4
f 18 23 17
f 17 4 18
f 6 4 17
f 7 6 17
f 17 12 7
f 22 11 21
f 21 23 22
f 18 16 22
f 22 23 18
f 20 14 12
f 12 17 20
f 20 17 23
f 20 23 21
f 21 14 20
f 2 11 19
f 11 22 19
f 19 16 2
f 19 22 16

