# https://github.com/mikedh/trimesh
v 0.10749147 0.14554259 -0.04147512
v 0.09973184 0.13516727 -0.04047277
v 0.10078407 0.13734375 -0.04165751
v 0.10134804 0.13704794 -0.03936669
v 0.10050227 0.13791090 -0.03952001
v 0.10144721 0.13749592 -0.03926166
v 0.10208459 0.13689837 -0.04063404
v 0.10239039 0.13715177 -0.04030724
v 0.10190281 0.13750904 -0.04178472
v 0.10866764 0.14485727 -0.04064739
v 0.10711702 0.14575747 -0.04304344
v 0.10453037 0.14724562 -0.04264087
v 0.10392359 0.14758021 -0.03975509
v 0.10635331 0.14616924 -0.03743137
v 0.10216829 0.13799945 -0.03927302
v 0.10088689 0.13866534 -0.03913994
v 0.10099012 0.13814291 -0.04190984
v 0.10013972 0.13887597 -0.04069249
v 0.10530314 0.14680604 -0.04198161
v 0.10561814 0.14662669 -0.04094704
v 0.10486102 0.14706134 -0.03945674
v 0.10705285 0.14579584 -0.03894824
v 0.10295490 0.13884550 -0.03928414
v 0.10077619 0.13979494 -0.03998179
v 0.10098574 0.13946032 -0.04154079
v 0.10305730 0.13779116 -0.04039924
f 10 14 23
f 16 14 13
f 13 14 21
f 21 12 13
f 13 12 18
f 10 23 26
f 14 16 6
f 12 11 17
f 2 18 17
f 22 14 10
f 22 21 14
f 12 21 19
f 19 11 12
f 2 16 5
f 5 18 2
f 16 18 5
f 24 16 13
f 13 18 24
f 24 18 16
f 15 23 14
f 25 18 12
f 12 17 25
f 25 17 18
f 21 22 20
f 20 19 21
f 11 19 20
f 8 26 23
f 23 15 8
f 2 17 3
f 10 26 9
f 9 11 10
f 2 3 9
f 9 17 11
f 9 3 17
f 11 20 1
f 1 20 22
f 10 11 1
f 1 22 10
f 4 8 15
f 14 6 4
f 4 15 14
f 2 8 4
f 4 16 2
f 4 6 16
f 26 8 7
f 7 9 26
f 7 8 2
f 2 9 7

