# https://github.com/mikedh/trimesh
v 0.10336124 -0.21738536 0.02620263
v 0.10508559 -0.21628854 0.02640643
v 0.10200851 -0.21707441 0.02641635
v 0.10512376 -0.21294112 0.02356750
v 0.10572826 -0.21412050 0.02638293
v 0.10571806 -0.21512455 0.02359151
v 0.10369296 -0.21732892 0.02362219
v 0.10087386 -0.21623489 0.02359621
v 0.10045478 -0.21533994 0.02638734
v 0.10059949 -0.21319525 0.02361474
v 0.10091046 -0.21289996 0.02637341
v 0.10375398 -0.21187190 0.02635286
v 0.10322899 -0.21186356 0.02358121
v 0.10294801 -0.21335213 0.03404116
v 0.10184751 -0.21444856 0.03418377
v 0.10395539 -0.21441263 0.03445585
v 0.10343064 -0.21613213 0.03395996
v 0.10202479 -0.21571836 0.03404811
v 0.10152768 -0.21394603 0.03388190
v 0.10327766 -0.21305010 0.03377063
v 0.10453379 -0.21410283 0.03368938
v 0.10422691 -0.21560361 0.03359862
v 0.10287528 -0.21613533 0.03351735
v 0.10156601 -0.21513595 0.03344796
v 0.10190003 -0.21352271 0.03334200
v 0.10419986 -0.21353649 0.03272096
v 0.10451103 -0.21530520 0.03264411
v 0.10448672 -0.21471602 0.02356218
v 0.10159256 -0.21448638 0.02355988
v 0.10235398 -0.21590363 0.02352317
f 9 19 11
f 13 11 12
f 22 21 16
f 16 21 20
f 20 12 11
f 5 6 4
f 4 12 5
f 13 12 4
f 7 8 30
f 30 6 7
f 13 4 30
f 10 11 13
f 10 8 9
f 9 11 10
f 15 18 16
f 19 18 15
f 3 8 7
f 9 8 3
f 3 18 9
f 24 19 9
f 9 18 24
f 24 18 19
f 16 18 17
f 17 22 16
f 5 21 27
f 21 22 27
f 26 20 21
f 12 20 26
f 26 21 5
f 5 12 26
f 25 11 19
f 19 20 25
f 25 20 11
f 28 4 6
f 6 30 28
f 28 30 4
f 29 30 8
f 8 10 29
f 13 30 29
f 29 10 13
f 14 20 19
f 19 15 14
f 16 20 14
f 14 15 16
f 18 3 23
f 23 17 18
f 1 3 7
f 1 23 3
f 17 23 1
f 2 27 22
f 7 6 2
f 2 6 5
f 5 27 2
f 2 1 7
f 22 17 2
f 17 1 2

