# https://github.com/mikedh/trimesh
v -0.12666346 -0.19763104 0.08080989
v -0.11569597 -0.19515752 0.08080989
v -0.13631982 -0.22103069 0.02958672
v -0.11006664 -0.19621902 0.02958483
v -0.10080849 -0.20484734 0.08080989
v -0.09821092 -0.21570280 0.08080989
v -0.13673503 -0.20992451 0.02958693
v -0.13387242 -0.20415814 0.08080989
v -0.10130297 -0.22492299 0.08080989
v -0.10965667 -0.23244777 0.08080989
v -0.11016025 -0.23304744 0.02958651
v -0.10676635 -0.19874252 0.08080989
v -0.09815489 -0.21894784 0.02958622
v -0.13540669 -0.22179506 0.08080989
v -0.13677575 -0.21353488 0.08080989
v -0.07459704 -0.21353562 0.05636212
v -0.07456644 -0.21459020 0.05389858
v -0.07460972 -0.21589656 0.05558925
v -0.11649412 -0.25754800 0.05636209
v -0.11754836 -0.25757899 0.05389860
v -0.11885527 -0.25753300 0.05558924
v -0.16049202 -0.21599767 0.05530301
v -0.16053142 -0.21430664 0.05399979
v -0.16050635 -0.21354425 0.05638391
v -0.11895634 -0.17165082 0.05530300
v -0.11726526 -0.17161142 0.05399980
v -0.11650292 -0.17163649 0.05638391
v -0.13212111 -0.20097644 0.02958746
v -0.11695754 -0.23429585 0.02959078
v -0.12215572 -0.23340850 0.08080989
v -0.12113144 -0.17161404 0.05103298
v -0.07464154 -0.21095956 0.05108526
v -0.07466214 -0.21826270 0.05107592
v -0.16052877 -0.21817274 0.05103299
v -0.10254471 -0.20165763 0.02958728
v -0.13066097 -0.22869320 0.08080989
v -0.16038844 -0.21102826 0.06280475
v -0.16037259 -0.21091749 0.05094705
v -0.12111307 -0.25734148 0.06280427
v -0.11398572 -0.25742974 0.06280466
v -0.07480136 -0.21815439 0.06280427
v -0.16030014 -0.21815438 0.06280427
v -0.09839383 -0.20945547 0.02958557
v -0.13726354 -0.21449551 0.02958994
v -0.12111306 -0.17184269 0.06280427
v -0.07471309 -0.21102827 0.06280466
v -0.12115734 -0.23375847 0.03001132
v -0.12293706 -0.19554074 0.02958781
v -0.12118935 -0.25754299 0.05109363
v -0.11687596 -0.19489042 0.02958975
v -0.10267111 -0.22767377 0.02958729
v -0.11387612 -0.17177024 0.05094705
v -0.12052019 -0.23217025 0.02958598
v -0.12399997 -0.23299310 0.03016081
v -0.11398694 -0.17175442 0.06280475
v -0.13050012 -0.22980759 0.02958744
v -0.11387785 -0.25743475 0.05109181
f 38 31 28
f 38 34 23
f 38 37 31
f 31 37 45
f 45 25 31
f 41 16 46
f 46 5 6
f 6 41 46
f 55 45 2
f 2 45 1
f 42 15 37
f 7 38 28
f 32 16 17
f 32 46 16
f 32 52 55
f 55 46 32
f 31 52 50
f 26 52 31
f 40 10 30
f 9 41 6
f 9 40 41
f 9 10 40
f 17 16 18
f 18 16 41
f 37 15 8
f 8 45 37
f 1 45 8
f 55 2 12
f 12 46 55
f 5 46 12
f 34 42 22
f 14 42 36
f 15 42 14
f 57 19 20
f 40 19 57
f 51 57 11
f 11 57 29
f 36 42 39
f 39 30 36
f 40 30 39
f 39 19 40
f 3 56 34
f 33 32 17
f 17 18 33
f 33 57 51
f 33 18 41
f 41 40 33
f 40 57 33
f 4 7 28
f 4 50 52
f 4 3 7
f 31 25 27
f 27 26 31
f 27 45 55
f 25 45 27
f 55 52 27
f 52 26 27
f 23 34 24
f 34 22 24
f 24 38 23
f 37 38 24
f 24 42 37
f 24 22 42
f 29 57 49
f 49 57 20
f 34 56 49
f 49 42 34
f 49 39 42
f 53 29 56
f 53 11 29
f 56 3 53
f 3 4 53
f 44 3 34
f 7 3 44
f 34 38 44
f 38 7 44
f 48 4 28
f 50 4 48
f 28 31 48
f 31 50 48
f 11 53 43
f 43 53 4
f 54 49 56
f 21 49 20
f 39 49 21
f 20 19 21
f 19 39 21
f 32 43 35
f 35 43 4
f 52 32 35
f 35 4 52
f 13 33 51
f 51 11 13
f 11 43 13
f 32 33 13
f 13 43 32
f 29 49 47
f 49 54 47
f 56 29 47
f 47 54 56
f 36 30 14
f 6 5 14
f 5 12 14
f 14 2 1
f 14 9 6
f 1 8 14
f 14 30 10
f 10 9 14
f 14 8 15
f 14 12 2

