# https://github.com/mikedh/trimesh
v -0.08100813 0.10528861 -0.08869283
v -0.08251565 0.10632796 -0.07582766
v -0.08208616 0.10525088 -0.07814240
v -0.08134421 0.10641031 -0.07846986
v -0.08223076 0.10745073 -0.07824001
v -0.08319691 0.10729754 -0.07858896
v -0.08216513 0.10753090 -0.07870208
v -0.08120188 0.10646153 -0.07887563
v -0.08195311 0.10499218 -0.07900533
v -0.08294858 0.10490095 -0.07903386
v -0.08359416 0.10583908 -0.07837240
v -0.07962713 0.10608303 -0.08868738
v -0.08147788 0.10373126 -0.08869171
v -0.08445136 0.10420628 -0.08868716
v -0.08484098 0.10820979 -0.08867435
v -0.08118593 0.10883773 -0.08869025
v -0.08342038 0.10750565 -0.07939998
v -0.08217263 0.10776633 -0.07957328
v -0.08402168 0.10614481 -0.07924350
v -0.08352346 0.10484134 -0.08869039
v -0.08399386 0.10735906 -0.08869039
v -0.08103441 0.10597200 -0.08085665
v -0.08153493 0.10749311 -0.08062469
v -0.08283063 0.10778995 -0.08053918
v -0.08390736 0.10686228 -0.08035595
v -0.08173138 0.10503168 -0.07991961
v -0.08097546 0.10670763 -0.07973541
f 26 13 12
f 12 16 27
f 15 16 21
f 12 13 1
f 1 16 12
f 1 21 16
f 15 19 25
f 2 27 5
f 22 26 12
f 4 27 2
f 23 16 18
f 23 27 16
f 15 21 14
f 14 19 15
f 13 10 14
f 17 25 19
f 15 25 17
f 17 5 18
f 2 19 11
f 11 10 2
f 19 14 11
f 11 14 10
f 2 10 3
f 3 4 2
f 27 4 8
f 12 27 8
f 8 22 12
f 26 22 8
f 7 5 27
f 27 23 7
f 18 5 7
f 7 23 18
f 13 14 20
f 20 14 21
f 20 1 13
f 21 1 20
f 6 19 2
f 6 17 19
f 2 5 6
f 5 17 6
f 15 17 24
f 24 17 18
f 24 16 15
f 18 16 24
f 9 3 10
f 13 26 9
f 9 10 13
f 26 8 9
f 4 3 9
f 9 8 4

