# https://github.com/mikedh/trimesh
v -0.13086825 -0.02155295 -0.03178241
v -0.12976884 -0.00530802 -0.03438971
v -0.12813784 -0.02092255 -0.02352333
v -0.12617895 -0.00324738 -0.02552966
v -0.12544422 -0.01466953 -0.01894521
v -0.12453462 -0.02087819 -0.03307388
v -0.12500345 -0.00399297 -0.03271976
v -0.13019480 -0.01261722 -0.01920068
v -0.13039672 -0.00885073 -0.01973683
v -0.13063057 -0.00548975 -0.02253006
v -0.13091729 -0.00309980 -0.02733013
v -0.13145461 -0.00750102 -0.03648146
v -0.13118362 -0.00406777 -0.03225801
v -0.13123880 -0.02071051 -0.02417289
v -0.13178595 -0.01220740 -0.01941266
v -0.12455039 -0.01492307 -0.03775588
v -0.13138817 -0.01402770 -0.03781768
v -0.13135175 -0.01913917 -0.03519468
v -0.11561367 -0.02330495 -0.02777326
v -0.11561367 -0.01734807 -0.01876833
v -0.11561367 -0.01848487 -0.03743453
v -0.11561367 -0.00770795 -0.03809085
v -0.11561367 -0.00175107 -0.02908591
v -0.11561367 -0.00657114 -0.01942466
v -0.12299555 -0.02330495 -0.02777326
v -0.12299555 -0.01848487 -0.03743453
v -0.12299555 -0.01734807 -0.01876833
v -0.12299555 -0.00657114 -0.01942466
v -0.12299555 -0.00175107 -0.02908591
v -0.12299555 -0.00770795 -0.03809086
v -0.14311835 -0.00513415 -0.02753001
v -0.14312352 -0.01859745 -0.02434508
v -0.05754262 -0.01429479 -0.02482416
v -0.05754279 -0.00972035 -0.02616381
v -0.05754279 -0.00888913 -0.02712998
v -0.05754279 -0.01356643 -0.03223258
v -0.14317275 -0.00588003 -0.02513544
v -0.14317275 -0.01462086 -0.03585546
v -0.14317274 -0.00880026 -0.03538961
v -0.14317275 -0.01881267 -0.03303964
v -0.14317275 -0.02025771 -0.02742903
v -0.14317275 -0.01547324 -0.02129873
v -0.14317275 -0.01115034 -0.02083846
v -0.14313401 -0.00776977 -0.02286853
v -0.14317274 -0.00492842 -0.03016039
v -0.05754279 -0.01620175 -0.02997115
v -0.05754257 -0.01632673 -0.02712945
v -0.05754279 -0.01099700 -0.03201563
v -0.05754279 -0.01026221 -0.03123720
v -0.05754279 -0.01173156 -0.02459173
v -0.05754279 -0.00945987 -0.03024638
v -0.05754279 -0.00869018 -0.02922603
f 20 19 47
f 13 45 29
f 7 13 29
f 7 22 30
f 8 43 42
f 29 45 11
f 11 4 29
f 37 4 11
f 24 4 28
f 33 20 47
f 52 33 47
f 35 33 52
f 48 49 47
f 47 36 48
f 48 22 49
f 48 36 22
f 47 19 46
f 46 36 47
f 1 19 25
f 25 41 1
f 42 41 32
f 5 28 8
f 45 37 31
f 31 11 45
f 37 11 31
f 44 37 43
f 43 28 44
f 9 28 43
f 8 28 9
f 10 4 37
f 10 28 4
f 37 44 10
f 10 44 28
f 30 12 2
f 2 7 30
f 13 7 2
f 45 13 2
f 24 20 50
f 20 33 50
f 35 52 23
f 24 35 23
f 23 52 22
f 29 4 23
f 23 4 24
f 23 7 29
f 22 7 23
f 49 22 51
f 22 52 51
f 47 49 51
f 51 52 47
f 21 46 19
f 36 46 21
f 22 36 21
f 21 16 22
f 1 41 40
f 45 2 39
f 39 2 12
f 39 12 30
f 42 32 27
f 27 8 42
f 27 5 8
f 28 5 27
f 43 8 15
f 15 9 43
f 8 9 15
f 34 33 35
f 34 50 33
f 34 35 24
f 24 50 34
f 6 19 1
f 6 21 19
f 38 39 17
f 30 22 17
f 22 16 17
f 17 39 30
f 26 6 1
f 21 6 26
f 26 40 38
f 38 17 26
f 16 21 26
f 26 17 16
f 3 27 32
f 41 25 3
f 3 25 19
f 19 20 3
f 20 27 3
f 1 40 18
f 18 26 1
f 40 26 18
f 14 32 41
f 41 3 14
f 14 3 32
f 42 43 39
f 39 37 45
f 43 37 39
f 39 41 42
f 39 40 41
f 38 40 39
f 27 20 24
f 24 28 27

