# https://github.com/mikedh/trimesh
v 0.13554758 0.01241630 0.12195911
v 0.13302972 -0.02768178 0.11566908
v 0.13303893 0.02756572 0.03083847
v 0.13554704 -0.05117071 0.07629536
v 0.13554540 -0.04821651 0.05579012
v 0.13551937 -0.03826944 0.03893010
v 0.13558897 -0.02004811 0.02616959
v 0.13552965 0.00101625 0.02187196
v 0.13557010 0.01513992 0.02434677
v 0.13557480 0.03784047 0.03870232
v 0.13559583 0.04780981 0.05568339
v 0.13552490 0.05066194 0.06531839
v 0.13556843 0.04953506 0.08612056
v 0.13557994 0.04039576 0.10460186
v 0.13553157 0.02098957 0.12024773
v 0.13551169 0.00296657 0.12460011
v 0.13552769 -0.01253148 0.12316151
v 0.13556842 -0.02832084 0.11590749
v 0.13554704 -0.04142439 0.10348476
v 0.13554414 -0.04960869 0.08628604
v 0.13532262 -0.05111674 0.06756492
v 0.13434452 -0.05048231 0.06104264
v 0.13425993 -0.04602823 0.04901108
v 0.13519287 -0.02628896 0.02878545
v 0.13442582 -0.01187680 0.02261881
v 0.13532183 0.02428993 0.02786198
v 0.13434452 0.03213094 0.03244370
v 0.13520746 0.04339954 0.04523757
v 0.13434408 0.04866662 0.05491839
v 0.13525905 0.05148654 0.07544981
v 0.13434452 0.05048551 0.08554459
v 0.13525905 0.04699727 0.09443036
v 0.13477010 0.04186637 0.10385034
v 0.13521947 0.03388724 0.11227133
v 0.13434454 0.00982947 0.12430471
v 0.13434454 -0.02381618 0.11948599
v 0.13519287 -0.04779516 0.09298244
v 0.13510915 -0.03475683 0.11157591
v 0.13400883 0.05180607 0.07584694
v 0.13334740 0.04970236 0.08689184
v 0.13328360 0.04241876 0.10255649
v 0.13400883 0.03573224 0.11089081
v 0.13400875 0.01919946 0.12147731
v 0.13334739 0.00827872 0.12415199
v 0.13366076 -0.03162964 0.11426194
v 0.13400877 -0.03925314 0.10719484
v 0.13400882 -0.05181101 0.07567639
v 0.13400752 -0.04988556 0.08783956
v 0.13366854 -0.04497968 0.09896109
v 0.13400755 -0.01234483 0.12377016
v 0.13400877 -0.00008374 0.12516096
v 0.13400878 0.02797149 0.11697326
v 0.13400878 0.04714627 0.09491776
v 0.13400883 0.05135311 0.06599691
v 0.13366078 0.04459344 0.04701634
v 0.13400878 0.03925629 0.03939250
v 0.13373191 0.02160115 0.02610014
v 0.13400881 0.00990132 0.02237984
v 0.13400878 0.00008692 0.02142641
v 0.13369046 -0.02184174 0.02625168
v 0.13400880 -0.03199338 0.03247035
v 0.13400878 -0.03914101 0.03926313
v 0.13325672 -0.05112976 0.06697553
v 0.13304438 -0.02344464 0.02837138
v 0.13303353 -0.00629348 0.02289604
v 0.13309458 0.00831401 0.02290404
v 0.13309358 0.03947167 0.04067763
v 0.13309328 0.04846959 0.05759041
v 0.13310918 0.05117509 0.07153002
v 0.13307801 0.04896917 0.08538321
v 0.13310325 0.02129686 0.11995779
v 0.13304036 -0.00730258 0.12348906
v 0.13309112 -0.04028399 0.10458158
v 0.13311309 -0.04990456 0.08476171
v 0.13311302 -0.01660177 0.12161049
v 0.13310987 0.03515897 0.11020621
v 0.13311310 -0.03488316 0.03580777
v 0.13310987 -0.04413108 0.04778124
v 0.13303799 -0.04797316 0.05696700
f 11 7 9
f 13 14 11
f 2 65 79
f 2 79 73
f 73 79 74
f 8 9 7
f 11 9 10
f 58 8 59
f 9 8 58
f 48 74 47
f 7 60 25
f 59 8 25
f 25 8 7
f 25 65 59
f 60 65 25
f 77 60 61
f 45 36 2
f 2 73 45
f 45 73 46
f 50 36 17
f 54 68 69
f 67 68 55
f 64 60 77
f 64 65 60
f 77 79 64
f 64 79 65
f 72 76 70
f 69 68 70
f 71 76 72
f 34 15 14
f 47 74 63
f 74 79 63
f 26 10 9
f 3 68 67
f 3 70 68
f 72 70 3
f 2 72 3
f 3 65 2
f 17 36 18
f 18 7 11
f 11 14 18
f 18 4 7
f 78 79 77
f 78 23 79
f 4 18 20
f 20 18 19
f 47 4 20
f 20 48 47
f 49 19 46
f 46 73 49
f 49 73 74
f 74 48 49
f 2 36 75
f 36 50 75
f 75 72 2
f 75 50 72
f 12 13 11
f 13 12 30
f 30 12 54
f 29 55 68
f 68 54 29
f 29 12 11
f 54 12 29
f 55 29 28
f 11 10 28
f 28 29 11
f 41 70 76
f 76 71 52
f 71 43 52
f 15 34 52
f 52 43 15
f 23 6 5
f 7 4 5
f 5 6 7
f 65 3 66
f 59 65 66
f 66 58 59
f 10 26 27
f 27 3 67
f 36 45 38
f 38 18 36
f 38 45 46
f 46 19 38
f 19 18 38
f 17 18 1
f 1 16 17
f 15 16 1
f 14 15 1
f 1 18 14
f 37 20 19
f 19 49 37
f 48 20 37
f 37 49 48
f 7 6 24
f 24 6 61
f 24 60 7
f 24 61 60
f 77 61 62
f 61 6 62
f 62 6 23
f 62 78 77
f 23 78 62
f 72 50 51
f 51 50 17
f 17 16 51
f 39 54 69
f 39 30 54
f 14 13 32
f 33 34 14
f 14 32 33
f 35 16 15
f 15 43 35
f 35 51 16
f 21 5 4
f 21 4 47
f 47 63 21
f 23 5 22
f 79 23 22
f 22 63 79
f 22 21 63
f 5 21 22
f 58 66 57
f 57 66 3
f 9 58 57
f 57 26 9
f 57 27 26
f 3 27 57
f 56 27 67
f 10 27 56
f 56 28 10
f 67 55 56
f 55 28 56
f 70 41 40
f 69 70 40
f 40 39 69
f 41 33 53
f 53 33 32
f 53 40 41
f 34 33 42
f 76 52 42
f 42 52 34
f 42 41 76
f 42 33 41
f 51 35 44
f 44 71 72
f 72 51 44
f 44 43 71
f 44 35 43
f 40 53 31
f 39 40 31
f 31 32 13
f 31 53 32
f 13 30 31
f 30 39 31

