# https://github.com/mikedh/trimesh
v 0.08098550 -0.10402921 -0.08869282
v 0.08243658 -0.10514601 -0.07582767
v 0.08206410 -0.10404793 -0.07814237
v 0.08126243 -0.10516690 -0.07846985
v 0.08209330 -0.10625230 -0.07823994
v 0.08306615 -0.10614990 -0.07858897
v 0.08202353 -0.10632896 -0.07870209
v 0.08111763 -0.10521065 -0.07887562
v 0.08194462 -0.10378263 -0.07900530
v 0.08294360 -0.10374363 -0.07903385
v 0.08353917 -0.10471421 -0.07837237
v 0.07956485 -0.10475021 -0.08868737
v 0.08153610 -0.10249856 -0.08869170
v 0.08448073 -0.10312860 -0.08868714
v 0.08466022 -0.10714698 -0.08867434
v 0.08097743 -0.10758281 -0.08869024
v 0.08327837 -0.10636951 -0.07939996
v 0.08201870 -0.10656445 -0.07957327
v 0.08395012 -0.10504194 -0.07924349
v 0.08352080 -0.10371418 -0.08869037
v 0.08385877 -0.10625308 -0.08869037
v 0.08267438 -0.10662260 -0.08053925
v 0.08379840 -0.10575244 -0.08035592
v 0.08115458 -0.10427899 -0.07986419
v 0.08106965 -0.10580393 -0.07969347
f 24 13 12
f 12 13 1
f 1 16 12
f 15 16 21
f 16 1 21
f 13 24 9
f 15 19 23
f 15 21 14
f 14 19 15
f 20 1 13
f 20 21 1
f 13 14 20
f 20 14 21
f 3 24 2
f 3 9 24
f 17 23 19
f 15 23 17
f 17 5 18
f 8 24 12
f 10 3 2
f 9 3 10
f 13 9 10
f 10 14 13
f 18 5 7
f 6 19 2
f 6 17 19
f 2 5 6
f 5 17 6
f 15 17 22
f 22 17 18
f 22 16 15
f 18 16 22
f 25 5 2
f 25 7 5
f 25 8 12
f 18 7 25
f 12 16 25
f 25 16 18
f 19 14 11
f 14 10 11
f 2 19 11
f 11 10 2
f 4 25 2
f 8 25 4
f 2 24 4
f 24 8 4

