# https://github.com/mikedh/trimesh
v -0.10360436 0.21202068 0.02361128
v -0.10497928 0.21358926 0.02637834
v -0.10505923 0.21398649 0.02358034
v -0.10487321 0.21568484 0.02637675
v -0.10472013 0.21611483 0.02358119
v -0.10332493 0.21717121 0.02638291
v -0.10283960 0.21721709 0.02356749
v -0.10040539 0.21651909 0.02635557
v -0.10076740 0.21669187 0.02357063
v -0.09962068 0.21448731 0.02365722
v -0.09994119 0.21353237 0.02637594
v -0.10097810 0.21237566 0.02358590
v -0.10248088 0.21178081 0.02638503
v -0.10143971 0.21480620 0.03440303
v -0.10125521 0.21470039 0.03413687
v -0.10102098 0.21519270 0.03392063
v -0.10170403 0.21363926 0.03409050
v -0.10259061 0.21341286 0.03409593
v -0.10361534 0.21414378 0.03395005
v -0.10338518 0.21502042 0.03435604
v -0.10283523 0.21613107 0.03395995
v -0.10123529 0.21357913 0.03384539
v -0.10319528 0.21315341 0.03375401
v -0.10397869 0.21523039 0.03361738
v -0.10222003 0.21613300 0.03352375
v -0.10212623 0.21306341 0.03331310
v -0.10376906 0.21365630 0.03320760
v -0.10353600 0.21579861 0.03309439
v -0.10391201 0.21384396 0.03271197
v -0.10326691 0.21338625 0.02355986
v -0.10165141 0.21338186 0.02356379
v -0.10381859 0.21484532 0.02356764
f 10 12 9
f 9 8 10
f 7 8 9
f 9 30 7
f 1 12 13
f 3 30 1
f 1 30 12
f 13 12 22
f 12 30 31
f 31 9 12
f 30 9 31
f 3 1 2
f 10 8 16
f 17 22 14
f 11 12 10
f 11 22 12
f 10 16 11
f 11 16 22
f 4 2 24
f 4 5 3
f 3 2 4
f 7 30 32
f 32 5 7
f 32 30 3
f 3 5 32
f 6 8 7
f 7 5 6
f 5 4 6
f 14 22 15
f 15 16 14
f 22 16 15
f 23 1 13
f 23 2 1
f 28 4 24
f 28 6 4
f 25 16 8
f 8 6 25
f 13 22 26
f 26 23 13
f 2 23 27
f 6 28 21
f 21 25 6
f 24 20 21
f 21 28 24
f 21 20 14
f 14 16 21
f 16 25 21
f 23 26 18
f 22 17 18
f 18 26 22
f 18 17 14
f 14 20 18
f 24 2 29
f 29 27 24
f 2 27 29
f 19 20 24
f 24 27 19
f 19 27 23
f 19 18 20
f 23 18 19

