# https://github.com/mikedh/trimesh
v -0.16290860 0.04699071 0.09725689
v -0.16270615 0.04865229 0.09909324
v -0.16268543 0.04518716 0.09726044
v -0.16531765 0.04327096 0.09973479
v -0.16551765 0.04383286 0.10150434
v -0.16550615 0.04417984 0.09779709
v -0.16549848 0.04813259 0.09824699
v -0.16550890 0.04653664 0.09724514
v -0.16270972 0.04328794 0.09942946
v -0.16271670 0.04408936 0.10172037
v -0.16272335 0.04628001 0.10260594
v -0.16550243 0.04648789 0.10256756
v -0.16267768 0.04810704 0.10147012
v -0.16549942 0.04866014 0.10058906
v -0.15100717 0.04601246 0.10107734
v -0.15112256 0.04450351 0.10046717
v -0.15098128 0.04706976 0.10045054
v -0.15117740 0.04679864 0.09883909
v -0.15079875 0.04578189 0.09885644
v -0.15127350 0.04520309 0.09891721
v -0.15125992 0.04629566 0.10143694
v -0.15137492 0.04751394 0.10027544
v -0.15149587 0.04597474 0.09828304
v -0.15143820 0.04723799 0.09895411
v -0.15163382 0.04450476 0.09934367
v -0.15171660 0.04502714 0.10110742
v -0.15179415 0.04672086 0.10124727
v -0.15187417 0.04753316 0.10005846
v -0.15202275 0.04579571 0.09831567
v -0.15193075 0.04710731 0.09876591
v -0.15244822 0.04677716 0.09841217
v -0.15255940 0.04483926 0.09882511
v -0.16555065 0.04723599 0.09901384
v -0.16555495 0.04471771 0.09918499
v -0.16555630 0.04481039 0.10066289
v -0.16556515 0.04622474 0.10131591
v -0.16554475 0.04723891 0.10058996
f 5 6 4
f 3 6 8
f 36 14 37
f 37 33 36
f 14 33 37
f 8 6 34
f 34 33 8
f 36 33 34
f 6 5 34
f 26 11 10
f 10 11 5
f 12 14 36
f 36 5 12
f 5 11 12
f 32 25 6
f 6 3 32
f 3 29 32
f 35 5 36
f 36 34 35
f 35 34 5
f 14 2 7
f 8 33 7
f 7 33 14
f 26 10 16
f 16 25 19
f 21 11 26
f 26 16 21
f 19 25 20
f 25 32 20
f 23 29 3
f 23 18 19
f 24 18 23
f 19 20 23
f 23 32 29
f 23 20 32
f 1 2 24
f 1 7 2
f 24 30 1
f 8 7 1
f 1 3 8
f 1 23 3
f 25 16 9
f 4 6 9
f 6 25 9
f 9 16 10
f 9 5 4
f 9 10 5
f 14 12 13
f 13 12 11
f 15 16 19
f 15 21 16
f 31 1 30
f 23 1 31
f 31 30 24
f 24 23 31
f 11 21 27
f 27 13 11
f 19 18 17
f 17 15 19
f 17 18 24
f 21 15 17
f 22 17 24
f 13 27 22
f 22 27 21
f 21 17 22
f 22 2 14
f 14 13 22
f 24 2 28
f 28 22 24
f 2 22 28

