# https://github.com/mikedh/trimesh
v 0.17043803 0.00927450 0.11540411
v 0.17776102 0.01819446 0.10809694
v 0.17039727 0.02831876 0.10588469
v 0.18084065 0.02637654 0.09934474
v 0.17149053 0.03683859 0.09493996
v 0.17792371 0.03632034 0.08789124
v 0.17673832 0.03923086 0.07968311
v 0.17021010 0.04264281 0.07950029
v 0.19567080 0.01598589 0.06668687
v 0.19716318 0.01318949 0.07168224
v 0.19738417 0.00466373 0.06165086
v 0.19880450 0.00291797 0.07035087
v 0.19876674 -0.00466109 0.07095927
v 0.19700407 -0.00696513 0.06172729
v 0.19634060 -0.01377447 0.06653908
v 0.18303020 -0.03502061 0.07010381
v 0.18087694 -0.03702356 0.07554782
v 0.17341378 -0.04033594 0.06252922
v 0.17105041 -0.04274656 0.07252174
v 0.17213322 -0.03513791 0.04974009
v 0.17509354 -0.02823384 0.04385241
v 0.17844962 -0.00526083 0.03488932
v 0.17237863 0.00298209 0.03117121
v 0.18272637 0.00233443 0.03795378
v 0.18606727 -0.00465898 0.04129810
v 0.18839600 0.00754673 0.04467021
v 0.19283300 0.00298081 0.05014989
v 0.19366435 -0.00496946 0.05192236
v 0.17466532 0.01322957 0.03442551
v 0.18148668 0.01380117 0.03943662
v 0.19341218 0.01383101 0.05562265
v 0.18768645 0.01821906 0.04862535
v 0.16943836 0.02240274 0.03596163
v 0.17478055 0.02686651 0.04235133
v 0.18038173 0.02636104 0.04676362
v 0.18966395 0.02436044 0.05952507
v 0.19198047 0.02440381 0.06931306
v 0.18390403 0.02820159 0.05369481
v 0.18439082 0.03176011 0.06149430
v 0.18636835 0.03179069 0.06989822
v 0.17160455 0.03559474 0.04983561
v 0.17853427 0.03500261 0.05706178
v 0.17906453 0.03800066 0.06788808
v 0.17201355 0.04073751 0.06168792
v 0.17149796 0.04253806 0.07242338
v 0.17007821 -0.04041746 0.08838791
v 0.17258734 -0.04155559 0.07955797
v 0.17737647 -0.03790719 0.08394404
v 0.17349479 -0.03514631 0.09574434
v 0.18275567 -0.03007084 0.09213364
v 0.18439082 -0.03175694 0.08509309
v 0.17049837 -0.02832019 0.10582444
v 0.17959052 -0.02682209 0.10013736
v 0.18935715 -0.02823617 0.07700027
v 0.18819165 -0.02873729 0.06461308
v 0.19050020 -0.02198559 0.08912892
v 0.16865182 -0.01871463 0.11288486
v 0.17574625 -0.02076944 0.10788317
v 0.18560017 -0.02027289 0.09897019
v 0.19421179 -0.02031707 0.07750871
v 0.19355593 -0.02031618 0.06478982
v 0.18093517 -0.01598453 0.10651799
v 0.17290232 -0.01096433 0.11380361
v 0.18811826 -0.01153430 0.10093521
v 0.19294580 -0.01153358 0.09317329
v 0.19611372 -0.01153312 0.08459937
v 0.19802432 -0.00917447 0.07776702
v 0.18423655 -0.00702722 0.10670217
v 0.17076657 -0.00233188 0.11610739
v 0.17899902 -0.00233143 0.11152502
v 0.19283299 -0.00297760 0.09643749
v 0.19615630 0.00000053 0.08950759
v 0.18613725 0.00232951 0.10538604
v 0.19814330 0.00297823 0.08208304
v 0.18489137 0.02825561 0.09121762
v 0.18203397 0.03534269 0.08045876
v 0.18009198 0.00751342 0.11013886
v 0.19269900 0.00702647 0.09575472
v 0.18672805 0.01157670 0.10272081
v 0.19553872 0.01157775 0.08678847
v 0.19695817 0.01209159 0.07952882
v 0.18839537 0.01603786 0.09828681
v 0.18914697 0.02033277 0.09361327
v 0.19299595 0.02099252 0.08315672
v 0.17056915 -0.00696300 0.03090162
v 0.18672803 -0.01157351 0.04386652
v 0.17659670 -0.01760054 0.03740894
v 0.16964455 -0.01597950 0.03301281
v 0.18839537 -0.01603471 0.04830056
v 0.17970870 -0.02026902 0.04140656
v 0.19268445 -0.01603506 0.05606436
v 0.18378922 -0.02435449 0.04892388
v 0.18804660 -0.02435502 0.05574822
v 0.18048340 -0.03127196 0.05305477
v 0.18004932 -0.03506811 0.05963089
v 0.18819163 0.02874049 0.08197424
v 0.15404949 -0.00319420 0.12466666
v 0.15035852 -0.00179418 0.12505959
v 0.15035840 -0.01890013 0.12136893
v 0.15404937 -0.01993426 0.12059814
v 0.15035834 -0.02994901 0.11526111
v 0.15404937 -0.03262821 0.11292249
v 0.15035854 -0.04072191 0.10530198
v 0.15404930 -0.04097581 0.10404961
v 0.15404946 -0.04837306 0.09088034
v 0.15035834 -0.04804984 0.09198496
v 0.15035852 -0.05160336 0.07775071
v 0.15404937 -0.05132841 0.07390846
v 0.15035834 -0.05043509 0.06259566
v 0.15404947 -0.04872741 0.05671407
v 0.15035840 -0.04657821 0.05095926
v 0.15404949 -0.03887781 0.03956254
v 0.15035855 -0.03668204 0.03672531
v 0.15404937 -0.02548099 0.02873154
v 0.15035841 -0.02233007 0.02671255
v 0.15404947 -0.00918978 0.02264869
v 0.15035835 -0.01033328 0.02278136
v 0.15035853 0.00429629 0.02167499
v 0.15404938 0.00803773 0.02259294
v 0.15035841 0.02120417 0.02618789
v 0.15404938 0.02219968 0.02700771
v 0.15035855 0.03567292 0.03573718
v 0.15404947 0.03646019 0.03695956
v 0.15035835 0.04484811 0.04785567
v 0.15404950 0.04747011 0.05339048
v 0.15035853 0.05042101 0.06142711
v 0.15404947 0.05147111 0.07275998
v 0.15035835 0.05145474 0.07659179
v 0.15035841 0.04931969 0.08866339
v 0.15404930 0.04931954 0.08717939
v 0.15404937 0.04455811 0.09878609
v 0.15035835 0.04402834 0.10012554
v 0.15035855 0.03487561 0.11159166
v 0.15404937 0.03540814 0.11046254
v 0.15404937 0.02330155 0.11903491
v 0.15035852 0.01785903 0.12191514
v 0.15404930 0.01183341 0.12314429
f 2 82 4
f 108 47 105
f 110 18 108
f 101 106 103
f 103 106 105
f 110 108 109
f 101 100 99
f 102 100 101
f 101 103 102
f 63 100 57
f 114 115 116
f 21 112 114
f 21 87 90
f 114 87 21
f 61 60 54
f 83 4 82
f 2 4 3
f 3 135 2
f 134 135 3
f 127 126 128
f 126 124 128
f 127 128 130
f 130 128 129
f 130 6 7
f 130 129 131
f 131 6 130
f 132 134 131
f 131 129 132
f 132 99 136
f 129 128 132
f 101 99 132
f 105 47 48
f 51 50 48
f 48 50 49
f 56 50 51
f 51 54 56
f 56 54 60
f 105 49 104
f 104 103 105
f 104 102 103
f 104 49 52
f 52 102 104
f 106 109 107
f 107 109 108
f 105 106 107
f 107 108 105
f 111 112 110
f 110 109 111
f 111 109 115
f 80 83 82
f 69 63 70
f 79 82 2
f 2 77 79
f 73 77 70
f 73 79 77
f 118 116 117
f 117 116 115
f 117 120 118
f 124 120 117
f 115 109 117
f 114 116 88
f 88 87 114
f 118 120 119
f 119 116 118
f 119 23 116
f 26 31 27
f 27 25 26
f 28 25 27
f 125 126 127
f 125 124 126
f 125 123 124
f 112 21 20
f 110 112 20
f 20 18 110
f 15 60 61
f 15 67 60
f 61 54 55
f 17 48 47
f 17 54 51
f 51 48 17
f 92 21 90
f 90 89 92
f 28 14 91
f 91 89 28
f 91 15 61
f 14 15 91
f 86 89 90
f 90 87 86
f 28 89 86
f 86 25 28
f 86 87 22
f 22 25 86
f 9 31 36
f 36 37 9
f 4 83 75
f 75 6 4
f 5 3 4
f 5 6 131
f 4 6 5
f 131 134 5
f 134 3 5
f 7 6 76
f 76 43 7
f 76 75 96
f 6 75 76
f 127 130 8
f 8 130 7
f 133 132 136
f 134 132 133
f 136 135 133
f 133 135 134
f 46 49 105
f 105 48 46
f 46 48 49
f 60 67 66
f 66 56 60
f 112 111 113
f 113 111 115
f 114 112 113
f 113 115 114
f 81 80 74
f 12 81 74
f 83 80 84
f 96 75 84
f 84 75 83
f 84 80 81
f 84 37 96
f 58 63 57
f 58 62 63
f 58 102 52
f 57 100 58
f 100 102 58
f 97 99 100
f 100 63 97
f 63 69 97
f 70 77 1
f 1 69 70
f 1 97 69
f 1 77 2
f 2 135 1
f 82 79 78
f 78 80 82
f 78 73 71
f 79 73 78
f 68 73 70
f 70 63 68
f 63 62 68
f 71 73 68
f 22 87 85
f 87 88 85
f 85 88 116
f 85 23 22
f 116 23 85
f 11 14 28
f 28 27 11
f 11 27 31
f 31 9 11
f 32 31 26
f 26 30 32
f 36 31 32
f 23 119 29
f 24 25 22
f 22 23 24
f 26 25 24
f 24 30 26
f 23 29 24
f 24 29 30
f 122 120 124
f 124 123 122
f 39 37 36
f 7 43 45
f 127 8 45
f 45 8 7
f 67 15 13
f 13 15 14
f 12 74 13
f 13 74 67
f 13 11 12
f 14 11 13
f 47 108 19
f 19 17 47
f 19 108 18
f 18 17 19
f 16 17 18
f 16 55 54
f 54 17 16
f 94 20 21
f 21 92 94
f 93 92 89
f 89 91 93
f 55 94 93
f 93 94 92
f 61 55 93
f 93 91 61
f 10 81 12
f 12 11 10
f 10 11 9
f 10 9 37
f 10 84 81
f 37 84 10
f 56 66 65
f 62 58 53
f 53 58 52
f 52 49 53
f 49 50 53
f 136 99 98
f 99 97 98
f 97 1 137
f 136 98 137
f 137 98 97
f 137 135 136
f 137 1 135
f 72 74 80
f 80 78 72
f 72 78 71
f 71 65 72
f 72 65 66
f 72 66 67
f 67 74 72
f 121 119 120
f 121 29 119
f 120 122 121
f 121 122 123
f 37 39 40
f 40 39 43
f 43 76 40
f 96 37 40
f 40 76 96
f 43 39 42
f 55 16 95
f 95 94 55
f 95 16 18
f 18 20 95
f 20 94 95
f 64 68 62
f 71 68 64
f 64 65 71
f 29 121 33
f 34 30 33
f 30 29 33
f 33 123 34
f 33 121 123
f 35 30 34
f 35 32 30
f 123 125 41
f 125 42 41
f 34 123 41
f 41 35 34
f 42 35 41
f 44 42 125
f 43 42 44
f 44 125 127
f 127 45 44
f 44 45 43
f 62 53 59
f 59 64 62
f 50 56 59
f 59 53 50
f 56 65 59
f 65 64 59
f 38 42 39
f 38 35 42
f 38 39 36
f 36 32 38
f 32 35 38
f 117 106 101
f 101 132 117
f 117 109 106
f 117 128 124
f 117 132 128

