# https://github.com/mikedh/trimesh
v -0.03826475 0.06706721 0.06848072
v -0.03803815 0.06792098 0.06662202
v -0.03904877 0.06774141 0.06612755
v -0.03760975 0.06811605 0.06596988
v -0.03740465 0.06732048 0.06653288
v -0.03711255 0.06683590 0.06574196
v -0.03800072 0.06601933 0.06613569
v -0.03774202 0.06583258 0.06566333
v -0.03944037 0.06622223 0.06547223
v -0.03782032 0.06615670 0.06648023
v -0.03913605 0.06831858 0.06533291
v -0.03666527 0.06748615 0.04813023
v -0.03688539 0.06790090 0.04809714
v -0.03589837 0.06856918 0.04914626
v -0.03716360 0.06941073 0.04884513
v -0.03863754 0.06858835 0.04805846
v -0.03911930 0.06852605 0.04805834
v -0.03858327 0.06987463 0.04952154
v -0.03978714 0.06941773 0.04937671
v -0.04103182 0.06706423 0.04913305
v -0.03983737 0.06663705 0.04813069
v -0.04054312 0.06543965 0.04923466
v -0.03719942 0.06448450 0.04916095
v -0.03908695 0.06454495 0.04891563
v -0.03789907 0.06551126 0.04804467
v -0.03743097 0.06572583 0.04808385
v -0.03632377 0.06632751 0.04833417
v -0.03544224 0.06722958 0.04957252
v -0.03590162 0.06546053 0.04941595
v -0.04066945 0.06855096 0.04948421
v -0.03962290 0.06622145 0.04809995
v -0.03871312 0.06433755 0.04966671
v -0.03694774 0.06943203 0.04960818
v -0.04085197 0.06641073 0.04963542
v -0.03972692 0.06689088 0.06443402
v -0.03897287 0.06576775 0.06465897
v -0.03775147 0.06564148 0.06476048
v -0.03674942 0.06684000 0.06492487
v -0.03745850 0.06832668 0.06516117
v -0.03859115 0.06556745 0.06363218
v -0.03729157 0.06594898 0.06376608
v -0.03675597 0.06736913 0.06394279
v -0.03780250 0.06846718 0.06413608
f 21 22 20
f 18 39 33
f 32 22 24
f 17 21 20
f 17 19 18
f 34 22 9
f 9 35 34
f 20 22 34
f 34 35 20
f 3 9 1
f 3 35 9
f 1 9 7
f 36 7 9
f 8 7 36
f 36 22 32
f 9 22 36
f 14 12 13
f 14 33 39
f 14 42 28
f 39 42 14
f 18 33 15
f 15 14 13
f 33 14 15
f 23 24 25
f 32 24 23
f 22 21 31
f 31 24 22
f 25 24 31
f 31 17 25
f 21 17 31
f 29 23 27
f 28 29 27
f 27 14 28
f 12 14 27
f 25 13 26
f 13 12 26
f 12 27 26
f 26 23 25
f 26 27 23
f 16 13 25
f 25 17 16
f 16 15 13
f 16 17 18
f 18 15 16
f 30 17 20
f 19 17 30
f 20 35 30
f 8 36 37
f 32 23 37
f 41 8 37
f 37 29 41
f 37 23 29
f 38 42 39
f 39 5 38
f 38 8 41
f 38 5 1
f 41 29 38
f 38 29 28
f 28 42 38
f 4 2 1
f 1 5 4
f 4 5 39
f 43 39 18
f 19 30 11
f 18 19 11
f 11 30 35
f 11 43 18
f 35 3 11
f 39 43 11
f 11 3 1
f 1 2 11
f 11 4 39
f 2 4 11
f 40 36 32
f 32 37 40
f 40 37 36
f 8 38 10
f 1 7 10
f 10 7 8
f 6 38 1
f 1 10 6
f 6 10 38

