# https://github.com/mikedh/trimesh
v 0.15960692 -0.19591803 -0.04673216
v 0.15683777 -0.19794979 -0.04555196
v 0.15969157 -0.19848056 -0.04708021
v 0.16239402 -0.19843272 -0.05132891
v 0.16251950 -0.19687181 -0.05213151
v 0.16165130 -0.19771589 -0.05193696
v 0.16299945 -0.19860236 -0.05105971
v 0.16208066 -0.19689666 -0.05229556
v 0.16294804 -0.19818241 -0.04979719
v 0.15781147 -0.19519224 -0.05109661
v 0.15539817 -0.19443079 -0.04888954
v 0.15856617 -0.19441824 -0.04986939
v 0.16183596 -0.19606427 -0.05175941
v 0.15812554 -0.19899689 -0.05081159
v 0.15474684 -0.19720789 -0.05053261
v 0.15780969 -0.19724971 -0.05167944
v 0.16356459 -0.19720924 -0.04941296
v 0.15951055 -0.19491272 -0.04761499
v 0.15608317 -0.19958281 -0.04724589
v 0.16288645 -0.19534106 -0.05076344
v 0.16292537 -0.19583388 -0.05132559
v 0.16349012 -0.19576076 -0.05044206
v 0.16361500 -0.19648133 -0.04990384
v 0.15656222 -0.19496829 -0.04618669
v 0.15879012 -0.19969411 -0.04921584
v 0.15622596 -0.19631991 -0.04680811
v 0.16309952 -0.19658621 -0.05200416
v 0.15521017 -0.19920861 -0.04932159
v 0.16363136 -0.19790941 -0.05032451
v 0.15531854 -0.19625814 -0.04904149
v 0.16319832 -0.19808024 -0.05138869
f 3 1 2
f 2 19 3
f 3 19 25
f 15 11 10
f 10 11 12
f 20 10 12
f 18 20 12
f 15 14 28
f 25 19 28
f 28 14 25
f 9 3 25
f 1 3 17
f 17 9 29
f 3 9 17
f 16 14 15
f 15 10 16
f 16 10 8
f 25 14 7
f 29 9 7
f 7 9 25
f 2 1 24
f 1 18 24
f 12 11 24
f 24 18 12
f 30 11 15
f 15 28 30
f 29 27 22
f 20 18 22
f 22 18 1
f 10 20 13
f 8 10 13
f 13 27 8
f 6 16 8
f 14 16 6
f 31 27 29
f 29 7 31
f 31 6 8
f 26 24 11
f 2 24 26
f 11 30 26
f 26 30 28
f 26 28 19
f 26 19 2
f 23 22 1
f 1 17 23
f 23 17 29
f 29 22 23
f 21 13 20
f 27 13 21
f 20 22 21
f 21 22 27
f 4 7 14
f 14 6 4
f 4 31 7
f 6 31 4
f 8 27 5
f 5 31 8
f 27 31 5

