# https://github.com/mikedh/trimesh
v 0.20429056 -0.14468320 0.06848074
v 0.20432878 -0.14380066 0.06662203
v 0.20338016 -0.14419286 0.06612757
v 0.20470538 -0.14351825 0.06596989
v 0.20507636 -0.14425134 0.06653290
v 0.20546553 -0.14466194 0.06574197
v 0.20477317 -0.14565007 0.06613572
v 0.20506592 -0.14577701 0.06566334
v 0.20332351 -0.14576069 0.06547224
v 0.20491991 -0.14547716 0.06648025
v 0.20317111 -0.14364781 0.06533293
v 0.20576294 -0.14393094 0.04813025
v 0.20546131 -0.14357191 0.04809820
v 0.20633762 -0.14271360 0.04921504
v 0.20489815 -0.14207376 0.04894453
v 0.20357607 -0.14325037 0.04809092
v 0.20316623 -0.14343904 0.04805732
v 0.20347944 -0.14201005 0.04933178
v 0.20224054 -0.14276594 0.04952046
v 0.20219971 -0.14459199 0.04834327
v 0.20284682 -0.14544064 0.04813071
v 0.20213149 -0.14646181 0.04917286
v 0.20588589 -0.14700414 0.04920245
v 0.20402849 -0.14732308 0.04891565
v 0.20499785 -0.14614017 0.04805703
v 0.20537236 -0.14577637 0.04807243
v 0.20634501 -0.14498944 0.04833420
v 0.20148352 -0.14441304 0.04951676
v 0.20700889 -0.14390969 0.04953912
v 0.20697441 -0.14565950 0.04950028
v 0.20316286 -0.14579125 0.04809220
v 0.20279932 -0.14707790 0.04960989
v 0.20484939 -0.14208365 0.04964376
v 0.20553716 -0.14710132 0.04963435
v 0.20301035 -0.14554354 0.06448017
v 0.20492013 -0.14608533 0.06477237
v 0.20581742 -0.14459162 0.06491846
v 0.20480790 -0.14328014 0.06516119
v 0.20290766 -0.14521829 0.06340694
v 0.20422321 -0.14620386 0.06362393
v 0.20547765 -0.14556694 0.06376633
v 0.20569949 -0.14406474 0.06394280
v 0.20444179 -0.14321663 0.06413609
f 28 20 22
f 25 23 24
f 39 11 28
f 3 9 1
f 1 11 3
f 43 11 38
f 19 20 28
f 17 20 19
f 28 11 19
f 32 22 24
f 9 22 32
f 24 22 31
f 31 25 24
f 17 25 31
f 13 25 17
f 24 23 34
f 24 34 36
f 36 34 23
f 35 22 9
f 11 39 35
f 28 22 35
f 35 39 28
f 9 3 35
f 35 3 11
f 2 11 1
f 27 30 23
f 29 30 27
f 17 19 18
f 18 33 15
f 18 11 43
f 18 19 11
f 43 38 18
f 38 33 18
f 21 22 20
f 21 31 22
f 21 20 17
f 17 31 21
f 16 13 17
f 15 13 16
f 17 18 16
f 16 18 15
f 14 13 15
f 15 33 14
f 29 27 14
f 14 33 38
f 14 42 29
f 14 38 42
f 1 9 7
f 9 36 7
f 29 42 37
f 37 30 29
f 42 38 37
f 38 5 37
f 37 5 1
f 9 32 40
f 40 36 9
f 40 32 24
f 24 36 40
f 1 5 4
f 4 5 38
f 4 2 1
f 4 38 11
f 11 2 4
f 23 25 26
f 26 27 23
f 25 13 26
f 30 37 41
f 23 30 41
f 41 36 23
f 1 7 10
f 12 26 13
f 27 26 12
f 13 14 12
f 12 14 27
f 8 41 37
f 37 10 8
f 36 41 8
f 8 7 36
f 8 10 7
f 6 37 1
f 1 10 6
f 6 10 37

