# https://github.com/mikedh/trimesh
v -0.20306901 -0.07185628 0.06848070
v -0.20329556 -0.07271008 0.06662201
v -0.20231220 -0.07242116 0.06600757
v -0.20372400 -0.07290516 0.06596987
v -0.20392911 -0.07210956 0.06653288
v -0.20432765 -0.07170561 0.06581209
v -0.20333301 -0.07080841 0.06613569
v -0.20359167 -0.07062163 0.06566332
v -0.20189332 -0.07101133 0.06547221
v -0.20351345 -0.07094584 0.06648023
v -0.20219771 -0.07310768 0.06533290
v -0.20466849 -0.07227523 0.04813021
v -0.20442933 -0.07268358 0.04808857
v -0.20541410 -0.07335663 0.04911657
v -0.20422193 -0.07427474 0.04894448
v -0.20267843 -0.07340899 0.04809088
v -0.20224215 -0.07331399 0.04805634
v -0.20262496 -0.07464153 0.04942028
v -0.20118975 -0.07394304 0.04957520
v -0.20104634 -0.07239376 0.04834326
v -0.20149635 -0.07142614 0.04813067
v -0.20160536 -0.07095013 0.04807917
v -0.20038997 -0.07107849 0.04953866
v -0.20156151 -0.06944986 0.04948913
v -0.20439352 -0.06930361 0.04929784
v -0.20336467 -0.06895656 0.04952586
v -0.20344736 -0.07028156 0.04805699
v -0.20388743 -0.07053679 0.04807724
v -0.20496320 -0.07127986 0.04826682
v -0.20567588 -0.07055984 0.04946521
v -0.20042430 -0.07274714 0.04931565
v -0.20575613 -0.07264456 0.04956114
v -0.20417244 -0.07427546 0.04964373
v -0.20163407 -0.07129049 0.06448015
v -0.20339660 -0.07035261 0.06477998
v -0.20457994 -0.07161826 0.06491842
v -0.20387522 -0.07311574 0.06516116
v -0.20160350 -0.07163023 0.06340693
v -0.20274233 -0.07035596 0.06363376
v -0.20404226 -0.07073814 0.06376607
v -0.20457772 -0.07215824 0.06394278
v -0.20352678 -0.07325751 0.06413922
f 19 31 11
f 41 36 32
f 41 37 36
f 32 36 30
f 30 29 32
f 23 22 24
f 24 9 23
f 26 24 27
f 27 24 22
f 27 22 17
f 18 17 19
f 19 11 18
f 14 41 32
f 37 41 14
f 32 29 14
f 13 27 17
f 15 14 13
f 19 17 20
f 20 31 19
f 20 22 23
f 23 31 20
f 3 9 1
f 1 11 3
f 3 11 9
f 2 11 1
f 9 11 34
f 23 9 34
f 34 31 23
f 36 37 6
f 37 5 6
f 6 5 1
f 27 13 28
f 33 18 37
f 15 18 33
f 37 14 33
f 33 14 15
f 42 11 37
f 37 18 42
f 42 18 11
f 16 13 17
f 15 13 16
f 17 18 16
f 16 18 15
f 17 22 21
f 21 20 17
f 22 20 21
f 37 11 4
f 11 2 4
f 4 2 1
f 1 5 4
f 4 5 37
f 38 11 31
f 31 34 38
f 38 34 11
f 1 9 7
f 9 35 7
f 39 35 9
f 9 24 39
f 39 24 26
f 26 35 39
f 40 30 36
f 29 30 25
f 25 28 29
f 25 35 26
f 26 27 25
f 27 28 25
f 30 40 25
f 25 40 35
f 29 28 12
f 12 28 13
f 12 14 29
f 12 13 14
f 10 6 1
f 1 7 10
f 8 7 35
f 8 10 7
f 35 40 8
f 8 40 36
f 36 6 8
f 6 10 8

