# https://github.com/mikedh/trimesh
v 0.14691267 -0.02258721 -0.00424786
v 0.14711267 -0.02302549 -0.00605202
v 0.14710118 -0.02080454 -0.00306344
v 0.14709350 -0.01765956 -0.00549984
v 0.14428783 -0.01762018 -0.00566872
v 0.14710392 -0.01850361 -0.00381506
v 0.14432685 -0.01931627 -0.00313676
v 0.14430480 -0.02241424 -0.00399574
v 0.14430073 -0.02291160 -0.00636259
v 0.14434238 -0.02144669 -0.00829399
v 0.14709745 -0.02130803 -0.00833896
v 0.14429207 -0.01870897 -0.00802454
v 0.14709446 -0.01842438 -0.00777549
v 0.13268486 -0.02181102 -0.00530761
v 0.13260221 -0.02094082 -0.00681847
v 0.13283635 -0.02159692 -0.00665674
v 0.13238251 -0.01980317 -0.00666616
v 0.13270753 -0.02050799 -0.00716922
v 0.13273153 -0.01917299 -0.00620299
v 0.13239378 -0.01998521 -0.00480046
v 0.13279510 -0.01935449 -0.00503276
v 0.13285332 -0.02046000 -0.00454292
v 0.13297055 -0.01924062 -0.00691097
v 0.13303328 -0.01879127 -0.00563979
v 0.13308943 -0.01952168 -0.00441004
v 0.13322888 -0.02132964 -0.00455401
v 0.13331110 -0.02179794 -0.00633379
v 0.13338920 -0.02042365 -0.00733139
v 0.13357065 -0.01888801 -0.00508667
v 0.13362372 -0.02078685 -0.00419604
v 0.13376593 -0.02187263 -0.00613117
v 0.13396575 -0.01883321 -0.00646569
v 0.13428725 -0.02194725 -0.00583807
v 0.14715097 -0.01885736 -0.00580319
v 0.14714753 -0.02096659 -0.00443884
v 0.14716810 -0.02176100 -0.00573123
v 0.14715136 -0.02108978 -0.00698926
v 0.14715136 -0.01964965 -0.00705469
f 2 9 11
f 3 2 36
f 6 4 5
f 7 3 6
f 5 12 32
f 32 24 5
f 11 9 10
f 9 16 10
f 10 12 11
f 37 38 36
f 11 38 37
f 36 2 37
f 37 2 11
f 13 12 5
f 5 4 13
f 11 12 13
f 13 38 11
f 9 2 8
f 35 3 36
f 35 6 3
f 4 6 34
f 34 13 4
f 38 13 34
f 6 35 34
f 36 38 34
f 34 35 36
f 28 10 16
f 12 10 28
f 7 6 29
f 5 24 29
f 29 6 5
f 2 3 1
f 1 8 2
f 3 8 1
f 9 8 14
f 23 32 12
f 12 28 23
f 17 19 23
f 24 32 23
f 23 19 24
f 18 28 16
f 17 23 18
f 18 23 28
f 27 16 9
f 27 14 16
f 17 14 20
f 20 19 17
f 20 21 24
f 24 19 20
f 17 18 15
f 15 18 16
f 15 14 17
f 16 14 15
f 31 27 9
f 14 27 31
f 21 20 25
f 7 29 25
f 24 21 25
f 25 29 24
f 9 14 33
f 33 31 9
f 14 31 33
f 7 25 30
f 30 8 3
f 30 3 7
f 22 25 20
f 22 30 25
f 22 20 14
f 26 14 8
f 8 30 26
f 26 22 14
f 30 22 26

