# https://github.com/mikedh/trimesh
v 0.20708578 0.19955287 0.11012584
v 0.20362401 0.19783753 0.10975361
v 0.20406408 0.19951157 0.11134146
v 0.20636852 0.19697803 0.10845584
v 0.20014774 0.19748471 0.11506259
v 0.19954361 0.19751741 0.11316671
v 0.19977883 0.19598201 0.11412222
v 0.20106636 0.19649866 0.11531719
v 0.20064623 0.19725048 0.11519347
v 0.19969958 0.19739391 0.11264049
v 0.20711541 0.19443558 0.11019379
v 0.20439453 0.19422461 0.11210312
v 0.20346615 0.19605156 0.10998509
v 0.20023419 0.19589269 0.11285819
v 0.20019964 0.19849789 0.11362767
v 0.20122774 0.19833486 0.11460612
v 0.19974071 0.19605482 0.11307944
v 0.20041586 0.19822779 0.11294882
v 0.20084803 0.19809586 0.11498294
v 0.20013913 0.19828491 0.11416882
v 0.20039068 0.19549496 0.11459836
v 0.20508616 0.19925953 0.11369157
v 0.20554171 0.19688928 0.11481569
v 0.20850456 0.19704616 0.11368967
v 0.20800943 0.19927744 0.11234474
v 0.20800202 0.19755174 0.11221036
v 0.20757454 0.19840099 0.11119149
v 0.20800359 0.19468166 0.11226829
v 0.20728705 0.19562096 0.11053319
v 0.20522013 0.19528649 0.11417769
v 0.20794480 0.19614293 0.11208079
v 0.20704665 0.19766868 0.10993314
f 12 13 11
f 11 13 4
f 2 1 4
f 4 13 2
f 17 7 6
f 23 30 24
f 8 30 23
f 12 11 28
f 28 30 12
f 24 30 28
f 21 30 8
f 12 30 21
f 21 17 12
f 7 17 21
f 1 2 3
f 6 7 5
f 5 21 8
f 7 21 5
f 29 11 4
f 29 28 11
f 31 28 29
f 10 17 6
f 13 17 10
f 10 2 13
f 14 13 12
f 12 17 14
f 14 17 13
f 6 5 20
f 8 23 9
f 9 5 8
f 22 23 24
f 24 25 22
f 1 3 22
f 22 25 1
f 4 1 32
f 32 29 4
f 31 29 32
f 15 10 6
f 6 20 15
f 15 22 3
f 15 20 16
f 16 22 15
f 18 3 2
f 2 10 18
f 18 15 3
f 10 15 18
f 16 20 19
f 19 20 5
f 5 9 19
f 19 9 23
f 19 22 16
f 23 22 19
f 1 25 27
f 27 32 1
f 31 32 26
f 32 27 26
f 26 27 25
f 26 25 24
f 24 28 26
f 26 28 31

