# https://github.com/mikedh/trimesh
v 0.19178496 0.19784393 0.10451074
v 0.19101691 0.19784391 0.10059887
v 0.19422559 0.18947779 0.10829387
v 0.19476129 0.19784391 0.10963864
v 0.19253829 0.19784393 0.10632939
v 0.19740899 0.19092520 0.11603072
v 0.19740899 0.18114064 0.11603072
v 0.19476129 0.17422188 0.10963864
v 0.19158733 0.18258801 0.10192924
v 0.19101691 0.17422189 0.10059887
v 0.18836922 0.18114064 0.09420679
v 0.18836922 0.19092521 0.09420679
v 0.18956199 0.19784391 0.10120152
v 0.19177572 0.19463084 0.10654599
v 0.19330636 0.19784391 0.11024129
v 0.19595406 0.19092520 0.11663337
v 0.19595406 0.18114064 0.11663337
v 0.19330636 0.17422189 0.11024129
v 0.19175556 0.17760516 0.10649734
v 0.18956199 0.17422189 0.10120152
v 0.18691429 0.18114064 0.09480944
v 0.18691429 0.19092521 0.09480944
f 22 15 13
f 6 3 4
f 9 3 8
f 12 3 9
f 15 22 14
f 13 15 1
f 2 3 12
f 2 4 3
f 13 1 2
f 2 22 13
f 12 22 2
f 7 3 6
f 8 3 7
f 16 15 19
f 18 17 19
f 19 17 16
f 15 14 19
f 21 20 19
f 19 20 18
f 19 22 21
f 19 14 22
f 10 9 8
f 10 20 21
f 15 4 5
f 5 1 15
f 4 2 5
f 5 2 1
f 11 10 21
f 12 9 11
f 9 10 11
f 4 16 6
f 4 15 16
f 6 16 7
f 16 17 7
f 7 17 18
f 7 18 8
f 8 18 10
f 18 20 10
f 11 22 12
f 21 22 11

