# https://github.com/mikedh/trimesh
v 0.11553811 0.16760882 0.08558033
v 0.11566721 0.16673647 0.08547436
v 0.11694548 0.16759959 0.08776608
v 0.11710066 0.16673517 0.08771398
v 0.11954694 0.16759984 0.08765069
v 0.11948851 0.16671844 0.08748236
v 0.12062516 0.16672756 0.08541659
v 0.12075553 0.16760519 0.08529961
v 0.11919173 0.16674364 0.08317704
v 0.11932731 0.16760282 0.08311858
v 0.11662809 0.16761554 0.08330108
v 0.11680386 0.16670857 0.08340864
v 0.11793878 0.16844817 0.08309471
v 0.11981266 0.16837929 0.08373596
v 0.12013031 0.16844901 0.08673716
v 0.11831450 0.16843176 0.08780153
v 0.11927806 0.16874694 0.08308491
v 0.11545239 0.16875022 0.08562998
v 0.11781076 0.16956584 0.08308981
v 0.11668193 0.16878085 0.08315724
v 0.12086287 0.16880231 0.08526006
v 0.11689328 0.16879782 0.08787626
v 0.11958543 0.16991082 0.08772341
v 0.11931067 0.16986889 0.08310578
v 0.11618176 0.17066527 0.08676786
v 0.11607388 0.17067854 0.08423796
v 0.11825056 0.17062907 0.08307818
v 0.12012531 0.17063472 0.08412338
v 0.12084740 0.16991494 0.08525018
v 0.11549491 0.17099301 0.08562216
v 0.11960450 0.17098102 0.08763636
v 0.12073616 0.17095817 0.08530916
v 0.11924193 0.17097772 0.08306801
v 0.11672163 0.17099037 0.08323276
v 0.11592133 0.17201349 0.08607433
v 0.11682694 0.17194231 0.08740741
v 0.11624045 0.17167799 0.08399161
v 0.11823623 0.17168124 0.08307171
v 0.12016953 0.17191819 0.08429246
v 0.12026824 0.17172877 0.08652971
v 0.11848458 0.17167844 0.08778304
v 0.11694179 0.17099321 0.08787096
v 0.11992818 0.17211067 0.08723026
v 0.11908178 0.17211067 0.08319049
v 0.11640346 0.17211067 0.08370048
v 0.11657019 0.17208611 0.08622839
v 0.11798749 0.16640477 0.08695476
v 0.11681623 0.16659154 0.08562016
v 0.11910921 0.16644635 0.08662931
v 0.11968238 0.16648479 0.08513103
v 0.11755223 0.16659521 0.08404179
v 0.11854316 0.16653091 0.08400841
f 18 22 25
f 46 43 45
f 45 35 46
f 43 46 36
f 36 46 35
f 26 11 18
f 45 26 37
f 18 25 30
f 30 25 35
f 30 26 18
f 30 37 26
f 30 35 45
f 45 37 30
f 41 16 23
f 43 36 41
f 35 25 42
f 42 36 35
f 42 25 22
f 42 41 36
f 22 16 42
f 16 41 42
f 39 32 29
f 40 39 43
f 40 32 39
f 40 29 32
f 40 43 21
f 21 29 40
f 43 39 44
f 45 43 44
f 43 23 15
f 21 43 15
f 9 11 20
f 20 26 45
f 11 26 20
f 4 16 22
f 12 11 9
f 12 2 11
f 18 11 1
f 11 2 1
f 2 4 1
f 31 23 43
f 43 41 31
f 31 41 23
f 33 44 39
f 21 15 8
f 8 15 7
f 8 7 9
f 6 7 5
f 7 15 5
f 5 15 23
f 5 4 6
f 16 4 5
f 23 16 5
f 6 4 47
f 47 4 2
f 3 4 22
f 3 1 4
f 3 22 18
f 18 1 3
f 10 8 9
f 10 14 21
f 21 8 10
f 28 33 39
f 39 29 28
f 14 10 28
f 21 14 28
f 28 29 21
f 44 33 38
f 45 44 38
f 49 7 6
f 6 47 49
f 52 12 9
f 2 12 48
f 48 47 2
f 33 28 24
f 24 28 10
f 34 38 20
f 34 20 45
f 45 38 34
f 20 38 19
f 12 52 51
f 51 52 47
f 51 48 12
f 47 48 51
f 50 49 47
f 47 52 50
f 7 49 50
f 9 7 50
f 50 52 9
f 33 24 17
f 17 24 10
f 13 19 38
f 33 17 13
f 13 17 10
f 20 19 13
f 9 20 13
f 13 10 9
f 27 38 33
f 33 13 27
f 27 13 38

