# https://github.com/mikedh/trimesh
v 0.15383091 -0.17726679 0.11147524
v 0.15129705 -0.17668001 0.11330634
v 0.15036425 -0.17776688 0.11167031
v 0.15310806 -0.17241434 0.10969656
v 0.14950573 -0.17316273 0.10950212
v 0.15017931 -0.17242156 0.11117347
v 0.15365868 -0.17278208 0.11157567
v 0.15280468 -0.17758181 0.10890479
v 0.14944425 -0.17689528 0.10938871
v 0.15222816 -0.17538556 0.10754701
v 0.15758743 -0.17658139 0.10853619
v 0.15692143 -0.17665171 0.10812776
v 0.15651545 -0.17485896 0.10688771
v 0.15733195 -0.17345006 0.10853581
v 0.15793603 -0.17487088 0.10972616
v 0.15771776 -0.17604516 0.10932434
v 0.15707946 -0.17432456 0.10728681
v 0.15711291 -0.17612341 0.10711286
v 0.15751938 -0.17466306 0.10719939
v 0.15635259 -0.17388471 0.10759741
v 0.15430481 -0.17480256 0.11252694
v 0.15806846 -0.17471351 0.10934412
v 0.15792068 -0.17383704 0.10875091
v 0.15751938 -0.17539139 0.10998939
v 0.15085545 -0.17286926 0.11270074
v 0.15234754 -0.17355846 0.10792119
v 0.15064593 -0.17583334 0.11236926
v 0.15804678 -0.17599176 0.10886569
v 0.15122270 -0.17473436 0.11369369
v 0.15063634 -0.17431051 0.11238484
v 0.14917483 -0.17522213 0.10877254
v 0.15015145 -0.17364584 0.11121824
v 0.14972416 -0.17435394 0.11016509
f 2 29 3
f 29 2 21
f 21 7 29
f 7 21 15
f 29 7 25
f 25 7 6
f 31 3 33
f 3 32 33
f 30 32 3
f 6 32 30
f 29 25 30
f 30 25 6
f 9 3 31
f 9 8 3
f 1 2 3
f 3 8 1
f 1 21 2
f 3 29 27
f 27 30 3
f 29 30 27
f 5 26 31
f 31 33 5
f 5 32 6
f 5 33 32
f 13 26 20
f 23 15 22
f 7 15 23
f 20 26 4
f 6 7 4
f 4 5 6
f 26 5 4
f 24 15 21
f 21 1 24
f 11 1 8
f 18 13 19
f 10 13 18
f 10 9 31
f 31 26 10
f 26 13 10
f 18 8 10
f 8 9 10
f 20 4 14
f 23 19 14
f 7 23 14
f 14 4 7
f 12 8 18
f 18 11 12
f 12 11 8
f 16 24 1
f 1 11 16
f 15 24 16
f 17 13 20
f 17 19 13
f 20 14 17
f 17 14 19
f 28 16 11
f 22 15 28
f 15 16 28
f 28 23 22
f 28 19 23
f 28 11 18
f 18 19 28

