# https://github.com/mikedh/trimesh
v 0.05999071 0.13620109 0.12423828
v 0.05999072 0.06644717 0.11035171
v 0.05999070 0.08054890 0.12430771
v 0.05999081 0.14257117 0.12131553
v 0.05999083 0.14716395 0.11672276
v 0.05999073 0.15008615 0.11035416
v 0.05999068 0.06601714 0.06216792
v 0.05999069 0.15051714 0.06216792
v 0.05999083 0.06937020 0.11672251
v 0.05999080 0.07396322 0.12131558
v 0.19333163 0.06647851 0.06216798
v 0.18568932 0.06631289 0.08843924
v 0.13776788 0.06646614 0.11090051
v 0.13776561 0.15006922 0.11089879
v 0.18568923 0.15022143 0.08843917
v 0.19333161 0.15005584 0.06216798
v 0.14079761 0.08146766 0.12446973
v 0.14070688 0.13509959 0.12448504
v 0.20728714 0.08126823 0.06216800
v 0.20732086 0.13514811 0.06216803
v 0.20292101 0.14430586 0.06216793
v 0.20292098 0.07222844 0.06216793
v 0.19830205 0.08789213 0.09902154
v 0.20012863 0.08789213 0.09169549
v 0.19830205 0.12864213 0.09902154
v 0.20012864 0.12864213 0.09169549
v 0.18227083 0.08244561 0.10605106
v 0.18272958 0.08735539 0.10595487
v 0.18004473 0.12917894 0.10715027
v 0.17958545 0.13408743 0.10724694
v 0.13966566 0.14421369 0.12035774
v 0.19817023 0.13495034 0.09891227
v 0.19526195 0.14315429 0.09647052
v 0.19035003 0.14802666 0.09234899
v 0.13966565 0.07232064 0.12035771
v 0.19817036 0.08158379 0.09891161
v 0.19526192 0.07338001 0.09647049
v 0.19035005 0.06850768 0.09234902
f 7 8 21
f 7 21 22
f 20 21 33
f 33 32 20
f 18 32 33
f 19 21 20
f 19 22 21
f 11 12 7
f 7 22 11
f 38 12 11
f 11 22 38
f 16 21 8
f 8 1 6
f 6 14 8
f 31 1 18
f 18 33 31
f 18 1 3
f 3 8 7
f 3 1 8
f 10 9 35
f 35 3 10
f 24 19 20
f 36 19 24
f 8 14 15
f 15 16 8
f 4 6 1
f 1 31 4
f 2 3 7
f 10 3 2
f 2 9 10
f 30 32 18
f 18 29 30
f 36 24 23
f 23 27 36
f 37 35 38
f 38 22 37
f 22 19 37
f 37 19 36
f 13 12 38
f 38 35 13
f 7 12 13
f 13 2 7
f 13 35 9
f 9 2 13
f 18 3 17
f 3 35 17
f 36 27 17
f 17 29 18
f 17 37 36
f 35 37 17
f 20 32 26
f 26 24 20
f 16 15 34
f 34 33 21
f 21 16 34
f 34 31 33
f 14 31 34
f 34 15 14
f 6 4 5
f 5 4 31
f 14 6 5
f 5 31 14
f 29 23 25
f 32 30 25
f 25 30 29
f 25 26 32
f 28 23 29
f 29 17 28
f 27 23 28
f 28 17 27
f 24 26 25
f 25 23 24

