# https://github.com/mikedh/trimesh
v -0.08946444 -0.14982339 0.05448952
v -0.08539504 -0.14588634 0.05585437
v -0.09377696 -0.14588634 0.06196700
v -0.09376599 -0.14588634 0.04987989
v -0.08168989 -0.14588634 0.06195599
v -0.08167883 -0.14588634 0.04986888
v -0.09376596 -0.14982339 0.06195599
v -0.08167886 -0.14982339 0.06196700
v -0.09377699 -0.14982339 0.04986887
v -0.08168986 -0.14982339 0.04987990
f 4 6 9
f 9 3 4
f 9 6 10
f 6 8 10
f 7 3 9
f 7 8 3
f 5 8 6
f 3 8 5
f 9 10 1
f 1 7 9
f 1 10 8
f 8 7 1
f 3 5 2
f 2 4 3
f 2 5 6
f 6 4 2

