# https://github.com/mikedh/trimesh
v 0.19536015 -0.19784504 0.10982049
v 0.19218783 -0.18947889 0.10211042
v 0.19161576 -0.19784504 0.10078071
v 0.18896808 -0.19092629 0.09438862
v 0.18896808 -0.18114171 0.09438862
v 0.19161576 -0.17422302 0.10078071
v 0.19482281 -0.18258916 0.10847642
v 0.19536016 -0.17422302 0.10982049
v 0.19800785 -0.18114171 0.11621256
v 0.19800785 -0.19092629 0.11621256
v 0.19390523 -0.19784504 0.11042314
v 0.19237728 -0.19461213 0.10673439
v 0.19016083 -0.19784504 0.10138336
v 0.18751316 -0.19092629 0.09499127
v 0.18751316 -0.18114171 0.09499127
v 0.19016083 -0.17422302 0.10138336
v 0.19171161 -0.17760626 0.10512729
v 0.19390523 -0.17422302 0.11042314
v 0.19655293 -0.18114171 0.11681522
v 0.19655293 -0.19092629 0.11681522
f 1 3 2
f 12 15 14
f 16 15 12
f 19 18 12
f 1 2 10
f 13 12 14
f 11 12 13
f 5 2 4
f 4 2 3
f 17 18 16
f 16 12 17
f 17 12 18
f 19 12 20
f 20 12 11
f 9 10 7
f 7 10 2
f 7 8 9
f 6 2 5
f 6 7 2
f 8 7 6
f 8 18 19
f 8 19 9
f 13 3 1
f 1 11 13
f 4 15 5
f 14 15 4
f 3 13 4
f 4 13 14
f 9 19 20
f 20 10 9
f 20 11 1
f 1 10 20
f 18 8 6
f 16 18 6
f 5 15 6
f 6 15 16

