# https://github.com/mikedh/trimesh
v 0.09120527 0.09703559 -0.08742282
v 0.09119599 0.09724505 -0.08832482
v 0.09373737 0.09723117 -0.08745634
v 0.09358369 0.09732294 -0.08834735
v 0.09482227 0.09923152 -0.08831224
v 0.09495162 0.09957064 -0.08744164
v 0.09354252 0.10159260 -0.08832832
v 0.09346967 0.10181021 -0.08743157
v 0.09091864 0.10163140 -0.08745634
v 0.09097317 0.10150640 -0.08831691
v 0.08970449 0.09929195 -0.08744164
v 0.08987107 0.09927439 -0.08833402
v 0.09029799 0.10061409 -0.08662694
v 0.09092044 0.10173230 -0.08628019
v 0.09110197 0.09700237 -0.08629564
v 0.09025730 0.09827014 -0.08549084
v 0.08961475 0.09928869 -0.08627804
v 0.09020477 0.10046629 -0.08550769
v 0.09202992 0.10178917 -0.08534382
v 0.09354552 0.10185197 -0.08629237
v 0.09428029 0.10074359 -0.08548847
v 0.09459949 0.09866035 -0.08548394
v 0.09504069 0.09957016 -0.08627442
v 0.09376822 0.09710122 -0.08514739
v 0.09081467 0.10161889 -0.08507577
v 0.09367409 0.10162947 -0.08463984
v 0.09367092 0.09709492 -0.08410316
v 0.09352072 0.10176507 -0.08409849
v 0.09219012 0.10177865 -0.08432396
v 0.09091292 0.10160912 -0.08410054
v 0.09112397 0.09702789 -0.08409232
v 0.09268122 0.09712707 -0.08310237
v 0.09074444 0.09774864 -0.08308345
v 0.08962579 0.09928609 -0.08404104
v 0.09005047 0.09869319 -0.08339867
v 0.09032942 0.10070425 -0.08336389
v 0.09200217 0.10174099 -0.08309614
v 0.09422694 0.10079262 -0.08312426
v 0.09501574 0.09961717 -0.08406412
v 0.09440997 0.09830617 -0.08332266
v 0.09475099 0.09897122 -0.08294525
v 0.08985650 0.09975860 -0.08294525
v 0.09101249 0.10031517 -0.08298105
v 0.09221802 0.09767502 -0.08296979
v 0.09355579 0.09853927 -0.08865114
v 0.09181417 0.09819224 -0.08846439
v 0.09383477 0.09967340 -0.08860960
v 0.09248079 0.10094032 -0.08302831
v 0.09282387 0.10091892 -0.08857112
v 0.09081542 0.09961885 -0.08846069
v 0.09128199 0.10049364 -0.08852502
f 39 41 23
f 38 28 37
f 41 39 38
f 36 42 37
f 41 38 48
f 48 38 37
f 11 15 17
f 2 11 12
f 28 38 26
f 17 15 16
f 34 42 17
f 34 35 42
f 17 16 34
f 31 16 15
f 35 34 31
f 31 34 16
f 30 36 37
f 37 42 43
f 43 48 37
f 43 42 41
f 41 48 43
f 45 2 46
f 46 2 12
f 21 39 23
f 21 38 39
f 41 42 44
f 44 32 41
f 35 31 33
f 31 32 33
f 32 44 33
f 42 35 33
f 33 44 42
f 41 32 40
f 27 31 15
f 27 32 31
f 27 40 32
f 17 42 18
f 42 36 18
f 15 11 1
f 11 2 1
f 4 2 45
f 4 1 2
f 23 41 22
f 41 40 22
f 5 7 6
f 5 4 45
f 5 6 23
f 23 22 5
f 50 51 45
f 12 51 50
f 45 46 50
f 50 46 12
f 45 51 49
f 10 8 7
f 10 51 12
f 7 49 10
f 10 49 51
f 12 11 10
f 4 5 3
f 1 4 3
f 37 28 20
f 20 29 37
f 28 26 20
f 20 26 38
f 38 21 20
f 20 21 23
f 23 6 20
f 6 7 20
f 7 8 20
f 7 5 47
f 47 49 7
f 47 5 45
f 45 49 47
f 14 20 8
f 14 30 37
f 24 5 22
f 24 3 5
f 24 22 40
f 40 27 24
f 1 3 24
f 24 27 15
f 15 1 24
f 8 10 9
f 9 14 8
f 9 10 11
f 29 20 19
f 20 14 19
f 37 29 19
f 19 14 37
f 36 30 25
f 30 14 25
f 25 18 36
f 14 9 13
f 18 25 13
f 13 25 14
f 17 18 13
f 13 11 17
f 13 9 11

