# https://github.com/mikedh/trimesh
v 0.17001558 -0.15692516 0.11312147
v -0.21298108 -0.16636373 0.03851988
v -0.21336710 -0.15698873 0.04065247
v -0.21188178 -0.16636373 0.04213782
v -0.10051109 -0.15698874 0.12407004
v -0.09765644 -0.15698874 0.12611747
v -0.12866268 -0.16636374 -0.10184203
v -0.12902517 -0.15698874 -0.10163276
v 0.13057442 -0.16636376 -0.10108882
v 0.13037627 -0.15698876 -0.10128696
v 0.12792905 -0.16636376 -0.10194269
v 0.12765837 -0.15698876 -0.10187016
v -0.04846632 -0.15698875 0.13129164
v 0.00136680 -0.15698875 0.13122307
v 0.05057678 -0.15698875 0.13099863
v 0.18500664 -0.16636376 -0.06237706
v -0.13814785 -0.15878214 -0.10873026
v -0.13834646 -0.16452484 -0.10863553
v -0.22361859 -0.15882713 -0.05359839
v -0.22378777 -0.16456911 -0.05345711
v -0.23315322 -0.15870468 -0.03767029
v -0.23318807 -0.16468081 -0.03735317
v -0.23339469 -0.15883856 0.05113029
v -0.23338783 -0.16447903 0.05141186
v -0.23031423 -0.15876558 0.07367761
v -0.23091967 -0.16440621 0.07039394
v -0.22443173 -0.16458686 0.09395048
v -0.22318545 -0.15894628 0.09704846
v -0.21335802 -0.15879475 0.11727654
v -0.21319912 -0.16459821 0.11747163
v 0.18076589 -0.16454689 0.12667079
v 0.18053851 -0.15883402 0.12673959
v 0.11150158 -0.16460646 0.13368658
v 0.13034325 -0.15868686 0.13201421
v 0.05615730 -0.15874603 0.13683918
v 0.01810250 -0.16460643 0.13790998
v -0.03733049 -0.15874607 0.13787447
v -0.07538357 -0.16460642 0.13675495
v -0.13072352 -0.15874602 0.13353144
v -0.14774659 -0.16534939 0.13171984
v -0.20022147 -0.16451324 0.12638628
v -0.20044546 -0.15880120 0.12631034
v 0.19574043 -0.15878541 0.11507209
v 0.19587084 -0.16453779 0.11485784
v 0.20421724 -0.15880656 0.09202314
v 0.20439582 -0.16454597 0.09144902
v 0.20978568 -0.15880656 0.07146742
v 0.20992007 -0.16454597 0.07088145
v 0.21377464 -0.15880652 0.05054795
v 0.21386414 -0.16454597 0.04995305
v 0.21628235 -0.15898819 0.02853500
v 0.21625765 -0.16446736 0.02848038
v 0.21602150 -0.16459632 -0.04031246
v 0.21594664 -0.15859604 -0.04027458
v 0.20881988 -0.16475647 -0.05396506
v 0.13055717 -0.16458531 -0.10893029
v 0.20889374 -0.15875619 -0.05400466
v 0.13054967 -0.15863204 -0.10885799
v 0.12256695 -0.16479846 -0.11133113
v -0.13021785 -0.16470599 -0.11135421
v 0.12270935 -0.15869868 -0.11137967
v -0.13007372 -0.15852556 -0.11131096
v -0.19598555 -0.15709506 0.12548041
v -0.21201432 -0.15711396 0.11621443
v -0.12316444 -0.15713576 0.13231744
v -0.04428257 -0.15713959 0.13611135
v 0.01846676 -0.15703763 0.13583488
v 0.06290161 -0.15709293 0.13473108
v 0.15872246 -0.15707924 0.12797031
v 0.18776419 -0.15711611 0.12149616
v 0.19404878 -0.15711737 0.11456449
v 0.19045204 -0.15698876 0.11592319
v 0.20521560 -0.15709159 0.08307514
v 0.21433096 -0.15712454 0.03531557
v 0.21381906 -0.15710689 -0.04279566
v 0.19630263 -0.15698874 -0.04447576
v 0.20792457 -0.15714474 -0.05260956
v 0.19471334 -0.15698876 -0.05272708
v 0.19037123 -0.15698874 -0.05879536
v 0.13059488 -0.15715163 -0.10704868
v 0.12217345 -0.15716731 -0.10987406
v -0.13535353 -0.15704669 -0.10820478
v -0.17769773 -0.15700503 -0.05331622
v -0.22605888 -0.15716006 -0.04979944
v -0.23151216 -0.15714015 -0.03754882
v -0.23158600 -0.15713938 0.05542948
v -0.22405124 -0.15709548 0.08966653
v 0.17296786 -0.16636376 0.12535164
v 0.10400884 -0.16620375 0.13278028
v 0.03705023 -0.16636373 0.13453538
v -0.00522929 -0.16623240 0.13646392
v -0.08529724 -0.16625364 0.13451824
v -0.10289574 -0.16636372 0.13243234
v -0.19960187 -0.16627166 0.12470953
v -0.21006205 -0.16616823 0.11905571
v -0.22312682 -0.16625823 0.09234488
v -0.23148999 -0.16621391 0.05719564
v -0.23163969 -0.16620118 -0.03675002
v -0.22363121 -0.16625718 -0.05140739
v -0.13568195 -0.16629411 -0.10814871
v 0.12159687 -0.16616551 -0.10993829
v 0.13005603 -0.16620799 -0.10736319
v 0.20923325 -0.16619069 -0.05162008
v 0.19252834 -0.16636376 -0.05651163
v 0.19633882 -0.16636376 -0.04666079
v 0.21427251 -0.16624714 -0.04027931
v 0.21431701 -0.16623997 0.03394439
v 0.20628300 -0.16626093 0.07911789
v 0.19461753 -0.16617047 0.11379462
v 0.19052359 -0.16641656 0.11572956
v 0.18138328 -0.16627009 0.12471046
v -0.20662532 -0.15786195 0.12300751
v -0.20723658 -0.16454681 0.12298359
v 0.18922168 -0.15879451 0.12255214
v 0.18941820 -0.16455797 0.12240154
v 0.21348849 -0.15880569 -0.04758818
v 0.21340087 -0.16454681 -0.04775656
v -0.22984418 -0.15879388 -0.04684541
v -0.22997314 -0.16455856 -0.04663324
v -0.12973963 -0.16595769 -0.11020378
v -0.22897677 -0.16598721 -0.04569311
v 0.18882740 -0.16598664 0.12116792
v -0.12938868 -0.15738066 -0.11020724
v 0.18006524 -0.15739137 0.12550394
f 98 2 97
f 99 2 98
f 18 60 100
f 17 60 18
f 101 11 100
f 102 11 101
f 111 115 31
f 110 2 7
f 7 11 110
f 100 11 7
f 7 99 100
f 2 99 7
f 98 97 24
f 96 97 2
f 22 24 23
f 98 24 22
f 94 96 4
f 4 96 2
f 4 2 110
f 94 4 93
f 93 4 110
f 121 99 98
f 119 99 121
f 98 22 121
f 121 22 119
f 20 99 119
f 100 99 20
f 20 18 100
f 100 60 120
f 120 101 100
f 59 60 61
f 61 56 59
f 59 120 60
f 101 120 59
f 59 56 102
f 102 101 59
f 32 34 31
f 122 111 110
f 115 111 122
f 122 44 115
f 51 74 49
f 49 50 51
f 73 49 74
f 45 44 46
f 115 44 43
f 43 44 45
f 21 22 23
f 119 22 21
f 51 50 52
f 52 53 51
f 51 53 54
f 54 74 51
f 75 74 54
f 26 24 97
f 97 96 26
f 26 25 23
f 23 24 26
f 95 96 94
f 110 111 88
f 91 36 38
f 38 36 37
f 91 93 90
f 90 93 110
f 110 88 90
f 37 36 35
f 35 34 68
f 31 34 33
f 34 35 33
f 33 35 36
f 34 32 69
f 68 34 69
f 31 115 114
f 114 32 31
f 115 43 114
f 109 122 110
f 44 122 109
f 109 46 44
f 47 73 45
f 49 73 47
f 45 46 47
f 72 69 70
f 72 73 74
f 45 73 71
f 71 43 45
f 73 72 71
f 71 72 70
f 70 114 71
f 71 114 43
f 63 112 42
f 61 60 62
f 62 60 17
f 123 81 61
f 61 62 123
f 61 81 58
f 58 56 61
f 102 56 55
f 42 112 113
f 113 95 94
f 27 26 96
f 25 26 27
f 27 28 25
f 29 113 112
f 92 93 91
f 91 38 92
f 94 93 92
f 41 113 94
f 42 113 41
f 89 111 31
f 31 33 89
f 89 88 111
f 89 90 88
f 89 33 36
f 89 36 91
f 91 90 89
f 70 69 124
f 124 69 32
f 124 114 70
f 32 114 124
f 46 109 108
f 108 109 110
f 48 47 46
f 48 108 50
f 46 108 48
f 50 49 48
f 49 47 48
f 81 10 80
f 80 10 77
f 80 58 81
f 75 77 79
f 77 10 79
f 12 10 81
f 56 58 57
f 57 55 56
f 57 80 77
f 58 80 57
f 28 27 30
f 30 29 28
f 96 95 30
f 30 27 96
f 95 113 30
f 113 29 30
f 42 41 39
f 39 38 37
f 39 63 42
f 40 92 38
f 38 39 40
f 40 39 41
f 94 92 40
f 40 41 94
f 107 52 50
f 50 108 107
f 107 108 110
f 68 69 67
f 67 35 68
f 37 35 67
f 17 84 82
f 82 62 17
f 82 123 62
f 82 84 8
f 81 123 82
f 82 12 81
f 8 12 82
f 19 84 17
f 17 18 19
f 18 20 19
f 85 21 23
f 8 84 85
f 75 79 78
f 69 72 1
f 8 3 1
f 1 78 79
f 1 12 8
f 1 79 10
f 10 12 1
f 55 57 117
f 110 11 9
f 9 11 102
f 53 52 106
f 52 107 106
f 106 117 53
f 106 107 110
f 15 67 69
f 69 1 15
f 65 13 63
f 63 39 65
f 63 13 6
f 13 1 6
f 25 28 87
f 84 19 118
f 119 21 118
f 118 20 119
f 118 19 20
f 21 85 118
f 118 85 84
f 83 3 8
f 8 85 83
f 83 85 3
f 78 1 76
f 75 78 76
f 76 1 72
f 76 74 75
f 76 72 74
f 116 117 57
f 75 54 116
f 116 54 53
f 53 117 116
f 116 77 75
f 116 57 77
f 16 9 102
f 16 104 110
f 110 9 16
f 104 106 105
f 110 104 105
f 105 106 110
f 103 106 104
f 103 16 102
f 104 16 103
f 102 55 103
f 55 117 103
f 117 106 103
f 13 67 14
f 67 15 14
f 14 1 13
f 14 15 1
f 66 67 13
f 13 65 66
f 37 67 66
f 66 39 37
f 66 65 39
f 5 3 63
f 63 6 5
f 5 1 3
f 5 6 1
f 63 3 64
f 3 87 64
f 112 63 64
f 64 29 112
f 28 29 64
f 64 87 28
f 3 85 86
f 86 87 3
f 86 85 23
f 23 25 86
f 25 87 86

