# https://github.com/mikedh/trimesh
v 0.15555710 -0.18269556 0.11694066
v 0.15458629 -0.18108791 0.11435681
v 0.15466805 -0.18220261 0.11599092
v 0.15303785 -0.18256938 0.11206991
v 0.15597801 -0.18993178 0.11586981
v 0.15528093 -0.18969797 0.11659309
v 0.15436941 -0.19101909 0.11396534
v 0.15397543 -0.19063854 0.11170194
v 0.15307039 -0.19044707 0.11215101
v 0.15294739 -0.18999189 0.11072811
v 0.15354601 -0.18154301 0.11123173
v 0.15325489 -0.18147659 0.11246504
v 0.15524708 -0.18517412 0.11768574
v 0.15609340 -0.18560741 0.11813059
v 0.15672884 -0.18580817 0.11756516
v 0.15622563 -0.18795302 0.11767012
v 0.15368266 -0.18923138 0.11002779
v 0.15228830 -0.18831416 0.10951116
v 0.15554701 -0.18154796 0.11456164
v 0.15641320 -0.18323636 0.11651589
v 0.15509885 -0.19067284 0.11347841
v 0.15307101 -0.18366943 0.10926521
v 0.15254280 -0.18647513 0.10876531
v 0.15233188 -0.18469721 0.10908281
v 0.15403851 -0.18231449 0.11074091
v 0.15546375 -0.18994274 0.11417051
v 0.15637141 -0.18779664 0.11647359
v 0.15492175 -0.18930691 0.11674054
v 0.15331431 -0.18671208 0.10901109
v 0.15227793 -0.18336473 0.11017674
v 0.15195478 -0.18666838 0.10957889
f 31 23 18
f 28 13 31
f 4 12 30
f 31 13 4
f 4 30 31
f 15 20 14
f 14 16 15
f 13 28 14
f 14 28 16
f 27 20 15
f 1 19 2
f 1 20 19
f 13 14 1
f 1 14 20
f 17 18 23
f 23 29 17
f 19 20 25
f 31 18 9
f 9 28 31
f 15 16 5
f 5 27 15
f 20 27 26
f 26 25 20
f 29 25 26
f 21 17 26
f 26 17 29
f 26 5 21
f 27 5 26
f 3 1 2
f 2 12 3
f 13 1 3
f 3 4 13
f 12 4 3
f 30 12 11
f 11 12 2
f 2 19 11
f 19 25 11
f 22 29 23
f 22 25 29
f 30 11 22
f 22 11 25
f 28 9 7
f 21 5 7
f 8 17 21
f 21 7 8
f 8 7 9
f 16 28 6
f 6 5 16
f 28 7 6
f 6 7 5
f 24 22 23
f 30 22 24
f 24 23 31
f 31 30 24
f 10 9 18
f 10 8 9
f 18 17 10
f 17 8 10

