# https://github.com/mikedh/trimesh
v 0.15955485 -0.17694646 -0.04737626
v 0.15663182 -0.17673229 -0.04597561
v 0.15590112 -0.17773514 -0.04774134
v 0.16342915 -0.17626642 -0.05067191
v 0.16373859 -0.17559699 -0.05000279
v 0.16356460 -0.17528568 -0.04941249
v 0.16290437 -0.17412479 -0.04955828
v 0.15854872 -0.17250134 -0.04980319
v 0.15591664 -0.17236361 -0.04774323
v 0.15930156 -0.17269433 -0.04808616
v 0.16164087 -0.17485866 -0.05212744
v 0.16300784 -0.17667621 -0.05102091
v 0.16225764 -0.17407666 -0.05203141
v 0.16252010 -0.17523854 -0.05207591
v 0.15855556 -0.17776223 -0.04977866
v 0.15519422 -0.17722996 -0.04936489
v 0.15482672 -0.17579338 -0.05045439
v 0.16343380 -0.17404294 -0.05031364
v 0.16218660 -0.17602149 -0.05193256
v 0.16227840 -0.17352913 -0.05085621
v 0.16307777 -0.17363534 -0.05032096
v 0.16285025 -0.17391832 -0.05134351
v 0.16311598 -0.17555713 -0.05195027
v 0.15618962 -0.17591613 -0.04694649
v 0.15624722 -0.17449786 -0.04678259
v 0.16273247 -0.17661052 -0.05037354
v 0.16270950 -0.17412884 -0.05203711
v 0.15505814 -0.17321866 -0.04979249
v 0.15534552 -0.17427704 -0.04897559
v 0.15582339 -0.17370513 -0.04782196
v 0.15776454 -0.17571404 -0.05163599
v 0.15977454 -0.17413112 -0.04673059
v 0.16351177 -0.17404036 -0.05103024
v 0.15678529 -0.17393582 -0.04563481
v 0.15795890 -0.17354834 -0.05125714
f 16 15 3
f 17 16 28
f 2 32 34
f 31 16 17
f 15 16 31
f 25 34 9
f 25 2 34
f 17 28 35
f 35 31 17
f 9 34 10
f 34 32 10
f 9 28 30
f 30 25 9
f 24 25 16
f 2 25 24
f 24 16 3
f 3 2 24
f 32 2 1
f 1 6 32
f 5 6 1
f 1 26 5
f 3 15 1
f 1 2 3
f 15 12 1
f 12 26 1
f 21 10 32
f 29 28 16
f 29 30 28
f 16 25 29
f 25 30 29
f 4 23 5
f 12 23 4
f 5 26 4
f 4 26 12
f 19 23 12
f 15 31 19
f 19 12 15
f 32 6 7
f 7 21 32
f 5 23 33
f 33 23 27
f 33 20 21
f 11 19 31
f 11 35 13
f 31 35 11
f 13 27 11
f 18 7 6
f 21 7 18
f 18 33 21
f 18 6 5
f 5 33 18
f 10 21 8
f 21 20 8
f 9 10 8
f 8 28 9
f 8 35 28
f 13 35 8
f 8 27 13
f 8 20 27
f 27 20 22
f 22 33 27
f 20 33 22
f 23 19 14
f 19 11 14
f 27 23 14
f 14 11 27

