# https://github.com/mikedh/trimesh
v 0.16870781 -0.19218701 0.13415667
v 0.16640801 -0.18452847 0.13642426
v 0.16557060 -0.19443403 0.13440267
v 0.15556291 -0.17593794 0.11031629
v 0.19178026 -0.17183887 0.09349874
v 0.19849661 -0.20323625 0.10992759
v 0.20108545 -0.19914389 0.11592634
v 0.15825481 -0.20133281 0.10896491
v 0.19753754 -0.17676609 0.09951279
v 0.19970596 -0.17616334 0.10477389
v 0.19960786 -0.17014719 0.11252619
v 0.16325690 -0.17631304 0.12889499
v 0.15684038 -0.17379161 0.10552231
v 0.15751978 -0.20383291 0.11496624
v 0.16777228 -0.17547864 0.13207744
v 0.15526746 -0.19037933 0.10180869
v 0.15296753 -0.19394709 0.10397614
v 0.15234546 -0.18253078 0.10247434
v 0.20108170 -0.16842829 0.10825312
v 0.20451278 -0.19689746 0.11653629
v 0.20257620 -0.20163612 0.11186116
v 0.16653915 -0.20033226 0.12908401
v 0.16364426 -0.20050263 0.12975201
v 0.16905817 -0.18341101 0.13501326
v 0.15487652 -0.20012212 0.10858484
v 0.15629078 -0.19658323 0.10436536
v 0.20290987 -0.19142486 0.12038407
v 0.20382976 -0.17312106 0.11488732
v 0.19907960 -0.20450900 0.10341961
v 0.19627093 -0.19342954 0.09643384
v 0.20085808 -0.19474251 0.10755114
v 0.19192531 -0.18430319 0.08614761
v 0.18914661 -0.18372964 0.08730057
v 0.19280988 -0.17670884 0.08828322
v 0.19599058 -0.20431945 0.10356724
v 0.20157575 -0.17882116 0.10927229
v 0.18937536 -0.19059414 0.08774002
v 0.19062508 -0.19750749 0.09082559
v 0.15412118 -0.17381766 0.10676129
v 0.15621779 -0.16962406 0.11182291
v 0.16092083 -0.20389666 0.12317711
v 0.19328893 -0.20277414 0.09717357
v 0.16310623 -0.20418713 0.12059429
v 0.20304846 -0.18228802 0.12066436
v 0.20183649 -0.17523631 0.11778029
v 0.16926388 -0.16636354 0.11784076
v 0.17233736 -0.16636367 0.11911726
v 0.16863756 -0.16636381 0.11037049
v 0.16741640 -0.16636356 0.11338059
v 0.18895641 -0.16636356 0.10445831
v 0.18588296 -0.16636369 0.10318184
v 0.18958279 -0.16636384 0.11192862
v 0.19080393 -0.16636354 0.10891856
v 0.15952346 -0.16759292 0.11980352
v 0.19488534 -0.17104621 0.09329374
v 0.16301240 -0.19629334 0.12830757
v 0.20582134 -0.18951042 0.11969554
v 0.19729941 -0.16817147 0.09912184
v 0.16552550 -0.17006557 0.12658634
v 0.16496835 -0.17510729 0.13294869
v 0.16278213 -0.17008879 0.12767064
v 0.20546355 -0.17940129 0.11883181
v 0.19401018 -0.19913234 0.09118099
v 0.19586601 -0.20251660 0.09566129
v 0.19226143 -0.19239579 0.08695914
f 32 34 9
f 9 34 55
f 12 2 60
f 12 61 54
f 60 61 12
f 33 32 18
f 18 34 33
f 33 34 32
f 13 34 18
f 57 2 1
f 1 2 3
f 46 54 47
f 54 61 47
f 3 2 56
f 2 12 56
f 18 32 16
f 16 17 18
f 41 56 14
f 55 51 58
f 58 9 55
f 19 9 58
f 48 40 54
f 44 2 57
f 57 62 44
f 60 2 24
f 2 44 24
f 24 44 62
f 36 62 57
f 57 31 36
f 55 34 5
f 34 13 5
f 5 51 55
f 5 48 51
f 13 48 5
f 40 48 39
f 39 48 13
f 39 13 18
f 59 61 60
f 59 47 61
f 18 17 4
f 4 56 12
f 4 39 18
f 40 39 4
f 54 40 4
f 4 12 54
f 37 16 32
f 57 1 27
f 27 1 3
f 3 56 23
f 56 41 23
f 20 31 57
f 21 31 20
f 20 7 21
f 57 27 20
f 20 27 3
f 49 54 46
f 49 48 54
f 51 48 49
f 60 24 15
f 15 24 62
f 15 45 60
f 62 45 15
f 10 9 19
f 19 36 10
f 10 36 9
f 28 36 19
f 62 36 28
f 28 45 62
f 60 45 28
f 28 59 60
f 28 52 47
f 47 59 28
f 19 58 53
f 53 52 19
f 46 47 53
f 47 52 53
f 14 56 25
f 25 4 17
f 56 4 25
f 17 16 65
f 16 37 65
f 65 37 32
f 63 65 30
f 9 36 30
f 30 36 31
f 32 9 30
f 30 65 32
f 43 41 14
f 21 6 29
f 29 31 21
f 29 30 31
f 29 43 14
f 29 6 41
f 41 43 29
f 3 23 22
f 22 20 3
f 7 20 22
f 21 7 22
f 22 6 21
f 41 6 22
f 22 23 41
f 19 52 11
f 11 28 19
f 52 28 11
f 50 58 51
f 50 53 58
f 51 49 50
f 50 49 46
f 46 53 50
f 14 25 8
f 8 25 63
f 26 25 17
f 63 30 64
f 30 29 64
f 64 8 63
f 38 65 63
f 63 25 38
f 25 26 38
f 17 65 38
f 38 26 17
f 42 64 29
f 14 8 42
f 8 64 42
f 35 29 14
f 14 42 35
f 35 42 29

