# https://github.com/mikedh/trimesh
v 0.04801324 0.10376007 -0.04085777
v 0.04873869 0.10461502 -0.04256560
v 0.04848072 0.10416142 -0.03885220
v 0.04842834 0.10934517 -0.03879422
v 0.04845049 0.10980452 -0.04011837
v 0.04734757 0.10787728 -0.03784835
v 0.04600927 0.10515528 -0.03934240
v 0.04629814 0.10607657 -0.03832622
v 0.04598019 0.10550337 -0.04199545
v 0.04966239 0.10623569 -0.03773752
v 0.05082874 0.10823054 -0.03930382
v 0.05062011 0.10793365 -0.04215712
v 0.04820901 0.10931355 -0.04206539
v 0.04731649 0.10776604 -0.04316634
v 0.04968826 0.10631292 -0.04311097
v 0.05701164 0.10294492 -0.04024979
v 0.05687339 0.10323765 -0.04035559
v 0.05679574 0.10354782 -0.03983952
v 0.05663956 0.10293544 -0.04132324
v 0.05613224 0.10206652 -0.04163039
v 0.05552027 0.10127547 -0.04084217
v 0.05599819 0.10128350 -0.04003550
v 0.05593017 0.10195784 -0.03892492
v 0.05663246 0.10339844 -0.04147907
v 0.05579764 0.10210932 -0.04197852
v 0.05517211 0.10118890 -0.04106757
v 0.05519859 0.10138484 -0.03951769
v 0.05586032 0.10270897 -0.03892314
v 0.05641909 0.10384085 -0.03997540
v 0.05601306 0.10337415 -0.04185215
v 0.05495977 0.10171807 -0.04160847
v 0.05463371 0.10140660 -0.03983260
v 0.04671149 0.10685502 -0.04169012
v 0.04742994 0.10810863 -0.03915337
f 5 11 12
f 15 14 12
f 34 6 5
f 4 6 10
f 10 11 4
f 5 6 4
f 4 11 5
f 15 12 30
f 5 12 13
f 13 12 14
f 1 7 9
f 16 23 22
f 28 11 10
f 10 23 28
f 3 1 32
f 7 1 3
f 3 23 10
f 9 14 2
f 2 14 15
f 2 1 9
f 33 34 5
f 5 13 33
f 33 13 14
f 33 14 9
f 24 30 12
f 27 22 23
f 27 3 32
f 23 3 27
f 30 24 25
f 15 30 25
f 25 2 15
f 11 28 18
f 18 23 16
f 18 28 23
f 10 6 8
f 8 3 10
f 7 3 8
f 6 34 8
f 9 7 8
f 34 33 8
f 8 33 9
f 1 2 26
f 32 1 26
f 26 27 32
f 22 27 26
f 16 22 20
f 20 25 24
f 20 26 25
f 16 24 17
f 17 18 16
f 24 18 17
f 29 12 11
f 11 18 29
f 29 24 12
f 29 18 24
f 2 25 31
f 31 26 2
f 25 26 31
f 19 24 16
f 16 20 19
f 19 20 24
f 22 26 21
f 21 20 22
f 26 20 21

