# https://github.com/mikedh/trimesh
v 0.11551844 0.16762934 0.06695514
v 0.11566721 0.16673647 0.06677360
v 0.11699764 0.16762786 0.06913901
v 0.11702658 0.16673024 0.06895562
v 0.11945696 0.16672512 0.06881368
v 0.11956096 0.16762634 0.06898268
v 0.12062516 0.16672756 0.06671582
v 0.12075553 0.16760519 0.06659885
v 0.11926574 0.16673899 0.06453377
v 0.11939658 0.16762287 0.06442669
v 0.11665951 0.16762417 0.06455674
v 0.11683538 0.16671557 0.06467574
v 0.11769886 0.16854485 0.06442562
v 0.12041356 0.16842876 0.06748905
v 0.11684891 0.16878197 0.06912245
v 0.12076241 0.16875116 0.06663491
v 0.11943511 0.16877577 0.06437518
v 0.11542964 0.16876032 0.06689738
v 0.11668196 0.16878085 0.06445644
v 0.12035136 0.16951311 0.06584866
v 0.12025876 0.16956747 0.06777930
v 0.11957386 0.16992597 0.06907143
v 0.11941309 0.16988247 0.06438171
v 0.11661196 0.16989920 0.06449323
v 0.11544891 0.16987179 0.06689986
v 0.11618176 0.17066529 0.06806706
v 0.11607388 0.17067854 0.06553716
v 0.11823876 0.17062344 0.06437598
v 0.12009759 0.17081862 0.06540124
v 0.12075309 0.17039979 0.06673044
v 0.11702179 0.17097416 0.06911191
v 0.11701651 0.17000012 0.06916577
v 0.12079406 0.17095854 0.06657806
v 0.11940831 0.17096192 0.06440335
v 0.11671931 0.17098764 0.06453423
v 0.11575989 0.17200999 0.06647016
v 0.11716163 0.17197145 0.06462315
v 0.11846506 0.17195662 0.06446245
v 0.12015331 0.17195137 0.06557018
v 0.12018159 0.17195929 0.06789093
v 0.11963841 0.17103092 0.06899439
v 0.11843304 0.17194937 0.06902538
v 0.11661619 0.17194265 0.06849693
v 0.11557067 0.17138309 0.06690266
v 0.11870109 0.17207124 0.06524752
v 0.11798756 0.16640481 0.06825396
v 0.11681624 0.16659154 0.06691932
v 0.11910924 0.16644635 0.06792853
v 0.11916839 0.17199374 0.06788197
v 0.11968239 0.16648479 0.06643028
v 0.11755223 0.16659524 0.06534101
v 0.11854321 0.16653091 0.06530764
f 9 8 7
f 7 50 9
f 33 8 20
f 20 8 17
f 17 8 10
f 8 9 10
f 42 31 32
f 32 15 3
f 31 15 32
f 43 31 42
f 43 15 31
f 1 4 3
f 1 15 18
f 3 15 1
f 46 4 2
f 4 1 2
f 2 1 18
f 7 8 14
f 14 6 7
f 3 4 5
f 5 6 3
f 5 4 46
f 7 6 5
f 33 39 40
f 29 20 17
f 17 34 29
f 29 34 39
f 29 39 33
f 33 20 29
f 52 9 50
f 52 50 46
f 46 51 52
f 12 9 52
f 52 51 12
f 41 40 42
f 3 6 22
f 22 32 3
f 6 14 22
f 14 41 22
f 42 32 22
f 22 41 42
f 18 25 27
f 15 43 26
f 18 15 26
f 26 25 18
f 47 51 46
f 46 2 47
f 12 51 47
f 47 2 12
f 16 8 33
f 16 14 8
f 48 50 7
f 7 5 48
f 46 50 48
f 48 5 46
f 33 40 30
f 30 40 14
f 30 16 33
f 14 16 30
f 17 10 13
f 11 9 12
f 11 10 9
f 12 2 11
f 11 13 10
f 19 13 11
f 11 2 18
f 23 34 17
f 34 23 28
f 28 23 17
f 17 13 28
f 28 13 19
f 14 40 21
f 21 41 14
f 40 41 21
f 25 26 44
f 44 26 43
f 45 40 39
f 35 28 24
f 24 28 19
f 24 27 35
f 19 11 24
f 18 27 24
f 24 11 18
f 34 28 38
f 39 34 38
f 35 37 38
f 38 28 35
f 38 45 39
f 37 45 38
f 36 44 43
f 36 45 37
f 36 37 35
f 36 43 42
f 35 27 36
f 36 27 25
f 25 44 36
f 42 40 49
f 40 45 49
f 49 36 42
f 45 36 49

