# https://github.com/mikedh/trimesh
v 0.16405774 0.18400909 -0.03625539
v 0.16467525 0.18235693 -0.03495881
v 0.16410270 0.18221187 -0.03530231
v 0.16356155 0.18234184 -0.03370096
v 0.16356302 0.18205481 -0.03466556
v 0.16479922 0.18144541 -0.03094906
v 0.16386326 0.18906614 -0.03586311
v 0.16291537 0.18787446 -0.03624848
v 0.16418623 0.19023059 -0.03474986
v 0.16680552 0.18907166 -0.02859079
v 0.16579980 0.18875871 -0.02844516
v 0.16659700 0.18700781 -0.02750299
v 0.16745004 0.18603076 -0.02795488
v 0.16615287 0.18428542 -0.02779981
v 0.16271385 0.18471209 -0.03588293
v 0.16309944 0.18482427 -0.03658859
v 0.16380497 0.18672934 -0.03673429
v 0.16709875 0.18355521 -0.02850621
v 0.16603794 0.18229181 -0.02901421
v 0.16473358 0.18106244 -0.03237004
v 0.16454332 0.19097846 -0.03273149
v 0.16562220 0.19065108 -0.03260411
v 0.16540623 0.19065799 -0.03029679
v 0.16669669 0.18982403 -0.03007266
v 0.16604287 0.18145254 -0.03051526
v 0.16572845 0.18146136 -0.03247601
v 0.16704035 0.18329278 -0.02929531
v 0.16452794 0.18891304 -0.03539091
v 0.16279805 0.18707271 -0.03566219
v 0.16357690 0.19007784 -0.03372631
f 13 14 18
f 13 18 27
f 28 27 26
f 15 8 16
f 16 8 17
f 26 3 2
f 2 28 26
f 29 8 15
f 29 30 8
f 12 14 13
f 12 11 14
f 10 12 13
f 11 12 10
f 17 8 7
f 7 28 17
f 17 28 1
f 28 2 1
f 1 2 3
f 1 16 17
f 3 16 1
f 20 3 26
f 19 18 14
f 14 6 19
f 24 10 13
f 13 27 24
f 24 28 22
f 27 28 24
f 22 28 9
f 28 7 9
f 21 22 9
f 9 30 21
f 8 30 9
f 9 7 8
f 3 20 5
f 15 16 5
f 5 16 3
f 25 27 18
f 18 19 25
f 26 27 25
f 25 20 26
f 6 20 25
f 25 19 6
f 10 24 23
f 11 10 23
f 23 22 21
f 23 24 22
f 21 30 23
f 30 11 23
f 4 20 6
f 4 5 20
f 15 5 4
f 4 29 15
f 30 29 4
f 4 11 30
f 14 11 4
f 4 6 14

