# https://github.com/mikedh/trimesh
v 0.03083642 0.06621552 0.11019940
v 0.03093538 0.06614665 0.05114432
v 0.04200265 0.07698550 0.11019940
v 0.04412786 0.07971042 0.05114432
v 0.04832618 0.08705892 0.11019940
v 0.05141083 0.09504729 0.05114432
v 0.05205363 0.09872650 0.11019940
v 0.05310273 0.11292173 0.11019940
v 0.05297281 0.11429447 0.05114433
v 0.04882676 0.12935272 0.11019940
v 0.04832624 0.13045957 0.05114432
v 0.04120203 0.14166663 0.11019940
v 0.04200266 0.14053315 0.05114432
v 0.03083646 0.15130308 0.05114432
v 0.03022023 0.15153518 0.11019940
v -0.02659499 0.15153518 0.05114432
v -0.03757684 0.14166655 0.05114432
v -0.04627269 0.12708427 0.05114432
v -0.04948189 0.11057338 0.05114432
v -0.04842834 0.09872640 0.05114432
v -0.04470097 0.08705898 0.05114432
v -0.03837739 0.07698550 0.05114432
v -0.02721122 0.06621555 0.05114432
v -0.02721124 0.15130306 0.11019940
v -0.02659498 0.06598343 0.11019940
v -0.03579088 0.07396285 0.11019940
v -0.04305177 0.08382733 0.11019940
v -0.04749845 0.09485848 0.11019940
v -0.04948190 0.10694526 0.11019940
v -0.04740032 0.12379553 0.11019940
v -0.03980312 0.13880172 0.11019940
f 25 2 1
f 23 2 25
f 16 24 15
f 30 31 18
f 21 27 28
f 26 23 25
f 8 9 10
f 16 15 14
f 17 18 31
f 17 31 24
f 17 24 16
f 29 30 19
f 30 18 19
f 23 26 22
f 22 26 27
f 22 27 21
f 7 5 6
f 6 9 7
f 7 9 8
f 6 5 4
f 13 14 12
f 12 14 15
f 11 10 9
f 11 12 10
f 13 12 11
f 20 28 29
f 29 19 20
f 21 28 20
f 3 4 5
f 2 4 3
f 3 1 2
f 20 4 2
f 20 22 21
f 2 23 20
f 13 11 20
f 16 14 20
f 20 17 16
f 20 9 6
f 20 14 13
f 18 17 20
f 20 19 18
f 23 22 20
f 6 4 20
f 20 11 9
f 3 26 25
f 3 30 29
f 24 31 3
f 25 1 3
f 8 10 3
f 29 28 3
f 3 15 24
f 3 31 30
f 3 28 27
f 27 26 3
f 3 12 15
f 3 7 8
f 5 7 3
f 10 12 3

