# https://github.com/mikedh/trimesh
v 0.15279629 0.21458319 0.05528860
v 0.15525534 0.21359175 0.05476951
v 0.15507821 0.21389296 0.05626524
v 0.15518077 0.21569348 0.05526734
v 0.15555759 0.21553588 0.05458397
v 0.15567074 0.21579428 0.05560982
v 0.15532729 0.21529444 0.05618362
v 0.15575786 0.21470611 0.05676287
v 0.15597394 0.21326151 0.05588358
v 0.15600249 0.21314614 0.05489048
v 0.16565599 0.21440861 0.05818222
v 0.16566032 0.21201253 0.05638932
v 0.16565576 0.21241508 0.05340506
v 0.16564254 0.21531804 0.05271490
v 0.16563507 0.21762459 0.05552202
v 0.15646734 0.21578286 0.05598266
v 0.15640329 0.21591604 0.05453988
v 0.15621215 0.21436343 0.05378749
v 0.16565906 0.21557234 0.05378119
v 0.16566144 0.21610768 0.05631449
v 0.15759332 0.21577187 0.05624073
v 0.15732622 0.21507416 0.05387923
v 0.15688822 0.21330641 0.05610420
f 11 12 20
f 15 11 20
f 17 15 14
f 19 15 20
f 14 15 19
f 19 13 14
f 20 12 19
f 12 13 19
f 1 3 8
f 8 3 11
f 14 13 18
f 12 11 23
f 11 3 23
f 11 15 21
f 21 8 11
f 1 17 5
f 5 18 1
f 17 18 5
f 22 17 14
f 14 18 22
f 22 18 17
f 15 17 6
f 12 23 9
f 9 23 3
f 9 3 1
f 10 18 13
f 10 13 12
f 12 9 10
f 10 9 1
f 4 17 1
f 1 6 4
f 4 6 17
f 8 21 7
f 1 8 7
f 7 6 1
f 1 18 2
f 2 10 1
f 18 10 2
f 16 7 21
f 6 7 16
f 16 21 15
f 15 6 16

