# https://github.com/mikedh/trimesh
v -0.12507064 0.02029853 -0.05882183
v -0.13019480 0.01243774 -0.04425563
v -0.13039671 0.01620419 -0.04479178
v -0.13063057 0.01956516 -0.04758493
v -0.13091834 0.02195522 -0.05238510
v -0.13118395 0.02098717 -0.05731295
v -0.13145461 0.01755390 -0.06153648
v -0.12976884 0.01974699 -0.05944463
v -0.13123880 0.00434443 -0.04922788
v -0.13191662 0.02048582 -0.04933924
v -0.13138814 0.01102715 -0.06287266
v -0.13135175 0.00591582 -0.06024966
v -0.13086825 0.00350202 -0.05683738
v -0.12813784 0.00413242 -0.04857828
v -0.12617894 0.02180758 -0.05058456
v -0.12544421 0.01038540 -0.04400019
v -0.12453462 0.00417680 -0.05812888
v -0.12455039 0.01013187 -0.06281086
v -0.12299555 0.00175003 -0.05282823
v -0.12299554 0.00657008 -0.06248949
v -0.12299555 0.00770688 -0.04382328
v -0.12299554 0.01848383 -0.04447961
v -0.12299554 0.02330391 -0.05414088
v -0.12299554 0.01734703 -0.06314583
v -0.11561366 0.00175003 -0.05282823
v -0.11561367 0.00770688 -0.04382328
v -0.11561366 0.00657008 -0.06248949
v -0.11561366 0.01734703 -0.06314583
v -0.11561366 0.01848383 -0.04447961
v -0.11561366 0.02330391 -0.05414088
v -0.05754279 0.01125724 -0.05091105
v -0.05754279 0.01229875 -0.05115825
v -0.14317274 0.01464017 -0.04684101
v -0.14317274 0.01857446 -0.05856054
v -0.14317274 0.01190006 -0.06135506
v -0.14317274 0.00675147 -0.05859996
v -0.14317274 0.00463555 -0.05323284
v -0.14317274 0.00762313 -0.04742636
v -0.14317274 0.01315850 -0.04571601
v -0.14313464 0.01824148 -0.04850346
v -0.14317274 0.02022892 -0.05303364
v -0.14315631 0.01866413 -0.04992701
v -0.05754279 0.00983192 -0.05453783
v -0.05754279 0.01115639 -0.05517543
v -0.05754279 0.01412452 -0.05175991
v -0.05754279 0.01522197 -0.05243128
v -0.05754279 0.01356964 -0.05609188
v -0.05754279 0.01433932 -0.05507153
f 47 27 28
f 24 34 8
f 47 28 48
f 29 46 30
f 46 48 30
f 30 48 28
f 44 27 47
f 1 8 23
f 24 8 1
f 1 28 24
f 1 30 28
f 23 30 1
f 23 8 6
f 6 8 34
f 11 35 24
f 24 28 11
f 7 35 34
f 7 34 24
f 24 35 7
f 26 14 25
f 41 5 23
f 10 5 41
f 23 6 41
f 41 6 34
f 10 41 40
f 27 25 17
f 25 13 17
f 25 14 19
f 19 13 25
f 18 28 27
f 18 11 28
f 29 26 31
f 31 26 25
f 15 5 10
f 23 5 15
f 15 30 23
f 29 30 15
f 42 40 41
f 22 40 39
f 29 15 22
f 22 15 10
f 37 36 13
f 13 19 37
f 27 17 20
f 20 17 13
f 20 18 27
f 11 18 20
f 20 36 35
f 35 11 20
f 45 46 29
f 43 31 25
f 43 25 27
f 27 44 43
f 21 39 38
f 38 14 21
f 21 2 39
f 14 26 21
f 33 42 41
f 39 40 33
f 40 42 33
f 39 2 3
f 3 22 39
f 2 22 3
f 10 40 4
f 4 22 10
f 40 22 4
f 38 37 9
f 9 14 38
f 9 19 14
f 9 37 19
f 13 36 12
f 12 20 13
f 36 20 12
f 29 31 32
f 32 45 29
f 16 21 22
f 16 22 2
f 2 21 16
f 29 22 21
f 21 26 29
f 35 36 33
f 34 35 33
f 33 41 34
f 38 39 33
f 33 37 38
f 36 37 33
f 32 48 46
f 47 48 32
f 32 44 47
f 46 45 32
f 32 43 44
f 31 43 32

