# https://github.com/mikedh/trimesh
v -0.08250141 0.10631793 -0.00581483
v -0.08366029 0.10635731 -0.00350013
v -0.08282064 0.10744806 -0.00317266
v -0.08135836 0.10603618 -0.00304591
v -0.08256094 0.10512674 -0.00326813
v -0.08154134 0.10696621 -0.00340248
v -0.08148821 0.10705508 -0.00294041
v -0.08282059 0.10759933 -0.00276690
v -0.08394879 0.10639496 -0.00263721
v -0.08369751 0.10542741 -0.00260868
v -0.08371001 0.10895283 0.00704490
v -0.08529612 0.10641513 0.00704919
v -0.08384224 0.10377816 0.00704465
v -0.08089739 0.10417648 0.00703120
v -0.07974994 0.10763473 0.00702395
v -0.08163364 0.10739860 -0.00214383
v -0.08098809 0.10610149 -0.00220785
v -0.08216379 0.10483886 -0.00239903
v -0.08144061 0.10780451 0.00704787
v -0.08103069 0.10527624 0.00704787
v -0.08398669 0.10661691 -0.00172291
v -0.08285796 0.10782133 -0.00186853
f 12 13 20
f 20 14 15
f 13 14 20
f 10 13 12
f 15 14 17
f 13 10 5
f 5 10 1
f 19 20 15
f 15 11 19
f 12 20 19
f 19 11 12
f 12 11 21
f 21 11 22
f 1 10 2
f 18 5 1
f 18 17 14
f 18 14 13
f 13 5 18
f 6 17 1
f 15 17 6
f 1 17 4
f 4 18 1
f 17 18 4
f 1 2 3
f 3 6 1
f 8 6 3
f 9 2 10
f 9 21 22
f 22 8 9
f 9 3 2
f 8 3 9
f 9 10 12
f 12 21 9
f 16 8 22
f 16 6 8
f 16 11 15
f 22 11 16
f 15 6 7
f 7 16 15
f 6 16 7

