# https://github.com/mikedh/trimesh
v 0.17146614 -0.19555787 -0.03006751
v 0.17077615 -0.19580811 -0.03154074
v 0.17175270 -0.19823174 -0.02980601
v 0.16794712 -0.19882806 -0.02713556
v 0.16501476 -0.19867679 -0.02567858
v 0.16715835 -0.19968556 -0.02903869
v 0.17049351 -0.19730583 -0.03194056
v 0.16315694 -0.19672221 -0.03025746
v 0.16595795 -0.19687642 -0.03144294
v 0.16635154 -0.19837004 -0.03110891
v 0.17203594 -0.19683133 -0.02964639
v 0.17157691 -0.19571836 -0.03053894
v 0.16347962 -0.19895879 -0.02937841
v 0.17104762 -0.19625871 -0.03167646
v 0.16667462 -0.19469104 -0.03031718
v 0.16385986 -0.19439521 -0.02845249
v 0.16760392 -0.19449088 -0.02804458
v 0.17190339 -0.19596746 -0.03077719
v 0.17204944 -0.19778926 -0.02998061
v 0.17150429 -0.19748096 -0.03169681
v 0.17164957 -0.19819121 -0.03080911
v 0.17190344 -0.19679059 -0.02922326
v 0.17111199 -0.19832831 -0.03155976
v 0.16462611 -0.19767196 -0.02653456
v 0.16463984 -0.19643951 -0.02651316
v 0.16362464 -0.19659841 -0.02900719
v 0.16416259 -0.19557884 -0.02767114
v 0.16413314 -0.19840987 -0.02775116
v 0.16485159 -0.19453451 -0.02663089
v 0.16789389 -0.19537344 -0.02675833
v 0.16516717 -0.19603299 -0.02535619
v 0.16821499 -0.19725137 -0.02648606
v 0.16421717 -0.19965477 -0.02767316
f 4 33 6
f 16 15 8
f 6 33 13
f 6 23 3
f 3 4 6
f 8 15 9
f 4 3 32
f 33 4 5
f 5 32 31
f 4 32 5
f 15 16 17
f 17 1 15
f 19 3 21
f 21 3 23
f 10 13 8
f 8 9 10
f 10 23 6
f 6 13 10
f 19 18 11
f 24 5 31
f 1 18 12
f 29 16 31
f 29 17 16
f 1 17 30
f 31 32 30
f 30 29 31
f 17 29 30
f 5 24 28
f 28 13 33
f 33 5 28
f 24 27 28
f 1 30 22
f 22 18 1
f 22 11 18
f 22 30 32
f 22 32 3
f 22 3 19
f 19 11 22
f 25 24 31
f 25 27 24
f 31 16 25
f 16 27 25
f 13 28 26
f 26 28 27
f 26 27 16
f 26 16 8
f 8 13 26
f 20 14 18
f 20 21 23
f 20 18 19
f 19 21 20
f 2 12 18
f 18 14 2
f 15 1 2
f 1 12 2
f 2 9 15
f 14 20 7
f 9 2 7
f 7 2 14
f 7 20 23
f 23 10 7
f 7 10 9

