# https://github.com/mikedh/trimesh
v 0.09276574 0.16636004 0.05297955
v 0.09403696 0.16606817 0.05472239
v 0.09060241 0.16610344 0.05248459
v 0.09343076 0.16978554 0.05830636
v 0.09397096 0.16620417 0.05773800
v 0.09427166 0.16984962 0.05584357
v 0.09349746 0.16989834 0.05378006
v 0.09099312 0.16982922 0.05238660
v 0.08771446 0.16977977 0.05433468
v 0.08767166 0.16611971 0.05447887
v 0.08772341 0.16989834 0.05711367
v 0.08835418 0.16611837 0.05835616
v 0.08999251 0.16983467 0.05932603
v 0.09136214 0.16610019 0.05925693
v 0.08948501 0.14825452 0.05631675
v 0.09036083 0.14849362 0.05441307
v 0.09166594 0.14825209 0.05469926
v 0.08925191 0.14862824 0.05593826
v 0.09034446 0.14873595 0.05743377
v 0.09193846 0.14860131 0.05755913
v 0.09281584 0.14873397 0.05579187
v 0.09184814 0.14880060 0.05408047
v 0.08946186 0.14885644 0.05430070
v 0.08894806 0.14901099 0.05665925
v 0.09088538 0.14913681 0.05807651
v 0.09284769 0.14929882 0.05659164
v 0.09263651 0.14938312 0.05490096
v 0.09138923 0.14948289 0.05389409
v 0.08886299 0.14961685 0.05565219
v 0.08937864 0.14973019 0.05736492
v 0.09268291 0.14992439 0.05706832
v 0.09250076 0.15010167 0.05457687
v 0.09058864 0.15019764 0.05387775
v 0.08888304 0.15029417 0.05522454
v 0.09286539 0.15072567 0.05531190
v 0.09099376 0.16989809 0.05766344
v 0.08926491 0.16991399 0.05677910
v 0.09052291 0.16991159 0.05428046
f 13 12 25
f 10 23 34
f 7 1 8
f 36 4 6
f 13 4 36
f 6 7 36
f 36 7 37
f 11 12 13
f 13 36 11
f 11 36 37
f 11 9 10
f 10 24 11
f 24 12 11
f 5 26 6
f 6 4 5
f 18 15 24
f 23 15 18
f 30 12 24
f 24 25 30
f 30 25 12
f 14 4 13
f 13 25 14
f 14 5 4
f 24 15 19
f 19 25 24
f 29 34 23
f 29 18 24
f 23 18 29
f 29 24 10
f 10 34 29
f 22 21 17
f 1 7 2
f 2 7 6
f 2 21 35
f 6 26 2
f 26 21 2
f 38 11 37
f 38 7 8
f 37 7 38
f 8 9 38
f 9 11 38
f 26 5 31
f 20 14 25
f 5 14 20
f 20 31 5
f 26 31 20
f 20 21 26
f 25 19 20
f 20 19 15
f 20 15 17
f 17 21 20
f 16 22 17
f 23 22 16
f 17 15 16
f 16 15 23
f 8 1 3
f 3 23 10
f 10 9 3
f 3 9 8
f 32 22 1
f 1 2 32
f 1 22 28
f 28 3 1
f 28 22 23
f 27 2 35
f 27 32 2
f 35 21 27
f 21 22 27
f 22 32 27
f 23 3 33
f 33 28 23
f 3 28 33

