# https://github.com/mikedh/trimesh
v 0.11174856 -0.03580543 -0.04064006
v 0.11174857 0.03750224 -0.04991437
v 0.10706106 0.03808384 -0.04818514
v 0.11174856 0.03808387 -0.03372904
v 0.10706106 0.03750224 -0.03199982
v 0.11174857 0.03193179 -0.06262789
v 0.10706107 0.03134352 -0.06347035
v 0.11174857 0.02177187 -0.07282024
v 0.10706107 0.02091590 -0.07338854
v 0.11174857 0.00858394 -0.07858161
v 0.10706106 0.00578542 -0.07923969
v 0.11174856 -0.00579812 -0.07911055
v 0.10706106 -0.00850489 -0.07849947
v 0.11174856 -0.01937376 -0.07433336
v 0.10706106 -0.02025538 -0.07380582
v 0.11174856 -0.03025496 -0.06491469
v 0.10706106 -0.02964973 -0.06550656
v 0.10706106 -0.03609358 -0.05461691
v 0.11174856 -0.03692883 -0.05216424
v 0.10706106 -0.03864593 -0.03859674
v 0.11174856 -0.03847038 -0.03960514
v 0.11174856 -0.03700138 -0.03059569
v 0.10706106 -0.03419151 -0.02306076
v 0.11174856 -0.03291363 -0.02080692
v 0.10706106 -0.02525721 -0.01177829
v 0.11174856 -0.02455231 -0.01130969
v 0.11174856 -0.01213907 -0.00419172
v 0.10706106 -0.01452142 -0.00530741
v 0.10706106 -0.00405262 -0.00267736
v 0.11174856 0.00578529 -0.00267444
v 0.10706106 0.00858385 -0.00333249
v 0.11174856 0.02091566 -0.00852544
v 0.10706106 0.02177162 -0.00909374
v 0.11174856 0.03134352 -0.01844372
v 0.10706106 0.03193179 -0.01928622
f 20 18 19
f 10 12 11
f 2 3 4
f 5 35 4
f 4 3 5
f 11 12 13
f 12 10 14
f 15 13 14
f 14 13 12
f 26 24 27
f 25 24 26
f 25 20 23
f 23 24 25
f 21 20 19
f 9 7 8
f 8 10 9
f 9 10 11
f 6 7 3
f 3 2 6
f 8 7 6
f 15 14 16
f 19 18 16
f 22 23 20
f 20 21 22
f 24 23 22
f 28 29 25
f 27 29 28
f 25 26 28
f 28 26 27
f 27 32 30
f 30 32 31
f 31 29 30
f 30 29 27
f 35 31 33
f 31 32 33
f 4 35 34
f 35 33 34
f 34 33 32
f 18 15 17
f 17 16 18
f 15 16 17
f 11 13 9
f 35 5 9
f 9 20 25
f 25 29 9
f 18 20 9
f 9 15 18
f 9 31 35
f 3 7 9
f 9 5 3
f 9 13 15
f 9 29 31
f 1 10 8
f 8 6 1
f 1 2 4
f 1 14 10
f 27 24 1
f 4 34 1
f 1 32 27
f 1 6 2
f 1 34 32
f 24 22 1
f 1 22 21
f 19 16 1
f 1 16 14
f 1 21 19

