# https://github.com/mikedh/trimesh
v 0.09475777 0.14987642 -0.09525349
v 0.09567400 0.14593942 -0.09672354
v 0.09093575 0.14987642 -0.08889422
v 0.09094675 0.14987642 -0.10098136
v 0.10302283 0.14987642 -0.08890525
v 0.10303384 0.14987642 -0.10099237
v 0.09094675 0.14593942 -0.08890521
v 0.10303384 0.14593942 -0.08889422
v 0.09093575 0.14593942 -0.10099237
v 0.10302283 0.14593942 -0.10098134
f 3 9 7
f 7 8 3
f 4 9 3
f 6 9 4
f 3 8 5
f 5 8 6
f 10 9 6
f 6 8 10
f 6 4 1
f 1 5 6
f 1 4 3
f 3 5 1
f 2 7 9
f 9 10 2
f 8 7 2
f 2 10 8

