# https://github.com/mikedh/trimesh
v 0.15772258 0.19658371 0.10895906
v 0.15739814 0.19814902 0.10904706
v 0.15741501 0.19662332 0.10937206
v 0.15634884 0.19687796 0.11028706
v 0.15620389 0.19709289 0.10681436
v 0.15665294 0.19716137 0.10707919
v 0.15679162 0.19611771 0.10737067
v 0.15174633 0.19823392 0.10774914
v 0.14863331 0.19742241 0.10877758
v 0.14925613 0.19940193 0.11010174
v 0.15715329 0.19730014 0.10979612
v 0.15651771 0.19555701 0.10778041
v 0.15710974 0.19578522 0.10854589
v 0.14880093 0.19547927 0.10900411
v 0.15707064 0.19580673 0.10931086
v 0.14961906 0.19562576 0.11114429
v 0.15354034 0.19523454 0.11192883
v 0.15074039 0.19765791 0.11370836
v 0.15052701 0.19549148 0.11326754
v 0.15276661 0.19982746 0.11025401
v 0.15004214 0.19954481 0.11204161
v 0.14992598 0.19428201 0.11167586
v 0.15271651 0.19430167 0.10999056
v 0.15679216 0.19849084 0.10786871
v 0.15181261 0.19532113 0.10796601
v 0.15674656 0.19843143 0.10897704
v 0.14917919 0.19643904 0.11009584
v 0.15605784 0.19818359 0.10750361
v 0.15367336 0.19813034 0.11227288
v 0.15012831 0.19627301 0.11239509
v 0.15692364 0.19791384 0.10741174
v 0.14971519 0.19835708 0.11135191
v 0.15011214 0.19777478 0.11238094
f 18 17 29
f 29 21 18
f 20 21 29
f 9 25 14
f 22 17 19
f 19 17 18
f 20 24 8
f 8 25 9
f 32 21 9
f 18 21 33
f 33 19 18
f 30 19 33
f 21 32 33
f 33 32 9
f 16 14 22
f 22 19 16
f 16 19 30
f 25 12 23
f 22 14 23
f 23 14 25
f 23 17 22
f 17 23 15
f 7 12 25
f 10 21 20
f 20 8 10
f 9 21 10
f 10 8 9
f 4 29 17
f 4 11 29
f 2 11 1
f 20 29 2
f 29 11 2
f 9 14 27
f 14 16 27
f 27 16 30
f 27 33 9
f 30 33 27
f 1 15 13
f 13 7 1
f 12 7 13
f 13 23 12
f 13 15 23
f 25 8 5
f 5 7 25
f 11 4 3
f 1 11 3
f 3 15 1
f 17 15 3
f 3 4 17
f 26 24 20
f 20 2 26
f 26 2 24
f 28 8 24
f 28 5 8
f 1 7 31
f 31 28 24
f 5 28 31
f 31 2 1
f 24 2 31
f 7 5 6
f 6 31 7
f 5 31 6

