# https://github.com/mikedh/trimesh
v 0.15216154 0.18505029 0.10884124
v 0.15140278 0.18647974 0.10943294
v 0.15234087 0.18730651 0.10884714
v 0.15538336 0.18977233 0.11620314
v 0.15421191 0.19050999 0.11536803
v 0.15485746 0.18898832 0.11716661
v 0.15568691 0.18371349 0.11739084
v 0.15477018 0.18375117 0.11744234
v 0.15433758 0.18243629 0.11647949
v 0.15541565 0.18224129 0.11601714
v 0.15431949 0.18112032 0.11436036
v 0.15338170 0.18133494 0.11396234
v 0.15298964 0.18142531 0.11148424
v 0.15211693 0.18225704 0.11100119
v 0.15276426 0.18314054 0.10961216
v 0.15152801 0.18432172 0.10971384
v 0.15374888 0.19039802 0.11153358
v 0.15241123 0.19022919 0.11114764
v 0.15385053 0.19105472 0.11345019
v 0.15501564 0.19044282 0.11440479
v 0.15566910 0.18775187 0.11773696
v 0.15288275 0.18489778 0.10921436
v 0.15324754 0.18890012 0.11005256
v 0.15205404 0.18874404 0.10956246
v 0.15623659 0.18540044 0.11744299
v 0.15521096 0.18572786 0.11812509
v 0.15402493 0.18163749 0.11202369
v 0.15601258 0.18812059 0.11672583
v 0.15495866 0.18169562 0.11423566
v 0.15287131 0.19031271 0.11318264
v 0.15437443 0.18918071 0.11666774
f 12 9 14
f 21 26 25
f 18 30 19
f 19 17 18
f 18 17 24
f 2 30 18
f 18 24 2
f 16 14 9
f 16 30 2
f 16 9 30
f 2 1 16
f 10 29 25
f 22 29 27
f 31 8 26
f 30 9 31
f 9 8 31
f 20 17 19
f 24 17 23
f 17 20 23
f 23 29 22
f 7 10 25
f 25 26 7
f 26 8 7
f 7 8 9
f 9 10 7
f 29 10 11
f 11 27 29
f 11 9 12
f 11 10 9
f 15 1 22
f 22 27 15
f 14 16 15
f 15 16 1
f 6 21 4
f 26 21 6
f 6 31 26
f 19 30 5
f 30 31 5
f 5 20 19
f 4 20 5
f 5 6 4
f 31 6 5
f 25 29 28
f 28 20 4
f 29 23 28
f 28 23 20
f 28 21 25
f 4 21 28
f 24 23 3
f 2 24 3
f 3 1 2
f 22 1 3
f 3 23 22
f 14 15 13
f 13 15 27
f 12 14 13
f 13 11 12
f 27 11 13

