# https://github.com/mikedh/trimesh
v 0.12036111 -0.26210725 0.05598258
v 0.11865595 -0.24924218 0.05531515
v 0.11932013 -0.25155701 0.05626563
v 0.11977760 -0.25188426 0.05496740
v 0.11779711 -0.25201101 0.05450996
v 0.11768931 -0.25178902 0.05601386
v 0.11867673 -0.25165450 0.05415684
v 0.11872241 -0.25211651 0.05406394
v 0.11990445 -0.25229001 0.05488492
v 0.11950888 -0.25241975 0.05648706
v 0.11856050 -0.25244827 0.05680332
v 0.12152403 -0.26210200 0.05489369
v 0.12025948 -0.26210627 0.05760611
v 0.11725618 -0.26210176 0.05782292
v 0.11598681 -0.26208851 0.05512084
v 0.11826176 -0.26208100 0.05229042
v 0.11875458 -0.25307800 0.05393114
v 0.11763895 -0.25287675 0.05437233
v 0.11719195 -0.25265052 0.05576743
v 0.11932495 -0.26210501 0.05361586
v 0.11697833 -0.26210725 0.05462599
v 0.12017935 -0.25427126 0.05532320
v 0.11805525 -0.25394902 0.05391598
v 0.11971558 -0.25333402 0.05639800
v 0.12006911 -0.25315077 0.05459314
f 15 14 19
f 12 16 25
f 20 16 12
f 12 1 20
f 13 1 12
f 14 13 11
f 18 16 15
f 15 19 18
f 2 25 7
f 21 20 1
f 21 13 14
f 1 13 21
f 21 14 15
f 15 16 21
f 16 20 21
f 4 25 2
f 6 19 14
f 14 11 6
f 2 19 6
f 6 11 2
f 5 19 2
f 5 18 19
f 2 7 5
f 5 7 18
f 16 7 8
f 8 7 25
f 16 18 23
f 23 7 16
f 18 7 23
f 12 25 9
f 25 4 9
f 10 11 13
f 10 9 4
f 17 25 16
f 16 8 17
f 17 8 25
f 3 4 2
f 3 10 4
f 2 11 3
f 11 10 3
f 24 13 12
f 24 10 13
f 9 10 24
f 12 9 22
f 22 24 12
f 9 24 22

