# https://github.com/mikedh/trimesh
v 0.11195168 -0.16763974 0.07633078
v 0.11052896 -0.16673631 0.07828046
v 0.11052139 -0.16760346 0.07841468
v 0.10785503 -0.16762475 0.07830214
v 0.10795493 -0.16673221 0.07814446
v 0.10668821 -0.16762156 0.07589518
v 0.10685991 -0.16672301 0.07598228
v 0.10814788 -0.16673221 0.07392891
v 0.10813816 -0.16760390 0.07376821
v 0.11057227 -0.16672593 0.07397343
v 0.11069247 -0.16761643 0.07385243
v 0.11178532 -0.16673221 0.07607468
v 0.11174551 -0.16833641 0.07580476
v 0.10947694 -0.16842464 0.07373536
v 0.10763503 -0.16839321 0.07440701
v 0.11051578 -0.16877493 0.07853511
v 0.10663211 -0.16877993 0.07598331
v 0.10809966 -0.16876921 0.07375623
v 0.11079311 -0.16879476 0.07380623
v 0.10738566 -0.16969306 0.07470899
v 0.10784279 -0.16878261 0.07837493
v 0.11193436 -0.16988433 0.07638398
v 0.11083156 -0.16991791 0.07387616
v 0.11112219 -0.17061068 0.07762876
v 0.10734428 -0.17076116 0.07483013
v 0.10782816 -0.16992633 0.07836548
v 0.10927389 -0.17063876 0.07847098
v 0.11054776 -0.16988838 0.07851386
v 0.11045399 -0.17098128 0.07845519
v 0.10816331 -0.17095936 0.07377376
v 0.10815909 -0.17001033 0.07368028
v 0.11079524 -0.17104959 0.07383201
v 0.11109736 -0.17165831 0.07449171
v 0.10755227 -0.17195916 0.07458766
v 0.10702757 -0.17194838 0.07646163
v 0.10662816 -0.17102476 0.07597148
v 0.10898081 -0.17167954 0.07843261
v 0.11106824 -0.17193721 0.07766826
v 0.10836693 -0.17211176 0.07839916
v 0.10781978 -0.17109548 0.07830661
v 0.11000776 -0.17211176 0.07369891
v 0.11175684 -0.17211176 0.07595676
v 0.11195151 -0.17119593 0.07616236
v 0.10835628 -0.16644743 0.07727891
v 0.10793613 -0.17202870 0.07547286
v 0.10778314 -0.16648591 0.07578068
v 0.11064929 -0.16659260 0.07626969
v 0.10991329 -0.16659633 0.07469138
v 0.10892234 -0.16653203 0.07465804
f 42 39 41
f 36 6 20
f 31 34 20
f 8 6 7
f 38 39 42
f 42 43 38
f 31 41 30
f 30 34 31
f 41 34 30
f 36 34 35
f 45 41 39
f 45 34 41
f 39 35 45
f 45 35 34
f 25 34 36
f 36 20 25
f 25 20 34
f 27 21 39
f 17 6 36
f 12 11 10
f 10 8 49
f 15 20 6
f 11 12 19
f 11 19 14
f 14 41 31
f 14 19 41
f 9 8 10
f 10 11 9
f 11 14 9
f 9 14 31
f 6 8 9
f 9 15 6
f 39 38 29
f 29 38 28
f 28 38 24
f 22 43 1
f 22 38 43
f 22 24 38
f 1 28 22
f 28 24 22
f 40 35 39
f 36 35 40
f 7 6 4
f 4 5 7
f 6 17 4
f 4 17 21
f 10 49 48
f 48 49 47
f 48 12 10
f 47 12 48
f 47 49 44
f 7 5 44
f 41 19 32
f 1 43 13
f 43 19 13
f 13 12 1
f 13 19 12
f 18 9 31
f 15 9 18
f 31 20 18
f 20 15 18
f 39 29 37
f 37 29 28
f 37 27 39
f 28 27 37
f 39 21 26
f 26 40 39
f 36 40 26
f 26 17 36
f 21 17 26
f 5 4 2
f 1 12 2
f 2 44 5
f 2 12 47
f 47 44 2
f 7 44 46
f 46 44 49
f 46 8 7
f 46 49 8
f 42 41 33
f 41 32 33
f 33 43 42
f 33 32 43
f 23 19 43
f 43 32 23
f 23 32 19
f 16 4 21
f 16 28 1
f 16 27 28
f 21 27 16
f 3 2 4
f 4 16 3
f 1 2 3
f 3 16 1

