# https://github.com/mikedh/trimesh
v -0.17978314 -0.16636116 0.05626805
v -0.17908962 -0.16608413 0.05792135
v -0.17905394 -0.16607253 0.05391606
v -0.17442729 -0.16636111 0.05885634
v -0.17284071 -0.16610831 0.05649145
v -0.17635611 -0.16609627 0.05932448
v -0.17819394 -0.16961436 0.05297954
v -0.17600723 -0.16987669 0.05248684
v -0.17946958 -0.16989941 0.05472217
v -0.17394941 -0.16611706 0.05346952
v -0.17306486 -0.16982832 0.05456038
v -0.17377862 -0.16984719 0.05835895
v -0.17691119 -0.16985409 0.05926778
v -0.17947856 -0.16978083 0.05750116
v -0.17703409 -0.16617269 0.05244732
v -0.17770793 -0.14825561 0.05551904
v -0.17683216 -0.14849472 0.05742281
v -0.17552706 -0.14825319 0.05713653
v -0.17684849 -0.14873703 0.05440206
v -0.17525462 -0.14860239 0.05427666
v -0.17437719 -0.14873504 0.05604404
v -0.17534488 -0.14880166 0.05775539
v -0.17705176 -0.14882423 0.05780408
v -0.17836299 -0.14897389 0.05642223
v -0.17765568 -0.14909213 0.05433523
v -0.17577516 -0.14918754 0.05392487
v -0.17434531 -0.14929989 0.05524422
v -0.17735814 -0.14956159 0.05772080
v -0.17492996 -0.14944231 0.05755050
v -0.17781436 -0.14973129 0.05447091
v -0.17631674 -0.14983359 0.05389035
v -0.17474357 -0.14991129 0.05454902
v -0.17430749 -0.15002879 0.05632343
v -0.17416804 -0.15070426 0.05597404
v -0.17785743 -0.15096231 0.05739182
v -0.17821209 -0.15107791 0.05512135
v -0.17679096 -0.15120244 0.05387686
v -0.17507363 -0.16990214 0.05480835
v -0.17773566 -0.16990629 0.05691280
v -0.17616154 -0.16990627 0.05764951
f 13 4 6
f 2 14 13
f 13 6 2
f 2 6 28
f 1 14 2
f 12 4 13
f 12 11 5
f 5 29 12
f 12 29 4
f 7 25 15
f 7 3 25
f 25 3 30
f 18 16 17
f 28 6 23
f 18 17 23
f 4 29 22
f 22 6 4
f 22 23 6
f 18 23 22
f 35 2 28
f 31 26 15
f 25 26 31
f 5 11 27
f 11 10 27
f 25 16 19
f 19 26 25
f 40 12 13
f 13 39 40
f 9 14 1
f 13 14 9
f 9 39 13
f 1 3 9
f 3 7 9
f 36 3 1
f 36 30 3
f 24 16 25
f 24 17 16
f 24 23 17
f 28 23 24
f 25 30 24
f 30 36 24
f 24 35 28
f 24 36 1
f 2 35 24
f 1 2 24
f 15 25 37
f 37 31 15
f 25 31 37
f 8 10 11
f 8 7 15
f 15 26 8
f 26 10 8
f 8 9 7
f 26 19 20
f 20 10 26
f 20 16 18
f 20 19 16
f 33 29 5
f 9 8 38
f 38 40 39
f 39 9 38
f 12 40 38
f 38 8 11
f 11 12 38
f 21 20 18
f 27 20 21
f 18 22 21
f 21 22 29
f 29 33 21
f 32 27 10
f 10 20 32
f 32 20 27
f 34 33 5
f 34 21 33
f 5 27 34
f 27 21 34

