# https://github.com/mikedh/trimesh
v 0.13631093 0.00929327 -0.00604781
v 0.13631865 -0.00203722 -0.00494114
v 0.13721543 0.00535816 -0.00449666
v 0.13789490 -0.00250516 -0.00413469
v 0.13799648 0.01161745 -0.00599944
v 0.13859913 0.00374039 -0.00465916
v 0.13882501 0.01750945 -0.00928299
v 0.13798376 0.02572971 -0.06741976
v 0.13898604 0.02904874 -0.06183382
v 0.13886316 0.01848223 -0.07199141
v 0.13798374 0.00386678 -0.07766353
v 0.13887291 0.01079151 -0.07535767
v 0.13886656 -0.00090837 -0.07680651
v 0.13880738 -0.00841408 -0.07623009
v 0.13791395 -0.01379827 -0.07522966
v 0.13890171 -0.02352411 -0.06844601
v 0.13819235 -0.02787681 -0.06499436
v 0.13888203 -0.03219066 -0.05706591
v 0.13810648 -0.03279384 -0.02392359
v 0.13872375 -0.03511201 -0.03160439
v 0.13889388 -0.03206374 -0.02499142
v 0.13855891 -0.02430182 -0.01366591
v 0.13782503 -0.01223682 -0.00616836
v 0.13886793 -0.01741889 -0.00939294
v 0.13887888 -0.00783763 -0.00581502
v 0.13883025 0.00430464 -0.00611371
v 0.13880933 -0.02640918 -0.01782639
v 0.13881655 -0.03529016 -0.04290434
v 0.13886569 0.03463307 -0.05149121
v 0.13888211 0.03604257 -0.03981817
v 0.13888141 0.03067259 -0.02209712
v 0.13883568 0.02075167 -0.01240482
v 0.13635220 0.02046317 -0.01097481
v 0.13728633 0.01695678 -0.00815151
v 0.13854738 0.02473357 -0.01402951
v 0.13725285 0.02663137 -0.01544984
v 0.13653468 0.03553839 -0.03212929
v 0.13841196 0.03492532 -0.02961696
v 0.13767126 0.03684827 -0.03878511
v 0.13657022 -0.00137778 -0.07747506
v 0.13758328 -0.00524657 -0.07744462
v 0.13708893 -0.02776871 -0.06518367
v 0.13758331 -0.02138309 -0.07098451
v 0.13758328 -0.03276541 -0.05784861
v 0.13681380 -0.03551284 -0.05039364
v 0.13857805 -0.03532476 -0.05027332
v 0.13651075 -0.02864888 -0.01825161
v 0.13758327 -0.02667939 -0.01551886
v 0.13718283 -0.01965108 -0.00971321
v 0.13687280 -0.00980617 -0.00556944
v 0.13629538 -0.01495941 -0.00827742
v 0.13628053 -0.03024386 -0.02174039
v 0.13644842 -0.03522929 -0.03162904
v 0.13631670 -0.03099201 -0.05956307
v 0.13627438 -0.02051258 -0.07058156
v 0.13732069 0.01400408 -0.07514697
v 0.13632648 0.01059955 -0.07554491
v 0.13675834 0.02057955 -0.07137201
v 0.13732076 0.03484836 -0.05322029
v 0.13688526 0.03140959 -0.06018544
v 0.13636298 0.03553019 -0.04773514
v 0.13625504 0.03522856 -0.04459599
v 0.13724994 0.03667239 -0.04460439
v 0.13629539 0.03335389 -0.02757016
v 0.13647083 0.02996899 -0.02047724
v 0.13628678 0.02674697 -0.06507717
v 0.13633381 -0.01341551 -0.07456966
v 0.13632991 -0.03366696 -0.05152267
v 0.13626888 -0.03598906 -0.04100026
v 0.13760098 -0.03491051 -0.02883361
v 0.13758327 -0.03702944 -0.04095706
v 0.13758328 0.03198351 -0.02249109
v 0.13870973 -0.03625713 -0.03993646
f 30 31 9
f 29 30 9
f 31 30 38
f 55 69 62
f 62 66 55
f 55 54 69
f 55 57 67
f 55 66 57
f 9 10 8
f 9 16 13
f 51 1 62
f 21 16 9
f 16 21 18
f 69 54 68
f 39 38 30
f 30 29 63
f 63 39 30
f 9 8 60
f 60 8 66
f 31 7 25
f 9 31 25
f 25 21 9
f 24 21 25
f 62 1 64
f 64 1 33
f 33 65 64
f 4 25 6
f 33 1 34
f 7 35 34
f 43 55 67
f 58 8 10
f 57 66 58
f 66 8 58
f 67 57 40
f 12 10 9
f 9 13 12
f 1 51 2
f 62 69 52
f 52 51 62
f 19 21 22
f 16 18 17
f 17 43 16
f 45 68 54
f 71 69 45
f 69 68 45
f 59 29 9
f 9 60 59
f 59 63 29
f 31 38 72
f 72 35 31
f 72 64 65
f 32 7 31
f 31 35 32
f 32 35 7
f 36 65 33
f 33 34 36
f 36 34 35
f 36 72 65
f 35 72 36
f 24 25 23
f 23 25 4
f 38 39 37
f 37 72 38
f 64 72 37
f 62 64 37
f 39 63 37
f 26 25 7
f 7 6 26
f 26 6 25
f 5 34 1
f 5 6 7
f 7 34 5
f 14 13 16
f 57 58 56
f 56 58 10
f 10 12 56
f 11 12 13
f 11 56 12
f 11 40 57
f 57 56 11
f 53 52 69
f 53 69 71
f 27 21 24
f 24 22 27
f 27 22 21
f 51 52 47
f 44 17 18
f 44 45 54
f 54 55 42
f 42 44 54
f 17 44 42
f 55 43 42
f 43 17 42
f 28 18 21
f 20 21 19
f 71 73 20
f 20 28 21
f 73 28 20
f 71 45 46
f 46 73 71
f 46 44 18
f 45 44 46
f 18 28 46
f 46 28 73
f 61 59 60
f 61 66 62
f 61 60 66
f 63 59 61
f 62 37 61
f 61 37 63
f 49 22 24
f 24 23 49
f 51 47 49
f 50 2 51
f 51 49 50
f 50 49 23
f 4 2 50
f 50 23 4
f 3 5 1
f 6 5 3
f 4 6 3
f 3 2 4
f 1 2 3
f 16 43 15
f 15 14 16
f 15 43 67
f 52 53 70
f 19 47 70
f 70 47 52
f 70 20 19
f 70 53 71
f 71 20 70
f 19 22 48
f 48 47 19
f 22 49 48
f 48 49 47
f 14 15 41
f 40 11 41
f 67 40 41
f 41 15 67
f 13 14 41
f 41 11 13

