# https://github.com/mikedh/trimesh
v 0.20190680 0.18001819 -0.07247161
v 0.20030817 0.18340406 -0.07386845
v 0.20451492 0.18529088 -0.07111623
v 0.20503267 0.16794836 -0.05361989
v 0.20709048 0.16808271 -0.05748733
v 0.20904971 0.16886804 -0.05220743
v 0.19814930 0.17572131 -0.07023803
v 0.20059600 0.17335724 -0.06890913
v 0.20008087 0.17075379 -0.06557471
v 0.21390940 0.18523369 -0.04099123
v 0.21313358 0.18025664 -0.04141288
v 0.21389908 0.18029691 -0.04288988
v 0.20019214 0.18741476 -0.07406029
v 0.20606283 0.18963044 -0.06938181
v 0.20599588 0.17387150 -0.06563641
v 0.20689014 0.17633186 -0.06603893
v 0.20809194 0.17111434 -0.04623408
v 0.19764329 0.19406993 -0.07145891
v 0.20135772 0.19615146 -0.07103224
v 0.20044025 0.19249718 -0.07300704
v 0.19964082 0.17327293 -0.06663661
v 0.19976050 0.20089958 -0.06634793
v 0.21024574 0.17799483 -0.04103393
v 0.21101433 0.18737291 -0.03917868
v 0.20757529 0.19631729 -0.04748116
v 0.21137148 0.17563201 -0.04330516
v 0.21364885 0.17803818 -0.04689693
v 0.21370088 0.17824888 -0.04949531
v 0.20304348 0.20072021 -0.06685066
v 0.20171920 0.20083470 -0.06659528
v 0.21258112 0.17591786 -0.04395711
v 0.20647069 0.19409358 -0.06738106
v 0.21085664 0.20066693 -0.04817103
v 0.21203560 0.19818673 -0.05105833
v 0.20138095 0.17591416 -0.07101089
v 0.20005642 0.17946001 -0.07291878
v 0.20929977 0.20305500 -0.05215999
v 0.21069721 0.19879411 -0.05700666
v 0.20546624 0.20389793 -0.05257308
v 0.20694620 0.20400946 -0.05786253
v 0.21137902 0.19261608 -0.06111559
v 0.21292993 0.18475374 -0.05902094
v 0.20947036 0.18349296 -0.06539863
v 0.21294245 0.19591026 -0.05148481
v 0.20861784 0.17238041 -0.06074738
v 0.21041199 0.17820253 -0.06201223
v 0.20285682 0.20411754 -0.05887276
v 0.20433768 0.20284879 -0.06352255
v 0.21259197 0.19613708 -0.04397969
v 0.21137496 0.19642635 -0.04331803
v 0.21402708 0.18924585 -0.05480388
v 0.21488763 0.18817020 -0.04793576
v 0.21460360 0.18234181 -0.05095991
v 0.19687505 0.18469288 -0.07331388
v 0.20686878 0.19621389 -0.06583490
v 0.20573827 0.19845549 -0.06572078
v 0.20242314 0.16816796 -0.05991970
v 0.20469424 0.16904858 -0.06305401
v 0.20879527 0.19755119 -0.04453598
v 0.20788335 0.20120025 -0.04673791
v 0.20978709 0.19612986 -0.04214171
v 0.21307441 0.17658844 -0.05135818
v 0.21169454 0.17454588 -0.05559605
v 0.21326274 0.19315905 -0.04225323
v 0.20009887 0.19638725 -0.07056298
v 0.21205102 0.17391860 -0.05108503
v 0.21084877 0.17141111 -0.04815361
v 0.20311846 0.17139721 -0.06684335
v 0.20444876 0.19387771 -0.06955066
v 0.20632466 0.17807871 -0.06757534
v 0.20435323 0.17813641 -0.06956243
v 0.20968412 0.20074353 -0.04741286
v 0.20878545 0.19777961 -0.06224688
v 0.21368207 0.19389885 -0.04717511
v 0.21360036 0.19408096 -0.05013251
v 0.21380190 0.18931806 -0.04121411
f 58 9 68
f 24 23 11
f 52 12 53
f 24 64 61
f 15 58 68
f 9 58 57
f 57 21 9
f 4 23 57
f 23 21 57
f 23 25 18
f 18 39 47
f 25 39 18
f 54 21 18
f 18 21 23
f 2 36 54
f 1 36 2
f 24 11 10
f 10 11 12
f 10 12 52
f 24 61 59
f 59 23 24
f 59 25 23
f 59 39 25
f 60 39 59
f 59 61 60
f 50 61 64
f 60 61 50
f 54 36 7
f 7 21 54
f 9 21 7
f 35 36 1
f 1 71 35
f 35 7 36
f 35 15 68
f 35 71 15
f 20 18 19
f 54 18 20
f 69 20 19
f 19 29 69
f 1 2 3
f 42 43 41
f 46 43 42
f 48 29 30
f 56 69 29
f 56 29 48
f 48 73 56
f 41 73 38
f 52 64 76
f 76 10 52
f 76 64 24
f 24 10 76
f 12 11 31
f 17 23 4
f 4 57 5
f 5 57 58
f 46 42 63
f 63 42 53
f 33 50 49
f 49 50 64
f 33 60 72
f 72 50 33
f 60 50 72
f 8 35 68
f 7 35 8
f 68 9 8
f 9 7 8
f 70 3 43
f 70 71 1
f 1 3 70
f 70 43 46
f 46 16 70
f 15 71 70
f 70 16 15
f 13 3 2
f 13 2 54
f 54 20 13
f 20 69 14
f 14 13 20
f 3 13 14
f 14 69 32
f 43 3 14
f 32 41 14
f 41 43 14
f 19 18 65
f 22 18 47
f 47 48 22
f 48 30 22
f 22 65 18
f 19 65 22
f 22 29 19
f 22 30 29
f 51 42 41
f 44 75 51
f 51 75 52
f 41 38 51
f 51 38 44
f 52 53 51
f 53 42 51
f 74 64 52
f 52 75 74
f 74 49 64
f 74 75 44
f 33 49 74
f 55 56 73
f 55 41 32
f 55 73 41
f 32 69 55
f 69 56 55
f 44 38 34
f 33 74 34
f 34 74 44
f 40 73 48
f 40 38 73
f 40 48 47
f 47 39 40
f 62 63 53
f 26 11 23
f 26 31 11
f 23 17 26
f 67 31 26
f 26 17 67
f 46 63 45
f 45 63 5
f 45 5 58
f 58 15 45
f 45 16 46
f 15 16 45
f 5 63 6
f 4 5 6
f 6 17 4
f 67 17 6
f 33 34 37
f 37 34 38
f 38 40 37
f 37 40 39
f 37 60 33
f 37 39 60
f 27 31 67
f 12 31 27
f 27 53 12
f 66 27 67
f 62 27 66
f 63 62 66
f 67 6 66
f 66 6 63
f 28 62 53
f 53 27 28
f 28 27 62

