# https://github.com/mikedh/trimesh
v -0.11588847 -0.03787069 -0.04134566
v -0.11568604 -0.03868234 -0.03900596
v -0.11566532 -0.03874079 -0.04292558
v -0.11829162 -0.04338034 -0.04134573
v -0.11848989 -0.04257112 -0.03900529
v -0.11851317 -0.04251164 -0.04292561
v -0.11848353 -0.03807174 -0.04016976
v -0.11847047 -0.03834454 -0.04251661
v -0.11851957 -0.04022154 -0.04357423
v -0.11565755 -0.04102864 -0.04357253
v -0.11570322 -0.04290284 -0.04251643
v -0.11569657 -0.04317934 -0.04016978
v -0.11568962 -0.04155569 -0.03836578
v -0.11848599 -0.03969552 -0.03836323
v -0.10379602 -0.04148857 -0.04144280
v -0.10398809 -0.04169287 -0.04037013
v -0.10422117 -0.04217837 -0.04083521
v -0.10396467 -0.04061479 -0.03973713
v -0.10414723 -0.03931344 -0.04080896
v -0.10377862 -0.03985442 -0.04163693
v -0.10426585 -0.04052827 -0.04222088
v -0.10430922 -0.04138089 -0.04200373
v -0.10427487 -0.04141289 -0.03963988
v -0.10435892 -0.03987577 -0.03957546
v -0.10446190 -0.03906384 -0.04097701
v -0.10451532 -0.03993889 -0.04237768
v -0.10461170 -0.04177344 -0.04206695
v -0.10473035 -0.04204482 -0.04028891
v -0.10480322 -0.04076087 -0.03940168
v -0.10493554 -0.03911644 -0.04030868
v -0.10504255 -0.03974027 -0.04227056
v -0.10507210 -0.04105894 -0.04240693
v -0.10515072 -0.04215434 -0.04142823
v -0.10551862 -0.03955554 -0.04211578
v -0.10559584 -0.04156789 -0.04230138
v -0.10425350 -0.03957254 -0.04159940
v -0.11854979 -0.03936161 -0.04168683
v -0.11853132 -0.04072719 -0.04244013
v -0.11852673 -0.04187252 -0.04169203
v -0.11853234 -0.04185949 -0.04012688
v -0.11853630 -0.03936264 -0.04024186
f 14 5 13
f 13 5 23
f 11 33 4
f 18 15 20
f 40 5 14
f 14 41 40
f 40 41 37
f 37 39 40
f 1 3 8
f 29 13 23
f 23 18 29
f 14 13 29
f 4 33 17
f 6 11 4
f 10 11 6
f 4 5 6
f 37 38 6
f 6 39 37
f 5 40 6
f 6 40 39
f 14 2 7
f 7 2 1
f 1 8 7
f 7 41 14
f 37 41 7
f 7 8 37
f 24 2 14
f 14 29 24
f 24 29 18
f 1 2 30
f 2 24 30
f 9 8 3
f 10 6 9
f 9 6 38
f 9 38 37
f 37 8 9
f 23 17 16
f 16 17 15
f 16 18 23
f 15 18 16
f 12 5 4
f 4 17 12
f 1 30 25
f 20 36 25
f 25 3 1
f 28 17 23
f 28 12 17
f 23 5 28
f 5 12 28
f 33 11 27
f 27 17 33
f 15 17 27
f 27 22 15
f 26 36 20
f 26 32 10
f 26 25 36
f 31 25 26
f 3 31 26
f 10 9 26
f 26 9 3
f 20 25 19
f 19 18 20
f 19 24 18
f 19 30 24
f 19 25 30
f 34 31 3
f 3 25 34
f 34 25 31
f 10 32 35
f 32 27 35
f 35 11 10
f 35 27 11
f 21 26 20
f 20 15 21
f 15 22 21
f 22 27 21
f 21 27 32
f 32 26 21

