# https://github.com/mikedh/trimesh
v 0.07063336 0.21637140 0.05497192
v 0.08349606 0.21457950 0.05529105
v 0.08085392 0.21561767 0.05583989
v 0.08088741 0.21352306 0.05486450
v 0.08105232 0.21464077 0.05414552
v 0.08071616 0.21360522 0.05592522
v 0.08108369 0.21438621 0.05643327
v 0.08062289 0.21430004 0.05651261
v 0.08047792 0.21554390 0.05620133
v 0.08034179 0.21588670 0.05492591
v 0.08027766 0.21491140 0.05381624
v 0.07063637 0.21732057 0.05623459
v 0.07063206 0.21657842 0.05333547
v 0.07063659 0.21366652 0.05256804
v 0.07065069 0.21192814 0.05496213
v 0.07065731 0.21363393 0.05819113
v 0.07982507 0.21476279 0.05666487
v 0.07988909 0.21337865 0.05623702
v 0.08008027 0.21327601 0.05451480
v 0.07063336 0.21492341 0.05708462
v 0.07063336 0.21281064 0.05563666
v 0.07869909 0.21500560 0.05675323
v 0.07896782 0.21309060 0.05521723
v 0.07954977 0.21591359 0.05607049
f 18 16 15
f 13 12 10
f 15 16 21
f 21 14 15
f 13 14 21
f 15 14 19
f 22 12 16
f 22 9 12
f 24 10 12
f 12 9 24
f 13 21 20
f 16 12 20
f 20 21 16
f 4 19 2
f 18 19 4
f 23 18 15
f 15 19 23
f 23 19 18
f 11 19 14
f 11 14 13
f 13 10 11
f 11 10 2
f 7 18 2
f 2 9 7
f 10 24 3
f 3 24 9
f 2 10 3
f 3 9 2
f 1 12 13
f 13 20 1
f 1 20 12
f 2 18 6
f 6 4 2
f 18 4 6
f 2 19 5
f 5 11 2
f 19 11 5
f 16 18 8
f 18 7 8
f 9 22 17
f 17 7 9
f 17 22 16
f 16 8 17
f 17 8 7

