# https://github.com/mikedh/trimesh
v 0.19991151 -0.17454054 0.10483177
v 0.20140900 -0.17658074 0.10960719
v 0.20142018 -0.17640987 0.10782827
v 0.19399845 -0.18040831 0.09398809
v 0.19407408 -0.18355976 0.09234244
v 0.19335268 -0.18629854 0.09297389
v 0.19594938 -0.19483521 0.09563861
v 0.19703786 -0.19527086 0.09722632
v 0.19770655 -0.19737809 0.10004337
v 0.20161786 -0.17967739 0.11237574
v 0.20326461 -0.18282201 0.11343716
v 0.20266721 -0.17916979 0.11165714
v 0.19530658 -0.18372057 0.09291162
v 0.19425400 -0.18705308 0.09212769
v 0.20184255 -0.18559640 0.11329104
v 0.20117095 -0.19210202 0.11184552
v 0.19608178 -0.17646689 0.09666806
v 0.19761454 -0.17522646 0.09906797
v 0.19542081 -0.17912374 0.09414804
v 0.19558645 -0.17602559 0.09761074
v 0.19528018 -0.18980514 0.09298972
v 0.19452089 -0.19168681 0.09344994
v 0.19814366 -0.17447699 0.10419554
v 0.19791083 -0.17429102 0.10174447
v 0.20051863 -0.19479419 0.11029029
v 0.20276060 -0.19161792 0.11267852
v 0.20251059 -0.18918634 0.11381784
v 0.19611363 -0.19669292 0.09946352
v 0.19658193 -0.17614194 0.10051659
v 0.19990558 -0.19732757 0.10660344
v 0.19740078 -0.19740402 0.10285099
v 0.19974368 -0.17525581 0.10771711
v 0.19929443 -0.17632074 0.10698501
v 0.20188698 -0.19524787 0.10892307
v 0.19911938 -0.19780307 0.10410951
v 0.19367176 -0.18922379 0.09298302
v 0.19477706 -0.19451259 0.09633634
v 0.20163588 -0.19501807 0.11023862
v 0.19923828 -0.19696189 0.10244597
v 0.20356235 -0.18685439 0.11345619
v 0.20230978 -0.18551177 0.11412809
f 37 31 6
f 40 41 27
f 6 5 14
f 34 3 40
f 34 39 3
f 31 37 28
f 7 28 37
f 41 15 16
f 16 27 41
f 25 27 16
f 6 31 16
f 31 25 16
f 36 37 6
f 6 14 36
f 20 23 24
f 24 18 20
f 1 18 24
f 3 18 1
f 24 23 1
f 23 32 1
f 13 18 3
f 3 39 13
f 21 14 13
f 13 14 5
f 40 3 12
f 33 32 23
f 40 27 26
f 26 34 40
f 26 27 25
f 39 34 35
f 8 7 21
f 21 13 8
f 8 13 39
f 22 7 37
f 37 36 22
f 21 7 22
f 22 14 21
f 22 36 14
f 23 20 29
f 6 16 29
f 29 16 15
f 29 33 23
f 15 33 29
f 19 13 5
f 18 13 19
f 10 15 41
f 10 33 15
f 32 33 10
f 2 12 3
f 3 1 2
f 2 1 32
f 32 10 2
f 2 10 12
f 11 41 40
f 40 12 11
f 11 10 41
f 12 10 11
f 38 26 25
f 34 26 38
f 28 7 9
f 7 8 9
f 9 8 39
f 39 35 9
f 31 28 9
f 9 35 31
f 17 20 18
f 18 19 17
f 17 19 20
f 4 29 20
f 6 29 4
f 4 19 5
f 20 19 4
f 4 5 6
f 30 35 34
f 34 38 30
f 30 38 25
f 30 25 31
f 31 35 30

