# https://github.com/mikedh/trimesh
v 0.09384823 -0.10159433 -0.08741729
v 0.09479593 -0.09949773 -0.08833402
v 0.09493785 -0.09931366 -0.08745356
v 0.09364035 -0.09731793 -0.08833402
v 0.09350730 -0.09706080 -0.08743226
v 0.09148698 -0.09705903 -0.08821426
v 0.08984788 -0.09940771 -0.08831942
v 0.08971820 -0.09955113 -0.08745356
v 0.09109493 -0.10173966 -0.08745905
v 0.09116085 -0.10161881 -0.08832566
v 0.09361113 -0.10152048 -0.08833079
v 0.09028868 -0.10059911 -0.08662697
v 0.09383593 -0.10169943 -0.08630491
v 0.09114775 -0.10185633 -0.08629005
v 0.08961938 -0.09957008 -0.08628604
v 0.09084035 -0.09716773 -0.08629237
v 0.09353933 -0.09699413 -0.08626244
v 0.09503938 -0.09928221 -0.08630377
v 0.09380920 -0.10169929 -0.08517639
v 0.09261173 -0.10176123 -0.08443855
v 0.09110063 -0.10185293 -0.08509726
v 0.09049985 -0.10101880 -0.08436062
v 0.09081753 -0.09718438 -0.08510571
v 0.08972083 -0.09966250 -0.08406887
v 0.09113635 -0.10179346 -0.08406980
v 0.09181635 -0.10169101 -0.08308894
v 0.09011260 -0.10023700 -0.08307564
v 0.09020360 -0.09838251 -0.08333937
v 0.09085833 -0.09719136 -0.08408687
v 0.09220595 -0.09705251 -0.08332719
v 0.09352995 -0.09701348 -0.08405447
v 0.09503075 -0.09926271 -0.08406272
v 0.09454145 -0.10021063 -0.08314792
v 0.09424900 -0.09784318 -0.08294525
v 0.09106870 -0.09724723 -0.08294525
v 0.09364120 -0.10143946 -0.08294525
v 0.09375883 -0.10169076 -0.08396977
v 0.09090480 -0.10012976 -0.08298105
v 0.09371440 -0.09881513 -0.08865112
v 0.09314413 -0.10049696 -0.08846439
v 0.09287175 -0.09800651 -0.08860960
v 0.09085173 -0.09717268 -0.08869327
v 0.09140932 -0.10064863 -0.08846069
v 0.09088500 -0.09980716 -0.08852502
f 18 17 34
f 4 17 18
f 26 36 38
f 18 34 32
f 18 32 13
f 17 4 5
f 15 8 12
f 12 22 15
f 22 25 27
f 26 38 27
f 27 25 26
f 23 16 42
f 23 42 15
f 15 28 23
f 34 36 33
f 33 32 34
f 33 13 32
f 6 4 42
f 6 5 4
f 17 5 6
f 6 30 17
f 42 16 6
f 16 23 6
f 21 25 22
f 21 20 25
f 24 27 28
f 24 28 15
f 15 22 24
f 22 27 24
f 31 34 17
f 17 30 31
f 31 30 34
f 28 27 35
f 35 27 38
f 34 30 35
f 35 36 34
f 35 38 36
f 37 33 36
f 37 36 26
f 26 25 37
f 25 20 37
f 3 4 18
f 18 2 3
f 3 2 4
f 4 2 39
f 11 39 2
f 30 6 29
f 29 6 23
f 29 35 30
f 29 23 28
f 28 35 29
f 13 33 19
f 33 37 19
f 19 37 20
f 20 21 19
f 14 13 19
f 19 21 14
f 42 4 41
f 41 39 42
f 4 39 41
f 1 11 2
f 18 13 1
f 1 2 18
f 1 13 14
f 14 11 1
f 9 11 14
f 9 10 11
f 14 21 9
f 9 12 8
f 8 10 9
f 22 12 9
f 9 21 22
f 7 10 8
f 15 42 7
f 7 8 15
f 11 10 43
f 10 7 44
f 44 43 10
f 44 7 42
f 42 39 44
f 39 43 44
f 39 11 40
f 40 43 39
f 11 43 40

