# https://github.com/mikedh/trimesh
v -0.07875178 0.25175826 0.04967334
v -0.16133749 0.24708669 0.04967334
v 0.07488152 0.24708780 0.04967286
v 0.16462469 0.24218462 0.06223587
v -0.06344916 0.21097180 0.06230743
v -0.15739681 0.25175827 0.06216247
v -0.22517411 0.16631214 0.04996191
v -0.22508492 0.16631269 0.06189837
v -0.22574970 0.16802917 0.05591794
v 0.19112864 0.17552207 0.04966793
v 0.18983941 0.17389274 0.06216793
v 0.19060141 0.17807766 0.06216793
v 0.18983941 0.17851758 0.04966793
v 0.18884491 0.17388411 0.04966793
v -0.21075122 0.17851761 0.04966790
v -0.21240534 0.17851761 0.06216790
v -0.21369459 0.17688832 0.04966790
v -0.21369459 0.17552210 0.06216790
v -0.21240534 0.17389277 0.04966790
v -0.21141081 0.17388414 0.06216790
v 0.15798586 0.16654207 0.06216793
v -0.18295809 0.16661889 0.04966790
v -0.18301874 0.16665029 0.06216790
v -0.04639301 0.16636805 0.04966536
v 0.04401966 0.16626728 0.06194403
v 0.17568686 0.16669622 0.06216793
v 0.17587551 0.16657823 0.04966793
v 0.20056819 0.16626068 0.06197127
v 0.20052226 0.16627324 0.04981954
v 0.20170858 0.16694024 0.05131876
v 0.16452775 0.24969800 0.05172615
v 0.20173968 0.16705064 0.06042392
v 0.16454564 0.24950273 0.06034910
v 0.15480222 0.26208573 0.06025237
v 0.15452097 0.26235624 0.05158345
v 0.14005312 0.27251325 0.06025235
v 0.14189227 0.27102025 0.05061012
v 0.13553052 0.27434974 0.05159142
v 0.12449492 0.27764123 0.06024910
v 0.12412082 0.27771874 0.05162234
v 0.05263012 0.28207675 0.06033500
v 0.07129375 0.28116923 0.05145135
v 0.00494767 0.28291551 0.05165576
v -0.03275825 0.28258399 0.06018007
v -0.06081530 0.28160300 0.05145131
v -0.09906056 0.27967126 0.06038451
v -0.10423898 0.27904000 0.05069318
v -0.14896885 0.27562425 0.06022533
v -0.14921403 0.27556327 0.05158815
v -0.15477005 0.27347300 0.06024461
v -0.15499536 0.27335751 0.05159118
v -0.16005163 0.26996377 0.06026691
v -0.16024475 0.26979902 0.05159544
v -0.17579925 0.25089400 0.06093530
v -0.17992956 0.24526070 0.05058457
v -0.19155899 0.22975376 0.05184701
v -0.19304046 0.22754984 0.05997474
v -0.21191229 0.19616534 0.05158926
v -0.21209330 0.19571964 0.06024174
v -0.17070306 0.16661889 0.06216790
v -0.15791402 0.16654209 0.04966790
v -0.20650854 0.20186644 0.06212487
v -0.15859951 0.26878927 0.06204887
v -0.15040633 0.27366600 0.06194063
v -0.07328363 0.27948200 0.06204931
v 0.04004499 0.28096374 0.06198320
v 0.12482542 0.27578099 0.06198898
v 0.13985430 0.27063623 0.06198798
v 0.15106555 0.26274724 0.06205424
v 0.16161924 0.25178323 0.04987155
v 0.14887532 0.26455074 0.04978160
v 0.12391189 0.27590550 0.04980630
v 0.04774635 0.28050724 0.04982499
v -0.03950263 0.28050100 0.04975974
v -0.05952583 0.22861344 0.04966973
v -0.15127593 0.27339575 0.04989094
v -0.15930648 0.26815002 0.04979024
v -0.20614814 0.20252700 0.04972800
v -0.19594145 0.22055433 0.06174901
v 0.16116910 0.25256748 0.06178285
f 29 7 24
f 9 7 8
f 58 7 9
f 56 58 57
f 43 44 41
f 67 41 66
f 66 41 44
f 28 30 32
f 29 30 28
f 32 33 28
f 31 30 29
f 31 33 32
f 32 30 31
f 27 29 24
f 13 3 71
f 9 8 59
f 59 58 9
f 59 57 58
f 59 79 57
f 65 66 44
f 67 66 65
f 45 44 43
f 43 74 45
f 74 47 45
f 25 8 7
f 7 29 25
f 29 28 25
f 80 28 33
f 28 80 4
f 67 65 4
f 24 7 61
f 61 22 24
f 7 22 61
f 7 17 19
f 19 22 7
f 19 17 24
f 24 22 19
f 78 17 7
f 78 55 77
f 7 58 78
f 78 58 56
f 56 55 78
f 10 13 29
f 24 13 10
f 2 77 74
f 17 78 2
f 2 78 77
f 29 13 70
f 13 71 70
f 70 31 29
f 37 71 72
f 72 3 74
f 72 71 3
f 34 80 33
f 33 31 34
f 39 41 67
f 67 36 39
f 38 36 37
f 37 72 38
f 38 72 40
f 38 39 36
f 40 39 38
f 43 41 42
f 40 72 42
f 41 39 42
f 42 39 40
f 46 65 44
f 44 45 46
f 46 45 47
f 47 49 46
f 64 65 46
f 28 4 12
f 67 4 69
f 69 4 80
f 69 34 36
f 80 34 69
f 56 57 54
f 54 55 56
f 57 79 54
f 77 55 53
f 55 54 53
f 76 49 47
f 76 47 74
f 74 77 76
f 29 27 14
f 14 10 29
f 14 27 24
f 24 10 14
f 74 3 1
f 1 2 74
f 24 17 15
f 17 2 15
f 35 71 37
f 37 36 35
f 36 34 35
f 35 34 31
f 31 70 35
f 35 70 71
f 73 72 74
f 73 42 72
f 73 74 43
f 43 42 73
f 64 46 48
f 48 46 49
f 26 28 11
f 28 12 11
f 11 12 4
f 11 5 26
f 4 5 11
f 68 36 67
f 67 69 68
f 68 69 36
f 21 28 26
f 26 5 21
f 6 4 65
f 6 5 4
f 52 53 54
f 49 76 51
f 53 52 51
f 77 53 51
f 51 76 77
f 2 1 75
f 24 15 75
f 75 15 2
f 75 1 3
f 75 13 24
f 75 3 13
f 63 65 64
f 63 6 65
f 63 54 79
f 63 52 54
f 64 48 50
f 50 63 64
f 52 63 50
f 50 51 52
f 50 48 49
f 49 51 50
f 5 6 16
f 16 18 5
f 6 63 62
f 62 16 6
f 62 63 79
f 62 59 8
f 79 59 62
f 8 18 62
f 18 16 62
f 20 18 8
f 8 23 20
f 5 18 20
f 20 23 5
f 8 25 60
f 60 23 8
f 60 25 28
f 28 21 60
f 60 21 5
f 5 23 60

