# https://github.com/mikedh/trimesh
v 0.12923167 0.06701842 0.06223352
v 0.12897370 0.06535459 0.06251840
v 0.12692038 0.06370041 0.06223277
v 0.12486402 0.06357431 0.06250983
v 0.12314748 0.06488084 0.06221794
v 0.12409471 0.06996062 0.06593535
v 0.12234830 0.06778939 0.06235394
v 0.12230683 0.06685182 0.06598446
v 0.12393393 0.06413217 0.06604814
v 0.12661508 0.06347674 0.06592521
v 0.12928848 0.06620892 0.06598071
v 0.12851353 0.06897772 0.06604814
v 0.12755376 0.06998796 0.06226815
v 0.12668528 0.07020857 0.06599942
v 0.12441383 0.06999097 0.06224996
v 0.12705328 0.06771036 0.04440431
v 0.12675848 0.06563572 0.04464340
v 0.12542609 0.06553684 0.04440188
v 0.12736611 0.06683929 0.04472497
v 0.12674533 0.06827359 0.04480801
v 0.12434716 0.06819929 0.04475110
v 0.12430079 0.06642039 0.04505875
v 0.12542855 0.06489169 0.04495041
v 0.12765181 0.06578526 0.04500419
v 0.12747023 0.06819204 0.04516048
v 0.12567978 0.06899571 0.04526365
v 0.12403233 0.06797277 0.04536714
v 0.12400868 0.06587012 0.04549061
v 0.12731981 0.06546444 0.04571256
v 0.12781696 0.06757287 0.04580080
v 0.12588191 0.06905609 0.04593366
v 0.12391429 0.06614679 0.04617139
v 0.12792028 0.06696687 0.04646737
v 0.12370573 0.06696191 0.04754041
v 0.12681596 0.06506637 0.04775510
v 0.12469085 0.06868364 0.04671918
v 0.12680443 0.06878582 0.04659472
v 0.12514858 0.06850911 0.06602280
v 0.12690943 0.06828946 0.06605499
v 0.12755223 0.06663289 0.06604788
v 0.12664110 0.06546229 0.06606137
v 0.12416726 0.06697181 0.06605086
f 41 10 11
f 10 41 9
f 8 5 9
f 9 42 8
f 41 42 9
f 8 42 6
f 8 6 7
f 28 5 8
f 8 7 28
f 11 10 2
f 23 28 18
f 40 41 11
f 11 12 40
f 40 12 41
f 39 42 41
f 41 12 39
f 14 42 39
f 39 12 14
f 15 6 14
f 15 7 6
f 38 42 14
f 14 6 38
f 38 6 42
f 22 21 18
f 18 28 22
f 22 28 21
f 21 28 27
f 27 15 21
f 7 15 27
f 3 2 10
f 5 28 4
f 28 23 4
f 4 9 5
f 10 9 4
f 4 3 10
f 23 3 4
f 18 21 16
f 24 16 19
f 2 3 24
f 1 12 11
f 11 2 1
f 2 24 1
f 7 27 34
f 34 27 28
f 35 3 23
f 17 23 18
f 17 24 23
f 18 16 17
f 16 24 17
f 14 12 13
f 31 15 14
f 14 13 31
f 32 28 7
f 7 34 32
f 32 34 28
f 23 24 29
f 29 35 23
f 29 24 3
f 3 35 29
f 33 1 24
f 24 30 33
f 33 30 1
f 21 15 36
f 19 16 25
f 25 24 19
f 25 30 24
f 25 13 12
f 12 1 25
f 1 30 25
f 21 36 26
f 26 16 21
f 15 31 26
f 26 36 15
f 31 25 26
f 37 31 13
f 13 25 37
f 37 25 31
f 20 25 16
f 16 26 20
f 20 26 25

