# https://github.com/mikedh/trimesh
v 0.03896362 -0.06706828 0.06848072
v 0.03873702 -0.06792205 0.06662202
v 0.03974767 -0.06774243 0.06612755
v 0.03830862 -0.06811713 0.06596988
v 0.03810352 -0.06732150 0.06653290
v 0.03781142 -0.06683700 0.06574196
v 0.03869964 -0.06602041 0.06613572
v 0.03844089 -0.06583360 0.06566333
v 0.04013927 -0.06622328 0.06547224
v 0.03851917 -0.06615778 0.06648024
v 0.03983494 -0.06831963 0.06533292
v 0.03736417 -0.06748720 0.04813023
v 0.03760497 -0.06789830 0.04808895
v 0.03657492 -0.06855203 0.04916058
v 0.03786252 -0.06941180 0.04884514
v 0.03946042 -0.06871851 0.04809294
v 0.03918247 -0.06985318 0.04933176
v 0.04095607 -0.06902003 0.04920467
v 0.03976947 -0.06838566 0.04806826
v 0.04091357 -0.06743783 0.04826647
v 0.04053625 -0.06663810 0.04813069
v 0.04081219 -0.06494138 0.04910677
v 0.04124482 -0.06544170 0.04943099
v 0.03826112 -0.06423863 0.04925688
v 0.03860507 -0.06553586 0.04801891
v 0.03812782 -0.06571425 0.04811882
v 0.03706945 -0.06649180 0.04826682
v 0.03651669 -0.06563633 0.04928559
v 0.04176810 -0.06728753 0.04955084
v 0.03614144 -0.06721665 0.04957293
v 0.04031347 -0.06622425 0.04809676
v 0.03979702 -0.06459280 0.04965559
v 0.04049462 -0.06932505 0.04962756
v 0.03767009 -0.06944330 0.04961276
v 0.03752014 -0.06474503 0.04961405
v 0.04042582 -0.06689195 0.06443401
v 0.03966995 -0.06576740 0.06466013
v 0.03845034 -0.06564255 0.06476049
v 0.03744827 -0.06684108 0.06492489
v 0.03815734 -0.06832770 0.06516118
v 0.03935549 -0.06559788 0.06362279
v 0.03799372 -0.06595050 0.06376632
v 0.03745487 -0.06737018 0.06394279
v 0.03853012 -0.06848020 0.06414673
f 3 9 1
f 1 11 3
f 20 23 29
f 28 35 24
f 28 27 30
f 30 39 28
f 22 25 24
f 31 25 22
f 23 20 22
f 9 23 22
f 42 28 39
f 8 42 39
f 9 3 36
f 36 3 11
f 36 11 29
f 29 23 36
f 36 23 9
f 40 44 11
f 19 25 31
f 30 27 14
f 14 15 34
f 34 40 14
f 16 15 13
f 15 14 13
f 13 19 16
f 25 19 13
f 34 15 17
f 11 44 17
f 17 15 16
f 17 40 34
f 44 40 17
f 26 25 27
f 27 28 26
f 24 25 26
f 26 28 24
f 24 41 32
f 32 22 24
f 9 22 37
f 37 32 41
f 22 32 37
f 6 39 1
f 38 41 24
f 24 35 38
f 38 37 41
f 8 37 38
f 42 8 38
f 35 28 38
f 28 42 38
f 1 39 5
f 39 40 5
f 2 11 1
f 21 19 31
f 20 19 21
f 31 22 21
f 21 22 20
f 43 40 39
f 43 14 40
f 43 39 30
f 30 14 43
f 27 25 12
f 25 13 12
f 12 14 27
f 12 13 14
f 11 17 33
f 7 37 8
f 1 9 7
f 9 37 7
f 1 5 4
f 4 5 40
f 4 2 1
f 4 40 11
f 11 2 4
f 18 17 16
f 18 33 17
f 16 19 18
f 18 19 20
f 18 20 29
f 29 11 18
f 11 33 18
f 1 7 10
f 10 7 8
f 10 6 1
f 10 8 39
f 39 6 10

