# https://github.com/mikedh/trimesh
v 0.14140418 0.06848844 0.06593535
v 0.14372383 0.07037369 0.06233539
v 0.14107003 0.06763664 0.06228935
v 0.14130268 0.06588814 0.06599942
v 0.14184820 0.06488089 0.06221794
v 0.14263476 0.06413214 0.06604815
v 0.14366848 0.06365261 0.06226742
v 0.14543293 0.06351309 0.06597900
v 0.14626278 0.06389656 0.06233754
v 0.14801758 0.06631736 0.06592956
v 0.14804686 0.06700676 0.06228098
v 0.14721428 0.06897774 0.06604814
v 0.14642266 0.06972171 0.06221948
v 0.14440721 0.07044884 0.06598447
v 0.14575411 0.06771036 0.04440431
v 0.14545928 0.06563571 0.04464340
v 0.14412685 0.06553681 0.04440188
v 0.14608581 0.06699459 0.04473858
v 0.14542008 0.06826854 0.04479747
v 0.14304792 0.06819929 0.04475110
v 0.14297976 0.06592804 0.04501687
v 0.14411776 0.06489424 0.04494683
v 0.14631536 0.06575231 0.04499647
v 0.14625080 0.06811272 0.04515775
v 0.14438119 0.06899564 0.04526380
v 0.14273133 0.06797074 0.04536643
v 0.14270916 0.06587136 0.04548998
v 0.14582753 0.06532876 0.04567530
v 0.14658225 0.06677416 0.04578373
v 0.14568573 0.06868821 0.04585216
v 0.14340998 0.06870596 0.04603588
v 0.14336640 0.06517411 0.04624740
v 0.14248138 0.06696391 0.04612490
v 0.14539418 0.06505781 0.04634722
v 0.14664330 0.06683591 0.04644394
v 0.14287910 0.06747444 0.06605499
v 0.14617923 0.06638276 0.06605499
v 0.14488150 0.06522669 0.06605499
v 0.14323143 0.06577251 0.06605499
f 3 26 33
f 3 4 1
f 1 26 3
f 9 10 8
f 32 7 5
f 23 9 28
f 10 9 23
f 11 10 23
f 25 13 30
f 2 13 25
f 14 13 2
f 2 1 14
f 31 2 25
f 26 1 31
f 1 2 31
f 14 1 36
f 36 1 4
f 12 13 14
f 14 36 12
f 12 10 11
f 7 32 22
f 8 7 22
f 22 9 8
f 22 23 28
f 22 21 17
f 17 15 16
f 15 23 16
f 16 22 17
f 23 22 16
f 24 30 13
f 25 30 24
f 24 12 11
f 13 12 24
f 25 15 20
f 20 31 25
f 26 31 20
f 20 15 17
f 17 21 20
f 27 33 26
f 26 20 27
f 27 20 21
f 3 33 27
f 27 32 5
f 27 4 3
f 5 4 27
f 27 22 32
f 21 22 27
f 6 36 4
f 8 38 6
f 6 7 8
f 6 4 5
f 5 7 6
f 37 36 38
f 37 12 36
f 37 38 8
f 8 10 37
f 10 12 37
f 28 9 34
f 34 22 28
f 9 22 34
f 18 23 15
f 15 24 18
f 18 24 23
f 11 23 29
f 23 24 29
f 19 15 25
f 25 24 19
f 19 24 15
f 38 36 39
f 39 6 38
f 36 6 39
f 35 24 11
f 11 29 35
f 35 29 24

