# https://github.com/mikedh/trimesh
v -0.07149456 0.13660918 -0.03610908
v -0.10678126 0.14178326 -0.04152143
v -0.10473180 0.14315066 -0.04046691
v -0.10612613 0.14219355 -0.03916043
v -0.08396246 0.10664540 0.00249090
v -0.08132219 0.10710299 0.00252190
v -0.08202832 0.10508613 0.00247610
v -0.05999157 0.06973343 -0.03940830
v -0.05790859 0.07104918 -0.04046256
v -0.05935141 0.07016680 -0.04176945
v -0.08281145 0.10487306 -0.08342081
v -0.08131958 0.10709896 -0.08345180
v -0.08344931 0.10727421 -0.08340598
v -0.05908368 0.11720033 -0.02105565
v -0.09492424 0.07863701 -0.03041766
v -0.09826641 0.08378351 -0.02421436
v -0.11138038 0.10397726 -0.05432241
v -0.10542350 0.09480446 -0.05958971
v -0.11422021 0.10835020 -0.04396796
v -0.11402096 0.10804338 -0.03560223
v -0.09394894 0.07713519 -0.04669236
v -0.09348264 0.07641713 -0.03836223
v -0.05038409 0.10410293 -0.04456015
v -0.05042076 0.10416336 -0.03546565
v -0.11207311 0.10504393 -0.02842306
v -0.06500598 0.12662020 -0.05883787
v -0.10032531 0.08695391 -0.05857201
v -0.06422081 0.12541736 -0.02141268
v -0.10786416 0.09856273 -0.02251961
v -0.09647651 0.08102731 -0.05408140
v -0.08684964 0.09926296 0.00228445
v -0.09073182 0.10524028 0.00237269
v -0.09072998 0.10523823 -0.08321433
v -0.05153418 0.10587078 -0.05027775
v -0.06130238 0.12090810 -0.06016653
v -0.05387911 0.10948151 -0.02524948
v -0.10255494 0.09038724 -0.02136773
v -0.07698672 0.10557711 0.00248597
v -0.11212120 0.13817708 -0.04402881
v -0.10233143 0.14461993 -0.04409746
v -0.07696651 0.10554931 -0.08330755
v -0.10231240 0.14460771 -0.03679436
v -0.11207278 0.13810326 -0.03690261
v -0.06910453 0.13292692 -0.05339945
v -0.07136386 0.13640916 -0.04560158
v -0.05418701 0.10995565 -0.05582530
v -0.06903576 0.13282101 -0.02738331
v -0.05799863 0.11582435 -0.05951633
v -0.08684848 0.09926048 -0.08330260
v -0.08096731 0.11171003 0.00237767
v -0.05563316 0.07269883 -0.03679203
v -0.06550684 0.06639793 -0.04402728
v -0.05554529 0.07262740 -0.04410983
v -0.08092283 0.11170548 -0.08341541
v -0.06545906 0.06632368 -0.03689990
f 31 16 55
f 23 26 24
f 46 26 23
f 23 24 53
f 53 24 51
f 19 43 39
f 39 17 19
f 54 39 40
f 55 51 38
f 38 31 55
f 49 53 52
f 52 30 49
f 55 22 52
f 9 53 51
f 34 46 23
f 23 53 34
f 34 53 46
f 19 17 18
f 47 42 50
f 6 38 50
f 50 5 6
f 3 42 40
f 39 54 33
f 17 39 33
f 49 18 33
f 33 18 17
f 26 46 48
f 46 53 41
f 41 48 46
f 41 53 49
f 40 45 44
f 44 45 26
f 44 54 40
f 26 54 44
f 40 42 1
f 1 45 40
f 1 42 47
f 7 38 6
f 31 38 7
f 6 5 7
f 7 5 31
f 14 50 38
f 16 31 37
f 55 16 15
f 15 22 55
f 16 37 15
f 15 37 22
f 30 52 21
f 21 52 22
f 8 51 55
f 8 9 51
f 55 52 8
f 49 30 27
f 27 18 49
f 30 21 27
f 27 21 22
f 22 37 27
f 2 39 43
f 40 39 2
f 2 3 40
f 13 33 54
f 35 54 26
f 26 48 35
f 35 41 54
f 48 41 35
f 36 14 38
f 51 24 36
f 36 38 51
f 47 50 28
f 50 14 28
f 14 36 28
f 28 36 24
f 28 1 47
f 45 1 28
f 28 24 26
f 26 45 28
f 32 37 31
f 29 37 32
f 31 5 32
f 5 50 32
f 32 42 43
f 32 50 42
f 10 8 52
f 9 8 10
f 10 52 53
f 53 9 10
f 25 27 37
f 25 37 29
f 19 18 25
f 18 27 25
f 25 32 43
f 29 32 25
f 4 2 43
f 3 2 4
f 43 42 4
f 42 3 4
f 54 41 12
f 12 13 54
f 20 43 19
f 19 25 20
f 20 25 43
f 13 12 11
f 49 33 11
f 33 13 11
f 11 41 49
f 11 12 41

