# https://github.com/mikedh/trimesh
v 0.14674472 -0.18477213 -0.03371686
v 0.14671980 -0.18756438 -0.03395446
v 0.16269747 -0.18623248 -0.04001203
v 0.16000614 -0.17988167 -0.04664891
v 0.16842452 -0.18716956 -0.05162384
v 0.16930292 -0.18834761 -0.04990924
v 0.16880569 -0.18361661 -0.04755146
v 0.16980664 -0.18804954 -0.04796491
v 0.17022117 -0.18560827 -0.04708759
v 0.16816049 -0.18352672 -0.05101111
v 0.16785470 -0.18307469 -0.04950063
v 0.16890841 -0.18383949 -0.05064711
v 0.16980131 -0.18391709 -0.04871258
v 0.16759392 -0.18572386 -0.05221546
v 0.16837195 -0.18534834 -0.05179336
v 0.16916070 -0.18836739 -0.04740164
v 0.16933349 -0.18338082 -0.04845296
v 0.15803212 -0.18429066 -0.05140246
v 0.15832986 -0.18202303 -0.05045456
v 0.14223496 -0.18438029 -0.04478316
v 0.14297922 -0.19088468 -0.04306581
v 0.15780357 -0.18676481 -0.05173651
v 0.15899971 -0.19153582 -0.04894416
v 0.14696874 -0.18948116 -0.03444719
v 0.14485741 -0.19213876 -0.03837834
v 0.16017534 -0.19251421 -0.04585641
v 0.16175290 -0.18111247 -0.04220203
v 0.14391642 -0.17993201 -0.04052216
v 0.16817154 -0.18887921 -0.05028996
v 0.16224009 -0.18958229 -0.04086256
v 0.14510635 -0.18016696 -0.03789646
v 0.14601092 -0.18109053 -0.03583834
v 0.14401081 -0.19204259 -0.04070287
v 0.16768187 -0.18765564 -0.05166341
v 0.14575787 -0.19077369 -0.03584499
v 0.14262716 -0.18214674 -0.04392894
v 0.14207186 -0.18726410 -0.04502566
v 0.16095235 -0.18011229 -0.04435601
f 1 27 32
f 27 38 32
f 9 27 3
f 3 30 9
f 3 27 1
f 30 3 24
f 4 10 19
f 19 28 4
f 19 36 28
f 26 25 33
f 33 23 26
f 20 22 37
f 37 28 20
f 28 36 20
f 17 38 27
f 4 38 17
f 31 28 1
f 1 32 31
f 31 32 38
f 4 28 31
f 31 38 4
f 2 3 1
f 2 24 3
f 30 24 35
f 35 25 26
f 26 30 35
f 24 2 35
f 35 2 1
f 35 28 37
f 1 28 35
f 22 20 18
f 36 19 18
f 18 20 36
f 23 33 21
f 37 22 21
f 22 23 21
f 21 33 25
f 21 35 37
f 25 35 21
f 22 18 14
f 14 19 10
f 14 18 19
f 15 14 10
f 26 23 29
f 7 27 9
f 9 17 7
f 7 17 27
f 11 10 4
f 4 17 11
f 11 17 10
f 34 23 22
f 22 14 34
f 34 29 23
f 26 29 6
f 8 6 9
f 15 6 5
f 14 15 5
f 5 34 14
f 29 34 5
f 5 6 29
f 12 15 10
f 10 17 12
f 12 6 15
f 26 6 16
f 6 8 16
f 16 30 26
f 9 30 16
f 16 8 9
f 13 17 9
f 13 12 17
f 9 6 13
f 6 12 13

