# https://github.com/mikedh/trimesh
v 0.16901698 0.19634022 0.12420424
v 0.15902463 0.18430727 0.12500716
v 0.16182126 0.17499471 0.13175881
v 0.15229758 0.17611099 0.10876661
v 0.16183841 0.19717999 0.13180019
v 0.16100738 0.19871204 0.12979392
v 0.16057273 0.19647479 0.12874459
v 0.15186626 0.17354001 0.10772529
v 0.15308346 0.17523027 0.10551993
v 0.15659383 0.16841454 0.11399474
v 0.15498273 0.16824553 0.11524909
v 0.16063931 0.16829076 0.12376139
v 0.15867830 0.16825999 0.12417094
v 0.16111846 0.17123568 0.13006199
v 0.16305191 0.17152114 0.12958579
v 0.16505189 0.17740921 0.13441419
v 0.16350538 0.17868182 0.13582461
v 0.16583423 0.18865302 0.13630301
v 0.16394536 0.18826999 0.13688676
v 0.16310909 0.19495844 0.13486781
v 0.16408375 0.19818431 0.13207699
v 0.16084261 0.20149811 0.12939609
v 0.16101061 0.20356620 0.12465774
v 0.15799959 0.20410435 0.12253241
v 0.15730821 0.20398546 0.11571934
v 0.15529031 0.20386381 0.11599166
v 0.15483881 0.20106356 0.10975764
v 0.15288186 0.20080765 0.11017714
v 0.15253556 0.19470417 0.10419716
v 0.15061818 0.19419799 0.10471218
v 0.15180779 0.18430451 0.10244014
v 0.15006548 0.18197273 0.10337779
v 0.16226493 0.17637428 0.10803836
v 0.17014895 0.17938051 0.12708269
v 0.17082066 0.18505386 0.12869481
v 0.17047915 0.19091898 0.12786204
v 0.16138777 0.19286081 0.10592996
v 0.16070029 0.18718882 0.10423529
v 0.16100888 0.18130958 0.10499216
v 0.16954049 0.17544599 0.11382111
v 0.17134846 0.17544599 0.11818591
v 0.17134949 0.18083601 0.11818841
v 0.16849709 0.18087703 0.11130216
v 0.16848820 0.17548721 0.11128079
v 0.16954049 0.19119404 0.11382111
v 0.17030504 0.19662507 0.11566694
v 0.17134846 0.19119404 0.11818591
v 0.17134949 0.19658404 0.11818841
v 0.16849709 0.19662507 0.11130216
v 0.16848820 0.19123526 0.11128079
f 31 9 32
f 32 30 31
f 31 30 29
f 23 21 48
f 22 21 23
f 26 30 7
f 32 9 8
f 8 30 32
f 8 4 30
f 10 9 44
f 11 8 10
f 10 8 9
f 40 10 44
f 9 31 39
f 20 21 22
f 26 22 24
f 22 23 24
f 48 35 42
f 42 35 41
f 36 35 48
f 12 40 41
f 10 40 12
f 11 10 12
f 26 24 25
f 25 24 23
f 25 27 26
f 25 23 48
f 26 27 28
f 28 30 26
f 29 30 28
f 28 27 29
f 48 47 45
f 44 9 33
f 33 39 44
f 9 39 33
f 48 45 49
f 27 25 49
f 38 31 29
f 38 39 31
f 44 39 38
f 5 20 22
f 19 20 5
f 5 17 19
f 3 8 11
f 4 8 3
f 14 17 3
f 17 5 3
f 19 17 18
f 35 36 18
f 18 20 19
f 21 20 18
f 18 36 21
f 16 17 14
f 35 18 16
f 16 18 17
f 48 21 1
f 1 36 48
f 21 36 1
f 15 12 41
f 14 12 15
f 15 16 14
f 11 12 13
f 13 12 14
f 13 3 11
f 14 3 13
f 43 40 44
f 46 25 48
f 48 49 46
f 46 49 25
f 37 38 29
f 49 38 37
f 29 27 37
f 27 49 37
f 44 38 50
f 50 38 49
f 6 5 22
f 6 22 26
f 26 7 6
f 7 3 6
f 6 3 5
f 2 7 30
f 2 3 7
f 30 4 2
f 4 3 2
f 41 35 34
f 35 16 34
f 34 15 41
f 16 15 34
f 47 42 41
f 48 42 47
f 45 47 41
f 41 40 45
f 43 45 40
f 43 49 45
f 49 43 50
f 50 43 44

