# https://github.com/mikedh/trimesh
v 0.16233495 -0.18487816 0.13078257
v 0.16175091 -0.18252907 0.12940461
v 0.16207033 -0.18414069 0.13119597
v 0.16122610 -0.18610799 0.13166639
v 0.16183191 -0.18691966 0.13161314
v 0.16054130 -0.19070663 0.12870514
v 0.15949063 -0.19082684 0.12721639
v 0.16025121 -0.19086094 0.12642124
v 0.15914566 -0.19055391 0.12498079
v 0.15804276 -0.18884321 0.12351702
v 0.15863726 -0.18834686 0.12286631
v 0.15797563 -0.18597891 0.12248929
v 0.16056163 -0.18129539 0.12668109
v 0.15888353 -0.18143574 0.12591251
v 0.16008781 -0.18123616 0.12824589
v 0.16112306 -0.18323688 0.13097071
v 0.16054176 -0.18366827 0.13036329
v 0.15995113 -0.18209934 0.12895659
v 0.16119668 -0.18926428 0.13068689
v 0.16224313 -0.18744546 0.13103401
v 0.15933365 -0.18297251 0.12359041
v 0.15819846 -0.18399997 0.12288481
v 0.15850051 -0.18234774 0.12409624
v 0.15975941 -0.18157434 0.12515874
v 0.16115728 -0.18163817 0.12905594
v 0.16183091 -0.18931072 0.13010764
v 0.16123897 -0.19031327 0.12810606
v 0.15894286 -0.18540684 0.12260304
v 0.15931203 -0.18842003 0.12347096
v 0.15980665 -0.18981129 0.12466761
v 0.16177271 -0.18881336 0.12951426
v 0.15785936 -0.18364559 0.12368719
v 0.15759770 -0.18628778 0.12317621
v 0.15833556 -0.18969877 0.12503659
v 0.16013700 -0.19012916 0.12926354
f 13 14 15
f 4 35 19
f 3 16 4
f 12 10 33
f 11 10 12
f 11 12 28
f 18 16 15
f 15 14 18
f 21 13 2
f 1 28 2
f 2 28 21
f 2 3 1
f 24 13 21
f 14 13 24
f 23 24 21
f 14 24 23
f 29 28 1
f 29 30 11
f 11 28 29
f 4 16 17
f 16 18 17
f 17 35 4
f 33 18 32
f 32 18 14
f 14 23 32
f 32 12 33
f 25 13 15
f 25 2 13
f 15 16 25
f 16 3 25
f 3 2 25
f 8 7 9
f 9 30 8
f 11 30 9
f 9 10 11
f 27 29 1
f 30 29 27
f 8 30 27
f 1 3 20
f 19 26 20
f 22 23 21
f 21 28 22
f 22 28 12
f 12 32 22
f 22 32 23
f 34 18 33
f 34 17 18
f 35 17 34
f 34 7 35
f 33 10 34
f 10 9 34
f 34 9 7
f 6 26 19
f 6 27 26
f 6 19 35
f 35 7 6
f 6 7 8
f 8 27 6
f 26 27 31
f 31 20 26
f 31 27 1
f 1 20 31
f 4 19 5
f 19 20 5
f 5 3 4
f 5 20 3

