# https://github.com/mikedh/trimesh
v 0.01004027 -0.01619918 -0.10153517
v 0.00790042 -0.01686738 -0.10127040
v 0.01201348 -0.01707239 -0.10124485
v 0.01226685 -0.02223395 -0.10496069
v 0.01340897 -0.01958357 -0.10131307
v 0.01203202 -0.02233204 -0.10132008
v 0.00890862 -0.02305996 -0.10129087
v 0.00980413 -0.02307484 -0.10502477
v 0.00774058 -0.02230063 -0.10507350
v 0.00639285 -0.02013264 -0.10131334
v 0.00634714 -0.01979625 -0.10500435
v 0.00829519 -0.01651763 -0.10495492
v 0.01107420 -0.01652658 -0.10507350
v 0.01328657 -0.01879576 -0.10500982
v 0.01027733 -0.01828827 -0.08342967
v 0.00837357 -0.01916403 -0.08366877
v 0.00865987 -0.02046911 -0.08342725
v 0.00950153 -0.01817458 -0.08376575
v 0.01090917 -0.01844377 -0.08381642
v 0.01151968 -0.02074160 -0.08377645
v 0.00975233 -0.02161900 -0.08390910
v 0.00804675 -0.02066164 -0.08397217
v 0.00799206 -0.01893716 -0.08400197
v 0.01141403 -0.01938159 -0.08397775
v 0.00937414 -0.01763321 -0.08414794
v 0.01140574 -0.01829498 -0.08425182
v 0.01190193 -0.02014503 -0.08436787
v 0.01055321 -0.02165093 -0.08447337
v 0.00824607 -0.02106843 -0.08461465
v 0.00890974 -0.01783487 -0.08477065
v 0.01123403 -0.01807293 -0.08487867
v 0.01190504 -0.01967928 -0.08500669
v 0.01128120 -0.02121045 -0.08509355
v 0.00902156 -0.02165714 -0.08519197
v 0.00780824 -0.01928901 -0.08535097
v 0.01195398 -0.01951955 -0.08570745
v 0.00961140 -0.02180262 -0.08586593
v 0.01032568 -0.01760524 -0.08622340
v 0.01090563 -0.02106584 -0.10504815
v 0.01150444 -0.01934308 -0.10507620
v 0.00876888 -0.01844865 -0.10507620
v 0.00936204 -0.02126496 -0.10507620
f 17 23 22
f 4 14 5
f 35 22 23
f 5 14 26
f 14 3 26
f 1 12 2
f 2 12 11
f 1 3 13
f 13 3 14
f 13 12 1
f 11 9 10
f 22 35 10
f 10 35 23
f 10 2 11
f 23 2 10
f 6 4 5
f 29 9 7
f 22 10 29
f 29 10 9
f 11 12 41
f 12 13 41
f 41 9 11
f 8 6 7
f 4 6 8
f 7 9 8
f 8 39 4
f 40 41 13
f 39 8 40
f 40 13 14
f 14 4 40
f 4 39 40
f 16 23 17
f 17 15 16
f 5 26 36
f 26 32 36
f 20 15 17
f 33 6 20
f 22 29 21
f 21 20 17
f 17 22 21
f 9 41 42
f 41 40 42
f 42 8 9
f 42 40 8
f 31 26 3
f 31 3 1
f 1 38 31
f 30 2 23
f 26 15 19
f 15 20 19
f 27 32 26
f 5 36 27
f 27 36 32
f 27 6 5
f 27 20 6
f 33 20 28
f 20 21 28
f 28 6 33
f 7 6 28
f 34 29 7
f 34 21 29
f 18 16 15
f 26 19 24
f 24 19 20
f 24 27 26
f 20 27 24
f 37 34 7
f 21 34 37
f 7 28 37
f 37 28 21
f 25 18 15
f 25 30 23
f 25 31 38
f 25 38 1
f 1 2 25
f 2 30 25
f 23 16 25
f 16 18 25
f 25 15 26
f 26 31 25

