# https://github.com/mikedh/trimesh
v 0.12127906 -0.16760629 0.08559146
v 0.11993118 -0.16672871 0.08758104
v 0.11979684 -0.16762760 0.08782756
v 0.11730741 -0.16761268 0.08769729
v 0.11735976 -0.16674011 0.08754948
v 0.11621989 -0.16671671 0.08537833
v 0.11606039 -0.16760629 0.08529956
v 0.11738908 -0.16671959 0.08332363
v 0.11750939 -0.16760830 0.08310033
v 0.11967349 -0.16684275 0.08311246
v 0.12111956 -0.16672624 0.08551264
v 0.11700328 -0.16838043 0.08373591
v 0.11668560 -0.16845018 0.08673716
v 0.11845996 -0.16839821 0.08780763
v 0.11750941 -0.16875461 0.08308803
v 0.12139051 -0.16876956 0.08560061
v 0.12077986 -0.16954821 0.08438461
v 0.12014984 -0.16877899 0.08316696
v 0.11668419 -0.16958863 0.08410848
v 0.11596466 -0.16876468 0.08528944
v 0.11991033 -0.16878601 0.08787896
v 0.11716299 -0.16990864 0.08768938
v 0.11603929 -0.16989813 0.08524731
v 0.11750526 -0.16986995 0.08310578
v 0.12064904 -0.17065284 0.08675134
v 0.12092678 -0.17060856 0.08471596
v 0.11666493 -0.17077796 0.08422481
v 0.11665351 -0.17079979 0.08668193
v 0.11862428 -0.17063876 0.08782136
v 0.11989819 -0.16988838 0.08786423
v 0.11978046 -0.17098621 0.08781129
v 0.11718243 -0.17097583 0.08767271
v 0.11614855 -0.17092536 0.08513524
v 0.12013667 -0.17100739 0.08317508
v 0.12039386 -0.17193126 0.08382719
v 0.11857968 -0.17168233 0.08307171
v 0.11682765 -0.17193664 0.08686328
v 0.11842838 -0.17193771 0.08772953
v 0.12022604 -0.17195081 0.08717673
v 0.11628928 -0.17211176 0.08544571
v 0.11607288 -0.17136561 0.08530543
v 0.11746213 -0.17211176 0.08326434
v 0.11743609 -0.17142229 0.08313993
v 0.12107319 -0.17211176 0.08517351
v 0.12124524 -0.17138421 0.08560343
v 0.11882844 -0.16640586 0.08695476
v 0.11770671 -0.16644743 0.08662933
v 0.12014606 -0.16636373 0.08318579
v 0.11713351 -0.16648591 0.08513111
f 17 48 16
f 39 38 44
f 44 38 40
f 40 42 44
f 40 41 42
f 45 44 16
f 45 39 44
f 16 48 1
f 48 11 1
f 7 8 20
f 20 13 7
f 44 42 35
f 35 34 44
f 44 34 26
f 26 34 17
f 16 44 26
f 26 17 16
f 25 45 16
f 39 45 25
f 48 8 49
f 20 41 28
f 28 13 20
f 46 11 48
f 41 33 27
f 20 19 27
f 27 33 20
f 9 8 48
f 48 17 18
f 17 34 18
f 36 35 42
f 34 35 36
f 11 46 2
f 2 1 11
f 16 1 2
f 41 40 37
f 37 28 41
f 37 40 38
f 48 49 47
f 47 46 48
f 23 41 20
f 20 33 23
f 23 33 41
f 8 9 12
f 12 9 19
f 20 8 12
f 12 19 20
f 43 36 42
f 43 27 19
f 19 9 43
f 43 9 15
f 42 41 43
f 41 27 43
f 21 25 16
f 16 2 21
f 14 29 21
f 32 37 38
f 38 29 32
f 28 37 32
f 6 47 49
f 8 7 6
f 6 49 8
f 6 7 13
f 15 36 24
f 24 43 15
f 36 43 24
f 10 36 15
f 15 9 10
f 10 9 48
f 10 18 34
f 34 36 10
f 48 18 10
f 39 25 30
f 25 21 30
f 30 21 29
f 14 21 3
f 3 21 2
f 22 29 14
f 22 32 29
f 13 28 22
f 28 32 22
f 38 39 31
f 39 30 31
f 31 29 38
f 31 30 29
f 5 3 2
f 5 2 46
f 46 47 5
f 47 6 5
f 4 22 14
f 14 3 4
f 3 5 4
f 13 22 4
f 4 6 13
f 4 5 6

