# https://github.com/mikedh/trimesh
v -0.08570304 0.17013008 0.05830628
v -0.08835346 0.16648246 0.05944842
v -0.08507842 0.16653421 0.05748004
v -0.08486221 0.17019416 0.05584343
v -0.08509689 0.16641268 0.05472236
v -0.08563644 0.17024288 0.05378004
v -0.08736121 0.16647571 0.05251383
v -0.08814076 0.17017374 0.05238660
v -0.09079987 0.16653225 0.05352954
v -0.09141939 0.17012428 0.05433463
v -0.09163769 0.16646213 0.05599703
v -0.09141041 0.17024288 0.05711366
v -0.09086464 0.16641421 0.05805293
v -0.08914131 0.17017921 0.05932600
v -0.08964881 0.14859906 0.05631679
v -0.08877304 0.14883814 0.05441305
v -0.08746789 0.14859663 0.05469931
v -0.08969944 0.14891969 0.05539262
v -0.08951762 0.14899915 0.05694461
v -0.08719551 0.14894581 0.05755921
v -0.08663651 0.14925230 0.05588721
v -0.08728571 0.14914511 0.05408047
v -0.08899987 0.14917136 0.05403152
v -0.09030366 0.14931676 0.05541401
v -0.08964209 0.14942118 0.05744518
v -0.08779191 0.14953673 0.05794257
v -0.08628609 0.14964273 0.05659266
v -0.08686859 0.14978400 0.05428553
v -0.08928826 0.14989618 0.05410268
v -0.08975709 0.15007626 0.05736496
v -0.08825776 0.15017608 0.05794449
v -0.08672867 0.15026216 0.05732187
v -0.08621726 0.15035648 0.05560834
v -0.08855709 0.15054651 0.05387733
v -0.08744357 0.15094694 0.05788404
v -0.08614069 0.15103683 0.05563774
v -0.09033179 0.15139278 0.05636512
v -0.08873147 0.15154531 0.05795952
v -0.08825146 0.17024094 0.05769590
v -0.08948841 0.17024561 0.05480835
f 14 25 2
f 14 13 25
f 5 6 4
f 6 5 28
f 8 10 40
f 40 6 8
f 1 14 2
f 4 6 39
f 39 1 4
f 14 1 39
f 6 40 39
f 9 10 8
f 8 6 7
f 6 28 7
f 3 1 32
f 32 27 3
f 4 1 3
f 27 36 3
f 3 5 4
f 3 36 5
f 2 25 38
f 35 1 2
f 2 26 35
f 8 7 23
f 23 9 8
f 29 9 23
f 25 15 19
f 12 39 40
f 12 40 10
f 14 39 12
f 13 14 12
f 12 10 11
f 11 13 12
f 33 36 27
f 33 28 5
f 5 36 33
f 25 26 31
f 31 38 25
f 31 26 2
f 2 38 31
f 20 35 26
f 20 27 32
f 32 1 20
f 1 35 20
f 20 15 17
f 20 19 15
f 20 26 25
f 25 19 20
f 37 13 11
f 17 15 16
f 16 23 17
f 29 23 24
f 24 15 25
f 25 37 24
f 24 37 11
f 24 9 29
f 11 10 24
f 10 9 24
f 22 7 28
f 17 23 22
f 21 20 17
f 27 20 21
f 17 22 21
f 21 22 28
f 28 33 21
f 21 33 27
f 25 13 30
f 30 37 25
f 13 37 30
f 18 16 15
f 15 24 18
f 23 16 18
f 18 24 23
f 34 23 7
f 7 22 34
f 34 22 23

