# https://github.com/mikedh/trimesh
v -0.15071533 0.02003168 0.12146802
v -0.15071590 0.03264926 0.11398827
v -0.15071651 0.04268674 0.10329114
v -0.15071715 0.04935004 0.09022169
v -0.15071787 0.05211146 0.07581234
v -0.15071862 0.05075151 0.06120289
v -0.15071940 0.04537679 0.04754886
v -0.15072022 0.03641136 0.03593070
v -0.15072109 0.02456419 0.02726864
v -0.15072200 0.01077201 0.02224874
v -0.15071380 -0.00366955 0.02127209
v -0.15072155 -0.01783557 0.02426879
v -0.15072068 -0.03078496 0.03117682
v -0.15071982 -0.04129706 0.04141732
v -0.15071900 -0.04854079 0.05417934
v -0.15071823 -0.05194379 0.06845237
v -0.15071750 -0.05123794 0.08310739
v -0.15071683 -0.04648016 0.09698527
v -0.15071620 -0.03804751 0.10898902
v -0.15071561 -0.02660761 0.11817009
v -0.15070715 -0.00926683 0.12473876
v 0.13904812 0.00836377 0.12886076
v 0.14411740 0.00844796 0.12864649
v 0.14425542 0.01885466 0.12639184
v -0.15065565 0.02026446 0.12578834
v -0.15063118 0.03285094 0.11904754
v 0.14430407 0.03384944 0.11818243
v -0.15063412 0.04394936 0.10852207
v 0.14430585 0.04466309 0.10744214
v -0.15063700 0.05180639 0.09539906
v 0.14430754 0.05219391 0.09419349
v -0.15063977 0.05584294 0.08064646
v 0.14430920 0.05588984 0.07941046
v -0.15064245 0.05576156 0.06535194
v 0.14431080 0.05548029 0.06417855
v -0.15064498 0.05156828 0.05064327
v 0.14431235 0.05099576 0.04961643
v -0.15064740 0.04357234 0.03760516
v 0.14431385 0.04276589 0.03679342
v 0.14395691 0.03540644 0.02957973
v -0.15067967 0.03099029 0.02637188
v 0.14433352 0.02521781 0.02301001
v 0.14427972 -0.03235356 0.02719455
v 0.14431385 -0.04275753 0.03678739
v -0.15064740 -0.04356409 0.03759904
v 0.14431234 -0.05098924 0.04960922
v -0.15064501 -0.05156187 0.05063597
v 0.14431079 -0.05547583 0.06417073
v -0.15064243 -0.05575721 0.06534401
v 0.14430919 -0.05588756 0.07940239
v -0.15063978 -0.05584076 0.08063836
v 0.14430754 -0.05219369 0.09418619
v -0.15063701 -0.05180629 0.09539177
v 0.14430584 -0.04466466 0.10743591
v -0.15063413 -0.04395109 0.10851589
v 0.14430407 -0.03385256 0.11817768
v -0.15063118 -0.03285419 0.11904291
v 0.14430607 -0.02033717 0.12571736
v -0.15061983 -0.01903097 0.12633349
v 0.14412055 -0.00848677 0.12864856
v 0.13855247 -0.00765604 0.12901859
v 0.13816437 -0.00010754 0.12960094
v -0.14456785 0.00006019 0.12957234
v -0.14541443 0.00841935 0.12889544
v -0.15048736 -0.00845253 0.12864529
v -0.15068525 -0.03138514 0.02664661
v 0.14428165 -0.01875150 0.02018771
v -0.15068657 -0.01770429 0.01993077
v 0.14428425 -0.00377077 0.01710246
v -0.15064330 0.00000565 0.01692319
v 0.14427575 0.01163668 0.01817521
v -0.15068659 0.01771498 0.01993329
v -0.15048673 0.00843501 0.12861239
v 0.14434540 -0.02003513 0.12146526
v 0.14434595 -0.03265158 0.11398386
v 0.14434654 -0.04268779 0.10328516
v 0.14434722 -0.04934926 0.09021466
v 0.14434789 -0.05210864 0.07580496
v 0.14434864 -0.05074661 0.06119566
v 0.14434944 -0.04536991 0.04754240
v 0.14435030 -0.03640309 0.03592575
v 0.14435115 -0.02455455 0.02726522
v 0.14435510 -0.01471308 0.02337037
v 0.14434386 -0.00366957 0.02127211
v 0.14435580 0.00756218 0.02179891
v 0.14435161 0.01784562 0.02427129
v 0.14435070 0.03079417 0.03118122
v 0.14434988 0.04130479 0.04142323
v 0.14434906 0.04854661 0.05418608
v 0.14434828 0.05194764 0.06845966
v 0.14434755 0.05123979 0.08311451
v 0.14434687 0.04648011 0.09699169
v 0.14434625 0.03804562 0.10899449
v 0.14434568 0.02660424 0.11817401
v 0.14433782 0.01614362 0.12277911
f 68 70 69
f 69 70 71
f 69 71 85
f 85 89 90
f 90 35 33
f 89 35 90
f 45 43 44
f 44 46 45
f 43 82 44
f 53 52 54
f 58 57 56
f 71 70 72
f 68 69 67
f 67 82 43
f 84 69 85
f 88 87 39
f 88 89 85
f 85 87 88
f 86 87 85
f 39 87 42
f 42 40 39
f 87 86 42
f 71 72 42
f 85 71 42
f 42 86 85
f 41 40 42
f 42 72 41
f 37 35 89
f 37 88 39
f 89 88 37
f 33 32 31
f 26 24 27
f 93 29 27
f 46 79 48
f 50 48 78
f 78 48 79
f 81 44 82
f 57 58 59
f 53 54 55
f 57 19 55
f 56 57 55
f 55 54 56
f 27 24 95
f 24 58 95
f 10 7 8
f 49 48 50
f 83 67 69
f 69 84 83
f 82 67 83
f 83 84 85
f 83 81 82
f 83 78 79
f 38 37 39
f 39 40 38
f 38 40 41
f 41 8 38
f 38 8 7
f 60 62 61
f 65 59 61
f 61 58 60
f 61 59 58
f 23 62 60
f 60 58 23
f 23 58 24
f 62 64 63
f 65 61 63
f 63 61 62
f 25 64 24
f 24 26 25
f 25 59 65
f 21 59 25
f 25 26 2
f 27 29 28
f 28 26 27
f 2 26 28
f 92 93 85
f 92 31 29
f 29 93 92
f 20 19 57
f 20 59 21
f 57 59 20
f 20 2 10
f 10 19 20
f 53 55 18
f 18 55 19
f 18 19 10
f 94 93 27
f 27 95 94
f 85 93 94
f 74 95 58
f 74 58 56
f 74 94 95
f 85 94 74
f 41 72 9
f 9 8 41
f 9 72 10
f 10 8 9
f 11 70 68
f 10 72 11
f 11 72 70
f 66 43 45
f 68 67 66
f 66 67 43
f 15 49 16
f 16 49 51
f 51 49 50
f 50 52 51
f 51 52 53
f 80 83 79
f 81 83 80
f 80 79 46
f 46 44 80
f 44 81 80
f 6 7 10
f 35 37 36
f 37 38 36
f 36 38 7
f 7 6 36
f 22 64 62
f 62 23 22
f 24 64 22
f 22 23 24
f 10 2 3
f 3 4 10
f 2 28 3
f 73 25 65
f 64 25 73
f 65 63 73
f 73 63 64
f 21 25 1
f 1 25 2
f 1 20 21
f 2 20 1
f 30 31 32
f 32 4 30
f 29 31 30
f 30 28 29
f 4 3 30
f 30 3 28
f 91 90 33
f 33 31 91
f 31 92 91
f 85 90 91
f 91 92 85
f 16 51 17
f 53 18 17
f 17 51 53
f 76 54 52
f 75 83 85
f 85 74 75
f 75 76 83
f 75 74 56
f 56 54 75
f 54 76 75
f 49 15 47
f 45 46 47
f 46 48 47
f 48 49 47
f 13 66 14
f 14 66 45
f 45 47 14
f 14 47 15
f 10 4 5
f 5 6 10
f 5 4 32
f 35 36 34
f 34 32 33
f 33 35 34
f 34 36 6
f 34 5 32
f 6 5 34
f 16 17 12
f 12 15 16
f 13 14 12
f 12 14 15
f 10 11 12
f 12 18 10
f 12 17 18
f 12 11 68
f 68 66 12
f 12 66 13
f 78 83 77
f 83 76 77
f 77 76 52
f 77 52 50
f 50 78 77

