# https://github.com/mikedh/trimesh
v -0.10367683 -0.10058386 -0.08742769
v -0.10378413 -0.10073084 -0.08832483
v -0.10631965 -0.10058339 -0.08745358
v -0.10636205 -0.10074250 -0.08832073
v -0.10768435 -0.10286452 -0.08742655
v -0.10747879 -0.10292777 -0.08833080
v -0.10638127 -0.10512587 -0.08742769
v -0.10627394 -0.10497892 -0.08833406
v -0.10377295 -0.10517026 -0.08743325
v -0.10369597 -0.10496721 -0.08831226
v -0.10242053 -0.10293787 -0.08745583
v -0.10257930 -0.10278194 -0.08834033
v -0.10306367 -0.10414230 -0.08662696
v -0.10459405 -0.10519329 -0.08662393
v -0.10641225 -0.10051082 -0.08627103
v -0.10637292 -0.10517780 -0.08626448
v -0.10232180 -0.10282594 -0.08629013
v -0.10775275 -0.10286367 -0.08625693
v -0.10637905 -0.10050187 -0.08516221
v -0.10232424 -0.10280942 -0.08515239
v -0.10308855 -0.10420817 -0.08441181
v -0.10368677 -0.10519391 -0.08517231
v -0.10637825 -0.10518407 -0.08517836
v -0.10719327 -0.10382429 -0.08440591
v -0.10774530 -0.10286896 -0.08513073
v -0.10634230 -0.10051869 -0.08409811
v -0.10628835 -0.10518779 -0.08409481
v -0.10232872 -0.10283357 -0.08405694
v -0.10375367 -0.10061497 -0.08409871
v -0.10364177 -0.10057177 -0.08506148
v -0.10333625 -0.10449237 -0.08307975
v -0.10365685 -0.10516759 -0.08399056
v -0.10516398 -0.10517751 -0.08312694
v -0.10711699 -0.10391485 -0.08310898
v -0.10772994 -0.10288211 -0.08405448
v -0.10711170 -0.10181970 -0.08310523
v -0.10527189 -0.10034452 -0.08294526
v -0.10268877 -0.10207677 -0.08294526
v -0.10376157 -0.10380641 -0.08298106
v -0.10620843 -0.10189984 -0.08865116
v -0.10445097 -0.10164442 -0.08846440
v -0.10654637 -0.10301777 -0.08860961
v -0.10525847 -0.10435469 -0.08302458
v -0.10560204 -0.10431447 -0.08857113
v -0.10353282 -0.10312681 -0.08846431
v -0.10404002 -0.10397052 -0.08852503
f 1 38 17
f 31 28 38
f 37 1 15
f 25 15 18
f 36 34 37
f 37 26 36
f 15 25 36
f 37 38 29
f 17 38 20
f 20 28 17
f 38 28 20
f 37 34 43
f 17 28 21
f 19 26 37
f 37 15 19
f 19 36 26
f 15 36 19
f 4 15 3
f 3 15 1
f 34 36 35
f 35 36 25
f 38 1 30
f 30 29 38
f 30 1 37
f 37 29 30
f 40 6 4
f 28 31 32
f 32 21 28
f 13 32 22
f 21 32 13
f 17 21 13
f 39 31 38
f 39 38 37
f 37 43 39
f 34 27 33
f 33 43 34
f 33 32 31
f 31 39 33
f 33 39 43
f 33 27 22
f 22 32 33
f 42 40 44
f 6 40 42
f 8 7 6
f 8 42 44
f 6 42 8
f 44 10 8
f 5 7 18
f 6 7 5
f 4 6 5
f 18 15 5
f 5 15 4
f 18 7 16
f 14 16 7
f 22 27 14
f 12 1 17
f 46 10 44
f 44 40 46
f 40 45 46
f 46 12 10
f 45 12 46
f 9 13 22
f 10 13 9
f 22 14 9
f 9 14 7
f 9 8 10
f 7 8 9
f 17 13 11
f 11 13 10
f 11 12 17
f 10 12 11
f 24 25 18
f 34 35 24
f 24 35 25
f 23 14 27
f 16 14 23
f 23 27 34
f 34 24 23
f 18 16 23
f 23 24 18
f 1 12 2
f 4 3 2
f 2 3 1
f 2 40 4
f 41 45 40
f 40 2 41
f 41 12 45
f 41 2 12

