# https://github.com/mikedh/trimesh
v 0.11347830 -0.14180173 -0.03479899
v 0.10228244 -0.14835246 -0.03437712
v 0.10750489 -0.14546631 -0.03756879
v 0.08746705 -0.12558566 0.00158906
v 0.08875827 -0.12560145 0.00241978
v 0.08404377 -0.11816945 0.00565018
v 0.12180510 -0.09945651 -0.08286896
v 0.10360164 -0.14776736 -0.03940114
v 0.10123792 -0.14878773 -0.04060462
v 0.08701125 -0.09595963 0.00680321
v 0.07571612 -0.10197921 0.00683998
v 0.05703898 -0.07300880 -0.01907530
v 0.06009817 -0.07863408 -0.00916742
v 0.05541237 -0.06920210 -0.02432820
v 0.09435595 -0.08460181 -0.08869291
v 0.06352577 -0.08433975 -0.00310665
v 0.08420383 -0.11893165 -0.08612162
v 0.07793777 -0.10936208 -0.08652229
v 0.07339646 -0.10156515 -0.08587459
v 0.09734343 -0.08489731 -0.08869320
v 0.07938183 -0.10557238 -0.08871622
v 0.05542940 -0.06567061 -0.04114824
v 0.07897774 -0.10637803 0.00716936
v 0.08189165 -0.10814623 0.00704481
v 0.10801345 -0.14519393 -0.04285212
v 0.08547032 -0.10614815 0.00700836
v 0.13412607 -0.07405458 -0.04070741
v 0.13386690 -0.07545706 -0.04317276
v 0.07158970 -0.09657493 -0.08615709
v 0.07558200 -0.10331226 -0.08757992
v 0.08004938 -0.10865521 -0.08853807
v 0.08597173 -0.11307449 -0.08860767
v 0.10991793 -0.08802428 -0.08869295
v 0.12759598 -0.10740773 -0.07639729
v 0.11352436 -0.08882709 -0.08853684
v 0.11124648 -0.08503313 -0.08832712
v 0.10759843 -0.08228813 -0.08856259
v 0.09047293 -0.11445165 -0.08825844
v 0.09528135 -0.11403906 -0.08843661
v 0.08118261 -0.08953168 -0.08841812
v 0.07839375 -0.09353010 -0.08825917
v 0.07738518 -0.09780585 -0.08862325
v 0.07781016 -0.10362953 -0.08864590
v 0.08024453 -0.11199756 -0.08760692
v 0.06191120 -0.08147843 -0.07393147
v 0.07621577 -0.10623288 0.00603271
v 0.08366314 -0.11920053 0.00343131
v 0.09125860 -0.13095586 -0.07974587
v 0.08609200 -0.12346863 -0.08308931
v 0.08933468 -0.12647653 -0.08295142
v 0.09684438 -0.05589226 -0.06812374
v 0.05784422 -0.07256873 -0.01549457
v 0.06144782 -0.07828490 -0.00689754
v 0.13590270 -0.12364258 -0.02659694
v 0.13347812 -0.11991839 -0.01686799
v 0.07080030 -0.08044991 -0.00175720
v 0.09858454 -0.13000441 -0.00367839
v 0.05677096 -0.07273328 -0.06220512
v 0.06440735 -0.08407606 -0.00155607
v 0.06832365 -0.09126553 0.00304961
v 0.10957118 -0.07720543 -0.08392249
v 0.10474718 -0.06954498 -0.08085652
v 0.09992908 -0.06036101 -0.07360534
v 0.10448237 -0.14727461 -0.04279311
v 0.12508290 -0.10467568 -0.08014234
v 0.12834198 -0.11102154 -0.07565144
v 0.13680547 -0.12341016 -0.03479534
v 0.13516317 -0.12054566 -0.02259904
v 0.09934190 -0.14656064 -0.05359137
v 0.09842750 -0.14333625 -0.06439762
v 0.10102717 -0.14774061 -0.05223429
v 0.13522580 -0.12083321 -0.05694194
v 0.11830979 -0.09199786 0.00355329
v 0.11079160 -0.07883914 0.00295781
v 0.09828667 -0.14263926 -0.01532422
v 0.10660572 -0.14330581 -0.02663949
v 0.13127960 -0.11489621 -0.01003306
v 0.12930507 -0.11144833 -0.00626382
v 0.12044407 -0.09723551 0.00286116
v 0.12537722 -0.10530358 -0.00107791
v 0.11950086 -0.09382508 -0.08394240
v 0.06374896 -0.08339105 -0.07868142
v 0.06751565 -0.09121120 -0.08155337
v 0.05771758 -0.07225848 -0.06489702
v 0.09444462 -0.13796036 -0.07105934
v 0.13658839 -0.12528886 -0.03444236
v 0.13720435 -0.12523669 -0.04284207
v 0.10421318 -0.06863806 -0.00056839
v 0.10870365 -0.07695668 0.00307636
v 0.05454273 -0.06765555 -0.04995739
v 0.05521980 -0.06784361 -0.05367877
v 0.13159253 -0.11587069 -0.06987696
v 0.09543000 -0.13759196 -0.07309529
v 0.05405120 -0.06800908 -0.04046389
v 0.10148713 -0.06432988 -0.07717949
v 0.11061430 -0.10519090 -0.08848719
v 0.10333448 -0.08056766 -0.08847329
v 0.13520885 -0.07582318 -0.04024159
v 0.11432627 -0.08656866 0.00455086
v 0.10015665 -0.14769366 -0.04296489
v 0.09780947 -0.14386883 -0.01944137
v 0.10062015 -0.14682453 -0.02570732
v 0.09174685 -0.04786213 -0.04263459
v 0.10680293 -0.10455689 -0.08869311
v 0.09648498 -0.08072053 -0.08849419
v 0.09272457 -0.10580850 0.00679363
v 0.06757233 -0.08977918 -0.08325889
v 0.09106801 -0.05034181 -0.05372624
v 0.09291933 -0.04812716 -0.04717302
v 0.09476178 -0.05163338 -0.06024609
v 0.10243950 -0.14826916 -0.04647647
v 0.09261617 -0.13482455 -0.00576892
v 0.06623518 -0.05992760 -0.03474482
v 0.11063766 -0.09130263 -0.08869299
v 0.05511010 -0.06629643 -0.04656367
v 0.10298880 -0.06481758 -0.00461354
v 0.05441578 -0.06750505 -0.03210955
v 0.05508737 -0.06624791 -0.03446462
v 0.11464342 -0.08575371 -0.08499476
v 0.09560445 -0.05325276 -0.01712454
v 0.09315035 -0.04961646 -0.02652167
v 0.06620843 -0.05993128 -0.04613067
v 0.11349057 -0.14177086 -0.04621214
v 0.09243402 -0.13292639 -0.00287997
v 0.09581264 -0.13845276 -0.00893989
v 0.10370635 -0.10491261 -0.08869302
v 0.11483665 -0.09327793 -0.08850574
v 0.07216077 -0.09753728 0.00574496
v 0.08177970 -0.11248209 0.00685426
v 0.07788884 -0.10821463 0.00695543
v 0.09973957 -0.14728793 -0.03026157
v 0.09915190 -0.05978678 -0.00778502
v 0.09206773 -0.04817368 -0.03444074
v 0.13608308 -0.12402958 -0.05303346
v 0.09384802 -0.04897111 -0.03417089
v 0.11418847 -0.09929088 -0.08847511
v 0.06143183 -0.06517733 -0.02653272
v 0.06063273 -0.07777753 -0.07306005
v 0.13407480 -0.12027576 -0.06296727
f 51 138 84
f 138 58 84
f 84 58 91
f 45 58 138
f 45 19 58
f 24 129 106
f 24 23 129
f 129 23 130
f 106 129 6
f 129 130 6
f 125 55 77
f 51 84 110
f 110 84 91
f 91 108 110
f 122 108 91
f 91 115 122
f 67 86 87
f 54 86 67
f 39 104 96
f 79 73 106
f 106 6 79
f 79 6 5
f 101 131 102
f 54 55 102
f 106 10 26
f 26 10 23
f 26 24 106
f 23 24 26
f 60 16 46
f 60 89 88
f 47 130 46
f 47 6 130
f 57 125 77
f 94 115 90
f 90 115 91
f 90 58 94
f 91 58 90
f 109 110 108
f 108 122 109
f 35 81 127
f 81 35 119
f 32 104 39
f 32 31 21
f 114 35 127
f 33 35 114
f 114 104 21
f 21 33 114
f 136 96 104
f 136 114 127
f 104 114 136
f 31 32 44
f 107 29 19
f 15 40 105
f 15 42 40
f 21 42 15
f 43 42 21
f 29 42 43
f 21 31 43
f 54 67 98
f 98 67 87
f 94 58 13
f 58 19 13
f 19 131 13
f 46 16 13
f 13 47 46
f 49 19 18
f 69 131 19
f 19 49 69
f 69 49 85
f 69 71 9
f 1 86 54
f 1 25 123
f 87 86 1
f 1 123 87
f 55 125 75
f 75 102 55
f 75 125 101
f 101 102 75
f 2 131 9
f 2 102 131
f 2 1 102
f 99 89 10
f 106 73 99
f 99 10 106
f 10 89 128
f 89 60 128
f 46 130 128
f 128 60 46
f 56 60 88
f 101 125 112
f 47 13 112
f 112 131 101
f 112 13 131
f 124 57 5
f 125 57 124
f 124 112 125
f 80 79 5
f 5 57 80
f 73 79 80
f 80 98 73
f 95 62 105
f 61 119 36
f 36 119 35
f 21 104 126
f 126 32 21
f 104 32 126
f 39 50 38
f 38 32 39
f 111 71 123
f 123 25 111
f 9 71 111
f 111 2 9
f 123 71 134
f 87 123 134
f 134 98 87
f 72 98 134
f 40 107 82
f 105 40 82
f 82 45 138
f 41 42 29
f 29 107 41
f 40 42 41
f 41 107 40
f 20 33 21
f 21 15 20
f 19 29 30
f 29 43 30
f 18 19 30
f 30 44 18
f 31 44 30
f 30 43 31
f 77 55 68
f 68 98 77
f 68 55 54
f 54 98 68
f 110 109 27
f 51 110 27
f 34 98 92
f 94 13 12
f 12 14 94
f 52 13 53
f 52 53 120
f 120 14 52
f 52 12 13
f 14 12 52
f 103 109 122
f 103 133 109
f 121 14 120
f 120 27 121
f 48 49 50
f 85 49 48
f 93 85 48
f 48 96 93
f 39 96 48
f 48 50 39
f 50 49 17
f 17 44 32
f 18 44 17
f 17 49 18
f 17 38 50
f 32 38 17
f 9 131 100
f 100 69 9
f 131 69 100
f 70 85 93
f 70 69 85
f 71 69 70
f 70 93 92
f 70 134 71
f 54 102 76
f 76 1 54
f 102 1 76
f 25 1 3
f 1 2 3
f 89 99 74
f 98 27 74
f 73 98 74
f 74 99 73
f 88 89 74
f 74 27 88
f 23 10 11
f 10 128 11
f 11 130 23
f 11 128 130
f 59 56 53
f 60 56 59
f 16 60 59
f 59 13 16
f 53 13 59
f 47 112 4
f 112 124 4
f 4 124 5
f 5 6 4
f 6 47 4
f 77 98 78
f 98 80 78
f 78 57 77
f 78 80 57
f 63 95 105
f 63 82 138
f 105 82 63
f 63 138 51
f 51 27 63
f 62 95 63
f 63 27 62
f 37 35 33
f 37 36 35
f 33 20 37
f 37 15 105
f 37 20 15
f 37 62 61
f 61 36 37
f 64 111 25
f 25 3 64
f 83 107 19
f 83 82 107
f 19 45 83
f 45 82 83
f 132 27 120
f 120 53 132
f 132 56 88
f 53 56 132
f 61 62 28
f 62 27 28
f 28 119 61
f 81 119 28
f 28 27 98
f 98 34 28
f 127 81 7
f 133 121 135
f 135 121 27
f 109 133 135
f 135 27 109
f 113 121 133
f 133 103 113
f 113 103 122
f 139 70 92
f 134 70 139
f 72 134 139
f 92 98 139
f 139 98 72
f 105 62 97
f 97 37 105
f 62 37 97
f 8 3 2
f 8 64 3
f 2 111 8
f 111 64 8
f 88 27 116
f 116 132 88
f 27 132 116
f 81 28 65
f 65 28 34
f 65 7 81
f 96 136 65
f 65 136 127
f 127 7 65
f 22 115 94
f 22 122 115
f 22 113 122
f 14 121 137
f 137 113 14
f 121 113 137
f 94 14 117
f 66 34 92
f 66 65 34
f 96 65 66
f 92 93 66
f 93 96 66
f 113 22 118
f 14 113 118
f 118 117 14
f 118 22 94
f 94 117 118

