# https://github.com/mikedh/trimesh
v 0.10662110 -0.10501679 -0.08741729
v 0.10644063 -0.10496263 -0.08831224
v 0.10771095 -0.10273438 -0.08745634
v 0.10756352 -0.10255886 -0.08832832
v 0.10629203 -0.10051313 -0.08744164
v 0.10614811 -0.10063900 -0.08833079
v 0.10359008 -0.10068328 -0.08742704
v 0.10377355 -0.10078139 -0.08833402
v 0.10263920 -0.10292346 -0.08832482
v 0.10249517 -0.10299513 -0.08744996
v 0.10388158 -0.10519876 -0.08744306
v 0.10388995 -0.10500081 -0.08833109
v 0.10533758 -0.10519798 -0.08662865
v 0.10380810 -0.10521491 -0.08628841
v 0.10659146 -0.10513113 -0.08629564
v 0.10238773 -0.10301025 -0.08626852
v 0.10360623 -0.10058993 -0.08628364
v 0.10538028 -0.10045638 -0.08548717
v 0.10632953 -0.10042399 -0.08625692
v 0.10783233 -0.10271236 -0.08620997
v 0.10355348 -0.10065846 -0.08515201
v 0.10658205 -0.10512178 -0.08517639
v 0.10387983 -0.10527728 -0.08513914
v 0.10239663 -0.10301201 -0.08514362
v 0.10313055 -0.10155911 -0.08441642
v 0.10781547 -0.10269181 -0.08512367
v 0.10369548 -0.10067316 -0.08410019
v 0.10648092 -0.10522091 -0.08406066
v 0.10711835 -0.10416205 -0.08332802
v 0.10479460 -0.10523226 -0.08337796
v 0.10387586 -0.10525730 -0.08406362
v 0.10343775 -0.10446673 -0.08309416
v 0.10241233 -0.10302654 -0.08405717
v 0.10279645 -0.10290261 -0.08303582
v 0.10323138 -0.10149406 -0.08312234
v 0.10510905 -0.10051508 -0.08310544
v 0.10631720 -0.10045139 -0.08406884
v 0.10702333 -0.10156193 -0.08311986
v 0.10778785 -0.10272413 -0.08407217
v 0.10748268 -0.10349476 -0.08294525
v 0.10554945 -0.10523173 -0.08294525
v 0.10367768 -0.10355226 -0.08298102
v 0.10648730 -0.10223766 -0.08865112
v 0.10591703 -0.10391945 -0.08846439
v 0.10564462 -0.10142898 -0.08860960
v 0.10386873 -0.10196956 -0.08302457
v 0.10406055 -0.10168168 -0.08857111
v 0.10418222 -0.10407113 -0.08846069
v 0.10365788 -0.10322966 -0.08852502
f 39 40 20
f 4 19 20
f 20 19 26
f 26 39 20
f 21 25 35
f 21 17 16
f 35 25 33
f 25 21 33
f 46 42 40
f 6 4 43
f 19 17 18
f 40 39 38
f 39 26 38
f 16 17 7
f 35 33 34
f 34 46 35
f 42 46 34
f 24 21 16
f 16 33 24
f 24 33 21
f 19 4 5
f 4 6 5
f 5 17 19
f 5 7 17
f 5 6 8
f 8 7 5
f 3 4 20
f 20 1 3
f 40 42 41
f 43 4 2
f 4 3 2
f 2 3 1
f 27 21 35
f 17 21 27
f 37 26 19
f 37 38 26
f 19 18 37
f 36 46 40
f 40 38 36
f 35 46 36
f 38 37 36
f 36 27 35
f 17 27 36
f 36 37 18
f 36 18 17
f 8 6 45
f 45 47 8
f 45 6 43
f 43 47 45
f 42 34 32
f 32 41 42
f 32 34 33
f 40 41 29
f 41 28 29
f 28 22 29
f 31 32 33
f 49 47 43
f 43 2 44
f 15 22 28
f 15 2 1
f 15 29 22
f 40 29 15
f 20 40 15
f 15 1 20
f 11 12 2
f 41 32 30
f 30 31 41
f 32 31 30
f 9 49 12
f 9 7 8
f 8 47 9
f 47 49 9
f 2 12 48
f 48 44 2
f 12 49 48
f 48 49 43
f 43 44 48
f 16 11 14
f 14 33 16
f 14 31 33
f 13 15 28
f 2 15 13
f 13 11 2
f 10 9 12
f 10 11 16
f 12 11 10
f 16 7 10
f 7 9 10
f 31 14 23
f 23 14 11
f 11 13 23
f 23 13 28
f 23 28 41
f 41 31 23

