# https://github.com/mikedh/trimesh
v 0.16405070 0.04513714 0.04927207
v 0.16129616 0.04745256 0.04915413
v 0.16126155 0.04398999 0.04869360
v 0.16406228 0.04330149 0.04736256
v 0.16125456 0.04360536 0.04534489
v 0.16401530 0.04455331 0.04432170
v 0.16126478 0.04591721 0.04405593
v 0.16405453 0.04802846 0.04476307
v 0.16127996 0.04801339 0.04488883
v 0.16122575 0.04866989 0.04667261
v 0.16409585 0.04853736 0.04756844
v 0.16403295 0.04738799 0.04908912
v 0.14570118 0.04719116 0.04702998
v 0.14556833 0.04677701 0.04583986
v 0.14533630 0.04574454 0.04765834
v 0.14577673 0.04598289 0.04803370
v 0.14588148 0.04494814 0.04742979
v 0.14575996 0.04525026 0.04528315
v 0.14587900 0.04701161 0.04555988
v 0.14597506 0.04755246 0.04710697
v 0.14614938 0.04488709 0.04778623
v 0.14624135 0.04457926 0.04599666
v 0.14633586 0.04672974 0.04523915
v 0.14654821 0.04619786 0.04833475
v 0.14667490 0.04450464 0.04725022
v 0.14681430 0.04629671 0.04518972
v 0.14691176 0.04749599 0.04626649
v 0.14697636 0.04709141 0.04793082
v 0.14708733 0.04511376 0.04805297
v 0.14864603 0.04437164 0.04678407
v 0.14606448 0.04624596 0.04828313
v 0.16409623 0.04642514 0.04812231
v 0.16409445 0.04741919 0.04706920
v 0.16406451 0.04680004 0.04548843
v 0.16406941 0.04462694 0.04636037
v 0.16409445 0.04501709 0.04778654
f 4 1 3
f 32 1 36
f 36 1 4
f 4 35 36
f 12 1 32
f 32 36 33
f 33 34 8
f 33 36 35
f 35 34 33
f 11 8 10
f 11 33 8
f 11 12 32
f 32 33 11
f 7 8 6
f 6 35 4
f 4 5 6
f 6 34 35
f 8 34 6
f 7 6 18
f 18 5 22
f 18 6 5
f 9 8 7
f 7 23 9
f 10 8 9
f 10 9 27
f 4 3 25
f 12 11 2
f 1 12 2
f 2 24 1
f 26 23 7
f 7 18 26
f 26 18 23
f 14 18 15
f 10 27 20
f 20 11 10
f 28 2 20
f 20 2 11
f 29 3 1
f 1 24 29
f 4 25 30
f 30 25 22
f 30 5 4
f 22 5 30
f 22 25 17
f 15 18 17
f 17 18 22
f 31 2 28
f 24 2 31
f 28 20 31
f 31 29 24
f 23 18 19
f 18 14 19
f 19 9 23
f 19 27 9
f 19 20 27
f 14 20 19
f 13 14 15
f 13 20 14
f 15 31 13
f 13 31 20
f 21 25 3
f 3 29 21
f 21 17 25
f 29 31 21
f 15 17 21
f 16 31 15
f 15 21 16
f 16 21 31

