# https://github.com/mikedh/trimesh
v 0.16698951 0.17662937 -0.02843901
v 0.15819787 0.19871204 -0.04966396
v 0.15858309 0.19532341 -0.04873393
v 0.16658747 0.19871204 -0.02940966
v 0.15643277 0.17706301 -0.05392531
v 0.16064517 0.17038611 -0.04889966
v 0.15873102 0.17063729 -0.04837676
v 0.16156907 0.16790847 -0.04152521
v 0.16354614 0.16790319 -0.04189599
v 0.16621942 0.16829076 -0.03544219
v 0.16459752 0.16843744 -0.03421386
v 0.16863199 0.17152116 -0.02961771
v 0.16775532 0.17350571 -0.02659024
v 0.17044142 0.17667816 -0.02524933
v 0.16961787 0.18385722 -0.02209369
v 0.17136277 0.18423563 -0.02302506
v 0.17110727 0.19124041 -0.02364189
v 0.16873175 0.19504824 -0.02423294
v 0.16966387 0.19818431 -0.02712654
v 0.16612017 0.20189522 -0.03053789
v 0.16659067 0.20356622 -0.03454584
v 0.16357970 0.20410435 -0.03667113
v 0.16288833 0.20398545 -0.04348418
v 0.16087042 0.20386381 -0.04321186
v 0.16041889 0.20106356 -0.04944583
v 0.15846195 0.20080762 -0.04902646
v 0.15872612 0.19682092 -0.05353259
v 0.15619830 0.19419797 -0.05449139
v 0.15749108 0.18960784 -0.05651429
v 0.15558159 0.18467641 -0.05598023
v 0.15780735 0.17909544 -0.05575074
v 0.16784505 0.17637434 -0.05116524
v 0.17572907 0.17938051 -0.03212091
v 0.17640074 0.18505379 -0.03050876
v 0.17620817 0.18959876 -0.03104856
v 0.17536714 0.19388493 -0.03282494
v 0.16696785 0.19286081 -0.05327358
v 0.16628040 0.18718871 -0.05496831
v 0.16658900 0.18130958 -0.05421138
v 0.17512057 0.17544599 -0.04538244
v 0.17588514 0.18087703 -0.04353661
v 0.17692852 0.17544599 -0.04101764
v 0.17692954 0.18083601 -0.04101514
v 0.17407720 0.18087707 -0.04790139
v 0.17406832 0.17548721 -0.04792276
v 0.17588514 0.19662507 -0.04353661
v 0.17692852 0.19119403 -0.04101764
v 0.17692955 0.19658404 -0.04101514
v 0.17407720 0.19662509 -0.04790139
v 0.17406832 0.19123526 -0.04792276
f 6 45 9
f 9 8 6
f 48 19 36
f 21 19 48
f 48 23 21
f 21 23 22
f 30 31 5
f 5 31 6
f 15 13 14
f 22 23 24
f 25 26 24
f 24 23 25
f 27 26 25
f 25 23 49
f 49 27 25
f 20 18 19
f 20 21 22
f 19 21 20
f 22 24 20
f 17 36 19
f 19 18 17
f 17 18 15
f 1 13 15
f 15 18 1
f 45 6 32
f 6 31 32
f 7 6 8
f 7 5 6
f 8 11 7
f 7 11 13
f 13 1 7
f 30 5 7
f 9 45 40
f 40 42 9
f 10 8 9
f 10 11 8
f 9 42 10
f 42 43 34
f 34 43 48
f 4 1 18
f 18 20 4
f 4 20 24
f 4 7 1
f 26 27 28
f 49 50 38
f 38 50 45
f 48 47 46
f 46 23 48
f 46 49 23
f 44 41 42
f 42 40 44
f 44 40 45
f 13 11 12
f 11 10 12
f 12 14 13
f 12 10 42
f 42 34 33
f 33 12 42
f 14 12 33
f 36 17 35
f 17 34 35
f 48 36 35
f 35 34 48
f 15 14 16
f 16 17 15
f 16 34 17
f 14 33 16
f 16 33 34
f 2 24 26
f 26 28 2
f 2 28 30
f 29 31 30
f 29 38 31
f 30 28 29
f 29 28 27
f 27 49 37
f 49 38 37
f 37 29 27
f 38 29 37
f 45 32 39
f 39 38 45
f 39 32 31
f 31 38 39
f 7 4 3
f 30 7 3
f 3 2 30
f 3 4 24
f 24 2 3
f 47 43 42
f 48 43 47
f 46 47 42
f 42 41 46
f 44 46 41
f 49 46 44
f 45 50 44
f 44 50 49

