# https://github.com/mikedh/trimesh
v -0.04608798 -0.10845169 -0.04188415
v -0.04827275 -0.10673332 -0.04093653
v -0.04614780 -0.10860534 -0.03894115
v -0.04868000 -0.10735232 -0.03859588
v -0.04716050 -0.11018997 -0.03783895
v -0.04994860 -0.10931810 -0.03777413
v -0.04837240 -0.11201207 -0.03841605
v -0.05111390 -0.11113332 -0.03944890
v -0.04888635 -0.11274717 -0.04127200
v -0.05088875 -0.11077904 -0.04215713
v -0.04758088 -0.11078457 -0.04316635
v -0.04932280 -0.10840548 -0.04318513
v -0.05701045 -0.10546264 -0.04024980
v -0.05688768 -0.10576225 -0.04035558
v -0.05683390 -0.10607650 -0.03986328
v -0.05663840 -0.10547275 -0.04132320
v -0.05608083 -0.10460432 -0.04162663
v -0.05542390 -0.10382042 -0.04085543
v -0.05591145 -0.10385657 -0.04003555
v -0.05587875 -0.10453352 -0.03892495
v -0.05668170 -0.10595862 -0.04141708
v -0.05579983 -0.10476487 -0.04200755
v -0.05507668 -0.10380267 -0.04106031
v -0.05511535 -0.10400107 -0.03951583
v -0.05577050 -0.10514370 -0.03893018
v -0.05641320 -0.10631979 -0.03969670
v -0.05509820 -0.10461193 -0.04190348
v -0.05456422 -0.10399515 -0.04023880
v -0.05562763 -0.10590647 -0.03907243
v -0.05610598 -0.10681292 -0.04049593
v -0.05535635 -0.10584130 -0.04197578
v -0.05421048 -0.10436677 -0.03965778
v -0.04688040 -0.10975839 -0.04152368
v -0.04762620 -0.11090682 -0.04177793
v -0.04811900 -0.11166565 -0.04071920
v -0.04692125 -0.10990080 -0.03918968
f 11 12 1
f 9 10 11
f 12 11 31
f 31 11 10
f 7 8 9
f 6 8 7
f 3 36 1
f 1 36 33
f 33 11 1
f 9 11 35
f 35 7 9
f 36 7 35
f 12 31 22
f 4 20 6
f 24 20 4
f 15 20 13
f 21 31 10
f 21 22 31
f 36 35 34
f 34 35 11
f 34 33 36
f 11 33 34
f 12 22 27
f 27 22 23
f 1 12 27
f 27 23 1
f 23 22 17
f 24 23 19
f 19 20 24
f 13 20 19
f 19 17 13
f 5 4 6
f 3 4 5
f 6 7 5
f 5 7 36
f 36 3 5
f 2 4 3
f 1 23 2
f 2 3 1
f 26 15 8
f 29 15 26
f 26 8 6
f 6 29 26
f 20 15 25
f 25 15 29
f 6 20 25
f 25 29 6
f 30 10 9
f 30 21 10
f 9 8 30
f 8 15 30
f 15 21 30
f 14 15 13
f 13 21 14
f 14 21 15
f 22 21 16
f 16 17 22
f 16 21 13
f 13 17 16
f 23 17 18
f 18 19 23
f 17 19 18
f 28 23 24
f 28 2 23
f 4 2 28
f 24 4 32
f 32 28 24
f 4 28 32

