# https://github.com/mikedh/trimesh
v 0.05060289 -0.06497386 0.11472103
v 0.05480509 -0.06512110 0.11970523
v 0.05493386 -0.06347518 0.11640573
v 0.05682436 -0.15012940 0.12275928
v 0.05871938 -0.14670786 0.12707865
v 0.05512379 -0.14420760 0.12637096
v 0.05328104 -0.06903190 0.12255451
v 0.04883389 -0.06802148 0.11466596
v 0.05662664 -0.07606775 0.12924903
v 0.05284116 -0.09077228 0.12290450
v 0.05608224 -0.10507780 0.12853653
v 0.05477608 -0.11953453 0.12634358
v 0.18431399 -0.14139824 0.12196497
v 0.17949796 -0.14091262 0.12381067
v 0.18151216 -0.14602666 0.11984777
v 0.20208941 -0.15268029 0.06265959
v 0.18233883 -0.15353416 0.10675249
v 0.19345787 -0.15591193 0.06196954
v 0.18216104 -0.06298524 0.10681031
v 0.03971764 -0.06039433 0.06261112
v 0.06102661 -0.14267453 0.13053411
v 0.20912767 -0.07340326 0.06266055
v 0.20838368 -0.14315641 0.06167175
v 0.20792807 -0.07235624 0.06167304
v 0.03477301 -0.14658755 0.06307121
v 0.03546024 -0.15240278 0.06264602
v 0.03747511 -0.15095155 0.07913613
v 0.08138719 -0.09052003 0.13375706
v 0.06509346 -0.09054958 0.13451851
v 0.05956601 -0.08413888 0.13319726
v 0.06120926 -0.07707003 0.13222473
v 0.17944824 -0.07944502 0.12540964
v 0.06242971 -0.07984138 0.13348618
v 0.17585489 -0.08599509 0.12705576
v 0.03614660 -0.06454570 0.06167033
v 0.03548662 -0.06411310 0.06259828
v 0.03989029 -0.15534778 0.06167296
v 0.03977616 -0.15614657 0.06254670
v 0.03609339 -0.15195442 0.06167126
v 0.03593786 -0.14560205 0.06166702
v 0.20215549 -0.06498374 0.06167395
v 0.20218589 -0.06392711 0.06267216
v 0.19309876 -0.14595757 0.10964627
v 0.20898590 -0.14338935 0.06268498
v 0.19523661 -0.14126776 0.11075622
v 0.06478446 -0.11624875 0.13453213
v 0.05744234 -0.06724728 0.12404956
v 0.18003299 -0.06431429 0.11147334
v 0.18076496 -0.07174614 0.12107999
v 0.18649102 -0.07677059 0.12175184
v 0.20155153 -0.15196889 0.06167416
v 0.04057693 -0.14324501 0.09327126
v 0.04717041 -0.08037515 0.11143278
v 0.20414599 -0.07693854 0.08648982
v 0.19587301 -0.07529271 0.10911362
v 0.19551309 -0.07935681 0.11284537
v 0.17745983 -0.13435414 0.12642284
v 0.18196614 -0.13405641 0.12543222
v 0.05379101 -0.15317428 0.11526158
v 0.18143148 -0.15149174 0.11289722
v 0.18875056 -0.15010661 0.10938672
v 0.18533855 -0.15025738 0.11272379
v 0.04167087 -0.06681390 0.09643263
v 0.03833939 -0.07138798 0.08579970
v 0.17636739 -0.12971604 0.12701574
v 0.18188874 -0.08437889 0.12572546
v 0.18903639 -0.07071869 0.11567306
v 0.19275339 -0.07716089 0.11639589
v 0.19464270 -0.06246134 0.06167590
v 0.18580829 -0.13204699 0.12368321
v 0.18867551 -0.08168159 0.12163832
v 0.06500109 -0.09840371 0.13452793
v 0.04004385 -0.06108468 0.06167476
v 0.19384572 -0.06073712 0.06193737
v 0.06159383 -0.13609470 0.13348416
v 0.19350383 -0.15422326 0.06167584
v 0.03547884 -0.07066918 0.06173829
v 0.06247401 -0.13185388 0.13441100
v 0.05875801 -0.13217203 0.13262673
v 0.05810309 -0.07241568 0.12872878
v 0.04195363 -0.14845812 0.09778838
v 0.04142421 -0.15193011 0.09207865
v 0.04919926 -0.14827595 0.11556556
v 0.03778027 -0.06585355 0.08086755
v 0.04298429 -0.06258378 0.09013985
v 0.06242266 -0.08521163 0.13441606
v 0.10110576 -0.08759066 0.13267664
v 0.04177709 -0.15438786 0.08428353
v 0.19571731 -0.13621992 0.11265884
v 0.20437160 -0.13970029 0.08560419
v 0.10110576 -0.12894586 0.13267664
v 0.08138718 -0.12601653 0.13375718
v 0.06509351 -0.12598696 0.13451846
v 0.05890661 -0.14076026 0.13088068
v 0.06500243 -0.12399390 0.13452596
v 0.06494314 -0.09243253 0.13452726
v 0.20045201 -0.15137539 0.06167373
v 0.04908073 -0.13361753 0.11577893
v 0.18858903 -0.14485708 0.11700349
v 0.18831895 -0.13805271 0.12113059
v 0.19338592 -0.07105544 0.10982884
v 0.04973113 -0.15158183 0.11298850
v 0.18225241 -0.06769099 0.11672242
v 0.18732021 -0.06562889 0.10965219
v 0.06040849 -0.07108941 0.12855183
v 0.17838664 -0.07529421 0.12379721
v 0.05310741 -0.15003591 0.12030673
v 0.19290376 -0.14177014 0.11463606
v 0.19156903 -0.13459996 0.11897427
f 64 36 25
f 84 64 63
f 36 64 84
f 73 36 20
f 25 36 77
f 76 18 37
f 37 51 76
f 76 51 18
f 24 42 22
f 22 54 90
f 38 18 17
f 17 59 38
f 37 18 38
f 38 26 37
f 63 64 81
f 60 59 17
f 4 59 60
f 74 73 20
f 69 73 74
f 25 77 40
f 35 73 69
f 24 40 35
f 36 73 35
f 35 77 36
f 35 40 77
f 17 18 16
f 18 51 16
f 89 90 54
f 88 38 59
f 26 38 88
f 107 59 4
f 52 81 64
f 15 21 5
f 4 60 5
f 5 60 15
f 5 107 4
f 63 81 53
f 53 8 63
f 33 86 87
f 87 32 33
f 92 93 78
f 46 86 78
f 31 33 106
f 106 33 32
f 106 32 50
f 48 3 47
f 47 3 2
f 85 3 20
f 85 84 63
f 20 36 85
f 36 84 85
f 23 40 24
f 23 16 51
f 23 24 22
f 41 35 69
f 24 35 41
f 69 74 41
f 42 24 41
f 41 74 42
f 54 55 56
f 56 89 54
f 56 109 89
f 102 88 59
f 59 107 102
f 26 88 27
f 25 26 27
f 81 52 27
f 27 64 25
f 27 52 64
f 98 53 81
f 8 53 98
f 104 67 101
f 101 42 104
f 22 42 101
f 101 54 22
f 101 55 54
f 87 92 91
f 92 78 91
f 57 65 91
f 34 32 87
f 87 91 34
f 34 91 65
f 10 9 8
f 10 98 12
f 8 98 10
f 87 86 28
f 86 29 28
f 28 92 87
f 12 98 6
f 107 5 6
f 30 78 86
f 86 33 30
f 31 9 30
f 30 33 31
f 46 78 95
f 95 78 93
f 95 93 92
f 31 106 105
f 3 48 19
f 19 74 20
f 20 3 19
f 19 48 104
f 104 42 19
f 42 74 19
f 8 9 7
f 47 2 7
f 3 85 1
f 1 2 3
f 63 8 1
f 1 85 63
f 8 7 1
f 1 7 2
f 39 40 37
f 37 26 39
f 39 26 25
f 25 40 39
f 97 23 51
f 40 23 97
f 97 51 37
f 37 40 97
f 16 23 44
f 90 43 44
f 44 43 16
f 22 90 44
f 44 23 22
f 15 60 62
f 62 60 17
f 89 109 108
f 82 102 81
f 88 102 82
f 81 27 82
f 82 27 88
f 94 5 21
f 94 6 5
f 83 98 81
f 83 6 98
f 81 102 83
f 83 102 107
f 107 6 83
f 11 10 12
f 9 10 11
f 46 95 72
f 92 28 72
f 72 95 92
f 103 48 47
f 47 105 103
f 103 67 104
f 104 48 103
f 80 7 9
f 80 9 31
f 31 105 80
f 80 105 47
f 47 7 80
f 16 43 61
f 17 16 61
f 61 62 17
f 15 13 14
f 14 21 15
f 109 71 70
f 90 89 45
f 89 108 45
f 45 43 90
f 45 108 43
f 100 108 109
f 109 70 100
f 109 56 68
f 68 71 109
f 50 71 68
f 68 67 50
f 68 101 67
f 68 56 55
f 55 101 68
f 75 94 21
f 75 14 57
f 21 14 75
f 57 91 75
f 75 91 78
f 96 28 29
f 96 72 28
f 96 29 86
f 96 86 46
f 46 72 96
f 49 105 106
f 49 103 105
f 49 106 50
f 50 67 49
f 67 103 49
f 57 14 58
f 58 14 13
f 58 65 57
f 13 100 58
f 58 100 70
f 99 100 13
f 108 100 99
f 99 13 15
f 15 62 99
f 62 61 99
f 43 108 99
f 99 61 43
f 94 75 79
f 6 94 79
f 78 30 79
f 79 75 78
f 12 6 79
f 79 11 12
f 79 30 9
f 9 11 79
f 66 70 71
f 66 58 70
f 32 34 66
f 66 34 65
f 65 58 66
f 50 32 66
f 66 71 50

