# https://github.com/mikedh/trimesh
v -0.15718968 0.03240874 0.10783549
v -0.15474360 -0.04872436 0.07157887
v -0.15474980 -0.04382831 0.05175358
v -0.15476351 -0.03571524 0.04000856
v -0.15476680 -0.02581374 0.03193269
v -0.15473820 -0.00121879 0.02458803
v -0.15478609 0.01101278 0.02571236
v -0.15478609 0.02397190 0.03074191
v -0.15478609 0.03498914 0.03921877
v -0.15471693 0.04588439 0.05678975
v -0.15470809 0.04834039 0.07063919
v -0.15473650 0.04691256 0.08692144
v -0.15473268 0.03720949 0.10480664
v -0.15477926 0.02477531 0.11537966
v -0.15469488 0.00246716 0.12168699
v -0.15473533 -0.01286446 0.12033014
v -0.15470810 -0.02587531 0.11420902
v -0.15480823 -0.03499689 0.10740419
v -0.15477555 -0.04486931 0.09268029
v -0.15590680 -0.04739504 0.05896402
v -0.15564258 -0.01840546 0.02752020
v -0.15498542 -0.01076716 0.02550955
v -0.15564258 0.04882439 0.06619676
v -0.15590340 0.04932939 0.07753181
v -0.15590679 0.04144119 0.10039609
v -0.15607905 0.03274056 0.11038064
v -0.15498438 0.01311425 0.12047876
v -0.15564258 0.00476720 0.12239884
v -0.15564258 -0.00461213 0.12241334
v -0.15590680 -0.02509815 0.11597601
v -0.15598826 -0.04024851 0.10195111
v -0.15528535 -0.04878539 0.07983902
v -0.15498440 0.04276521 0.04942629
v -0.15633390 -0.04927436 0.07086288
v -0.15723120 -0.04815426 0.06612639
v -0.15651338 -0.02852834 0.03297780
v -0.15699205 -0.01885264 0.02809526
v -0.15633390 -0.00925351 0.02483365
v -0.15633387 0.04665126 0.05723626
v -0.15724113 0.04839119 0.06725931
v -0.15724803 0.04730251 0.08494051
v -0.15633394 0.04659669 0.08950866
v -0.15724022 0.04168916 0.09844884
v -0.15699208 0.03082584 0.11134944
v -0.15633395 0.02253438 0.11718331
v -0.15633393 0.01382107 0.12065451
v -0.15693126 0.00201854 0.12233196
v -0.15724150 -0.01010038 0.12091999
v -0.15633395 -0.01397781 0.12060756
v -0.15724023 -0.02314139 0.11613099
v -0.15724150 -0.04260749 0.09684749
v -0.15633390 -0.04491041 0.09371274
v -0.15665628 -0.04837621 0.08293696
v -0.15659513 -0.03407011 0.10890022
v -0.15651342 0.04162929 0.04671430
v -0.15651342 0.03245471 0.03606301
v -0.15651342 0.02065109 0.02842801
v -0.15677332 0.01041645 0.02515895
v -0.15633392 0.00008477 0.02395784
v -0.15624665 -0.03697806 0.04061481
v -0.15675312 -0.04174986 0.04711323
v -0.15727925 -0.04488131 0.05507074
v -0.15726838 -0.03314609 0.03801041
v -0.15727743 -0.01915373 0.02952402
v -0.15725685 -0.00400651 0.02482118
v -0.15728759 0.00852789 0.02605953
v -0.15732544 0.02791521 0.03407962
v -0.15726088 0.03665854 0.04166758
v -0.15732802 0.04377254 0.05333030
v -0.15732802 0.02202502 0.11606511
v -0.15728158 0.01126297 0.12042296
v -0.15733461 -0.03786259 0.10302666
v -0.15731945 -0.04703524 0.08392244
f 72 70 69
f 15 17 6
f 6 17 3
f 15 13 14
f 10 6 8
f 72 69 67
f 3 17 2
f 2 17 19
f 16 17 15
f 19 17 18
f 50 48 72
f 52 53 19
f 7 6 59
f 8 6 7
f 59 6 38
f 48 47 71
f 71 70 72
f 72 48 71
f 70 71 45
f 41 69 70
f 70 43 41
f 41 40 69
f 24 40 41
f 19 53 32
f 32 2 19
f 29 47 48
f 29 16 15
f 48 50 49
f 49 29 48
f 16 29 49
f 4 6 3
f 54 50 72
f 19 18 31
f 31 52 19
f 18 54 31
f 31 54 72
f 53 52 51
f 51 31 72
f 52 31 51
f 3 2 20
f 20 35 62
f 20 61 3
f 62 61 20
f 8 7 57
f 57 56 8
f 67 56 57
f 26 14 13
f 26 45 14
f 15 14 27
f 14 45 27
f 69 40 39
f 11 12 13
f 11 13 15
f 24 12 11
f 15 6 11
f 6 10 11
f 24 41 42
f 42 12 24
f 42 41 43
f 9 10 8
f 8 56 9
f 69 39 55
f 55 9 56
f 63 61 62
f 62 64 63
f 72 67 73
f 67 64 73
f 73 64 62
f 62 35 73
f 73 51 72
f 73 35 53
f 53 51 73
f 59 38 65
f 30 49 50
f 50 54 30
f 17 16 30
f 16 49 30
f 30 18 17
f 30 54 18
f 34 20 2
f 35 20 34
f 2 32 34
f 53 35 34
f 34 32 53
f 58 7 59
f 58 57 7
f 59 65 58
f 38 21 37
f 37 65 38
f 64 65 37
f 37 21 36
f 36 63 37
f 37 63 64
f 6 4 5
f 5 4 36
f 36 21 5
f 25 26 13
f 43 26 25
f 25 42 43
f 13 12 25
f 12 42 25
f 44 26 43
f 70 45 44
f 45 26 44
f 46 45 71
f 46 27 45
f 46 71 47
f 23 39 40
f 23 40 24
f 24 11 23
f 10 39 23
f 23 11 10
f 68 56 67
f 68 55 56
f 68 67 69
f 69 55 68
f 10 9 33
f 9 55 33
f 33 39 10
f 33 55 39
f 61 63 60
f 3 61 60
f 60 4 3
f 36 4 60
f 60 63 36
f 66 58 65
f 66 64 67
f 66 65 64
f 67 57 66
f 57 58 66
f 6 5 22
f 22 5 21
f 22 38 6
f 22 21 38
f 1 43 70
f 70 44 1
f 1 44 43
f 28 46 47
f 27 46 28
f 15 27 28
f 28 29 15
f 47 29 28

