# https://github.com/mikedh/trimesh
v 0.05869754 -0.12270515 0.06692172
v 0.05331009 -0.07797513 0.06685542
v 0.05755744 -0.07375071 0.06685542
v 0.05749584 -0.15213860 0.06685542
v 0.05334459 -0.14768720 0.06685542
v 0.19706301 -0.15196888 0.06685543
v 0.20047217 -0.14803743 0.06685543
v 0.20062946 -0.13651164 0.06681810
v 0.20056936 -0.13039384 0.06688196
v 0.20055277 -0.08849912 0.06688670
v 0.19715657 -0.07384834 0.06685543
v 0.20049505 -0.07800099 0.06685543
v 0.20065512 -0.08396357 0.06656846
v 0.20047215 -0.07781384 0.06216793
v 0.20046079 -0.14792714 0.06216793
v 0.05334307 -0.14795370 0.06216792
v 0.05331955 -0.07820540 0.06216792
v 0.05755747 -0.15210060 0.06216792
v 0.19715656 -0.15200299 0.06216793
v 0.19706307 -0.07388244 0.06216793
v 0.05749582 -0.07371268 0.06216792
f 2 17 16
f 21 17 2
f 21 11 20
f 20 11 14
f 2 16 5
f 5 16 4
f 5 1 2
f 4 1 5
f 18 19 4
f 4 16 18
f 12 10 13
f 12 11 10
f 13 14 12
f 12 14 11
f 13 10 8
f 4 19 6
f 19 7 6
f 6 1 4
f 3 21 2
f 11 21 3
f 10 11 3
f 2 1 3
f 3 1 10
f 9 8 10
f 7 8 9
f 9 6 7
f 10 1 9
f 1 6 9
f 15 8 7
f 15 14 13
f 13 8 15
f 15 7 19
f 17 21 15
f 15 16 17
f 19 18 15
f 15 21 20
f 20 14 15
f 15 18 16

