# https://github.com/mikedh/trimesh
v 0.01091934 0.05030853 -0.03335787
v 0.01254157 0.05217958 -0.03315957
v 0.00911672 0.05027090 -0.03313630
v 0.01015630 0.05563708 -0.03319657
v 0.00977238 0.05558142 -0.03597685
v 0.00791873 0.05469797 -0.03316072
v 0.00734461 0.05403767 -0.03594387
v 0.00716712 0.05239707 -0.03316347
v 0.00787990 0.05100137 -0.03595350
v 0.01033991 0.05023942 -0.03595185
v 0.01239766 0.05175492 -0.03592230
v 0.01212822 0.05449262 -0.03597257
v 0.01194300 0.05454703 -0.03312992
v 0.01092214 0.05226075 -0.04766245
v 0.00961750 0.05128758 -0.04754697
v 0.01092962 0.05350782 -0.04768482
v 0.00998171 0.05406608 -0.04751907
v 0.00834561 0.05307272 -0.04762047
v 0.00886511 0.05360862 -0.04745095
v 0.01121743 0.05209330 -0.04740013
v 0.01119981 0.05373132 -0.04732400
v 0.00987870 0.05443380 -0.04724245
v 0.00851420 0.05367897 -0.04717372
v 0.00865989 0.05186580 -0.04703923
v 0.01040750 0.05139873 -0.04695032
v 0.01142576 0.05268607 -0.04687183
v 0.01089560 0.05408437 -0.04681055
v 0.00935423 0.05435230 -0.04670785
v 0.00825641 0.05283722 -0.04664023
v 0.01105955 0.05183055 -0.04644670
v 0.00925371 0.05440310 -0.04620350
v 0.01042998 0.05443282 -0.04580970
v 0.00987846 0.05434835 -0.03312455
v 0.00855729 0.05347182 -0.03312288
v 0.00867026 0.05212422 -0.03312007
v 0.00987846 0.05142952 -0.03310030
v 0.01108667 0.05212420 -0.03312007
f 6 33 4
f 4 33 13
f 2 12 13
f 13 12 4
f 33 36 13
f 11 12 2
f 16 20 14
f 2 36 3
f 8 9 3
f 8 6 7
f 34 36 33
f 33 6 34
f 34 6 8
f 37 36 2
f 2 13 37
f 37 13 36
f 17 22 16
f 23 7 31
f 31 7 6
f 1 11 2
f 2 3 1
f 1 3 10
f 12 11 26
f 26 11 20
f 15 14 20
f 10 3 15
f 15 3 9
f 35 34 8
f 36 34 35
f 8 3 35
f 35 3 36
f 5 32 22
f 22 31 5
f 4 12 5
f 12 32 5
f 5 6 4
f 5 31 6
f 27 32 12
f 22 32 27
f 28 22 23
f 23 31 28
f 28 31 22
f 20 11 30
f 11 1 30
f 24 15 9
f 23 22 19
f 22 17 19
f 16 22 21
f 22 27 21
f 21 27 12
f 21 20 16
f 21 26 20
f 12 26 21
f 25 15 20
f 20 30 25
f 10 15 25
f 25 1 10
f 25 30 1
f 29 9 8
f 29 24 9
f 8 7 29
f 24 29 18
f 23 19 18
f 18 7 23
f 18 29 7
f 15 24 18
f 16 14 18
f 14 15 18
f 18 17 16
f 18 19 17

