# https://github.com/mikedh/trimesh
v 0.19775065 0.17444711 -0.06717991
v 0.19847699 0.17358724 -0.06504419
v 0.19825738 0.17457443 -0.06414106
v 0.19789788 0.17355996 -0.06529151
v 0.20262617 0.17655351 -0.06493586
v 0.20565530 0.17392331 -0.06611410
v 0.20553802 0.17650416 -0.06633366
v 0.20476998 0.17779899 -0.06814693
v 0.19739127 0.17657531 -0.06582893
v 0.19803852 0.17617309 -0.06447518
v 0.19708334 0.17363017 -0.06613941
v 0.19689177 0.17547219 -0.06681726
v 0.19863399 0.17588956 -0.06437728
v 0.19790025 0.17483493 -0.06407621
v 0.19786375 0.17424128 -0.06456028
v 0.19677014 0.17583526 -0.06621133
v 0.19747077 0.17625164 -0.06498554
v 0.20253936 0.17384516 -0.06495626
v 0.20502564 0.17248496 -0.06749796
v 0.20140865 0.17776321 -0.06770314
v 0.20381833 0.17663675 -0.07049121
v 0.20070415 0.17616688 -0.06943276
v 0.20385202 0.17278596 -0.06982106
v 0.20374969 0.17404704 -0.07074546
v 0.19671429 0.17495909 -0.06646851
v 0.19696760 0.17406213 -0.06533463
v 0.19734230 0.17556386 -0.06439251
v 0.20080582 0.17351524 -0.06930511
v 0.20186545 0.17234915 -0.06671706
v 0.20520059 0.17562739 -0.06721946
v 0.20513245 0.17415891 -0.06741563
f 28 22 24
f 11 28 29
f 24 22 21
f 8 30 21
f 21 30 24
f 22 28 12
f 31 30 6
f 24 30 31
f 6 19 31
f 31 19 24
f 7 5 6
f 8 5 7
f 6 30 7
f 7 30 8
f 23 28 24
f 24 19 23
f 29 28 23
f 23 19 29
f 18 19 6
f 29 19 18
f 6 5 18
f 5 3 18
f 14 3 5
f 29 18 2
f 2 18 3
f 25 12 1
f 1 12 28
f 1 11 25
f 28 11 1
f 8 21 20
f 20 21 22
f 20 5 8
f 10 5 20
f 13 5 10
f 10 14 13
f 13 14 5
f 27 14 10
f 4 11 29
f 29 2 4
f 22 12 9
f 9 20 22
f 10 20 9
f 11 4 26
f 14 27 26
f 25 11 26
f 15 2 3
f 15 4 2
f 3 14 15
f 14 26 15
f 15 26 4
f 17 27 10
f 10 9 17
f 16 12 25
f 16 9 12
f 25 26 16
f 16 26 27
f 27 17 16
f 16 17 9

