# https://github.com/mikedh/trimesh
v -0.06508700 -0.13295609 -0.04085778
v -0.06585623 -0.13377195 -0.04256563
v -0.06557483 -0.13333245 -0.03885221
v -0.06579380 -0.13851182 -0.03879420
v -0.06583995 -0.13896939 -0.04011840
v -0.06463773 -0.13710255 -0.03784838
v -0.06315881 -0.13445427 -0.03934243
v -0.06349548 -0.13535922 -0.03832623
v -0.06314798 -0.13480342 -0.04199548
v -0.06686348 -0.13534207 -0.03773753
v -0.06813263 -0.13727313 -0.03930388
v -0.06790871 -0.13698750 -0.04215715
v -0.06557313 -0.13849169 -0.04206540
v -0.06460086 -0.13699304 -0.04316635
v -0.06689333 -0.13541782 -0.04311098
v -0.07365838 -0.13168120 -0.04132321
v -0.07395148 -0.13189040 -0.04048423
v -0.07310625 -0.13084000 -0.04163040
v -0.07245383 -0.13008837 -0.04084753
v -0.07293143 -0.13006502 -0.04003553
v -0.07289875 -0.13074199 -0.03892495
v -0.07373833 -0.13187299 -0.03933866
v -0.07390605 -0.13239010 -0.04061905
v -0.07347908 -0.13188889 -0.04170508
v -0.07271888 -0.13083262 -0.04197055
v -0.07199343 -0.12987532 -0.04060601
v -0.07257028 -0.13100255 -0.03884771
v -0.07344488 -0.13252005 -0.03976000
v -0.07326285 -0.13241209 -0.04147883
v -0.07127495 -0.13054560 -0.04124823
v -0.07139018 -0.13087085 -0.03935988
v -0.07080935 -0.13087504 -0.03968920
v -0.06473228 -0.13726212 -0.04177540
f 5 11 12
f 33 14 9
f 10 11 4
f 4 6 10
f 4 11 5
f 5 6 4
f 5 12 13
f 13 12 14
f 13 33 5
f 14 33 13
f 23 12 11
f 17 16 23
f 20 21 26
f 22 11 10
f 17 23 22
f 22 20 17
f 21 20 22
f 1 7 9
f 9 7 8
f 8 33 9
f 10 6 8
f 8 6 5
f 5 33 8
f 3 1 26
f 7 1 3
f 3 8 7
f 10 8 3
f 14 12 15
f 2 1 9
f 2 15 25
f 9 14 2
f 14 15 2
f 12 23 29
f 26 25 19
f 19 20 26
f 18 16 17
f 17 20 18
f 18 19 25
f 20 19 18
f 28 23 11
f 11 22 28
f 28 22 23
f 26 21 31
f 21 3 31
f 10 3 27
f 27 3 21
f 27 22 10
f 21 22 27
f 30 25 26
f 30 2 25
f 26 1 30
f 1 2 30
f 24 15 12
f 12 29 24
f 25 15 24
f 16 18 24
f 24 18 25
f 24 23 16
f 24 29 23
f 32 3 26
f 26 31 32
f 32 31 3

