# https://github.com/mikedh/trimesh
v -0.11588846 0.03786966 -0.04056844
v -0.11568603 0.03868128 -0.04290819
v -0.11566532 0.03873968 -0.03898863
v -0.11829159 0.04337931 -0.04056848
v -0.11848988 0.04257001 -0.04290893
v -0.11851317 0.04251058 -0.03898856
v -0.11847047 0.03834348 -0.04251658
v -0.11848354 0.03807068 -0.04016976
v -0.11848599 0.03969448 -0.03836323
v -0.11568961 0.04155464 -0.03836578
v -0.11569656 0.04317828 -0.04016976
v -0.11570324 0.04290178 -0.04251646
v -0.11565754 0.04102756 -0.04357253
v -0.11851957 0.04022046 -0.04357423
v -0.10379602 0.04148753 -0.04047138
v -0.10398809 0.04169181 -0.04154403
v -0.10422119 0.04217731 -0.04107901
v -0.10392611 0.04073178 -0.04212113
v -0.10411872 0.03983923 -0.04189101
v -0.10377861 0.03985336 -0.04027726
v -0.10433166 0.04123821 -0.03983518
v -0.10427487 0.04141178 -0.04227431
v -0.10436234 0.03986906 -0.04233366
v -0.10446190 0.03906281 -0.04093715
v -0.10451529 0.03993786 -0.03953646
v -0.10460944 0.04177156 -0.03984463
v -0.10473034 0.04204376 -0.04162523
v -0.10480967 0.04074178 -0.04251058
v -0.10493554 0.03911541 -0.04160553
v -0.10503749 0.03973646 -0.03964886
v -0.10510464 0.04166811 -0.03972921
v -0.10533571 0.04059771 -0.04255201
v -0.10545409 0.03916226 -0.04038356
v -0.10555881 0.04048793 -0.03940731
v -0.10567727 0.04209396 -0.04030438
v -0.10600533 0.03932323 -0.03995803
v -0.10654612 0.04087188 -0.03936613
v -0.11852672 0.03937748 -0.04169203
v -0.11853234 0.04052246 -0.03947333
v -0.11853629 0.04188736 -0.04024186
v -0.11854919 0.04188803 -0.04168661
v -0.11853234 0.04052246 -0.04244081
f 36 3 1
f 14 23 2
f 41 14 42
f 42 38 41
f 14 38 42
f 41 38 39
f 39 40 41
f 7 38 14
f 14 2 7
f 7 2 1
f 11 4 6
f 9 10 6
f 6 39 9
f 40 39 6
f 41 40 6
f 25 10 9
f 25 24 20
f 9 3 25
f 11 6 26
f 26 10 31
f 26 6 10
f 13 23 14
f 4 12 5
f 5 14 41
f 5 13 14
f 12 13 5
f 41 6 5
f 5 6 4
f 22 13 12
f 33 36 1
f 1 24 33
f 24 25 33
f 29 2 23
f 23 24 29
f 1 2 29
f 29 24 1
f 20 24 19
f 19 24 23
f 38 7 8
f 8 39 38
f 9 39 8
f 8 7 1
f 1 3 8
f 8 3 9
f 10 25 34
f 34 26 31
f 25 26 34
f 20 15 21
f 21 25 20
f 15 26 21
f 21 26 25
f 28 22 23
f 13 22 28
f 17 26 15
f 17 4 11
f 17 12 4
f 36 33 30
f 30 33 25
f 3 36 30
f 30 25 3
f 23 22 18
f 18 19 23
f 18 15 20
f 20 19 18
f 31 10 37
f 37 34 31
f 10 34 37
f 23 13 32
f 32 28 23
f 13 28 32
f 27 22 12
f 12 17 27
f 27 17 22
f 11 26 35
f 35 17 11
f 26 17 35
f 16 17 15
f 15 18 16
f 22 17 16
f 16 18 22

