# https://github.com/mikedh/trimesh
v 0.12211091 -0.00355255 -0.00155522
v 0.12211185 0.01756684 -0.00549816
v 0.12203299 0.02568687 -0.01127086
v 0.12207926 0.03085107 -0.01632956
v 0.12207669 0.03749589 -0.02886811
v 0.12212151 0.03953172 -0.04056371
v 0.12209383 0.03702307 -0.05450377
v 0.12211756 0.02677229 -0.07011014
v 0.12210566 0.01212816 -0.07862524
v 0.12203614 0.00079828 -0.08015352
v 0.12208123 -0.01271754 -0.07832654
v 0.12209738 -0.02536558 -0.07122189
v 0.12210576 -0.03106191 -0.06538911
v 0.12195523 -0.03786096 -0.04939407
v 0.12210658 -0.03929851 -0.04516447
v 0.12205600 -0.03786869 -0.03047729
v 0.12210103 -0.03148598 -0.01717951
v 0.12215487 -0.02493140 -0.01020804
v 0.12199411 -0.01394272 -0.00457384
v 0.12328888 0.00382044 -0.00094299
v 0.12244211 0.01082800 -0.00261067
v 0.12295221 0.02616969 -0.01064919
v 0.12295221 0.03555942 -0.02254682
v 0.12293676 0.03970219 -0.03541027
v 0.12329018 0.03963979 -0.04752009
v 0.12295221 0.02008086 -0.07560074
v 0.12294961 -0.00183460 -0.08113819
v 0.12328888 -0.02007418 -0.07572569
v 0.12328888 -0.03568494 -0.05935358
v 0.12234320 -0.03772786 -0.05339866
v 0.12328755 -0.03988418 -0.03608631
v 0.12249420 -0.03719911 -0.02628959
v 0.12244211 -0.01519287 -0.00412099
v 0.12240771 0.03451947 -0.06076929
v 0.12390788 0.02105285 -0.00692226
v 0.12370773 0.03076209 -0.01528364
v 0.12447301 0.03439197 -0.02145474
v 0.12371266 0.03882277 -0.03103262
v 0.12455786 0.03935231 -0.04115506
v 0.12402568 0.02207368 -0.07428824
v 0.12397071 0.00977993 -0.07985302
v 0.12446944 -0.00418746 -0.08027217
v 0.12362561 -0.01316272 -0.07877511
v 0.12449935 -0.03771048 -0.02932729
v 0.12362818 -0.03379493 -0.01914362
v 0.12371268 -0.00429885 -0.00111654
v 0.12362648 -0.01484017 -0.00368447
v 0.12362650 -0.02473982 -0.00937496
v 0.12362818 -0.03951166 -0.04849086
v 0.12406383 -0.03302328 -0.06334204
v 0.12362650 -0.02774043 -0.06993912
v 0.12362646 0.03026877 -0.06728637
v 0.12400847 0.03658629 -0.05722699
v 0.12362556 0.01316166 -0.00313901
v 0.12453663 0.01155266 -0.00349689
v 0.12452888 0.02428029 -0.01014951
v 0.12459766 0.03378734 -0.06030609
v 0.12452889 0.02703799 -0.06937507
v 0.12460796 0.01056579 -0.07831854
v 0.12454928 -0.02511058 -0.07135811
v 0.12452678 -0.03773753 -0.05207424
v 0.12453708 -0.00139605 -0.00167831
v 0.12452678 -0.01637512 -0.00518634
v 0.12453052 -0.02952193 -0.01479582
v 0.12453626 -0.03912391 -0.04030139
v 0.12461378 -0.01296523 -0.07756216
v 0.12460291 0.03720824 -0.02991749
f 11 12 14
f 59 67 66
f 65 61 66
f 20 62 55
f 55 62 67
f 44 65 64
f 64 65 66
f 66 67 64
f 67 62 64
f 5 7 3
f 67 59 57
f 57 59 58
f 24 5 38
f 38 5 23
f 12 11 28
f 10 11 14
f 14 3 10
f 3 7 10
f 10 8 9
f 7 8 10
f 58 59 40
f 14 12 13
f 49 29 61
f 61 65 49
f 32 17 16
f 56 55 67
f 45 17 32
f 45 32 44
f 44 64 45
f 6 5 24
f 7 5 6
f 4 5 3
f 23 5 4
f 52 57 58
f 58 40 52
f 52 40 8
f 67 57 39
f 39 38 67
f 24 38 39
f 66 28 43
f 43 28 11
f 66 61 60
f 60 28 66
f 27 10 9
f 11 10 27
f 27 43 11
f 41 40 59
f 41 27 9
f 9 8 26
f 8 40 26
f 26 41 9
f 40 41 26
f 29 49 30
f 14 13 30
f 30 13 29
f 31 49 65
f 31 65 44
f 44 32 31
f 32 16 31
f 21 1 20
f 21 2 1
f 18 33 19
f 19 33 1
f 19 17 18
f 14 16 19
f 19 16 17
f 19 3 14
f 19 2 3
f 1 2 19
f 1 33 46
f 46 62 20
f 20 1 46
f 55 56 35
f 23 4 36
f 34 8 7
f 34 52 8
f 25 6 24
f 24 39 25
f 7 6 25
f 61 29 50
f 50 60 61
f 29 13 50
f 27 41 42
f 66 43 42
f 43 27 42
f 42 59 66
f 42 41 59
f 49 31 15
f 14 30 15
f 15 30 49
f 15 16 14
f 15 31 16
f 63 64 62
f 62 46 63
f 55 35 54
f 20 55 54
f 54 21 20
f 2 21 54
f 54 35 2
f 23 36 37
f 67 38 37
f 37 38 23
f 37 56 67
f 37 36 56
f 22 4 3
f 22 36 4
f 3 2 22
f 2 35 22
f 22 35 56
f 56 36 22
f 53 39 57
f 53 25 39
f 57 52 53
f 52 34 53
f 53 34 7
f 7 25 53
f 51 13 12
f 51 50 13
f 60 50 51
f 12 28 51
f 28 60 51
f 47 46 33
f 47 63 46
f 63 47 48
f 64 63 48
f 48 33 18
f 48 47 33
f 48 45 64
f 18 17 48
f 17 45 48

