# https://github.com/mikedh/trimesh
v 0.17463123 0.19276141 -0.03266396
v 0.17507884 0.18611766 -0.03105321
v 0.17357365 0.18154286 -0.03048316
v 0.17464504 0.18461939 -0.02965248
v 0.17383779 0.18928901 -0.03005026
v 0.17398271 0.19353589 -0.03171011
v 0.17253472 0.19614599 -0.03385381
v 0.16582060 0.18572389 -0.05368979
v 0.16558504 0.17699844 -0.05099796
v 0.16653417 0.17792301 -0.05183178
v 0.16703767 0.17486594 -0.04890986
v 0.17505054 0.18935514 -0.03024314
v 0.17302010 0.19210847 -0.03186858
v 0.17088597 0.19742273 -0.03670931
v 0.16859712 0.17284534 -0.04459416
v 0.16983408 0.17323979 -0.03957746
v 0.16694515 0.17403308 -0.04664626
v 0.17421887 0.17792306 -0.03350991
v 0.16456043 0.18122809 -0.05338499
v 0.16448644 0.18035447 -0.05216241
v 0.16936272 0.19903999 -0.04077479
v 0.17124469 0.19895634 -0.03844314
v 0.17030239 0.19915106 -0.04267048
v 0.17159325 0.17608271 -0.03487058
v 0.16840568 0.19912269 -0.04463971
v 0.16655042 0.19751824 -0.04752366
v 0.16534159 0.18210181 -0.05400946
v 0.16410580 0.18614731 -0.05418389
v 0.16520257 0.18945724 -0.05423637
v 0.17317432 0.19699316 -0.03522091
v 0.17514882 0.18231666 -0.03056886
v 0.16498692 0.19362959 -0.05102741
v 0.17244592 0.17412099 -0.03756601
v 0.16783985 0.19763129 -0.04812451
v 0.16622045 0.19266812 -0.05265562
v 0.16794832 0.19606736 -0.04843419
v 0.17360112 0.17755034 -0.03231426
v 0.16450907 0.19157288 -0.05292976
v 0.16858109 0.17405151 -0.04693734
v 0.17056057 0.17282641 -0.03964541
v 0.17232772 0.17449381 -0.03570991
v 0.16602283 0.19532154 -0.05106211
v 0.17002245 0.17284181 -0.04282879
f 12 4 31
f 31 37 18
f 30 1 23
f 8 35 1
f 1 18 8
f 10 27 8
f 31 4 3
f 3 37 31
f 2 12 31
f 1 12 2
f 31 18 2
f 2 18 1
f 4 12 5
f 5 3 4
f 41 18 37
f 22 30 23
f 14 22 21
f 21 22 23
f 36 34 23
f 35 34 36
f 23 1 36
f 1 35 36
f 10 8 39
f 39 8 18
f 29 27 28
f 29 8 27
f 35 8 29
f 19 27 10
f 28 27 19
f 19 20 28
f 37 3 24
f 16 41 24
f 24 41 37
f 24 17 16
f 24 20 17
f 14 20 24
f 24 3 14
f 14 3 13
f 3 5 13
f 38 29 28
f 35 29 38
f 32 20 14
f 28 20 32
f 32 38 28
f 18 41 33
f 33 39 18
f 10 39 11
f 14 13 7
f 7 22 14
f 30 22 7
f 7 13 5
f 14 21 26
f 26 32 14
f 39 33 43
f 20 19 9
f 17 20 9
f 9 11 17
f 9 19 10
f 10 11 9
f 6 5 12
f 6 7 5
f 6 12 1
f 1 30 6
f 30 7 6
f 42 26 34
f 32 26 42
f 42 34 35
f 35 38 42
f 38 32 42
f 23 34 25
f 34 26 25
f 25 21 23
f 25 26 21
f 40 43 33
f 40 41 16
f 40 33 41
f 39 43 15
f 17 11 15
f 15 11 39
f 43 40 15
f 16 17 15
f 15 40 16

