# https://github.com/mikedh/trimesh
v 0.16189143 0.18270724 0.13198999
v 0.14617431 0.18441604 0.13887664
v 0.14558358 0.18155061 0.13748731
v 0.16966041 0.18477332 0.12516986
v 0.16890821 0.18847536 0.12311544
v 0.14349093 0.19217261 0.13234984
v 0.14451668 0.19191779 0.13482794
v 0.15984571 0.19244331 0.12705726
v 0.16794518 0.18793801 0.12143951
v 0.16958021 0.18719844 0.12518089
v 0.16807750 0.18326817 0.12247104
v 0.16745628 0.18544784 0.12070086
v 0.16904788 0.18368659 0.12507774
v 0.16888103 0.18360343 0.12317542
v 0.16812458 0.18558157 0.12111319
v 0.16942364 0.18565118 0.12616784
v 0.15972159 0.17955271 0.12698711
v 0.14443424 0.17944699 0.13310924
v 0.14591585 0.18866182 0.13843366
v 0.14701706 0.18586957 0.13934474
v 0.16733156 0.18856576 0.12200866
v 0.16848715 0.18887811 0.12441104
v 0.16669506 0.18485576 0.12107764
v 0.14177734 0.18742758 0.12789474
v 0.15769275 0.18930503 0.12183951
v 0.15723044 0.18596326 0.12096694
v 0.16674300 0.18694827 0.12098207
v 0.16919043 0.18746233 0.12584792
v 0.14220433 0.18999994 0.12893856
v 0.14164296 0.18445866 0.12803654
v 0.14337286 0.18018924 0.13210686
v 0.15853636 0.18053664 0.12389877
v 0.14276856 0.18076492 0.13008941
v 0.16107083 0.19146492 0.13023334
v 0.14546126 0.19138592 0.13657321
v 0.16218968 0.18606369 0.13294561
f 30 26 32
f 24 26 30
f 30 6 29
f 29 24 30
f 1 36 20
f 25 6 8
f 25 29 6
f 26 24 25
f 24 29 25
f 30 32 33
f 33 32 18
f 8 6 7
f 7 35 8
f 20 36 19
f 35 7 19
f 19 6 30
f 19 7 6
f 16 28 36
f 36 1 16
f 10 16 4
f 28 16 10
f 28 10 22
f 3 19 30
f 18 32 17
f 17 3 18
f 1 3 17
f 21 25 8
f 9 25 21
f 34 19 36
f 35 19 34
f 36 28 34
f 8 35 34
f 28 22 34
f 34 22 8
f 20 19 2
f 19 3 2
f 2 1 20
f 2 3 1
f 31 33 18
f 18 3 31
f 30 33 31
f 31 3 30
f 1 17 13
f 4 16 13
f 13 16 1
f 9 21 5
f 8 22 5
f 5 21 8
f 5 22 10
f 5 10 4
f 26 25 27
f 27 25 9
f 11 17 32
f 14 13 17
f 17 11 14
f 4 13 14
f 12 32 26
f 26 27 12
f 12 27 9
f 23 11 32
f 32 12 23
f 23 12 11
f 15 12 9
f 9 5 15
f 15 14 11
f 11 12 15
f 15 5 4
f 4 14 15

