# https://github.com/mikedh/trimesh
v -0.18736659 -0.07167941 0.11749556
v -0.18028979 -0.07050989 0.12033989
v -0.18411618 -0.06627919 0.11321591
v -0.18458578 -0.08448954 0.12417536
v -0.18074374 -0.08248004 0.12592434
v -0.18709653 -0.07848391 0.12162271
v -0.04009078 -0.06450394 0.09204255
v -0.03845703 -0.06040300 0.06306161
v -0.04237441 -0.06249434 0.09166615
v -0.17623734 -0.08218236 0.12691496
v -0.17827546 -0.07562391 0.12430279
v -0.06037141 -0.08044177 0.13397627
v -0.05355364 -0.09700184 0.12683562
v -0.05205867 -0.14750457 0.12304670
v -0.05688069 -0.14412077 0.12922095
v -0.05621994 -0.14928927 0.12454164
v -0.05560186 -0.06640702 0.12325122
v -0.05749709 -0.06982872 0.12757085
v -0.05390139 -0.07232887 0.12686312
v -0.06387102 -0.12598691 0.13501062
v -0.19228136 -0.06231326 0.06216793
v -0.04044837 -0.14972257 0.09692455
v -0.03711699 -0.14514852 0.08629190
v -0.04594799 -0.13616137 0.11192487
v -0.18558307 -0.14309951 0.12005806
v -0.18461472 -0.13812001 0.12321999
v -0.19259904 -0.14178348 0.11387471
v -0.05342641 -0.06327797 0.11588837
v -0.18111639 -0.06300236 0.10724469
v -0.18020906 -0.06504479 0.11338928
v -0.08016477 -0.12601649 0.13424917
v -0.03625266 -0.06558490 0.07962795
v -0.03935451 -0.07329152 0.09376337
v -0.03355061 -0.06994897 0.06356335
v -0.05753556 -0.08436432 0.13311879
v -0.05768419 -0.07577625 0.13137280
v -0.05980416 -0.07386204 0.13102622
v -0.05540434 -0.14046847 0.12974135
v -0.20786945 -0.07334931 0.06321636
v -0.20300550 -0.07687693 0.08662734
v -0.19401424 -0.07526873 0.11124824
v -0.04761146 -0.14851508 0.11515807
v -0.04938047 -0.15156270 0.11521310
v -0.04073113 -0.06807842 0.09828030
v -0.08044451 -0.09066244 0.13423435
v -0.08016481 -0.10042587 0.13424892
v -0.08016479 -0.09255184 0.13424837
v -0.04785834 -0.08291895 0.11627102
v -0.05161874 -0.12576424 0.12339662
v -0.05485982 -0.11145880 0.12902862
v -0.03866783 -0.06118875 0.06216508
v -0.03487096 -0.06458207 0.06216337
v -0.06377952 -0.12399409 0.13501787
v -0.05170366 -0.06817052 0.12192562
v -0.04846536 -0.06505357 0.11355492
v -0.05150199 -0.06443942 0.11720019
v -0.06120729 -0.13669512 0.13397829
v -0.06120019 -0.13132489 0.13490814
v -0.09988334 -0.12894584 0.13316877
v -0.18553875 -0.13361239 0.12355794
v -0.19003546 -0.13625847 0.11954854
v -0.09988334 -0.08759064 0.13316877
v -0.06125164 -0.08468255 0.13490312
v -0.17514502 -0.08682034 0.12750784
v -0.19262321 -0.15579941 0.06242946
v -0.18093859 -0.15355131 0.10730232
v -0.20096335 -0.15260946 0.06316426
v -0.19223546 -0.06062458 0.06246163
v -0.20778436 -0.14331918 0.06308047
v -0.20716125 -0.07338006 0.06216384
v -0.20670562 -0.14418036 0.06216513
v -0.03426419 -0.15242338 0.06309039
v -0.03655781 -0.15068292 0.08135955
v -0.04176177 -0.15395272 0.09063190
v -0.20086705 -0.06385623 0.06315169
v -0.06372114 -0.09243272 0.13501879
v -0.06387104 -0.09054957 0.13501057
v -0.18752808 -0.06642986 0.10987881
v -0.03849519 -0.15614217 0.06310323
v -0.03492416 -0.15199080 0.06216244
v -0.03471543 -0.07093445 0.06215913
v -0.06377887 -0.12206984 0.13501912
v -0.20093317 -0.15155275 0.06216604
v -0.17738829 -0.13495376 0.12657064
v -0.17463654 -0.13054418 0.12754804
v -0.19034661 -0.08193661 0.11946639
v -0.03425641 -0.14586732 0.06223040
v -0.18309171 -0.07513811 0.12245694
v -0.20032908 -0.06456758 0.06216625
v -0.05834359 -0.13239762 0.13368935
v -0.03423656 -0.06411225 0.06315145
v -0.17881054 -0.15222216 0.11196559
v -0.05371142 -0.15306137 0.11689777
v -0.05358264 -0.15141537 0.12019737
v -0.19922973 -0.06516119 0.06216582
v -0.08016479 -0.09445709 0.13424862
v -0.20297568 -0.13955653 0.08689434
v -0.17976970 -0.13138184 0.12646334
v -0.19342022 -0.15407516 0.06216799
v -0.18102989 -0.14884558 0.11721449
v -0.05918607 -0.14544720 0.12904390
v -0.17956127 -0.14414899 0.12210421
v -0.19187631 -0.07057896 0.11013846
v -0.18609772 -0.15090769 0.11014429
v -0.04797681 -0.06826054 0.11605760
v -0.05998689 -0.13946649 0.13271684
v -0.19443631 -0.08024596 0.11323916
v -0.19168146 -0.07476646 0.11512811
v -0.19497176 -0.13668847 0.11194996
v -0.06377974 -0.09840339 0.13501807
v -0.06356186 -0.11624877 0.13502457
v -0.18819486 -0.14653348 0.11480901
v -0.19216356 -0.14548099 0.11032094
v -0.17767457 -0.14115134 0.12426719
v -0.03882134 -0.15545179 0.06216687
f 34 23 72
f 72 87 34
f 69 97 39
f 51 68 8
f 8 52 51
f 30 28 29
f 68 75 29
f 29 8 68
f 28 8 29
f 113 67 104
f 113 69 67
f 97 69 113
f 39 97 40
f 97 109 40
f 34 87 81
f 81 52 34
f 51 52 81
f 64 62 10
f 17 28 30
f 10 62 12
f 9 8 28
f 9 7 8
f 9 55 7
f 34 52 91
f 52 8 91
f 8 7 91
f 32 23 34
f 32 33 23
f 34 91 32
f 32 91 7
f 58 59 57
f 84 57 59
f 27 109 97
f 97 113 27
f 107 40 109
f 103 75 39
f 39 40 103
f 39 75 70
f 70 69 39
f 80 81 87
f 87 72 80
f 37 2 11
f 10 12 11
f 11 12 37
f 30 2 18
f 18 17 30
f 18 2 37
f 54 17 18
f 63 12 62
f 111 58 63
f 28 17 56
f 56 9 28
f 55 9 56
f 56 17 54
f 54 55 56
f 7 55 44
f 33 32 44
f 44 32 7
f 23 33 44
f 44 22 23
f 73 72 23
f 23 22 73
f 16 93 94
f 94 93 43
f 104 67 66
f 79 93 66
f 16 100 92
f 92 93 16
f 92 66 93
f 92 100 104
f 104 66 92
f 54 18 19
f 62 64 85
f 85 59 62
f 85 64 98
f 98 84 85
f 85 84 59
f 112 27 113
f 104 100 112
f 112 113 104
f 78 29 75
f 75 103 78
f 40 107 41
f 41 103 40
f 89 75 68
f 89 70 75
f 69 70 71
f 67 69 71
f 71 83 67
f 71 70 81
f 81 80 71
f 71 80 83
f 115 72 79
f 115 80 72
f 10 11 5
f 98 64 5
f 5 64 10
f 105 55 54
f 105 44 55
f 48 44 105
f 54 19 105
f 105 19 48
f 79 72 74
f 72 73 74
f 74 93 79
f 43 93 74
f 74 22 43
f 74 73 22
f 48 19 13
f 13 49 48
f 50 49 13
f 12 63 35
f 50 13 35
f 35 13 19
f 58 57 90
f 57 106 90
f 90 63 58
f 90 35 63
f 101 100 16
f 43 22 42
f 48 49 42
f 31 59 58
f 58 20 31
f 26 84 98
f 30 29 3
f 29 78 3
f 3 2 30
f 21 68 51
f 51 89 21
f 21 89 68
f 81 70 95
f 70 89 95
f 51 81 95
f 95 89 51
f 83 80 99
f 80 115 99
f 88 11 2
f 88 5 11
f 88 6 5
f 103 41 108
f 86 6 108
f 108 107 86
f 108 41 107
f 45 63 62
f 45 77 63
f 62 59 45
f 59 31 45
f 111 63 76
f 63 77 76
f 77 45 76
f 12 35 36
f 36 35 19
f 37 12 36
f 36 18 37
f 36 19 18
f 22 44 24
f 24 42 22
f 24 44 48
f 48 42 24
f 14 94 43
f 43 42 14
f 16 94 14
f 27 112 25
f 25 112 100
f 109 27 61
f 27 25 61
f 61 25 26
f 61 107 109
f 86 107 61
f 4 6 86
f 5 6 4
f 98 5 4
f 65 115 79
f 65 99 115
f 79 66 65
f 65 66 67
f 67 83 65
f 83 99 65
f 1 78 103
f 103 108 1
f 1 3 78
f 2 3 1
f 1 88 2
f 6 88 1
f 1 108 6
f 38 90 106
f 38 49 50
f 38 42 49
f 38 14 42
f 50 35 38
f 35 90 38
f 102 25 100
f 100 101 102
f 26 25 102
f 60 61 26
f 60 26 98
f 98 4 60
f 86 61 60
f 60 4 86
f 53 31 20
f 53 82 31
f 53 20 58
f 53 58 111
f 111 82 53
f 111 76 110
f 110 82 111
f 106 101 15
f 15 38 106
f 14 38 15
f 15 101 16
f 16 14 15
f 84 26 114
f 26 102 114
f 57 84 114
f 114 106 57
f 114 101 106
f 114 102 101
f 47 76 45
f 47 110 76
f 46 45 31
f 31 82 46
f 82 110 46
f 96 47 45
f 45 46 96
f 110 47 96
f 96 46 110

