# https://github.com/mikedh/trimesh
v 0.16618253 -0.21637249 0.05497193
v 0.15331983 -0.21458058 0.05529106
v 0.15605981 -0.21563434 0.05490954
v 0.15596201 -0.21561875 0.05583990
v 0.15573219 -0.21438727 0.05643326
v 0.15607248 -0.21353731 0.05587126
v 0.15619423 -0.21441490 0.05653306
v 0.15636775 -0.21572823 0.05594433
v 0.15649746 -0.21563513 0.05429669
v 0.15652598 -0.21476145 0.05381086
v 0.15589641 -0.21368720 0.05459206
v 0.15574764 -0.21473059 0.05417361
v 0.16617954 -0.21732161 0.05623455
v 0.16618386 -0.21657941 0.05333546
v 0.16617931 -0.21366761 0.05256806
v 0.16616528 -0.21192863 0.05496435
v 0.16615858 -0.21363501 0.05819113
v 0.15699086 -0.21476392 0.05666487
v 0.15692681 -0.21337974 0.05623703
v 0.15673566 -0.21327708 0.05451482
v 0.16618253 -0.21492445 0.05708463
v 0.16618253 -0.21281175 0.05563667
v 0.15741176 -0.21582188 0.05442242
v 0.15726614 -0.21591470 0.05607047
f 19 17 16
f 18 13 17
f 16 17 22
f 22 15 16
f 14 15 22
f 16 15 20
f 20 19 16
f 17 19 5
f 5 19 2
f 13 18 24
f 14 22 21
f 17 13 21
f 21 22 17
f 2 19 6
f 6 20 2
f 19 20 6
f 9 3 2
f 2 20 11
f 10 20 15
f 10 15 14
f 10 11 20
f 14 9 10
f 2 11 10
f 7 18 17
f 17 5 7
f 7 5 18
f 2 3 4
f 4 5 2
f 1 13 14
f 14 21 1
f 1 21 13
f 14 13 23
f 23 9 14
f 3 9 23
f 13 24 23
f 23 24 3
f 12 9 2
f 2 10 12
f 12 10 9
f 3 24 8
f 8 4 3
f 8 24 18
f 18 5 8
f 5 4 8

