# https://github.com/mikedh/trimesh
v -0.11588847 0.01859803 -0.00796623
v -0.11568604 0.02103008 -0.00843320
v -0.11566532 0.01766485 -0.00642281
v -0.11831049 0.01872946 -0.00341713
v -0.11851437 0.02084301 -0.00309358
v -0.11851857 0.01774474 -0.00507061
v -0.11848877 0.01972485 -0.00837668
v -0.11846685 0.01803102 -0.00721054
v -0.11565755 0.01824848 -0.00411798
v -0.11572719 0.02003410 -0.00302628
v -0.11568555 0.02226847 -0.00396643
v -0.11848989 0.02297506 -0.00506576
v -0.11568962 0.02302120 -0.00626486
v -0.11848599 0.02209331 -0.00787714
v -0.10379602 0.02032285 -0.00478453
v -0.10398809 0.02135393 -0.00514388
v -0.10422119 0.02119398 -0.00449096
v -0.10392611 0.02137373 -0.00626390
v -0.10411747 0.02072583 -0.00692341
v -0.10377862 0.01933765 -0.00610268
v -0.10432640 0.01964678 -0.00467743
v -0.10427487 0.02184639 -0.00575158
v -0.10436192 0.02112644 -0.00712208
v -0.10446190 0.01951389 -0.00711731
v -0.10451529 0.01873839 -0.00565913
v -0.10461300 0.01955849 -0.00444283
v -0.10470339 0.02093340 -0.00432993
v -0.10477679 0.02186843 -0.00565453
v -0.10493812 0.01974571 -0.00723086
v -0.10504061 0.01873644 -0.00588353
v -0.10510464 0.01977041 -0.00425708
v -0.10519412 0.02155040 -0.00482538
v -0.10533727 0.02168111 -0.00659628
v -0.10538437 0.02036281 -0.00729881
v -0.10545409 0.01908418 -0.00675436
v -0.10554632 0.01888008 -0.00519731
v -0.11854500 0.01913926 -0.00666553
v -0.11852951 0.01906535 -0.00495726
v -0.11853480 0.02158635 -0.00507199
v -0.11855291 0.02154415 -0.00653648
f 39 12 40
f 3 6 8
f 8 1 3
f 18 23 22
f 29 1 2
f 22 23 33
f 5 11 12
f 12 39 5
f 5 39 40
f 12 11 28
f 25 6 3
f 25 9 6
f 37 8 6
f 2 1 7
f 1 8 7
f 8 37 7
f 7 37 40
f 19 18 20
f 23 18 19
f 2 23 34
f 34 29 2
f 23 29 34
f 3 1 35
f 14 23 2
f 14 33 23
f 40 12 14
f 14 7 40
f 2 7 14
f 10 5 4
f 4 31 10
f 6 9 4
f 4 5 6
f 21 25 20
f 31 4 26
f 26 4 9
f 25 21 26
f 6 5 38
f 38 37 6
f 38 5 40
f 40 37 38
f 1 29 24
f 24 35 1
f 25 35 24
f 24 29 23
f 23 19 24
f 24 19 20
f 20 25 24
f 30 25 3
f 3 35 30
f 30 35 25
f 13 14 12
f 33 14 13
f 22 33 13
f 13 28 22
f 12 28 13
f 32 28 11
f 11 17 32
f 22 28 32
f 32 17 22
f 10 31 27
f 27 5 10
f 31 26 27
f 27 26 17
f 11 5 27
f 27 17 11
f 16 18 22
f 22 17 16
f 9 25 36
f 36 26 9
f 25 26 36
f 17 26 15
f 15 26 21
f 15 21 20
f 15 16 17
f 20 18 15
f 18 16 15

