# https://github.com/mikedh/trimesh
v 0.16275455 0.17446344 -0.04950229
v 0.16222552 0.17344861 -0.05105946
v 0.16211519 0.17630751 -0.05180902
v 0.16148902 0.17583798 -0.05195478
v 0.16198339 0.17661479 -0.05094901
v 0.16264125 0.17595827 -0.04960039
v 0.15718422 0.17497766 -0.05173667
v 0.15474447 0.17277206 -0.04933521
v 0.15425365 0.17486376 -0.05043249
v 0.15612252 0.17351216 -0.04588971
v 0.15853900 0.17247106 -0.04844326
v 0.15924364 0.17390361 -0.04690371
v 0.15544337 0.17781409 -0.04760264
v 0.15927515 0.17614551 -0.04691986
v 0.15856827 0.17761741 -0.04852678
v 0.15771958 0.17741579 -0.05049159
v 0.15450975 0.17686336 -0.04980979
v 0.16181049 0.17486651 -0.05232779
v 0.16232942 0.17564988 -0.05208453
v 0.16227132 0.17429146 -0.05184682
v 0.16277075 0.17643216 -0.05056778
v 0.16327742 0.17555493 -0.05030054
v 0.16138897 0.17427591 -0.05197771
v 0.15772352 0.17282281 -0.05056098
v 0.16290407 0.17372546 -0.05032218
v 0.15630807 0.17593519 -0.04554811
v 0.15580394 0.17467442 -0.04662779
v 0.15549359 0.17245707 -0.04751474
v 0.15527437 0.17648566 -0.04787424
v 0.15475930 0.17451592 -0.04910769
v 0.15476270 0.17574774 -0.04908304
v 0.15523704 0.17365359 -0.04795079
v 0.16290692 0.17404053 -0.05122844
f 13 16 17
f 15 16 13
f 13 14 15
f 26 14 13
f 14 26 12
f 8 24 28
f 28 32 8
f 31 17 9
f 16 15 5
f 21 5 15
f 9 17 7
f 7 17 16
f 7 8 9
f 24 8 7
f 2 24 23
f 24 7 23
f 23 7 18
f 10 32 28
f 10 12 26
f 28 24 11
f 11 24 2
f 11 10 28
f 12 10 11
f 30 31 9
f 32 31 30
f 9 8 30
f 30 8 32
f 22 21 6
f 6 15 14
f 6 21 15
f 5 21 3
f 16 5 3
f 3 7 16
f 2 23 20
f 20 23 18
f 20 33 2
f 22 6 1
f 14 12 1
f 1 6 14
f 32 10 27
f 27 10 26
f 19 20 18
f 33 20 19
f 22 33 19
f 19 21 22
f 19 3 21
f 18 7 4
f 7 3 4
f 4 19 18
f 3 19 4
f 29 26 13
f 29 27 26
f 13 17 29
f 17 31 29
f 29 31 32
f 32 27 29
f 25 1 12
f 12 11 25
f 25 11 2
f 2 33 25
f 25 33 22
f 22 1 25

