# https://github.com/mikedh/trimesh
v -0.04587710 -0.13560985 -0.04799715
v -0.04189425 -0.13436770 -0.04439770
v -0.04461765 -0.13716875 -0.04304483
v -0.04854858 -0.12394327 -0.02426688
v -0.04695785 -0.11745414 -0.02591662
v -0.05333153 -0.12065820 -0.02198070
v -0.05773610 -0.13686134 -0.05233095
v -0.06018597 -0.12936028 -0.05827548
v -0.05378488 -0.13128967 -0.05638170
v -0.04284148 -0.13159967 -0.04873678
v -0.03974155 -0.13013905 -0.04485807
v -0.04767585 -0.10575015 -0.03942313
v -0.04769108 -0.10579817 -0.04131931
v -0.05013817 -0.10371994 -0.04151665
v -0.07172938 -0.13697547 -0.03916893
v -0.06881068 -0.13834846 -0.03963228
v -0.06460380 -0.13984670 -0.03760943
v -0.05938236 -0.13964142 -0.03348845
v -0.05205655 -0.13972295 -0.03598365
v -0.05299341 -0.13760679 -0.03075810
v -0.05533306 -0.11736382 -0.02179775
v -0.05349793 -0.11420370 -0.02326625
v -0.04663568 -0.10746182 -0.04554110
v -0.04302323 -0.11450573 -0.04896238
v -0.04823173 -0.11033589 -0.05211980
v -0.06408230 -0.12516537 -0.02260613
v -0.06158800 -0.12666117 -0.02180305
v -0.05806925 -0.12155962 -0.02097713
v -0.05721100 -0.12676552 -0.02188395
v -0.04150665 -0.12064237 -0.04958082
v -0.04728575 -0.11605657 -0.05481163
v -0.06240218 -0.13333837 -0.02532475
v -0.05579241 -0.13433960 -0.02631560
v -0.05776668 -0.11546150 -0.02247888
v -0.04357145 -0.12510299 -0.02853110
v -0.04170663 -0.12865379 -0.03186613
v -0.04071468 -0.12158882 -0.03240553
v -0.06912453 -0.13298302 -0.02753216
v -0.07089673 -0.13569805 -0.03294391
v -0.06580743 -0.13724549 -0.03123578
v -0.05864300 -0.14044147 -0.03711653
v -0.04409850 -0.11292915 -0.03173283
v -0.06982595 -0.13403910 -0.05164668
v -0.06717322 -0.12998811 -0.05668788
v -0.06479073 -0.13491722 -0.05343643
v -0.05607405 -0.11820412 -0.02149540
v -0.05146745 -0.10578590 -0.05014376
v -0.05519040 -0.11153975 -0.05737520
v -0.05280055 -0.11346829 -0.02386350
v -0.05381965 -0.14044662 -0.04241696
v -0.05703548 -0.14048570 -0.04366335
v -0.04052045 -0.11663465 -0.04340115
v -0.03954108 -0.11899889 -0.04211662
v -0.03939395 -0.11947845 -0.03926195
v -0.04064390 -0.11634355 -0.03741448
v -0.04422308 -0.10974992 -0.03762305
v -0.06644175 -0.12881676 -0.02480540
v -0.06408938 -0.13054407 -0.02391288
v -0.05974375 -0.12454240 -0.05954718
v -0.05707803 -0.12382367 -0.05957433
v -0.06041265 -0.11954337 -0.02080053
v -0.05873263 -0.11696812 -0.02172138
v -0.05623986 -0.11311219 -0.02363663
v -0.04343543 -0.11083083 -0.04371770
v -0.05090445 -0.10490212 -0.03315565
v -0.04797310 -0.11014065 -0.02925353
v -0.04718838 -0.10734480 -0.03452558
v -0.05427755 -0.13968732 -0.04641573
v -0.04971295 -0.13798215 -0.04757258
v -0.06234993 -0.13862989 -0.04897605
v -0.07091420 -0.13575190 -0.04804903
v -0.06917158 -0.13302989 -0.03019790
v -0.05544978 -0.11190769 -0.05571553
v -0.06864261 -0.13833600 -0.04111426
v -0.04005770 -0.13418828 -0.04047913
v -0.03990123 -0.11973092 -0.03539070
v -0.06070401 -0.13572875 -0.02743653
v -0.04234188 -0.11277828 -0.03702378
v -0.05910805 -0.11753680 -0.06006665
v -0.05318402 -0.11898749 -0.05872260
v -0.05054370 -0.13303534 -0.02700386
v -0.05301028 -0.12853348 -0.02350986
v -0.04765885 -0.12188222 -0.05616661
v -0.05281971 -0.14035609 -0.04096650
v -0.04272200 -0.12657974 -0.05108235
v -0.03883993 -0.12860332 -0.03817600
v -0.03992338 -0.13159320 -0.03707665
v -0.06232670 -0.14022915 -0.04383188
v -0.06754873 -0.13841534 -0.04511598
v -0.05886738 -0.11715007 -0.05455838
v -0.04864785 -0.13940725 -0.04108068
v -0.05368166 -0.14041354 -0.03853361
v -0.04586530 -0.13222132 -0.02931215
v -0.05607282 -0.12148184 -0.05958672
v -0.05223525 -0.12642767 -0.05782516
v -0.06340723 -0.12979657 -0.02334333
v -0.04332473 -0.13642222 -0.03866853
v -0.04249135 -0.13394725 -0.03481042
v -0.04789583 -0.13755162 -0.03394490
v -0.05512720 -0.11140450 -0.02391170
v -0.03851425 -0.12487202 -0.04196715
v -0.03985515 -0.12087869 -0.04589893
v -0.04619480 -0.12871625 -0.05382350
v -0.04999905 -0.13525518 -0.05170536
v -0.05338268 -0.10875907 -0.02617566
v -0.06308251 -0.12368032 -0.02196565
v -0.05884816 -0.12245073 -0.02096378
v -0.06271583 -0.12308895 -0.06004090
v -0.06570008 -0.12767417 -0.02340965
v -0.06082010 -0.12581239 -0.02153520
f 42 78 56
f 54 76 101
f 31 48 25
f 39 72 15
f 39 40 38
f 77 18 20
f 40 18 77
f 38 40 77
f 20 18 19
f 76 54 55
f 55 78 42
f 42 76 55
f 103 95 83
f 8 60 95
f 14 73 90
f 108 43 90
f 47 73 14
f 48 73 47
f 47 25 48
f 31 25 24
f 42 56 67
f 92 19 41
f 41 19 18
f 38 109 57
f 57 39 38
f 72 39 57
f 27 109 96
f 27 106 109
f 27 110 61
f 61 106 27
f 58 109 38
f 96 109 58
f 91 19 92
f 1 2 3
f 37 76 42
f 79 60 108
f 108 90 79
f 79 73 48
f 79 90 73
f 80 83 95
f 80 79 48
f 80 48 31
f 31 83 80
f 44 43 108
f 108 8 44
f 108 60 59
f 59 8 108
f 60 8 59
f 69 1 3
f 3 91 69
f 69 91 68
f 78 55 52
f 15 43 71
f 71 89 15
f 88 89 70
f 70 71 43
f 89 71 70
f 92 41 51
f 51 41 88
f 88 70 51
f 51 70 68
f 12 67 56
f 12 13 14
f 14 65 12
f 65 67 12
f 15 72 26
f 72 57 26
f 26 43 15
f 26 90 43
f 26 57 109
f 61 34 26
f 14 90 26
f 26 106 61
f 109 106 26
f 34 63 26
f 26 65 14
f 26 63 65
f 96 58 32
f 38 77 32
f 32 58 38
f 30 83 31
f 31 24 30
f 2 1 10
f 10 11 2
f 5 37 42
f 35 37 5
f 5 4 35
f 110 27 29
f 29 27 96
f 96 32 29
f 3 2 75
f 2 11 75
f 75 11 101
f 36 37 35
f 95 60 94
f 94 80 95
f 60 79 94
f 79 80 94
f 64 56 78
f 78 52 64
f 64 52 24
f 64 12 56
f 13 12 64
f 53 55 54
f 53 52 55
f 53 54 101
f 74 89 88
f 15 89 74
f 74 16 15
f 88 41 17
f 17 74 88
f 16 74 17
f 17 41 18
f 17 18 40
f 40 39 17
f 17 39 15
f 15 16 17
f 43 44 45
f 45 70 43
f 45 44 8
f 7 69 68
f 68 70 7
f 70 45 7
f 7 45 8
f 92 51 50
f 68 91 50
f 50 51 68
f 24 52 102
f 102 30 24
f 52 53 102
f 102 53 101
f 101 11 102
f 11 30 102
f 85 30 11
f 11 10 85
f 85 10 103
f 103 83 85
f 83 30 85
f 66 5 42
f 66 65 105
f 42 67 66
f 66 67 65
f 61 110 107
f 110 29 107
f 97 91 3
f 3 75 97
f 97 75 98
f 98 75 87
f 87 36 98
f 13 64 23
f 23 47 14
f 14 13 23
f 25 47 23
f 23 24 25
f 23 64 24
f 1 69 104
f 69 7 104
f 103 10 104
f 104 10 1
f 84 91 92
f 92 50 84
f 84 50 91
f 100 63 34
f 100 34 61
f 105 65 100
f 65 63 100
f 49 22 5
f 49 66 105
f 5 66 49
f 105 100 49
f 49 100 22
f 4 5 6
f 5 22 6
f 4 6 82
f 82 6 29
f 35 4 93
f 93 36 35
f 4 82 93
f 93 82 81
f 98 36 93
f 99 97 98
f 98 93 99
f 20 19 99
f 99 81 20
f 99 93 81
f 19 91 99
f 91 97 99
f 86 75 101
f 86 87 75
f 101 76 86
f 76 37 86
f 37 36 86
f 36 87 86
f 9 7 8
f 9 104 7
f 9 8 95
f 9 95 103
f 103 104 9
f 22 100 21
f 21 6 22
f 28 107 29
f 29 6 28
f 61 107 28
f 81 82 33
f 33 32 77
f 33 29 32
f 33 82 29
f 33 77 20
f 20 81 33
f 62 100 61
f 61 21 62
f 62 21 100
f 6 21 46
f 46 28 6
f 46 21 61
f 61 28 46

