# https://github.com/mikedh/trimesh
v 0.16585955 -0.17555738 0.13008404
v 0.16565028 -0.17386498 0.12974559
v 0.16489228 -0.17507076 0.12713521
v 0.16543338 -0.17441299 0.12751986
v 0.16220753 -0.17722978 0.13176209
v 0.15917563 -0.17729201 0.13293872
v 0.15873548 -0.17786317 0.13135174
v 0.16132549 -0.17771226 0.12959296
v 0.16539940 -0.17670677 0.12869026
v 0.16629643 -0.17434314 0.12993426
v 0.16652140 -0.17566081 0.12939586
v 0.16634898 -0.17435146 0.12938012
v 0.16121325 -0.17260576 0.12930254
v 0.15897718 -0.17232846 0.13184046
v 0.16221960 -0.17275779 0.13178566
v 0.16545748 -0.17357124 0.12823351
v 0.16583865 -0.17382644 0.12825964
v 0.16549578 -0.17636739 0.12754711
v 0.16475638 -0.17381198 0.12791052
v 0.16613358 -0.17628176 0.12854177
v 0.16592770 -0.17555599 0.12750901
v 0.15902276 -0.17430854 0.13264244
v 0.16263885 -0.17545781 0.13272719
v 0.15953663 -0.17372889 0.13369401
v 0.15955903 -0.17569289 0.13387576
v 0.16632190 -0.17404164 0.12842724
v 0.16617220 -0.17630801 0.12939766
v 0.15784463 -0.17690574 0.12967726
v 0.16057771 -0.17589674 0.12785704
v 0.16071503 -0.17397301 0.12800539
v 0.15821628 -0.17256129 0.13063664
v 0.15814883 -0.17600233 0.13046454
v 0.15761438 -0.17449074 0.12903931
v 0.15810823 -0.17435142 0.13039211
f 15 13 14
f 16 13 15
f 14 13 31
f 6 28 7
f 20 9 18
f 18 9 8
f 7 28 8
f 18 3 21
f 21 20 18
f 11 20 21
f 33 31 30
f 30 31 13
f 29 28 33
f 33 30 29
f 29 30 3
f 29 3 18
f 18 8 29
f 29 8 28
f 33 28 34
f 34 31 33
f 22 6 25
f 31 34 22
f 16 15 2
f 15 10 2
f 11 10 1
f 23 10 15
f 23 1 10
f 27 20 11
f 9 20 27
f 11 1 27
f 1 23 27
f 4 21 3
f 16 2 26
f 26 2 10
f 21 4 26
f 11 21 26
f 24 22 25
f 24 15 14
f 14 31 24
f 31 22 24
f 25 23 24
f 24 23 15
f 32 34 28
f 32 22 34
f 28 6 32
f 6 22 32
f 5 6 7
f 7 8 5
f 5 27 23
f 5 8 9
f 9 27 5
f 25 6 5
f 5 23 25
f 3 30 19
f 19 4 3
f 16 4 19
f 19 13 16
f 19 30 13
f 17 4 16
f 16 26 17
f 17 26 4
f 12 10 11
f 11 26 12
f 12 26 10

