# https://github.com/mikedh/trimesh
v -0.07822825 -0.25175925 0.06216248
v -0.17088260 -0.22372589 0.06216248
v 0.16352233 -0.24508536 0.06226500
v 0.16419158 -0.24619529 0.04957966
v -0.04342066 -0.16626485 0.06194646
v -0.22465048 -0.16631321 0.06187393
v -0.22456128 -0.16631374 0.04993743
v -0.22522697 -0.16802488 0.05591794
v 0.19185691 -0.17603881 0.06216793
v 0.19162969 -0.17519076 0.04966793
v 0.19000238 -0.17403191 0.06216793
v -0.21254594 -0.17785601 0.06216790
v -0.21270447 -0.17769751 0.04966790
v -0.21314852 -0.17519070 0.06216790
v -0.21298108 -0.17490070 0.04966790
v 0.15850941 -0.16654318 0.04966793
v -0.18243456 -0.16661996 0.06216790
v -0.18249519 -0.16665134 0.04966790
v 0.16401509 -0.16661999 0.06216793
v -0.04586766 -0.16636645 0.04966535
v 0.04454321 -0.16626835 0.04989182
v 0.07883003 -0.16654318 0.06216792
v 0.17621044 -0.16669731 0.04966793
v 0.17616204 -0.16665401 0.06216793
v 0.20109168 -0.16626182 0.04986462
v 0.20104581 -0.16627437 0.06201633
v 0.20223211 -0.16694137 0.06051711
v 0.16505128 -0.24969914 0.06010976
v 0.20226324 -0.16705171 0.05141190
v 0.16506918 -0.24950373 0.05148669
v 0.15830800 -0.25872750 0.05159145
v 0.15504459 -0.26235726 0.06025232
v 0.15301545 -0.26357977 0.05061013
v 0.14057653 -0.27251451 0.05158355
v 0.14022670 -0.27268726 0.06025228
v 0.12501830 -0.27764227 0.05158676
v 0.12464418 -0.27771975 0.06021347
v 0.05315128 -0.28207799 0.05150080
v 0.07181513 -0.28117026 0.06038453
v 0.00547347 -0.28291651 0.06018005
v -0.03223540 -0.28258501 0.05165575
v -0.07989157 -0.28090799 0.06033501
v -0.09853739 -0.27967224 0.05145131
v -0.14844542 -0.27562523 0.05161047
v -0.14869052 -0.27556448 0.06024764
v -0.15424658 -0.27347400 0.05159118
v -0.15447189 -0.27335849 0.06024462
v -0.15952807 -0.26996474 0.05156883
v -0.15972123 -0.26979999 0.06024038
v -0.17527589 -0.25089500 0.05090059
v -0.17940610 -0.24526155 0.06125132
v -0.19103582 -0.22975428 0.05998882
v -0.19251721 -0.22755041 0.05186100
v -0.21139009 -0.19616423 0.06024611
v -0.21157143 -0.19571796 0.05159452
v -0.15739044 -0.16654316 0.06216790
v -0.20598486 -0.20186755 0.04971093
v -0.15807617 -0.26878998 0.04978693
v -0.14988264 -0.27366700 0.04989519
v -0.07275750 -0.27948325 0.04978651
v 0.04056938 -0.28096474 0.04985265
v 0.12956933 -0.27505950 0.04984644
v 0.14455846 -0.26795001 0.04978160
v 0.15334631 -0.26153276 0.06198798
v 0.13885733 -0.27138776 0.06198798
v 0.12378115 -0.27606825 0.06198593
v 0.04601193 -0.28053800 0.06204353
v -0.06727865 -0.28000250 0.06199330
v -0.15075224 -0.27339699 0.06194487
v -0.15878317 -0.26815099 0.06204556
v -0.20562546 -0.20252671 0.06210779
v 0.16429473 -0.24836321 0.06172929
v -0.19541764 -0.22055585 0.05008684
f 6 7 8
f 29 28 30
f 27 28 29
f 4 23 10
f 25 27 29
f 26 27 25
f 25 10 23
f 4 10 25
f 29 30 25
f 25 30 4
f 17 6 14
f 18 15 7
f 4 15 18
f 8 7 55
f 39 67 40
f 26 25 5
f 7 6 5
f 72 27 26
f 28 27 72
f 20 18 7
f 20 23 4
f 4 18 20
f 53 55 73
f 60 58 4
f 53 73 50
f 50 73 58
f 50 52 53
f 31 30 28
f 32 31 28
f 28 72 32
f 32 72 64
f 37 39 36
f 26 5 56
f 6 17 56
f 56 5 6
f 21 20 7
f 25 20 21
f 7 5 21
f 21 5 25
f 16 25 23
f 23 20 16
f 16 20 25
f 57 55 7
f 57 73 55
f 58 73 57
f 46 58 59
f 58 60 59
f 38 39 40
f 36 39 38
f 62 34 36
f 54 55 53
f 53 52 54
f 54 6 8
f 8 55 54
f 49 50 48
f 48 58 46
f 48 50 58
f 40 42 41
f 41 38 40
f 6 54 71
f 71 54 52
f 67 70 68
f 40 67 68
f 68 42 40
f 42 68 45
f 67 39 66
f 39 37 66
f 36 34 35
f 35 37 36
f 34 32 35
f 35 32 64
f 58 57 13
f 4 58 13
f 13 15 4
f 7 15 13
f 13 57 7
f 43 59 60
f 60 41 43
f 43 41 42
f 42 45 43
f 34 62 63
f 61 41 60
f 38 41 61
f 61 63 62
f 36 38 61
f 61 62 36
f 61 60 4
f 4 63 61
f 51 71 52
f 70 71 51
f 49 70 51
f 51 50 49
f 52 50 51
f 47 70 49
f 46 45 47
f 47 48 46
f 49 48 47
f 69 68 70
f 69 45 68
f 70 47 69
f 69 47 45
f 65 35 64
f 65 66 37
f 37 35 65
f 2 71 70
f 26 56 22
f 44 45 46
f 44 43 45
f 46 59 44
f 59 43 44
f 33 63 4
f 4 30 33
f 30 31 33
f 34 63 33
f 33 32 34
f 31 32 33
f 71 2 12
f 14 6 12
f 6 71 12
f 1 70 67
f 1 2 70
f 26 24 11
f 26 22 19
f 19 24 26
f 26 11 9
f 14 12 3
f 3 17 14
f 3 56 17
f 3 22 56
f 3 19 22
f 3 11 24
f 24 19 3
f 3 9 11
f 3 65 64
f 26 9 3
f 3 1 67
f 3 12 2
f 2 1 3
f 3 72 26
f 64 72 3
f 67 66 3
f 66 65 3

