# https://github.com/mikedh/trimesh
v -0.05109911 0.11141561 -0.04085778
v -0.05066668 0.11038105 -0.04256560
v -0.05095373 0.11081685 -0.03885220
v -0.04860069 0.11233690 -0.04212087
v -0.04876316 0.11260410 -0.03940630
v -0.04741974 0.11050140 -0.03764893
v -0.04964199 0.10882228 -0.03773753
v -0.04839411 0.10687740 -0.03930383
v -0.04624778 0.10879861 -0.03881450
v -0.04595153 0.10822688 -0.04127203
v -0.04856393 0.10719810 -0.04215715
v -0.04721349 0.11021778 -0.04316635
v -0.04958494 0.10876415 -0.04311100
v -0.05591066 0.10376808 -0.04024978
v -0.05546153 0.10394791 -0.03943003
v -0.05575161 0.10410352 -0.04132515
v -0.05629398 0.10495033 -0.04163040
v -0.05671529 0.10585205 -0.04084753
v -0.05693086 0.10542531 -0.04003553
v -0.05642573 0.10533546 -0.03905910
v -0.05519539 0.10358990 -0.04063546
v -0.05610401 0.10522911 -0.04197853
v -0.05664069 0.10620961 -0.04106118
v -0.05548746 0.10418313 -0.04170513
v -0.05647506 0.10609378 -0.03951583
v -0.05551256 0.10478528 -0.03892813
v -0.05478351 0.10381623 -0.04036125
v -0.05581943 0.10570913 -0.04194423
v -0.05629161 0.10661635 -0.04037678
v -0.05485766 0.10505900 -0.04199695
v -0.04786601 0.11127502 -0.04152370
v -0.04712021 0.11012663 -0.04177793
v -0.04662741 0.10936776 -0.04071915
v -0.04762619 0.11090575 -0.03915198
v -0.04811899 0.11166458 -0.04021070
f 3 6 5
f 11 12 10
f 12 2 4
f 10 12 33
f 35 4 5
f 12 11 13
f 13 11 24
f 13 2 12
f 13 22 2
f 21 11 10
f 24 11 21
f 1 3 5
f 5 4 1
f 1 4 2
f 17 22 24
f 6 3 7
f 3 20 7
f 5 6 34
f 34 35 5
f 32 33 12
f 24 22 30
f 30 13 24
f 22 13 30
f 3 1 29
f 24 21 16
f 16 17 24
f 26 7 20
f 8 21 10
f 12 4 31
f 31 32 12
f 4 35 31
f 22 17 23
f 23 1 2
f 23 29 1
f 19 20 25
f 25 23 19
f 29 23 25
f 25 20 3
f 3 29 25
f 9 8 10
f 6 7 9
f 7 8 9
f 10 33 9
f 9 34 6
f 33 32 9
f 35 34 9
f 9 31 35
f 32 31 9
f 7 26 15
f 15 8 7
f 15 26 20
f 18 17 19
f 19 23 18
f 18 23 17
f 2 22 28
f 28 23 2
f 22 23 28
f 21 8 27
f 27 15 21
f 8 15 27
f 21 15 14
f 14 16 21
f 14 20 19
f 14 15 20
f 19 17 14
f 17 16 14

