# https://github.com/mikedh/trimesh
v 0.19693604 0.14367464 0.04966793
v 0.19492911 0.14552916 0.04966793
v 0.17544528 0.15113454 0.04966793
v 0.16544419 0.15136141 0.04966793
v 0.20605006 0.15698681 0.04975317
v 0.03381139 0.15697287 0.04989401
v 0.08670401 0.15136141 0.04966792
v 0.21001008 0.14128991 0.04991146
v 0.20412113 0.06998281 0.04966793
v 0.20445609 0.06602686 0.04989796
v 0.20993378 0.07745263 0.04988413
v 0.19491122 0.06060659 0.04977093
v 0.03115089 0.14933760 0.04983295
v 0.03719889 0.15091947 0.04966792
v 0.03155599 0.15418144 0.04999677
v 0.03088626 0.06828237 0.04982759
v 0.03680886 0.06627710 0.04966792
v 0.03066490 0.06478192 0.04991801
v 0.03965471 0.06561492 0.04966792
v 0.03544233 0.06045825 0.04977162
v 0.14384605 0.06481226 0.04966793
v 0.20539906 0.07263458 0.04966793
v 0.20500908 0.14613138 0.06216793
v 0.20505593 0.14353218 0.06216793
v 0.20939576 0.07639836 0.06209440
v 0.20442023 0.07006296 0.06216793
v 0.20384938 0.06553066 0.06199429
v 0.20612409 0.15698616 0.06207628
v 0.17380096 0.15136141 0.06216793
v 0.20996811 0.14124359 0.06194051
v 0.19456198 0.06060824 0.06207536
v 0.09506078 0.15136141 0.06216792
v 0.03368886 0.15675955 0.06205915
v 0.03878731 0.15115269 0.06216792
v 0.03680886 0.15025728 0.06216792
v 0.03144068 0.14887970 0.06201369
v 0.03061233 0.06784188 0.06199826
v 0.03679148 0.06653395 0.06216792
v 0.03097465 0.06426220 0.06193706
v 0.03906588 0.06527495 0.06216792
v 0.03525193 0.06045660 0.06205896
v 0.20526974 0.07285866 0.06216793
v 0.14294007 0.06505611 0.06216793
v 0.03239943 0.06144230 0.05056377
v 0.03580861 0.05975497 0.05042955
v 0.03079959 0.15227597 0.06126780
v 0.03312761 0.15692490 0.06121453
v 0.03233033 0.06150855 0.06127211
v 0.03576473 0.05973647 0.06137378
v 0.08846644 0.15698764 0.05444050
v 0.08962306 0.15698764 0.05861506
v 0.09275061 0.15698764 0.05360058
v 0.17045119 0.15698763 0.05862592
v 0.17233991 0.15698763 0.05604285
v 0.17079798 0.15698763 0.05334149
v 0.19213735 0.05975666 0.06138561
v 0.19218906 0.05973209 0.05049754
v 0.21015679 0.07610186 0.06128083
v 0.20848126 0.07166861 0.05021764
v 0.20668022 0.06830279 0.06126358
v 0.19860647 0.06152816 0.05057232
v 0.19846271 0.06146111 0.06126360
v 0.20882208 0.14968026 0.06159068
v 0.20868886 0.15015509 0.05021755
f 53 28 5
f 62 31 56
f 47 33 28
f 47 6 15
f 41 49 56
f 56 31 41
f 41 38 37
f 31 62 27
f 52 6 50
f 5 6 52
f 52 55 5
f 14 6 5
f 17 16 14
f 51 47 28
f 28 53 51
f 50 6 51
f 6 47 51
f 33 47 46
f 46 47 15
f 54 53 5
f 5 55 54
f 37 46 18
f 37 38 35
f 40 41 31
f 38 41 40
f 15 6 13
f 6 14 13
f 13 14 16
f 16 18 13
f 13 46 15
f 13 18 46
f 36 46 37
f 33 46 36
f 37 35 36
f 36 35 33
f 56 49 57
f 49 45 57
f 57 62 56
f 20 57 45
f 12 57 20
f 20 16 17
f 20 18 16
f 12 20 21
f 49 41 48
f 43 40 31
f 5 2 3
f 19 20 17
f 19 21 20
f 58 11 8
f 12 10 61
f 62 57 61
f 61 57 12
f 61 27 62
f 61 10 27
f 9 10 12
f 11 10 9
f 12 21 9
f 27 10 60
f 58 25 60
f 60 25 27
f 44 45 49
f 49 48 44
f 44 48 18
f 44 20 45
f 18 20 44
f 37 18 39
f 18 48 39
f 39 41 37
f 39 48 41
f 29 23 28
f 30 25 58
f 58 8 30
f 30 8 63
f 30 63 28
f 28 23 30
f 23 25 30
f 42 25 24
f 24 25 23
f 26 43 31
f 31 27 26
f 27 25 26
f 26 25 42
f 7 14 5
f 64 8 5
f 63 8 64
f 5 28 64
f 28 63 64
f 11 9 22
f 5 8 22
f 22 8 11
f 59 10 11
f 59 60 10
f 59 11 58
f 58 60 59
f 28 33 34
f 33 35 34
f 5 3 4
f 4 7 5
f 1 2 5
f 5 22 1
f 32 29 28
f 28 34 32
f 50 51 54
f 54 52 50
f 55 52 54
f 54 51 53
f 17 14 1
f 14 7 1
f 1 19 17
f 1 3 2
f 21 19 1
f 1 9 21
f 1 4 3
f 1 22 9
f 7 4 1
f 38 40 32
f 32 35 38
f 42 24 32
f 32 26 42
f 40 43 32
f 23 29 32
f 32 24 23
f 43 26 32
f 32 34 35

