# https://github.com/mikedh/trimesh
v 0.15441657 0.19742608 -0.05055844
v 0.15747732 0.19856726 -0.05120751
v 0.15725527 0.19625154 -0.05161276
v 0.16145967 0.19574471 -0.05169319
v 0.15475110 0.19944897 -0.04914191
v 0.16156235 0.19806364 -0.05186076
v 0.16247455 0.19856687 -0.05104191
v 0.16188940 0.19758923 -0.05224738
v 0.16263157 0.19819924 -0.05132404
v 0.16219832 0.19703197 -0.05217178
v 0.16327667 0.19747956 -0.05029714
v 0.16291114 0.19597097 -0.05122941
v 0.16262788 0.19761579 -0.05186041
v 0.15622387 0.19620219 -0.04560321
v 0.15647165 0.19801089 -0.04561769
v 0.15580330 0.19924561 -0.04661964
v 0.16279379 0.19699321 -0.04934116
v 0.15918638 0.19837846 -0.04701016
v 0.15820475 0.19974025 -0.04932909
v 0.16188858 0.19604906 -0.05202934
v 0.16248887 0.19572351 -0.05115881
v 0.16308515 0.19777221 -0.04970186
v 0.16290510 0.19564994 -0.05032071
v 0.15443394 0.19533072 -0.04996063
v 0.15786913 0.19441586 -0.05004596
v 0.16232680 0.19843168 -0.05022643
v 0.15553495 0.19429996 -0.04734746
v 0.15867984 0.19451001 -0.04827506
v 0.16243492 0.19545629 -0.05046896
v 0.15474787 0.19765821 -0.04910014
v 0.15476794 0.19623179 -0.04904779
v 0.15922509 0.19586816 -0.04694459
v 0.15522770 0.19560156 -0.04795936
f 32 14 27
f 14 16 30
f 23 17 32
f 11 17 23
f 32 17 18
f 18 19 16
f 5 30 16
f 16 19 5
f 1 24 5
f 5 24 30
f 5 2 1
f 19 2 5
f 3 24 1
f 1 2 3
f 33 24 27
f 27 14 33
f 27 24 25
f 25 3 20
f 24 3 25
f 28 32 27
f 28 23 32
f 27 25 28
f 11 23 12
f 14 32 15
f 32 18 15
f 15 16 14
f 15 18 16
f 22 17 11
f 22 18 17
f 30 24 31
f 24 33 31
f 14 30 31
f 31 33 14
f 23 28 29
f 29 28 25
f 19 18 26
f 18 22 26
f 21 12 23
f 23 29 21
f 20 12 21
f 21 29 25
f 19 26 7
f 7 2 19
f 7 6 2
f 7 22 11
f 7 26 22
f 8 3 2
f 2 6 8
f 20 3 8
f 6 7 8
f 4 25 20
f 20 21 4
f 4 21 25
f 10 12 20
f 20 8 10
f 13 10 8
f 11 12 13
f 12 10 13
f 9 8 7
f 9 13 8
f 9 7 11
f 11 13 9

