# https://github.com/mikedh/trimesh
v -0.16550891 -0.04536319 0.10244116
v -0.16272928 -0.04640191 0.10264401
v -0.16269451 -0.04369636 0.10124039
v -0.16547306 -0.04346416 0.10093041
v -0.16269703 -0.04351984 0.09865119
v -0.16551959 -0.04379181 0.09819931
v -0.16274730 -0.04579099 0.09709891
v -0.16552401 -0.04617264 0.09716096
v -0.16270568 -0.04800401 0.09808844
v -0.16548596 -0.04866854 0.09891421
v -0.16270973 -0.04870556 0.10040289
v -0.16550615 -0.04774216 0.10199421
v -0.15100718 -0.04706521 0.09924839
v -0.15112256 -0.04578229 0.09824669
v -0.15098129 -0.04705101 0.10047747
v -0.15117739 -0.04551991 0.10104837
v -0.15079873 -0.04502654 0.10015914
v -0.15127351 -0.04478979 0.09962746
v -0.15125993 -0.04751821 0.09931384
v -0.15137493 -0.04712144 0.10094969
v -0.15149590 -0.04462639 0.10061284
v -0.15143821 -0.04583914 0.10137132
v -0.15163223 -0.04481139 0.09880929
v -0.15171661 -0.04659859 0.09838004
v -0.15179413 -0.04756654 0.09977687
v -0.15202276 -0.04456514 0.10044147
v -0.15192959 -0.04560979 0.10135109
v -0.15211885 -0.04487819 0.09871816
v -0.15236016 -0.04658149 0.10136304
v -0.15255940 -0.04452809 0.09935851
v -0.15296386 -0.04503154 0.10113501
v -0.16554509 -0.04472776 0.10055459
v -0.16555630 -0.04481089 0.09904944
v -0.16554726 -0.04608786 0.09842192
v -0.16556011 -0.04723656 0.09902206
v -0.16556446 -0.04616031 0.10131716
f 25 20 11
f 3 5 4
f 12 10 11
f 11 20 12
f 12 20 2
f 35 8 10
f 35 12 36
f 10 12 35
f 4 5 6
f 6 32 4
f 7 8 6
f 6 23 7
f 5 23 6
f 18 21 17
f 17 23 18
f 30 23 5
f 21 18 30
f 30 18 23
f 11 10 19
f 19 25 11
f 20 25 19
f 2 20 29
f 29 22 2
f 20 22 29
f 1 3 4
f 1 12 2
f 36 12 1
f 1 32 36
f 4 32 1
f 17 21 16
f 21 22 16
f 32 6 33
f 36 32 33
f 33 35 36
f 33 6 8
f 26 30 5
f 21 30 26
f 5 3 26
f 26 3 21
f 9 19 10
f 9 8 7
f 10 8 9
f 14 23 17
f 20 19 15
f 17 16 15
f 15 22 20
f 15 16 22
f 3 1 31
f 21 3 31
f 8 35 34
f 34 33 8
f 35 33 34
f 7 23 28
f 28 14 7
f 23 14 28
f 19 9 24
f 24 14 19
f 24 9 7
f 7 14 24
f 19 14 13
f 13 15 19
f 13 14 17
f 17 15 13
f 27 31 1
f 2 22 27
f 27 1 2
f 27 22 21
f 21 31 27

