# https://github.com/mikedh/trimesh
v -0.10162766 -0.21791995 0.01729967
v -0.10348369 -0.21750477 0.01422857
v -0.11003923 -0.21002307 0.00860189
v -0.11300129 -0.21449039 0.00609747
v -0.11572566 -0.21035154 0.00613527
v -0.12773744 -0.23117959 0.02651569
v -0.10951496 -0.20428100 0.01227569
v -0.11428286 -0.20610967 0.00881669
v -0.11447546 -0.20115700 0.01322754
v -0.11420404 -0.19499036 0.02958615
v -0.11299744 -0.19629924 0.02296194
v -0.11205477 -0.23027244 0.01742359
v -0.10690234 -0.23043707 0.02366082
v -0.11453989 -0.23317561 0.02298284
v -0.10113021 -0.22484117 0.02537047
v -0.10574544 -0.22799111 0.02000099
v -0.10098369 -0.22220085 0.02105549
v -0.09980222 -0.20761466 0.02368082
v -0.09815147 -0.21068175 0.02958101
v -0.09886817 -0.21237958 0.02328885
v -0.11612874 -0.19556241 0.02473126
v -0.10039766 -0.20460060 0.02958690
v -0.09827414 -0.21523087 0.02625241
v -0.10261252 -0.20197492 0.02634450
v -0.10622359 -0.19834284 0.02958738
v -0.10798099 -0.19792274 0.02430814
v -0.11142117 -0.21983159 0.00812269
v -0.10912821 -0.22391336 0.01173612
v -0.11514112 -0.22204444 0.00796372
v -0.11871469 -0.19717431 0.01886469
v -0.11837337 -0.20106444 0.01298184
v -0.12289089 -0.20195789 0.01307847
v -0.09911902 -0.21717100 0.02232304
v -0.10491879 -0.20744996 0.01414807
v -0.12433634 -0.19640119 0.02540126
v -0.11912382 -0.19548214 0.02479884
v -0.10372159 -0.22188976 0.01574457
v -0.13376361 -0.20297844 0.02954894
v -0.13619486 -0.20895481 0.02603783
v -0.13716747 -0.21150117 0.02958708
v -0.12803474 -0.23033254 0.02302332
v -0.12676387 -0.23180222 0.02668292
v -0.12736826 -0.19948187 0.02017962
v -0.13001109 -0.20357947 0.01748316
v -0.13276479 -0.20356893 0.02285612
v -0.12309727 -0.23324535 0.02651791
v -0.13337567 -0.22350149 0.02064496
v -0.12800249 -0.22830718 0.01867074
v -0.11567509 -0.22764049 0.01244209
v -0.13046004 -0.21655321 0.01260404
v -0.12990781 -0.21426175 0.01183857
v -0.12706576 -0.21544170 0.00918484
v -0.13396664 -0.20766303 0.01985917
v -0.13272054 -0.21784909 0.01598846
v -0.13211010 -0.22816050 0.02956449
v -0.13669684 -0.22017739 0.02958311
v -0.13569654 -0.22135475 0.02502052
v -0.10509304 -0.21369956 0.01199222
v -0.12208346 -0.23028464 0.01687704
v -0.12034316 -0.23323135 0.02298134
v -0.11948181 -0.20804400 0.00731789
v -0.12517749 -0.22694736 0.01422907
v -0.10805249 -0.21616449 0.00914462
v -0.11189649 -0.23326979 0.02668406
v -0.12017279 -0.22199605 0.00792939
v -0.12250876 -0.21078835 0.00694044
v -0.11760299 -0.21452763 0.00449279
v -0.12214997 -0.21614902 0.00619472
v -0.12525464 -0.21963255 0.00890884
v -0.13058461 -0.21257162 0.01274384
v -0.13200326 -0.21152987 0.01484562
v -0.12768311 -0.20935321 0.01056679
v -0.10148212 -0.21128104 0.01743542
v -0.10376311 -0.21185911 0.01383277
v -0.10488782 -0.21608169 0.01223334
v -0.09816479 -0.21907790 0.02957684
v -0.10059336 -0.21544450 0.02958740
v -0.11659749 -0.23425646 0.02958743
v -0.11701212 -0.23407989 0.02652398
v -0.10894504 -0.23142421 0.02959584
v -0.10835439 -0.23176985 0.02668325
v -0.12765849 -0.23025165 0.02959322
v -0.12199042 -0.23356051 0.02667739
v -0.12152112 -0.23309140 0.02957341
v -0.12332611 -0.23244312 0.02960941
v -0.10661167 -0.23134496 0.02958729
v -0.10047454 -0.22451582 0.02958705
v -0.11695500 -0.23157826 0.01828802
v -0.13688284 -0.21384599 0.02628328
v -0.12859359 -0.22392063 0.01412602
v -0.13552601 -0.21168713 0.02131512
v -0.10351179 -0.20355113 0.01981394
v -0.12082547 -0.19501615 0.02958799
v -0.13693368 -0.21542611 0.02633929
v -0.12630587 -0.23164542 0.02958991
v -0.12800538 -0.19963069 0.02958682
v -0.11004904 -0.19893890 0.01894702
v -0.09815731 -0.21376255 0.02639406
v -0.13048243 -0.22013049 0.01353122
v -0.11374863 -0.20049867 0.02959494
v -0.12243559 -0.22599280 0.01159564
v -0.12619004 -0.20598428 0.01144139
v -0.13387601 -0.21134128 0.01799592
v -0.10699159 -0.22694650 0.01672599
v -0.13538966 -0.21764336 0.02092281
v -0.10607374 -0.21108217 0.01130979
v -0.11818375 -0.23409324 0.02669191
v -0.12878349 -0.19826884 0.02957929
v -0.11302507 -0.23352170 0.02651539
v -0.11710334 -0.21705859 0.00524214
f 80 85 78
f 22 100 85
f 85 80 22
f 40 85 96
f 96 108 40
f 18 22 19
f 77 80 87
f 77 22 80
f 77 87 19
f 19 22 77
f 100 22 25
f 25 10 100
f 26 10 25
f 100 10 93
f 85 100 93
f 93 96 85
f 108 96 93
f 93 10 36
f 35 93 36
f 35 43 108
f 108 93 35
f 40 108 38
f 38 39 40
f 11 10 26
f 26 97 11
f 19 87 76
f 33 76 17
f 56 57 55
f 56 85 40
f 55 82 56
f 56 82 85
f 19 76 98
f 22 18 24
f 26 25 24
f 24 25 22
f 67 5 4
f 5 3 4
f 45 53 39
f 39 38 45
f 45 44 53
f 43 44 45
f 108 43 45
f 45 38 108
f 36 10 21
f 10 11 21
f 15 76 87
f 15 17 76
f 74 73 2
f 27 29 110
f 67 4 110
f 110 4 27
f 49 101 65
f 65 29 49
f 65 110 29
f 78 109 64
f 49 12 88
f 94 56 40
f 57 56 94
f 94 105 57
f 40 39 89
f 89 94 40
f 54 105 103
f 47 105 54
f 57 105 47
f 55 57 47
f 23 76 33
f 33 98 23
f 23 98 76
f 33 73 20
f 20 73 18
f 20 98 33
f 20 18 19
f 19 98 20
f 34 73 74
f 34 3 7
f 63 4 3
f 27 4 63
f 70 51 50
f 53 44 72
f 72 44 102
f 102 66 72
f 72 51 70
f 102 44 32
f 32 44 43
f 9 97 7
f 16 15 13
f 16 12 104
f 13 12 16
f 17 15 16
f 33 17 1
f 1 73 33
f 1 2 73
f 27 63 28
f 104 12 28
f 28 12 49
f 49 29 28
f 28 29 27
f 37 16 104
f 17 16 37
f 104 28 37
f 37 1 17
f 2 1 37
f 37 28 63
f 14 12 13
f 13 64 14
f 14 64 109
f 14 88 12
f 87 80 86
f 86 15 87
f 86 80 78
f 78 64 86
f 13 15 86
f 91 103 105
f 105 94 91
f 94 89 91
f 91 89 39
f 39 53 91
f 53 103 91
f 48 62 59
f 59 62 101
f 59 101 49
f 49 88 59
f 55 42 95
f 85 82 95
f 95 82 55
f 55 47 41
f 41 47 48
f 48 59 41
f 92 24 18
f 18 73 92
f 73 34 92
f 92 97 26
f 26 24 92
f 7 97 92
f 92 34 7
f 106 63 3
f 106 34 74
f 3 34 106
f 74 2 75
f 2 37 75
f 75 37 63
f 69 65 101
f 71 72 70
f 53 72 71
f 71 103 53
f 54 103 71
f 71 50 54
f 70 50 71
f 61 66 102
f 102 32 61
f 61 5 67
f 67 66 61
f 61 32 31
f 31 32 30
f 30 32 43
f 36 21 30
f 30 21 11
f 30 9 31
f 30 35 36
f 43 35 30
f 30 11 97
f 97 9 30
f 81 86 64
f 81 64 13
f 13 86 81
f 60 41 59
f 88 14 60
f 60 59 88
f 78 85 84
f 85 95 84
f 6 42 55
f 55 41 6
f 6 41 42
f 63 106 58
f 58 75 63
f 58 106 74
f 74 75 58
f 101 62 90
f 90 69 101
f 48 47 90
f 90 62 48
f 65 69 68
f 67 110 68
f 110 65 68
f 68 66 67
f 52 50 51
f 52 68 69
f 51 72 52
f 52 72 66
f 66 68 52
f 31 9 8
f 8 61 31
f 5 61 8
f 8 9 7
f 7 3 8
f 8 3 5
f 78 84 83
f 83 84 95
f 79 60 14
f 79 109 78
f 79 14 109
f 69 90 99
f 50 52 99
f 99 52 69
f 54 50 99
f 99 47 54
f 99 90 47
f 60 83 46
f 42 41 46
f 41 60 46
f 46 95 42
f 46 83 95
f 107 83 60
f 60 79 107
f 78 83 107
f 107 79 78

