# https://github.com/mikedh/trimesh
v 0.15713131 -0.19609261 0.10737856
v 0.15714063 -0.19774939 0.10694649
v 0.15749218 -0.19856819 0.10834599
v 0.15780433 -0.19819919 0.10841789
v 0.15818148 -0.19761768 0.10881821
v 0.15736743 -0.19818301 0.10940584
v 0.15744973 -0.19668281 0.10988819
v 0.15681399 -0.19843349 0.10787626
v 0.15276823 -0.19460754 0.10882792
v 0.14991631 -0.19438111 0.11044921
v 0.15383231 -0.19467014 0.11154009
v 0.15212966 -0.19708416 0.10744211
v 0.14918729 -0.19649431 0.10881654
v 0.15793358 -0.19758993 0.10961378
v 0.15652401 -0.19730649 0.10700879
v 0.15808966 -0.19696591 0.10936231
v 0.15766706 -0.19569646 0.10924456
v 0.15283988 -0.19954971 0.10904104
v 0.14949700 -0.19843411 0.10897014
v 0.15680645 -0.19580811 0.10740921
v 0.15793596 -0.19597208 0.10817054
v 0.15078411 -0.19471401 0.11254274
v 0.15765248 -0.19580749 0.10851584
v 0.15125228 -0.19644736 0.11369136
v 0.15423206 -0.19734864 0.11248446
v 0.14997298 -0.19963739 0.11065511
v 0.15381320 -0.19918863 0.11145689
v 0.15090111 -0.19904909 0.11295246
v 0.15019288 -0.19560408 0.11129124
v 0.15063633 -0.19623362 0.11238486
v 0.14973095 -0.19784839 0.11014917
f 10 9 13
f 9 10 11
f 19 26 13
f 13 9 12
f 12 19 13
f 24 28 25
f 25 11 24
f 24 11 22
f 22 11 10
f 4 2 5
f 4 3 2
f 26 19 18
f 18 12 2
f 19 12 18
f 9 11 17
f 20 12 9
f 13 26 31
f 26 28 31
f 27 25 28
f 27 18 3
f 27 28 26
f 26 18 27
f 24 22 30
f 30 28 24
f 30 31 28
f 13 31 30
f 2 3 8
f 8 18 2
f 3 18 8
f 5 16 14
f 25 27 14
f 14 4 5
f 3 4 14
f 16 17 7
f 25 14 7
f 7 14 16
f 11 25 7
f 7 17 11
f 2 12 15
f 15 20 2
f 12 20 15
f 5 2 21
f 21 16 5
f 21 17 16
f 9 17 23
f 23 20 9
f 17 21 23
f 23 21 20
f 29 10 13
f 13 30 29
f 29 22 10
f 29 30 22
f 6 27 3
f 3 14 6
f 6 14 27
f 2 20 1
f 1 21 2
f 20 21 1

