# https://github.com/mikedh/trimesh
v 0.19715771 -0.14479831 0.06216793
v 0.17596882 -0.15113563 0.06216793
v 0.16430993 -0.15121392 0.06216793
v 0.20657356 -0.15698797 0.06208271
v 0.03434026 -0.15696312 0.06196252
v 0.08556979 -0.15121391 0.06216792
v 0.21052141 -0.14142577 0.06191851
v 0.20366565 -0.07006409 0.06216793
v 0.20484427 -0.06630789 0.06209197
v 0.21045578 -0.07740379 0.06196082
v 0.19331952 -0.06003131 0.06192158
v 0.03746176 -0.15048240 0.06216792
v 0.03197989 -0.15396957 0.06191378
v 0.04039724 -0.15070152 0.06216792
v 0.03750342 -0.06583498 0.06216792
v 0.03153247 -0.06416868 0.06193705
v 0.03520057 -0.06049555 0.06206570
v 0.12736745 -0.06483586 0.06216793
v 0.14374722 -0.06500328 0.06216793
v 0.20593999 -0.07132304 0.06216793
v 0.20464464 -0.14655261 0.04966793
v 0.20598483 -0.14432504 0.04966793
v 0.09724209 -0.15121391 0.04966792
v 0.20989827 -0.07457217 0.04981130
v 0.20352004 -0.07023302 0.04966793
v 0.19743390 -0.06121329 0.04986911
v 0.20671774 -0.06799504 0.04991482
v 0.20664759 -0.15698729 0.04975960
v 0.17598226 -0.15121392 0.04966793
v 0.21050403 -0.14109764 0.04988884
v 0.19282444 -0.06001747 0.04992588
v 0.03421246 -0.15676066 0.04977669
v 0.04017824 -0.15092052 0.04966792
v 0.03733239 -0.15025833 0.04966792
v 0.03267804 -0.14714832 0.04986475
v 0.03772239 -0.06561600 0.04966792
v 0.03167580 -0.06353483 0.04986744
v 0.03474087 -0.06045483 0.04982854
v 0.20592261 -0.07106619 0.04966793
v 0.14403722 -0.06483586 0.04966793
v 0.03080939 -0.06715153 0.06127211
v 0.03292294 -0.06144340 0.06127211
v 0.03634164 -0.05975480 0.06141202
v 0.03132944 -0.14995483 0.06127162
v 0.03164764 -0.14945265 0.05011255
v 0.03132311 -0.15227708 0.05056809
v 0.03365116 -0.15692600 0.05062129
v 0.03082002 -0.06724668 0.05056378
v 0.08847086 -0.15698876 0.05542225
v 0.09223451 -0.15698876 0.05320993
v 0.09198321 -0.15698876 0.05883806
v 0.16962139 -0.15698876 0.05313505
v 0.17249414 -0.15698876 0.05454450
v 0.17201431 -0.15698876 0.05823529
v 0.03629367 -0.05973863 0.05045130
v 0.21080886 -0.07773774 0.05055526
v 0.20908314 -0.07155904 0.06126363
v 0.20499092 -0.06566669 0.06126358
v 0.20211152 -0.06325059 0.05057233
v 0.19913009 -0.06152927 0.06126358
v 0.20934565 -0.14968127 0.05024526
v 0.20921242 -0.15015612 0.06161839
f 42 43 38
f 38 43 55
f 43 11 55
f 24 57 56
f 52 28 53
f 52 50 28
f 47 32 28
f 28 50 47
f 47 50 5
f 41 44 13
f 13 47 5
f 12 13 5
f 41 13 16
f 16 12 15
f 13 12 16
f 31 55 11
f 38 55 31
f 37 32 35
f 38 36 37
f 37 36 34
f 34 32 37
f 37 42 38
f 37 16 42
f 37 48 41
f 41 16 37
f 29 21 28
f 30 61 28
f 30 24 56
f 4 54 53
f 53 28 4
f 4 51 54
f 5 51 4
f 32 47 46
f 46 13 44
f 47 13 46
f 41 48 46
f 46 44 41
f 17 19 11
f 17 11 43
f 17 16 15
f 43 42 17
f 42 16 17
f 40 36 38
f 5 50 49
f 49 51 5
f 33 32 34
f 28 32 33
f 22 39 24
f 24 30 22
f 28 21 22
f 22 30 28
f 1 4 20
f 56 57 10
f 35 32 45
f 32 46 45
f 45 37 35
f 48 37 45
f 45 46 48
f 18 17 15
f 19 17 18
f 60 31 11
f 59 60 58
f 24 39 27
f 59 58 27
f 57 24 27
f 27 58 57
f 23 29 28
f 28 33 23
f 20 4 7
f 7 10 20
f 61 30 7
f 7 30 56
f 56 10 7
f 4 3 6
f 4 1 2
f 2 3 4
f 31 60 26
f 26 60 59
f 59 27 26
f 26 27 39
f 26 39 25
f 25 40 26
f 38 31 26
f 26 40 38
f 57 58 9
f 20 10 9
f 9 10 57
f 9 8 20
f 9 60 11
f 9 58 60
f 19 8 9
f 11 19 9
f 61 7 62
f 62 7 4
f 28 61 62
f 62 4 28
f 4 6 14
f 14 12 5
f 5 4 14
f 49 52 53
f 53 54 49
f 50 52 49
f 54 51 49
f 36 40 23
f 34 36 23
f 23 40 25
f 25 39 23
f 21 29 23
f 23 33 34
f 23 22 21
f 39 22 23
f 14 1 20
f 20 8 14
f 15 12 14
f 14 18 15
f 14 8 19
f 14 2 1
f 19 18 14
f 14 6 3
f 3 2 14

