# https://github.com/mikedh/trimesh
v 0.21221489 0.17679669 -0.05010803
v 0.20899969 0.17566904 -0.04942931
v 0.20977057 0.17765916 -0.04762843
v 0.20581440 0.17396856 -0.04634423
v 0.20628728 0.17355983 -0.04503756
v 0.20649434 0.17665090 -0.04521583
v 0.20550898 0.17624406 -0.04547586
v 0.20624016 0.17652264 -0.04457126
v 0.20547365 0.17617193 -0.04620578
v 0.20696775 0.17389521 -0.04450538
v 0.20667227 0.17465871 -0.04384916
v 0.20937410 0.17297279 -0.04849686
v 0.21253308 0.17276885 -0.04940866
v 0.21027509 0.17231643 -0.04686453
v 0.21059307 0.17742044 -0.04568843
v 0.21360034 0.17713909 -0.04633363
v 0.21309336 0.17773844 -0.04814458
v 0.21406385 0.17552225 -0.04572868
v 0.21114088 0.17505830 -0.04434473
v 0.21390544 0.17351223 -0.04613556
v 0.20506414 0.17557099 -0.04579901
v 0.20535678 0.17406311 -0.04507996
v 0.20573066 0.17556322 -0.04413903
v 0.21267451 0.17595913 -0.04918868
v 0.21310240 0.17645439 -0.04814398
v 0.20625795 0.17458177 -0.04397013
v 0.20575918 0.17568148 -0.04672604
v 0.20557071 0.17358011 -0.04565871
v 0.20510384 0.17496034 -0.04621409
v 0.20523285 0.17478911 -0.04655324
v 0.21067546 0.17308001 -0.04526476
v 0.21325856 0.17245061 -0.04756299
v 0.20707646 0.17547228 -0.04405128
v 0.21258203 0.17454371 -0.04937086
v 0.21204737 0.17434156 -0.05054496
v 0.20607296 0.17589576 -0.04427281
v 0.21359023 0.17562741 -0.04696518
v 0.21300198 0.17365154 -0.04838213
v 0.21352278 0.17424561 -0.04713638
f 35 12 2
f 28 12 14
f 14 32 31
f 13 12 35
f 14 12 13
f 13 32 14
f 35 2 1
f 30 2 12
f 10 31 11
f 11 31 19
f 19 33 11
f 20 31 32
f 18 19 20
f 20 19 31
f 32 13 20
f 20 13 38
f 35 1 24
f 24 1 17
f 11 33 23
f 21 22 23
f 29 22 21
f 21 30 29
f 28 22 29
f 29 30 28
f 12 28 4
f 4 30 12
f 28 30 4
f 26 10 11
f 11 23 26
f 26 23 22
f 16 19 18
f 18 17 16
f 8 33 15
f 33 19 15
f 19 16 15
f 15 16 17
f 37 17 18
f 18 20 37
f 38 13 34
f 34 24 38
f 34 13 35
f 35 24 34
f 9 30 21
f 36 33 8
f 8 23 36
f 36 23 33
f 5 26 22
f 10 26 5
f 5 22 28
f 5 28 14
f 14 31 5
f 31 10 5
f 39 20 38
f 39 37 20
f 38 24 39
f 24 37 39
f 25 24 17
f 17 37 25
f 25 37 24
f 7 9 21
f 21 23 7
f 7 23 8
f 8 15 3
f 3 15 17
f 17 1 3
f 3 1 2
f 2 9 3
f 2 30 27
f 27 9 2
f 30 9 27
f 6 7 8
f 8 3 6
f 9 7 6
f 6 3 9

