# https://github.com/mikedh/trimesh
v -0.09585170 -0.00355256 -0.00155523
v -0.09585075 0.01756682 -0.00549813
v -0.09592962 0.02568701 -0.01127096
v -0.09588337 0.03085111 -0.01632963
v -0.09588592 0.03749588 -0.02886801
v -0.09584109 0.03953176 -0.04056371
v -0.09586877 0.03702313 -0.05450368
v -0.09584504 0.02677233 -0.07011015
v -0.09585694 0.01212820 -0.07862526
v -0.09592646 0.00079824 -0.08015356
v -0.09588137 -0.01271749 -0.07832658
v -0.09586522 -0.02536558 -0.07122191
v -0.09585687 -0.03106192 -0.06538913
v -0.09600739 -0.03786094 -0.04939400
v -0.09585602 -0.03929849 -0.04516440
v -0.09590660 -0.03786874 -0.03047743
v -0.09586157 -0.03148597 -0.01717948
v -0.09580772 -0.02493136 -0.01020803
v -0.09596850 -0.01394286 -0.00457390
v -0.09467372 0.00382046 -0.00094301
v -0.09552052 0.01082802 -0.00261071
v -0.09501039 0.02616971 -0.01064921
v -0.09501039 0.03555943 -0.02254683
v -0.09502584 0.03970221 -0.03541025
v -0.09467242 0.03963981 -0.04752011
v -0.09501039 0.02008087 -0.07560078
v -0.09501296 -0.00183459 -0.08113820
v -0.09467372 -0.02007416 -0.07572571
v -0.09467372 -0.03568492 -0.05935360
v -0.09561942 -0.03772784 -0.05339868
v -0.09467505 -0.03988417 -0.03608633
v -0.09546842 -0.03719909 -0.02628963
v -0.09552052 -0.01519284 -0.00412100
v -0.09555492 0.03451948 -0.06076928
v -0.09405474 0.02105286 -0.00692228
v -0.09425490 0.03076208 -0.01528365
v -0.09348959 0.03439198 -0.02145473
v -0.09424996 0.03882278 -0.03103263
v -0.09340474 0.03935233 -0.04115506
v -0.09393694 0.02207370 -0.07428826
v -0.09399189 0.00977994 -0.07985303
v -0.09349316 -0.00418744 -0.08027218
v -0.09433702 -0.01316270 -0.07877513
v -0.09346325 -0.03771047 -0.02932731
v -0.09433445 -0.03379492 -0.01914363
v -0.09424995 -0.00429884 -0.00111656
v -0.09433615 -0.01484016 -0.00368448
v -0.09433612 -0.02473981 -0.00937498
v -0.09433445 -0.03951164 -0.04849090
v -0.09389879 -0.03302327 -0.06334206
v -0.09433612 -0.02774042 -0.06993913
v -0.09433614 0.03026878 -0.06728636
v -0.09395414 0.03658631 -0.05722700
v -0.09433707 0.01316167 -0.00313903
v -0.09342597 0.01155268 -0.00349691
v -0.09343374 0.02428032 -0.01014953
v -0.09336494 0.03378733 -0.06030615
v -0.09343374 0.02703801 -0.06937511
v -0.09335464 0.01056582 -0.07831853
v -0.09341334 -0.02511057 -0.07135813
v -0.09343585 -0.03773752 -0.05207425
v -0.09342555 -0.00139604 -0.00167833
v -0.09343585 -0.01637510 -0.00518633
v -0.09343207 -0.02952192 -0.01479581
v -0.09342635 -0.03912389 -0.04030140
v -0.09334881 -0.01296524 -0.07756218
v -0.09335969 0.03720826 -0.02991751
f 11 12 14
f 59 67 66
f 65 61 66
f 20 62 55
f 55 62 67
f 44 65 64
f 64 65 66
f 66 67 64
f 67 62 64
f 5 7 3
f 67 59 57
f 57 59 58
f 24 5 38
f 38 5 23
f 12 11 28
f 10 11 14
f 14 3 10
f 3 7 10
f 10 8 9
f 7 8 10
f 58 59 40
f 14 12 13
f 49 29 61
f 61 65 49
f 32 17 16
f 56 55 67
f 45 17 32
f 45 32 44
f 44 64 45
f 6 5 24
f 7 5 6
f 4 5 3
f 23 5 4
f 52 57 58
f 58 40 52
f 52 40 8
f 67 57 39
f 39 38 67
f 24 38 39
f 66 28 43
f 43 28 11
f 66 61 60
f 60 28 66
f 27 10 9
f 11 10 27
f 27 43 11
f 41 40 59
f 41 27 9
f 9 8 26
f 8 40 26
f 26 41 9
f 40 41 26
f 29 49 30
f 14 13 30
f 30 13 29
f 31 49 65
f 31 65 44
f 44 32 31
f 32 16 31
f 21 1 20
f 21 2 1
f 18 33 19
f 19 33 1
f 19 17 18
f 14 16 19
f 19 16 17
f 19 3 14
f 19 2 3
f 1 2 19
f 1 33 46
f 46 62 20
f 20 1 46
f 55 56 35
f 23 4 36
f 34 8 7
f 34 52 8
f 25 6 24
f 24 39 25
f 7 6 25
f 61 29 50
f 50 60 61
f 29 13 50
f 27 41 42
f 66 43 42
f 43 27 42
f 42 59 66
f 42 41 59
f 49 31 15
f 14 30 15
f 15 30 49
f 15 16 14
f 15 31 16
f 63 64 62
f 62 46 63
f 55 35 54
f 20 55 54
f 54 21 20
f 2 21 54
f 54 35 2
f 23 36 37
f 67 38 37
f 37 38 23
f 37 56 67
f 37 36 56
f 22 4 3
f 22 36 4
f 3 2 22
f 2 35 22
f 22 35 56
f 56 36 22
f 53 39 57
f 53 25 39
f 57 52 53
f 52 34 53
f 53 34 7
f 7 25 53
f 51 13 12
f 51 50 13
f 60 50 51
f 12 28 51
f 28 60 51
f 47 46 33
f 47 63 46
f 63 47 48
f 64 63 48
f 48 33 18
f 48 47 33
f 48 45 64
f 18 17 48
f 17 45 48

