# https://github.com/mikedh/trimesh
v -0.03771463 -0.06706827 0.06848072
v -0.03794121 -0.06792204 0.06662202
v -0.03693058 -0.06774242 0.06612755
v -0.03836963 -0.06811712 0.06596988
v -0.03857473 -0.06732150 0.06653289
v -0.03886681 -0.06683697 0.06574196
v -0.03797863 -0.06602040 0.06613572
v -0.03823735 -0.06583360 0.06566333
v -0.03653898 -0.06622327 0.06547223
v -0.03815908 -0.06615777 0.06648024
v -0.03684331 -0.06831962 0.06533291
v -0.04036925 -0.06803682 0.04944285
v -0.03926611 -0.06795875 0.04812594
v -0.03907605 -0.06947620 0.04901717
v -0.03732406 -0.06862097 0.04809090
v -0.03688028 -0.06852662 0.04805968
v -0.03777893 -0.06985347 0.04925341
v -0.03565973 -0.06899660 0.04930929
v -0.03569201 -0.06760575 0.04834325
v -0.03615695 -0.06664705 0.04810285
v -0.03623315 -0.06615812 0.04810469
v -0.03535383 -0.06553437 0.04940995
v -0.03686021 -0.06434392 0.04953205
v -0.03878505 -0.06445155 0.04922240
v -0.03812745 -0.06540510 0.04805422
v -0.03854895 -0.06572907 0.04808321
v -0.03960883 -0.06649179 0.04826684
v -0.04036313 -0.06594630 0.04929366
v -0.03931408 -0.06748720 0.04813022
v -0.03487438 -0.06679450 0.04955670
v -0.03975588 -0.06527872 0.04964129
v -0.03624951 -0.06941157 0.04963241
v -0.03916961 -0.06930780 0.04966354
v -0.03627966 -0.06650247 0.06448015
v -0.03802885 -0.06556370 0.06477236
v -0.03922556 -0.06683027 0.06491844
v -0.03852091 -0.06832770 0.06516117
v -0.03624916 -0.06684215 0.06340693
v -0.03732273 -0.06559787 0.06362279
v -0.03868456 -0.06595050 0.06376632
v -0.03922338 -0.06737017 0.06394278
v -0.03814813 -0.06848019 0.06414672
f 30 21 22
f 22 21 23
f 23 9 22
f 23 21 25
f 25 21 16
f 17 18 32
f 16 18 17
f 37 14 17
f 33 37 12
f 12 14 33
f 33 14 37
f 30 22 34
f 34 22 9
f 19 18 16
f 19 21 30
f 30 18 19
f 1 9 7
f 9 35 7
f 39 9 23
f 23 35 39
f 39 35 9
f 4 2 1
f 37 17 42
f 23 25 24
f 24 35 23
f 32 18 11
f 11 18 30
f 1 2 11
f 11 17 32
f 11 42 17
f 37 42 11
f 11 4 37
f 2 4 11
f 16 21 20
f 20 19 16
f 21 19 20
f 28 27 12
f 31 24 28
f 24 27 28
f 13 25 16
f 13 14 12
f 12 27 13
f 30 34 38
f 38 11 30
f 34 11 38
f 3 9 1
f 1 11 3
f 3 34 9
f 3 11 34
f 36 28 12
f 26 24 25
f 26 27 24
f 15 13 16
f 14 13 15
f 16 17 15
f 15 17 14
f 37 4 5
f 5 36 37
f 5 4 1
f 1 36 5
f 12 37 41
f 41 36 12
f 37 36 41
f 1 7 10
f 40 24 31
f 35 24 40
f 31 28 40
f 28 36 40
f 29 13 27
f 27 26 29
f 25 13 29
f 29 26 25
f 6 36 1
f 1 10 6
f 6 10 36
f 36 10 8
f 8 40 36
f 35 40 8
f 8 7 35
f 8 10 7

