# https://github.com/mikedh/trimesh
v 0.01226686 0.01713613 -0.10496069
v 0.01340898 0.01978651 -0.10131307
v 0.01144054 0.01651145 -0.10136485
v 0.00980409 0.01629524 -0.10502477
v 0.00868291 0.01652994 -0.10124330
v 0.00774059 0.01706946 -0.10507350
v 0.00647439 0.01879423 -0.10130635
v 0.00634715 0.01957381 -0.10500435
v 0.00749009 0.02223290 -0.10136290
v 0.00829520 0.02285247 -0.10495492
v 0.00995752 0.02307075 -0.10129277
v 0.01107423 0.02284348 -0.10507350
v 0.01201348 0.02229769 -0.10124485
v 0.01328657 0.02057433 -0.10500982
v 0.01027733 0.02108181 -0.08342967
v 0.00837358 0.02020608 -0.08366877
v 0.00865989 0.01890096 -0.08342725
v 0.00950154 0.02119550 -0.08376577
v 0.01090915 0.02092632 -0.08381645
v 0.01151968 0.01862849 -0.08377645
v 0.00975233 0.01775109 -0.08390910
v 0.00804676 0.01870843 -0.08397217
v 0.00799206 0.02043290 -0.08400197
v 0.01141404 0.01998849 -0.08397775
v 0.00937413 0.02173687 -0.08414794
v 0.01140573 0.02107511 -0.08425182
v 0.01190193 0.01922505 -0.08436787
v 0.01055320 0.01771915 -0.08447337
v 0.00824607 0.01830165 -0.08461465
v 0.00890974 0.02153521 -0.08477065
v 0.01123403 0.02129716 -0.08487867
v 0.01190504 0.01969080 -0.08500669
v 0.01128121 0.01815964 -0.08509355
v 0.00902158 0.01771293 -0.08519197
v 0.00780824 0.02008107 -0.08535097
v 0.01195399 0.01985053 -0.08570745
v 0.00961141 0.01756746 -0.08586593
v 0.01154698 0.01833340 -0.08642652
v 0.01035261 0.02176944 -0.08690442
v 0.01100853 0.01844615 -0.10508672
v 0.01162396 0.01979586 -0.10507325
v 0.00876888 0.02092141 -0.10507620
v 0.00814687 0.01953545 -0.10508034
f 11 12 10
f 8 23 9
f 9 10 8
f 42 43 8
f 12 43 42
f 8 10 42
f 42 10 12
f 2 1 14
f 3 1 38
f 38 1 20
f 35 23 8
f 7 35 8
f 16 23 17
f 23 16 25
f 11 10 25
f 10 9 25
f 13 12 11
f 13 14 12
f 40 14 1
f 40 43 12
f 30 9 23
f 23 25 30
f 30 25 9
f 15 16 17
f 17 20 15
f 20 19 15
f 31 13 11
f 3 38 33
f 33 28 3
f 33 38 20
f 20 28 33
f 37 5 3
f 3 28 37
f 8 43 6
f 43 40 6
f 6 7 8
f 12 14 41
f 41 40 12
f 14 40 41
f 18 25 16
f 16 15 18
f 18 15 25
f 26 15 19
f 25 15 26
f 26 31 25
f 26 36 2
f 2 14 26
f 14 13 26
f 13 31 26
f 11 25 39
f 39 31 11
f 25 31 39
f 5 37 34
f 4 40 1
f 4 6 40
f 4 1 3
f 3 5 4
f 5 6 4
f 24 19 20
f 24 26 19
f 2 36 27
f 27 24 20
f 26 24 27
f 27 1 2
f 20 1 27
f 7 6 29
f 29 6 5
f 5 34 29
f 17 23 22
f 23 35 22
f 35 7 22
f 7 29 22
f 21 37 28
f 21 34 37
f 17 22 21
f 21 29 34
f 21 22 29
f 21 20 17
f 21 28 20
f 36 26 32
f 32 27 36
f 26 27 32

