# https://github.com/mikedh/trimesh
v 0.15346478 -0.17326857 0.11032059
v 0.16110870 -0.19769981 0.12877464
v 0.16245425 -0.17272163 0.13202304
v 0.16383925 -0.17207596 0.13022276
v 0.16088601 -0.16793929 0.12309296
v 0.15884760 -0.16799198 0.12331584
v 0.15548616 -0.16843859 0.11520054
v 0.15620761 -0.16938356 0.11179836
v 0.15207466 -0.17412153 0.10696447
v 0.15290608 -0.17816496 0.10382774
v 0.15053068 -0.18386409 0.10323701
v 0.15235606 -0.18777153 0.10249984
v 0.15116206 -0.19430661 0.10476129
v 0.15326203 -0.19531073 0.10468706
v 0.15616645 -0.20263128 0.11169901
v 0.15454380 -0.20287685 0.11292554
v 0.15982833 -0.20430035 0.12053951
v 0.15889066 -0.20413296 0.12341971
v 0.16242770 -0.20246296 0.12681496
v 0.16162180 -0.20080859 0.13001334
v 0.16433330 -0.19879141 0.13141551
v 0.16328738 -0.19641194 0.13403434
v 0.16583860 -0.19300533 0.13504964
v 0.16444821 -0.18908304 0.13683676
v 0.16633241 -0.18517948 0.13624174
v 0.16427221 -0.18119421 0.13641189
v 0.16556686 -0.17753459 0.13439361
v 0.17003898 -0.17717678 0.12558746
v 0.16210180 -0.17844096 0.10643211
v 0.16125756 -0.18392719 0.10438126
v 0.16139298 -0.18894896 0.10459487
v 0.16190394 -0.19327234 0.10614772
v 0.17039096 -0.19373638 0.12644989
v 0.17127418 -0.18825471 0.12854044
v 0.17114188 -0.18234956 0.12823466
v 0.17082448 -0.17544712 0.11565707
v 0.17006878 -0.17548834 0.11383261
v 0.16901654 -0.17544712 0.11129226
v 0.16901549 -0.18083714 0.11128979
v 0.17187674 -0.17548834 0.11819742
v 0.17005990 -0.19662616 0.11381126
v 0.16901654 -0.19119514 0.11129226
v 0.16901549 -0.19658516 0.11128979
v 0.17186788 -0.19662616 0.11817604
v 0.17187674 -0.19123636 0.11819739
f 6 2 3
f 27 4 3
f 15 43 17
f 15 14 43
f 11 10 12
f 12 10 30
f 43 14 32
f 17 43 41
f 41 44 17
f 43 44 41
f 6 7 1
f 1 2 6
f 5 4 40
f 6 3 5
f 5 3 4
f 5 38 8
f 5 7 6
f 8 7 5
f 27 3 26
f 26 3 2
f 43 30 39
f 30 38 39
f 37 38 40
f 8 38 29
f 29 10 8
f 29 38 30
f 30 10 29
f 17 18 16
f 16 15 17
f 14 15 16
f 2 1 16
f 18 20 16
f 16 20 2
f 14 12 31
f 31 32 14
f 31 12 30
f 31 30 43
f 43 32 31
f 40 4 28
f 28 4 27
f 21 20 19
f 17 44 19
f 44 21 19
f 19 18 17
f 19 20 18
f 9 10 11
f 11 1 9
f 8 10 9
f 9 7 8
f 9 1 7
f 40 38 36
f 36 5 40
f 38 5 36
f 27 26 25
f 25 26 24
f 24 23 25
f 25 23 34
f 42 44 43
f 40 34 45
f 45 34 44
f 45 37 40
f 44 42 45
f 45 42 38
f 38 37 45
f 13 1 11
f 13 16 1
f 14 16 13
f 11 12 13
f 13 12 14
f 22 20 21
f 21 23 22
f 22 23 24
f 2 20 22
f 24 26 22
f 22 26 2
f 33 21 44
f 33 23 21
f 44 34 33
f 34 23 33
f 27 25 35
f 35 25 34
f 35 28 27
f 35 34 40
f 40 28 35
f 42 39 38
f 43 39 42

