# https://github.com/mikedh/trimesh
v 0.19175391 0.17548244 0.09216824
v 0.19829961 0.17307264 0.08901027
v 0.19572670 0.17255669 0.09118539
v 0.19501766 0.17446091 0.08959049
v 0.19807081 0.17535211 0.08832432
v 0.19705888 0.17429441 0.09448369
v 0.20008163 0.17575991 0.09324092
v 0.19716424 0.17654836 0.09417119
v 0.19227829 0.17353094 0.09383412
v 0.19267716 0.17457448 0.09506249
v 0.19160763 0.17645501 0.09290182
v 0.19932030 0.17247541 0.09139917
v 0.19641389 0.17259111 0.09292434
v 0.19122678 0.17592709 0.09305412
v 0.19201024 0.17614591 0.09443197
v 0.19600751 0.17787259 0.09198641
v 0.19528394 0.17622339 0.08960004
v 0.19245833 0.17617309 0.09472834
v 0.19185396 0.17399311 0.09262189
v 0.19224401 0.17542359 0.09496871
v 0.19936801 0.17771786 0.09145631
v 0.19232264 0.17658286 0.09328119
v 0.19964656 0.17556521 0.09201156
v 0.19945287 0.17390766 0.09162907
v 0.19113206 0.17498958 0.09272604
v 0.19138646 0.17406421 0.09386969
v 0.19130029 0.17434031 0.09250682
v 0.19993724 0.17358984 0.09284652
v 0.19200106 0.17357188 0.09434411
v 0.19841861 0.17711796 0.08915817
v 0.19176453 0.17556518 0.09481259
v 0.19862701 0.17446403 0.08959924
v 0.19869561 0.17589709 0.08974287
v 0.19918826 0.17647991 0.09093629
f 7 23 21
f 10 29 6
f 12 2 32
f 32 2 5
f 5 2 4
f 4 17 5
f 4 1 17
f 33 32 5
f 23 32 33
f 3 2 12
f 3 4 2
f 7 6 28
f 28 23 7
f 13 6 29
f 13 3 12
f 29 3 13
f 12 28 13
f 13 28 6
f 31 29 10
f 7 21 8
f 8 21 16
f 8 6 7
f 10 6 8
f 12 32 24
f 24 32 23
f 24 28 12
f 23 28 24
f 16 17 11
f 17 1 11
f 30 33 5
f 5 17 30
f 30 17 16
f 16 21 30
f 34 21 23
f 23 33 34
f 34 30 21
f 33 30 34
f 4 3 27
f 25 1 27
f 1 4 27
f 18 8 16
f 15 31 18
f 16 11 22
f 22 11 15
f 22 18 16
f 15 18 22
f 14 1 25
f 14 11 1
f 14 31 15
f 15 11 14
f 25 27 26
f 26 27 29
f 29 31 26
f 26 14 25
f 31 14 26
f 29 27 19
f 19 27 3
f 10 8 20
f 8 18 20
f 20 31 10
f 20 18 31
f 9 3 29
f 29 19 9
f 9 19 3

