# https://github.com/mikedh/trimesh
v 0.20267813 0.18544326 0.12103466
v 0.20002671 0.17183769 0.11467137
v 0.15500311 0.19248079 0.10233611
v 0.15685139 0.19970296 0.10683976
v 0.20216496 0.19243363 0.11991382
v 0.20083981 0.19838029 0.11660839
v 0.16022287 0.20409353 0.11485629
v 0.15544039 0.20221191 0.11121002
v 0.15861892 0.20434349 0.11888369
v 0.19902194 0.17605536 0.10445042
v 0.20126146 0.17930019 0.10985239
v 0.15179714 0.18681174 0.10241444
v 0.15273051 0.19535811 0.10466779
v 0.16843356 0.18273987 0.13483296
v 0.16534390 0.17868679 0.13511922
v 0.16743818 0.17598001 0.13236781
v 0.15506486 0.19619202 0.11035204
v 0.19142631 0.18878791 0.08620684
v 0.18907824 0.19259789 0.08827069
v 0.19270784 0.19702064 0.08930069
v 0.18870366 0.18353728 0.08717702
v 0.15486051 0.17629651 0.10993051
v 0.16522956 0.17048382 0.12720541
v 0.16356626 0.20360487 0.12305134
v 0.16585479 0.20039458 0.12865881
v 0.19456244 0.17048904 0.09377814
v 0.18990176 0.17539328 0.09032496
v 0.19180946 0.17900404 0.08713184
v 0.16760081 0.19528752 0.13283549
v 0.15450001 0.18548767 0.10133454
v 0.20173286 0.16985394 0.11108907
v 0.19473906 0.18278569 0.09405467
v 0.19117376 0.20047753 0.09346299
v 0.15954983 0.16846097 0.11335484
v 0.15659548 0.17285754 0.10633026
v 0.19525011 0.20244286 0.09543827
v 0.16689286 0.16636241 0.11338056
v 0.16816356 0.16636254 0.11030462
v 0.17173226 0.16636269 0.11910569
v 0.16874035 0.16636244 0.11784076
v 0.19028039 0.16636244 0.10891849
v 0.18900974 0.16636254 0.11199449
v 0.18544093 0.16636269 0.10319341
v 0.18843288 0.16636241 0.10445834
v 0.16237726 0.17014982 0.12795714
v 0.16843301 0.18881287 0.13490719
v 0.20124161 0.19286599 0.10977154
v 0.19911003 0.19588944 0.10460999
v 0.16248361 0.19632908 0.12832961
v 0.19461631 0.20419087 0.10172479
v 0.19802661 0.20334454 0.10990142
v 0.19817399 0.16764903 0.10249717
v 0.16194541 0.20255985 0.12691459
v 0.16450190 0.19671902 0.13308649
v 0.16570968 0.18949309 0.13600231
v 0.20468919 0.19422955 0.11822616
v 0.20174738 0.20230188 0.11112412
v 0.20451009 0.17695348 0.11779379
v 0.15235370 0.17877686 0.10375813
v 0.15500294 0.17951819 0.10243529
v 0.20537174 0.18553691 0.11987399
v 0.19806656 0.20435502 0.10223787
v 0.15448308 0.17149109 0.10889889
v 0.15835271 0.16755594 0.11824101
v 0.19621683 0.17784119 0.09765124
v 0.19730009 0.19554623 0.10024286
f 27 28 26
f 57 48 62
f 18 19 20
f 12 18 21
f 18 28 21
f 60 21 28
f 63 26 43
f 62 48 66
f 4 8 33
f 33 20 4
f 55 49 15
f 54 49 55
f 15 14 55
f 55 14 46
f 59 28 27
f 59 60 28
f 22 63 64
f 22 59 63
f 12 59 22
f 32 26 28
f 32 65 26
f 32 28 18
f 18 20 32
f 20 66 32
f 32 66 48
f 26 65 52
f 31 42 52
f 52 43 26
f 44 43 52
f 11 58 31
f 61 58 11
f 65 32 11
f 12 21 30
f 21 60 30
f 30 59 12
f 60 59 30
f 63 43 38
f 38 43 44
f 31 58 2
f 2 42 31
f 54 56 6
f 6 56 57
f 6 25 54
f 57 25 6
f 8 49 9
f 62 66 36
f 36 66 20
f 36 20 33
f 36 50 62
f 33 8 36
f 3 18 12
f 3 19 18
f 1 14 15
f 1 58 61
f 15 58 1
f 46 14 1
f 61 55 1
f 1 55 46
f 29 56 54
f 54 55 29
f 29 55 56
f 61 56 5
f 5 55 61
f 56 55 5
f 35 59 27
f 63 59 35
f 27 26 35
f 35 26 63
f 17 49 8
f 17 22 49
f 44 52 41
f 41 52 42
f 10 11 31
f 65 11 10
f 31 52 10
f 10 52 65
f 61 11 47
f 47 56 61
f 47 32 48
f 47 11 32
f 48 57 47
f 57 56 47
f 64 63 34
f 34 38 64
f 63 38 34
f 64 38 37
f 37 38 44
f 23 2 16
f 16 58 15
f 16 2 58
f 45 2 23
f 39 42 45
f 42 2 45
f 64 39 45
f 45 22 64
f 45 16 15
f 23 16 45
f 15 49 45
f 49 22 45
f 62 50 7
f 7 9 62
f 8 9 7
f 7 36 8
f 50 36 7
f 62 9 24
f 13 4 20
f 13 20 19
f 19 3 13
f 8 4 13
f 13 3 12
f 13 17 8
f 12 22 13
f 22 17 13
f 40 42 39
f 40 39 64
f 64 37 40
f 40 41 42
f 44 41 40
f 40 37 44
f 51 57 62
f 62 24 51
f 53 25 57
f 57 51 53
f 53 51 24
f 54 25 53
f 53 24 9
f 53 49 54
f 53 9 49

