# https://github.com/mikedh/trimesh
v -0.09856747 -0.15699011 -0.09188040
v -0.09915718 -0.15698959 -0.09808488
v 0.09941835 -0.15698996 -0.09773999
v -0.09998393 -0.15033502 -0.08869210
v -0.10200243 -0.15141034 -0.08869343
v -0.10309082 -0.15035901 -0.08869358
v -0.10306775 -0.15040577 -0.10119306
v -0.10200243 -0.15141034 -0.10119318
v -0.09998393 -0.15033502 -0.10119463
v -0.09532373 0.15698845 -0.09838998
v -0.09723063 0.15698790 -0.09207885
v -0.09388275 0.15027703 -0.10119378
v -0.09388275 0.15027703 -0.08869285
v -0.10243605 0.15147043 -0.08869331
v -0.10274902 0.15121773 -0.10119331
v 0.09882562 0.15698852 -0.09788047
v 0.09514402 0.15698852 -0.09200605
v 0.10250797 0.15147042 -0.10119329
v 0.10282092 0.15121774 -0.08869329
v 0.10117567 -0.15137258 -0.10119344
v 0.10008515 -0.14982831 -0.08869327
v 0.10280748 -0.15114055 -0.08869329
v 0.10302978 -0.15083184 -0.10119329
v -0.09106711 0.15122443 -0.08869283
v -0.09115370 0.15125481 -0.10119368
v 0.12291779 0.12474422 -0.08990942
v 0.12110275 0.14369714 -0.08949127
v 0.12180334 0.12367766 -0.08878261
v 0.11863853 0.15698745 -0.08888167
v 0.12063016 0.08452959 -0.08876202
v 0.12153398 -0.13215984 -0.08879521
v 0.12289396 -0.12529818 -0.08989966
v 0.12092343 -0.08862966 -0.08876202
v 0.11855030 -0.15698860 -0.08886129
v 0.12113393 -0.14443981 -0.08990126
v 0.11855030 0.15698749 -0.10102529
v 0.12113395 0.14443867 -0.09998526
v 0.12289398 0.12529702 -0.09998689
v 0.12291778 -0.12474541 -0.09997714
v 0.12110273 -0.14369806 -0.10039534
v 0.11863847 -0.15698856 -0.10100492
v 0.12180337 -0.12367881 -0.10110392
v 0.12063024 -0.08453066 -0.10112454
v 0.12153405 0.13215917 -0.10109134
v 0.12092352 0.08862859 -0.10112454
v -0.11856660 -0.15698854 -0.08888168
v -0.11845875 -0.15698767 -0.10101198
v -0.12162783 0.12546546 -0.08874773
v -0.11845872 0.15698656 -0.08887464
v -0.10922311 0.08894018 -0.08869331
v -0.12166085 -0.10631734 -0.08873296
v -0.10951264 -0.09054067 -0.08869331
v -0.09138970 -0.15147152 -0.08869331
v 0.09114862 -0.15121884 -0.08869329
v 0.10996816 -0.08910286 -0.08869329
v 0.10976068 -0.09120043 -0.08869329
v 0.11015415 0.08973101 -0.08869329
v -0.11856657 0.15698746 -0.10100493
v -0.12238762 -0.12844791 -0.08929259
v -0.12103088 -0.14369804 -0.08949128
v -0.12292574 -0.10825746 -0.08990964
v -0.12282204 0.12529724 -0.08989966
v -0.12106205 0.14443866 -0.08990128
v -0.12106207 -0.14443966 -0.09998528
v -0.12282205 -0.12529826 -0.09998694
v -0.12269756 0.12447616 -0.10045654
v -0.12103085 0.14369683 -0.10039533
v -0.12162790 -0.12546699 -0.10113885
v -0.12166083 0.10631466 -0.10115364
v 0.11009373 -0.08932036 -0.10119329
v -0.10934870 -0.09068199 -0.10119331
v -0.10934868 0.08915768 -0.10119331
v 0.11015415 0.09043081 -0.10119329
f 1 34 46
f 1 46 47
f 47 2 1
f 63 49 58
f 28 32 26
f 68 69 71
f 15 69 58
f 58 69 66
f 66 69 68
f 2 47 41
f 38 37 26
f 44 37 38
f 34 41 35
f 35 41 40
f 65 66 68
f 61 62 65
f 62 66 65
f 46 51 59
f 59 60 46
f 59 62 61
f 61 65 59
f 59 65 60
f 64 47 46
f 46 60 64
f 60 65 64
f 68 47 64
f 64 65 68
f 49 14 29
f 36 37 44
f 36 29 37
f 7 71 9
f 68 71 7
f 7 47 68
f 62 63 67
f 67 66 62
f 67 63 58
f 58 66 67
f 3 34 1
f 3 41 34
f 1 2 3
f 2 41 3
f 40 41 42
f 44 38 42
f 48 14 49
f 49 63 48
f 48 63 62
f 62 59 48
f 48 59 51
f 27 28 26
f 27 29 28
f 26 37 27
f 37 29 27
f 28 29 19
f 19 24 4
f 19 29 14
f 14 24 19
f 10 36 58
f 34 35 31
f 31 35 32
f 32 28 31
f 28 33 31
f 34 31 22
f 18 36 44
f 44 73 18
f 18 73 9
f 8 7 9
f 47 7 8
f 69 15 72
f 9 71 72
f 72 71 69
f 45 73 44
f 44 42 45
f 39 42 38
f 26 32 39
f 39 38 26
f 40 42 39
f 32 35 39
f 39 35 40
f 13 24 14
f 4 24 13
f 6 52 51
f 4 52 6
f 6 51 46
f 50 52 4
f 50 13 14
f 4 13 50
f 14 48 50
f 50 48 51
f 51 52 50
f 28 19 57
f 57 19 4
f 49 29 11
f 58 49 11
f 11 10 58
f 29 36 16
f 36 10 16
f 53 46 34
f 12 18 9
f 9 72 12
f 12 72 15
f 20 41 47
f 47 8 20
f 20 8 9
f 9 73 20
f 43 45 42
f 30 33 28
f 28 57 30
f 30 57 33
f 55 57 4
f 33 57 55
f 10 11 17
f 17 16 10
f 17 11 29
f 29 16 17
f 34 22 54
f 54 53 34
f 54 22 4
f 4 53 54
f 4 6 5
f 5 53 4
f 5 6 46
f 46 53 5
f 25 12 15
f 18 12 25
f 36 18 25
f 25 15 58
f 58 36 25
f 70 43 42
f 70 20 73
f 73 45 70
f 45 43 70
f 4 22 21
f 21 55 4
f 23 70 42
f 20 70 23
f 23 42 41
f 41 20 23
f 56 21 22
f 55 21 56
f 56 22 31
f 56 31 33
f 33 55 56

