# https://github.com/mikedh/trimesh
v -0.10647275 -0.08759774 -0.08740958
v -0.10645245 -0.08782557 -0.08831943
v -0.10915492 -0.08766679 -0.08744084
v -0.10895705 -0.08775812 -0.08833406
v -0.11024012 -0.08981562 -0.08832205
v -0.11040105 -0.08981062 -0.08743371
v -0.10913913 -0.09198069 -0.08834736
v -0.10909417 -0.09217792 -0.08745071
v -0.10687734 -0.09227737 -0.08831009
v -0.10648608 -0.09219124 -0.08745636
v -0.10531655 -0.09002516 -0.08833110
v -0.10513504 -0.08987157 -0.08742728
v -0.10771202 -0.08754746 -0.08646051
v -0.10972772 -0.08860042 -0.08666198
v -0.10904822 -0.08759989 -0.08627756
v -0.10643012 -0.08756009 -0.08630105
v -0.10551735 -0.08907929 -0.08548831
v -0.10506127 -0.08992002 -0.08627806
v -0.10642319 -0.09226474 -0.08629516
v -0.10910245 -0.09229974 -0.08625363
v -0.11049455 -0.08991704 -0.08627446
v -0.10908927 -0.09227572 -0.08517411
v -0.10807219 -0.08753542 -0.08438736
v -0.11006395 -0.08917546 -0.08443378
v -0.11048757 -0.08991647 -0.08514583
v -0.10915460 -0.08757249 -0.08514911
v -0.10906339 -0.08759276 -0.08404256
v -0.11039479 -0.08989349 -0.08407906
v -0.10915150 -0.09222522 -0.08407423
v -0.10646448 -0.09215744 -0.08409620
v -0.10507877 -0.08994911 -0.08405300
v -0.10567475 -0.09094702 -0.08313610
v -0.10802372 -0.09230654 -0.08332586
v -0.10988875 -0.09085529 -0.08314025
v -0.10993372 -0.08907247 -0.08309313
v -0.10840665 -0.08767989 -0.08302944
v -0.10661997 -0.08761101 -0.08361156
v -0.10861238 -0.09219084 -0.08294526
v -0.10642050 -0.09189747 -0.08294526
v -0.10589352 -0.08828844 -0.08294526
v -0.10895770 -0.08896532 -0.08865113
v -0.10720029 -0.08870992 -0.08846440
v -0.10929567 -0.09008324 -0.08860961
v -0.10835134 -0.09137997 -0.08857113
v -0.10627763 -0.09018674 -0.08846071
v -0.10678932 -0.09103602 -0.08852503
f 18 40 31
f 40 32 31
f 20 9 33
f 20 8 9
f 21 8 20
f 17 40 18
f 36 27 35
f 1 2 4
f 33 30 39
f 39 30 32
f 39 32 40
f 33 9 19
f 19 30 33
f 32 30 19
f 18 31 19
f 19 31 32
f 21 20 29
f 9 8 7
f 7 8 21
f 9 46 11
f 37 36 40
f 2 1 12
f 12 11 2
f 18 19 12
f 33 39 38
f 38 29 33
f 38 36 35
f 40 36 38
f 38 39 40
f 22 20 33
f 33 29 22
f 22 29 20
f 21 29 25
f 25 24 21
f 25 28 35
f 35 24 25
f 44 46 9
f 9 7 44
f 6 7 21
f 5 7 6
f 21 14 6
f 45 11 46
f 45 42 2
f 2 11 45
f 10 19 9
f 9 11 10
f 10 12 19
f 11 12 10
f 3 6 14
f 15 13 3
f 4 5 3
f 5 6 3
f 3 1 4
f 3 13 1
f 35 28 34
f 34 38 35
f 29 38 34
f 28 25 34
f 34 25 29
f 43 7 5
f 43 44 7
f 26 13 15
f 15 3 26
f 35 27 26
f 26 24 35
f 26 3 14
f 26 14 21
f 21 24 26
f 1 13 16
f 16 37 40
f 40 17 16
f 16 12 1
f 16 17 18
f 18 12 16
f 46 44 41
f 44 43 41
f 41 45 46
f 42 45 41
f 4 2 41
f 2 42 41
f 41 5 4
f 41 43 5
f 37 16 23
f 23 16 13
f 27 36 23
f 36 37 23
f 23 26 27
f 13 26 23

