# https://github.com/mikedh/trimesh
v -0.03029460 0.06659832 0.05011226
v -0.03116430 0.06319798 0.04991632
v -0.03230997 0.07040213 0.04977368
v -0.03464897 0.05983948 0.05049797
v -0.03581497 0.06048515 0.04975413
v -0.03062424 0.15227597 0.05056808
v -0.03126539 0.14887968 0.04982216
v -0.03351359 0.15675955 0.04977668
v -0.03295604 0.15693040 0.05062172
v -0.03093972 0.06309580 0.06127208
v -0.03030377 0.06676417 0.06190095
v -0.03396740 0.06060820 0.06202929
v -0.17925012 0.15698766 0.05444051
v -0.17895094 0.15698766 0.05762634
v -0.17532981 0.15698766 0.05848647
v -0.17496594 0.15698766 0.05360055
v -0.08674716 0.15698765 0.05848647
v -0.08578731 0.15698765 0.05476571
v -0.08840794 0.15698765 0.05309032
v -0.15129519 0.06533954 0.04966790
v -0.14988927 0.06475429 0.06216790
v -0.12913287 0.06505613 0.04966791
v -0.03646460 0.06770095 0.06216791
v -0.03661612 0.06653400 0.04966791
v -0.03812210 0.06526828 0.06216791
v -0.03838082 0.06526828 0.04966791
v -0.03838082 0.15126610 0.06216791
v -0.03812209 0.15126610 0.04966791
v -0.03645791 0.14960191 0.06216791
v -0.03645791 0.14934315 0.04966791
v -0.20483375 0.14323758 0.06216790
v -0.20522375 0.14389979 0.04966790
v -0.20461466 0.14617307 0.06216790
v -0.20394578 0.14655152 0.04966790
v -0.20394576 0.06998284 0.06216790
v -0.20488067 0.07069756 0.04966790
v -0.20522376 0.07263461 0.06216790
v -0.20509437 0.07285869 0.04966790
v -0.20282114 0.07023191 0.04966790
v -0.20587470 0.15698679 0.06208268
v -0.03363601 0.15697288 0.06194185
v -0.08407311 0.15136143 0.06216791
v -0.20914957 0.14487889 0.06208693
v -0.20975087 0.07745082 0.06196349
v -0.20175212 0.06420292 0.06212195
v -0.19159785 0.06041569 0.06205658
v -0.03097551 0.14933758 0.06200291
v -0.03138064 0.15418150 0.06183911
v -0.17099799 0.15121284 0.06216790
v -0.18265686 0.15113457 0.06216790
v -0.20910497 0.14504464 0.04974106
v -0.20927353 0.07655524 0.04974295
v -0.20594868 0.15698620 0.04975957
v -0.18267029 0.15121284 0.04966790
v -0.09242984 0.15136143 0.04966791
v -0.19418984 0.06049644 0.04977703
v -0.20614469 0.06825582 0.04988910
v -0.21010048 0.14072794 0.05047239
v -0.21012800 0.14076342 0.06131032
v -0.20873635 0.14978619 0.05060072
v -0.20864916 0.15009702 0.06126853
v -0.20998147 0.07610184 0.05055507
v -0.19190159 0.05975242 0.05042894
v -0.19197660 0.05973514 0.06137721
v -0.19828737 0.06146111 0.05057229
v -0.19843112 0.06152816 0.06126356
v -0.20266881 0.06444526 0.05021920
v -0.20429192 0.06566554 0.06126358
v -0.20830584 0.07166854 0.06161827
v -0.03558467 0.05976100 0.06137646
f 6 11 1
f 53 61 40
f 1 11 10
f 10 11 12
f 4 10 12
f 23 25 12
f 12 11 23
f 7 6 1
f 11 6 47
f 29 23 47
f 47 23 11
f 58 62 59
f 59 62 44
f 1 10 2
f 10 4 2
f 2 7 1
f 2 3 7
f 7 3 30
f 36 57 52
f 62 58 52
f 52 57 62
f 32 53 34
f 53 54 34
f 55 53 28
f 55 54 53
f 28 53 8
f 53 9 8
f 8 30 28
f 7 30 8
f 6 7 8
f 8 9 6
f 19 9 53
f 53 16 19
f 59 61 60
f 60 58 59
f 61 53 60
f 46 21 45
f 25 21 46
f 12 25 46
f 65 64 66
f 45 68 66
f 66 46 45
f 64 46 66
f 70 4 12
f 12 46 70
f 70 46 64
f 63 64 65
f 4 70 63
f 63 70 64
f 59 44 43
f 43 61 59
f 40 61 43
f 69 44 62
f 62 57 69
f 69 57 68
f 69 68 45
f 45 44 69
f 41 17 40
f 40 27 41
f 9 19 41
f 41 27 29
f 29 47 41
f 40 43 33
f 13 53 40
f 13 16 53
f 68 57 67
f 65 66 67
f 67 66 68
f 24 30 3
f 38 52 32
f 36 52 38
f 51 53 32
f 32 52 51
f 51 52 58
f 51 60 53
f 58 60 51
f 56 57 36
f 56 67 57
f 56 63 65
f 65 67 56
f 17 41 18
f 18 41 19
f 48 47 6
f 48 41 47
f 6 9 48
f 9 41 48
f 40 33 50
f 45 21 35
f 40 17 15
f 3 2 5
f 5 24 3
f 5 2 4
f 4 63 5
f 63 56 5
f 42 27 40
f 37 43 44
f 37 44 45
f 45 35 37
f 14 13 40
f 40 15 14
f 39 56 36
f 39 20 56
f 24 5 26
f 40 50 49
f 49 42 40
f 31 33 43
f 43 37 31
f 22 26 5
f 22 5 56
f 56 20 22
f 14 19 16
f 17 18 14
f 16 13 14
f 14 18 19
f 14 15 17
f 31 21 25
f 31 23 29
f 25 23 31
f 29 27 31
f 31 35 21
f 31 50 33
f 27 42 31
f 31 49 50
f 31 37 35
f 42 49 31
f 30 24 22
f 22 38 32
f 28 30 22
f 32 34 22
f 22 55 28
f 22 34 54
f 54 55 22
f 36 38 22
f 22 39 36
f 20 39 22
f 24 26 22

