# https://github.com/mikedh/trimesh
v 0.10519064 0.21531342 0.02377579
v 0.10471444 0.21287599 0.02357542
v 0.10420307 0.21669186 0.02357064
v 0.10005434 0.21355055 0.02357637
v 0.09999119 0.21358925 0.02637836
v 0.10015114 0.21605287 0.02360564
v 0.10009730 0.21568487 0.02637677
v 0.10164554 0.21717120 0.02638293
v 0.10225644 0.21723712 0.02359539
v 0.10456509 0.21651905 0.02635559
v 0.10502929 0.21353238 0.02637596
v 0.10248962 0.21178079 0.02638505
v 0.10184947 0.21195310 0.02359647
v 0.10353080 0.21480618 0.03440304
v 0.10371527 0.21470037 0.03413689
v 0.10394952 0.21519268 0.03392065
v 0.10326644 0.21363922 0.03409051
v 0.10237989 0.21341284 0.03409594
v 0.10135514 0.21414376 0.03395007
v 0.10158532 0.21502040 0.03435606
v 0.10213524 0.21613105 0.03395997
v 0.10376882 0.21364172 0.03385522
v 0.10253197 0.21306132 0.03377766
v 0.10141782 0.21349841 0.03371654
v 0.10102762 0.21527017 0.03362851
v 0.10268229 0.21613351 0.03351997
v 0.10284724 0.21306277 0.03331193
v 0.10120077 0.21365646 0.03320815
v 0.10142322 0.21577833 0.03310375
v 0.10320389 0.21597930 0.03301570
v 0.10409817 0.21469014 0.03291744
v 0.10320307 0.21315594 0.03284458
v 0.10100279 0.21430388 0.03268086
v 0.10187824 0.21329439 0.02356218
v 0.10331280 0.21584881 0.02352435
f 5 25 7
f 3 10 1
f 9 10 3
f 1 2 3
f 1 10 16
f 5 7 6
f 5 24 28
f 13 2 12
f 5 13 12
f 12 24 5
f 35 3 2
f 9 3 35
f 35 6 9
f 33 25 5
f 5 28 33
f 33 28 25
f 19 20 25
f 25 28 19
f 19 28 24
f 22 12 2
f 22 31 16
f 6 35 4
f 4 13 5
f 5 6 4
f 8 10 9
f 9 6 8
f 8 6 7
f 14 16 21
f 21 20 14
f 25 20 21
f 11 22 2
f 31 22 11
f 11 2 1
f 1 16 11
f 16 31 11
f 24 12 23
f 15 16 14
f 14 22 15
f 15 22 16
f 13 4 34
f 34 4 35
f 34 2 13
f 34 35 2
f 26 21 16
f 10 8 26
f 8 21 26
f 25 21 29
f 29 21 8
f 29 7 25
f 29 8 7
f 27 23 12
f 22 23 27
f 17 22 14
f 17 23 22
f 24 23 18
f 18 19 24
f 20 19 18
f 23 17 18
f 14 20 18
f 18 17 14
f 30 16 10
f 10 26 30
f 30 26 16
f 12 22 32
f 32 27 12
f 22 27 32

