# https://github.com/mikedh/trimesh
v 0.10398882 0.10045629 -0.08741726
v 0.10638870 0.10071355 -0.08832072
v 0.10651034 0.10065369 -0.08745634
v 0.10771104 0.10296424 -0.08745609
v 0.10757562 0.10320445 -0.08831224
v 0.10627919 0.10518652 -0.08745074
v 0.10619365 0.10502972 -0.08835941
v 0.10381317 0.10499404 -0.08831224
v 0.10367634 0.10504012 -0.08745315
v 0.10246274 0.10266027 -0.08743180
v 0.10262625 0.10250309 -0.08832072
v 0.10400824 0.10067784 -0.08834899
v 0.10574824 0.10055582 -0.08667659
v 0.10505889 0.10525802 -0.08657469
v 0.10733577 0.10210107 -0.08648489
v 0.10241069 0.10279341 -0.08628844
v 0.10387492 0.10042482 -0.08629564
v 0.10780447 0.10301432 -0.08629686
v 0.10656319 0.10066572 -0.08516669
v 0.10359127 0.10505402 -0.08517555
v 0.10240519 0.10274699 -0.08514641
v 0.10388929 0.10041899 -0.08515287
v 0.10578464 0.10054409 -0.08445264
v 0.10281294 0.10364382 -0.08436062
v 0.10494547 0.10522879 -0.08442117
v 0.10629165 0.10529026 -0.08513592
v 0.10387959 0.10049772 -0.08403387
v 0.10649349 0.10059586 -0.08404581
v 0.10627784 0.10516494 -0.08409776
v 0.10360114 0.10499730 -0.08407541
v 0.10589177 0.10064811 -0.08307206
v 0.10414751 0.10075892 -0.08308889
v 0.10252374 0.10259075 -0.08361911
v 0.10309016 0.10411862 -0.08337466
v 0.10494797 0.10521857 -0.08333944
v 0.10779532 0.10302127 -0.08402504
v 0.10727149 0.10207859 -0.08311241
v 0.10689777 0.10458211 -0.08294525
v 0.10395002 0.10503499 -0.08294525
v 0.10267534 0.10205782 -0.08294525
v 0.10499092 0.10109749 -0.08296979
v 0.10632862 0.10196176 -0.08865112
v 0.10658332 0.10331649 -0.08860874
v 0.10581469 0.10419292 -0.08857316
v 0.10380864 0.10218747 -0.08846641
v 0.10401939 0.10388252 -0.08857047
f 18 38 36
f 18 36 15
f 15 36 19
f 4 5 18
f 4 2 5
f 18 15 4
f 21 40 33
f 33 34 21
f 40 34 33
f 39 40 38
f 39 34 40
f 19 36 37
f 37 36 38
f 38 40 41
f 41 37 38
f 31 37 41
f 40 32 41
f 41 32 31
f 10 8 11
f 10 40 21
f 18 5 6
f 6 38 18
f 3 15 19
f 3 1 2
f 13 1 3
f 2 4 3
f 3 4 15
f 19 37 28
f 28 37 31
f 28 3 19
f 22 23 28
f 13 3 28
f 28 23 13
f 27 40 22
f 27 32 40
f 31 32 27
f 22 28 27
f 27 28 31
f 5 2 42
f 42 43 5
f 8 10 9
f 35 39 38
f 8 6 7
f 5 43 7
f 7 6 5
f 17 1 13
f 17 23 22
f 13 23 17
f 22 40 17
f 40 10 17
f 17 10 11
f 11 1 17
f 12 42 2
f 12 1 11
f 2 1 12
f 43 42 46
f 11 8 46
f 16 10 21
f 16 9 10
f 25 35 14
f 14 6 8
f 8 9 14
f 20 35 25
f 25 14 20
f 20 14 9
f 39 35 20
f 9 16 20
f 8 7 44
f 44 46 8
f 44 7 43
f 43 46 44
f 42 12 45
f 45 46 42
f 45 12 11
f 11 46 45
f 6 14 26
f 26 14 35
f 38 6 26
f 34 39 30
f 30 20 34
f 39 20 30
f 34 20 24
f 24 20 16
f 21 34 24
f 24 16 21
f 29 35 38
f 38 26 29
f 29 26 35

