# https://github.com/mikedh/trimesh
v 0.19828875 -0.19589694 -0.06674426
v 0.19763945 -0.19649861 -0.06689661
v 0.20187864 -0.19431472 -0.06779611
v 0.20533746 -0.19437647 -0.06752013
v 0.20465165 -0.19463036 -0.06967456
v 0.19808097 -0.19770104 -0.06703446
v 0.19822021 -0.19849892 -0.06508751
v 0.19797794 -0.19807847 -0.06488051
v 0.19757686 -0.19813623 -0.06576873
v 0.20600606 -0.19527294 -0.06651368
v 0.19819890 -0.19548409 -0.06582888
v 0.20320261 -0.19747365 -0.06470308
v 0.20617579 -0.19792837 -0.06606960
v 0.19772064 -0.19809827 -0.06650451
v 0.20119794 -0.19614672 -0.06952981
v 0.20164492 -0.19928671 -0.06839436
v 0.20547000 -0.19964299 -0.06764349
v 0.20259486 -0.19951624 -0.06618586
v 0.20139589 -0.19809918 -0.06961334
v 0.19856449 -0.19739987 -0.06403848
v 0.20456813 -0.19916064 -0.06985549
v 0.20300058 -0.19521982 -0.06527210
v 0.19739984 -0.19721448 -0.06653243
v 0.19821907 -0.19555498 -0.06464566
v 0.19810981 -0.19738779 -0.06422933
v 0.19878825 -0.19589267 -0.06456985
v 0.20519968 -0.19836938 -0.06846863
v 0.20411564 -0.19700683 -0.07093888
v 0.20479120 -0.19614407 -0.06947184
v 0.20539339 -0.19556081 -0.06806084
v 0.19724254 -0.19627749 -0.06591806
v 0.19799472 -0.19625834 -0.06449106
v 0.20475255 -0.19763849 -0.06954238
f 5 15 3
f 28 15 5
f 19 15 28
f 19 2 15
f 3 22 4
f 4 5 3
f 21 17 16
f 21 19 28
f 16 19 21
f 18 7 16
f 16 17 18
f 18 20 7
f 18 17 13
f 1 11 3
f 3 15 1
f 15 2 1
f 31 11 1
f 1 2 31
f 16 7 14
f 14 19 16
f 28 5 29
f 5 30 29
f 10 4 22
f 13 30 10
f 10 30 5
f 5 4 10
f 22 20 12
f 13 10 12
f 12 10 22
f 12 18 13
f 20 18 12
f 24 22 3
f 3 11 24
f 24 11 31
f 7 20 25
f 2 19 6
f 19 14 6
f 9 14 7
f 9 25 31
f 26 20 22
f 22 24 26
f 26 24 20
f 20 24 32
f 32 25 20
f 32 24 31
f 31 25 32
f 17 21 27
f 13 17 27
f 27 30 13
f 2 6 23
f 23 6 14
f 31 2 23
f 23 9 31
f 14 9 23
f 7 25 8
f 8 9 7
f 25 9 8
f 33 27 21
f 33 21 28
f 28 29 33
f 33 29 30
f 30 27 33

