# https://github.com/mikedh/trimesh
v 0.20031911 -0.17446834 0.11299464
v 0.20100965 -0.17357940 0.11475977
v 0.20044078 -0.17408059 0.11449736
v 0.19997183 -0.17524424 0.11331127
v 0.20070488 -0.17620534 0.11464019
v 0.20053061 -0.17617312 0.11295084
v 0.20033506 -0.17597066 0.11329352
v 0.20534398 -0.17763314 0.11303589
v 0.20829472 -0.17755934 0.11227692
v 0.20588162 -0.17643899 0.11442114
v 0.20103038 -0.17657634 0.11436749
v 0.20137505 -0.17547356 0.11542001
v 0.20044896 -0.17457587 0.11256114
v 0.20103448 -0.17353234 0.11371099
v 0.20466268 -0.17255206 0.11151837
v 0.20697617 -0.17338964 0.10905482
v 0.20406010 -0.17393594 0.10998399
v 0.20455842 -0.17751612 0.11120597
v 0.20758488 -0.17758064 0.10999782
v 0.20897026 -0.17611816 0.11335127
v 0.20101714 -0.17508421 0.11532429
v 0.20405135 -0.17605289 0.11001262
v 0.20700564 -0.17509227 0.10854257
v 0.20841479 -0.17417061 0.11197229
v 0.20890710 -0.17396829 0.11330652
v 0.20847172 -0.17580197 0.11211182
v 0.20776057 -0.17250801 0.11044989
v 0.20543108 -0.17269472 0.11342522
v 0.20849323 -0.17271469 0.11220816
v 0.20607669 -0.17428632 0.11470717
v 0.20800731 -0.17644496 0.11099061
f 27 23 16
f 23 17 16
f 27 16 15
f 15 16 17
f 17 13 15
f 4 13 6
f 18 19 8
f 31 26 20
f 20 19 31
f 23 26 31
f 31 19 23
f 20 26 24
f 24 26 23
f 28 15 2
f 27 15 28
f 2 15 14
f 14 15 13
f 14 3 2
f 4 6 7
f 22 13 17
f 22 6 13
f 22 17 23
f 18 6 22
f 23 19 22
f 22 19 18
f 9 19 20
f 9 8 19
f 10 9 20
f 8 9 10
f 30 28 2
f 25 28 30
f 12 10 30
f 20 25 30
f 30 10 20
f 18 8 11
f 8 10 11
f 11 10 12
f 11 6 18
f 11 7 6
f 2 3 21
f 21 30 2
f 12 30 21
f 27 28 29
f 29 28 25
f 29 23 27
f 29 24 23
f 29 25 20
f 20 24 29
f 1 14 13
f 3 14 1
f 1 13 4
f 4 3 1
f 4 7 5
f 7 11 5
f 5 3 4
f 5 21 3
f 5 11 12
f 12 21 5

