# https://github.com/mikedh/trimesh
v -0.13375332 0.06848844 0.06593533
v -0.13154020 0.07034086 0.06228771
v -0.13411555 0.06751813 0.06233946
v -0.13385478 0.06588808 0.06599940
v -0.13330927 0.06488088 0.06221792
v -0.13252274 0.06413218 0.06604813
v -0.13050795 0.06341208 0.06228097
v -0.12972457 0.06351308 0.06597898
v -0.12750338 0.06536876 0.06233751
v -0.12713992 0.06631739 0.06592954
v -0.12740609 0.06797271 0.06226740
v -0.12794320 0.06897776 0.06604812
v -0.12873484 0.06972173 0.06221946
v -0.13075027 0.07044886 0.06598445
v -0.12940339 0.06771038 0.04440429
v -0.12969820 0.06563574 0.04464338
v -0.13103065 0.06553683 0.04440186
v -0.12907265 0.06699954 0.04474040
v -0.12973739 0.06826856 0.04479745
v -0.13210957 0.06819931 0.04475108
v -0.13244497 0.06625491 0.04488373
v -0.13103972 0.06489426 0.04494681
v -0.12897670 0.06561986 0.04501022
v -0.13077619 0.06848698 0.04495236
v -0.12868582 0.06752998 0.04512976
v -0.12973985 0.06879186 0.04522937
v -0.13164955 0.06873531 0.04534335
v -0.13270419 0.06701216 0.04544858
v -0.13153860 0.06500589 0.04558342
v -0.12914237 0.06545166 0.04570488
v -0.12863902 0.06758744 0.04580813
v -0.13057340 0.06905511 0.04593226
v -0.13247867 0.06785056 0.04604685
v -0.13251661 0.06610494 0.04618666
v -0.12891072 0.06816446 0.04656411
v -0.13154377 0.06889958 0.04669697
v -0.13266525 0.06625683 0.04685566
v -0.12968977 0.06496316 0.04841131
v -0.13227840 0.06747444 0.06605497
v -0.12924339 0.06787101 0.06605922
v -0.12895600 0.06641629 0.06604786
v -0.13027597 0.06522671 0.06605497
v -0.13192604 0.06577251 0.06605497
f 8 6 7
f 22 38 7
f 4 1 3
f 3 5 4
f 4 5 6
f 2 1 14
f 27 1 2
f 10 8 9
f 6 8 42
f 33 28 3
f 3 1 33
f 28 33 20
f 20 1 27
f 20 33 1
f 37 5 3
f 3 28 37
f 23 9 8
f 6 5 29
f 7 6 29
f 29 22 7
f 39 4 6
f 39 12 14
f 40 12 39
f 14 1 39
f 1 4 39
f 21 20 17
f 28 20 21
f 17 22 21
f 22 29 21
f 21 37 28
f 11 12 10
f 40 42 41
f 41 12 40
f 41 42 8
f 41 8 10
f 10 12 41
f 38 22 30
f 22 23 30
f 30 23 8
f 7 38 30
f 30 8 7
f 16 22 17
f 16 23 22
f 6 42 43
f 43 39 6
f 43 42 40
f 40 39 43
f 32 26 27
f 32 2 14
f 24 20 27
f 27 26 24
f 14 12 13
f 13 32 14
f 26 32 13
f 35 26 13
f 13 11 35
f 12 11 13
f 34 29 5
f 34 21 29
f 5 37 34
f 37 21 34
f 25 26 35
f 25 11 10
f 10 9 25
f 9 23 25
f 27 2 36
f 36 32 27
f 2 32 36
f 20 24 19
f 19 24 26
f 35 11 31
f 31 25 35
f 11 25 31
f 23 16 15
f 15 16 17
f 26 25 15
f 15 19 26
f 17 20 15
f 20 19 15
f 18 25 23
f 23 15 18
f 18 15 25

