# https://github.com/mikedh/trimesh
v -0.03971416 0.11859708 -0.04244882
v -0.04094248 0.11574520 -0.04365213
v -0.05666480 0.14049241 -0.04359191
v -0.05333338 0.14040430 -0.04199128
v -0.05318394 0.14038935 -0.03903788
v -0.05715383 0.14053767 -0.03722716
v -0.05589004 0.11821838 -0.02153101
v -0.05872546 0.11695513 -0.02170113
v -0.05865594 0.12246198 -0.02097713
v -0.04720284 0.12125925 -0.02518655
v -0.04924309 0.11573065 -0.02480483
v -0.04303486 0.12095802 -0.02918305
v -0.04945796 0.13837033 -0.04666175
v -0.04847021 0.13931095 -0.03924540
v -0.04366273 0.13667758 -0.04288483
v -0.03930941 0.11966025 -0.04077140
v -0.03985016 0.13383411 -0.03995615
v -0.04490181 0.13704430 -0.03692900
v -0.05375511 0.11796689 -0.05882005
v -0.05606481 0.12165375 -0.05956453
v -0.04473478 0.11494800 -0.05165556
v -0.04447378 0.11970060 -0.05328410
v -0.04063611 0.11892261 -0.04695245
v -0.05280759 0.11347145 -0.02387748
v -0.05763358 0.12417923 -0.05949457
v -0.07178228 0.13705885 -0.04030875
v -0.06884836 0.13840301 -0.04144991
v -0.06733626 0.13676681 -0.04973191
v -0.04075188 0.13253146 -0.04485483
v -0.04004611 0.12559045 -0.04718360
v -0.04265891 0.12747471 -0.05092793
v -0.06133444 0.13333996 -0.02529208
v -0.05433801 0.13467723 -0.02689330
v -0.05807106 0.13675237 -0.02864405
v -0.06137608 0.12666823 -0.02179773
v -0.06410378 0.12521876 -0.02247888
v -0.04968261 0.11541111 -0.05615280
v -0.04830978 0.13100041 -0.05409821
v -0.05540008 0.13382850 -0.05493385
v -0.04944131 0.13484067 -0.05174565
v -0.05973795 0.13726570 -0.05171698
v -0.05450946 0.13959718 -0.04687868
v -0.05381303 0.13708863 -0.05106825
v -0.05347961 0.11420068 -0.02326325
v -0.06145101 0.12114127 -0.02080053
v -0.06312031 0.12372348 -0.02172138
v -0.05491883 0.11111553 -0.05697928
v -0.05388718 0.13932913 -0.03349585
v -0.04759266 0.13558781 -0.03114380
v -0.04136384 0.12775040 -0.03196715
v -0.03898506 0.12930573 -0.03825965
v -0.04118266 0.13049307 -0.03365360
v -0.04730941 0.10700640 -0.04594453
v -0.04935721 0.10961702 -0.05253443
v -0.04455498 0.11203822 -0.04902667
v -0.04245653 0.13430601 -0.03546608
v -0.04252093 0.11236338 -0.03690993
v -0.04576781 0.11261638 -0.02955708
v -0.04693221 0.10749998 -0.03467676
v -0.05756691 0.12712033 -0.02196735
v -0.06351659 0.12963002 -0.02326625
v -0.06279211 0.13332586 -0.05551340
v -0.05631383 0.12837010 -0.05840281
v -0.03879958 0.12858916 -0.04209225
v -0.04055893 0.11650162 -0.03742835
v -0.06877958 0.13834935 -0.03965493
v -0.06090981 0.12564948 -0.02149540
v -0.05542291 0.11719073 -0.02181798
v -0.04497941 0.13439800 -0.04867688
v -0.05385233 0.12165020 -0.02183035
v -0.04051628 0.11863416 -0.03434170
v -0.03872226 0.12435680 -0.03779823
v -0.03922213 0.12137393 -0.04391920
v -0.07025106 0.13469278 -0.04132308
v -0.05269334 0.13120008 -0.02492158
v -0.06275348 0.12314928 -0.06006665
v -0.04415586 0.12585368 -0.02819633
v -0.05028789 0.10396798 -0.03730408
v -0.05203726 0.10664583 -0.05164673
v -0.04763046 0.10597997 -0.04111548
v -0.04335263 0.11092892 -0.04382145
v -0.05815746 0.12139176 -0.02096731
v -0.06390224 0.13055713 -0.02387855
v -0.06679999 0.12937440 -0.02379978
v -0.06251463 0.13940398 -0.04682528
v -0.06256878 0.14015545 -0.04361338
v -0.06515763 0.13575426 -0.02875720
v -0.07098403 0.13582761 -0.03328285
v -0.06860208 0.13218703 -0.02647613
v -0.04764676 0.10599191 -0.03978068
v -0.06654013 0.12900753 -0.05747265
v -0.03968671 0.11870918 -0.03848865
v -0.07027363 0.13472788 -0.05045645
v -0.05065598 0.12334090 -0.05778651
v -0.05780476 0.11548618 -0.02261396
v -0.04546568 0.10812910 -0.03825370
v -0.05503071 0.11125690 -0.02384606
v -0.04539116 0.13048525 -0.02871590
v -0.06300888 0.12352640 -0.05455838
v -0.06112026 0.13904875 -0.03258793
v -0.06377798 0.13992780 -0.03749361
v -0.06927884 0.13319580 -0.03059566
v -0.05914878 0.11759511 -0.06004090
v -0.05053556 0.12685126 -0.02390615
v -0.05190194 0.10647256 -0.02932381
v -0.04674961 0.12535666 -0.05505382
v -0.06727516 0.13806926 -0.03413293
v -0.05024753 0.10389006 -0.04355608
f 26 28 93
f 76 99 93
f 93 99 95
f 78 95 108
f 108 95 79
f 95 99 79
f 26 107 66
f 88 107 26
f 105 11 97
f 95 78 97
f 97 78 105
f 34 33 48
f 76 93 91
f 80 78 108
f 29 17 64
f 18 14 48
f 47 79 103
f 103 99 76
f 103 79 99
f 108 79 53
f 53 80 108
f 81 80 53
f 54 79 47
f 54 53 79
f 47 103 19
f 101 66 107
f 102 88 74
f 95 102 74
f 74 93 95
f 26 93 74
f 74 88 26
f 45 95 8
f 95 97 8
f 72 50 71
f 71 50 12
f 10 70 11
f 11 12 10
f 84 102 95
f 89 88 84
f 84 88 102
f 87 88 89
f 107 88 87
f 33 34 32
f 61 60 32
f 34 87 32
f 32 87 89
f 65 71 57
f 72 64 51
f 51 64 17
f 51 50 72
f 106 31 22
f 38 31 106
f 30 23 22
f 22 31 30
f 29 64 30
f 30 31 29
f 2 57 81
f 65 57 2
f 98 50 52
f 52 51 17
f 50 51 52
f 63 39 38
f 25 76 63
f 76 91 63
f 29 31 69
f 69 31 38
f 20 76 25
f 20 103 76
f 20 19 103
f 25 63 20
f 37 54 47
f 47 19 37
f 55 2 81
f 23 2 55
f 81 53 55
f 53 54 55
f 66 101 27
f 27 28 26
f 26 66 27
f 24 97 11
f 11 44 24
f 24 44 97
f 97 44 68
f 68 8 97
f 11 70 68
f 68 44 11
f 92 71 65
f 92 16 72
f 72 71 92
f 70 10 104
f 104 60 70
f 12 50 77
f 77 10 12
f 77 50 98
f 98 104 77
f 77 104 10
f 46 84 45
f 36 95 45
f 45 84 36
f 36 84 95
f 9 82 70
f 70 60 9
f 45 82 9
f 35 60 61
f 35 46 45
f 61 84 35
f 84 46 35
f 107 87 100
f 100 87 34
f 100 101 107
f 100 34 48
f 83 84 61
f 61 32 83
f 89 84 83
f 83 32 89
f 96 80 81
f 81 57 96
f 58 11 105
f 58 57 71
f 58 12 11
f 58 71 12
f 94 106 22
f 22 37 94
f 94 37 19
f 19 20 94
f 94 20 63
f 38 106 94
f 94 63 38
f 73 30 64
f 73 64 72
f 72 16 73
f 23 30 73
f 98 52 56
f 17 18 56
f 56 52 17
f 62 63 91
f 39 63 62
f 62 41 39
f 28 41 62
f 62 93 28
f 62 91 93
f 15 69 13
f 15 13 14
f 15 17 29
f 29 69 15
f 15 18 17
f 14 18 15
f 38 39 40
f 40 69 38
f 13 69 40
f 14 13 4
f 54 37 21
f 21 55 54
f 21 37 22
f 22 23 21
f 23 55 21
f 45 8 7
f 8 68 7
f 7 82 45
f 70 82 7
f 7 68 70
f 60 104 75
f 33 32 75
f 75 32 60
f 75 104 98
f 45 9 67
f 67 35 45
f 67 9 60
f 60 35 67
f 78 80 90
f 90 96 78
f 80 96 90
f 105 78 59
f 78 96 59
f 59 58 105
f 59 96 57
f 57 58 59
f 1 73 16
f 65 2 1
f 1 2 23
f 23 73 1
f 1 92 65
f 16 92 1
f 49 56 18
f 48 33 49
f 49 18 48
f 98 56 49
f 49 75 98
f 33 75 49
f 13 40 43
f 39 41 43
f 43 40 39
f 86 27 101
f 6 100 48
f 101 100 6
f 6 86 101
f 42 4 13
f 13 43 42
f 42 43 41
f 48 14 5
f 5 6 48
f 14 4 5
f 4 6 5
f 85 42 41
f 85 41 28
f 28 27 85
f 27 86 85
f 4 42 3
f 3 6 4
f 86 6 3
f 3 85 86
f 42 85 3

