# https://github.com/mikedh/trimesh
v 0.17217099 0.16978554 0.05830632
v 0.16952056 0.16613794 0.05944844
v 0.17279558 0.16618971 0.05748008
v 0.17301184 0.16984961 0.05584352
v 0.17277717 0.16606816 0.05472240
v 0.17223761 0.16989833 0.05378005
v 0.17051281 0.16613121 0.05251385
v 0.16973327 0.16982922 0.05238661
v 0.16707418 0.16618777 0.05352954
v 0.16645462 0.16977977 0.05433467
v 0.16623631 0.16611763 0.05599704
v 0.16646359 0.16989833 0.05711369
v 0.16700939 0.16606971 0.05805295
v 0.16873272 0.16983466 0.05932604
v 0.16822521 0.14825452 0.05631677
v 0.16910101 0.14849361 0.05441308
v 0.17040612 0.14825208 0.05469927
v 0.16817576 0.14857202 0.05538409
v 0.16835926 0.14865822 0.05694455
v 0.17067864 0.14860131 0.05755913
v 0.17155599 0.14873396 0.05579190
v 0.17058832 0.14880059 0.05408048
v 0.16820201 0.14885644 0.05430070
v 0.16768797 0.14901068 0.05665913
v 0.16962556 0.14913681 0.05807651
v 0.17158786 0.14929881 0.05659164
v 0.16857504 0.14956051 0.05411504
v 0.16760316 0.14961686 0.05565216
v 0.17099348 0.14944611 0.05427250
v 0.16811876 0.14973018 0.05736490
v 0.17113154 0.14989752 0.05733063
v 0.17166399 0.15001298 0.05545315
v 0.17020649 0.15012602 0.05390811
v 0.17173846 0.15068861 0.05565365
v 0.16977164 0.16990519 0.05764954
v 0.16819749 0.16990519 0.05691284
v 0.16804316 0.16990106 0.05540152
f 14 30 2
f 14 13 30
f 5 6 4
f 6 5 29
f 8 10 37
f 37 6 8
f 1 14 2
f 2 30 25
f 30 19 25
f 4 6 35
f 35 1 4
f 14 1 35
f 9 10 8
f 9 23 10
f 11 10 28
f 10 23 28
f 8 6 7
f 6 29 7
f 4 1 3
f 3 1 31
f 3 5 4
f 2 25 20
f 20 1 2
f 31 1 20
f 17 21 20
f 6 37 36
f 36 35 6
f 23 16 15
f 15 16 17
f 17 20 15
f 15 25 19
f 15 20 25
f 32 29 5
f 32 21 29
f 31 20 26
f 26 20 21
f 26 3 31
f 14 35 12
f 35 36 12
f 13 14 12
f 12 37 10
f 12 36 37
f 12 10 11
f 11 13 12
f 24 28 23
f 11 28 24
f 24 13 11
f 30 13 24
f 24 19 30
f 24 15 19
f 7 33 27
f 8 7 27
f 27 9 8
f 23 9 27
f 22 7 29
f 22 33 7
f 17 16 22
f 22 16 23
f 22 21 17
f 29 21 22
f 23 27 22
f 22 27 33
f 5 3 34
f 34 32 5
f 3 26 34
f 21 32 34
f 34 26 21
f 23 15 18
f 18 24 23
f 15 24 18

