# https://github.com/mikedh/trimesh
v -0.12500345 -0.00399294 -0.05777466
v -0.13019480 -0.01261721 -0.04425563
v -0.13039671 -0.00885075 -0.04479178
v -0.13063057 -0.00548979 -0.04758496
v -0.13091834 -0.00309974 -0.05238510
v -0.13118395 -0.00406778 -0.05731295
v -0.13145461 -0.00750107 -0.06153646
v -0.12976884 -0.00530800 -0.05944466
v -0.13103757 -0.02190702 -0.05273416
v -0.13191662 -0.00456915 -0.04933918
v -0.13138814 -0.01402782 -0.06287264
v -0.13135175 -0.01913918 -0.06024964
v -0.13086825 -0.02155295 -0.05683738
v -0.12813784 -0.02092255 -0.04857831
v -0.12617895 -0.00324738 -0.05058461
v -0.12544421 -0.01466955 -0.04400019
v -0.12453462 -0.02087819 -0.05812883
v -0.12455039 -0.01492309 -0.06281086
v -0.12299555 -0.02330495 -0.05282823
v -0.12299555 -0.01848487 -0.06248949
v -0.12299555 -0.01734807 -0.04382328
v -0.12299555 -0.00657114 -0.04447961
v -0.12299555 -0.00175107 -0.05414088
v -0.12299555 -0.00770795 -0.06314583
v -0.11561367 -0.02330495 -0.05282823
v -0.11561367 -0.01734807 -0.04382328
v -0.11561367 -0.01848487 -0.06248949
v -0.11561366 -0.00770795 -0.06314583
v -0.11561367 -0.00657114 -0.04447961
v -0.11561367 -0.00175107 -0.05414088
v -0.05754279 -0.01309114 -0.05082738
v -0.05754279 -0.01430551 -0.05165563
v -0.14317274 -0.00610366 -0.05762061
v -0.14317274 -0.01094893 -0.04620143
v -0.14317274 -0.00890508 -0.04775216
v -0.14317274 -0.00891843 -0.06030324
v -0.14317274 -0.01538364 -0.06097694
v -0.14317274 -0.02007587 -0.05542855
v -0.14317274 -0.01933217 -0.04968289
v -0.14317274 -0.01547325 -0.04635371
v -0.14312899 -0.00683951 -0.04854011
v -0.14317274 -0.00482606 -0.05303374
v -0.14315632 -0.00639085 -0.04992701
v -0.05754279 -0.01522302 -0.05453783
v -0.05754279 -0.01020170 -0.05325635
v -0.05754279 -0.01004533 -0.05198786
v -0.05754279 -0.01148533 -0.05609188
v -0.05754279 -0.01071566 -0.05507153
f 47 27 28
f 23 33 42
f 47 28 48
f 29 46 30
f 30 48 28
f 44 27 47
f 29 26 31
f 31 46 29
f 24 8 1
f 1 28 24
f 1 30 28
f 23 30 1
f 6 33 23
f 6 8 33
f 23 1 6
f 6 1 8
f 7 8 24
f 33 8 7
f 15 30 23
f 29 30 15
f 45 30 46
f 48 30 45
f 27 44 25
f 23 42 5
f 5 15 23
f 33 7 36
f 36 7 24
f 24 28 11
f 37 36 11
f 11 36 24
f 14 25 26
f 21 2 40
f 21 14 26
f 21 40 39
f 39 14 21
f 37 11 20
f 32 25 44
f 32 31 26
f 26 25 32
f 27 25 17
f 17 25 13
f 17 20 27
f 13 20 17
f 18 28 27
f 18 11 28
f 27 20 18
f 18 20 11
f 19 14 39
f 25 14 19
f 13 25 19
f 19 38 13
f 2 21 16
f 40 2 34
f 29 15 22
f 41 34 22
f 2 16 22
f 22 16 21
f 10 5 42
f 42 41 10
f 15 5 10
f 10 22 15
f 12 38 37
f 37 20 12
f 13 38 12
f 12 20 13
f 39 38 9
f 9 19 39
f 38 19 9
f 35 34 41
f 3 34 2
f 2 22 3
f 3 22 34
f 41 22 4
f 4 10 41
f 22 10 4
f 42 35 43
f 43 41 42
f 43 35 41
f 46 31 32
f 47 48 32
f 32 44 47
f 32 45 46
f 48 45 32
f 22 21 26
f 22 26 29
f 35 42 33
f 39 40 35
f 35 38 39
f 33 36 35
f 35 36 37
f 37 38 35
f 40 34 35

