# https://github.com/mikedh/trimesh
v 0.20043993 0.19815783 0.09357402
v 0.20137656 0.19503336 0.09283239
v 0.20225734 0.19854336 0.11235529
v 0.20735562 0.17627228 0.10770432
v 0.20411177 0.20073028 0.11179549
v 0.20579958 0.19641229 0.11592099
v 0.19374231 0.17368664 0.09179819
v 0.20255480 0.17139240 0.11307354
v 0.20384500 0.16917473 0.10745972
v 0.20413651 0.17123856 0.11183032
v 0.20803576 0.18130796 0.10352224
v 0.20809092 0.17819618 0.10959787
v 0.20029608 0.19380991 0.09105996
v 0.20456839 0.19048679 0.09515757
v 0.20490189 0.18477243 0.09511369
v 0.19954089 0.18926465 0.08891909
v 0.19727674 0.20411754 0.10033082
v 0.20090236 0.20387175 0.10022414
v 0.19890194 0.20288525 0.09581992
v 0.19987651 0.16807266 0.10660701
v 0.20162433 0.16797799 0.10244347
v 0.20774536 0.19472474 0.10834209
v 0.20817063 0.19373028 0.11028072
v 0.19684306 0.16816796 0.09928384
v 0.19924738 0.16903411 0.09623311
v 0.20294638 0.19788731 0.09661286
v 0.20868051 0.18936179 0.10528612
v 0.20640178 0.19534968 0.10188317
v 0.20607121 0.17421769 0.10405006
v 0.20276527 0.17192744 0.09850434
v 0.20433169 0.20038068 0.10248179
v 0.20250631 0.20379057 0.10458512
v 0.20423987 0.20236885 0.10856419
v 0.19206321 0.19407016 0.08774472
v 0.19492932 0.19237944 0.08614532
v 0.19129491 0.18469288 0.08588967
v 0.19578169 0.19614797 0.08816062
v 0.20230321 0.20120029 0.11246561
v 0.20420704 0.19612996 0.11706176
v 0.20309150 0.19790996 0.11436912
v 0.20633340 0.17361526 0.10838664
v 0.20801065 0.19407233 0.11236674
v 0.20696602 0.19692364 0.10765054
v 0.20806539 0.17810961 0.11215562
v 0.19445409 0.17565261 0.08853284
v 0.19442618 0.17086563 0.09344877
v 0.19252236 0.17593589 0.08885264
v 0.19580087 0.17591416 0.08819267
v 0.19471558 0.18043356 0.08585094
v 0.19461079 0.18707721 0.08513024
v 0.19825133 0.18292330 0.08766802
v 0.20139324 0.17669666 0.09299147
v 0.20056896 0.17813969 0.09141949
v 0.20453954 0.17722133 0.11786517
v 0.20790801 0.18041708 0.11760086
v 0.20543420 0.18737296 0.12002487
v 0.20047884 0.17398241 0.09359487
v 0.20946097 0.18604356 0.11269782
v 0.20842905 0.18631376 0.11816194
v 0.20700209 0.17592409 0.11522159
v 0.20462334 0.17775841 0.09688767
v 0.20791638 0.19210154 0.11734534
v 0.19421021 0.20092614 0.09292814
v 0.19446291 0.19643366 0.08855692
v 0.19881264 0.17815548 0.08964787
v 0.19881016 0.19390689 0.08961242
v 0.20577888 0.17567541 0.11581392
v 0.20526817 0.17139609 0.11104172
v 0.20527439 0.20066850 0.11103399
v 0.19988613 0.20389793 0.10663049
v 0.19748191 0.20071430 0.09235334
v 0.20699067 0.19615264 0.11521192
v 0.19618069 0.17132368 0.09265199
v 0.19754345 0.17139764 0.09236017
f 56 59 62
f 62 39 56
f 62 59 58
f 55 54 60
f 58 59 55
f 55 59 56
f 56 54 55
f 63 54 3
f 63 8 54
f 34 8 63
f 24 21 20
f 20 8 24
f 74 65 57
f 17 63 70
f 70 63 3
f 33 70 38
f 60 54 67
f 54 8 67
f 60 67 10
f 10 67 8
f 37 71 66
f 64 71 37
f 64 63 71
f 34 63 64
f 7 24 8
f 7 34 36
f 7 8 34
f 46 24 7
f 21 24 25
f 25 74 57
f 25 24 46
f 46 74 25
f 49 50 51
f 51 65 49
f 36 50 49
f 53 65 51
f 12 11 58
f 29 61 11
f 27 23 58
f 58 11 27
f 14 28 27
f 42 62 58
f 58 23 42
f 72 62 42
f 43 42 23
f 6 38 39
f 6 62 72
f 39 62 6
f 38 6 5
f 40 70 3
f 40 38 70
f 39 38 40
f 56 39 40
f 40 54 56
f 3 54 40
f 17 70 32
f 32 18 17
f 32 70 33
f 26 28 14
f 14 2 26
f 68 41 60
f 60 10 68
f 37 66 35
f 35 64 37
f 34 64 35
f 36 34 35
f 35 50 36
f 51 50 16
f 50 35 16
f 16 35 66
f 65 74 48
f 48 49 65
f 15 53 51
f 61 53 15
f 15 16 14
f 51 16 15
f 11 61 15
f 14 27 15
f 15 27 11
f 52 61 57
f 52 53 61
f 57 65 52
f 65 53 52
f 60 41 44
f 44 55 60
f 58 55 44
f 44 12 58
f 41 29 4
f 4 44 41
f 12 44 4
f 11 12 4
f 4 29 11
f 61 29 30
f 57 61 30
f 30 25 57
f 21 25 30
f 30 29 21
f 23 27 22
f 22 43 23
f 22 27 28
f 28 43 22
f 72 42 69
f 42 43 69
f 69 43 33
f 69 6 72
f 69 5 6
f 33 38 69
f 38 5 69
f 18 32 31
f 28 26 31
f 31 26 18
f 31 43 28
f 33 43 31
f 31 32 33
f 1 26 2
f 1 66 71
f 9 29 41
f 41 68 9
f 21 29 9
f 20 21 9
f 9 68 10
f 9 8 20
f 9 10 8
f 13 16 66
f 13 1 2
f 66 1 13
f 13 2 14
f 14 16 13
f 73 74 46
f 46 7 47
f 47 7 36
f 36 49 47
f 18 26 19
f 26 1 19
f 19 1 71
f 17 18 19
f 19 63 17
f 71 63 19
f 49 48 45
f 45 47 49
f 46 47 45
f 45 73 46
f 45 48 74
f 74 73 45

