# https://github.com/mikedh/trimesh
v 0.17125975 0.17791032 -0.04641941
v 0.17147767 0.17684636 -0.04669331
v 0.17224907 0.17970394 -0.04614104
v 0.17200256 0.17811214 -0.04455951
v 0.17240829 0.17917106 -0.04478686
v 0.17160082 0.17859486 -0.04473273
v 0.17322642 0.17717536 -0.04446381
v 0.17401390 0.17804321 -0.04704516
v 0.17300192 0.17670301 -0.04673354
v 0.17316300 0.17866566 -0.04765066
v 0.17223120 0.17927116 -0.04729036
v 0.17291005 0.17921761 -0.04737146
v 0.17215195 0.17694296 -0.04486786
v 0.17222133 0.17675706 -0.04541156
v 0.17127844 0.17845721 -0.04686854
v 0.17108858 0.17911348 -0.04661001
v 0.17176417 0.17923701 -0.04536656
v 0.17267485 0.17865639 -0.04425086
v 0.17400837 0.17877889 -0.04479641
v 0.17396307 0.17705304 -0.04601923
v 0.17146127 0.17790613 -0.04516219
v 0.17428440 0.17789909 -0.04532341
v 0.17365137 0.17706158 -0.04509719
v 0.17439532 0.17742651 -0.04566576
v 0.17144922 0.17702649 -0.04616404
v 0.17199775 0.17960879 -0.04655909
v 0.17112780 0.17874481 -0.04614254
v 0.17420800 0.17893514 -0.04601031
v 0.17298818 0.17680161 -0.04724551
v 0.17377437 0.17794336 -0.04748766
v 0.17387332 0.17920779 -0.04543984
v 0.17293363 0.17971491 -0.04538849
v 0.17260175 0.17662616 -0.04605191
v 0.17339510 0.17809143 -0.04764011
v 0.17147492 0.17731916 -0.04566856
v 0.17333617 0.17963691 -0.04613264
v 0.17334709 0.17666989 -0.04527776
v 0.17317727 0.17948761 -0.04714881
v 0.17416997 0.17828472 -0.04655596
v 0.17303457 0.17737056 -0.04758483
v 0.17225629 0.17704522 -0.04727406
v 0.17128593 0.17856984 -0.04566099
v 0.17155917 0.17728557 -0.04701858
f 23 37 24
f 13 6 21
f 27 6 16
f 9 37 33
f 33 2 9
f 2 29 9
f 18 19 32
f 18 6 4
f 6 13 4
f 7 19 18
f 18 4 7
f 7 4 13
f 37 23 7
f 7 13 37
f 7 23 24
f 35 13 21
f 21 27 35
f 33 37 14
f 37 13 14
f 14 2 33
f 14 13 2
f 15 2 16
f 15 43 2
f 34 30 40
f 40 30 29
f 41 29 2
f 2 43 41
f 41 40 29
f 43 40 41
f 21 6 42
f 42 27 21
f 6 27 42
f 20 30 24
f 29 30 20
f 20 9 29
f 24 37 20
f 37 9 20
f 10 30 34
f 10 38 30
f 34 40 10
f 10 40 43
f 5 6 18
f 18 32 5
f 22 7 24
f 19 7 22
f 25 35 27
f 2 13 25
f 13 35 25
f 38 10 12
f 43 15 11
f 11 10 43
f 11 15 16
f 11 12 10
f 16 26 11
f 11 26 38
f 38 12 11
f 30 38 8
f 24 30 8
f 8 39 24
f 16 6 17
f 6 5 17
f 17 5 32
f 2 25 1
f 1 25 27
f 16 2 1
f 1 27 16
f 36 32 31
f 31 32 19
f 3 17 32
f 3 32 36
f 3 26 16
f 16 17 3
f 36 38 3
f 38 26 3
f 36 31 28
f 28 8 38
f 39 8 28
f 28 38 36
f 28 31 19
f 24 39 28
f 28 22 24
f 19 22 28

