# https://github.com/mikedh/trimesh
v 0.13953945 -0.18761948 0.12171139
v 0.13385591 -0.19206373 0.12174781
v 0.13398429 -0.19125448 0.12379339
v 0.13183240 -0.18999116 0.11854259
v 0.13872288 -0.18343829 0.11974001
v 0.13964871 -0.18499634 0.12197511
v 0.13139545 -0.18376408 0.11708624
v 0.13191423 -0.18895136 0.11696739
v 0.14070886 -0.18914969 0.12462936
v 0.13870263 -0.19205346 0.11979529
v 0.13537908 -0.18714208 0.12709444
v 0.13595491 -0.18312949 0.12676021
v 0.13480385 -0.18207598 0.12571194
v 0.13793140 -0.18731341 0.11782919
v 0.13792554 -0.18496621 0.11781506
v 0.13870543 -0.18849128 0.11969786
v 0.14075796 -0.18313063 0.12476884
v 0.13581808 -0.18933801 0.12650004
v 0.13363035 -0.18018491 0.12216811
v 0.13670800 -0.18894856 0.11499491
v 0.13879001 -0.18001829 0.12000306
v 0.13676983 -0.18288223 0.11513339
v 0.13192573 -0.18192356 0.11872004
f 22 20 7
f 7 20 8
f 23 22 7
f 19 23 13
f 4 8 20
f 4 10 2
f 20 10 4
f 7 8 4
f 4 23 7
f 17 13 12
f 9 6 17
f 2 10 3
f 3 4 2
f 10 9 3
f 3 9 18
f 13 23 3
f 23 4 3
f 17 6 21
f 21 13 17
f 21 19 13
f 22 23 21
f 23 19 21
f 14 10 20
f 20 22 14
f 11 12 13
f 13 3 11
f 11 3 18
f 18 9 11
f 17 12 11
f 11 9 17
f 10 14 16
f 16 14 6
f 22 21 5
f 5 21 6
f 6 14 5
f 6 9 1
f 1 16 6
f 1 9 10
f 10 16 1
f 15 14 22
f 22 5 15
f 15 5 14

