# https://github.com/mikedh/trimesh
v 0.16776647 -0.18749431 -0.02793579
v 0.16706169 -0.18465617 -0.02760126
v 0.16667519 -0.18694414 -0.02767201
v 0.16626319 -0.19086622 -0.03162636
v 0.16668059 -0.18961428 -0.02877879
v 0.16535419 -0.19088459 -0.03149914
v 0.16513627 -0.19053719 -0.03419146
v 0.16437547 -0.19048674 -0.03323291
v 0.16412001 -0.18951219 -0.03541073
v 0.16410369 -0.18457116 -0.03663966
v 0.16361871 -0.18698729 -0.03668264
v 0.16346629 -0.18404509 -0.03608821
v 0.16432281 -0.18248371 -0.03538256
v 0.16597157 -0.18249988 -0.02925321
v 0.16607817 -0.18935554 -0.02899296
v 0.16705071 -0.19002871 -0.02981616
v 0.16795307 -0.18519459 -0.02813471
v 0.16453415 -0.18788343 -0.03639209
v 0.16493327 -0.18325289 -0.03570569
v 0.16514644 -0.18138339 -0.03388226
v 0.16642104 -0.18145101 -0.03192086
v 0.16546112 -0.18107599 -0.03154166
v 0.16671915 -0.18210286 -0.02916721
v 0.16738100 -0.18251301 -0.02967606
v 0.16563274 -0.19030051 -0.03386656
v 0.16722332 -0.18953596 -0.03013959
v 0.16401171 -0.18203571 -0.03399546
v 0.16326832 -0.18780771 -0.03594753
v 0.16322900 -0.18530088 -0.03582323
f 23 2 17
f 2 23 14
f 14 23 22
f 14 3 2
f 29 15 14
f 15 3 14
f 10 19 18
f 10 13 19
f 22 23 21
f 17 2 1
f 2 3 1
f 1 26 17
f 29 14 27
f 27 14 22
f 28 9 8
f 6 15 8
f 8 15 29
f 29 28 8
f 18 19 25
f 25 19 26
f 13 10 12
f 29 27 12
f 12 27 13
f 11 10 18
f 18 9 11
f 11 9 28
f 11 12 10
f 11 28 29
f 29 12 11
f 24 23 17
f 24 21 23
f 17 26 24
f 26 19 24
f 19 21 24
f 19 13 20
f 20 21 19
f 22 21 20
f 20 27 22
f 13 27 20
f 5 15 6
f 5 3 15
f 5 1 3
f 7 9 18
f 18 25 7
f 7 8 9
f 6 8 7
f 4 25 26
f 6 7 4
f 4 7 25
f 26 1 16
f 1 5 16
f 16 4 26
f 16 5 6
f 6 4 16

