# https://github.com/mikedh/trimesh
v -0.13375333 -0.06536981 0.06593533
v -0.13154021 -0.06351741 0.06228771
v -0.13411556 -0.06634014 0.06233946
v -0.13385479 -0.06797022 0.06599940
v -0.13330928 -0.06897737 0.06221792
v -0.13252275 -0.06972611 0.06604812
v -0.13050799 -0.07044616 0.06228096
v -0.12972455 -0.07034516 0.06597898
v -0.12750339 -0.06848952 0.06233751
v -0.12713993 -0.06754089 0.06592954
v -0.12740614 -0.06588554 0.06226740
v -0.12794326 -0.06488047 0.06604812
v -0.12873488 -0.06413652 0.06221946
v -0.13075030 -0.06340942 0.06598445
v -0.12940340 -0.06614789 0.04440429
v -0.12969823 -0.06822254 0.04464340
v -0.13103066 -0.06832144 0.04440187
v -0.12907266 -0.06685874 0.04474040
v -0.12973738 -0.06558974 0.04479745
v -0.13210958 -0.06565896 0.04475108
v -0.13215593 -0.06743784 0.04505873
v -0.13103978 -0.06896402 0.04494680
v -0.12897023 -0.06823329 0.04501306
v -0.13077618 -0.06537129 0.04495236
v -0.12868583 -0.06632829 0.04512976
v -0.12973986 -0.06506641 0.04522937
v -0.13164726 -0.06512209 0.04534251
v -0.13270420 -0.06684611 0.04544858
v -0.12863903 -0.06627086 0.04580812
v -0.13148448 -0.06888887 0.04559099
v -0.13057348 -0.06480321 0.04593238
v -0.13241256 -0.06591589 0.04605263
v -0.13254041 -0.06772166 0.04617561
v -0.12984220 -0.06885594 0.04633718
v -0.12851433 -0.06702199 0.04644376
v -0.12933778 -0.06535519 0.04658616
v -0.13257133 -0.06780249 0.04684493
v -0.13075221 -0.06525774 0.06606136
v -0.12933411 -0.06573944 0.06605469
v -0.12895601 -0.06744196 0.06604787
v -0.13199411 -0.06787617 0.06605084
f 8 6 7
f 7 34 8
f 22 34 7
f 2 1 14
f 27 1 2
f 10 8 9
f 6 8 40
f 40 8 10
f 32 28 3
f 3 1 32
f 28 32 20
f 20 1 27
f 20 32 1
f 37 5 3
f 3 28 37
f 12 40 10
f 39 40 12
f 34 22 23
f 23 8 34
f 23 9 8
f 6 5 30
f 7 6 30
f 30 22 7
f 5 37 30
f 4 1 3
f 3 5 4
f 4 5 6
f 6 40 38
f 38 40 39
f 1 4 38
f 38 12 14
f 39 12 38
f 14 1 38
f 31 26 27
f 27 2 31
f 31 2 14
f 21 20 17
f 28 20 21
f 17 22 21
f 22 30 21
f 27 26 24
f 24 20 27
f 14 12 13
f 13 31 14
f 26 31 13
f 17 20 15
f 33 37 28
f 33 30 37
f 28 21 33
f 33 21 30
f 41 4 6
f 6 38 41
f 41 38 4
f 17 15 16
f 16 15 23
f 16 22 17
f 16 23 22
f 25 15 26
f 20 24 19
f 19 15 20
f 19 24 26
f 26 15 19
f 23 15 18
f 18 25 23
f 15 25 18
f 9 23 35
f 23 25 35
f 10 9 35
f 11 12 10
f 10 35 11
f 11 13 12
f 26 13 36
f 29 35 25
f 29 11 35
f 13 11 29
f 29 36 13
f 29 25 26
f 26 36 29

