# https://github.com/mikedh/trimesh
v 0.14449778 0.02258612 -0.00424786
v 0.14429581 0.02302326 -0.00605254
v 0.14430481 0.02080202 -0.00306556
v 0.14708563 0.02150764 -0.00826584
v 0.14709870 0.02291728 -0.00636982
v 0.14710118 0.02241426 -0.00399341
v 0.14708095 0.01931451 -0.00313556
v 0.14431176 0.01849395 -0.00381606
v 0.14711903 0.01761702 -0.00566966
v 0.14430110 0.01766759 -0.00545481
v 0.14431119 0.01842478 -0.00777339
v 0.14711461 0.01870786 -0.00802696
v 0.14430846 0.02130551 -0.00833697
v 0.13268486 0.01996753 -0.00424392
v 0.13260328 0.01909415 -0.00574946
v 0.13283639 0.01890622 -0.00510389
v 0.13238253 0.01979491 -0.00666204
v 0.13271136 0.01901130 -0.00630579
v 0.13273158 0.02053602 -0.00697582
v 0.13239379 0.02131965 -0.00557154
v 0.13285333 0.02130529 -0.00503159
v 0.13297056 0.01986422 -0.00727162
v 0.13307353 0.02176447 -0.00656646
v 0.13320343 0.02108326 -0.00433196
v 0.13331110 0.01908537 -0.00476836
v 0.13338921 0.01890860 -0.00645734
v 0.13346730 0.02016698 -0.00731894
v 0.13363988 0.02166417 -0.00499209
v 0.13380930 0.01876475 -0.00557187
v 0.13393713 0.01945720 -0.00710046
v 0.13399218 0.02093211 -0.00718364
v 0.13406928 0.02186503 -0.00600921
v 0.13428728 0.01944004 -0.00439114
v 0.13445679 0.02042628 -0.00737446
v 0.14715098 0.02176764 -0.00580319
v 0.14714753 0.01965841 -0.00443884
v 0.14716811 0.01886400 -0.00573123
v 0.14715136 0.01953522 -0.00698926
v 0.14715136 0.02097535 -0.00705469
f 2 28 1
f 4 39 12
f 2 4 13
f 4 12 13
f 2 13 23
f 9 7 8
f 9 12 37
f 11 12 9
f 36 9 37
f 7 9 36
f 3 7 6
f 6 1 3
f 7 36 6
f 2 1 6
f 28 21 24
f 3 1 24
f 24 1 28
f 38 39 37
f 37 12 38
f 38 12 39
f 32 28 2
f 2 23 32
f 32 23 28
f 20 21 28
f 28 23 20
f 20 24 21
f 5 39 4
f 5 4 2
f 2 6 5
f 8 7 14
f 14 7 3
f 3 24 14
f 14 20 17
f 24 20 14
f 11 26 30
f 29 26 10
f 10 9 8
f 11 9 10
f 10 26 11
f 31 23 13
f 17 20 19
f 19 20 23
f 23 31 19
f 19 31 27
f 39 5 35
f 35 5 6
f 35 6 36
f 37 39 35
f 35 36 37
f 11 30 22
f 22 27 13
f 22 12 11
f 22 13 12
f 17 19 22
f 22 19 27
f 22 30 26
f 13 27 34
f 34 31 13
f 27 31 34
f 8 14 33
f 33 25 8
f 14 25 33
f 16 10 8
f 8 25 16
f 29 10 16
f 16 25 14
f 18 26 29
f 29 16 18
f 17 22 18
f 18 22 26
f 17 18 15
f 15 18 16
f 15 14 17
f 15 16 14

