# https://github.com/mikedh/trimesh
v -0.03771464 -0.14947900 0.06848071
v -0.03794121 -0.15033277 0.06662201
v -0.03695789 -0.15004388 0.06600758
v -0.03836961 -0.15052788 0.06596987
v -0.03857474 -0.14973225 0.06653289
v -0.03897329 -0.14932835 0.06581211
v -0.03797864 -0.14843115 0.06613573
v -0.03823736 -0.14824435 0.06566333
v -0.03653899 -0.14863402 0.06547223
v -0.03815909 -0.14856849 0.06648024
v -0.03684331 -0.15073037 0.06533291
v -0.03936381 -0.14974827 0.04800990
v -0.03912379 -0.15031964 0.04813179
v -0.04005984 -0.15097925 0.04911661
v -0.03886764 -0.15189742 0.04894448
v -0.03734181 -0.15100015 0.04805846
v -0.03646924 -0.15100418 0.04820858
v -0.03714779 -0.15226039 0.04949008
v -0.03690504 -0.15081440 0.04810625
v -0.03603173 -0.14902235 0.04810418
v -0.03506771 -0.14859802 0.04953777
v -0.03646609 -0.14692699 0.04954868
v -0.03689251 -0.14695670 0.04891564
v -0.03903844 -0.14692679 0.04929431
v -0.03808031 -0.14792302 0.04804466
v -0.03854966 -0.14813895 0.04808375
v -0.04026069 -0.14826582 0.04919810
v -0.03520421 -0.15080202 0.04928554
v -0.04041701 -0.15022947 0.04958105
v -0.03638181 -0.14863749 0.04809056
v -0.03884171 -0.15189068 0.04962439
v -0.03968534 -0.14765973 0.04967772
v -0.03627966 -0.14891322 0.06448015
v -0.03804229 -0.14797530 0.06478000
v -0.03922556 -0.14924100 0.06491844
v -0.03852089 -0.15073845 0.06516118
v -0.03738821 -0.14797924 0.06363217
v -0.03868776 -0.14836075 0.06376607
v -0.03922339 -0.14978092 0.06394279
v -0.03817529 -0.15087979 0.06413712
f 40 36 18
f 36 40 11
f 11 40 18
f 32 27 38
f 29 27 14
f 14 27 12
f 18 36 31
f 31 15 18
f 36 14 31
f 31 14 15
f 18 15 16
f 16 17 18
f 21 23 22
f 24 27 32
f 32 38 24
f 24 22 23
f 18 17 28
f 28 11 18
f 9 22 37
f 21 22 9
f 2 11 1
f 12 16 13
f 13 16 15
f 13 14 12
f 15 14 13
f 34 24 38
f 37 22 34
f 22 24 34
f 34 9 37
f 1 11 3
f 3 9 1
f 11 9 3
f 33 9 11
f 11 28 33
f 21 9 33
f 33 28 21
f 36 11 4
f 11 2 4
f 4 2 1
f 16 30 20
f 20 28 17
f 21 28 20
f 20 23 21
f 20 30 23
f 23 30 25
f 25 24 23
f 25 16 12
f 25 30 16
f 8 34 38
f 35 8 38
f 35 38 27
f 35 27 29
f 17 16 19
f 19 20 17
f 16 20 19
f 27 24 26
f 24 25 26
f 12 27 26
f 26 25 12
f 9 34 7
f 34 8 7
f 7 8 10
f 1 9 7
f 7 10 1
f 10 8 6
f 8 35 6
f 1 10 6
f 6 35 36
f 39 35 29
f 36 35 39
f 29 14 39
f 39 14 36
f 5 4 1
f 1 6 5
f 36 4 5
f 5 6 36

