# https://github.com/mikedh/trimesh
v -0.13747013 0.21894689 0.02958622
v -0.12555856 0.19621801 0.02958483
v -0.10066539 0.22308776 0.08080989
v -0.09884928 0.21353380 0.08080989
v -0.13723121 0.20945444 0.02958557
v -0.10175259 0.20415718 0.08080989
v -0.09888993 0.20992377 0.02958693
v -0.12412284 0.23364308 0.02958144
v -0.10512491 0.22980656 0.02958744
v -0.16101509 0.21318548 0.05530301
v -0.16105326 0.21487606 0.05399970
v -0.16102999 0.21563888 0.05638391
v -0.11947986 0.25753226 0.05530301
v -0.11778881 0.25757177 0.05399980
v -0.11702640 0.25754652 0.05638391
v -0.07511841 0.21564767 0.05636210
v -0.07508743 0.21459341 0.05389860
v -0.07513323 0.21328659 0.05558927
v -0.11701764 0.17163516 0.05636210
v -0.11807191 0.17160413 0.05389860
v -0.11937879 0.17164998 0.05558924
v -0.10616171 0.22961111 0.08080989
v -0.13535682 0.20610383 0.08080989
v -0.10896154 0.19762999 0.08080989
v -0.10350394 0.20097539 0.02958746
v -0.11346921 0.23340740 0.08080989
v -0.11446358 0.23394575 0.02974514
v -0.12909729 0.19866126 0.08080989
v -0.11847796 0.19522351 0.08080989
v -0.11268803 0.19553966 0.02958781
v -0.09931468 0.22097552 0.02958667
v -0.12328114 0.23312771 0.08080989
v -0.13280093 0.22740777 0.08080989
v -0.16100981 0.21096740 0.05104672
v -0.11874881 0.19488935 0.02958975
v -0.16082366 0.21102875 0.06280427
v -0.12165503 0.25756927 0.05103283
v -0.12163661 0.25734050 0.06280427
v -0.09836153 0.21449475 0.02958994
v -0.13295386 0.22767282 0.02958729
v -0.13308019 0.20165649 0.02958728
v -0.11440136 0.17174836 0.05109181
v -0.12171288 0.17164006 0.05109362
v -0.12163661 0.17184163 0.06280427
v -0.11439965 0.25741277 0.05094710
v -0.11450926 0.17175338 0.06280466
v -0.07523166 0.21826396 0.05109182
v -0.07512331 0.21095242 0.05109360
v -0.16091171 0.21815486 0.06280477
v -0.16091691 0.21826396 0.05109181
v -0.07532489 0.21102874 0.06280427
v -0.13741414 0.21570170 0.08080989
v -0.07523661 0.21815605 0.06280466
v -0.11451046 0.25742876 0.06280475
f 50 34 11
f 50 49 37
f 37 49 38
f 38 13 37
f 54 22 53
f 51 16 53
f 22 3 53
f 53 3 4
f 4 51 53
f 26 22 54
f 54 38 26
f 26 38 32
f 36 52 49
f 51 46 48
f 8 31 7
f 7 2 8
f 25 2 7
f 7 48 25
f 25 48 42
f 42 48 46
f 40 37 8
f 40 50 37
f 17 48 47
f 47 16 17
f 47 53 16
f 47 45 54
f 54 53 47
f 8 37 27
f 37 45 27
f 14 45 37
f 46 24 29
f 6 51 4
f 6 46 51
f 6 24 46
f 49 52 33
f 33 38 49
f 32 38 33
f 12 36 49
f 12 50 11
f 49 50 12
f 11 34 10
f 34 36 10
f 10 12 11
f 36 12 10
f 28 36 44
f 44 29 28
f 46 29 44
f 23 36 28
f 52 36 23
f 18 48 17
f 51 48 18
f 17 16 18
f 18 16 51
f 43 42 20
f 43 41 2
f 34 41 43
f 43 36 34
f 43 44 36
f 30 2 25
f 25 42 30
f 20 42 19
f 19 42 46
f 46 44 19
f 8 2 5
f 2 41 5
f 5 41 34
f 9 47 31
f 45 47 9
f 9 27 45
f 9 31 8
f 8 27 9
f 48 7 39
f 39 47 48
f 39 7 31
f 31 47 39
f 37 13 15
f 15 14 37
f 15 38 54
f 13 38 15
f 54 45 15
f 45 14 15
f 21 43 20
f 44 43 21
f 20 19 21
f 21 19 44
f 35 43 2
f 2 30 35
f 42 43 35
f 35 30 42
f 1 40 8
f 8 5 1
f 50 40 1
f 34 50 1
f 1 5 34
f 28 29 23
f 32 33 23
f 4 3 23
f 23 26 32
f 23 6 4
f 23 3 22
f 22 26 23
f 23 29 24
f 24 6 23
f 23 33 52

