# https://github.com/mikedh/trimesh
v -0.11638399 0.16636311 0.05462336
v -0.11807669 0.17922823 0.05532164
v -0.11750776 0.17658608 0.05429432
v -0.11872784 0.17661961 0.05625650
v -0.11739889 0.17678456 0.05624714
v -0.11923921 0.17644838 0.05532368
v -0.11886319 0.17681599 0.05447120
v -0.11897878 0.17635509 0.05445187
v -0.11776719 0.17621010 0.05403215
v -0.11670139 0.17613525 0.05484163
v -0.11699223 0.17600986 0.05637481
v -0.11629806 0.16636856 0.05303254
v -0.11533371 0.16636426 0.05586559
v -0.11735159 0.16636878 0.05810061
v -0.12013371 0.16638209 0.05703377
v -0.12045451 0.16638951 0.05341103
v -0.11914086 0.17556584 0.05437300
v -0.11955716 0.17565598 0.05543889
v -0.11874336 0.17581246 0.05668443
v -0.11974654 0.16636556 0.05599976
v -0.11851968 0.17443129 0.05386453
v -0.11928281 0.17470001 0.05619777
v -0.11656241 0.17513636 0.05536991
v -0.11755626 0.17532055 0.05382314
f 11 14 13
f 13 14 20
f 14 15 20
f 16 12 20
f 20 15 16
f 16 15 18
f 5 11 2
f 1 12 13
f 13 20 1
f 1 20 12
f 24 12 16
f 16 21 24
f 2 11 10
f 13 12 10
f 12 24 10
f 2 18 4
f 14 11 19
f 11 5 19
f 19 15 14
f 19 5 2
f 2 4 19
f 19 4 18
f 2 10 3
f 3 10 24
f 23 11 13
f 13 10 23
f 23 10 11
f 22 18 15
f 15 19 22
f 22 19 18
f 6 18 2
f 2 7 6
f 6 7 18
f 16 18 17
f 17 21 16
f 17 7 21
f 9 24 21
f 21 7 9
f 9 7 2
f 2 3 9
f 9 3 24
f 18 7 8
f 8 17 18
f 7 17 8

