# https://github.com/mikedh/trimesh
v 0.15747479 0.18393019 -0.04982351
v 0.15837277 0.18247054 -0.04908961
v 0.15740557 0.18303484 -0.04871059
v 0.16149417 0.18429588 -0.04160374
v 0.16116990 0.18696561 -0.04123161
v 0.16045808 0.18415821 -0.04149164
v 0.16076927 0.18198266 -0.04314286
v 0.15715655 0.18603564 -0.05023614
v 0.15828179 0.18507836 -0.05028099
v 0.15709877 0.18718419 -0.04931201
v 0.15788037 0.18947381 -0.04911764
v 0.16049588 0.19055126 -0.04428724
v 0.15972555 0.19065774 -0.04398851
v 0.16063659 0.18934648 -0.04223141
v 0.16143329 0.18865054 -0.04228773
v 0.15803369 0.18799111 -0.05012261
v 0.15915962 0.19097219 -0.04677861
v 0.16178625 0.18679316 -0.04187998
v 0.15970557 0.18166557 -0.04704881
v 0.15887085 0.18114732 -0.04696426
v 0.15893648 0.18278579 -0.04885529
v 0.16005707 0.18117451 -0.04500896
v 0.16075220 0.19001271 -0.04448616
v 0.15914245 0.18996594 -0.04828021
v 0.15777634 0.18986056 -0.04800794
v 0.16156640 0.18358766 -0.04240769
v 0.15819107 0.18171169 -0.04688124
v 0.15922187 0.18159234 -0.04434236
v 0.16036345 0.18772826 -0.04156296
v 0.15870467 0.19054107 -0.04554424
v 0.16020315 0.18458784 -0.04197036
f 16 24 9
f 18 19 23
f 9 24 21
f 24 23 21
f 21 23 19
f 9 1 8
f 8 16 9
f 10 8 3
f 3 8 1
f 20 27 3
f 24 16 11
f 11 8 10
f 16 8 11
f 20 19 22
f 6 7 4
f 26 19 18
f 18 4 26
f 26 4 7
f 26 22 19
f 7 22 26
f 13 14 12
f 2 1 9
f 9 21 2
f 20 3 2
f 2 3 1
f 2 19 20
f 2 21 19
f 25 11 10
f 10 30 25
f 5 4 18
f 6 4 5
f 13 30 29
f 29 14 13
f 29 30 10
f 6 5 29
f 29 5 14
f 28 22 7
f 28 27 20
f 20 22 28
f 28 7 6
f 10 3 28
f 28 3 27
f 15 12 14
f 15 5 18
f 14 5 15
f 18 23 15
f 23 12 15
f 17 25 30
f 24 11 17
f 11 25 17
f 17 23 24
f 17 12 23
f 17 30 13
f 13 12 17
f 31 29 10
f 10 28 31
f 6 29 31
f 31 28 6

