# https://github.com/mikedh/trimesh
v 0.09463844 0.08426092 -0.08741729
v 0.09467881 0.08442364 -0.08831691
v 0.09715816 0.08445757 -0.08745356
v 0.09723821 0.08467377 -0.08832832
v 0.09839527 0.08683007 -0.08743629
v 0.09819957 0.08694847 -0.08832204
v 0.09693299 0.08904534 -0.08740934
v 0.09686232 0.08882969 -0.08835114
v 0.09453182 0.08881867 -0.08831942
v 0.09432612 0.08884487 -0.08744994
v 0.09311927 0.08652699 -0.08744927
v 0.09327344 0.08657602 -0.08832566
v 0.09787509 0.08562627 -0.08662409
v 0.09844422 0.08682079 -0.08628822
v 0.09305784 0.08656384 -0.08628950
v 0.09452449 0.08422949 -0.08629564
v 0.09427462 0.08892872 -0.08629511
v 0.09694829 0.08910387 -0.08625362
v 0.09722434 0.08435849 -0.08622896
v 0.09719067 0.08432832 -0.08514739
v 0.09843839 0.08682114 -0.08514397
v 0.09303687 0.08650749 -0.08512380
v 0.09375259 0.08793247 -0.08442679
v 0.09428772 0.08892405 -0.08517229
v 0.09694124 0.08909494 -0.08513592
v 0.09770897 0.08795197 -0.08441912
v 0.09807196 0.08603414 -0.08443377
v 0.09837502 0.08676049 -0.08408470
v 0.09310992 0.08651005 -0.08406354
v 0.09717784 0.08433372 -0.08408547
v 0.09454649 0.08425502 -0.08409229
v 0.09617342 0.08429492 -0.08332309
v 0.09366571 0.08547232 -0.08331419
v 0.09392622 0.08812189 -0.08312209
v 0.09425756 0.08890099 -0.08405717
v 0.09587059 0.08905417 -0.08332581
v 0.09698849 0.08905069 -0.08405697
v 0.09789939 0.08754472 -0.08312041
v 0.09794429 0.08578054 -0.08337931
v 0.09462534 0.08443364 -0.08294525
v 0.09755724 0.08497974 -0.08294525
v 0.09647907 0.08901459 -0.08294525
v 0.09333857 0.08684032 -0.08294525
v 0.09678362 0.08544895 -0.08865959
v 0.09503049 0.08550522 -0.08847320
v 0.09470449 0.08772079 -0.08852502
v 0.09725184 0.08663512 -0.08861450
v 0.09681842 0.08779612 -0.08858105
v 0.09575339 0.08813479 -0.08857321
f 41 42 40
f 38 42 41
f 5 18 14
f 43 40 42
f 12 2 11
f 40 43 33
f 14 18 26
f 42 38 37
f 37 26 18
f 38 26 37
f 22 43 34
f 34 43 42
f 45 2 12
f 45 44 2
f 2 44 4
f 4 3 2
f 44 6 4
f 4 6 5
f 3 4 19
f 29 43 22
f 22 33 29
f 29 33 43
f 7 17 18
f 7 6 8
f 18 5 7
f 5 6 7
f 9 7 8
f 17 7 9
f 15 11 22
f 15 17 11
f 14 26 21
f 21 26 38
f 38 28 21
f 25 37 18
f 39 38 41
f 39 28 38
f 39 21 28
f 8 6 48
f 22 34 23
f 23 15 22
f 17 15 23
f 35 23 34
f 24 17 35
f 17 23 35
f 41 40 32
f 32 30 41
f 41 19 13
f 13 5 14
f 13 4 5
f 13 19 4
f 41 30 20
f 20 19 41
f 30 32 20
f 10 9 12
f 17 9 10
f 12 11 10
f 11 17 10
f 14 21 27
f 21 39 27
f 27 13 14
f 27 39 41
f 41 13 27
f 47 6 44
f 44 48 47
f 47 48 6
f 12 9 46
f 46 45 12
f 44 45 46
f 36 34 42
f 36 35 34
f 42 37 36
f 37 25 36
f 24 35 36
f 36 25 18
f 18 17 36
f 36 17 24
f 31 32 40
f 40 33 31
f 49 46 9
f 49 9 8
f 8 48 49
f 49 48 44
f 44 46 49
f 16 20 32
f 32 31 16
f 16 31 33
f 22 11 16
f 16 33 22
f 19 20 1
f 20 16 1
f 3 19 1
f 2 3 1
f 1 11 2
f 1 16 11

