# https://github.com/mikedh/trimesh
v -0.09783963 0.14593943 -0.09297351
v -0.09773447 0.14987644 -0.09292741
v -0.10296193 0.14987644 -0.08889424
v -0.10295091 0.14987644 -0.10098135
v -0.09087483 0.14987644 -0.08890526
v -0.09086380 0.14987644 -0.10099238
v -0.10295091 0.14593943 -0.08890526
v -0.09086381 0.14593943 -0.08889423
v -0.10296193 0.14593943 -0.10099238
v -0.09087483 0.14593943 -0.10098135
f 10 9 6
f 6 8 10
f 4 9 3
f 6 9 4
f 3 8 5
f 5 8 6
f 3 9 7
f 7 8 3
f 2 4 3
f 3 5 2
f 1 10 8
f 8 7 1
f 9 10 1
f 1 7 9
f 2 5 6
f 6 4 2

