# https://github.com/mikedh/trimesh
v -0.05789311 0.06565970 -0.04147513
v -0.06361484 0.07728390 -0.04047278
v -0.06273619 0.07509450 -0.04153910
v -0.06315626 0.07443125 -0.04036198
v -0.06251689 0.07512050 -0.03934333
v -0.06151999 0.07535183 -0.03952005
v -0.06231869 0.07469828 -0.03926165
v -0.06305359 0.07401413 -0.04030723
v -0.06245987 0.07432988 -0.04182995
v -0.06133461 0.07573050 -0.04098773
v -0.05903771 0.06492285 -0.04064738
v -0.05753164 0.06589578 -0.04304345
v -0.05503134 0.06752490 -0.04264083
v -0.05445841 0.06791365 -0.03976158
v -0.05681804 0.06638933 -0.03743138
v -0.06219749 0.07382715 -0.03927306
v -0.06102239 0.07466666 -0.03913995
v -0.06095359 0.07507073 -0.04156543
v -0.06051674 0.07517440 -0.04029058
v -0.05534912 0.06731178 -0.03945475
v -0.05746831 0.06593555 -0.03894825
v -0.06180069 0.07274225 -0.03928411
v -0.06098096 0.07390833 -0.04192088
v -0.06274921 0.07314060 -0.04026185
f 17 15 14
f 11 15 22
f 14 15 20
f 20 13 14
f 14 13 19
f 19 17 14
f 13 20 12
f 11 22 24
f 16 24 22
f 16 22 15
f 21 15 11
f 21 20 15
f 18 19 13
f 2 17 6
f 6 19 2
f 17 19 6
f 15 17 5
f 5 17 2
f 2 4 5
f 1 12 20
f 20 21 1
f 11 12 1
f 1 21 11
f 2 19 10
f 10 18 2
f 19 18 10
f 2 18 3
f 3 4 2
f 13 12 23
f 23 18 13
f 7 16 15
f 15 5 7
f 7 5 16
f 9 23 12
f 9 3 18
f 18 23 9
f 9 12 11
f 4 3 9
f 11 24 9
f 8 9 24
f 4 9 8
f 24 16 8
f 16 5 8
f 8 5 4

