# https://github.com/mikedh/trimesh
v -0.15033143 -0.07041761 0.06249005
v -0.15222586 -0.06869637 0.06221923
v -0.14779001 -0.07002796 0.06223102
v -0.15245413 -0.06536984 0.06593532
v -0.15013446 -0.06348457 0.06233537
v -0.15256443 -0.06576366 0.06227816
v -0.15255555 -0.06797021 0.06599940
v -0.15122358 -0.06972609 0.06604812
v -0.14854238 -0.07038151 0.06592518
v -0.14586903 -0.06764926 0.06598069
v -0.14581143 -0.06685149 0.06228096
v -0.14664404 -0.06488046 0.06604812
v -0.14743563 -0.06413652 0.06221946
v -0.14945110 -0.06340942 0.06598444
v -0.14810418 -0.06614789 0.04440429
v -0.14775973 -0.06693886 0.04473378
v -0.14853188 -0.06826814 0.04457560
v -0.14843821 -0.06558971 0.04479744
v -0.15077998 -0.06566291 0.04481147
v -0.15075821 -0.06669397 0.04439516
v -0.15114573 -0.06760346 0.04488373
v -0.14974056 -0.06896401 0.04494681
v -0.14750443 -0.06807247 0.04500536
v -0.14768731 -0.06566616 0.04516046
v -0.14947710 -0.06486259 0.04526378
v -0.15112660 -0.06589296 0.04536199
v -0.15114893 -0.06798791 0.04548957
v -0.14782644 -0.06838504 0.04571834
v -0.14731806 -0.06660684 0.04576661
v -0.14830193 -0.06511309 0.04587997
v -0.14990303 -0.06498501 0.04598228
v -0.15138340 -0.06634216 0.04607416
v -0.15049163 -0.06868509 0.04624901
v -0.14845290 -0.06879771 0.04635171
v -0.14721498 -0.06702236 0.04644392
v -0.15066550 -0.06527666 0.04675219
v -0.15143075 -0.06727479 0.04754667
v -0.14996716 -0.06531302 0.06605497
v -0.14824806 -0.06556881 0.06605497
v -0.14760523 -0.06722537 0.06604787
v -0.14851641 -0.06839601 0.06606136
v -0.15104821 -0.06667389 0.06605497
f 1 3 9
f 20 17 22
f 22 34 3
f 22 17 23
f 22 3 1
f 1 2 33
f 2 27 33
f 33 22 1
f 27 22 33
f 23 3 28
f 3 34 28
f 28 22 23
f 34 22 28
f 20 26 19
f 6 26 32
f 12 14 38
f 11 23 35
f 24 12 11
f 25 30 24
f 13 14 12
f 12 24 13
f 13 24 30
f 13 30 25
f 20 22 21
f 21 22 27
f 21 26 20
f 21 32 26
f 25 19 36
f 36 26 6
f 36 19 26
f 37 27 2
f 6 32 37
f 37 21 27
f 32 21 37
f 37 7 6
f 2 7 37
f 11 35 29
f 29 24 11
f 29 35 23
f 23 24 29
f 23 17 15
f 15 17 20
f 20 19 15
f 15 19 25
f 25 36 31
f 5 36 6
f 5 31 36
f 25 31 5
f 5 13 25
f 14 13 5
f 8 42 7
f 1 9 8
f 8 2 1
f 8 7 2
f 16 24 23
f 23 15 16
f 16 15 24
f 25 24 18
f 18 15 25
f 24 15 18
f 4 5 6
f 14 5 4
f 6 7 4
f 7 42 4
f 4 38 14
f 4 42 38
f 41 8 9
f 42 8 41
f 38 42 41
f 10 41 9
f 11 12 10
f 10 9 3
f 10 23 11
f 10 3 23
f 12 38 39
f 39 41 12
f 38 41 39
f 12 41 40
f 40 10 12
f 41 10 40

