# https://github.com/mikedh/trimesh
v 0.06907334 -0.18067831 0.06216792
v 0.06900786 -0.18074378 0.06610495
v 0.06002179 -0.18072031 0.06216792
v 0.06003938 -0.18070270 0.06610495
v 0.05961461 -0.17140310 0.06621088
v 0.06945714 -0.17144443 0.06616226
v 0.06903231 -0.17030072 0.07650693
v 0.06904994 -0.16636375 0.07652451
v 0.06006381 -0.17030072 0.07654790
v 0.05999833 -0.16636375 0.07648243
v 0.05961461 -0.16636373 0.06216792
v 0.06945714 -0.16636373 0.06216792
v 0.05961461 -0.17033930 0.06752442
v 0.06945714 -0.17031642 0.06760333
f 7 9 2
f 13 9 10
f 14 7 2
f 13 10 11
f 2 3 1
f 4 9 13
f 2 9 4
f 4 3 2
f 8 14 12
f 7 14 8
f 12 11 8
f 8 11 10
f 9 7 8
f 8 10 9
f 6 14 2
f 2 1 6
f 6 1 12
f 12 14 6
f 5 4 13
f 3 4 5
f 5 11 3
f 13 11 5
f 3 11 1
f 1 11 12

