# https://github.com/mikedh/trimesh
v 0.12962655 0.02426886 0.02952308
v 0.12964415 0.03235716 0.03507758
v 0.12964204 0.01241645 0.12195911
v 0.12712425 -0.02768178 0.11566906
v 0.12713346 0.02756576 0.03083849
v 0.12964152 -0.05117068 0.07629539
v 0.12963990 -0.04821648 0.05579010
v 0.12961388 -0.03826941 0.03893010
v 0.12968347 -0.02004815 0.02616963
v 0.12962413 0.00101628 0.02187196
v 0.12963697 0.01389746 0.02394676
v 0.12958053 0.04305344 0.04517311
v 0.12969033 0.04780974 0.05568333
v 0.12961940 0.05066191 0.06531836
v 0.12966292 0.04953504 0.08612053
v 0.12967445 0.04039571 0.10460188
v 0.12962607 0.02098960 0.12024771
v 0.12960622 0.00296659 0.12460011
v 0.12962217 -0.01253144 0.12316148
v 0.12966291 -0.02832081 0.11590748
v 0.12964152 -0.04142439 0.10348476
v 0.12963864 -0.04960871 0.08628593
v 0.12941707 -0.05111676 0.06756486
v 0.12843904 -0.05048231 0.06104263
v 0.12835442 -0.04602823 0.04901108
v 0.12928735 -0.02628898 0.02878545
v 0.12852033 -0.01187679 0.02261879
v 0.12843857 0.04866662 0.05491839
v 0.12935353 0.05148656 0.07544984
v 0.12843905 0.05048551 0.08554461
v 0.12935353 0.04699729 0.09443038
v 0.12886460 0.04186634 0.10385034
v 0.12931392 0.03388724 0.11227136
v 0.12843904 0.00982946 0.12430471
v 0.12843904 -0.02381617 0.11948601
v 0.12928737 -0.04779516 0.09298244
v 0.12920361 -0.03475686 0.11157588
v 0.12931395 0.03375999 0.03420572
v 0.12941630 0.02428996 0.02786198
v 0.12810330 0.05180607 0.07584693
v 0.12744187 0.04970236 0.08689184
v 0.12737810 0.04241879 0.10255646
v 0.12810329 0.03573224 0.11089081
v 0.12810324 0.01919946 0.12147731
v 0.12744189 0.00827873 0.12415199
v 0.12775524 -0.03162964 0.11426194
v 0.12810326 -0.03925313 0.10719484
v 0.12810329 -0.05181101 0.07567639
v 0.12810199 -0.04988556 0.08783956
v 0.12776302 -0.04497971 0.09896109
v 0.12810205 -0.01234483 0.12377016
v 0.12810326 -0.00008374 0.12516096
v 0.12810327 0.02797149 0.11697329
v 0.12810325 0.04714627 0.09491776
v 0.12810330 0.05135311 0.06599691
v 0.12775528 0.04459342 0.04701632
v 0.12810325 0.03925629 0.03939250
v 0.12810197 0.03022394 0.03102172
v 0.12776303 0.01949261 0.02531211
v 0.12810330 0.00990132 0.02237984
v 0.12810327 0.00008692 0.02142641
v 0.12778495 -0.02184175 0.02625168
v 0.12810327 -0.03199338 0.03247034
v 0.12810324 -0.03914101 0.03926312
v 0.12735122 -0.05112978 0.06697552
v 0.12713888 -0.02344461 0.02837137
v 0.12712806 -0.00629346 0.02289604
v 0.12718910 0.00831395 0.02290399
v 0.12718810 0.03947164 0.04067756
v 0.12718778 0.04846959 0.05759034
v 0.12720367 0.05117512 0.07153002
v 0.12717250 0.04896912 0.08538321
v 0.12719774 0.02129698 0.11995773
v 0.12713487 -0.00730258 0.12348906
v 0.12718561 -0.04028391 0.10458171
v 0.12720762 -0.04990461 0.08476169
v 0.12720751 -0.01660186 0.12161046
v 0.12720439 0.03515892 0.11020631
v 0.12720763 -0.03488316 0.03580773
v 0.12720439 -0.04413106 0.04778115
v 0.12713250 -0.04797313 0.05696698
f 13 9 11
f 15 16 13
f 4 67 81
f 4 81 75
f 75 81 76
f 10 11 9
f 49 76 48
f 9 62 27
f 61 10 27
f 27 10 9
f 27 67 61
f 62 67 27
f 79 62 63
f 46 35 4
f 4 75 46
f 46 75 47
f 51 35 19
f 55 70 71
f 69 70 56
f 66 62 79
f 66 67 62
f 79 81 66
f 66 81 67
f 74 78 72
f 71 70 72
f 73 78 74
f 33 17 16
f 48 76 65
f 76 81 65
f 13 11 2
f 60 10 61
f 11 10 60
f 39 58 38
f 38 2 39
f 19 35 20
f 20 9 13
f 13 16 20
f 20 6 9
f 80 81 79
f 80 25 81
f 6 20 22
f 22 20 21
f 48 6 22
f 22 49 48
f 50 21 47
f 47 75 50
f 50 75 76
f 76 49 50
f 4 35 77
f 35 51 77
f 77 74 4
f 77 51 74
f 14 15 13
f 15 14 29
f 29 14 55
f 28 56 70
f 70 55 28
f 28 14 13
f 55 14 28
f 69 56 57
f 57 58 69
f 38 58 57
f 42 72 78
f 78 73 53
f 73 44 53
f 17 33 53
f 53 44 17
f 25 8 7
f 9 6 7
f 7 8 9
f 69 58 5
f 5 70 69
f 5 72 70
f 74 72 5
f 4 74 5
f 5 67 4
f 1 2 11
f 11 39 1
f 1 39 2
f 35 46 37
f 37 20 35
f 37 46 47
f 47 21 37
f 21 20 37
f 19 20 3
f 3 18 19
f 17 18 3
f 16 17 3
f 3 20 16
f 36 22 21
f 21 50 36
f 49 22 36
f 36 50 49
f 9 8 26
f 26 8 63
f 26 62 9
f 26 63 62
f 79 63 64
f 63 8 64
f 64 8 25
f 64 80 79
f 25 80 64
f 74 51 52
f 52 51 19
f 19 18 52
f 40 55 71
f 40 29 55
f 12 57 56
f 12 28 13
f 56 28 12
f 38 57 12
f 13 2 12
f 12 2 38
f 16 15 31
f 32 33 16
f 16 31 32
f 34 18 17
f 17 44 34
f 34 52 18
f 23 7 6
f 23 6 48
f 48 65 23
f 25 7 24
f 81 25 24
f 24 65 81
f 24 23 65
f 7 23 24
f 59 5 58
f 58 39 59
f 11 60 59
f 59 39 11
f 72 42 41
f 71 72 41
f 41 40 71
f 42 32 54
f 54 32 31
f 54 41 42
f 33 32 43
f 78 53 43
f 43 53 33
f 43 42 78
f 43 32 42
f 52 34 45
f 45 73 74
f 74 52 45
f 45 44 73
f 45 34 44
f 67 5 68
f 5 59 68
f 68 59 60
f 61 67 68
f 68 60 61
f 41 54 30
f 40 41 30
f 30 31 15
f 30 54 31
f 15 29 30
f 29 40 30

