# https://github.com/mikedh/trimesh
v 0.14708563 -0.03906601 -0.03867606
v 0.14428783 -0.03937099 -0.03857194
v 0.14709870 -0.04141286 -0.03840326
v 0.14432685 -0.04241176 -0.03877481
v 0.14710118 -0.04321939 -0.04002704
v 0.14430481 -0.04321684 -0.04188724
v 0.14708098 -0.04241244 -0.04314049
v 0.14431176 -0.04141286 -0.04351086
v 0.14711903 -0.03936911 -0.04334349
v 0.14431841 -0.03906619 -0.04323439
v 0.14711461 -0.03787306 -0.04122014
v 0.14429207 -0.03787516 -0.04069284
v 0.13268486 -0.04177911 -0.04202076
v 0.13260328 -0.04003866 -0.04202444
v 0.13283638 -0.04050369 -0.04250991
v 0.13254131 -0.03946149 -0.04106434
v 0.13273153 -0.03968468 -0.04018387
v 0.13239378 -0.04130539 -0.04018596
v 0.13279508 -0.04078881 -0.03975592
v 0.13285332 -0.04176586 -0.04046841
v 0.13289263 -0.03912126 -0.04146446
v 0.13299713 -0.03944523 -0.03997104
v 0.13306997 -0.04067716 -0.03940607
v 0.13314015 -0.04197208 -0.04013191
v 0.13322471 -0.04201023 -0.04160111
v 0.13331108 -0.04088389 -0.04252251
v 0.13338998 -0.03933368 -0.04183141
v 0.13346730 -0.03921576 -0.04031057
v 0.13355333 -0.04038794 -0.03941291
v 0.13376595 -0.04109669 -0.04248589
v 0.13396578 -0.03928731 -0.04002091
v 0.13407031 -0.04119803 -0.03949509
v 0.13416150 -0.04215433 -0.04074122
v 0.14716865 -0.03993916 -0.03968102
v 0.14714651 -0.04145514 -0.03972351
v 0.14714190 -0.04207296 -0.04094406
v 0.14714457 -0.04138991 -0.04216527
v 0.14714178 -0.04004231 -0.04227824
f 5 3 4
f 34 3 35
f 35 3 5
f 1 3 34
f 5 4 24
f 36 35 5
f 36 37 34
f 34 35 36
f 23 4 3
f 18 24 23
f 22 17 23
f 8 9 7
f 7 9 37
f 5 6 7
f 7 36 5
f 37 36 7
f 12 1 11
f 11 1 34
f 34 9 11
f 10 9 8
f 10 11 9
f 34 37 38
f 38 9 34
f 37 9 38
f 33 6 5
f 5 24 33
f 25 6 33
f 33 24 25
f 20 24 18
f 2 31 22
f 3 1 2
f 2 23 3
f 2 1 12
f 12 31 2
f 32 24 4
f 4 23 32
f 32 23 24
f 19 17 18
f 18 23 19
f 19 23 17
f 12 11 21
f 11 10 21
f 22 23 29
f 29 2 22
f 23 2 29
f 16 17 22
f 22 21 16
f 18 17 16
f 22 31 28
f 28 21 22
f 28 31 12
f 12 21 28
f 18 16 14
f 14 16 21
f 18 14 13
f 13 20 18
f 25 24 13
f 24 20 13
f 13 6 25
f 13 30 8
f 13 7 6
f 8 7 13
f 27 21 10
f 8 30 26
f 30 13 26
f 15 14 21
f 21 27 15
f 15 13 14
f 15 26 13
f 15 27 10
f 15 10 8
f 8 26 15

