# https://github.com/mikedh/trimesh
v 0.20118623 -0.19538736 0.11399162
v 0.20044890 -0.19649861 0.11256134
v 0.20102963 -0.19555649 0.11481049
v 0.20053036 -0.19809699 0.11295204
v 0.20049498 -0.19813432 0.11369169
v 0.20023133 -0.19701179 0.11288192
v 0.20429062 -0.19504361 0.11063722
v 0.20698482 -0.19525007 0.10908824
v 0.20395922 -0.19691569 0.10978809
v 0.20100223 -0.19688356 0.11529739
v 0.20038098 -0.19598637 0.11431717
v 0.20084431 -0.19785097 0.11500506
v 0.20179140 -0.19659542 0.11524777
v 0.20034183 -0.19619854 0.11311241
v 0.20137433 -0.19739527 0.11542069
v 0.20586421 -0.19567930 0.11447014
v 0.20880711 -0.19515162 0.11291604
v 0.20518693 -0.19419762 0.11260242
v 0.20103015 -0.19849894 0.11436884
v 0.20540978 -0.19943302 0.11325789
v 0.20889427 -0.19848887 0.11323694
v 0.20596239 -0.19814642 0.11456237
v 0.20795850 -0.19970274 0.11105419
v 0.20449168 -0.19944792 0.11106469
v 0.20158193 -0.19847994 0.11450689
v 0.19997916 -0.19748662 0.11338929
v 0.20847430 -0.19780797 0.11210684
v 0.20797975 -0.19837994 0.11088729
v 0.20699963 -0.19707526 0.10859049
v 0.20779964 -0.19437039 0.11047434
v 0.20723848 -0.19888189 0.10927662
v 0.20758280 -0.19626502 0.10996001
f 18 7 1
f 30 7 18
f 31 23 24
f 31 9 29
f 24 9 31
f 7 9 2
f 21 16 22
f 22 16 15
f 17 16 21
f 21 27 17
f 18 16 17
f 17 30 18
f 8 30 29
f 7 30 8
f 29 9 8
f 8 9 7
f 29 30 32
f 24 19 4
f 4 9 24
f 24 23 20
f 20 19 24
f 20 23 21
f 21 22 20
f 23 31 28
f 21 23 28
f 28 27 21
f 28 31 29
f 29 32 28
f 28 32 30
f 28 17 27
f 30 17 28
f 26 12 11
f 14 1 7
f 7 2 14
f 14 11 1
f 26 11 14
f 26 4 5
f 5 4 19
f 5 12 26
f 19 12 5
f 6 4 26
f 26 14 6
f 6 14 2
f 6 2 9
f 9 4 6
f 25 12 19
f 19 20 25
f 25 20 22
f 25 22 15
f 15 12 25
f 1 11 3
f 18 1 3
f 3 16 18
f 10 3 11
f 10 12 15
f 10 11 12
f 16 3 13
f 3 10 13
f 15 16 13
f 13 10 15

