# https://github.com/mikedh/trimesh
v -0.18032051 0.16670454 0.05607972
v -0.17975892 0.16641431 0.05422966
v -0.17944731 0.16641422 0.05805293
v -0.17812888 0.16671352 0.05264769
v -0.17620223 0.16642949 0.05260005
v -0.17428571 0.17013009 0.05830626
v -0.17693614 0.16648246 0.05944841
v -0.17400807 0.16650901 0.05789205
v -0.17344489 0.17019416 0.05584342
v -0.17359826 0.16645996 0.05455484
v -0.17421912 0.17024289 0.05378004
v -0.17672342 0.17017374 0.05238660
v -0.18000207 0.17012428 0.05433462
v -0.17999311 0.17024289 0.05711362
v -0.17772401 0.17017922 0.05932600
v -0.17823149 0.14859907 0.05631677
v -0.17735569 0.14883814 0.05441305
v -0.17605057 0.14859664 0.05469931
v -0.17828091 0.14891651 0.05538412
v -0.17810029 0.14899916 0.05694460
v -0.17577821 0.14894581 0.05755921
v -0.17521917 0.14925231 0.05588723
v -0.17586841 0.14914512 0.05408046
v -0.17825464 0.14920069 0.05430090
v -0.17876849 0.14935551 0.05665922
v -0.17728292 0.14945836 0.05794118
v -0.17541267 0.14955951 0.05743222
v -0.17478766 0.14968496 0.05542295
v -0.17788389 0.14990251 0.05410705
v -0.17885216 0.14995752 0.05563809
v -0.17833979 0.15007629 0.05736495
v -0.17684044 0.15017609 0.05794449
v -0.17503229 0.15026637 0.05706887
v -0.17521518 0.15044749 0.05457602
v -0.17713977 0.15054652 0.05387732
v -0.17883348 0.15063867 0.05522450
v -0.17471522 0.15102356 0.05558329
v -0.17683414 0.17024094 0.05769590
v -0.17807256 0.17025614 0.05478789
f 12 13 39
f 7 27 6
f 28 10 9
f 28 34 10
f 26 3 31
f 4 13 12
f 5 4 12
f 9 6 8
f 8 6 27
f 7 6 15
f 15 26 7
f 3 26 15
f 18 28 22
f 21 27 7
f 18 22 21
f 21 28 27
f 21 22 28
f 13 4 2
f 2 4 24
f 24 36 2
f 1 13 2
f 2 36 1
f 25 26 31
f 20 26 25
f 31 3 25
f 25 3 1
f 11 5 12
f 9 10 11
f 12 39 11
f 37 28 9
f 9 8 37
f 27 28 33
f 33 8 27
f 28 37 33
f 33 37 8
f 14 39 13
f 14 13 1
f 1 3 14
f 3 15 14
f 5 11 23
f 18 17 23
f 23 17 24
f 10 34 23
f 23 11 10
f 23 28 18
f 34 28 23
f 7 26 32
f 32 21 7
f 26 21 32
f 20 25 16
f 24 17 16
f 16 17 18
f 18 21 16
f 16 26 20
f 16 21 26
f 1 36 30
f 30 25 1
f 30 36 24
f 24 25 30
f 38 14 15
f 38 15 6
f 38 6 9
f 9 11 38
f 38 11 39
f 39 14 38
f 35 23 24
f 4 5 35
f 5 23 35
f 19 25 24
f 24 16 19
f 19 16 25
f 24 4 29
f 29 35 24
f 4 35 29

