# https://github.com/mikedh/trimesh
v 0.09973395 -0.13516710 -0.04047647
v 0.10018844 -0.13757750 -0.03964827
v 0.10153029 -0.13718088 -0.03943824
v 0.10192920 -0.13668514 -0.04066974
v 0.10164415 -0.13725271 -0.04149147
v 0.10224675 -0.13703543 -0.04064207
v 0.10182364 -0.13748006 -0.03932879
v 0.10046162 -0.13841621 -0.03942192
v 0.10005522 -0.13868291 -0.04029612
v 0.10024150 -0.13781245 -0.04126527
v 0.10698092 -0.14583216 -0.03773542
v 0.10447235 -0.14728545 -0.03847759
v 0.10380547 -0.14766523 -0.04138944
v 0.10590032 -0.14644061 -0.04313699
v 0.10866482 -0.14483576 -0.04142209
v 0.10267967 -0.13779928 -0.04115921
v 0.10272417 -0.13774596 -0.04000017
v 0.10162340 -0.13814153 -0.04199112
v 0.10046817 -0.13860683 -0.04143594
v 0.10772040 -0.14540880 -0.04013957
v 0.10462994 -0.14719581 -0.04081941
v 0.10557897 -0.14665038 -0.04087947
v 0.10648205 -0.14612650 -0.04225541
v 0.10257289 -0.13885344 -0.04183059
v 0.10119767 -0.13945433 -0.04168902
v 0.10102762 -0.13914515 -0.03923516
v 0.10234937 -0.13824086 -0.03913054
f 17 11 15
f 19 14 13
f 23 14 15
f 13 14 23
f 11 17 27
f 15 24 16
f 16 24 5
f 13 12 9
f 9 19 13
f 1 5 18
f 5 24 18
f 15 14 18
f 18 24 15
f 21 12 13
f 13 23 21
f 15 11 20
f 20 23 15
f 6 17 15
f 15 16 6
f 10 9 1
f 19 9 10
f 1 18 10
f 10 18 19
f 14 19 25
f 25 18 14
f 19 18 25
f 12 21 22
f 22 21 23
f 23 20 22
f 11 12 22
f 22 20 11
f 17 6 4
f 1 3 4
f 4 5 1
f 4 16 5
f 4 6 16
f 7 27 17
f 17 4 7
f 7 4 3
f 8 9 12
f 8 7 3
f 27 7 8
f 1 9 2
f 9 8 2
f 2 3 1
f 2 8 3
f 26 12 11
f 26 8 12
f 11 27 26
f 27 8 26

