# https://github.com/mikedh/trimesh
v 0.11558149 -0.00856645 -0.07873929
v 0.11814319 0.03862569 -0.04316337
v 0.11565158 0.00663901 -0.00203359
v 0.11563531 0.02568669 -0.01127074
v 0.11568159 0.03085104 -0.01632962
v 0.11565835 0.03752197 -0.02930019
v 0.11572386 0.03953169 -0.04056376
v 0.11564286 0.03204139 -0.06384689
v 0.11558833 0.01661235 -0.07628467
v 0.11563846 0.00079833 -0.08015350
v 0.11587628 -0.01244453 -0.07882217
v 0.11569973 -0.02536556 -0.07122183
v 0.11559331 -0.03247288 -0.06243479
v 0.11553496 -0.03728851 -0.05237284
v 0.11564388 -0.03912386 -0.04161271
v 0.11565835 -0.03786861 -0.03047707
v 0.11573998 -0.03418151 -0.02095469
v 0.11570592 -0.02623543 -0.01149674
v 0.11574073 -0.01629358 -0.00495774
v 0.11655460 0.01303096 -0.00309379
v 0.11618063 0.02362257 -0.00855354
v 0.11655366 0.03646039 -0.02422204
v 0.11688999 0.03963979 -0.03439401
v 0.11612091 0.03854664 -0.05154229
v 0.11655367 0.03478079 -0.06095007
v 0.11655463 0.02902772 -0.06853984
v 0.11627191 0.02190575 -0.07449487
v 0.11655456 0.01316162 -0.07877511
v 0.11625121 0.00354376 -0.08082706
v 0.11655461 -0.00563068 -0.08060237
v 0.11655460 -0.01996218 -0.07566991
v 0.11662488 -0.03401276 -0.06242891
v 0.11655198 -0.03948141 -0.04864784
v 0.11688995 -0.03988418 -0.03608632
v 0.11682452 -0.03719311 -0.02548469
v 0.11689128 -0.03155848 -0.01613964
v 0.11696945 -0.02453055 -0.00910914
v 0.11684455 -0.01121222 -0.00235502
v 0.11613786 -0.00506381 -0.00138176
v 0.11689128 0.00382041 -0.00094299
v 0.11805898 0.01460555 -0.00416694
v 0.11724343 0.02153814 -0.00714644
v 0.11731010 0.03076212 -0.01528366
v 0.11807536 0.03439202 -0.02145479
v 0.11810728 0.03753939 -0.02917072
v 0.11798608 0.03977087 -0.04436597
v 0.11792984 0.03854079 -0.05073389
v 0.11776499 0.03428697 -0.06118867
v 0.11807178 0.02696984 -0.06986739
v 0.11780874 0.01962790 -0.07547117
v 0.11809324 0.01249170 -0.07836344
v 0.11764468 0.00629095 -0.08035579
v 0.11807178 -0.00418748 -0.08027219
v 0.11809324 -0.01330393 -0.07808271
v 0.11786238 -0.02089870 -0.07470599
v 0.11722891 -0.02774046 -0.06993912
v 0.11785132 -0.03502746 -0.05965336
v 0.11804051 -0.03793706 -0.05218431
v 0.11783696 -0.03964948 -0.04342831
v 0.11810170 -0.03771048 -0.02932729
v 0.11810170 -0.00134428 -0.00151742
v 0.11733403 -0.01540832 -0.00395321
v 0.11813961 0.03506117 -0.05693502
v 0.11812376 -0.02597126 -0.07056276
v 0.11819350 -0.03847998 -0.04702022
v 0.11812910 -0.01637514 -0.00518637
v 0.11812466 -0.03005806 -0.01538497
v 0.11813121 0.02428026 -0.01014951
f 16 18 14
f 14 18 3
f 65 64 51
f 51 63 65
f 46 63 47
f 19 3 18
f 14 3 4
f 4 9 14
f 6 9 4
f 61 41 40
f 58 64 65
f 58 57 64
f 58 33 57
f 2 63 46
f 46 45 2
f 65 63 2
f 41 61 68
f 68 2 45
f 65 2 68
f 23 45 46
f 44 68 45
f 53 51 54
f 54 51 64
f 64 55 54
f 63 51 49
f 6 23 7
f 7 23 46
f 15 16 14
f 14 33 15
f 15 34 16
f 33 34 15
f 40 41 20
f 20 3 40
f 65 60 59
f 59 60 34
f 59 34 33
f 59 58 65
f 33 58 59
f 18 16 17
f 39 61 40
f 40 3 39
f 3 19 39
f 65 68 66
f 66 68 61
f 14 13 32
f 32 33 14
f 57 33 32
f 12 32 13
f 30 29 53
f 53 54 30
f 30 54 11
f 9 29 10
f 10 30 11
f 29 30 10
f 28 29 9
f 6 4 5
f 48 47 63
f 63 49 48
f 21 4 3
f 3 20 21
f 21 5 4
f 35 17 16
f 16 34 35
f 34 60 35
f 37 19 18
f 61 39 38
f 38 39 19
f 64 57 56
f 57 32 56
f 32 12 56
f 56 55 64
f 31 12 11
f 11 54 31
f 31 54 55
f 55 56 31
f 31 56 12
f 14 9 1
f 9 10 1
f 1 13 14
f 1 12 13
f 11 12 1
f 1 10 11
f 52 28 51
f 29 28 52
f 52 51 53
f 53 29 52
f 50 49 51
f 51 28 50
f 6 5 22
f 22 23 6
f 45 23 22
f 22 44 45
f 68 44 43
f 5 21 43
f 44 22 43
f 43 22 5
f 46 47 24
f 24 7 46
f 26 48 49
f 42 20 41
f 42 21 20
f 41 68 42
f 68 43 42
f 42 43 21
f 67 35 60
f 66 37 67
f 67 60 65
f 65 66 67
f 62 66 61
f 61 38 62
f 62 37 66
f 19 37 62
f 62 38 19
f 47 48 25
f 25 24 47
f 48 26 25
f 7 24 8
f 8 9 6
f 6 7 8
f 24 25 8
f 8 25 26
f 27 28 9
f 27 50 28
f 9 8 27
f 27 8 26
f 49 50 27
f 27 26 49
f 17 35 36
f 35 67 36
f 36 67 37
f 18 17 36
f 36 37 18

