# https://github.com/mikedh/trimesh
v 0.13776302 0.21098192 0.02958901
v 0.13109562 0.22980650 0.02958746
v 0.12175692 0.23394571 0.02974516
v 0.11850051 0.23384178 0.08080991
v 0.12927532 0.23063114 0.08080991
v 0.07519246 0.21353458 0.05636213
v 0.07516187 0.21458913 0.05389859
v 0.07520517 0.21589552 0.05558928
v 0.11674062 0.25753224 0.05530303
v 0.11843167 0.25757175 0.05399982
v 0.11919406 0.25754650 0.05638392
v 0.16110204 0.21564765 0.05636212
v 0.16113307 0.21459339 0.05389862
v 0.16108724 0.21328657 0.05558928
v 0.11920284 0.17163514 0.05636211
v 0.11814857 0.17160411 0.05389861
v 0.11684169 0.17164996 0.05558928
v 0.10086364 0.20610386 0.08080991
v 0.09880634 0.21570171 0.08080991
v 0.13271654 0.20097537 0.02958748
v 0.11209759 0.23364306 0.02958146
v 0.09875034 0.21894689 0.02958624
v 0.11066187 0.19621800 0.02958485
v 0.13717299 0.21224709 0.08080991
v 0.13446789 0.20415717 0.08080991
v 0.11456544 0.25756925 0.05103284
v 0.12182082 0.25741275 0.05094713
v 0.11458387 0.25734048 0.06280429
v 0.07523694 0.21095854 0.05108526
v 0.07525756 0.21826166 0.05107594
v 0.10712319 0.19866124 0.08080991
v 0.13690580 0.22097557 0.02958669
v 0.11774252 0.19522349 0.08080991
v 0.07539682 0.21815332 0.06280428
v 0.10189837 0.22492188 0.08080991
v 0.11458386 0.17184162 0.06280429
v 0.11450756 0.17164004 0.05109364
v 0.11747187 0.19488931 0.02958977
v 0.12725894 0.19762997 0.08080991
v 0.09898929 0.20945426 0.02958559
v 0.10901939 0.23167797 0.08080991
v 0.16109716 0.21095240 0.05109359
v 0.16089559 0.21102872 0.06280429
v 0.12171005 0.25742875 0.06280477
v 0.16098387 0.21815603 0.06280468
v 0.13660666 0.22046247 0.08080991
v 0.16098881 0.21826394 0.05109183
v 0.10314029 0.20165647 0.02958730
v 0.12353239 0.19553965 0.02958783
v 0.07530854 0.21102725 0.06280467
v 0.10326662 0.22767275 0.02958731
v 0.12171121 0.17175336 0.06280468
v 0.12181908 0.17174835 0.05109183
f 32 20 21
f 21 20 23
f 30 29 7
f 9 11 26
f 44 11 28
f 11 9 28
f 28 9 26
f 26 30 28
f 28 30 34
f 34 50 19
f 44 5 45
f 43 12 45
f 5 46 45
f 45 46 24
f 24 43 45
f 4 5 44
f 44 28 4
f 4 28 41
f 43 52 42
f 20 42 53
f 53 42 52
f 51 26 21
f 51 30 26
f 8 30 7
f 34 30 8
f 52 39 33
f 25 43 24
f 25 52 43
f 25 39 52
f 31 50 36
f 36 33 31
f 52 33 36
f 34 19 35
f 35 28 34
f 41 28 35
f 18 50 31
f 18 19 50
f 20 32 1
f 1 42 20
f 14 42 13
f 43 42 14
f 13 12 14
f 14 12 43
f 27 11 44
f 21 26 3
f 26 27 3
f 37 53 16
f 37 48 23
f 29 48 37
f 37 50 29
f 37 36 50
f 49 23 20
f 20 53 49
f 16 53 15
f 15 53 52
f 52 36 15
f 6 50 34
f 34 8 6
f 6 8 7
f 7 29 6
f 29 50 6
f 40 48 29
f 21 23 40
f 23 48 40
f 26 11 10
f 10 27 26
f 11 27 10
f 2 3 27
f 2 32 21
f 21 3 2
f 38 37 23
f 23 49 38
f 53 37 38
f 38 49 53
f 16 15 17
f 17 15 36
f 17 37 16
f 36 37 17
f 29 30 22
f 22 40 29
f 30 51 22
f 22 51 21
f 21 40 22
f 47 2 27
f 47 45 12
f 44 45 47
f 47 27 44
f 47 12 13
f 32 2 47
f 13 42 47
f 47 1 32
f 42 1 47
f 31 33 18
f 41 35 18
f 24 46 18
f 18 4 41
f 18 25 24
f 18 46 5
f 5 4 18
f 18 33 39
f 39 25 18
f 18 35 19

