# https://github.com/mikedh/trimesh
v 0.19267138 -0.18508344 0.10307007
v 0.19332689 -0.18616931 0.10276324
v 0.19278733 -0.18745667 0.10335116
v 0.19396256 -0.18790704 0.10360907
v 0.19345131 -0.18854154 0.10495312
v 0.19505899 -0.18808247 0.10575534
v 0.19442566 -0.18738633 0.10730631
v 0.19532508 -0.18570794 0.10706801
v 0.19442851 -0.18490299 0.10731187
v 0.19537196 -0.18466731 0.10642719
v 0.19396420 -0.18369621 0.10618082
v 0.19340254 -0.18357214 0.10457554
v 0.19417814 -0.18492106 0.10301739
v 0.19409793 -0.18702952 0.10296541
v 0.19457066 -0.18831749 0.10478209
v 0.19479843 -0.18392243 0.10592259
v 0.19549788 -0.18684419 0.10667267
v 0.19472460 -0.18402711 0.10424212
v 0.19585863 -0.18490871 0.10494677
v 0.19539671 -0.18715289 0.10390156
v 0.19569983 -0.18733494 0.10488237
v 0.19607941 -0.18623904 0.10562594
v 0.19554149 -0.18526176 0.10386419
v 0.19531771 -0.18631152 0.10348079
v 0.19590708 -0.18613794 0.10441757
f 7 9 1
f 3 7 1
f 5 7 3
f 2 3 1
f 14 3 2
f 9 7 8
f 8 10 9
f 22 10 8
f 18 12 16
f 9 10 16
f 22 8 17
f 17 8 7
f 17 21 22
f 9 16 11
f 11 16 12
f 1 9 11
f 11 12 1
f 21 15 20
f 14 2 13
f 13 2 1
f 18 23 13
f 1 12 13
f 13 12 18
f 19 10 22
f 19 23 18
f 18 16 19
f 19 16 10
f 6 15 21
f 21 17 6
f 6 17 7
f 6 7 5
f 5 15 6
f 14 20 4
f 4 20 15
f 4 3 14
f 5 3 4
f 4 15 5
f 24 20 14
f 14 13 24
f 24 13 23
f 25 19 22
f 23 19 25
f 22 21 25
f 21 20 25
f 25 24 23
f 20 24 25

