# https://github.com/mikedh/trimesh
v -0.16992852 -0.00018555 0.02284579
v -0.16717398 -0.00152001 0.02253639
v -0.16710733 0.00140318 0.02245821
v -0.16991075 0.00194224 0.02208931
v -0.16711692 0.00279394 0.02013761
v -0.16997370 0.00266121 0.02032391
v -0.16989315 0.00154671 0.01780849
v -0.16720955 0.00097728 0.01750814
v -0.16993235 -0.00194172 0.01812779
v -0.16713292 -0.00182878 0.01815434
v -0.16710355 -0.00264970 0.02001376
v -0.16994010 -0.00245104 0.02147341
v -0.15160920 -0.00101191 0.02089439
v -0.15147080 -0.00085974 0.01930316
v -0.15126575 -0.00000999 0.02119821
v -0.15167535 0.00019734 0.02139626
v -0.15178824 0.00124852 0.02029434
v -0.15159059 0.00106353 0.01893974
v -0.15174220 -0.00071713 0.01880586
v -0.15185322 -0.00160136 0.02033459
v -0.15202893 0.00109295 0.02125677
v -0.15212425 0.00145867 0.01946937
v -0.15222070 -0.00067278 0.01865159
v -0.15240902 -0.00081336 0.02155466
v -0.15249352 0.00103735 0.02133536
v -0.15260342 0.00144079 0.01938699
v -0.15279922 -0.00158156 0.01991071
v -0.15295500 0.00012389 0.02173376
v -0.15303570 0.00165042 0.02035344
v -0.15317398 0.00007868 0.01853239
v -0.15335402 -0.00126152 0.02108156
v -0.15384830 -0.00140911 0.02094089
v -0.15393258 0.00067499 0.02164741
v -0.15474507 -0.00136747 0.01928181
v -0.15194248 -0.00028333 0.02170809
v -0.16994725 -0.00041113 0.02154064
v -0.16994460 0.00042191 0.01879804
f 8 9 7
f 6 5 7
f 36 1 6
f 4 5 6
f 6 1 4
f 1 3 4
f 37 9 6
f 6 7 37
f 37 7 9
f 26 5 22
f 26 7 5
f 12 2 1
f 1 36 12
f 12 36 6
f 12 32 2
f 12 9 11
f 6 9 12
f 10 9 8
f 8 23 10
f 11 9 10
f 28 3 1
f 28 33 3
f 33 28 25
f 3 33 25
f 18 26 22
f 15 14 18
f 8 7 18
f 7 26 18
f 20 12 11
f 32 12 20
f 15 18 17
f 17 18 22
f 5 4 21
f 21 4 3
f 3 25 21
f 15 17 21
f 21 16 15
f 21 25 28
f 23 18 19
f 19 18 14
f 14 20 19
f 30 23 8
f 8 18 30
f 30 18 23
f 11 10 27
f 27 20 11
f 27 19 20
f 23 19 27
f 2 32 31
f 31 24 2
f 32 20 31
f 20 24 31
f 2 24 35
f 1 2 35
f 35 28 1
f 35 21 28
f 16 21 35
f 15 16 35
f 22 5 29
f 5 21 29
f 29 17 22
f 29 21 17
f 34 10 23
f 23 27 34
f 34 27 10
f 13 24 20
f 13 35 24
f 15 35 13
f 13 14 15
f 13 20 14

