# https://github.com/mikedh/trimesh
v -0.01153557 -0.02025088 -0.08869330
v -0.00908821 -0.02126006 -0.08869330
v -0.01125400 0.02078628 -0.08869330
v -0.00892609 0.02109454 -0.08869330
v 0.01142190 -0.01872292 -0.08869330
v 0.00979817 -0.02159454 -0.08869330
v 0.01075894 0.02109455 -0.08869330
v 0.01154749 0.01896110 -0.08869330
v -0.01472782 -0.05687755 -0.03997282
v -0.01472782 -0.05658862 -0.04373145
v 0.01479972 -0.05687755 -0.03997282
v 0.01479972 -0.05659695 -0.04379422
v -0.01472782 -0.04380452 -0.06242675
v 0.01479972 -0.04167760 -0.06563225
v -0.01472782 -0.02214620 -0.08869328
v 0.01479973 -0.02214621 -0.08869328
v -0.01472781 0.02214515 -0.08869328
v 0.01479973 0.02214515 -0.08869328
v -0.01472782 0.04047703 -0.06723110
v 0.01479973 0.04038972 -0.06728904
v -0.01472782 0.05654675 -0.04375845
v 0.01479973 0.05664585 -0.04378562
v -0.01472782 0.05687650 -0.03997282
v 0.01479973 0.05687650 -0.03997282
f 18 17 19
f 14 13 15
f 15 16 14
f 14 10 13
f 23 24 22
f 10 14 12
f 12 11 9
f 9 10 12
f 7 17 18
f 6 16 15
f 23 22 21
f 21 22 19
f 18 19 20
f 19 22 20
f 4 3 17
f 17 7 4
f 15 17 1
f 17 3 1
f 16 6 5
f 2 6 15
f 15 1 2
f 18 16 8
f 16 5 8
f 8 7 18
f 9 11 24
f 24 23 9
f 9 23 21
f 21 10 9
f 21 17 15
f 15 13 21
f 21 19 17
f 13 10 21
f 20 24 11
f 11 12 20
f 20 16 18
f 20 14 16
f 20 22 24
f 20 12 14
f 8 1 3
f 3 4 8
f 8 4 7
f 6 2 8
f 8 5 6
f 8 2 1

