# https://github.com/mikedh/trimesh
v -0.00964476 -0.01619918 -0.10153517
v -0.01161614 -0.01679781 -0.10125813
v -0.00767154 -0.01707240 -0.10124485
v -0.01323080 -0.01888232 -0.10154375
v -0.01309671 -0.02056068 -0.10125890
v -0.00640540 -0.02047974 -0.10496070
v -0.00627504 -0.01947208 -0.10136075
v -0.00761343 -0.02228509 -0.10129135
v -0.00887311 -0.02308200 -0.10500982
v -0.01077640 -0.02305996 -0.10129087
v -0.01194444 -0.02230062 -0.10507350
v -0.01333790 -0.01979629 -0.10500435
v -0.01138989 -0.01651765 -0.10495493
v -0.00861084 -0.01652658 -0.10507350
v -0.00690860 -0.01792649 -0.10502477
v -0.00940772 -0.01828826 -0.08342967
v -0.01131148 -0.01916403 -0.08366880
v -0.01102518 -0.02046910 -0.08342725
v -0.01018350 -0.01817458 -0.08376577
v -0.00877588 -0.01844377 -0.08381642
v -0.00816539 -0.02074161 -0.08377645
v -0.00983730 -0.02130052 -0.08408295
v -0.01163830 -0.02066161 -0.08397217
v -0.01169294 -0.01893710 -0.08400197
v -0.00827101 -0.01938160 -0.08397773
v -0.01031088 -0.01763321 -0.08414795
v -0.00827930 -0.01829498 -0.08425182
v -0.00778313 -0.02014509 -0.08436790
v -0.00913183 -0.02165093 -0.08447338
v -0.01143899 -0.02106841 -0.08461465
v -0.01077530 -0.01783487 -0.08477065
v -0.00845101 -0.01807293 -0.08487867
v -0.00778001 -0.01967929 -0.08500669
v -0.00843801 -0.02125304 -0.08508685
v -0.01022346 -0.02168795 -0.08520632
v -0.00773106 -0.01951957 -0.08570745
v -0.01007364 -0.02180261 -0.08586593
v -0.00935938 -0.01760523 -0.08622340
v -0.00797426 -0.01974888 -0.10509030
v -0.01083375 -0.01830531 -0.10504815
v -0.01031399 -0.02128342 -0.10508672
f 13 14 12
f 12 4 13
f 13 4 2
f 9 10 11
f 11 41 9
f 14 41 11
f 29 10 9
f 7 6 15
f 15 3 7
f 14 3 15
f 9 6 8
f 8 29 9
f 12 11 5
f 5 4 12
f 4 5 23
f 12 14 40
f 40 11 12
f 14 11 40
f 39 41 14
f 14 15 39
f 9 41 39
f 39 6 9
f 39 15 6
f 21 29 34
f 34 8 21
f 29 8 34
f 18 23 22
f 22 21 18
f 22 29 21
f 29 22 35
f 1 3 14
f 14 13 1
f 1 13 2
f 2 26 1
f 18 21 16
f 10 29 37
f 37 35 10
f 29 35 37
f 10 35 30
f 30 11 10
f 30 22 23
f 30 35 22
f 30 5 11
f 30 23 5
f 3 1 32
f 18 16 17
f 38 1 26
f 26 32 38
f 38 32 1
f 26 16 27
f 27 32 26
f 7 3 27
f 3 32 27
f 19 16 26
f 26 17 19
f 19 17 16
f 24 17 26
f 4 23 24
f 24 23 18
f 18 17 24
f 2 4 24
f 20 16 21
f 20 27 16
f 33 27 28
f 28 6 7
f 21 8 28
f 28 8 6
f 7 27 36
f 36 27 33
f 36 28 7
f 33 28 36
f 31 24 26
f 2 24 31
f 31 26 2
f 25 20 21
f 27 20 25
f 21 28 25
f 25 28 27

