# https://github.com/mikedh/trimesh
v 0.20429056 -0.07184854 0.06848074
v 0.20432876 -0.07096602 0.06662203
v 0.20343030 -0.07145912 0.06600760
v 0.20470537 -0.07068362 0.06596990
v 0.20507637 -0.07141669 0.06653289
v 0.20555225 -0.07172569 0.06581212
v 0.20477320 -0.07281544 0.06613570
v 0.20506593 -0.07294237 0.06566334
v 0.20332351 -0.07292602 0.06547225
v 0.20491994 -0.07264254 0.06648026
v 0.20317112 -0.07081317 0.06533293
v 0.20575016 -0.07110822 0.04810233
v 0.20549112 -0.07072547 0.04813275
v 0.20633765 -0.06987894 0.04921504
v 0.20380650 -0.07044516 0.04782043
v 0.20343264 -0.07024814 0.04817614
v 0.20419298 -0.06899224 0.04925686
v 0.20188697 -0.07031854 0.04950101
v 0.20321494 -0.07072829 0.04807262
v 0.20219972 -0.07175734 0.04834327
v 0.20284682 -0.07260599 0.04813071
v 0.20303608 -0.07305734 0.04809259
v 0.20229551 -0.07382924 0.04939018
v 0.20419134 -0.07464109 0.04917720
v 0.20544966 -0.07308864 0.04808173
v 0.20498150 -0.07328989 0.04804469
v 0.20634502 -0.07215479 0.04833420
v 0.20599948 -0.07411326 0.04957270
v 0.20148874 -0.07213484 0.04952846
v 0.20703782 -0.07117694 0.04957209
v 0.20695537 -0.07280902 0.04930753
v 0.20449685 -0.06910919 0.04963758
v 0.20351301 -0.07445237 0.04965435
v 0.20301038 -0.07270892 0.06448017
v 0.20493310 -0.07324696 0.06478002
v 0.20581742 -0.07175697 0.06491846
v 0.20480789 -0.07044547 0.06516119
v 0.20290767 -0.07238367 0.06340694
v 0.20429345 -0.07338342 0.06363219
v 0.20548087 -0.07273209 0.06376610
v 0.20569950 -0.07123007 0.06394280
v 0.20444179 -0.07038199 0.06413610
f 38 11 29
f 3 9 1
f 1 11 3
f 3 11 9
f 2 11 1
f 15 21 20
f 20 23 29
f 11 37 42
f 42 17 11
f 37 17 42
f 29 23 34
f 34 23 9
f 34 38 29
f 9 11 34
f 11 38 34
f 33 23 24
f 9 23 33
f 4 37 11
f 11 2 4
f 4 2 1
f 1 5 4
f 4 5 37
f 18 20 29
f 29 11 18
f 11 17 18
f 22 21 15
f 24 23 22
f 22 20 21
f 23 20 22
f 28 25 31
f 30 36 31
f 12 25 15
f 32 17 37
f 37 14 32
f 32 14 17
f 37 36 41
f 41 14 37
f 41 36 30
f 30 14 41
f 6 36 37
f 37 5 6
f 6 5 1
f 1 9 7
f 39 33 24
f 9 33 39
f 16 17 15
f 16 18 17
f 15 25 26
f 26 22 15
f 24 22 26
f 26 28 24
f 26 25 28
f 36 6 8
f 13 12 15
f 14 12 13
f 15 17 13
f 17 14 13
f 27 31 25
f 25 12 27
f 30 31 27
f 27 14 30
f 27 12 14
f 20 18 19
f 18 16 19
f 15 20 19
f 19 16 15
f 40 31 36
f 36 8 40
f 28 31 40
f 24 28 35
f 35 39 24
f 28 40 35
f 35 40 8
f 9 39 35
f 35 7 9
f 35 8 7
f 10 6 1
f 10 8 6
f 1 7 10
f 7 8 10

