# https://github.com/mikedh/trimesh
v 0.16398458 0.00277943 0.02075541
v 0.16124936 0.00271037 0.02059476
v 0.16129972 0.00058703 0.02292299
v 0.16405836 0.00074722 0.02279484
v 0.16409587 -0.00127076 0.02250306
v 0.16122323 -0.00197785 0.02193844
v 0.16405268 -0.00281355 0.02011601
v 0.16133173 -0.00276587 0.01958266
v 0.16401917 -0.00059495 0.01741301
v 0.16124840 -0.00109415 0.01775114
v 0.16126631 0.00143142 0.01778696
v 0.16409585 0.00199078 0.01839786
v 0.14570117 0.00085132 0.01929446
v 0.14556830 -0.00038633 0.01905806
v 0.14533630 0.00067221 0.02086146
v 0.14577673 0.00111641 0.02084281
v 0.14588148 0.00007608 0.02143689
v 0.14575998 -0.00163192 0.02010189
v 0.14587902 -0.00051161 0.01871494
v 0.14597506 0.00109867 0.01902004
v 0.14614938 0.00035420 0.02166796
v 0.14624135 -0.00134948 0.02103981
v 0.14634340 -0.00092216 0.01878949
v 0.14653770 0.00151938 0.02052551
v 0.14662092 0.00044041 0.02166671
v 0.14681428 -0.00118961 0.01914896
v 0.14691176 0.00034250 0.01864871
v 0.14697636 0.00158160 0.01983124
v 0.14707703 0.00098262 0.02134844
v 0.14716968 -0.00077621 0.02161094
v 0.14606450 0.00146399 0.02073961
v 0.16409623 0.00141431 0.02050399
v 0.16408835 -0.00061410 0.01885044
f 7 9 33
f 9 12 33
f 8 9 7
f 11 12 9
f 6 22 7
f 10 23 9
f 9 8 10
f 10 8 23
f 7 22 18
f 18 8 7
f 27 11 9
f 1 4 32
f 32 12 1
f 12 2 1
f 3 4 1
f 1 29 3
f 22 6 30
f 3 21 30
f 30 21 22
f 5 4 3
f 3 30 5
f 5 30 6
f 5 6 7
f 32 4 5
f 7 33 5
f 5 12 32
f 5 33 12
f 23 8 26
f 26 18 23
f 8 18 26
f 11 27 20
f 12 11 20
f 3 29 25
f 25 21 3
f 29 21 25
f 17 21 15
f 22 21 17
f 15 18 17
f 17 18 22
f 19 20 27
f 9 23 19
f 19 27 9
f 23 18 19
f 31 21 29
f 29 1 31
f 31 1 2
f 28 2 12
f 12 20 28
f 20 31 28
f 20 19 14
f 14 18 15
f 14 19 18
f 15 21 16
f 16 31 15
f 21 31 16
f 24 31 2
f 2 28 24
f 24 28 31
f 13 14 15
f 20 14 13
f 15 31 13
f 13 31 20

