# https://github.com/mikedh/trimesh
v 0.06401172 0.13147014 -0.04240257
v 0.06513244 0.13301447 -0.04314797
v 0.06384194 0.13076194 -0.04044790
v 0.06207359 0.13320402 -0.04286267
v 0.06144792 0.13228012 -0.04077599
v 0.06170614 0.13268962 -0.03877382
v 0.06459649 0.13203039 -0.03800662
v 0.06297957 0.13487682 -0.03774385
v 0.06588712 0.13435085 -0.03817465
v 0.06403847 0.13672935 -0.03946292
v 0.06651002 0.13553607 -0.04007292
v 0.06398409 0.13663679 -0.04155869
v 0.06616019 0.13481343 -0.04231350
v 0.06323989 0.13539730 -0.04297194
v 0.07263664 0.13000819 -0.04024979
v 0.07249839 0.13030095 -0.04035559
v 0.07227252 0.13032670 -0.03943004
v 0.07226459 0.12999874 -0.04132322
v 0.07175724 0.12912982 -0.04163039
v 0.07114399 0.12834677 -0.04084527
v 0.07162319 0.12834680 -0.04003552
v 0.07147392 0.12883759 -0.03905909
v 0.07244042 0.13070677 -0.04111454
v 0.07146307 0.12924442 -0.04200755
v 0.07079689 0.12825185 -0.04106637
v 0.07082117 0.12844975 -0.03951484
v 0.07152089 0.12986132 -0.03892467
v 0.07205159 0.13092117 -0.04006192
v 0.07176209 0.13061214 -0.04157324
v 0.07026926 0.12834445 -0.04053892
v 0.07085664 0.12963725 -0.03882304
v 0.07108402 0.13046457 -0.04191329
v 0.06196759 0.13328622 -0.04048817
v 0.06305494 0.13517192 -0.03915337
f 24 1 2
f 25 1 24
f 7 6 26
f 33 14 5
f 5 6 33
f 34 33 6
f 10 12 34
f 14 33 34
f 34 12 14
f 8 6 7
f 8 34 6
f 8 9 10
f 10 34 8
f 5 1 3
f 3 1 25
f 3 6 5
f 3 26 6
f 4 14 2
f 2 1 4
f 5 14 4
f 4 1 5
f 25 24 19
f 2 14 13
f 14 12 13
f 21 26 25
f 21 19 15
f 9 8 27
f 11 12 10
f 10 9 11
f 11 13 12
f 25 26 30
f 30 3 25
f 26 3 30
f 32 24 2
f 2 13 32
f 25 19 20
f 20 21 25
f 19 21 20
f 7 26 22
f 26 21 22
f 22 21 15
f 9 27 17
f 17 11 9
f 28 11 17
f 15 16 17
f 17 22 15
f 27 22 17
f 7 22 31
f 31 22 27
f 31 8 7
f 31 27 8
f 28 17 23
f 23 17 16
f 23 11 28
f 13 11 23
f 23 16 15
f 24 32 29
f 29 23 24
f 29 32 13
f 13 23 29
f 15 19 18
f 18 23 15
f 18 19 24
f 24 23 18

