# https://github.com/mikedh/trimesh
v -0.15232277 0.04182634 0.03583508
v -0.15090055 0.04184281 0.03590021
v -0.15231913 0.03747604 0.03141722
v -0.15089802 0.03739416 0.03145208
v -0.15231920 0.03746806 0.11517777
v -0.15090040 0.03739531 0.11513191
v -0.15088490 0.04205191 0.11066456
v -0.14905193 -0.00765578 0.12864394
v -0.13025076 -0.05040896 0.08187419
v -0.13024638 -0.05110732 0.07170872
v -0.13022628 -0.04968522 0.06122037
v -0.13041381 -0.04648867 0.05185901
v -0.13020815 -0.03970672 0.04090874
v -0.13030307 -0.02848091 0.03068545
v -0.13259972 -0.02346973 0.02750307
v -0.13026675 -0.01722748 0.02513963
v -0.13025075 -0.00731953 0.02268484
v -0.13024637 0.00286016 0.02224017
v -0.13026084 0.01290012 0.02380644
v -0.13026672 0.02244345 0.02733701
v -0.13026672 0.03110451 0.03269489
v -0.13022910 0.03881098 0.03999884
v -0.13041380 0.04454356 0.04805868
v -0.13025902 0.04935404 0.05948955
v -0.13022170 0.05111506 0.07230713
v -0.13026085 0.05031434 0.08245797
v -0.13022910 0.04733496 0.09263964
v -0.13024170 0.04106346 0.10394931
v -0.13030307 0.03057256 0.11442914
v -0.13026675 0.01960967 0.12052899
v -0.13025075 0.00983623 0.12347467
v -0.13024638 -0.00030854 0.12442619
v -0.13026088 -0.01041419 0.12336229
v -0.13026673 -0.02012148 0.12031187
v -0.13022911 -0.02939199 0.11513539
v -0.13024171 -0.03902259 0.10650452
v -0.13029603 -0.04690244 0.09394332
v -0.13259973 -0.04916907 0.08845702
v -0.15671352 0.02923524 0.10977309
v -0.15671458 0.01876635 0.11622509
v -0.15671353 -0.02143373 0.11483739
v -0.15671459 -0.04292986 0.09205827
v -0.15671352 -0.02923204 0.03681423
v -0.15671458 -0.01876310 0.03036221
v -0.15671352 0.02143696 0.03174993
v -0.15671349 0.04521764 0.06142489
v -0.15671242 0.04968114 0.07563101
v -0.15671064 0.04913351 0.06558102
v -0.15671292 0.04568731 0.05337241
v -0.15671387 0.03921999 0.04270757
v -0.15671064 0.03225721 0.03543860
v -0.15670950 0.02168762 0.02842069
v -0.15671064 0.00983307 0.02454150
v -0.15671773 -0.00017602 0.02355682
v -0.15671065 -0.01018972 0.02461547
v -0.15671065 -0.01977979 0.02766335
v -0.15671065 -0.02856016 0.03257935
v -0.15671192 -0.03800339 0.04105066
v -0.15671508 -0.04473051 0.05155223
v -0.15671065 -0.04819004 0.06100573
v -0.15671243 -0.04967791 0.07095638
v -0.15671065 -0.04913029 0.08100639
v -0.15671293 -0.04568406 0.09321499
v -0.15671388 -0.03921671 0.10387981
v -0.15671065 -0.03225394 0.11114879
v -0.15670951 -0.02168438 0.11816664
v -0.15671065 -0.00982978 0.12204581
v -0.15671773 0.00017941 0.12303049
v -0.15671065 0.01019294 0.12197184
v -0.15671065 0.01978279 0.11892407
v -0.15671065 0.02856349 0.11400789
v -0.15671192 0.03800661 0.10553667
v -0.15671508 0.04473376 0.09503501
v -0.15671065 0.04819324 0.08558169
v -0.13024355 0.02008196 0.02960390
v -0.15230747 -0.04181164 0.03582696
v -0.15089818 -0.04184236 0.03590133
v -0.15667626 -0.04417349 0.03831660
v -0.15086268 -0.04838441 0.04446077
v -0.15667753 -0.05223036 0.05216834
v -0.15089386 -0.05437279 0.05853998
v -0.15664598 -0.05612766 0.06799296
v -0.15088600 -0.05631654 0.07321276
v -0.15666494 -0.05563291 0.08155379
v -0.15085006 -0.05471911 0.08683957
v -0.15667754 -0.05223334 0.09441159
v -0.15085966 -0.04955754 0.09985314
v -0.15667626 -0.04417839 0.10826454
v -0.15088753 -0.04204401 0.11066922
v -0.15234054 -0.03747309 0.11518792
v -0.15665323 -0.03282626 0.11912384
v -0.15089806 -0.03739104 0.11513469
v -0.15086709 -0.02903869 0.12157601
v -0.15666491 -0.02091357 0.12550426
v -0.15088021 -0.01599186 0.12729709
v -0.15666948 -0.00786541 0.12910291
v -0.14903938 0.00003045 0.12944734
v -0.15668032 0.00823087 0.12902514
v -0.14920280 0.00755379 0.12894569
v -0.15088021 0.01598735 0.12729937
v -0.15666491 0.02090942 0.12550721
v -0.15086708 0.02903511 0.12158009
v -0.15665323 0.03282311 0.11912841
v -0.15667626 0.04417679 0.10827064
v -0.15086180 0.04823959 0.10207281
v -0.15667753 0.05223356 0.09441896
v -0.15086802 0.05176446 0.09526131
v -0.15086140 0.05506739 0.08476492
v -0.15664597 0.05613089 0.07859434
v -0.15090037 0.05630906 0.07294816
v -0.15666493 0.05563611 0.06503342
v -0.15087742 0.05377799 0.05607032
v -0.15667753 0.05223654 0.05217564
v -0.15086502 0.04694811 0.04234439
v -0.15667625 0.04418156 0.03832275
v -0.15665424 0.03478921 0.02907115
v -0.15088777 0.03130004 0.02656622
v -0.15666450 0.02561186 0.02321751
v -0.15088918 0.02003755 0.02063826
v -0.15667719 0.01061119 0.01781089
v -0.15087214 0.00764536 0.01758171
v -0.15087150 -0.00510826 0.01719596
v -0.15667719 -0.01060010 0.01780936
v -0.15088843 -0.01757056 0.01986741
v -0.15666450 -0.02560170 0.02321396
v -0.15088862 -0.02921249 0.02512216
v -0.15665425 -0.03477986 0.02906630
v -0.15090035 -0.03739201 0.03145486
v -0.15234070 -0.03746481 0.03139134
f 13 79 77
f 30 102 100
f 100 102 101
f 18 19 75
f 122 124 123
f 26 25 110
f 26 27 25
f 101 102 103
f 122 18 17
f 17 124 122
f 17 18 13
f 13 77 128
f 30 100 31
f 31 28 30
f 27 28 31
f 68 59 42
f 42 64 68
f 12 79 13
f 13 11 12
f 9 85 83
f 82 80 81
f 81 83 82
f 81 80 79
f 79 12 81
f 81 12 11
f 88 64 86
f 19 119 20
f 121 18 122
f 121 19 18
f 121 119 19
f 119 121 120
f 122 123 120
f 120 121 122
f 112 111 110
f 111 112 113
f 113 112 114
f 111 47 106
f 108 26 110
f 108 106 107
f 108 107 27
f 27 26 108
f 35 11 13
f 13 25 35
f 25 27 35
f 104 103 5
f 105 106 104
f 107 106 105
f 27 107 105
f 105 28 27
f 13 128 14
f 14 128 126
f 79 80 78
f 78 77 79
f 78 76 77
f 78 80 59
f 127 126 129
f 126 128 129
f 129 78 127
f 76 78 129
f 77 76 129
f 129 128 77
f 90 88 89
f 90 91 88
f 10 11 9
f 9 83 10
f 10 81 11
f 83 81 10
f 38 85 9
f 9 37 38
f 38 37 85
f 85 86 84
f 82 83 84
f 84 83 85
f 84 80 82
f 89 88 87
f 88 86 87
f 85 37 87
f 87 86 85
f 61 42 59
f 80 84 61
f 117 20 119
f 114 112 23
f 125 56 123
f 125 126 127
f 127 78 125
f 125 124 126
f 125 123 124
f 119 120 118
f 116 117 118
f 118 117 119
f 115 113 114
f 115 50 113
f 116 118 115
f 111 106 109
f 106 108 109
f 110 111 109
f 109 108 110
f 9 11 36
f 11 35 36
f 36 37 9
f 36 87 37
f 89 87 36
f 33 35 32
f 27 31 32
f 32 35 27
f 34 35 33
f 33 95 34
f 29 102 30
f 30 28 29
f 28 105 7
f 7 29 28
f 104 5 7
f 7 105 104
f 15 14 126
f 58 78 59
f 68 96 98
f 98 69 68
f 98 100 101
f 95 96 94
f 88 91 94
f 68 64 41
f 41 66 68
f 67 96 68
f 68 66 67
f 67 94 96
f 66 94 67
f 42 61 63
f 64 42 63
f 63 86 64
f 59 80 60
f 60 61 59
f 80 61 60
f 22 25 13
f 22 75 19
f 19 20 22
f 114 23 22
f 13 18 22
f 18 75 22
f 104 106 73
f 73 72 104
f 104 72 71
f 71 103 104
f 101 103 71
f 54 120 123
f 54 59 68
f 68 73 54
f 54 73 50
f 113 50 49
f 89 36 92
f 92 36 35
f 92 90 89
f 91 90 92
f 93 34 95
f 35 34 93
f 95 94 93
f 93 94 91
f 91 92 93
f 93 92 35
f 6 7 5
f 29 7 6
f 102 29 6
f 6 103 102
f 6 5 103
f 14 15 16
f 16 17 13
f 13 14 16
f 124 17 16
f 126 124 16
f 16 15 126
f 78 58 57
f 56 125 57
f 57 125 78
f 97 98 96
f 88 94 65
f 65 94 66
f 65 64 88
f 65 41 64
f 66 41 65
f 86 63 62
f 62 63 61
f 62 84 86
f 62 61 84
f 25 22 24
f 24 22 23
f 24 23 112
f 110 25 24
f 24 112 110
f 20 117 21
f 21 22 20
f 117 4 21
f 21 4 22
f 74 106 47
f 47 73 74
f 74 73 106
f 68 69 70
f 69 98 70
f 70 98 101
f 101 71 70
f 40 71 72
f 40 73 68
f 68 70 40
f 40 70 71
f 52 118 120
f 123 56 55
f 55 54 123
f 56 54 55
f 59 54 44
f 44 57 58
f 44 54 56
f 56 57 44
f 48 49 47
f 113 49 48
f 48 47 111
f 111 113 48
f 50 73 46
f 46 49 50
f 46 73 47
f 47 49 46
f 114 22 2
f 22 4 2
f 2 115 114
f 3 117 116
f 3 4 117
f 116 115 3
f 3 2 4
f 8 96 95
f 8 97 96
f 8 95 33
f 33 32 8
f 32 97 8
f 100 98 99
f 98 97 99
f 99 31 100
f 99 32 31
f 99 97 32
f 72 73 39
f 39 40 72
f 73 40 39
f 120 54 53
f 53 52 120
f 54 52 53
f 45 54 50
f 45 52 54
f 43 58 59
f 59 44 43
f 43 44 58
f 115 2 1
f 1 3 115
f 2 3 1
f 51 45 50
f 52 45 51
f 50 115 51
f 51 115 118
f 118 52 51

