# https://github.com/mikedh/trimesh
v 0.19259493 -0.17617259 0.09250821
v 0.19342751 -0.17556757 0.09496964
v 0.19754896 -0.17650231 0.09423149
v 0.20018563 -0.17729131 0.09221724
v 0.20067428 -0.17507598 0.09327372
v 0.19243846 -0.17661366 0.09354674
v 0.19253546 -0.17593042 0.09470541
v 0.19210578 -0.17621114 0.09343752
v 0.19239696 -0.17358929 0.09297902
v 0.19182049 -0.17497984 0.09260316
v 0.19203733 -0.17556832 0.09231591
v 0.19306859 -0.17658391 0.09381781
v 0.19557738 -0.17536304 0.08941939
v 0.19861285 -0.17556944 0.08837339
v 0.19917476 -0.17762364 0.08980499
v 0.19325099 -0.17406557 0.09468726
v 0.19251853 -0.17466847 0.09210424
v 0.19880551 -0.17307530 0.08894642
v 0.19159016 -0.17556494 0.09313184
v 0.19248163 -0.17508231 0.09505407
v 0.19216736 -0.17360871 0.09390272
v 0.19611094 -0.17265847 0.09085654
v 0.19989114 -0.17250781 0.09145962
v 0.19287646 -0.17607976 0.09484209
v 0.19639495 -0.17782419 0.09163442
v 0.19698438 -0.17257454 0.09297537
v 0.19749356 -0.17386546 0.09425766
v 0.20032246 -0.17361409 0.09308709
v 0.19293351 -0.17442874 0.09514289
v 0.19917893 -0.17573861 0.08966269
v 0.19958771 -0.17646864 0.09065234
v 0.19976440 -0.17363129 0.09108249
v 0.19920313 -0.17425442 0.08972979
f 25 1 13
f 14 15 13
f 13 15 25
f 18 22 23
f 23 33 18
f 18 33 14
f 14 13 18
f 18 13 22
f 32 23 5
f 32 33 23
f 25 15 4
f 4 31 5
f 15 31 4
f 5 23 28
f 28 27 5
f 20 21 19
f 29 21 20
f 6 1 25
f 29 20 2
f 2 20 24
f 11 13 1
f 11 6 19
f 1 6 11
f 29 27 26
f 26 28 23
f 27 28 26
f 23 22 26
f 22 21 26
f 9 21 22
f 30 15 14
f 30 31 15
f 14 33 30
f 33 32 30
f 30 32 5
f 5 31 30
f 3 24 25
f 25 4 3
f 3 2 24
f 3 4 5
f 5 27 3
f 3 27 29
f 29 2 3
f 7 20 19
f 24 20 7
f 7 6 24
f 25 24 12
f 12 6 25
f 24 6 12
f 16 21 29
f 29 26 16
f 16 26 21
f 22 13 17
f 17 9 22
f 19 6 8
f 8 7 19
f 6 7 8
f 9 17 10
f 10 11 19
f 13 11 10
f 10 17 13
f 19 21 10
f 21 9 10

