# https://github.com/mikedh/trimesh
v -0.16506604 -0.21358189 0.05682095
v -0.15220089 -0.21458423 0.05528857
v -0.15494092 -0.21382925 0.05611681
v -0.15484305 -0.21469509 0.05645766
v -0.15461321 -0.21571369 0.05554612
v -0.15496197 -0.21544609 0.05445768
v -0.15507529 -0.21579540 0.05560978
v -0.15524881 -0.21474974 0.05659871
v -0.15537851 -0.21326256 0.05588351
v -0.15540704 -0.21314714 0.05489048
v -0.15476852 -0.21427433 0.05419348
v -0.15462132 -0.21349046 0.05505595
v -0.16506059 -0.21440959 0.05818220
v -0.16506490 -0.21201355 0.05638921
v -0.16506037 -0.21241619 0.05340501
v -0.16504717 -0.21532008 0.05271484
v -0.16503964 -0.21762566 0.05552196
v -0.15587189 -0.21578400 0.05598256
v -0.15580737 -0.21591761 0.05454003
v -0.15561669 -0.21436448 0.05378746
v -0.16506604 -0.21560223 0.05378757
v -0.16506604 -0.21610880 0.05631446
v -0.15699786 -0.21577291 0.05624069
v -0.15672914 -0.21508465 0.05388431
v -0.15654574 -0.21351621 0.05422798
v -0.15613599 -0.21465773 0.05685654
f 17 13 22
f 22 13 1
f 1 13 14
f 14 13 9
f 21 17 22
f 16 17 21
f 21 15 16
f 14 15 21
f 22 1 21
f 21 1 14
f 19 17 16
f 13 17 23
f 16 15 20
f 26 9 13
f 13 23 26
f 5 19 2
f 17 19 5
f 2 19 6
f 6 20 2
f 24 19 16
f 16 20 24
f 24 6 19
f 20 6 24
f 10 15 14
f 14 9 10
f 2 9 3
f 9 26 3
f 18 23 17
f 12 9 2
f 2 10 12
f 12 10 9
f 2 20 11
f 11 10 2
f 20 10 11
f 25 20 15
f 15 10 25
f 25 10 20
f 8 18 5
f 8 26 23
f 23 18 8
f 17 5 7
f 7 18 17
f 5 18 7
f 4 5 2
f 4 8 5
f 2 3 4
f 4 3 26
f 26 8 4

