# https://github.com/mikedh/trimesh
v 0.11645485 0.26210623 0.05598257
v 0.11815995 0.24924117 0.05531515
v 0.11719475 0.25198124 0.05588465
v 0.11703832 0.25188325 0.05496734
v 0.11813912 0.25165349 0.05415698
v 0.11907817 0.25199373 0.05455236
v 0.11809352 0.25211549 0.05406393
v 0.11691144 0.25228899 0.05488493
v 0.11730702 0.25241874 0.05648705
v 0.11825542 0.25244725 0.05680331
v 0.11916692 0.25181773 0.05583737
v 0.11821867 0.25166874 0.05644109
v 0.11529187 0.26210075 0.05489366
v 0.11655639 0.26210499 0.05760610
v 0.11955974 0.26210049 0.05782294
v 0.12082925 0.26208749 0.05511670
v 0.11855417 0.26207975 0.05229041
v 0.11772626 0.25291200 0.05399877
v 0.11916572 0.25284799 0.05416388
v 0.11958430 0.25265699 0.05583752
v 0.11749097 0.26210373 0.05361586
v 0.11882447 0.26210623 0.05699566
v 0.11868150 0.26210850 0.05590878
v 0.11983462 0.26210373 0.05464905
v 0.11710027 0.25333300 0.05639796
v 0.11670491 0.25318750 0.05479536
f 16 15 20
f 13 17 18
f 16 17 24
f 24 15 16
f 15 14 10
f 10 20 15
f 13 14 1
f 1 14 23
f 22 14 15
f 23 14 22
f 15 24 22
f 22 24 23
f 23 24 21
f 13 1 21
f 21 1 23
f 21 17 13
f 21 24 17
f 2 20 11
f 11 10 2
f 20 10 11
f 25 14 13
f 2 5 19
f 16 20 19
f 19 5 17
f 19 17 16
f 18 5 8
f 2 10 12
f 9 10 14
f 14 25 9
f 9 12 10
f 2 12 9
f 7 18 17
f 17 5 7
f 7 5 18
f 6 20 2
f 2 19 6
f 6 19 20
f 26 25 13
f 13 18 26
f 18 8 26
f 4 5 2
f 4 8 5
f 3 9 25
f 25 26 3
f 3 26 8
f 8 4 3
f 2 9 3
f 3 4 2

