# https://github.com/mikedh/trimesh
v 0.07027278 -0.10891968 0.14027891
v 0.07388656 -0.11125380 0.14028398
v -0.07259901 -0.15370732 0.11275722
v -0.06284579 -0.15469631 0.08978694
v -0.07085559 -0.15494570 0.11325117
v -0.08454961 -0.13245292 0.13316055
v -0.07624552 -0.15160244 0.11961557
v -0.08095342 -0.14548899 0.12755415
v 0.08599626 -0.08535678 0.13873983
v 0.08521836 -0.07921858 0.13741823
v 0.08158566 -0.09470898 0.14015691
v 0.06564326 -0.09441440 0.14018566
v -0.08445813 -0.08374009 0.13328642
v 0.07628654 -0.10726036 0.14025143
v 0.07853133 -0.15009436 0.12967578
v 0.08007251 -0.14957686 0.12805060
v 0.08315513 -0.14379703 0.13430288
v 0.00890487 -0.11138217 0.13926123
v 0.06689886 -0.06089546 0.09692693
v 0.07381204 -0.06178261 0.11816843
v 0.00072358 -0.07246697 0.13428843
v 0.08232909 -0.07481411 0.13692818
v 0.08023829 -0.06906461 0.13258791
v 0.07649629 -0.06373701 0.12506545
v 0.00090551 -0.06663960 0.12866395
v 0.08408569 -0.08358058 0.13993831
v -0.08164231 -0.08307827 0.13472067
v 0.00056708 -0.08772883 0.13912725
v 0.07657656 -0.15321018 0.12046736
v -0.07392556 -0.06350764 0.11970892
v -0.07751124 -0.06759357 0.12596857
v -0.07355788 -0.06318672 0.11479827
v -0.07173919 -0.06194732 0.11464470
v 0.06233327 -0.05977533 0.06756725
v 0.00503237 -0.06198520 0.11956953
v -0.08164806 -0.07608314 0.13213107
v 0.00060716 -0.07972315 0.13788855
v 0.08276981 -0.07154293 0.13311333
v 0.06575396 -0.15586888 0.09575996
v 0.07369821 -0.15488563 0.11780041
v 0.08158353 -0.12423801 0.14015321
v -0.08298997 -0.13091747 0.13469749
v 0.06185827 -0.06094945 0.06688219
v -0.06444149 -0.12215829 0.13597832
v 0.07229438 -0.10548718 0.14029421
v 0.08401656 -0.13306793 0.13992226
v -0.08270679 -0.13479977 0.13411724
v 0.08359901 -0.13761588 0.13872948
v -0.07484959 -0.10942307 0.13540997
v -0.07133457 -0.11125099 0.13562442
v 0.08489398 -0.13876518 0.13681238
v -0.08035304 -0.10021584 0.13493042
v -0.07400584 -0.15305957 0.11982410
v 0.08158203 -0.09077403 0.14015036
v 0.08181136 -0.11714065 0.14018411
v -0.08034239 -0.09233417 0.13491234
v -0.06402127 -0.12407895 0.13598285
v 0.07574993 -0.15353782 0.12341700
v -0.07815264 -0.14807471 0.12683472
v 0.08032646 -0.14472535 0.13522758
v -0.08093389 -0.14165382 0.13176312
v 0.08140169 -0.10034688 0.14017283
v -0.06418019 -0.09054532 0.13599059
v 0.06540443 -0.12603199 0.14016496
v -0.05639786 -0.05978447 0.06369751
v -0.05433953 -0.06094389 0.06293663
v -0.05819261 -0.06084042 0.06502804
v 0.08590293 -0.13211410 0.13873513
v 0.06520148 -0.15468748 0.09352183
v -0.06920279 -0.10708180 0.13574992
v -0.07683061 -0.06563552 0.12066997
v -0.08110714 -0.07150414 0.12789139
v 0.06564321 -0.12394201 0.14018566
v -0.07364681 -0.10565952 0.13547439
v 0.07836962 -0.06488331 0.12459743
v 0.06403150 -0.06078123 0.06914812
v 0.06783036 -0.15464106 0.09519333
v -0.06237357 -0.15571355 0.09159387
v -0.08357111 -0.13829181 0.13154357
v 0.07502494 -0.06284303 0.11716038
v -0.08370916 -0.07874079 0.13170690
v -0.07966549 -0.07133249 0.12931157
v 0.08373686 -0.07984711 0.13899923
v -0.01582612 -0.12884597 0.13853725
v -0.06384837 -0.12584520 0.13597207
v 0.08140421 -0.12590638 0.14014473
v 0.00061343 -0.13117940 0.13902533
v 0.06564451 -0.09048073 0.14017828
v -0.08014946 -0.09065422 0.13491127
f 69 4 66
f 67 13 81
f 6 13 67
f 39 5 78
f 78 69 39
f 4 69 78
f 78 3 4
f 5 3 78
f 39 69 77
f 66 34 43
f 43 69 66
f 43 77 69
f 34 76 43
f 76 77 43
f 81 13 36
f 9 76 10
f 9 10 26
f 80 75 76
f 6 67 79
f 79 67 4
f 60 59 15
f 68 76 9
f 61 59 60
f 42 13 6
f 72 67 81
f 72 71 67
f 31 71 72
f 81 36 72
f 31 21 25
f 24 35 25
f 82 21 31
f 36 21 82
f 31 72 82
f 82 72 36
f 37 21 36
f 37 22 21
f 24 75 20
f 75 80 20
f 20 35 24
f 20 76 34
f 20 80 76
f 8 79 4
f 59 61 8
f 8 61 79
f 39 77 40
f 40 5 39
f 53 15 59
f 51 77 76
f 76 68 51
f 9 26 46
f 46 68 9
f 46 41 86
f 86 41 2
f 2 73 86
f 6 79 47
f 47 42 6
f 79 61 47
f 47 61 87
f 67 71 32
f 65 34 66
f 67 32 65
f 65 32 33
f 66 4 65
f 4 67 65
f 30 71 31
f 35 33 30
f 30 32 71
f 33 32 30
f 31 25 30
f 30 25 35
f 38 22 10
f 76 75 38
f 38 10 76
f 23 25 21
f 21 22 23
f 24 25 23
f 22 38 23
f 23 75 24
f 23 38 75
f 87 73 18
f 83 37 26
f 22 37 83
f 83 26 10
f 10 22 83
f 59 8 7
f 7 53 59
f 4 3 7
f 7 8 4
f 7 3 5
f 5 53 7
f 77 51 16
f 86 73 64
f 64 46 86
f 64 73 87
f 87 46 64
f 48 51 68
f 68 46 48
f 48 46 87
f 48 61 60
f 87 61 48
f 52 42 49
f 19 20 34
f 34 65 19
f 35 20 19
f 19 33 35
f 19 65 33
f 29 40 77
f 77 16 29
f 17 16 51
f 17 48 60
f 51 48 17
f 60 15 17
f 15 16 17
f 55 2 41
f 26 54 55
f 41 46 55
f 55 46 26
f 73 2 1
f 1 18 73
f 57 42 85
f 57 44 42
f 70 74 49
f 63 74 70
f 44 57 84
f 84 70 44
f 63 70 84
f 84 57 85
f 85 42 84
f 84 47 87
f 42 47 84
f 63 84 28
f 26 37 28
f 87 18 28
f 28 84 87
f 18 1 28
f 89 63 27
f 27 36 13
f 27 37 36
f 13 42 27
f 27 28 37
f 63 28 27
f 58 16 15
f 58 29 16
f 40 29 58
f 15 53 58
f 5 40 58
f 58 53 5
f 88 54 26
f 26 28 88
f 50 70 49
f 44 70 50
f 49 42 50
f 42 44 50
f 89 27 56
f 56 52 49
f 42 52 56
f 56 27 42
f 49 74 56
f 56 63 89
f 56 74 63
f 14 62 54
f 2 55 14
f 55 62 14
f 11 55 54
f 54 62 11
f 11 62 55
f 54 88 45
f 45 88 1
f 45 1 2
f 2 14 45
f 45 14 54
f 12 28 1
f 1 88 12
f 12 88 28

