# https://github.com/mikedh/trimesh
v 0.16469731 0.19604762 0.12743011
v 0.16519371 0.19762172 0.12737919
v 0.16514776 0.19626136 0.12749932
v 0.16058606 0.19945853 0.12911666
v 0.15702693 0.19728496 0.12896574
v 0.15774771 0.19956448 0.13059022
v 0.16084691 0.19434182 0.12969871
v 0.15760941 0.19479714 0.12982881
v 0.16025703 0.19548936 0.12823239
v 0.15794634 0.19431936 0.13122929
v 0.16514304 0.19648041 0.13019061
v 0.16169798 0.19481967 0.13179919
v 0.16527443 0.19797831 0.12777976
v 0.16591718 0.19798576 0.12955156
v 0.16004974 0.19734061 0.12779194
v 0.16528306 0.19856721 0.12841772
v 0.16574874 0.19648221 0.12953571
v 0.16170261 0.19924484 0.13164311
v 0.15904863 0.19803791 0.13381324
v 0.16211009 0.19705391 0.13280984
v 0.16494589 0.19864902 0.12878894
v 0.16560316 0.19699284 0.13011669
v 0.15757748 0.19629709 0.13037901
v 0.16469918 0.19759073 0.12721036
v 0.16611394 0.19658727 0.12920376
v 0.15896675 0.19534852 0.13356957
v 0.16544068 0.19573559 0.12862416
v 0.15852894 0.19939101 0.13255816
v 0.15803883 0.19560299 0.13149692
v 0.16524414 0.19545614 0.12898856
v 0.15809618 0.19839748 0.13160281
f 5 10 23
f 6 4 5
f 4 6 18
f 5 4 15
f 15 9 5
f 1 9 15
f 29 23 10
f 10 26 29
f 29 26 19
f 19 26 20
f 20 18 19
f 31 29 19
f 23 29 31
f 5 23 31
f 31 6 5
f 19 18 28
f 28 18 6
f 28 31 19
f 6 31 28
f 8 10 5
f 5 9 8
f 25 30 27
f 27 30 1
f 12 26 10
f 12 20 26
f 25 2 13
f 1 15 24
f 24 15 4
f 24 13 2
f 3 27 1
f 1 24 3
f 3 24 2
f 3 2 25
f 25 27 3
f 7 12 10
f 30 12 7
f 10 8 7
f 1 30 7
f 7 8 9
f 7 9 1
f 11 12 30
f 20 12 11
f 16 24 4
f 13 24 16
f 17 30 25
f 17 11 30
f 18 20 14
f 25 13 14
f 13 16 14
f 18 14 21
f 21 14 16
f 4 18 21
f 21 16 4
f 20 11 22
f 22 14 20
f 25 14 22
f 22 17 25
f 11 17 22

