# https://github.com/mikedh/trimesh
v -0.08424154 -0.16961437 0.05607969
v -0.08549101 -0.16985665 0.05863901
v -0.08490822 -0.16987670 0.05393961
v -0.08817506 -0.16982832 0.05242826
v -0.08782994 -0.16613905 0.05238741
v -0.08455489 -0.16619079 0.05435580
v -0.08457334 -0.16606925 0.05711344
v -0.08683756 -0.16613230 0.05932198
v -0.08866739 -0.16985430 0.05918936
v -0.09027629 -0.16618884 0.05830633
v -0.09109789 -0.16979549 0.05702914
v -0.09111416 -0.16611872 0.05583885
v -0.09083764 -0.16989742 0.05454409
v -0.09034111 -0.16607080 0.05378291
v -0.08912524 -0.14825561 0.05551904
v -0.08824946 -0.14849472 0.05742281
v -0.08694439 -0.14825319 0.05713653
v -0.08935879 -0.14862852 0.05589949
v -0.08826579 -0.14873704 0.05440207
v -0.08667193 -0.14860239 0.05427668
v -0.08579449 -0.14873505 0.05604407
v -0.08676221 -0.14880170 0.05775539
v -0.08914961 -0.14885667 0.05753479
v -0.08966226 -0.14901207 0.05517658
v -0.08771469 -0.14914384 0.05375572
v -0.08576264 -0.14929902 0.05524349
v -0.08877546 -0.14956160 0.05772081
v -0.08974731 -0.14961795 0.05618375
v -0.08634729 -0.14944232 0.05755052
v -0.08923169 -0.14973127 0.05447094
v -0.08630809 -0.14990394 0.05443629
v -0.08567019 -0.15002269 0.05611972
v -0.08974344 -0.15031867 0.05647946
v -0.08911194 -0.15047014 0.05431059
v -0.08673476 -0.15059291 0.05407444
v -0.08561713 -0.15069342 0.05619811
v -0.08807924 -0.15226792 0.05806165
v -0.08627191 -0.16989917 0.05494876
v -0.08736844 -0.16991266 0.05755540
v -0.08614606 -0.16990810 0.05668837
f 9 23 10
f 4 14 5
f 34 25 5
f 30 25 34
f 5 14 34
f 34 14 30
f 35 6 5
f 5 25 35
f 27 23 9
f 9 2 8
f 8 27 9
f 37 27 8
f 2 29 8
f 33 28 12
f 33 10 23
f 23 28 33
f 3 6 1
f 1 2 3
f 5 6 3
f 3 4 5
f 9 10 11
f 11 33 12
f 10 33 11
f 7 2 1
f 7 29 2
f 21 32 26
f 24 25 30
f 30 14 24
f 12 28 24
f 24 14 12
f 17 15 16
f 16 15 23
f 37 8 22
f 22 8 29
f 22 27 37
f 17 16 22
f 23 27 22
f 22 16 23
f 22 21 17
f 22 29 21
f 29 7 36
f 36 32 21
f 21 29 36
f 36 7 1
f 1 6 36
f 6 26 36
f 36 26 32
f 31 26 6
f 25 24 19
f 19 24 15
f 23 15 18
f 15 24 18
f 18 28 23
f 18 24 28
f 39 2 9
f 4 3 13
f 3 38 13
f 38 39 13
f 14 4 13
f 9 11 13
f 13 39 9
f 12 14 13
f 13 11 12
f 26 31 20
f 20 35 25
f 25 19 20
f 21 26 20
f 6 35 20
f 20 31 6
f 20 19 15
f 17 21 20
f 20 15 17
f 40 38 3
f 40 39 38
f 40 3 2
f 2 39 40

