# https://github.com/mikedh/trimesh
v 0.19825695 0.19649858 -0.06414069
v 0.19783039 0.19731086 -0.06426646
v 0.19773598 0.19602756 -0.06467501
v 0.19790110 0.19548356 -0.06528761
v 0.20071868 0.19592585 -0.06946001
v 0.20358998 0.19763456 -0.07095240
v 0.20413515 0.19452418 -0.06960356
v 0.20211578 0.19442640 -0.06617833
v 0.20548076 0.19507886 -0.06654506
v 0.20263165 0.19646552 -0.06474665
v 0.19803854 0.19809586 -0.06447493
v 0.19743890 0.19818606 -0.06507206
v 0.20278536 0.19829336 -0.06497556
v 0.20203208 0.19941344 -0.06610494
v 0.19739009 0.19849776 -0.06583059
v 0.19681088 0.19710636 -0.06689906
v 0.19677509 0.19768486 -0.06628051
v 0.20552498 0.19765243 -0.06584108
v 0.20444893 0.19964280 -0.06899546
v 0.20146910 0.19962976 -0.06813366
v 0.19702190 0.19579319 -0.06615981
v 0.19696807 0.19598439 -0.06533490
v 0.19734345 0.19748762 -0.06439176
v 0.20118418 0.19464294 -0.06825026
v 0.20447754 0.19562099 -0.06892469
v 0.20534989 0.19901818 -0.06679780
v 0.20425467 0.19780745 -0.06949586
v 0.20476607 0.19837884 -0.06828241
v 0.19742490 0.19589293 -0.06659976
v 0.20074022 0.19833186 -0.06929659
f 6 5 30
f 10 1 8
f 8 9 10
f 10 9 18
f 18 9 26
f 6 19 27
f 7 5 6
f 7 9 8
f 20 19 6
f 6 30 20
f 18 26 13
f 13 10 18
f 1 10 13
f 25 27 9
f 9 7 25
f 6 27 25
f 25 7 6
f 24 7 8
f 8 4 24
f 24 4 21
f 24 21 5
f 5 7 24
f 16 30 5
f 17 30 16
f 15 30 17
f 15 20 30
f 14 26 19
f 19 20 14
f 14 13 26
f 11 13 14
f 14 15 11
f 20 15 14
f 2 23 1
f 11 23 2
f 1 13 2
f 2 13 11
f 21 4 22
f 22 23 17
f 17 16 22
f 22 16 21
f 9 27 28
f 28 26 9
f 28 27 19
f 19 26 28
f 5 21 29
f 29 16 5
f 21 16 29
f 12 23 11
f 11 15 12
f 17 23 12
f 12 15 17
f 3 22 4
f 8 1 3
f 3 4 8
f 1 23 3
f 23 22 3

