# https://github.com/mikedh/trimesh
v -0.09359720 -0.08483739 -0.08742283
v -0.09365342 -0.08503054 -0.08833403
v -0.09613452 -0.08489962 -0.08745358
v -0.09602252 -0.08500879 -0.08833403
v -0.09748844 -0.08711667 -0.08743188
v -0.09730564 -0.08706629 -0.08832205
v -0.09620402 -0.08922809 -0.08833403
v -0.09615122 -0.08943587 -0.08745391
v -0.09373990 -0.08939212 -0.08831943
v -0.09358290 -0.08948244 -0.08742856
v -0.09219927 -0.08722549 -0.08743188
v -0.09234664 -0.08713407 -0.08831841
v -0.09537002 -0.08484234 -0.08667663
v -0.09706910 -0.08799739 -0.08648623
v -0.09677007 -0.08581735 -0.08665143
v -0.09608592 -0.08484659 -0.08627558
v -0.09754015 -0.08721052 -0.08627311
v -0.09214385 -0.08720179 -0.08626851
v -0.09349235 -0.08480962 -0.08629565
v -0.09348870 -0.08951544 -0.08629516
v -0.09618227 -0.08954872 -0.08623661
v -0.09606332 -0.08954385 -0.08516089
v -0.09313645 -0.08546109 -0.08445839
v -0.09212765 -0.08716904 -0.08513068
v -0.09350160 -0.08951012 -0.08517231
v -0.09491195 -0.08951724 -0.08427903
v -0.09356850 -0.08493117 -0.08409871
v -0.09622272 -0.08487842 -0.08408681
v -0.09345357 -0.08938814 -0.08407173
v -0.09462155 -0.08484739 -0.08310596
v -0.09274704 -0.08612932 -0.08311949
v -0.09213769 -0.08716749 -0.08404106
v -0.09487697 -0.08949024 -0.08311268
v -0.09617345 -0.08949797 -0.08408688
v -0.09754477 -0.08719830 -0.08405448
v -0.09669175 -0.08574457 -0.08309500
v -0.09699875 -0.08831864 -0.08294526
v -0.09268102 -0.08841117 -0.08294526
v -0.09464207 -0.08542292 -0.08296981
v -0.09602320 -0.08621599 -0.08865113
v -0.09636120 -0.08733397 -0.08860961
v -0.09541684 -0.08863067 -0.08857113
v -0.09351845 -0.08657329 -0.08846643
v -0.09385482 -0.08828669 -0.08852503
f 24 19 31
f 9 7 42
f 19 30 27
f 30 31 27
f 16 30 19
f 16 28 30
f 18 19 24
f 24 38 18
f 9 12 10
f 5 6 7
f 40 2 43
f 43 2 12
f 44 12 9
f 9 42 44
f 44 43 12
f 44 42 40
f 40 43 44
f 41 6 40
f 40 42 41
f 7 6 41
f 41 42 7
f 29 38 33
f 19 12 1
f 12 2 1
f 23 31 19
f 19 27 23
f 23 27 31
f 24 31 32
f 32 38 24
f 31 38 32
f 25 38 29
f 20 38 25
f 29 33 25
f 39 31 30
f 39 38 31
f 40 6 4
f 4 2 40
f 4 1 2
f 11 10 12
f 11 12 19
f 19 18 11
f 20 10 11
f 11 38 20
f 11 18 38
f 20 25 22
f 22 33 34
f 21 14 7
f 21 22 34
f 21 10 20
f 20 22 21
f 35 5 17
f 7 14 17
f 17 5 7
f 14 21 17
f 13 16 19
f 19 1 13
f 26 25 33
f 33 22 26
f 26 22 25
f 8 7 9
f 8 21 7
f 9 10 8
f 10 21 8
f 6 5 3
f 3 4 6
f 16 13 3
f 1 4 3
f 3 13 1
f 28 16 3
f 37 17 21
f 37 21 34
f 35 17 37
f 34 33 37
f 37 33 38
f 38 39 37
f 15 3 5
f 15 5 35
f 28 3 15
f 35 28 15
f 36 28 35
f 35 37 36
f 30 28 36
f 36 39 30
f 36 37 39

