# https://github.com/mikedh/trimesh
v 0.12486411 0.16763379 0.07632729
v 0.12501758 0.16673646 0.07612401
v 0.12637699 0.16673024 0.07830603
v 0.12631538 0.16760282 0.07842199
v 0.12886983 0.16761537 0.07833771
v 0.12894036 0.16673899 0.07811051
v 0.13010466 0.16760881 0.07596026
v 0.12994014 0.16671217 0.07592768
v 0.12875266 0.16761872 0.07377876
v 0.12861619 0.16673899 0.07388419
v 0.12607719 0.16762409 0.07386186
v 0.12618579 0.16671557 0.07402614
v 0.12583011 0.16837929 0.07780466
v 0.12534903 0.16842719 0.07512848
v 0.12943941 0.16857472 0.07474266
v 0.12741031 0.16840444 0.07844786
v 0.12622963 0.16878044 0.07840633
v 0.12899486 0.16877476 0.07835194
v 0.12478501 0.16875209 0.07624629
v 0.12603239 0.16878084 0.07380681
v 0.12956491 0.16969316 0.07490191
v 0.12872468 0.16876082 0.07368176
v 0.13021053 0.16878937 0.07592169
v 0.12620539 0.16988229 0.07844656
v 0.13018654 0.16989469 0.07588151
v 0.12596123 0.16993486 0.07384201
v 0.12479931 0.16987179 0.07625026
v 0.12551729 0.17065169 0.07740094
v 0.12542279 0.17067872 0.07488371
v 0.12898779 0.16992524 0.07836546
v 0.12905424 0.17098474 0.07831841
v 0.12606974 0.17098763 0.07388464
v 0.12559086 0.17167794 0.07464119
v 0.13018731 0.17099896 0.07597103
v 0.12963342 0.17200652 0.07510558
v 0.12931854 0.17196397 0.07756136
v 0.12725451 0.17197471 0.07842856
v 0.12625461 0.17127599 0.07846473
v 0.12579528 0.17200752 0.07771304
v 0.12492888 0.17144431 0.07638141
v 0.12873029 0.17142116 0.07378956
v 0.12693731 0.17211067 0.07363583
v 0.12513211 0.17211067 0.07569264
v 0.12733791 0.16640479 0.07760436
v 0.12845959 0.16644634 0.07727894
v 0.12887981 0.17202762 0.07547289
v 0.12903276 0.16648479 0.07578064
v 0.12627341 0.16658949 0.07530904
v 0.12789358 0.16653091 0.07465804
f 27 40 43
f 43 40 39
f 17 24 13
f 14 2 19
f 11 2 14
f 41 42 35
f 19 2 1
f 1 2 3
f 1 24 19
f 1 13 24
f 37 39 38
f 37 36 43
f 43 39 37
f 40 27 28
f 28 39 40
f 38 39 28
f 28 24 38
f 28 27 19
f 19 24 28
f 34 35 36
f 3 2 44
f 22 42 41
f 12 2 11
f 11 10 12
f 20 22 11
f 42 22 20
f 11 14 20
f 46 35 42
f 46 42 43
f 36 35 46
f 43 36 46
f 25 34 23
f 35 34 25
f 45 44 47
f 8 45 47
f 47 10 8
f 9 10 11
f 11 22 9
f 9 7 8
f 8 10 9
f 23 7 9
f 48 44 2
f 2 12 48
f 16 37 38
f 6 5 3
f 3 44 6
f 6 44 45
f 6 45 8
f 8 7 6
f 36 37 31
f 31 34 36
f 23 34 31
f 26 32 42
f 42 20 26
f 26 20 14
f 21 22 41
f 35 25 21
f 21 25 23
f 41 35 21
f 49 48 12
f 49 12 10
f 10 47 49
f 49 47 44
f 44 48 49
f 4 24 17
f 38 24 4
f 4 16 38
f 17 13 4
f 3 5 4
f 5 16 4
f 4 1 3
f 13 1 4
f 37 16 30
f 30 31 37
f 32 26 33
f 43 42 33
f 42 32 33
f 15 9 22
f 22 21 15
f 23 9 15
f 15 21 23
f 18 16 5
f 18 30 16
f 5 6 18
f 18 7 23
f 18 6 7
f 23 31 18
f 31 30 18
f 29 33 26
f 29 14 19
f 29 26 14
f 19 27 29
f 29 27 43
f 43 33 29

