# https://github.com/mikedh/trimesh
v -0.16288971 0.00119160 0.12384224
v -0.16268425 0.00256466 0.12548199
v -0.16267858 -0.00073371 0.12386114
v -0.16547306 0.00227448 0.12798344
v -0.16549615 0.00250472 0.12543656
v -0.16549943 0.00057369 0.12372827
v -0.16549209 -0.00230072 0.12484869
v -0.16273338 -0.00241328 0.12521431
v -0.16270568 -0.00252831 0.12726509
v -0.16552401 -0.00236011 0.12772771
v -0.16270973 -0.00087461 0.12902994
v -0.16551959 -0.00020413 0.12917629
v -0.16270615 0.00198385 0.12832619
v -0.15100718 -0.00105434 0.12703206
v -0.15112256 -0.00128041 0.12542019
v -0.15098818 0.00007547 0.12764216
v -0.15118099 0.00127663 0.12652169
v -0.15079873 0.00075371 0.12572192
v -0.15128006 0.00038477 0.12525034
v -0.15125995 -0.00122418 0.12745712
v -0.15137473 0.00039088 0.12793129
v -0.15148355 0.00160465 0.12654774
v -0.15155288 0.00065506 0.12500272
v -0.15162963 -0.00067678 0.12504864
v -0.15171606 -0.00157294 0.12619509
v -0.15179679 -0.00067341 0.12787404
v -0.15188448 0.00101394 0.12760014
v -0.15195581 0.00153594 0.12608359
v -0.15255940 0.00030955 0.12488994
v -0.15268019 -0.00157751 0.12678576
v -0.16557364 0.00125840 0.12570417
v -0.16555496 -0.00000584 0.12496334
v -0.16554956 -0.00122699 0.12568129
v -0.16554675 -0.00131007 0.12703104
v -0.16555633 -0.00003559 0.12785991
v -0.16554383 0.00126579 0.12712939
f 36 4 31
f 12 4 36
f 35 10 12
f 35 36 31
f 12 36 35
f 3 1 29
f 34 35 31
f 10 35 34
f 10 34 33
f 31 32 33
f 33 34 31
f 6 1 3
f 6 32 31
f 23 29 1
f 1 2 23
f 3 15 7
f 9 10 7
f 10 33 7
f 7 6 3
f 7 33 32
f 32 6 7
f 25 15 20
f 3 29 24
f 24 15 3
f 29 23 24
f 24 23 15
f 14 15 18
f 20 15 14
f 22 2 4
f 21 26 20
f 20 26 11
f 11 10 9
f 9 20 11
f 12 10 11
f 11 21 12
f 26 21 11
f 4 2 5
f 31 4 5
f 5 6 31
f 5 2 1
f 1 6 5
f 18 15 19
f 19 23 18
f 15 23 19
f 30 20 9
f 9 25 30
f 30 25 20
f 8 7 15
f 15 25 8
f 9 7 8
f 8 25 9
f 18 23 28
f 28 22 18
f 28 23 2
f 2 22 28
f 13 22 4
f 13 4 12
f 12 21 13
f 20 14 16
f 16 21 20
f 16 14 18
f 27 21 22
f 22 13 27
f 27 13 21
f 22 21 17
f 21 16 17
f 18 22 17
f 17 16 18

