# https://github.com/mikedh/trimesh
v 0.13063011 -0.16760634 0.07622116
v 0.13046368 -0.16672301 0.07626249
v 0.12922226 -0.16760346 0.07841463
v 0.12921786 -0.16671671 0.07823616
v 0.12678496 -0.16674479 0.07826686
v 0.12666899 -0.16760121 0.07832796
v 0.12540866 -0.16760313 0.07595798
v 0.12556266 -0.16670186 0.07601413
v 0.12653403 -0.16674696 0.07405579
v 0.12683891 -0.16760391 0.07376823
v 0.12941121 -0.16673864 0.07402091
v 0.12936399 -0.16762106 0.07384236
v 0.13000424 -0.16845016 0.07480346
v 0.12817769 -0.16842464 0.07373536
v 0.12595904 -0.16848236 0.07485664
v 0.12802943 -0.16843009 0.07844459
v 0.13073591 -0.16874663 0.07627216
v 0.12653269 -0.16876881 0.07834674
v 0.12684276 -0.16875700 0.07374958
v 0.13010628 -0.16956728 0.07499344
v 0.12926077 -0.16878601 0.07852856
v 0.12651339 -0.16990864 0.07833898
v 0.12691119 -0.16986781 0.07374436
v 0.12999941 -0.17065284 0.07740094
v 0.12950269 -0.16995973 0.07382191
v 0.12606146 -0.17065868 0.07476126
v 0.12532346 -0.16989223 0.07593774
v 0.12924856 -0.16988838 0.07851386
v 0.13052716 -0.17092521 0.07631806
v 0.12658256 -0.17098206 0.07830116
v 0.12542796 -0.17095683 0.07596884
v 0.12687758 -0.17096326 0.07376186
v 0.12950436 -0.17102271 0.07383009
v 0.13042601 -0.17159106 0.07563111
v 0.12610826 -0.17194938 0.07478526
v 0.12809065 -0.17194799 0.07840656
v 0.12924776 -0.17096751 0.07848919
v 0.12995119 -0.17193129 0.07738829
v 0.12583896 -0.17211176 0.07730274
v 0.12843591 -0.17211176 0.07363689
v 0.13037803 -0.17211176 0.07555581
v 0.12817879 -0.16640591 0.07760436
v 0.12705709 -0.16644743 0.07727894
v 0.12648394 -0.16648591 0.07578068
v 0.12924331 -0.16659061 0.07530906
v 0.12762310 -0.16653203 0.07465804
f 29 41 17
f 38 36 41
f 41 29 38
f 38 29 17
f 21 18 22
f 22 30 36
f 36 38 37
f 17 21 24
f 24 38 17
f 21 37 24
f 24 37 38
f 35 26 32
f 27 26 35
f 17 41 34
f 13 25 12
f 40 35 32
f 12 25 40
f 15 26 27
f 28 37 21
f 36 37 28
f 21 22 28
f 28 22 36
f 11 13 12
f 11 12 10
f 25 13 20
f 17 34 20
f 20 13 17
f 41 40 33
f 33 40 25
f 33 34 41
f 25 20 33
f 33 20 34
f 10 40 19
f 10 12 14
f 14 40 10
f 12 40 14
f 9 11 10
f 46 11 9
f 10 19 9
f 26 15 9
f 32 26 9
f 9 19 32
f 21 5 6
f 27 35 31
f 2 11 45
f 45 11 46
f 17 13 1
f 13 11 1
f 1 11 2
f 2 4 1
f 23 40 32
f 32 19 23
f 23 19 40
f 35 40 39
f 39 40 41
f 41 36 39
f 39 31 35
f 27 31 39
f 36 30 39
f 30 22 39
f 39 22 18
f 16 18 21
f 21 6 16
f 16 6 18
f 8 6 5
f 3 5 21
f 3 4 5
f 3 21 17
f 17 1 3
f 3 1 4
f 43 8 5
f 18 6 7
f 6 8 7
f 7 39 18
f 27 39 7
f 7 8 9
f 7 15 27
f 7 9 15
f 8 43 44
f 46 9 44
f 9 8 44
f 42 45 46
f 46 44 42
f 42 44 43
f 2 45 42
f 42 4 2
f 5 4 42
f 42 43 5

