# https://github.com/mikedh/trimesh
v 0.06316770 -0.12325175 -0.02141267
v 0.05395692 -0.10728620 -0.05582534
v 0.10388962 -0.14234108 -0.04187049
v 0.10277902 -0.14302408 -0.04018027
v 0.10483317 -0.14181353 -0.03941709
v 0.08312202 -0.10637050 0.00247631
v 0.08114792 -0.10555764 0.00251573
v 0.08283139 -0.10370530 0.00249063
v 0.06185855 -0.06742283 -0.03940829
v 0.05970958 -0.06862773 -0.04046255
v 0.06119660 -0.06782211 -0.04176944
v 0.08280813 -0.10370858 -0.08342080
v 0.08120180 -0.10585338 -0.08345179
v 0.08331940 -0.10613985 -0.08340597
v 0.06388887 -0.12449405 -0.05883789
v 0.11409735 -0.10900751 -0.03976419
v 0.11310473 -0.10728821 -0.03162609
v 0.06984577 -0.13480892 -0.03610907
v 0.10156617 -0.08730288 -0.02213244
v 0.09755072 -0.08034793 -0.02704794
v 0.10521275 -0.09361890 -0.05970025
v 0.09974435 -0.08414738 -0.05744389
v 0.09487192 -0.07570811 -0.04116934
v 0.09602960 -0.07771323 -0.04958224
v 0.05049892 -0.10130463 -0.03546572
v 0.10937412 -0.10082666 -0.05707924
v 0.05046552 -0.10124253 -0.04456044
v 0.09547790 -0.07675768 -0.03404009
v 0.10573508 -0.09452361 -0.02136772
v 0.10982975 -0.10161580 -0.02437981
v 0.05152147 -0.10306801 -0.05027772
v 0.06765175 -0.13100668 -0.05339942
v 0.06972577 -0.13460241 -0.04560142
v 0.05367422 -0.10679655 -0.02524944
v 0.06758857 -0.13089720 -0.02738319
v 0.08059308 -0.11040906 -0.08341592
v 0.08713335 -0.09831500 -0.08330259
v 0.07693580 -0.10407801 -0.08330754
v 0.09069670 -0.10448766 -0.08321432
v 0.06749705 -0.06430391 -0.03689989
v 0.09069670 -0.10448766 0.00228446
v 0.08058650 -0.11044010 0.00244576
v 0.10019355 -0.14436163 -0.03679202
v 0.11033469 -0.13850071 -0.03690109
v 0.05846770 -0.11477715 -0.02105562
v 0.05735093 -0.07015603 -0.03679202
v 0.10019607 -0.14448026 -0.04407739
v 0.11029022 -0.13842465 -0.04402726
v 0.11316670 -0.10739556 -0.04936752
v 0.05745613 -0.11334626 -0.05951632
v 0.07689805 -0.10410753 0.00239381
v 0.08713402 -0.09831601 0.00237273
v 0.06048932 -0.11859601 -0.06016649
v 0.05726688 -0.07008008 -0.04410982
v 0.06754085 -0.06438053 -0.04402727
f 40 46 51
f 27 25 54
f 54 25 46
f 40 51 52
f 10 54 46
f 37 54 55
f 21 39 37
f 7 51 42
f 42 6 7
f 51 45 42
f 16 44 48
f 48 49 16
f 48 3 47
f 8 51 7
f 8 52 51
f 7 6 8
f 41 42 44
f 6 42 41
f 44 30 41
f 41 8 6
f 52 8 41
f 1 18 35
f 35 42 1
f 1 42 45
f 34 45 51
f 46 25 34
f 34 51 46
f 25 1 34
f 34 1 45
f 9 46 40
f 9 10 46
f 40 55 9
f 54 10 11
f 11 55 54
f 10 9 11
f 11 9 55
f 20 52 19
f 19 28 20
f 40 52 20
f 20 28 40
f 24 55 23
f 23 28 24
f 23 55 40
f 40 28 23
f 22 21 37
f 24 21 22
f 37 55 22
f 22 55 24
f 26 21 49
f 39 21 26
f 49 48 26
f 26 48 39
f 43 42 35
f 43 18 47
f 35 18 43
f 44 42 43
f 47 32 36
f 36 48 47
f 39 48 36
f 27 54 31
f 31 2 27
f 54 2 31
f 49 21 17
f 16 49 17
f 17 44 16
f 17 30 44
f 29 41 30
f 30 17 29
f 19 52 29
f 52 41 29
f 29 28 19
f 24 28 29
f 29 21 24
f 29 17 21
f 18 1 33
f 33 32 47
f 47 18 33
f 47 3 4
f 4 43 47
f 15 36 32
f 53 36 15
f 50 53 15
f 32 33 15
f 15 2 50
f 15 1 25
f 15 33 1
f 15 25 27
f 27 2 15
f 5 4 3
f 5 48 44
f 3 48 5
f 44 43 5
f 43 4 5
f 37 39 12
f 39 36 14
f 36 13 14
f 14 12 39
f 13 12 14
f 38 12 13
f 37 12 38
f 38 2 54
f 38 13 36
f 38 54 37
f 50 2 38
f 38 53 50
f 38 36 53

