# https://github.com/mikedh/trimesh
v 0.03841351 0.14947792 0.06848072
v 0.03864014 0.15033172 0.06662202
v 0.03762949 0.15015212 0.06612755
v 0.03906854 0.15052680 0.06596988
v 0.03927361 0.14973119 0.06653292
v 0.03956571 0.14924660 0.06574196
v 0.03867756 0.14843003 0.06613566
v 0.03893621 0.14824327 0.06566334
v 0.03723789 0.14863292 0.06547224
v 0.03885791 0.14856747 0.06648022
v 0.03754221 0.15072932 0.06533291
v 0.04090491 0.15081057 0.04955722
v 0.03994826 0.15034977 0.04810894
v 0.03951459 0.15182145 0.04884510
v 0.03793579 0.15109627 0.04806729
v 0.03786106 0.15226220 0.04948990
v 0.03760316 0.15081429 0.04810677
v 0.03639091 0.15001545 0.04834325
v 0.03684086 0.14904774 0.04813069
v 0.03695034 0.14856887 0.04808035
v 0.03557299 0.14913567 0.04951171
v 0.03705429 0.14696752 0.04953923
v 0.03887231 0.14786167 0.04802978
v 0.04035444 0.14873822 0.04833415
v 0.03855674 0.14662198 0.04938137
v 0.04001299 0.14989687 0.04813023
v 0.04030316 0.14735515 0.04956383
v 0.03620166 0.15121649 0.04951655
v 0.04123829 0.14908040 0.04930774
v 0.03962811 0.15188115 0.04961096
v 0.03695133 0.14930165 0.06443401
v 0.03770721 0.14817708 0.06466014
v 0.03891324 0.14805052 0.06475194
v 0.03992443 0.14923992 0.06491844
v 0.03921976 0.15073739 0.06516118
v 0.03802166 0.14800755 0.06362279
v 0.03938344 0.14836017 0.06376632
v 0.03992229 0.14977982 0.06394279
v 0.03884701 0.15088985 0.06414673
f 16 15 28
f 28 11 16
f 14 15 16
f 21 28 18
f 18 28 15
f 22 9 21
f 22 23 25
f 21 9 31
f 31 28 21
f 11 28 31
f 27 33 25
f 25 23 27
f 29 34 27
f 1 9 7
f 16 11 39
f 15 23 20
f 23 22 20
f 21 18 20
f 20 22 21
f 25 33 36
f 36 22 25
f 3 9 1
f 3 31 9
f 1 11 3
f 11 31 3
f 29 27 24
f 24 27 23
f 33 27 37
f 37 27 34
f 6 34 1
f 34 6 10
f 1 7 10
f 10 6 1
f 2 11 1
f 19 20 18
f 32 36 33
f 32 7 9
f 9 22 32
f 22 36 32
f 30 12 14
f 30 14 16
f 12 30 35
f 35 39 11
f 16 39 35
f 35 30 16
f 13 23 15
f 15 14 13
f 14 12 13
f 13 12 29
f 29 24 13
f 17 18 15
f 17 19 18
f 15 20 17
f 20 19 17
f 8 32 33
f 7 32 8
f 8 10 7
f 34 10 8
f 33 37 8
f 8 37 34
f 38 35 34
f 12 35 38
f 38 34 29
f 29 12 38
f 1 34 5
f 34 35 5
f 26 24 23
f 23 13 26
f 26 13 24
f 1 5 4
f 4 5 35
f 4 2 1
f 11 2 4
f 4 35 11

