# https://github.com/mikedh/trimesh
v 0.12525922 -0.06901341 0.04966792
v 0.12349087 -0.06676989 0.04966792
v 0.14294682 -0.06865756 0.04966793
v 0.14619227 -0.06842821 0.04966793
v 0.14651315 -0.06607549 0.04966793
v 0.12598816 0.06926607 0.04966793
v 0.12359378 0.06706319 0.04966792
v 0.14665348 0.06731989 0.04966793
v 0.14515768 0.06907722 0.04966793
v 0.14994255 -0.05299714 0.04954505
v 0.14994255 -0.07175611 0.04947923
v 0.12041495 -0.05307323 0.04956056
v 0.12041495 -0.07229323 0.04939495
v 0.14994255 -0.07216919 0.04612216
v 0.12041495 -0.07161464 0.04581469
v 0.12041495 -0.03602313 0.02115276
v 0.12041495 -0.02173315 0.01376173
v 0.12041496 0.02295132 0.01407943
v 0.12041495 0.00469853 0.01009319
v 0.12041495 -0.00850352 0.01058618
v 0.12041496 0.03926192 0.02354688
v 0.12041495 0.05296544 0.04956563
v 0.12041496 0.07176659 0.04954144
v 0.12041496 0.07218141 0.04602930
v 0.14994256 0.05302904 0.04952869
v 0.14994256 0.07222139 0.04932823
v 0.14994256 0.07155701 0.04584134
v 0.14994256 0.03602199 0.02115271
v 0.14994256 0.02173205 0.01376174
v 0.14994256 0.00604133 0.01020741
v 0.14994256 -0.00756153 0.01046564
v 0.14994256 -0.02295241 0.01407944
v 0.14994255 -0.03926306 0.02354692
f 32 17 20
f 25 26 8
f 16 17 32
f 15 16 14
f 13 15 14
f 14 11 13
f 31 20 19
f 19 30 31
f 32 20 31
f 29 30 18
f 18 30 19
f 28 18 21
f 29 18 28
f 24 26 27
f 24 23 26
f 27 28 24
f 24 28 21
f 22 7 23
f 23 7 6
f 13 11 1
f 11 3 1
f 33 16 32
f 33 14 16
f 23 6 9
f 8 26 9
f 26 23 9
f 2 12 13
f 13 1 2
f 2 22 12
f 7 22 2
f 4 3 11
f 11 5 4
f 10 5 11
f 8 5 10
f 10 25 8
f 19 20 22
f 13 12 22
f 22 15 13
f 23 24 22
f 17 16 22
f 22 20 17
f 22 18 19
f 22 16 15
f 21 18 22
f 22 24 21
f 4 5 8
f 8 9 4
f 4 6 7
f 4 1 3
f 7 2 4
f 4 9 6
f 4 2 1
f 10 28 27
f 26 25 10
f 27 26 10
f 32 31 10
f 10 30 29
f 10 33 32
f 11 14 10
f 10 31 30
f 29 28 10
f 14 33 10

