# https://github.com/mikedh/trimesh
v 0.16700992 0.17251761 -0.02801424
v 0.16375212 0.17235829 -0.02751056
v 0.16598022 0.17294674 -0.03057616
v 0.16762967 0.17403959 -0.02666723
v 0.16471804 0.17551891 -0.02521293
v 0.16450740 0.17344629 -0.02572348
v 0.17032007 0.17576183 -0.03194289
v 0.16975192 0.17467194 -0.03184394
v 0.17095947 0.17365533 -0.02983554
v 0.17112307 0.17538366 -0.02915501
v 0.17026862 0.17410456 -0.03179936
v 0.17072874 0.17557712 -0.03185624
v 0.17073145 0.17403714 -0.03142244
v 0.16763124 0.17619131 -0.02671941
v 0.17018674 0.17346158 -0.03050166
v 0.17054305 0.17601897 -0.02921003
v 0.17071664 0.17650839 -0.02997211
v 0.17099192 0.17627003 -0.03114084
v 0.17166632 0.17555639 -0.03004284
v 0.16338237 0.17770338 -0.02837873
v 0.16697912 0.17774571 -0.02827419
v 0.16575179 0.17713983 -0.03065019
v 0.16317212 0.17294089 -0.02939543
v 0.16263349 0.17465096 -0.03017061
v 0.17002524 0.17625818 -0.03144734
v 0.17129648 0.17404051 -0.03097424
v 0.16420622 0.17740271 -0.02645853
v 0.16419462 0.17467458 -0.02637489
v 0.16279917 0.17643844 -0.02976121
v 0.16570047 0.17559852 -0.03139596
v 0.16364252 0.17364567 -0.02762654
v 0.17091652 0.17666971 -0.03066418
v 0.17160742 0.17466774 -0.02922994
v 0.16366552 0.17648463 -0.02762069
v 0.16313747 0.17573512 -0.02884584
v 0.16315919 0.17430939 -0.02879344
f 21 27 14
f 14 27 5
f 32 22 21
f 5 27 34
f 4 14 5
f 30 22 7
f 20 34 27
f 20 27 21
f 21 22 20
f 18 32 19
f 19 32 17
f 21 14 17
f 17 32 21
f 7 22 25
f 22 32 25
f 25 18 7
f 32 18 25
f 24 30 3
f 3 30 11
f 1 2 3
f 6 4 5
f 6 31 2
f 6 2 1
f 1 4 6
f 14 4 33
f 7 11 8
f 8 30 7
f 11 30 8
f 29 20 22
f 29 30 24
f 22 30 29
f 19 33 26
f 16 17 14
f 23 2 24
f 24 3 23
f 23 3 2
f 5 34 28
f 34 31 28
f 28 6 5
f 31 6 28
f 9 4 1
f 9 33 4
f 9 26 33
f 34 20 35
f 20 29 35
f 35 31 34
f 35 29 24
f 7 18 12
f 12 11 7
f 12 18 19
f 19 26 12
f 15 3 11
f 26 9 15
f 1 3 15
f 15 9 1
f 14 33 10
f 10 16 14
f 10 33 19
f 19 17 10
f 17 16 10
f 36 35 24
f 31 35 36
f 24 2 36
f 2 31 36
f 13 15 11
f 26 15 13
f 11 12 13
f 13 12 26

