# https://github.com/mikedh/trimesh
v -0.07967546 0.11128608 -0.08781341
v -0.08376093 0.11755098 -0.08693541
v -0.13368149 0.07432429 -0.04023381
v -0.13253123 0.07258504 -0.04070236
v -0.05216729 0.06973548 -0.04115585
v -0.05269261 0.07146363 -0.03045838
v -0.05313716 0.06896418 -0.03445075
v -0.11006859 0.09088553 -0.08869296
v -0.10831228 0.08740721 -0.08869256
v -0.05306866 0.07001391 -0.05113748
v -0.05460086 0.07296016 -0.06036238
v -0.05333969 0.07256258 -0.05388928
v -0.08223669 0.10305305 0.00698999
v -0.07563807 0.10351739 0.00684012
v -0.07942917 0.10705676 0.00703672
v -0.07710311 0.10291198 -0.08863971
v -0.07709140 0.10612696 -0.08799283
v -0.10782921 0.07641081 -0.08364496
v -0.12007153 0.09532726 -0.08369316
v -0.11388311 0.08601261 -0.08526261
v -0.07944501 0.10790261 -0.08876075
v -0.05414939 0.06811668 -0.04152898
v -0.05796816 0.06568283 -0.04336108
v -0.05844174 0.06535333 -0.03807770
v -0.10588098 0.14778793 -0.03940191
v -0.10965981 0.14528100 -0.03756883
v -0.11015345 0.14498243 -0.04285223
v -0.08559779 0.10717001 0.00700847
v -0.08468443 0.12063471 -0.08504176
v -0.08863998 0.12543744 -0.08378631
v -0.07625851 0.10743608 0.00646467
v -0.07171904 0.09902283 0.00567402
v -0.08915189 0.04892966 -0.03444096
v -0.09075274 0.04931783 -0.03621731
v -0.08881514 0.04863533 -0.04263468
v -0.09414173 0.13526650 -0.00565283
v -0.06014987 0.08060208 -0.00689758
v -0.06340844 0.08623053 -0.00155603
v -0.06960289 0.08227471 -0.00175718
v -0.10209868 0.08068958 -0.08847331
v -0.11425536 0.09278054 -0.08849434
v -0.11270671 0.08840431 -0.08853686
v -0.11023343 0.08473483 -0.08832711
v -0.10644674 0.08218453 -0.08856261
v -0.09557340 0.11461856 -0.08846223
v -0.08543641 0.11374031 -0.08862875
v -0.07805178 0.09464078 -0.08847246
v -0.09432594 0.05638756 -0.06812366
v -0.05751814 0.07765448 -0.01158770
v -0.05782931 0.07775973 -0.06981445
v -0.08859851 0.12644673 0.00162927
v -0.08987414 0.12623929 0.00249612
v -0.08480221 0.11924935 0.00565019
v -0.13817108 0.12311176 -0.03477046
v -0.13687651 0.12200093 -0.02659681
v -0.09321612 0.05320281 -0.02082678
v -0.08212846 0.10935259 0.00704479
v -0.13294896 0.11583613 -0.06811679
v -0.13560881 0.12008516 -0.05995041
v -0.13525371 0.12352948 -0.05370776
v -0.09992093 0.14422891 -0.06158515
v -0.10331415 0.14784756 -0.05239016
v -0.10327053 0.14890148 -0.04455103
v -0.08445141 0.12026046 0.00344154
v -0.10474788 0.14834498 -0.04647666
v -0.10673606 0.14724648 -0.04279391
v -0.11391763 0.09881889 -0.08847513
v -0.07254338 0.10059280 -0.08681918
v -0.06396989 0.06201946 -0.03474483
v -0.06394506 0.06202418 -0.04613083
v -0.09999201 0.06361428 -0.07525076
v -0.09526393 0.08119568 -0.08848249
v -0.09845943 0.14028833 -0.01078468
v -0.13180198 0.11350846 -0.01003301
v -0.13426041 0.11840884 -0.01686809
v -0.13597596 0.11894701 -0.02259906
v -0.09919619 0.14291380 -0.01790908
v -0.10064540 0.14416600 -0.01771186
v -0.06254566 0.08654763 -0.00310178
v -0.05854722 0.08036975 -0.01049165
v -0.09994249 0.13030711 -0.00367838
v -0.13787340 0.12268196 -0.04873029
v -0.13775536 0.12405728 -0.04259526
v -0.05498476 0.06755498 -0.03813678
v -0.09258401 0.05411291 -0.01686488
v -0.06700806 0.09091073 -0.08314221
v -0.06702396 0.09353713 -0.08272280
v -0.12866565 0.10979296 -0.07565141
v -0.05318584 0.06894408 -0.04655175
v -0.06184941 0.08566923 -0.07679095
v -0.05775186 0.07933151 -0.06894841
v -0.10582266 0.10529636 -0.08869256
v -0.07257826 0.10187721 0.00386725
v -0.05244649 0.07093513 -0.04113038
v -0.10715573 0.10147266 -0.08869286
v -0.05369927 0.07127908 -0.02542815
v -0.05944784 0.06751343 -0.02653265
v -0.09534429 0.08481561 -0.08869318
v -0.09255358 0.08620376 -0.08869293
v -0.10864913 0.14317026 -0.02663946
v -0.09425813 0.13534046 -0.07418628
v -0.06207931 0.08355081 -0.07724968
v -0.08826724 0.05114703 -0.05372633
v -0.09004569 0.04910418 -0.04868825
v -0.09202334 0.05224363 -0.06024613
v -0.06769566 0.09320513 0.00304959
v -0.12964964 0.11016856 -0.00626366
v -0.05537531 0.07420803 -0.01783968
v -0.12490781 0.10349133 -0.00056073
v -0.12407091 0.10222878 -0.08112496
v -0.12838216 0.10734196 -0.07554534
v -0.11489917 0.08689374 0.00373987
v -0.11360621 0.08680103 0.00455054
v -0.11929959 0.09514323 0.00323554
v -0.07601500 0.10730105 -0.08668155
v -0.09282419 0.10645110 0.00679364
v -0.10815457 0.07620711 0.00145742
v -0.10232698 0.06873618 -0.08040339
v -0.08224366 0.11368838 0.00685422
v -0.12073531 0.09551566 0.00128224
v -0.10060638 0.14334196 -0.06481308
v -0.09030584 0.05029768 -0.02656970
v -0.09755321 0.06153203 -0.07440566
v -0.11049284 0.08108218 0.00390752
v -0.13451363 0.11675339 -0.06319994
v -0.10475073 0.14834641 -0.03438698
v -0.10292455 0.14696238 -0.02568443
v -0.10371886 0.14846083 -0.03329896
v -0.10202799 0.06815581 -0.00095418
v -0.08119553 0.09016061 -0.08844261
v -0.09174488 0.12820791 -0.08216739
v -0.08029014 0.11184081 0.00702620
v -0.11543314 0.14130903 -0.03479906
v -0.11544446 0.14127656 -0.04621226
v -0.10187463 0.14724800 -0.02912293
v -0.09469793 0.13485776 -0.07678461
v -0.09997702 0.06363231 -0.00564811
v -0.09683414 0.06015601 -0.00778510
v -0.11065711 0.10489808 -0.08848718
v -0.09393653 0.13352633 -0.00285206
v -0.09770640 0.13947171 -0.07124828
v -0.10684537 0.07611853 0.00288244
v -0.08660352 0.09691456 0.00680304
f 138 37 39
f 53 52 114
f 73 74 81
f 114 52 109
f 109 120 114
f 52 81 109
f 137 4 138
f 127 133 100
f 126 133 127
f 63 61 62
f 135 61 63
f 127 78 135
f 135 78 77
f 136 139 88
f 58 141 88
f 88 141 136
f 114 113 116
f 116 53 114
f 114 120 112
f 112 113 114
f 143 116 113
f 138 39 129
f 129 137 138
f 4 137 129
f 38 39 37
f 36 78 73
f 77 78 36
f 36 135 77
f 12 135 36
f 107 81 74
f 107 109 81
f 10 12 5
f 97 96 122
f 104 4 105
f 18 118 4
f 18 44 118
f 115 29 90
f 90 29 61
f 90 135 12
f 61 135 90
f 105 4 48
f 54 82 3
f 3 76 54
f 74 76 3
f 3 107 74
f 109 107 3
f 120 109 3
f 3 112 120
f 75 76 74
f 75 74 73
f 73 78 75
f 101 29 136
f 61 29 101
f 136 141 101
f 101 141 61
f 128 126 127
f 127 135 128
f 63 126 128
f 128 135 63
f 60 62 59
f 59 82 60
f 59 3 82
f 121 62 61
f 61 141 121
f 121 59 62
f 121 141 58
f 58 59 121
f 58 88 111
f 111 3 58
f 53 116 119
f 142 143 124
f 124 143 113
f 113 112 124
f 112 3 124
f 116 143 28
f 117 129 142
f 4 129 117
f 142 124 117
f 117 3 4
f 117 124 3
f 39 38 106
f 142 129 106
f 106 129 39
f 140 81 52
f 73 81 140
f 140 36 73
f 36 140 51
f 52 53 51
f 51 140 52
f 7 22 5
f 5 6 7
f 7 6 96
f 12 10 11
f 105 48 11
f 89 22 23
f 5 22 89
f 89 10 5
f 4 122 56
f 34 122 4
f 33 122 34
f 4 104 34
f 33 34 35
f 35 34 104
f 103 104 105
f 105 11 103
f 103 11 10
f 72 118 40
f 118 44 40
f 20 18 4
f 42 44 43
f 44 18 43
f 43 20 42
f 18 20 43
f 130 102 72
f 123 118 72
f 72 102 123
f 102 48 123
f 54 76 55
f 76 75 55
f 55 133 54
f 55 100 133
f 127 100 55
f 55 78 127
f 55 75 78
f 133 126 26
f 63 62 65
f 65 126 63
f 136 29 30
f 45 30 46
f 58 3 125
f 125 59 58
f 3 59 125
f 42 20 19
f 4 3 19
f 19 20 4
f 110 88 139
f 139 67 110
f 110 111 88
f 3 111 110
f 110 19 3
f 67 95 8
f 14 31 132
f 132 15 14
f 132 31 53
f 53 119 132
f 57 15 132
f 132 119 116
f 132 28 57
f 116 28 132
f 32 143 142
f 142 106 32
f 14 143 32
f 32 31 14
f 32 106 31
f 36 51 64
f 53 31 64
f 64 51 53
f 31 106 93
f 93 64 31
f 5 12 94
f 94 6 5
f 12 6 94
f 23 22 84
f 22 7 84
f 102 90 50
f 50 48 102
f 50 11 48
f 138 4 85
f 4 56 85
f 85 56 122
f 70 35 104
f 70 89 23
f 104 103 70
f 10 89 70
f 70 103 10
f 47 130 99
f 99 130 72
f 115 90 87
f 87 68 115
f 102 130 86
f 86 130 47
f 86 90 102
f 86 87 90
f 47 68 86
f 68 87 86
f 71 48 4
f 71 123 48
f 4 118 71
f 118 123 71
f 25 26 126
f 66 26 25
f 126 65 25
f 25 65 66
f 60 82 134
f 134 62 60
f 134 65 62
f 136 30 131
f 131 30 45
f 131 139 136
f 131 45 139
f 1 29 115
f 45 46 92
f 139 45 92
f 92 67 139
f 92 95 67
f 42 19 41
f 41 8 42
f 67 8 41
f 41 110 67
f 19 110 41
f 9 44 42
f 42 8 9
f 13 28 143
f 13 143 14
f 14 15 13
f 57 28 13
f 13 15 57
f 49 37 138
f 138 85 49
f 79 80 6
f 36 64 79
f 64 93 79
f 12 36 79
f 79 6 12
f 79 93 106
f 79 106 38
f 79 49 80
f 79 38 37
f 37 49 79
f 91 90 12
f 91 50 90
f 12 11 91
f 11 50 91
f 69 84 7
f 33 35 69
f 35 70 69
f 69 122 33
f 97 122 69
f 69 96 97
f 69 7 96
f 66 65 27
f 65 134 27
f 27 26 66
f 133 26 27
f 27 134 133
f 54 133 83
f 133 134 83
f 83 82 54
f 83 134 82
f 29 1 2
f 2 1 46
f 2 30 29
f 2 46 30
f 115 68 17
f 17 1 115
f 44 9 98
f 98 99 72
f 72 40 98
f 98 40 44
f 6 80 108
f 80 49 108
f 96 6 108
f 108 49 85
f 108 122 96
f 108 85 122
f 24 70 23
f 24 69 70
f 23 84 24
f 84 69 24
f 47 99 16
f 16 68 47
f 16 17 68
f 1 17 21
f 17 16 21
f 46 1 21
f 21 92 46
f 21 16 99
f 99 98 21
f 95 92 21
f 21 8 95
f 21 9 8
f 21 98 9

