# https://github.com/mikedh/trimesh
v -0.12069397 0.16760926 0.06695171
v -0.12059401 0.16674794 0.06674738
v -0.11912737 0.16672188 0.06897088
v -0.11926676 0.16760803 0.06906832
v -0.11661006 0.16762371 0.06895176
v -0.11670991 0.16673111 0.06879406
v -0.11546432 0.16760526 0.06661880
v -0.11561489 0.16672188 0.06663193
v -0.11687794 0.16760386 0.06440481
v -0.11690281 0.16673111 0.06457852
v -0.11930159 0.16671880 0.06461640
v -0.11947239 0.16760151 0.06453673
v -0.11988756 0.16843344 0.06828908
v -0.11798751 0.16844033 0.06435844
v -0.12079246 0.16875018 0.06691571
v -0.11935571 0.16878806 0.06904983
v -0.11666926 0.16877721 0.06904214
v -0.11692248 0.16874404 0.06438914
v -0.11840967 0.16956586 0.06438900
v -0.11953851 0.16878086 0.06445642
v -0.11535374 0.16880821 0.06658315
v -0.11615279 0.16953359 0.06821244
v -0.11539842 0.16990393 0.06650274
v -0.11691451 0.16987646 0.06439281
v -0.12017619 0.17063314 0.06781098
v -0.12014656 0.17067858 0.06553713
v -0.11798172 0.17062346 0.06437597
v -0.11929387 0.16990685 0.06917764
v -0.12065624 0.17096659 0.06701689
v -0.11658704 0.17097475 0.06897192
v -0.11540977 0.17098721 0.06658949
v -0.11694046 0.17095778 0.06440728
v -0.11953171 0.17099336 0.06454160
v -0.12015124 0.17194391 0.06773872
v -0.12017333 0.17201791 0.06570545
v -0.11985229 0.17165731 0.06514129
v -0.11821166 0.17196206 0.06442973
v -0.11622394 0.17194821 0.06815000
v -0.11773581 0.17167846 0.06908220
v -0.11927872 0.17099323 0.06917014
v -0.11860106 0.17204659 0.06908501
v -0.11580112 0.17211069 0.06565222
v -0.11789607 0.17207143 0.06522203
v -0.11955186 0.17210654 0.06605128
v -0.11823294 0.16640481 0.06825394
v -0.11940424 0.16659156 0.06691931
v -0.11711126 0.16644636 0.06792853
v -0.11653809 0.16648481 0.06643030
v -0.11866112 0.16659166 0.06534176
v -0.11767727 0.16653093 0.06530762
f 9 42 21
f 15 28 25
f 41 44 34
f 42 44 41
f 21 42 23
f 23 31 21
f 42 31 23
f 38 31 42
f 30 31 38
f 42 41 38
f 30 38 39
f 39 38 41
f 7 9 21
f 15 25 29
f 29 25 34
f 32 37 42
f 43 44 42
f 42 37 43
f 43 37 44
f 20 2 15
f 28 39 40
f 40 39 41
f 40 41 34
f 40 25 28
f 34 25 40
f 13 28 15
f 3 4 1
f 1 2 3
f 4 13 1
f 15 2 1
f 1 13 15
f 11 9 10
f 8 48 10
f 9 7 10
f 10 7 8
f 11 10 50
f 50 10 48
f 5 4 3
f 3 6 5
f 5 7 21
f 8 7 5
f 5 6 8
f 45 6 3
f 45 2 46
f 3 2 45
f 45 50 48
f 11 2 12
f 2 20 12
f 16 4 28
f 28 13 16
f 16 13 4
f 28 4 17
f 4 5 17
f 17 39 28
f 17 5 30
f 30 39 17
f 22 5 21
f 30 5 22
f 21 31 22
f 22 31 30
f 47 45 48
f 6 45 47
f 47 48 8
f 8 6 47
f 11 50 49
f 50 45 49
f 49 45 46
f 49 2 11
f 46 2 49
f 9 18 24
f 42 9 24
f 24 32 42
f 14 24 18
f 14 18 9
f 14 12 20
f 14 9 11
f 11 12 14
f 26 20 15
f 44 37 35
f 37 36 35
f 34 44 35
f 35 29 34
f 15 29 35
f 35 26 15
f 37 20 33
f 33 36 37
f 20 26 33
f 33 35 36
f 26 35 33
f 27 20 37
f 37 32 27
f 32 24 27
f 24 14 27
f 19 14 20
f 20 27 19
f 19 27 14

