# https://github.com/mikedh/trimesh
v -0.11585940 -0.26210723 0.05598256
v -0.11756452 -0.24924216 0.05531514
v -0.11690034 -0.25155699 0.05626561
v -0.11644286 -0.25188425 0.05496738
v -0.11754375 -0.25165448 0.05415682
v -0.11844926 -0.25200348 0.05452686
v -0.11749807 -0.25211649 0.05406392
v -0.11631601 -0.25228999 0.05488491
v -0.11671162 -0.25241973 0.05648705
v -0.11765997 -0.25244825 0.05680330
v -0.11850279 -0.25178700 0.05603752
v -0.11469645 -0.26210198 0.05489368
v -0.11596097 -0.26210625 0.05760608
v -0.11896432 -0.26210175 0.05782290
v -0.12023395 -0.26208849 0.05512165
v -0.11795874 -0.26208098 0.05229040
v -0.11800767 -0.25299449 0.05397536
v -0.11685652 -0.25297074 0.05412515
v -0.11902564 -0.25276275 0.05488909
v -0.11870754 -0.25258825 0.05620346
v -0.11689551 -0.26210499 0.05361584
v -0.11924215 -0.26210723 0.05462597
v -0.11891790 -0.25368674 0.05595236
v -0.11650487 -0.25333400 0.05639799
v -0.11610690 -0.25321300 0.05484706
f 15 14 20
f 19 16 15
f 12 16 18
f 21 16 12
f 12 1 21
f 13 1 12
f 15 20 23
f 23 19 15
f 20 19 23
f 22 21 1
f 22 13 14
f 1 13 22
f 22 14 15
f 15 16 22
f 16 21 22
f 6 19 2
f 16 19 6
f 6 17 16
f 7 18 16
f 16 17 7
f 4 9 8
f 12 18 25
f 18 8 25
f 8 9 25
f 24 13 12
f 24 9 13
f 12 25 24
f 24 25 9
f 18 7 5
f 2 4 5
f 5 6 2
f 5 8 18
f 5 4 8
f 17 6 5
f 5 7 17
f 2 19 11
f 11 19 20
f 3 4 2
f 9 4 3
f 13 9 10
f 14 13 10
f 9 3 10
f 10 20 14
f 10 11 20
f 2 11 10
f 10 3 2

