# https://github.com/mikedh/trimesh
v 0.20588747 -0.17447609 -0.04623168
v 0.20627654 -0.17390764 -0.04621974
v 0.21407903 -0.17272494 -0.04693348
v 0.21137982 -0.17351127 -0.04488844
v 0.21458870 -0.17438041 -0.04578258
v 0.20956167 -0.17483169 -0.04945579
v 0.21264606 -0.17641494 -0.05031901
v 0.20986365 -0.17694974 -0.04867811
v 0.20648447 -0.17457810 -0.04683241
v 0.20642351 -0.17672792 -0.04530146
v 0.20598632 -0.17527287 -0.04667871
v 0.20702341 -0.17661209 -0.04509603
v 0.20655754 -0.17608140 -0.04650468
v 0.20704325 -0.17356117 -0.04576313
v 0.20556014 -0.17556561 -0.04581881
v 0.20650676 -0.17546874 -0.04397801
v 0.20617929 -0.17393956 -0.04454456
v 0.20661279 -0.17363184 -0.04440641
v 0.20626145 -0.17631074 -0.04493436
v 0.20589620 -0.17584394 -0.04599938
v 0.20695551 -0.17547526 -0.04378441
v 0.21071401 -0.17239304 -0.04660211
v 0.21345018 -0.17775886 -0.04851884
v 0.21066898 -0.17782127 -0.04675988
v 0.21181544 -0.17509334 -0.04441893
v 0.21440357 -0.17667144 -0.04594043
v 0.21313089 -0.17562959 -0.04935191
v 0.21404191 -0.17594291 -0.04713898
v 0.21353324 -0.17647869 -0.04839811
v 0.21374780 -0.17365184 -0.04788608
v 0.21296833 -0.17267599 -0.04949701
v 0.21265746 -0.17420037 -0.05047081
v 0.21132558 -0.17669939 -0.04496806
v 0.20996509 -0.17288567 -0.04830133
f 10 8 24
f 6 34 32
f 7 6 32
f 8 6 7
f 30 3 5
f 32 34 31
f 31 30 32
f 3 30 31
f 31 34 22
f 22 3 31
f 15 10 19
f 19 10 21
f 21 10 12
f 8 10 13
f 25 26 5
f 24 26 33
f 21 12 33
f 33 25 21
f 26 25 33
f 33 10 24
f 33 12 10
f 5 26 28
f 28 30 5
f 29 30 28
f 15 17 1
f 23 7 32
f 29 28 23
f 23 28 26
f 23 26 24
f 24 8 23
f 8 7 23
f 20 10 15
f 20 13 10
f 11 6 8
f 8 13 11
f 15 1 11
f 11 20 15
f 13 20 11
f 4 18 21
f 21 25 4
f 4 3 22
f 22 18 4
f 5 3 4
f 4 25 5
f 21 18 16
f 18 17 16
f 16 19 21
f 15 19 16
f 16 17 15
f 6 11 9
f 9 11 1
f 2 17 18
f 2 1 17
f 2 9 1
f 34 6 2
f 6 9 2
f 27 23 32
f 29 23 27
f 32 30 27
f 27 30 29
f 14 18 22
f 14 2 18
f 22 34 14
f 34 2 14

