# https://github.com/mikedh/trimesh
v 0.10994405 -0.09227333 -0.08744711
v 0.10978790 -0.09221441 -0.08831942
v 0.11114348 -0.08998004 -0.08744937
v 0.11098511 -0.09001346 -0.08833402
v 0.10969060 -0.08789558 -0.08831691
v 0.10967996 -0.08770466 -0.08742727
v 0.10701255 -0.08791038 -0.08742704
v 0.10724030 -0.08799396 -0.08834031
v 0.10604323 -0.09005736 -0.08831942
v 0.10591765 -0.09022219 -0.08744994
v 0.10732163 -0.09242648 -0.08744927
v 0.10731242 -0.09222791 -0.08833109
v 0.10793933 -0.09242931 -0.08669362
v 0.10648400 -0.09124866 -0.08662694
v 0.11069958 -0.08911966 -0.08662619
v 0.11124446 -0.08998948 -0.08627394
v 0.10730503 -0.09243606 -0.08628857
v 0.11001391 -0.09235826 -0.08629564
v 0.10865977 -0.09243988 -0.08550884
v 0.10668465 -0.09153571 -0.08537734
v 0.10581930 -0.09022508 -0.08629515
v 0.10700915 -0.08782096 -0.08622334
v 0.10975950 -0.08766338 -0.08627442
v 0.11123280 -0.08994741 -0.08516219
v 0.10699056 -0.08790496 -0.08515732
v 0.10581912 -0.09023913 -0.08514362
v 0.11022478 -0.08838373 -0.08443377
v 0.11120768 -0.08996146 -0.08409199
v 0.10709550 -0.08784698 -0.08409699
v 0.10591621 -0.09031213 -0.08406887
v 0.10733698 -0.09248471 -0.08407604
v 0.11000165 -0.09235731 -0.08405426
v 0.10846083 -0.09241208 -0.08312166
v 0.10680953 -0.09167331 -0.08307402
v 0.10633511 -0.08925051 -0.08309764
v 0.10804090 -0.08782006 -0.08311209
v 0.10974150 -0.08766543 -0.08404109
v 0.11004048 -0.08828579 -0.08302239
v 0.11066918 -0.08907793 -0.08338156
v 0.11089103 -0.09086303 -0.08294525
v 0.10710016 -0.09077933 -0.08298105
v 0.10990978 -0.08946478 -0.08865112
v 0.10906712 -0.08865611 -0.08860960
v 0.10729293 -0.08919521 -0.08302831
v 0.10748300 -0.08890881 -0.08857111
v 0.10845428 -0.09153431 -0.08846641
v 0.10708036 -0.09045671 -0.08852502
f 28 40 16
f 24 28 16
f 38 41 40
f 15 24 16
f 30 35 26
f 40 41 33
f 40 28 39
f 39 38 40
f 28 24 39
f 44 38 36
f 41 38 44
f 36 35 44
f 44 35 41
f 23 15 6
f 6 15 5
f 3 15 16
f 5 15 3
f 23 6 22
f 22 6 7
f 26 35 22
f 8 6 5
f 7 6 8
f 11 12 2
f 2 1 11
f 11 10 12
f 34 30 26
f 34 33 41
f 41 35 34
f 35 30 34
f 38 39 37
f 36 38 37
f 23 22 37
f 46 12 47
f 47 42 46
f 2 12 46
f 46 42 2
f 2 42 4
f 4 1 2
f 3 1 4
f 5 3 4
f 4 42 5
f 40 33 32
f 25 22 35
f 45 42 47
f 47 12 9
f 12 10 9
f 9 45 47
f 8 45 9
f 7 8 9
f 10 11 14
f 14 11 17
f 23 37 27
f 27 37 39
f 27 39 24
f 27 15 23
f 24 15 27
f 36 37 29
f 29 37 22
f 22 25 29
f 29 35 36
f 29 25 35
f 18 11 1
f 40 32 18
f 16 40 18
f 18 3 16
f 18 1 3
f 43 8 5
f 43 45 8
f 5 42 43
f 42 45 43
f 21 14 26
f 10 14 21
f 26 22 21
f 21 22 7
f 7 9 21
f 21 9 10
f 26 14 20
f 19 18 32
f 11 18 13
f 13 19 11
f 18 19 13
f 33 34 31
f 31 32 33
f 31 19 32
f 11 19 31
f 17 11 31
f 31 34 26
f 26 20 31
f 31 14 17
f 31 20 14

