# https://github.com/mikedh/trimesh
v -0.16991882 -0.04450141 0.04903880
v -0.16717401 -0.04471634 0.04923282
v -0.16991032 -0.04332986 0.04700450
v -0.16710733 -0.04332239 0.04666216
v -0.16993185 -0.04428844 0.04454416
v -0.16711693 -0.04463674 0.04429738
v -0.16992146 -0.04766854 0.04445656
v -0.16716255 -0.04726806 0.04431343
v -0.16713933 -0.04861294 0.04612108
v -0.16990768 -0.04861951 0.04767163
v -0.16713635 -0.04797244 0.04869148
v -0.16997371 -0.04663591 0.04931220
v -0.15126718 -0.04647926 0.04581871
v -0.15165326 -0.04742279 0.04666995
v -0.15169377 -0.04670209 0.04530773
v -0.15150638 -0.04636771 0.04788997
v -0.15176081 -0.04485229 0.04618754
v -0.15153495 -0.04461759 0.04711255
v -0.15168251 -0.04525354 0.04764887
v -0.15185323 -0.04666384 0.04820232
v -0.15202718 -0.04451646 0.04633228
v -0.15212425 -0.04588304 0.04511965
v -0.15222070 -0.04765701 0.04655667
v -0.15240901 -0.04521316 0.04812996
v -0.15260342 -0.04596339 0.04509395
v -0.15278473 -0.04719326 0.04772794
v -0.15283538 -0.04545304 0.04827045
v -0.15298801 -0.04443326 0.04655721
v -0.15317395 -0.04738449 0.04584627
v -0.15342995 -0.04454466 0.04731168
v -0.15353736 -0.04504209 0.04542157
v -0.15194228 -0.04481546 0.04774807
v -0.16994723 -0.04457034 0.04673283
v -0.16996852 -0.04542906 0.04798628
v -0.16994333 -0.04701009 0.04566085
v -0.16996620 -0.04533891 0.04543219
f 4 5 3
f 21 5 4
f 6 5 21
f 7 29 9
f 8 29 7
f 7 5 6
f 6 8 7
f 12 11 20
f 20 2 12
f 12 2 1
f 2 3 1
f 1 34 12
f 3 34 1
f 32 2 24
f 24 20 32
f 4 3 32
f 32 3 2
f 6 21 31
f 31 22 6
f 21 22 31
f 25 8 6
f 6 22 25
f 13 22 17
f 17 22 21
f 10 11 12
f 12 7 10
f 10 7 9
f 24 2 27
f 27 20 24
f 2 20 27
f 33 3 5
f 33 34 3
f 5 7 36
f 36 33 5
f 34 33 36
f 12 34 36
f 18 17 21
f 13 17 18
f 15 25 22
f 15 29 8
f 8 25 15
f 15 22 13
f 13 14 15
f 26 20 11
f 35 7 12
f 12 36 35
f 35 36 7
f 28 21 4
f 4 18 28
f 28 18 21
f 4 32 30
f 30 18 4
f 32 18 30
f 16 32 20
f 13 18 16
f 16 14 13
f 20 14 16
f 23 15 14
f 29 15 23
f 23 10 9
f 9 29 23
f 11 10 23
f 23 26 11
f 23 14 20
f 20 26 23
f 19 18 32
f 32 16 19
f 19 16 18

