# https://github.com/mikedh/trimesh
v -0.05981537 0.08033331 0.12423830
v -0.05981539 0.15008718 0.11035175
v -0.05981537 0.13598550 0.12430770
v -0.05981550 0.07396323 0.12131557
v -0.05981550 0.06937021 0.11672247
v -0.05981540 0.06644823 0.11035409
v -0.05981534 0.15051715 0.06216791
v -0.05981535 0.06601715 0.06216791
v -0.05981549 0.14716396 0.11672275
v -0.05981549 0.14257118 0.12131552
v -0.19315624 0.15005587 0.06216795
v -0.18551394 0.15022146 0.08843914
v -0.13759244 0.15006821 0.11090051
v -0.13759037 0.06646516 0.11089874
v -0.18551405 0.06631294 0.08843921
v -0.19315627 0.06647854 0.06216795
v -0.14062230 0.13506669 0.12446971
v -0.14053155 0.08143473 0.12448501
v -0.20711172 0.13526637 0.06216797
v -0.20714555 0.08138594 0.06216800
v -0.20274566 0.07222847 0.06216790
v -0.20274570 0.14430589 0.06216790
v -0.19812675 0.12864216 0.09902151
v -0.19995334 0.12864216 0.09169546
v -0.19812675 0.08789216 0.09902151
v -0.19995335 0.08789216 0.09169546
v -0.18209550 0.13408876 0.10605103
v -0.18255430 0.12917897 0.10595484
v -0.17986935 0.08735539 0.10715026
v -0.17941014 0.08244691 0.10724689
v -0.13949035 0.07232068 0.12035771
v -0.19799498 0.08158396 0.09891224
v -0.19549977 0.07419814 0.09681731
v -0.19089952 0.06897509 0.09295734
v -0.13949032 0.14421369 0.12035771
v -0.19799509 0.13495054 0.09891161
v -0.19549977 0.14233624 0.09681731
v -0.19089940 0.14755941 0.09295721
f 7 8 22
f 21 22 8
f 19 21 20
f 22 21 19
f 7 22 11
f 11 22 38
f 8 15 16
f 16 21 8
f 7 11 12
f 12 11 38
f 18 32 33
f 20 21 33
f 33 32 20
f 18 1 3
f 3 8 7
f 3 1 8
f 14 15 8
f 31 1 18
f 31 4 1
f 18 33 31
f 10 3 9
f 30 32 18
f 18 29 30
f 20 32 26
f 22 19 37
f 38 22 37
f 6 14 8
f 8 1 6
f 15 14 34
f 14 31 34
f 34 31 33
f 34 33 21
f 34 16 15
f 21 16 34
f 2 3 7
f 2 9 3
f 25 26 32
f 29 23 25
f 32 30 25
f 25 30 29
f 24 19 20
f 20 26 24
f 36 37 19
f 36 24 23
f 19 24 36
f 38 37 35
f 10 9 35
f 35 3 10
f 1 4 5
f 5 6 1
f 4 31 5
f 5 31 14
f 14 6 5
f 17 29 18
f 18 3 17
f 3 35 17
f 37 36 17
f 17 35 37
f 13 12 38
f 38 35 13
f 7 12 13
f 13 2 7
f 9 2 13
f 13 35 9
f 27 36 23
f 27 17 36
f 28 27 23
f 17 27 28
f 28 23 29
f 29 17 28
f 26 25 24
f 24 25 23

