# https://github.com/mikedh/trimesh
v -0.05887939 -0.18067827 0.06216791
v -0.05894486 -0.18074375 0.06610494
v -0.06793097 -0.18072030 0.06216791
v -0.06791337 -0.18070269 0.06610494
v -0.06833814 -0.17140309 0.06621087
v -0.05849564 -0.17144442 0.06616225
v -0.05892039 -0.17030072 0.07650687
v -0.05890279 -0.16636374 0.07652447
v -0.06788896 -0.17030071 0.07654789
v -0.06795442 -0.16636374 0.07648242
v -0.06833814 -0.16636372 0.06216791
v -0.05849564 -0.16636372 0.06216791
v -0.06833814 -0.17033929 0.06752441
v -0.05849564 -0.17031642 0.06760332
f 7 9 2
f 13 9 10
f 14 7 2
f 13 10 11
f 2 3 1
f 4 9 13
f 2 9 4
f 4 3 2
f 8 14 12
f 7 14 8
f 12 11 8
f 8 11 10
f 9 7 8
f 8 10 9
f 6 14 2
f 2 1 6
f 6 1 12
f 12 14 6
f 5 4 13
f 3 4 5
f 5 11 3
f 13 11 5
f 3 11 1
f 1 11 12

