# https://github.com/mikedh/trimesh
v -0.07056146 0.21360406 0.05682280
v -0.08342419 0.21458320 0.05528858
v -0.08096514 0.21359176 0.05476946
v -0.08114228 0.21389298 0.05626522
v -0.08082501 0.21447739 0.05417675
v -0.08103973 0.21569349 0.05526733
v -0.08066288 0.21553590 0.05458395
v -0.08054976 0.21579430 0.05560981
v -0.08089321 0.21529448 0.05618359
v -0.08046261 0.21470613 0.05676284
v -0.08027623 0.21320147 0.05581261
v -0.07056446 0.21440863 0.05818221
v -0.07056013 0.21201253 0.05638930
v -0.07056469 0.21241510 0.05340503
v -0.07057794 0.21531760 0.05271484
v -0.07058541 0.21762464 0.05552201
v -0.07975314 0.21578288 0.05598263
v -0.07981721 0.21591606 0.05453986
v -0.08011866 0.21349053 0.05426206
v -0.07996766 0.21476540 0.05383923
v -0.07056146 0.21557805 0.05378575
v -0.07862716 0.21577184 0.05624073
v -0.07933226 0.21330642 0.05610420
v -0.07915866 0.21313507 0.05491815
f 16 15 18
f 2 4 10
f 10 4 12
f 21 15 16
f 16 12 21
f 21 14 15
f 13 14 21
f 15 14 20
f 20 18 15
f 13 12 23
f 12 4 23
f 22 12 16
f 22 10 12
f 1 12 13
f 13 21 1
f 1 21 12
f 19 20 14
f 2 18 7
f 7 20 2
f 18 20 7
f 11 4 2
f 11 23 4
f 13 23 11
f 16 18 8
f 2 20 5
f 5 19 2
f 20 19 5
f 2 19 3
f 3 11 2
f 19 11 3
f 24 14 13
f 13 11 24
f 24 19 14
f 24 11 19
f 6 18 2
f 2 8 6
f 6 8 18
f 2 10 9
f 9 8 2
f 10 22 9
f 17 9 22
f 8 9 17
f 17 22 16
f 16 8 17

