# https://github.com/mikedh/trimesh
v 0.12486404 -0.07028396 0.06250983
v 0.12314745 -0.06897741 0.06221793
v 0.12710039 -0.07012916 0.06224505
v 0.12253382 -0.06808173 0.06576308
v 0.12393392 -0.06972611 0.06604814
v 0.12254909 -0.06586421 0.06601353
v 0.12517076 -0.06347159 0.06600043
v 0.12234829 -0.06606888 0.06235394
v 0.12688537 -0.07035921 0.06591046
v 0.12932280 -0.06730156 0.06228800
v 0.12896702 -0.06817153 0.06601929
v 0.12878917 -0.06503143 0.06599590
v 0.12755375 -0.06387031 0.06226815
v 0.12441384 -0.06386731 0.06224996
v 0.12591032 -0.06532331 0.04488574
v 0.12690562 -0.06568194 0.04463697
v 0.12437752 -0.06566291 0.04481149
v 0.12439927 -0.06669399 0.04439518
v 0.12401174 -0.06760346 0.04488375
v 0.12541694 -0.06896404 0.04494683
v 0.12662562 -0.06826819 0.04457563
v 0.12765180 -0.06807301 0.04500420
v 0.12741557 -0.06681301 0.04469197
v 0.12747022 -0.06566621 0.04516048
v 0.12567980 -0.06486256 0.04526365
v 0.12402972 -0.06589323 0.04536455
v 0.12400852 -0.06798788 0.04548959
v 0.12731982 -0.06839383 0.04571255
v 0.12781695 -0.06628543 0.04580080
v 0.12588322 -0.06480323 0.04593240
v 0.12584724 -0.06902141 0.04627862
v 0.12450877 -0.06524038 0.04811593
v 0.12519035 -0.06531304 0.06605500
v 0.12690942 -0.06556881 0.06605499
v 0.12755222 -0.06722539 0.06604788
v 0.12664109 -0.06839599 0.06606137
v 0.12410926 -0.06667388 0.06605499
f 5 1 9
f 5 4 2
f 2 1 5
f 2 4 27
f 27 1 2
f 27 4 8
f 10 22 29
f 29 12 10
f 4 5 6
f 8 4 6
f 6 14 8
f 7 14 6
f 34 12 7
f 1 27 20
f 12 29 24
f 8 14 26
f 26 14 17
f 26 17 18
f 17 14 32
f 12 34 11
f 11 5 9
f 10 12 11
f 11 22 10
f 7 6 33
f 33 34 7
f 21 20 18
f 22 20 21
f 18 20 19
f 19 20 27
f 19 26 18
f 19 27 8
f 8 26 19
f 28 20 22
f 9 1 3
f 1 20 3
f 3 28 22
f 3 11 9
f 22 11 3
f 23 29 22
f 23 24 29
f 22 21 23
f 7 12 13
f 12 24 13
f 17 32 25
f 25 14 7
f 25 32 14
f 5 11 36
f 34 33 36
f 20 28 31
f 31 3 20
f 28 3 31
f 18 17 16
f 16 21 18
f 16 23 21
f 24 23 16
f 16 25 24
f 30 13 24
f 24 25 30
f 7 13 30
f 30 25 7
f 35 11 34
f 34 36 35
f 35 36 11
f 5 36 37
f 37 36 33
f 37 6 5
f 37 33 6
f 17 25 15
f 15 16 17
f 25 16 15

