# https://github.com/mikedh/trimesh
v 0.12127781 -0.16760991 0.06687949
v 0.11993119 -0.16672871 0.06888023
v 0.11992741 -0.16762379 0.06905925
v 0.11728816 -0.16759798 0.06896626
v 0.11727868 -0.16674696 0.06881894
v 0.11606039 -0.16760629 0.06659879
v 0.11623346 -0.16670591 0.06662184
v 0.11746011 -0.16674479 0.06455935
v 0.11751443 -0.16763368 0.06436612
v 0.12003208 -0.16761268 0.06449294
v 0.12003416 -0.16672301 0.06469537
v 0.12111956 -0.16672624 0.06681188
v 0.12050018 -0.16845180 0.06827045
v 0.12036036 -0.16830993 0.06500348
v 0.11833761 -0.16840301 0.06437760
v 0.11867901 -0.16843008 0.06909419
v 0.11715288 -0.16877051 0.06898118
v 0.12009921 -0.16876848 0.06451253
v 0.12138351 -0.16875598 0.06689949
v 0.12060657 -0.16956878 0.06530662
v 0.11742159 -0.16881576 0.06433229
v 0.11596464 -0.16876468 0.06658867
v 0.11716301 -0.16990864 0.06898859
v 0.11603746 -0.16989426 0.06652708
v 0.12077403 -0.17063639 0.06780558
v 0.11744272 -0.16989228 0.06433838
v 0.11665349 -0.17079976 0.06798110
v 0.11833004 -0.17061381 0.06908447
v 0.11718243 -0.17097583 0.06897192
v 0.11604881 -0.17103900 0.06664851
v 0.12013601 -0.17106791 0.06447815
v 0.12057691 -0.17196034 0.06540570
v 0.11689231 -0.17171176 0.06516809
v 0.11745393 -0.17097005 0.06435605
v 0.11685089 -0.17193391 0.06820727
v 0.11891464 -0.17195613 0.06906459
v 0.11989783 -0.17098445 0.06913939
v 0.12073219 -0.17199286 0.06784337
v 0.11626256 -0.17211176 0.06633715
v 0.11825033 -0.17211176 0.06428710
v 0.12124524 -0.17138421 0.06690264
v 0.12014731 -0.17210761 0.06605128
v 0.11770668 -0.16644743 0.06792853
v 0.11713351 -0.16648591 0.06643034
v 0.11999966 -0.16659263 0.06691934
v 0.11989293 -0.16659061 0.06595869
v 0.11827269 -0.16653203 0.06530765
f 41 32 19
f 19 32 20
f 31 32 40
f 31 20 32
f 30 39 35
f 40 32 42
f 42 39 40
f 22 30 27
f 35 29 27
f 27 30 35
f 19 13 25
f 20 31 18
f 11 8 47
f 8 44 47
f 5 2 43
f 43 47 44
f 7 6 5
f 5 43 7
f 7 43 44
f 8 6 7
f 7 44 8
f 3 2 5
f 3 16 37
f 3 13 19
f 37 13 3
f 37 16 28
f 4 3 5
f 16 3 4
f 1 12 2
f 1 3 19
f 2 3 1
f 11 12 1
f 24 30 22
f 39 30 24
f 36 29 35
f 35 39 36
f 39 42 36
f 37 28 36
f 36 28 29
f 19 20 14
f 14 1 19
f 10 8 11
f 10 9 8
f 11 1 10
f 1 14 10
f 20 18 10
f 10 14 20
f 10 31 40
f 10 18 31
f 40 39 33
f 33 34 40
f 39 24 33
f 33 24 22
f 8 9 21
f 21 33 22
f 34 33 21
f 22 6 21
f 21 6 8
f 2 12 45
f 45 43 2
f 17 4 5
f 5 6 17
f 17 6 22
f 22 27 17
f 17 28 16
f 16 4 17
f 38 36 42
f 32 41 38
f 38 42 32
f 37 36 38
f 38 13 37
f 38 25 13
f 38 41 19
f 19 25 38
f 15 10 40
f 9 10 15
f 40 21 15
f 15 21 9
f 40 34 26
f 26 21 40
f 34 21 26
f 47 43 46
f 43 45 46
f 11 47 46
f 46 12 11
f 46 45 12
f 23 27 29
f 23 17 27
f 29 28 23
f 28 17 23

