# https://github.com/mikedh/trimesh
v -0.14258495 -0.25498273 0.04993442
v -0.15127846 -0.24821639 0.05062434
v -0.15511762 -0.24354520 0.04989500
v -0.11657090 -0.21586657 0.11537399
v -0.10051421 -0.25751023 0.04920829
v -0.09684160 -0.25755325 0.05064848
v -0.10828424 -0.26121149 0.05012844
v -0.15489461 -0.18517276 0.05015278
v -0.15904106 -0.19345221 0.04936932
v -0.16102779 -0.19520607 0.05040676
v -0.11860707 -0.21435468 0.11564597
v -0.11654902 -0.21399784 0.11550404
v -0.16409195 -0.20537498 0.04997812
v -0.16387086 -0.21482300 0.04929493
v -0.16515912 -0.21571469 0.05129479
v -0.10430848 -0.17003664 0.04934890
v -0.10757922 -0.16811432 0.05014310
v -0.09818474 -0.17127092 0.05005132
v -0.09489297 -0.17572774 0.09247547
v -0.10596074 -0.17280629 0.09327182
v -0.09168874 -0.17952142 0.09324122
v -0.13652348 -0.17226764 0.04929564
v -0.15926812 -0.23721733 0.05005360
v -0.16267034 -0.22952809 0.05022816
v -0.16205069 -0.22730550 0.04923483
v -0.07137886 -0.21455098 0.04921163
v -0.07085834 -0.20540419 0.05033972
v -0.07007434 -0.20869341 0.05098485
v -0.15309131 -0.18704893 0.09239396
v -0.16485436 -0.20849199 0.05108260
v -0.16481890 -0.20892617 0.06387652
v -0.12882732 -0.25813348 0.09216424
v -0.12938046 -0.16636417 0.07591624
v -0.10547126 -0.16679857 0.05762852
v -0.08428772 -0.24471500 0.09250467
v -0.08845187 -0.24858539 0.09284379
v -0.07022529 -0.22068575 0.05108435
v -0.07009579 -0.21748825 0.05687127
v -0.07028262 -0.22025800 0.06387658
v -0.07235391 -0.22937246 0.05030688
v -0.07345836 -0.22831922 0.04937016
v -0.07092294 -0.22282527 0.04989265
v -0.11162359 -0.16656269 0.08931927
v -0.10675022 -0.16658855 0.08575877
v -0.08682099 -0.18087074 0.04936837
v -0.12870116 -0.17136439 0.09282067
v -0.12607031 -0.16655489 0.08780809
v -0.14847297 -0.24727199 0.09247716
v -0.11522257 -0.26210175 0.05334966
v -0.13827678 -0.25448873 0.09243469
v -0.07479684 -0.22846022 0.09237637
v -0.07920064 -0.23791402 0.09270917
v -0.16250562 -0.21244142 0.09199764
v -0.16488915 -0.22061376 0.05090213
v -0.16069447 -0.20133071 0.09019889
v -0.16167092 -0.20782125 0.09290809
v -0.15772900 -0.19481086 0.09275186
v -0.07241644 -0.22841740 0.05717349
v -0.07430247 -0.21888914 0.09329027
v -0.09124454 -0.17491409 0.05061581
v -0.08674284 -0.17847524 0.04999395
v -0.07705082 -0.19167532 0.04936623
v -0.07267699 -0.19927336 0.04992686
v -0.13196391 -0.16701283 0.06307854
v -0.13164259 -0.16647359 0.07962562
v -0.12999196 -0.16645874 0.05835291
v -0.07439874 -0.20134917 0.09018282
v -0.07840349 -0.19253134 0.09264282
v -0.07371164 -0.20614593 0.09284630
v -0.11613519 -0.16623454 0.05191379
v -0.11955224 -0.16626822 0.05196023
v -0.15406057 -0.18673001 0.04926206
v -0.07303822 -0.22070322 0.09212849
v -0.07259970 -0.21252017 0.09210300
v -0.10600424 -0.16636419 0.07482717
v -0.10697972 -0.16636399 0.07820932
v -0.10540560 -0.25791249 0.09226827
v -0.11093970 -0.25859823 0.09296662
v -0.11769200 -0.25960798 0.09222759
v -0.10283189 -0.17215665 0.09226934
v -0.11329817 -0.16998897 0.09257429
v -0.12064077 -0.16851921 0.04933059
v -0.11973440 -0.26108825 0.04938953
v -0.12005230 -0.26209874 0.05035979
v -0.12930079 -0.26079774 0.05023859
v -0.07005229 -0.21565850 0.05233883
v -0.07004009 -0.21226325 0.05334901
v -0.12609048 -0.25800524 0.09304619
v -0.13829541 -0.17465202 0.09236539
v -0.14385230 -0.17981369 0.09324059
v -0.12584554 -0.16642697 0.05424808
v -0.14052402 -0.25354473 0.04943206
v -0.13024322 -0.16693228 0.08336724
v -0.16266467 -0.22852440 0.05711448
v -0.10342921 -0.16656929 0.07973524
v -0.08777732 -0.25187750 0.05077758
v -0.10609015 -0.26037948 0.05639848
v -0.11152355 -0.26191125 0.05108471
v -0.16500575 -0.21169593 0.05687129
v -0.16502350 -0.21697886 0.05744743
v -0.07007519 -0.21220322 0.05744912
v -0.12044687 -0.26204698 0.05687130
v -0.11516352 -0.26206548 0.05744792
v -0.12752414 -0.16636384 0.07842004
v -0.13822952 -0.25762849 0.05072975
v -0.13184938 -0.16927189 0.05024010
v -0.13954897 -0.17222036 0.05090250
v -0.14762999 -0.17767753 0.05054108
v -0.11988686 -0.16711804 0.05028167
v -0.12090792 -0.17042717 0.09308307
v -0.12365114 -0.26189699 0.05108493
v -0.12321665 -0.26186025 0.06387644
v -0.11616575 -0.16651725 0.09040597
v -0.12058542 -0.16673026 0.09032417
v -0.10341597 -0.16661589 0.06202660
v -0.10889203 -0.16647236 0.05440934
v -0.08147842 -0.18380847 0.05001036
v -0.07665279 -0.19024409 0.05033455
v -0.14532020 -0.24883425 0.09308016
v -0.11925277 -0.16636384 0.08714749
v -0.07030372 -0.20884476 0.06390371
v -0.16480997 -0.22031209 0.06389844
v -0.11555061 -0.16636472 0.08714292
v -0.08359754 -0.18738954 0.09323904
v -0.16028147 -0.22853536 0.09236479
v -0.16043922 -0.22083008 0.09327809
v -0.16206610 -0.22064643 0.09216894
v -0.07594052 -0.23734522 0.04991844
v -0.15590535 -0.23793242 0.09267194
v -0.08725692 -0.24980912 0.04930092
v -0.09594682 -0.25398100 0.09243449
v -0.15237149 -0.24456737 0.04935783
v -0.14694116 -0.18066476 0.09235049
v -0.08550772 -0.18299145 0.09212609
v -0.14623984 -0.17842246 0.04923075
v -0.14707439 -0.25134349 0.05749710
v -0.11183062 -0.26185074 0.06389999
v -0.16338349 -0.20334260 0.05640907
v -0.08040927 -0.24430380 0.05018595
f 129 48 11
f 107 22 108
f 110 46 11
f 114 46 110
f 53 122 127
f 53 31 122
f 132 83 92
f 54 122 15
f 125 126 127
f 127 122 125
f 11 126 125
f 125 129 11
f 23 129 125
f 97 7 6
f 130 96 6
f 137 7 97
f 50 4 11
f 124 68 134
f 36 96 35
f 35 4 36
f 52 4 35
f 47 46 114
f 15 122 100
f 122 31 100
f 62 117 118
f 134 68 118
f 118 117 134
f 63 26 62
f 27 26 63
f 62 118 63
f 68 67 63
f 63 118 68
f 134 117 61
f 71 91 66
f 33 70 71
f 71 66 33
f 66 107 64
f 22 107 106
f 91 71 106
f 66 91 106
f 106 107 66
f 20 19 80
f 12 110 11
f 12 19 20
f 11 4 12
f 68 124 12
f 12 4 59
f 114 110 113
f 113 47 114
f 10 29 8
f 8 9 10
f 108 8 133
f 133 8 29
f 10 31 55
f 70 76 75
f 60 115 95
f 95 19 134
f 115 75 95
f 134 61 95
f 95 61 60
f 95 75 76
f 3 129 23
f 3 2 48
f 48 129 3
f 83 132 5
f 5 7 83
f 5 26 130
f 130 6 5
f 5 6 7
f 14 54 15
f 122 54 24
f 87 101 38
f 101 39 38
f 39 37 38
f 59 4 51
f 51 4 52
f 52 128 51
f 77 78 79
f 79 137 77
f 97 6 77
f 77 137 97
f 77 4 78
f 98 137 49
f 7 137 98
f 49 102 84
f 84 98 49
f 84 85 83
f 83 7 84
f 7 98 84
f 85 84 111
f 111 84 102
f 49 137 103
f 103 102 49
f 85 32 105
f 105 32 50
f 11 48 119
f 119 50 11
f 48 50 119
f 134 19 21
f 21 124 134
f 19 12 21
f 21 12 124
f 59 51 73
f 73 51 39
f 28 101 87
f 28 26 27
f 42 26 28
f 28 37 42
f 42 37 40
f 40 37 39
f 40 51 128
f 52 35 139
f 139 128 52
f 139 35 96
f 139 96 130
f 130 128 139
f 41 26 42
f 42 40 41
f 41 40 128
f 130 26 41
f 41 128 130
f 99 30 15
f 31 30 99
f 15 100 99
f 99 100 31
f 13 30 31
f 10 9 13
f 9 14 13
f 15 30 13
f 13 14 15
f 45 117 62
f 45 61 117
f 62 26 45
f 69 12 59
f 68 12 69
f 69 67 68
f 81 113 110
f 81 12 20
f 110 12 81
f 20 80 81
f 80 113 81
f 47 113 120
f 108 133 65
f 65 107 108
f 65 64 107
f 93 47 65
f 33 66 65
f 66 64 65
f 47 120 65
f 89 47 93
f 93 65 89
f 89 65 133
f 46 47 89
f 11 46 89
f 57 29 10
f 10 55 57
f 11 29 57
f 31 53 56
f 56 55 31
f 56 57 55
f 11 57 56
f 56 126 11
f 127 126 56
f 56 53 127
f 70 75 116
f 116 75 115
f 115 34 116
f 116 17 70
f 19 95 44
f 44 95 76
f 26 5 135
f 108 22 135
f 135 8 108
f 94 125 122
f 122 24 94
f 23 125 94
f 94 24 23
f 54 14 25
f 25 24 54
f 23 24 25
f 25 3 23
f 132 3 25
f 25 5 132
f 25 135 5
f 87 38 86
f 86 38 37
f 86 28 87
f 37 28 86
f 131 77 6
f 131 96 36
f 131 6 96
f 36 4 131
f 4 77 131
f 85 111 112
f 112 32 85
f 112 111 102
f 79 32 112
f 112 137 79
f 112 103 137
f 102 103 112
f 88 32 79
f 79 78 88
f 78 4 88
f 4 50 88
f 50 32 88
f 1 132 92
f 85 105 1
f 2 3 1
f 1 3 132
f 92 83 1
f 83 85 1
f 1 105 50
f 39 51 58
f 58 40 39
f 51 40 58
f 138 31 10
f 10 13 138
f 138 13 31
f 60 61 18
f 18 115 60
f 18 34 115
f 18 116 34
f 17 116 18
f 109 106 71
f 70 17 109
f 109 71 70
f 82 109 17
f 82 135 22
f 22 106 82
f 106 109 82
f 59 73 74
f 74 69 59
f 74 73 39
f 123 120 113
f 123 44 76
f 123 76 70
f 70 120 123
f 104 70 33
f 104 120 70
f 33 65 104
f 104 65 120
f 11 89 90
f 90 89 133
f 90 29 11
f 90 133 29
f 43 80 19
f 19 44 43
f 43 113 80
f 43 123 113
f 44 123 43
f 72 14 9
f 9 8 72
f 8 135 72
f 72 25 14
f 135 25 72
f 48 2 136
f 2 1 136
f 136 50 48
f 136 1 50
f 17 18 16
f 16 82 17
f 61 45 16
f 16 18 61
f 16 45 26
f 26 135 16
f 135 82 16
f 69 74 121
f 67 69 121
f 101 28 121
f 121 28 27
f 121 39 101
f 121 74 39
f 27 63 121
f 121 63 67

