# https://github.com/mikedh/trimesh
v -0.05632382 -0.06667987 -0.03867748
v -0.06361690 -0.07728362 -0.04047648
v -0.06167560 -0.07578434 -0.03964825
v -0.06263815 -0.07476879 -0.03943828
v -0.06326095 -0.07463840 -0.04066975
v -0.06262580 -0.07463480 -0.04149150
v -0.06309300 -0.07419649 -0.04064205
v -0.06250475 -0.07437162 -0.03932880
v -0.06105232 -0.07516020 -0.03942191
v -0.06063015 -0.07540122 -0.04029615
v -0.06149030 -0.07563042 -0.04126530
v -0.05740435 -0.06598467 -0.03773543
v -0.05497058 -0.06756005 -0.03847758
v -0.05432940 -0.06798184 -0.04138933
v -0.05635330 -0.06668374 -0.04313183
v -0.05905660 -0.06493664 -0.04142210
v -0.06276970 -0.07345662 -0.04029313
v -0.06244573 -0.07374337 -0.04167738
v -0.06110547 -0.07484167 -0.04177993
v -0.05811560 -0.06551919 -0.04013258
v -0.05512200 -0.06746032 -0.04081943
v -0.05603882 -0.06686237 -0.04087948
v -0.05689530 -0.06631160 -0.04224738
v -0.06108873 -0.07352610 -0.04196538
v -0.06065977 -0.07432495 -0.03923515
v -0.06212125 -0.07354947 -0.03914235
f 17 12 16
f 16 15 18
f 14 15 23
f 23 15 16
f 14 13 10
f 10 11 14
f 2 11 10
f 16 18 5
f 5 18 2
f 5 8 17
f 19 11 2
f 19 15 14
f 14 11 19
f 16 12 20
f 20 23 16
f 20 22 23
f 4 5 2
f 8 5 4
f 12 17 26
f 17 8 26
f 9 10 13
f 9 26 8
f 8 4 9
f 7 17 16
f 16 5 7
f 7 5 17
f 2 18 6
f 6 19 2
f 18 19 6
f 24 18 15
f 15 19 24
f 24 19 18
f 12 13 1
f 13 22 1
f 1 20 12
f 22 20 1
f 21 13 14
f 21 22 13
f 14 23 21
f 23 22 21
f 25 13 12
f 25 9 13
f 12 26 25
f 26 9 25
f 2 10 3
f 10 9 3
f 3 4 2
f 3 9 4

