# https://github.com/mikedh/trimesh
v -0.13939053 0.01427332 0.12182174
v -0.13940888 -0.04109822 0.10284071
v -0.14181918 0.00022367 0.12331692
v -0.13941588 -0.05062922 0.07569099
v -0.13949938 -0.05020696 0.06364750
v -0.13947913 -0.04467164 0.04827087
v -0.13946322 -0.03587761 0.03712151
v -0.13951520 -0.02776829 0.03021370
v -0.13948465 -0.01007124 0.02302489
v -0.13939638 0.01678510 0.02537320
v -0.13951517 0.02342521 0.02770435
v -0.13949342 0.03835898 0.03919808
v -0.13950607 0.04128313 0.04435847
v -0.13960508 0.04721044 0.05274457
v -0.13946520 0.05108751 0.07022856
v -0.13947262 0.04962171 0.08497459
v -0.13949938 0.04545874 0.09669449
v -0.13939108 0.03618181 0.10887027
v -0.13942801 -0.00617011 0.12384179
v -0.13947263 -0.02726609 0.11636419
v -0.13953686 -0.04657339 0.09478319
v -0.13938406 0.02455036 0.11760586
v -0.14006043 -0.05166029 0.07789047
v -0.14037745 -0.05104096 0.06354873
v -0.14037873 -0.04721104 0.05181839
v -0.14037873 -0.04229361 0.04327142
v -0.14037875 -0.03584754 0.03580951
v -0.14037742 -0.02166795 0.02606298
v -0.14071450 -0.00983032 0.02226082
v -0.14071450 0.00000518 0.02132236
v -0.13993577 0.00615221 0.02195067
v -0.14037874 0.01453937 0.02350534
v -0.14037870 0.02797744 0.02961786
v -0.14037872 0.03573756 0.03570160
v -0.14081134 0.04350061 0.04479450
v -0.14037874 0.05038839 0.06098940
v -0.14037747 0.05196604 0.07320257
v -0.14037745 0.04988671 0.08784647
v -0.14037745 0.04376601 0.10131124
v -0.14010185 0.03401656 0.11249514
v -0.14037873 0.02383783 0.11935944
v -0.14037870 0.01468922 0.12303797
v -0.14003073 0.00445508 0.12486009
v -0.13991608 -0.00414228 0.12488357
v -0.14010188 -0.01694040 0.12235222
v -0.14037873 -0.02797434 0.11696939
v -0.14003848 -0.03555227 0.11095069
v -0.14037875 -0.04220292 0.10344332
v -0.14079916 -0.04849309 0.09217894
v -0.14115683 -0.05162974 0.07888134
v -0.14169176 -0.05109369 0.06671825
v -0.14185726 -0.04821964 0.05568700
v -0.14189485 -0.04406187 0.04705465
v -0.14202125 -0.03945346 0.04101223
v -0.14143320 -0.03283989 0.03322503
v -0.14185858 -0.02089608 0.02630536
v -0.14193605 0.00814710 0.02274667
v -0.14143320 0.01828118 0.02481773
v -0.14193837 0.02700509 0.02983212
v -0.14158112 0.03419816 0.03457213
v -0.14189904 0.04404156 0.04696259
v -0.14191242 0.04863373 0.05707241
v -0.14162898 0.05104951 0.06626047
v -0.14185725 0.05122991 0.07660144
v -0.14188724 0.04919891 0.08814957
v -0.14184313 0.04292291 0.10163526
v -0.14189485 0.03488786 0.11088387
v -0.14191243 0.02723124 0.11673052
v -0.14188918 0.01636425 0.12201784
v -0.14146738 0.00559535 0.12471092
v -0.14146741 -0.00423660 0.12484036
v -0.14188725 -0.01717844 0.12172832
v -0.14191243 -0.02819854 0.11610682
v -0.14169115 -0.03671534 0.10944322
v -0.14192389 -0.04254429 0.10196706
v -0.14195583 -0.05036764 0.08298726
v -0.14194990 -0.00690795 0.02265627
f 7 10 4
f 27 26 54
f 7 26 27
f 77 57 30
f 22 10 18
f 30 57 31
f 12 10 11
f 20 19 45
f 5 4 23
f 2 19 20
f 2 10 22
f 2 4 10
f 72 45 71
f 54 26 53
f 53 26 25
f 50 51 23
f 76 51 50
f 23 49 50
f 50 49 76
f 55 27 54
f 29 77 30
f 15 10 12
f 15 37 16
f 16 18 15
f 15 18 10
f 35 14 12
f 62 14 35
f 9 10 7
f 9 31 10
f 28 29 9
f 30 31 9
f 9 29 30
f 32 31 57
f 57 58 32
f 10 31 32
f 32 11 10
f 58 11 32
f 33 11 58
f 12 11 33
f 23 51 24
f 24 5 23
f 25 5 24
f 7 4 6
f 4 5 6
f 6 5 25
f 6 26 7
f 25 26 6
f 47 2 20
f 48 2 47
f 47 74 48
f 1 2 22
f 19 2 1
f 22 41 1
f 21 2 48
f 48 49 21
f 21 49 23
f 23 4 21
f 4 2 21
f 72 69 73
f 54 76 73
f 76 49 75
f 75 73 76
f 74 73 75
f 75 49 48
f 48 74 75
f 69 41 68
f 68 62 54
f 54 73 68
f 68 73 69
f 68 65 62
f 67 65 68
f 40 39 67
f 18 39 40
f 67 68 40
f 40 68 41
f 22 18 40
f 40 41 22
f 3 69 72
f 72 71 3
f 52 51 76
f 52 76 54
f 54 53 52
f 52 53 25
f 25 24 52
f 52 24 51
f 28 55 56
f 56 29 28
f 77 29 56
f 54 77 56
f 56 55 54
f 36 14 62
f 36 15 14
f 37 15 36
f 62 65 64
f 16 37 38
f 65 39 38
f 38 64 65
f 37 64 38
f 12 14 13
f 13 15 12
f 14 15 13
f 34 35 12
f 60 35 34
f 12 33 34
f 34 33 60
f 62 35 61
f 61 35 60
f 66 65 67
f 67 39 66
f 66 39 65
f 8 9 7
f 28 9 8
f 7 27 8
f 8 55 28
f 27 55 8
f 60 33 59
f 59 33 58
f 59 58 57
f 59 61 60
f 62 61 59
f 54 62 59
f 59 77 54
f 57 77 59
f 42 41 69
f 42 1 41
f 74 47 46
f 46 73 74
f 46 47 20
f 20 45 46
f 46 45 72
f 72 73 46
f 37 36 63
f 63 64 37
f 63 36 62
f 62 64 63
f 16 38 17
f 17 38 39
f 17 18 16
f 17 39 18
f 70 42 69
f 69 3 70
f 70 3 71
f 42 70 43
f 19 1 43
f 1 42 43
f 43 70 71
f 19 43 44
f 44 43 71
f 44 45 19
f 44 71 45

