# https://github.com/mikedh/trimesh
v -0.01472782 -0.05687755 -0.03997282
v 0.01479972 -0.05687755 -0.03997282
v -0.01472782 0.05687650 -0.03997282
v 0.01479973 0.05687650 -0.03997282
v -0.01472782 0.05658755 -0.03621418
v 0.01479973 0.05659588 -0.03615140
v 0.01479972 0.04047705 -0.01271455
v -0.01472782 0.04038973 -0.01265660
v -0.01472782 0.02214515 0.00874765
v 0.01479972 0.02214515 0.00874765
v -0.01472783 -0.02214620 0.00874765
v 0.01479972 -0.02214621 0.00874765
v -0.01472783 -0.04284555 -0.01595645
v 0.01479972 -0.04380452 -0.01751890
v -0.01472782 -0.05654782 -0.03618720
v 0.01479972 -0.05664692 -0.03616002
f 11 13 12
f 14 12 13
f 7 9 10
f 13 15 16
f 16 14 13
f 16 1 2
f 16 15 1
f 4 3 6
f 9 7 8
f 7 6 8
f 5 6 3
f 5 8 6
f 2 1 3
f 4 2 3
f 9 12 10
f 11 12 9
f 6 2 4
f 6 16 2
f 10 12 6
f 12 14 6
f 6 7 10
f 14 16 6
f 5 3 1
f 5 13 11
f 11 9 5
f 1 15 5
f 5 15 13
f 9 8 5

