# https://github.com/mikedh/trimesh
v 0.15096269 -0.04525804 0.08941051
v 0.14835474 0.02305696 0.11491134
v 0.15089882 -0.04858049 0.07153251
v 0.15097312 -0.04450608 0.05489313
v 0.15088227 -0.03868494 0.04355742
v 0.15089840 -0.02249352 0.03042590
v 0.15090930 -0.00253262 0.02491880
v 0.15090710 0.01273745 0.02661274
v 0.15096795 0.02352811 0.03132364
v 0.15091315 0.04576854 0.08716049
v 0.15095765 0.03752264 0.10396319
v 0.15083970 0.02581691 0.11465466
v 0.15090395 0.00521459 0.12162329
v 0.15087937 -0.00997662 0.12087079
v 0.15094237 -0.02565021 0.11413374
v 0.15090395 -0.03924656 0.10197307
v 0.15096482 0.04818901 0.07335969
v 0.15096483 0.04476181 0.05544558
v 0.15096690 0.03618597 0.04160462
v 0.14996395 -0.04928199 0.07102237
v 0.14996397 -0.04796156 0.06173661
v 0.14996400 -0.04490766 0.05286850
v 0.14998692 -0.03895529 0.04283377
v 0.15022515 -0.03052579 0.03460535
v 0.14996398 -0.02267349 0.02947735
v 0.15039108 -0.01271625 0.02569405
v 0.14961827 -0.00469147 0.02410731
v 0.15014345 0.00689338 0.02438735
v 0.15014345 0.02039266 0.02831001
v 0.15014347 0.03224001 0.03587699
v 0.15022518 0.04009864 0.04464174
v 0.14996398 0.04484724 0.05272923
v 0.15042043 0.04729051 0.05983883
v 0.14961827 0.04894174 0.06626055
v 0.14950322 0.04940904 0.07492304
v 0.15039108 0.04858289 0.08149884
v 0.15025223 0.04403409 0.09561544
v 0.14996400 0.03733724 0.10554391
v 0.14987664 0.03087831 0.11179081
v 0.14999428 0.01630168 0.11998926
v 0.14996397 0.00476719 0.12239886
v 0.14996397 -0.00461214 0.12241336
v 0.15031449 -0.01806769 0.11911514
v 0.15018744 -0.02863926 0.11352656
v 0.14996402 -0.03723386 0.10565953
v 0.14996399 -0.04268626 0.09802779
v 0.14996392 -0.04659589 0.08950191
v 0.15032112 -0.04878541 0.07983909
v 0.14841615 -0.04856338 0.06812994
v 0.14836825 -0.04562359 0.05620368
v 0.14867527 -0.04111371 0.04649151
v 0.14840927 -0.03166191 0.03611322
v 0.14838462 -0.02183610 0.02974664
v 0.14861553 -0.01231607 0.02588518
v 0.14842980 -0.00004195 0.02450490
v 0.14834636 0.00816719 0.02537647
v 0.14867528 0.01635491 0.02701847
v 0.14843828 0.02878971 0.03380110
v 0.14840153 0.03731279 0.04194245
v 0.14837291 0.04302881 0.05039804
v 0.14864222 0.04683446 0.05883294
v 0.14835303 0.04766966 0.08293204
v 0.14881722 0.04599032 0.09093716
v 0.14840152 0.03926544 0.10216191
v 0.14845548 0.03152599 0.11065246
v 0.14884362 0.02314092 0.11669621
v 0.14861444 0.00996144 0.12124344
v 0.14842980 0.00004524 0.12208244
v 0.14834635 -0.00816400 0.12121091
v 0.14881721 -0.01543359 0.12006986
v 0.14843827 -0.02878654 0.11278626
v 0.14838197 -0.03901376 0.10267094
v 0.14840514 -0.04598951 0.08993609
v 0.14891542 -0.04865434 0.08075139
v 0.14833813 0.04837402 0.07134786
f 56 69 75
f 69 56 50
f 60 56 75
f 37 64 38
f 63 64 37
f 68 69 42
f 39 38 65
f 65 38 64
f 4 3 21
f 49 50 21
f 42 69 70
f 75 35 34
f 56 58 57
f 59 60 31
f 31 30 59
f 59 30 58
f 56 60 59
f 59 58 56
f 4 6 7
f 5 6 4
f 53 50 56
f 4 7 9
f 9 7 8
f 15 44 16
f 62 35 75
f 64 63 62
f 41 68 42
f 67 68 41
f 41 40 67
f 39 65 66
f 67 40 66
f 49 21 20
f 20 21 3
f 1 3 4
f 1 15 16
f 69 50 72
f 61 60 75
f 75 34 61
f 8 7 28
f 56 57 28
f 22 5 4
f 4 21 22
f 22 21 50
f 50 53 52
f 30 9 29
f 58 30 29
f 29 57 58
f 29 9 8
f 8 28 29
f 29 28 57
f 40 41 13
f 13 41 42
f 42 70 43
f 43 70 44
f 44 15 43
f 67 66 2
f 2 66 65
f 2 68 67
f 69 68 2
f 2 65 64
f 64 62 2
f 75 69 2
f 2 62 75
f 3 1 48
f 48 1 47
f 48 20 3
f 16 44 45
f 44 70 71
f 71 45 44
f 72 45 71
f 71 70 69
f 69 72 71
f 73 50 49
f 73 72 50
f 17 34 35
f 32 18 31
f 31 60 32
f 60 61 32
f 55 53 56
f 55 54 53
f 56 28 55
f 26 7 6
f 51 22 50
f 50 52 51
f 6 5 24
f 40 13 12
f 39 66 12
f 12 66 40
f 15 13 14
f 14 43 15
f 14 13 42
f 42 43 14
f 46 45 72
f 46 73 47
f 72 73 46
f 16 45 46
f 46 1 16
f 47 1 46
f 74 48 47
f 47 73 74
f 74 73 49
f 49 20 74
f 20 48 74
f 34 17 33
f 33 17 18
f 18 32 33
f 33 61 34
f 33 32 61
f 36 17 35
f 10 17 36
f 35 62 36
f 36 62 63
f 37 10 36
f 36 63 37
f 11 13 15
f 15 1 11
f 11 17 10
f 11 1 4
f 4 17 11
f 11 12 13
f 11 10 37
f 37 38 11
f 11 38 39
f 39 12 11
f 18 17 19
f 31 18 19
f 4 9 19
f 19 17 4
f 19 30 31
f 19 9 30
f 27 28 7
f 27 55 28
f 7 26 27
f 54 55 27
f 27 26 54
f 53 54 25
f 54 26 25
f 25 26 6
f 6 24 25
f 25 52 53
f 25 24 52
f 5 22 23
f 22 51 23
f 23 24 5
f 23 51 52
f 52 24 23

