# https://github.com/mikedh/trimesh
v 0.16158676 0.17264239 0.13155204
v 0.15864988 0.17283901 0.13283879
v 0.15773194 0.17245604 0.13054934
v 0.15723786 0.17642906 0.12923441
v 0.16039260 0.17705989 0.12852766
v 0.16001013 0.17429558 0.12781611
v 0.16562326 0.17485749 0.13013994
v 0.16075871 0.17260759 0.12931641
v 0.16417503 0.17663892 0.12839731
v 0.16573771 0.17450209 0.12953241
v 0.16575300 0.17636254 0.12944031
v 0.16571646 0.17404058 0.12822937
v 0.16549684 0.17618559 0.12792514
v 0.16608639 0.17555611 0.12916001
v 0.16461221 0.17444303 0.12716756
v 0.16507238 0.17558079 0.12737824
v 0.15784116 0.17764994 0.13094061
v 0.16447866 0.17361042 0.12833399
v 0.16500628 0.17388326 0.12975321
v 0.16492336 0.17630596 0.12764792
v 0.15707936 0.17431606 0.12918306
v 0.16546093 0.17383874 0.12865104
v 0.16517514 0.17352802 0.12879024
v 0.16212388 0.17579849 0.13275604
v 0.15914598 0.17454987 0.13397076
v 0.15808546 0.17648461 0.13158291
v 0.15861345 0.17467438 0.13283004
v 0.15879163 0.17726349 0.13310584
v 0.16513616 0.17650833 0.12923131
v 0.16125864 0.17773526 0.13072136
v 0.15804653 0.17365359 0.13150707
v 0.15759281 0.17578992 0.13042012
f 25 1 24
f 2 1 25
f 21 17 4
f 30 20 5
f 5 17 30
f 5 4 17
f 7 24 1
f 14 11 7
f 7 11 24
f 25 24 28
f 30 17 28
f 28 11 30
f 24 11 28
f 27 2 25
f 25 28 27
f 13 11 14
f 9 20 30
f 16 5 20
f 20 13 16
f 14 7 10
f 26 28 17
f 26 27 28
f 2 27 31
f 27 26 31
f 20 9 29
f 29 13 20
f 11 13 29
f 30 11 29
f 29 9 30
f 15 8 6
f 21 4 6
f 4 5 6
f 6 16 15
f 5 16 6
f 3 31 21
f 2 31 3
f 21 6 3
f 3 6 8
f 1 2 3
f 3 8 1
f 21 31 32
f 32 31 26
f 32 17 21
f 32 26 17
f 19 7 1
f 19 10 7
f 18 8 15
f 12 18 15
f 15 16 12
f 12 13 14
f 12 16 13
f 14 10 12
f 10 22 12
f 23 12 22
f 18 12 23
f 23 19 1
f 1 8 23
f 8 18 23
f 23 22 10
f 10 19 23

