# https://github.com/mikedh/trimesh
v 0.03841350 0.06706720 0.06848072
v 0.03864010 0.06792097 0.06662203
v 0.03762948 0.06774140 0.06612755
v 0.03906850 0.06811604 0.06596989
v 0.03927360 0.06732047 0.06653291
v 0.03956570 0.06683590 0.06574196
v 0.03867755 0.06601932 0.06613570
v 0.03893625 0.06583257 0.06566334
v 0.03723788 0.06622220 0.06547224
v 0.03885790 0.06615667 0.06648024
v 0.03754218 0.06831857 0.06533292
v 0.04001298 0.06748615 0.04813023
v 0.03977820 0.06789899 0.04809157
v 0.04083538 0.06855192 0.04921504
v 0.03824158 0.06854185 0.04782046
v 0.03791880 0.06881435 0.04817612
v 0.03893081 0.06987795 0.04925683
v 0.03642925 0.06911955 0.04950626
v 0.03668906 0.06800204 0.04828881
v 0.03673346 0.06660740 0.04809085
v 0.03643995 0.06500404 0.04952699
v 0.03759130 0.06454495 0.04891564
v 0.03947883 0.06448449 0.04916096
v 0.03877918 0.06551122 0.04804468
v 0.03924783 0.06572570 0.04808408
v 0.04035446 0.06632747 0.04833417
v 0.03560780 0.06727015 0.04957271
v 0.04123588 0.06717027 0.04957033
v 0.04077663 0.06546052 0.04941595
v 0.03703340 0.06621870 0.04813300
v 0.03931938 0.06962405 0.04964309
v 0.03886038 0.06444072 0.04964970
v 0.03695133 0.06689090 0.06443401
v 0.03770535 0.06576775 0.06465897
v 0.03892678 0.06564147 0.06476049
v 0.03992883 0.06684000 0.06492488
v 0.03921976 0.06832667 0.06516118
v 0.03808685 0.06556685 0.06363377
v 0.03938668 0.06594897 0.06376608
v 0.03992228 0.06736910 0.06394279
v 0.03887578 0.06846717 0.06413608
f 27 11 18
f 31 37 14
f 3 9 1
f 1 11 3
f 28 14 40
f 40 14 37
f 2 11 1
f 11 37 41
f 27 20 21
f 21 9 27
f 24 20 15
f 15 25 24
f 31 14 17
f 15 16 17
f 17 16 18
f 17 18 11
f 11 41 17
f 17 37 31
f 17 41 37
f 12 25 15
f 1 9 7
f 9 21 34
f 34 7 9
f 8 7 34
f 9 3 33
f 33 3 11
f 27 9 33
f 33 11 27
f 22 21 20
f 22 34 21
f 23 24 25
f 32 22 23
f 23 22 24
f 18 16 19
f 19 20 27
f 27 18 19
f 15 20 19
f 19 16 15
f 13 12 15
f 14 12 13
f 15 17 13
f 13 17 14
f 25 12 26
f 26 23 25
f 29 23 26
f 28 29 26
f 26 14 28
f 26 12 14
f 8 34 35
f 32 23 35
f 39 8 35
f 35 29 39
f 35 23 29
f 1 5 4
f 4 5 37
f 4 2 1
f 4 37 11
f 11 2 4
f 36 40 37
f 37 5 36
f 36 8 39
f 36 5 1
f 39 29 36
f 28 40 36
f 36 29 28
f 20 24 30
f 30 22 20
f 24 22 30
f 32 35 38
f 38 35 34
f 38 22 32
f 34 22 38
f 8 36 10
f 1 7 10
f 10 7 8
f 6 36 1
f 1 10 6
f 6 10 36

