# https://github.com/mikedh/trimesh
v -0.20359252 0.07184449 0.06848070
v -0.20381916 0.07099069 0.06662199
v -0.20280850 0.07117032 0.06612753
v -0.20424755 0.07079564 0.06596987
v -0.20445262 0.07159122 0.06653287
v -0.20474477 0.07207574 0.06574195
v -0.20411525 0.07307916 0.06566331
v -0.20316070 0.07279317 0.06599313
v -0.20292140 0.07280657 0.06541094
v -0.20208312 0.07164569 0.06545621
v -0.20403686 0.07275499 0.06648021
v -0.20601230 0.07041101 0.04955485
v -0.20513251 0.07096987 0.04811303
v -0.20469051 0.06921144 0.04953897
v -0.20429175 0.06990474 0.04837039
v -0.20264059 0.06917014 0.04917812
v -0.20320194 0.07029176 0.04809090
v -0.20279773 0.07054952 0.04806042
v -0.20156990 0.07130694 0.04834327
v -0.20203484 0.07226571 0.04810283
v -0.20135320 0.07341052 0.04911273
v -0.20445683 0.07330527 0.04808155
v -0.20277036 0.07436674 0.04891560
v -0.20395825 0.07340049 0.04804467
v -0.20553351 0.07258419 0.04833417
v -0.20519205 0.07142554 0.04813022
v -0.20451887 0.07452464 0.04957100
v -0.20077479 0.07184594 0.04953591
v -0.20150609 0.06994907 0.04958316
v -0.20641151 0.07185774 0.04934627
v -0.20603006 0.07333159 0.04950717
v -0.20220395 0.07269579 0.04813613
v -0.20200122 0.07409734 0.04958527
v -0.20213035 0.07202084 0.06443401
v -0.20288439 0.07314397 0.06465895
v -0.20409225 0.07327189 0.06475193
v -0.20510350 0.07208249 0.06491842
v -0.20439876 0.07058502 0.06516116
v -0.20310872 0.07045604 0.06529303
v -0.20217124 0.07246757 0.06243821
v -0.20320066 0.07331534 0.06362389
v -0.20456250 0.07296224 0.06376631
v -0.20510133 0.07154261 0.06394276
v -0.20405479 0.07044454 0.06413606
v -0.20273662 0.07062384 0.06430548
f 28 10 29
f 29 19 28
f 16 19 29
f 25 13 30
f 28 19 21
f 35 21 33
f 30 13 12
f 12 14 38
f 38 14 44
f 3 10 1
f 1 37 5
f 5 37 38
f 6 37 1
f 24 13 22
f 22 27 24
f 18 19 16
f 16 17 18
f 18 13 24
f 18 17 13
f 16 14 15
f 15 17 16
f 13 17 15
f 15 12 13
f 14 12 15
f 33 21 23
f 24 27 23
f 23 32 24
f 21 32 23
f 1 10 8
f 21 35 40
f 38 37 43
f 43 12 38
f 43 37 30
f 30 12 43
f 10 3 39
f 16 29 39
f 39 14 16
f 39 44 14
f 38 44 39
f 39 3 1
f 1 2 39
f 31 25 30
f 30 37 31
f 31 22 25
f 27 22 31
f 31 37 42
f 42 36 31
f 31 36 27
f 13 25 26
f 26 22 13
f 25 22 26
f 20 21 19
f 20 32 21
f 19 18 20
f 20 18 24
f 24 32 20
f 41 23 27
f 41 36 35
f 27 36 41
f 41 35 33
f 33 23 41
f 10 35 9
f 9 8 10
f 35 8 9
f 21 40 34
f 34 10 28
f 28 21 34
f 34 35 10
f 34 40 35
f 4 2 1
f 1 5 4
f 4 5 38
f 38 39 4
f 4 39 2
f 10 39 45
f 45 29 10
f 45 39 29
f 7 8 35
f 35 36 7
f 42 37 7
f 7 36 42
f 1 8 11
f 8 7 11
f 11 6 1
f 37 6 11
f 11 7 37

