# https://github.com/mikedh/trimesh
v 0.17329440 0.19298759 -0.04450576
v 0.17366284 0.19279832 -0.04509849
v 0.17408922 0.19449326 -0.04481418
v 0.17270283 0.19551369 -0.04580438
v 0.17290430 0.19231581 -0.04565484
v 0.17201247 0.19375038 -0.04453889
v 0.17214384 0.19272864 -0.04484859
v 0.17225248 0.19244967 -0.04593508
v 0.17371302 0.19273956 -0.04645478
v 0.17120279 0.19364062 -0.04559129
v 0.17103522 0.19413889 -0.04607654
v 0.17183214 0.19530101 -0.04650646
v 0.17337530 0.19514973 -0.04524893
v 0.17255240 0.19419738 -0.04419759
v 0.17244445 0.19520681 -0.04531964
v 0.17157892 0.19428709 -0.04471351
v 0.17240552 0.19489247 -0.04480639
v 0.17395815 0.19513916 -0.04585064
v 0.17418838 0.19431596 -0.04566373
v 0.17427005 0.19302886 -0.04561991
v 0.17147957 0.19444748 -0.04522689
v 0.17422917 0.19327399 -0.04610006
v 0.17301142 0.19541307 -0.04651171
v 0.17398720 0.19412521 -0.04701631
v 0.17428490 0.19372001 -0.04531899
v 0.17383015 0.19399681 -0.04746971
v 0.17329030 0.19348551 -0.04764273
v 0.17322007 0.19459639 -0.04753543
v 0.17171577 0.19249336 -0.04679328
v 0.17303264 0.19528479 -0.04706599
v 0.17173082 0.19298151 -0.04522178
v 0.17408432 0.19447667 -0.04649729
v 0.17265090 0.19284456 -0.04742986
v 0.17174617 0.19283041 -0.04707878
v 0.17126050 0.19413483 -0.04685273
v 0.17087514 0.19366244 -0.04648149
v 0.17312595 0.19262561 -0.04729598
v 0.17173355 0.19508804 -0.04590224
v 0.17330495 0.19240638 -0.04526321
v 0.17324455 0.19253616 -0.04680166
v 0.17183513 0.19535694 -0.04695103
v 0.17305762 0.19436693 -0.04756881
v 0.17199128 0.19491769 -0.04717038
v 0.17157509 0.19270746 -0.04622396
f 34 29 36
f 13 18 4
f 27 26 37
f 37 26 9
f 18 32 30
f 30 32 26
f 17 13 4
f 14 13 17
f 17 16 14
f 17 38 16
f 18 13 3
f 3 13 14
f 35 34 36
f 35 43 34
f 36 41 35
f 41 43 35
f 29 37 40
f 40 37 9
f 27 37 33
f 34 43 33
f 29 34 33
f 33 37 29
f 31 16 10
f 31 10 36
f 4 41 12
f 12 38 4
f 36 10 11
f 10 16 11
f 11 41 36
f 11 12 41
f 38 12 11
f 25 32 19
f 19 32 18
f 19 3 25
f 18 3 19
f 25 20 22
f 22 32 25
f 9 26 22
f 22 20 9
f 23 41 4
f 23 30 41
f 4 18 23
f 18 30 23
f 4 38 15
f 15 17 4
f 38 17 15
f 9 20 39
f 39 40 9
f 14 16 6
f 36 29 44
f 44 31 36
f 16 38 21
f 21 11 16
f 38 11 21
f 26 32 24
f 24 22 26
f 32 22 24
f 28 30 26
f 28 26 27
f 41 30 28
f 28 43 41
f 29 40 5
f 40 39 5
f 2 39 20
f 7 5 39
f 16 31 7
f 7 6 16
f 14 6 7
f 31 44 7
f 7 44 29
f 42 28 27
f 43 28 42
f 27 33 42
f 42 33 43
f 39 2 1
f 1 7 39
f 14 7 1
f 1 3 14
f 25 3 1
f 1 20 25
f 1 2 20
f 29 5 8
f 8 7 29
f 5 7 8

