# https://github.com/mikedh/trimesh
v 0.14352690 -0.07041766 0.06249008
v 0.14163245 -0.06869646 0.06221925
v 0.14606827 -0.07002796 0.06223104
v 0.14279552 -0.06389766 0.06593536
v 0.14372382 -0.06348459 0.06233539
v 0.14129384 -0.06576368 0.06227817
v 0.14100765 -0.06700651 0.06598447
v 0.14263472 -0.06972614 0.06604814
v 0.14543294 -0.07034518 0.06597901
v 0.14801757 -0.06754089 0.06592956
v 0.14804685 -0.06685146 0.06228098
v 0.14721424 -0.06488049 0.06604814
v 0.14642262 -0.06413654 0.06221948
v 0.14538599 -0.06364969 0.06599942
v 0.14575410 -0.06614794 0.04440431
v 0.14545924 -0.06822258 0.04464343
v 0.14412682 -0.06832146 0.04440189
v 0.14608580 -0.06686369 0.04473858
v 0.14542010 -0.06558976 0.04479746
v 0.14304791 -0.06565898 0.04475110
v 0.14300229 -0.06744313 0.04505757
v 0.14411772 -0.06896404 0.04494683
v 0.14631799 -0.06810481 0.04499875
v 0.14625079 -0.06574551 0.04515775
v 0.14438118 -0.06486261 0.04526380
v 0.14273307 -0.06588556 0.04536714
v 0.14270935 -0.06798793 0.04548960
v 0.14583592 -0.06851896 0.04568140
v 0.14658224 -0.06708414 0.04578373
v 0.14568574 -0.06517009 0.04585217
v 0.14341110 -0.06515091 0.04603483
v 0.14304100 -0.06831864 0.04620988
v 0.14454319 -0.06901956 0.04627557
v 0.14248137 -0.06689436 0.04612491
v 0.14389112 -0.06531304 0.06605499
v 0.14626524 -0.06721559 0.06605680
v 0.14534187 -0.06839599 0.06606138
f 1 9 8
f 11 24 12
f 1 8 2
f 2 8 7
f 4 6 7
f 37 8 9
f 11 12 10
f 13 12 24
f 1 32 22
f 22 33 1
f 3 10 9
f 3 9 1
f 1 33 3
f 5 13 25
f 7 6 34
f 5 4 14
f 14 13 5
f 12 13 14
f 36 10 12
f 36 37 9
f 9 10 36
f 10 3 23
f 11 10 23
f 30 13 24
f 24 25 30
f 30 25 13
f 31 4 5
f 5 25 31
f 24 15 19
f 19 25 24
f 15 25 19
f 17 22 27
f 27 22 32
f 27 32 1
f 1 2 27
f 27 2 7
f 7 34 27
f 12 14 35
f 7 8 35
f 35 4 7
f 35 14 4
f 8 37 35
f 35 36 12
f 37 36 35
f 28 3 33
f 28 23 3
f 33 22 28
f 22 23 28
f 18 15 24
f 24 23 18
f 18 23 15
f 16 22 17
f 16 23 22
f 17 15 16
f 15 23 16
f 29 23 24
f 29 24 11
f 11 23 29
f 6 4 26
f 4 31 26
f 26 34 6
f 26 27 34
f 20 31 25
f 20 26 31
f 20 25 15
f 20 15 17
f 27 26 20
f 17 27 21
f 21 20 17
f 27 20 21

