# https://github.com/mikedh/trimesh
v 0.16168236 0.19862709 0.11753686
v 0.16492296 0.19625514 0.12579641
v 0.16219586 0.17311479 0.12195314
v 0.16341221 0.17369083 0.12244169
v 0.16473250 0.17572944 0.12602704
v 0.15706759 0.19466931 0.10889972
v 0.15608021 0.19158527 0.10729334
v 0.15698013 0.19549251 0.11088071
v 0.16135208 0.17268646 0.11806746
v 0.15977391 0.17296887 0.11695609
v 0.16221493 0.19709794 0.12381694
v 0.15971694 0.19836084 0.11764671
v 0.15656751 0.17760744 0.10932411
v 0.15804061 0.17733269 0.10906067
v 0.15879553 0.17408369 0.11253046
v 0.16635036 0.19119414 0.12941801
v 0.16228301 0.17432394 0.12372482
v 0.16479944 0.18089514 0.12972777
v 0.15881418 0.17436239 0.11513544
v 0.16577018 0.17788052 0.12781371
v 0.15732406 0.19137956 0.10720464
v 0.15632120 0.18830169 0.10613766
v 0.16330895 0.19674564 0.12581816
v 0.16291826 0.19883864 0.12142814
v 0.15817035 0.19777664 0.11299909
v 0.15883159 0.19672483 0.11106761
v 0.16477324 0.19419674 0.12836829
v 0.15614791 0.18053822 0.10716219
v 0.15693684 0.18377824 0.10628386
v 0.15812741 0.17429986 0.11318707
v 0.15609320 0.19108637 0.10852419
v 0.16107555 0.17328346 0.11626606
v 0.15579661 0.18447796 0.10618086
v 0.16476948 0.18823701 0.12995644
v 0.16445336 0.17668966 0.12743681
v 0.16573199 0.18316759 0.13070884
v 0.16136644 0.19935286 0.12005429
v 0.16005136 0.19917014 0.11564134
v 0.16680391 0.18512184 0.13010694
v 0.15533406 0.18697037 0.10661866
v 0.16599141 0.18898334 0.13059026
v 0.15696596 0.17810107 0.11046996
f 39 36 20
f 21 1 29
f 17 34 11
f 12 11 37
f 38 12 37
f 25 12 38
f 21 29 22
f 40 7 22
f 22 7 21
f 14 28 29
f 39 1 2
f 11 34 23
f 23 34 27
f 27 2 23
f 37 11 23
f 27 34 41
f 41 36 39
f 41 34 36
f 10 17 19
f 8 12 25
f 40 19 8
f 19 17 8
f 8 17 11
f 11 12 8
f 21 7 6
f 6 8 25
f 7 8 6
f 26 1 21
f 26 38 1
f 21 6 26
f 25 38 26
f 26 6 25
f 40 22 33
f 33 22 29
f 33 28 40
f 29 28 33
f 42 19 40
f 39 20 32
f 32 14 29
f 20 4 32
f 32 1 39
f 32 29 1
f 32 4 9
f 24 2 1
f 24 38 37
f 1 38 24
f 37 23 24
f 24 23 2
f 16 2 27
f 27 41 16
f 39 2 16
f 16 41 39
f 17 35 18
f 36 34 18
f 34 17 18
f 18 20 36
f 18 35 20
f 31 7 40
f 40 8 31
f 31 8 7
f 30 10 19
f 20 35 5
f 5 4 20
f 14 32 15
f 10 30 15
f 9 10 15
f 15 32 9
f 13 15 30
f 19 42 13
f 13 30 19
f 40 28 13
f 13 42 40
f 28 14 13
f 14 15 13
f 4 5 3
f 9 4 3
f 3 35 17
f 3 5 35
f 3 10 9
f 17 10 3

