# https://github.com/mikedh/trimesh
v 0.03857807 0.11624634 -0.04038849
v 0.03934182 0.11447997 -0.04302380
v 0.05299874 0.10562554 -0.05180927
v 0.05152942 0.10310775 -0.05043635
v 0.04918292 0.11022069 -0.05526802
v 0.05497384 0.10907878 -0.05747269
v 0.05520012 0.13792305 -0.04366435
v 0.04289381 0.10798579 -0.03716800
v 0.04219189 0.11033577 -0.03412790
v 0.04036984 0.11252112 -0.03728369
v 0.05722554 0.11907915 -0.02098442
v 0.04816771 0.10663302 -0.02943192
v 0.04670806 0.11361678 -0.02588305
v 0.04278974 0.11350722 -0.03009107
v 0.04169382 0.10983424 -0.04408212
v 0.04483907 0.10984447 -0.05096840
v 0.04661646 0.10430385 -0.04541012
v 0.03860506 0.12284957 -0.03487977
v 0.03850909 0.12739279 -0.03654897
v 0.03743414 0.12250140 -0.03933137
v 0.04275317 0.12343062 -0.05244454
v 0.05044084 0.12134734 -0.05801622
v 0.04771864 0.11985495 -0.05672990
v 0.04169744 0.12524917 -0.03020567
v 0.04500134 0.12575464 -0.02721165
v 0.04765034 0.13058742 -0.02812637
v 0.05563847 0.13176554 -0.02603009
v 0.05208102 0.13432325 -0.02986087
v 0.04008337 0.12721920 -0.04766637
v 0.03829484 0.13025622 -0.04087405
v 0.04213157 0.13171090 -0.04655277
v 0.06995694 0.13499866 -0.04355597
v 0.06871094 0.13286890 -0.05052395
v 0.06454869 0.13669387 -0.04591987
v 0.05651646 0.13793659 -0.03712102
v 0.05171714 0.13767805 -0.04220802
v 0.04424666 0.10660715 -0.04292845
v 0.03901514 0.11522713 -0.03854784
v 0.05677577 0.12175093 -0.05955969
v 0.05523234 0.11920652 -0.05949457
v 0.06166304 0.13442907 -0.05177232
v 0.05634364 0.13380722 -0.05286004
v 0.05762932 0.13688839 -0.04792334
v 0.04467854 0.11640537 -0.05405945
v 0.04244689 0.13061085 -0.03281820
v 0.04554641 0.10617300 -0.03377582
v 0.05091476 0.10202867 -0.03322049
v 0.05105132 0.13756622 -0.03993069
v 0.05585334 0.11055298 -0.02363279
v 0.05303566 0.11149772 -0.02328719
v 0.05480736 0.11456487 -0.02178722
v 0.06258204 0.12836774 -0.02387745
v 0.03923387 0.11728052 -0.03453307
v 0.04037747 0.13136578 -0.03707395
v 0.06026391 0.12434813 -0.02181169
v 0.04139287 0.13321625 -0.04063070
v 0.04750912 0.13567247 -0.04570925
v 0.05727374 0.12687112 -0.02278727
v 0.05210349 0.12557207 -0.02334869
v 0.03805589 0.12224477 -0.04465619
v 0.03988814 0.11839267 -0.04835817
v 0.04106731 0.11288785 -0.04705242
v 0.06688404 0.13636504 -0.03983939
v 0.05976994 0.12468965 -0.05907707
v 0.04763707 0.10280932 -0.03957177
v 0.04768604 0.10279277 -0.04132197
v 0.05024011 0.10084487 -0.04151677
v 0.05967229 0.11718437 -0.02080052
v 0.05812226 0.11451649 -0.02171804
v 0.05254249 0.11792710 -0.02198070
v 0.04709916 0.12063144 -0.02461917
v 0.06223966 0.12743590 -0.02325992
v 0.06203921 0.13213037 -0.02640667
v 0.05863047 0.13600704 -0.03114622
v 0.06114699 0.13785649 -0.03728142
v 0.04883907 0.13266077 -0.05161490
v 0.04738594 0.12916310 -0.05355812
v 0.06037327 0.13795155 -0.04383139
v 0.06711604 0.13641394 -0.04135942
v 0.06305562 0.12300057 -0.02261395
v 0.05236907 0.13667379 -0.04731765
v 0.04589079 0.13418097 -0.03375452
v 0.04191829 0.11973820 -0.02933042
v 0.06494644 0.13599638 -0.03331454
v 0.06805409 0.13170399 -0.02862909
v 0.06974772 0.13466434 -0.03533307
v 0.06697715 0.12983889 -0.05247236
v 0.06182687 0.13146064 -0.05521259
v 0.05490487 0.12799510 -0.05727852
v 0.05326642 0.10612495 -0.02610674
v 0.06554572 0.12738110 -0.05708915
v 0.06178674 0.12084559 -0.06004089
v 0.05984974 0.12330949 -0.02149255
v 0.06216479 0.12151332 -0.02170112
v 0.04682562 0.13634307 -0.03959167
v 0.05206447 0.13771572 -0.03841862
v 0.05285247 0.11585013 -0.05882139
v 0.05781286 0.12004932 -0.02084194
v 0.05816857 0.11456132 -0.05462295
v 0.05067949 0.12536957 -0.05715482
v 0.05238854 0.11071927 -0.02386347
v 0.05522574 0.11562612 -0.02153324
v 0.05236157 0.13685155 -0.03400429
v 0.06555229 0.12736507 -0.02382617
v 0.05849729 0.11514897 -0.06007388
v 0.05342976 0.10636940 -0.02813317
f 67 106 47
f 47 106 90
f 53 18 20
f 92 99 105
f 20 18 19
f 67 4 3
f 3 99 67
f 105 99 3
f 105 3 6
f 6 3 4
f 60 29 61
f 86 85 32
f 16 4 17
f 17 15 16
f 17 4 67
f 68 51 69
f 13 90 101
f 12 47 90
f 12 90 13
f 28 26 27
f 27 26 59
f 85 73 104
f 87 92 91
f 99 92 87
f 32 87 33
f 33 87 91
f 32 33 34
f 34 33 41
f 5 4 16
f 5 6 4
f 16 15 62
f 62 61 16
f 21 61 29
f 84 63 75
f 86 63 84
f 84 73 85
f 85 86 84
f 38 53 20
f 67 47 65
f 37 8 15
f 15 17 37
f 37 65 8
f 49 69 51
f 90 106 49
f 68 69 49
f 49 106 67
f 70 71 13
f 70 98 59
f 59 71 70
f 59 26 25
f 25 71 59
f 26 45 25
f 13 71 83
f 18 53 83
f 47 12 46
f 46 65 47
f 8 65 46
f 9 8 46
f 46 12 9
f 32 85 80
f 85 104 80
f 80 87 32
f 99 87 80
f 67 99 80
f 80 49 67
f 68 49 80
f 80 94 68
f 80 104 94
f 19 45 54
f 44 5 16
f 23 5 44
f 16 61 44
f 44 21 23
f 61 21 44
f 97 5 23
f 6 5 97
f 105 6 97
f 23 22 97
f 97 40 105
f 22 40 97
f 56 31 30
f 30 31 29
f 30 29 60
f 30 54 56
f 19 54 30
f 30 60 20
f 20 19 30
f 57 31 56
f 76 31 57
f 100 22 23
f 23 21 100
f 75 63 79
f 32 34 79
f 79 86 32
f 79 63 86
f 43 34 41
f 74 84 75
f 73 84 74
f 74 103 28
f 28 27 74
f 74 27 73
f 15 8 10
f 10 8 9
f 9 53 10
f 53 38 10
f 2 62 15
f 15 10 2
f 2 10 38
f 60 61 2
f 61 62 2
f 66 37 17
f 65 37 66
f 66 17 67
f 67 65 66
f 50 49 51
f 51 70 50
f 50 101 90
f 90 49 50
f 13 101 50
f 50 70 13
f 102 70 51
f 102 51 68
f 24 45 19
f 24 25 45
f 24 19 18
f 18 83 24
f 71 25 24
f 24 83 71
f 14 53 9
f 14 83 53
f 13 83 14
f 14 12 13
f 9 12 14
f 52 104 73
f 52 72 104
f 73 27 52
f 58 27 59
f 59 98 58
f 58 52 27
f 72 52 58
f 42 89 76
f 42 43 41
f 91 92 64
f 82 54 45
f 28 103 82
f 56 54 82
f 82 26 28
f 82 45 26
f 36 7 81
f 81 57 36
f 7 43 81
f 43 42 81
f 76 57 81
f 81 42 76
f 76 89 77
f 89 100 77
f 77 100 21
f 77 31 76
f 29 31 77
f 77 21 29
f 34 43 78
f 78 43 7
f 75 79 78
f 78 79 34
f 36 57 95
f 95 48 36
f 95 57 56
f 56 82 95
f 95 82 103
f 35 74 75
f 103 74 35
f 75 78 35
f 35 78 7
f 1 38 20
f 1 2 38
f 20 60 1
f 60 2 1
f 98 70 11
f 70 102 11
f 68 98 11
f 11 102 68
f 72 58 55
f 94 104 55
f 104 72 55
f 89 42 88
f 91 64 88
f 88 64 89
f 88 42 41
f 88 33 91
f 41 33 88
f 39 64 92
f 39 92 105
f 105 40 39
f 39 40 22
f 22 100 39
f 39 100 89
f 89 64 39
f 96 95 103
f 48 95 96
f 103 35 96
f 36 48 96
f 96 7 36
f 96 35 7
f 94 55 93
f 68 94 93
f 93 98 68
f 93 58 98
f 93 55 58

