# https://github.com/mikedh/trimesh
v 0.15857541 -0.17452678 0.11239701
v 0.16027423 -0.17343557 0.11424346
v 0.15887073 -0.17656559 0.10969594
v 0.15802933 -0.19246058 0.10767601
v 0.15591448 -0.18706214 0.10638864
v 0.15692361 -0.19173299 0.10714281
v 0.15665458 -0.19293879 0.10899601
v 0.16724775 -0.18699636 0.12960869
v 0.16528153 -0.19654374 0.12521626
v 0.16456704 -0.19491926 0.12763026
v 0.16637447 -0.19360796 0.12809346
v 0.16637515 -0.19098906 0.12997059
v 0.16113026 -0.19803228 0.11921544
v 0.15726840 -0.17748093 0.11032629
v 0.15789393 -0.19577071 0.10987819
v 0.16006963 -0.19776153 0.11267004
v 0.15854140 -0.19768184 0.11297601
v 0.16035203 -0.19923687 0.11670772
v 0.16248828 -0.19927634 0.11904484
v 0.16190540 -0.17262714 0.11835104
v 0.16170775 -0.17337289 0.12109014
v 0.16350689 -0.17344628 0.12267744
v 0.15643278 -0.18394633 0.10617476
v 0.15739860 -0.18573696 0.10604989
v 0.15699051 -0.17799011 0.10877884
v 0.16494926 -0.17518633 0.12416014
v 0.16439259 -0.17519228 0.12591457
v 0.16673299 -0.18002249 0.12905874
v 0.16574453 -0.18733284 0.13070584
v 0.16654175 -0.18298584 0.13055189
v 0.16532616 -0.18223624 0.12990249
v 0.16391028 -0.19772739 0.12468204
v 0.15738604 -0.17948218 0.10746134
v 0.16000259 -0.17306231 0.11592049
v 0.16666988 -0.18741221 0.13075809
v 0.16264413 -0.17327297 0.11868261
v 0.16226711 -0.19885306 0.12165474
v 0.15624101 -0.18478486 0.10756961
v 0.16528791 -0.17772531 0.12824524
f 5 24 6
f 23 24 5
f 23 33 24
f 8 24 26
f 24 36 26
f 20 36 2
f 24 33 3
f 3 36 24
f 3 2 36
f 4 24 8
f 8 16 4
f 4 6 24
f 9 16 8
f 19 16 9
f 25 23 5
f 33 23 25
f 25 3 33
f 5 6 7
f 31 21 7
f 10 7 13
f 2 3 1
f 3 25 1
f 15 7 6
f 6 4 15
f 15 4 16
f 14 7 21
f 14 1 25
f 39 21 31
f 39 27 21
f 31 30 39
f 20 21 22
f 21 27 22
f 22 27 26
f 22 36 20
f 22 26 36
f 31 7 29
f 7 10 29
f 29 30 31
f 37 10 13
f 11 9 8
f 34 21 20
f 20 2 34
f 2 1 34
f 34 14 21
f 1 14 34
f 13 7 17
f 7 15 17
f 17 15 16
f 17 37 13
f 5 7 38
f 7 14 38
f 38 25 5
f 38 14 25
f 28 39 30
f 28 30 8
f 8 26 28
f 26 27 28
f 27 39 28
f 8 30 35
f 30 29 35
f 19 9 32
f 32 37 19
f 10 37 32
f 9 11 32
f 32 11 10
f 18 16 19
f 18 17 16
f 19 37 18
f 37 17 18
f 10 11 12
f 12 29 10
f 12 35 29
f 12 11 8
f 8 35 12

