# https://github.com/mikedh/trimesh
v -0.14595509 0.06677541 0.06223475
v -0.14644732 0.06491216 0.06251879
v -0.14836364 0.06369251 0.06221956
v -0.15029342 0.06357433 0.06250981
v -0.15249007 0.06538671 0.06225700
v -0.15245414 0.06848841 0.06593532
v -0.15220792 0.06881108 0.06227746
v -0.15255554 0.06588809 0.06599940
v -0.15122357 0.06413219 0.06604812
v -0.14854240 0.06347676 0.06592518
v -0.14586902 0.06620898 0.06598069
v -0.14725347 0.06976236 0.06226785
v -0.14664400 0.06897776 0.06604812
v -0.14945107 0.07044886 0.06598444
v -0.15010239 0.07021631 0.06227780
v -0.14810419 0.06771038 0.04440429
v -0.14839900 0.06563574 0.04464337
v -0.14973139 0.06553683 0.04440186
v -0.14777345 0.06699956 0.04474040
v -0.14843820 0.06826859 0.04479745
v -0.15081034 0.06819931 0.04475108
v -0.15086785 0.06643736 0.04505759
v -0.14972895 0.06489171 0.04495039
v -0.14750442 0.06578584 0.04500535
v -0.14768730 0.06819208 0.04516046
v -0.14947709 0.06899569 0.04526377
v -0.15112659 0.06796531 0.04536198
v -0.15114857 0.06586909 0.04549020
v -0.14783147 0.06546024 0.04571060
v -0.14731805 0.06725141 0.04576661
v -0.14830194 0.06874521 0.04587996
v -0.14990292 0.06887329 0.04598227
v -0.14855516 0.06500018 0.04633203
v -0.14721512 0.06683626 0.04644376
v -0.15141155 0.06734981 0.04679762
v -0.15054809 0.06523641 0.04695582
v -0.14801579 0.06518864 0.04708306
v -0.15143074 0.06658349 0.04754667
v -0.15066225 0.06860931 0.04812419
v -0.14996715 0.06854526 0.06605497
v -0.14824805 0.06828946 0.06605497
v -0.14760522 0.06663289 0.06604787
v -0.14851640 0.06546229 0.06606136
v -0.15104820 0.06718438 0.06605497
f 13 12 14
f 25 12 13
f 8 44 6
f 6 5 8
f 14 12 26
f 25 24 19
f 42 43 11
f 11 13 42
f 42 13 43
f 40 44 43
f 40 13 14
f 14 6 40
f 40 6 44
f 15 6 14
f 14 26 15
f 31 12 25
f 25 26 31
f 31 26 12
f 16 19 24
f 25 19 16
f 30 24 25
f 30 34 24
f 43 13 41
f 41 40 43
f 13 40 41
f 11 43 10
f 18 28 22
f 27 28 35
f 5 6 35
f 6 15 7
f 27 35 7
f 7 35 6
f 26 16 21
f 27 7 21
f 21 16 18
f 18 22 21
f 21 28 27
f 21 22 28
f 18 16 17
f 17 16 24
f 20 26 25
f 25 16 20
f 20 16 26
f 25 13 1
f 1 30 25
f 1 13 11
f 34 30 1
f 24 34 1
f 11 10 2
f 2 1 11
f 24 1 2
f 5 28 36
f 38 28 5
f 5 35 38
f 38 35 28
f 32 15 26
f 26 21 32
f 23 17 24
f 18 17 23
f 23 28 18
f 23 36 28
f 3 2 10
f 15 32 39
f 39 32 21
f 39 7 15
f 39 21 7
f 5 36 4
f 36 23 4
f 4 3 10
f 23 3 4
f 33 3 23
f 8 5 9
f 5 4 9
f 9 4 10
f 9 10 43
f 9 44 8
f 43 44 9
f 29 23 24
f 29 33 23
f 24 2 29
f 3 33 37
f 33 29 37
f 2 3 37
f 37 29 2

