# https://github.com/mikedh/trimesh
v 0.16975228 0.19659449 -0.03184381
v 0.17005887 0.19553354 -0.03086961
v 0.17112817 0.19739504 -0.02916336
v 0.17029927 0.19583951 -0.03169629
v 0.17075239 0.19763462 -0.03178479
v 0.17068627 0.19604471 -0.03152106
v 0.17100954 0.19573391 -0.02969014
v 0.17117932 0.19586196 -0.03016666
v 0.16762124 0.19605571 -0.02662011
v 0.16472912 0.19749068 -0.02522546
v 0.16428227 0.19471354 -0.02621169
v 0.17166705 0.19747794 -0.03004626
v 0.17119360 0.19835049 -0.03021913
v 0.17138400 0.19700617 -0.02952106
v 0.16364125 0.19556784 -0.02762574
v 0.17040982 0.19806441 -0.03179664
v 0.16696819 0.19435868 -0.02814116
v 0.16582552 0.19842656 -0.03104019
v 0.16264600 0.19734156 -0.03031829
v 0.16331329 0.19953864 -0.02857629
v 0.16657467 0.19974656 -0.02909214
v 0.16758957 0.19840081 -0.02679251
v 0.16416112 0.19928879 -0.02645166
v 0.17129805 0.19596636 -0.03097461
v 0.16316782 0.19460637 -0.02894126
v 0.16565127 0.19630039 -0.03138471
v 0.16313747 0.19765821 -0.02884584
v 0.16316094 0.19623322 -0.02879341
v 0.16419357 0.19659748 -0.02637351
v 0.16614879 0.19471406 -0.03020701
f 9 11 17
f 10 11 9
f 10 9 22
f 17 11 25
f 7 9 17
f 21 22 13
f 13 16 21
f 3 22 9
f 12 13 3
f 3 13 22
f 21 20 23
f 23 22 21
f 10 22 23
f 17 25 30
f 2 7 17
f 17 30 2
f 2 30 4
f 4 30 26
f 26 25 19
f 26 30 25
f 5 13 12
f 16 13 5
f 27 23 20
f 27 20 19
f 12 3 14
f 14 8 12
f 7 8 14
f 9 7 14
f 14 3 9
f 24 8 7
f 7 2 24
f 24 2 4
f 12 8 24
f 24 5 12
f 18 26 19
f 16 26 18
f 19 20 18
f 18 20 21
f 21 16 18
f 4 26 1
f 1 26 16
f 1 5 4
f 16 5 1
f 15 25 11
f 23 27 15
f 19 25 28
f 28 27 19
f 25 15 28
f 28 15 27
f 4 5 6
f 6 24 4
f 5 24 6
f 29 15 11
f 23 15 29
f 29 11 10
f 10 23 29

