# https://github.com/mikedh/trimesh
v 0.06051426 -0.08033428 0.12374613
v 0.06051428 -0.15008830 0.10985946
v 0.06051426 -0.13598663 0.12381556
v 0.06051436 -0.07396418 0.12082335
v 0.06051436 -0.06937138 0.11623051
v 0.06051429 -0.06644928 0.10986195
v 0.06051424 -0.15051825 0.06167580
v 0.06051424 -0.06601826 0.06167580
v 0.06051436 -0.14716518 0.11623045
v 0.06051436 -0.14257236 0.12082338
v 0.19385519 -0.15005691 0.06167586
v 0.18621289 -0.15022254 0.08794714
v 0.13829140 -0.15006928 0.11040841
v 0.13828924 -0.06646626 0.11040669
v 0.18621287 -0.06631401 0.08794711
v 0.19385520 -0.06647964 0.06167586
v 0.14132118 -0.13506784 0.12397759
v 0.14123042 -0.08143581 0.12399291
v 0.20781067 -0.13526719 0.06167588
v 0.20784441 -0.08138732 0.06167591
v 0.20344463 -0.07222967 0.06167581
v 0.20344460 -0.14430691 0.06167581
v 0.19882559 -0.12864326 0.09852944
v 0.20065218 -0.12864326 0.09120339
v 0.19882559 -0.08789327 0.09852944
v 0.20065219 -0.08789327 0.09120339
v 0.18279433 -0.13408981 0.10555897
v 0.18325316 -0.12918004 0.10546274
v 0.18056827 -0.08735649 0.10665814
v 0.18010902 -0.08244801 0.10675479
v 0.14018916 -0.07232181 0.11986564
v 0.19869377 -0.08158506 0.09842014
v 0.19619872 -0.07419927 0.09632524
v 0.19159827 -0.06897604 0.09246514
v 0.14018916 -0.14421476 0.11986561
v 0.19869388 -0.13495162 0.09841952
v 0.19619871 -0.14233729 0.09632524
v 0.19159839 -0.14756042 0.09246522
f 7 8 21
f 7 21 22
f 20 21 33
f 33 32 20
f 18 32 33
f 19 21 20
f 19 22 21
f 11 12 7
f 7 22 11
f 38 12 11
f 11 22 38
f 16 21 8
f 8 1 6
f 6 14 8
f 31 1 18
f 18 33 31
f 18 1 3
f 3 8 7
f 3 1 8
f 10 3 9
f 10 9 35
f 35 3 10
f 24 19 20
f 36 19 24
f 8 14 15
f 15 16 8
f 1 31 4
f 2 3 7
f 2 9 3
f 30 32 18
f 18 29 30
f 36 24 23
f 23 27 36
f 37 35 38
f 38 22 37
f 22 19 37
f 37 19 36
f 13 12 38
f 38 35 13
f 7 12 13
f 13 2 7
f 13 35 9
f 9 2 13
f 18 3 17
f 3 35 17
f 36 27 17
f 17 29 18
f 17 37 36
f 35 37 17
f 20 32 26
f 26 24 20
f 14 31 34
f 34 15 14
f 34 31 33
f 34 33 21
f 21 16 34
f 16 15 34
f 5 4 31
f 14 6 5
f 5 31 14
f 5 6 1
f 1 4 5
f 29 23 25
f 32 30 25
f 25 30 29
f 25 26 32
f 28 23 29
f 29 17 28
f 27 23 28
f 28 17 27
f 24 26 25
f 25 23 24

