# https://github.com/mikedh/trimesh
v 0.17614840 -0.19504051 -0.04056149
v 0.17484826 -0.19491316 -0.03987776
v 0.17569197 -0.19245664 -0.04158841
v 0.17651351 -0.19294666 -0.04141364
v 0.17652257 -0.19480941 -0.04153911
v 0.17390204 -0.19339778 -0.04262671
v 0.17506072 -0.19274953 -0.04266064
v 0.17511014 -0.19320583 -0.04313073
v 0.17394747 -0.19286136 -0.04126018
v 0.17398817 -0.19456729 -0.04266508
v 0.17578200 -0.19276334 -0.04020911
v 0.17473055 -0.19245096 -0.04057248
v 0.17401642 -0.19396514 -0.04018008
v 0.17532076 -0.19503119 -0.04248288
v 0.17360819 -0.19475376 -0.04196664
v 0.17446101 -0.19292776 -0.03990358
v 0.17476277 -0.19412359 -0.03981991
v 0.17541129 -0.19250973 -0.04252146
v 0.17345190 -0.19414759 -0.04152293
v 0.17377474 -0.19318241 -0.04202726
v 0.17691899 -0.19342269 -0.04109131
v 0.17578097 -0.19243059 -0.04045233
v 0.17675625 -0.19373914 -0.04064014
v 0.17597550 -0.19375816 -0.04290899
v 0.17619069 -0.19488497 -0.04036339
v 0.17429866 -0.19529599 -0.04178436
v 0.17583732 -0.19517964 -0.04235724
v 0.17421294 -0.19276512 -0.04085136
v 0.17376106 -0.19463231 -0.04109389
v 0.17395157 -0.19265344 -0.04185021
v 0.17517139 -0.19548979 -0.04160524
v 0.17459554 -0.19514291 -0.04033781
v 0.17388197 -0.19440764 -0.04064043
v 0.17490824 -0.19542509 -0.04096116
v 0.17629229 -0.19322098 -0.04240111
v 0.17526295 -0.19241567 -0.04192086
v 0.17495381 -0.19314173 -0.03984126
v 0.17643514 -0.19453887 -0.04201814
v 0.17632796 -0.19522362 -0.04094314
v 0.17508670 -0.19454664 -0.04312141
f 9 30 19
f 8 10 6
f 21 38 35
f 8 18 35
f 5 38 21
f 40 10 8
f 10 40 26
f 7 18 8
f 30 18 7
f 8 6 7
f 7 6 30
f 33 32 2
f 19 30 20
f 20 6 19
f 30 6 20
f 21 35 4
f 4 35 18
f 39 5 21
f 21 23 39
f 24 35 38
f 8 35 24
f 24 40 8
f 38 5 27
f 27 24 38
f 40 24 27
f 27 39 31
f 5 39 27
f 31 26 27
f 10 26 15
f 19 6 15
f 15 6 10
f 15 26 32
f 13 33 2
f 19 33 13
f 13 9 19
f 13 16 9
f 30 9 28
f 9 16 28
f 12 28 16
f 30 28 12
f 31 39 34
f 34 26 31
f 32 26 34
f 2 32 34
f 34 39 2
f 25 39 23
f 25 37 2
f 14 26 40
f 40 27 14
f 14 27 26
f 32 33 29
f 29 15 32
f 29 33 19
f 19 15 29
f 3 4 18
f 2 37 17
f 17 37 16
f 17 13 2
f 16 13 17
f 22 12 16
f 21 4 22
f 22 23 21
f 4 3 22
f 2 39 1
f 1 25 2
f 39 25 1
f 36 3 18
f 36 18 30
f 30 12 36
f 12 22 36
f 36 22 3
f 23 22 11
f 11 25 23
f 37 25 11
f 16 37 11
f 11 22 16

