# https://github.com/mikedh/trimesh
v 0.16921735 -0.19298796 0.11619822
v 0.17039338 -0.19374351 0.11629819
v 0.16959458 -0.19448209 0.11604609
v 0.17002806 -0.19498783 0.11907049
v 0.17061698 -0.19495777 0.11862851
v 0.17080980 -0.19458127 0.11873359
v 0.16950389 -0.19232529 0.11680319
v 0.16978018 -0.19501533 0.11669506
v 0.17084921 -0.19407943 0.11668547
v 0.17070248 -0.19516269 0.11827571
v 0.17136748 -0.19415499 0.11804831
v 0.17095658 -0.19307389 0.11777382
v 0.17106516 -0.19451148 0.11762114
v 0.17086298 -0.19448346 0.11719131
v 0.16964601 -0.19542069 0.11707734
v 0.16818046 -0.19489686 0.11759674
v 0.16863943 -0.19502706 0.11711264
v 0.16802513 -0.19379424 0.11729009
v 0.16853058 -0.19442166 0.11901932
v 0.16994945 -0.19538061 0.11749226
v 0.16903620 -0.19391509 0.11950989
v 0.16891491 -0.19487514 0.11934739
v 0.16915909 -0.19235658 0.11807771
v 0.16914708 -0.19258364 0.11918089
v 0.16969973 -0.19288219 0.11920074
v 0.17053093 -0.19280699 0.11882629
v 0.17012361 -0.19259034 0.11708079
v 0.16948621 -0.19541477 0.11871484
v 0.16871216 -0.19500929 0.11845419
v 0.16823652 -0.19388552 0.11857362
v 0.16989376 -0.19546621 0.11803297
v 0.16869528 -0.19254398 0.11776019
v 0.16816896 -0.19435191 0.11662834
v 0.17082823 -0.19311256 0.11728029
v 0.16861748 -0.19286296 0.11695949
v 0.16796208 -0.19323886 0.11758764
v 0.17083933 -0.19268621 0.11837584
v 0.17121058 -0.19383529 0.11848324
v 0.16806266 -0.19410773 0.11813269
v 0.16873319 -0.19518236 0.11792196
v 0.16860716 -0.19305259 0.11889179
v 0.16996508 -0.19236864 0.11824246
f 36 35 33
f 10 13 11
f 10 15 14
f 14 13 10
f 28 15 31
f 31 10 28
f 28 10 4
f 21 4 6
f 6 38 26
f 6 10 11
f 11 38 6
f 36 33 18
f 18 33 16
f 8 15 3
f 14 15 8
f 16 33 17
f 17 33 3
f 3 15 17
f 39 30 36
f 36 18 39
f 39 18 16
f 37 38 11
f 26 38 37
f 1 2 3
f 7 2 1
f 3 33 1
f 1 35 7
f 1 33 35
f 3 2 9
f 9 8 3
f 14 8 9
f 11 13 9
f 9 13 14
f 31 15 20
f 20 10 31
f 15 10 20
f 15 28 40
f 16 17 40
f 40 17 15
f 22 4 21
f 22 28 4
f 22 40 28
f 4 10 5
f 5 6 4
f 10 6 5
f 34 9 2
f 11 9 34
f 19 22 21
f 30 39 19
f 19 39 16
f 16 22 19
f 16 40 29
f 29 22 16
f 40 22 29
f 25 24 21
f 26 24 25
f 21 6 25
f 25 6 26
f 36 24 32
f 32 35 36
f 7 35 32
f 42 37 7
f 26 37 42
f 42 24 26
f 36 30 41
f 41 24 36
f 21 24 41
f 41 19 21
f 30 19 41
f 7 37 27
f 37 34 27
f 27 2 7
f 27 34 2
f 12 37 11
f 11 34 12
f 12 34 37
f 7 32 23
f 23 32 24
f 23 42 7
f 24 42 23

