# https://github.com/mikedh/trimesh
v -0.11976563 0.26210625 0.05598255
v -0.11806053 0.24924118 0.05531514
v -0.11902581 0.25198126 0.05588456
v -0.11918218 0.25188327 0.05496733
v -0.11808138 0.25165350 0.05415697
v -0.11717581 0.25200250 0.05452683
v -0.11812696 0.25211551 0.05406392
v -0.11930906 0.25228901 0.05488494
v -0.11891349 0.25241876 0.05648701
v -0.11796506 0.25244727 0.05680330
v -0.11703506 0.25181875 0.05581462
v -0.11800186 0.25166876 0.05644108
v -0.12092858 0.26210077 0.05489364
v -0.11966405 0.26210501 0.05760609
v -0.11666073 0.26210051 0.05782291
v -0.11539235 0.26208725 0.05511423
v -0.11766631 0.26207976 0.05229040
v -0.11691071 0.25281351 0.05437525
v -0.11806588 0.25298676 0.05383643
v -0.11663621 0.25265701 0.05583752
v -0.11872300 0.26210401 0.05361254
v -0.11638293 0.26210625 0.05462598
v -0.11958393 0.25427000 0.05532324
v -0.11745984 0.25394802 0.05391597
v -0.11912021 0.25333302 0.05639794
v -0.11947369 0.25314951 0.05459310
f 16 15 20
f 13 17 26
f 16 17 22
f 22 15 16
f 15 22 14
f 14 22 1
f 14 1 13
f 2 20 11
f 13 1 21
f 1 22 21
f 21 17 13
f 21 22 17
f 15 14 10
f 2 11 10
f 10 20 15
f 10 11 20
f 4 26 2
f 16 20 18
f 18 17 16
f 13 26 8
f 26 4 8
f 3 8 4
f 3 4 2
f 6 20 2
f 6 18 20
f 17 18 24
f 25 14 13
f 9 3 2
f 9 25 3
f 9 10 14
f 14 25 9
f 13 8 23
f 8 3 23
f 23 25 13
f 3 25 23
f 18 6 5
f 5 6 2
f 2 26 5
f 2 10 12
f 12 9 2
f 10 9 12
f 19 24 18
f 18 5 19
f 17 24 19
f 19 26 17
f 7 5 26
f 26 19 7
f 7 19 5

