# https://github.com/mikedh/trimesh
v 0.05997620 -0.06324483 -0.04147512
v 0.06508170 -0.07515255 -0.04047277
v 0.06340263 -0.07328253 -0.04146424
v 0.06478653 -0.07268803 -0.04116302
v 0.06387105 -0.07309813 -0.03936242
v 0.06309085 -0.07311353 -0.03952002
v 0.06392265 -0.07250266 -0.03926164
v 0.06459130 -0.07251318 -0.03976147
v 0.06487765 -0.07185063 -0.04034982
v 0.06400813 -0.07210318 -0.04179444
v 0.06313385 -0.07257501 -0.04190984
v 0.06006178 -0.06320223 -0.04286112
v 0.06106283 -0.06261858 -0.04010227
v 0.05702073 -0.06495773 -0.04264082
v 0.05642783 -0.06531608 -0.03976099
v 0.05886442 -0.06391720 -0.03743137
v 0.06384722 -0.07162638 -0.03927305
v 0.06262977 -0.07240321 -0.03913997
v 0.06207378 -0.07294493 -0.04069249
v 0.05778785 -0.06450826 -0.04198162
v 0.05810070 -0.06432516 -0.04094704
v 0.05734567 -0.06476353 -0.03945674
v 0.05953755 -0.06349808 -0.03894824
v 0.06350778 -0.07052218 -0.03928414
v 0.06159618 -0.07193426 -0.03998182
f 18 16 15
f 15 16 22
f 22 14 15
f 15 14 19
f 11 14 12
f 11 19 14
f 23 16 13
f 23 22 16
f 21 23 13
f 22 23 21
f 13 16 24
f 25 18 15
f 15 19 25
f 25 19 18
f 2 18 6
f 6 19 2
f 18 19 6
f 12 4 10
f 10 11 12
f 10 4 2
f 2 11 10
f 2 19 3
f 3 11 2
f 19 11 3
f 14 22 20
f 22 21 20
f 12 14 20
f 13 12 1
f 1 21 13
f 12 20 1
f 1 20 21
f 2 8 7
f 16 18 7
f 9 4 12
f 2 4 9
f 9 12 13
f 9 8 2
f 13 24 9
f 9 24 8
f 8 24 17
f 17 7 8
f 17 24 16
f 16 7 17
f 5 18 2
f 2 7 5
f 5 7 18

