# https://github.com/mikedh/trimesh
v 0.20094027 -0.19784504 -0.04938306
v 0.19776797 -0.18947889 -0.05709313
v 0.19719587 -0.19784504 -0.05842280
v 0.19454817 -0.19092629 -0.06481491
v 0.19454818 -0.18114171 -0.06481491
v 0.19719587 -0.17422302 -0.05842280
v 0.20040290 -0.18258916 -0.05072713
v 0.20094027 -0.17422302 -0.04938306
v 0.20358797 -0.18114171 -0.04299098
v 0.20358797 -0.19092629 -0.04299098
v 0.19948534 -0.19784504 -0.04878041
v 0.19790312 -0.19431329 -0.05260021
v 0.19574095 -0.19784504 -0.05782015
v 0.19309325 -0.19092629 -0.06421226
v 0.19309325 -0.18114171 -0.06421226
v 0.19574095 -0.17422302 -0.05782015
v 0.19790102 -0.17772564 -0.05260526
v 0.19948535 -0.17422302 -0.04878041
v 0.20213302 -0.18114171 -0.04238833
v 0.20213302 -0.19092629 -0.04238833
f 18 19 9
f 18 17 19
f 16 17 18
f 1 3 2
f 14 17 15
f 15 17 16
f 10 11 1
f 1 2 10
f 12 17 14
f 16 18 6
f 6 2 5
f 5 2 4
f 4 2 3
f 19 17 20
f 17 12 20
f 20 12 11
f 11 10 20
f 13 12 14
f 11 12 13
f 8 18 9
f 8 6 18
f 2 6 7
f 6 8 7
f 7 8 9
f 9 10 7
f 7 10 2
f 5 15 6
f 6 15 16
f 4 15 5
f 14 15 4
f 20 10 9
f 9 19 20
f 13 4 3
f 14 4 13
f 1 11 13
f 13 3 1

