# https://github.com/mikedh/trimesh
v 0.16032493 0.18538139 0.13093791
v 0.15775286 0.18230673 0.12471581
v 0.15869573 0.18124504 0.12609999
v 0.15918541 0.18145343 0.12817262
v 0.15923299 0.19077522 0.12566849
v 0.15831543 0.19051013 0.12553841
v 0.15962915 0.19088362 0.12828959
v 0.16142773 0.18923501 0.13002379
v 0.16007638 0.18970376 0.13012794
v 0.16048113 0.18820284 0.13121434
v 0.16024675 0.18168872 0.12945466
v 0.16029556 0.18125646 0.12784581
v 0.15889971 0.18163126 0.12492782
v 0.15820988 0.18295524 0.12336361
v 0.15724584 0.18412464 0.12339971
v 0.15711423 0.18673572 0.12335486
v 0.15755610 0.18515224 0.12250003
v 0.15739008 0.18730907 0.12272339
v 0.15831221 0.18953957 0.12367384
v 0.16054661 0.19055356 0.12778916
v 0.16152981 0.18693719 0.13152221
v 0.15847924 0.18719794 0.12269904
v 0.16154898 0.18480141 0.13143494
v 0.16077694 0.18326612 0.13095976
v 0.16144259 0.18301593 0.12992161
v 0.15989251 0.18156688 0.12616241
v 0.15869660 0.18470894 0.12301934
v 0.15921441 0.18258661 0.12439256
v 0.16185596 0.18568276 0.13089854
v 0.15936831 0.18967839 0.12478739
v 0.15752096 0.18897267 0.12384459
v 0.16063509 0.18539144 0.13155429
v 0.15989876 0.18286839 0.13007009
v 0.15826468 0.19017619 0.12612254
f 33 24 32
f 33 10 34
f 33 34 16
f 17 15 16
f 29 27 30
f 3 4 2
f 16 15 2
f 2 33 16
f 4 33 2
f 29 8 21
f 21 8 10
f 21 10 32
f 9 8 7
f 10 8 9
f 7 34 9
f 34 10 9
f 12 4 3
f 3 26 12
f 32 10 1
f 1 33 32
f 10 33 1
f 27 17 22
f 22 30 27
f 15 17 14
f 14 2 15
f 14 17 27
f 32 24 23
f 23 21 32
f 29 21 23
f 4 12 11
f 11 33 4
f 24 33 11
f 6 34 7
f 7 5 6
f 30 5 20
f 20 8 29
f 29 30 20
f 7 8 20
f 20 5 7
f 18 17 16
f 18 22 17
f 31 18 16
f 16 34 31
f 34 6 31
f 28 14 27
f 13 26 3
f 3 2 13
f 2 14 13
f 13 28 26
f 14 28 13
f 25 11 12
f 29 23 25
f 25 23 24
f 24 11 25
f 25 12 26
f 26 28 25
f 25 27 29
f 25 28 27
f 19 6 5
f 19 31 6
f 19 5 30
f 30 22 19
f 22 18 19
f 18 31 19

