# https://github.com/mikedh/trimesh
v 0.17003996 -0.18755346 0.12518859
v 0.16783931 -0.18783321 0.12121114
v 0.16842358 -0.18896519 0.12296856
v 0.16773383 -0.18605714 0.12065791
v 0.16800338 -0.18405481 0.12122577
v 0.16866723 -0.18439551 0.12150734
v 0.16920626 -0.18852249 0.12316606
v 0.16838563 -0.18630651 0.12092191
v 0.15266933 -0.18737991 0.12366726
v 0.15792129 -0.18864281 0.12140459
v 0.15321788 -0.18927854 0.12385509
v 0.15779895 -0.18534449 0.12098624
v 0.15269116 -0.18543851 0.12312909
v 0.15450071 -0.17993018 0.12657421
v 0.15326330 -0.18170557 0.12530714
v 0.15528275 -0.17966183 0.12953501
v 0.15658136 -0.19161113 0.13195871
v 0.15693338 -0.18870804 0.13416952
v 0.15528343 -0.19207546 0.12998656
v 0.16957530 -0.18662269 0.12629504
v 0.16874324 -0.18792454 0.12174662
v 0.16809563 -0.18294824 0.12351954
v 0.16922293 -0.18423754 0.12583444
v 0.15996166 -0.19255911 0.12633689
v 0.15399968 -0.19168391 0.12703614
v 0.15799461 -0.18663726 0.13501851
v 0.16272926 -0.18671711 0.13289416
v 0.15725893 -0.18481524 0.13464339
v 0.16982808 -0.18676836 0.12434521
v 0.15693476 -0.18242578 0.13388434
v 0.16052271 -0.17959279 0.12757619
v 0.15922131 -0.18002604 0.12456239
v 0.16126208 -0.19197669 0.12934552
v 0.16914213 -0.18860143 0.12495236
v 0.16932373 -0.18321806 0.12410096
v 0.16966443 -0.18356427 0.12369699
v 0.16251653 -0.18343601 0.13251004
v 0.17020851 -0.18545079 0.12573666
f 33 19 24
f 31 37 35
f 31 16 30
f 30 37 31
f 38 37 27
f 27 37 26
f 19 33 17
f 15 30 16
f 36 35 38
f 23 37 38
f 38 35 23
f 23 35 37
f 22 32 31
f 31 35 22
f 5 32 22
f 22 36 5
f 35 36 22
f 24 10 2
f 26 37 28
f 37 30 28
f 14 15 16
f 32 15 14
f 14 16 31
f 31 32 14
f 12 15 32
f 12 32 5
f 38 27 20
f 19 17 18
f 26 28 18
f 30 15 18
f 18 28 30
f 18 27 26
f 33 27 18
f 18 17 33
f 9 15 13
f 15 12 13
f 13 12 10
f 13 11 9
f 10 11 13
f 4 2 10
f 10 12 4
f 4 12 5
f 29 36 38
f 29 21 36
f 24 2 3
f 2 21 3
f 3 33 24
f 3 34 33
f 25 18 15
f 25 15 9
f 19 18 25
f 9 11 25
f 24 19 25
f 25 10 24
f 25 11 10
f 8 21 2
f 2 4 8
f 36 21 8
f 8 4 5
f 1 29 38
f 38 20 1
f 1 20 27
f 1 27 33
f 33 34 1
f 5 36 6
f 6 8 5
f 36 8 6
f 21 29 7
f 29 1 7
f 7 3 21
f 34 3 7
f 7 1 34

