# https://github.com/mikedh/trimesh
v 0.06289016 -0.00343172 -0.10121257
v 0.03714521 0.02044971 -0.10191007
v 0.03507871 0.01971987 -0.10232635
v 0.03469764 0.01840400 -0.10126685
v 0.03647646 0.01929453 -0.10121977
v 0.03418379 -0.01706530 -0.10123755
v 0.03319748 -0.01663770 -0.10205885
v 0.03414926 -0.01869960 -0.10188860
v 0.08986039 0.01656832 -0.10190042
v 0.08895414 0.01869851 -0.10188859
v 0.08870959 0.01721287 -0.10121736
v 0.08638228 -0.01949217 -0.10123249
v 0.08607274 -0.02047626 -0.10205532
v 0.08796126 -0.01964952 -0.10191259
v 0.06484144 0.00510095 -0.11216132
v 0.06453814 -0.00535853 -0.11215304
v 0.05543459 0.00044793 -0.11215809
v 0.03366084 -0.01758798 -0.10878060
v 0.03353896 0.01637481 -0.10922532
v 0.03329674 0.01715216 -0.10196334
v 0.03672901 0.02018360 -0.10879995
v 0.08614449 0.02008967 -0.10924899
v 0.08654214 0.02039574 -0.10196156
v 0.08978831 -0.01723316 -0.10197115
v 0.08955359 0.01689705 -0.10909017
v 0.08957386 -0.01707065 -0.10871379
v 0.03638823 -0.02042351 -0.10232523
v 0.08586306 -0.02015016 -0.10915727
v 0.03671444 -0.02024869 -0.10843427
v 0.03723661 -0.01657239 -0.11215725
v 0.08638171 -0.01621372 -0.11212207
v 0.03745089 0.01700387 -0.11210990
v 0.08597916 0.01642480 -0.11215944
v 0.08642324 0.01949259 -0.10124600
v 0.03707899 -0.01982354 -0.10130584
v 0.08890309 -0.01703249 -0.10124707
v 0.03698269 -0.01842034 -0.11128182
v 0.08600206 -0.01821671 -0.11147161
v 0.03670949 -0.01963687 -0.10997385
v 0.03703071 0.01925556 -0.11052150
v 0.08599996 0.01841527 -0.11130215
v 0.03421351 0.01823781 -0.10905385
v 0.03550131 0.01655445 -0.11150415
v 0.03467358 -0.01678423 -0.11079149
v 0.08770631 0.01953782 -0.10861359
v 0.08808024 0.01692790 -0.11106174
v 0.08855708 -0.01677826 -0.11058552
v 0.08766411 -0.01946471 -0.10905382
f 16 30 15
f 15 33 16
f 31 16 33
f 30 16 31
f 20 4 3
f 7 6 20
f 6 4 20
f 27 29 13
f 15 30 17
f 32 33 15
f 32 17 30
f 15 17 32
f 9 25 10
f 5 4 6
f 26 25 9
f 46 31 33
f 13 12 35
f 35 27 13
f 35 12 6
f 8 6 7
f 7 18 8
f 8 35 6
f 27 35 8
f 29 27 8
f 8 18 29
f 11 12 36
f 11 36 9
f 9 10 11
f 14 12 13
f 36 12 14
f 13 29 28
f 30 37 44
f 2 21 3
f 23 21 2
f 3 4 2
f 4 5 2
f 42 20 3
f 3 21 42
f 22 21 23
f 12 11 1
f 1 11 5
f 6 12 1
f 1 5 6
f 5 11 34
f 23 2 34
f 34 2 5
f 34 10 23
f 34 11 10
f 36 14 24
f 24 14 26
f 9 36 24
f 24 26 9
f 26 14 48
f 48 14 13
f 13 28 48
f 39 28 29
f 29 18 39
f 18 44 39
f 39 44 37
f 40 42 21
f 21 22 40
f 19 44 18
f 20 42 19
f 7 20 19
f 19 18 7
f 41 46 33
f 41 40 22
f 33 32 41
f 32 40 41
f 23 10 45
f 45 22 23
f 45 10 25
f 25 46 45
f 46 41 45
f 45 41 22
f 26 48 47
f 31 46 47
f 25 26 47
f 47 46 25
f 38 48 28
f 31 47 38
f 38 47 48
f 30 31 38
f 38 37 30
f 38 39 37
f 28 39 38
f 43 40 32
f 42 40 43
f 43 19 42
f 44 19 43
f 43 32 30
f 30 44 43

