# https://github.com/mikedh/trimesh
v 0.11983649 0.16636309 0.05462338
v 0.11814379 0.17922822 0.05532166
v 0.11871271 0.17658606 0.05429433
v 0.11749264 0.17661959 0.05625652
v 0.11882156 0.17678454 0.05624718
v 0.11698126 0.17644836 0.05532366
v 0.11735729 0.17681597 0.05447122
v 0.11724168 0.17635505 0.05445188
v 0.11845327 0.17621009 0.05403216
v 0.11951912 0.17613524 0.05484167
v 0.11922824 0.17600984 0.05637483
v 0.11992244 0.16636854 0.05303255
v 0.12088673 0.16636425 0.05586563
v 0.11886889 0.16636876 0.05810062
v 0.11608393 0.16638209 0.05702983
v 0.11576593 0.16638949 0.05341105
v 0.11707958 0.17556582 0.05437303
v 0.11666334 0.17565597 0.05543894
v 0.11747713 0.17581242 0.05668445
v 0.11647394 0.16636555 0.05599977
v 0.11746531 0.16636309 0.05361395
v 0.11770071 0.17443127 0.05386456
v 0.11693769 0.17469999 0.05619781
v 0.11965807 0.17513635 0.05536998
v 0.11866418 0.17531984 0.05382249
f 11 14 13
f 13 14 20
f 14 15 20
f 20 15 16
f 16 15 18
f 5 11 2
f 16 12 21
f 21 20 16
f 25 12 16
f 16 22 25
f 2 11 10
f 13 12 10
f 12 25 10
f 2 18 4
f 14 11 19
f 11 5 19
f 19 15 14
f 19 5 2
f 2 4 19
f 19 4 18
f 13 20 1
f 20 21 1
f 1 12 13
f 1 21 12
f 2 10 3
f 3 10 25
f 24 11 13
f 13 10 24
f 24 10 11
f 23 18 15
f 15 19 23
f 23 19 18
f 6 18 2
f 2 7 6
f 6 7 18
f 16 18 17
f 17 22 16
f 17 7 22
f 9 25 22
f 22 7 9
f 9 7 2
f 2 3 9
f 9 3 25
f 18 7 8
f 8 17 18
f 7 17 8

