# https://github.com/mikedh/trimesh
v 0.16181049 -0.19121709 -0.05144794
v 0.16312537 -0.19503447 -0.04998451
v 0.16327282 -0.19588066 -0.04780034
v 0.16880040 -0.17360719 -0.03907101
v 0.16377186 -0.17541499 -0.04816988
v 0.16412001 -0.17445776 -0.04590689
v 0.16558967 -0.17346979 -0.04507849
v 0.17207109 -0.17889984 -0.03121004
v 0.17227394 -0.19146776 -0.02974113
v 0.17191302 -0.18841004 -0.02853294
v 0.17097346 -0.19198366 -0.02973411
v 0.16214804 -0.17926931 -0.05089498
v 0.16249907 -0.18015886 -0.05205651
v 0.16147457 -0.18624182 -0.05258093
v 0.16537187 -0.19842042 -0.04264931
v 0.16765065 -0.19917549 -0.03858013
v 0.16897351 -0.19716079 -0.03416758
v 0.16988024 -0.19772919 -0.03479791
v 0.17100611 -0.19493024 -0.03150796
v 0.16446999 -0.19523601 -0.04951326
v 0.16667864 -0.19824362 -0.04428609
v 0.16559932 -0.19821904 -0.04597056
v 0.16575164 -0.17305969 -0.04214298
v 0.16772441 -0.17279036 -0.04112944
v 0.16756242 -0.17384386 -0.03736186
v 0.16944159 -0.17691824 -0.03320221
v 0.17277225 -0.18542621 -0.02870913
v 0.16828749 -0.17295636 -0.03784129
v 0.16542697 -0.17544653 -0.04739616
v 0.16327949 -0.18184546 -0.05238323
v 0.16454659 -0.17569501 -0.04867606
v 0.16546536 -0.19900024 -0.04391004
v 0.16815115 -0.19923872 -0.04000491
v 0.16311256 -0.19215436 -0.05184971
v 0.16328487 -0.18823434 -0.05256949
v 0.17253977 -0.18357277 -0.02991126
v 0.17063504 -0.19693172 -0.03480188
v 0.16955707 -0.17558386 -0.03308794
v 0.17193666 -0.18126033 -0.02913153
v 0.17034114 -0.17474273 -0.03462071
v 0.17129497 -0.18571741 -0.02858161
v 0.16208959 -0.18810909 -0.05305003
v 0.17212999 -0.19118986 -0.03092241
v 0.16255450 -0.18510294 -0.05324344
v 0.17117651 -0.18142674 -0.02921388
v 0.17086814 -0.17729084 -0.03128771
f 27 8 39
f 17 15 16
f 33 18 16
f 16 18 17
f 21 20 35
f 35 20 34
f 17 18 19
f 14 1 12
f 7 23 24
f 24 29 7
f 7 29 31
f 41 15 17
f 27 39 41
f 41 39 45
f 4 29 24
f 8 29 4
f 35 44 30
f 30 29 35
f 31 29 30
f 27 9 43
f 22 21 33
f 20 21 22
f 35 29 37
f 37 21 35
f 37 29 8
f 8 43 37
f 33 21 37
f 37 18 33
f 37 43 9
f 9 19 37
f 37 19 18
f 42 44 35
f 35 34 42
f 14 44 42
f 42 1 14
f 42 34 1
f 13 44 14
f 14 12 13
f 13 30 44
f 31 30 13
f 25 1 3
f 3 15 25
f 15 41 25
f 23 7 6
f 6 25 23
f 6 12 1
f 1 25 6
f 17 19 11
f 11 41 17
f 11 19 9
f 10 9 27
f 27 41 10
f 10 11 9
f 41 11 10
f 36 8 27
f 27 43 36
f 36 43 8
f 32 15 3
f 32 22 33
f 33 16 32
f 32 16 15
f 20 22 2
f 2 34 20
f 2 32 3
f 22 32 2
f 3 1 2
f 1 34 2
f 26 41 45
f 26 25 41
f 24 23 28
f 23 25 28
f 28 4 24
f 5 7 31
f 5 6 7
f 12 6 5
f 31 13 5
f 5 13 12
f 8 4 40
f 4 28 40
f 38 28 25
f 38 40 28
f 25 26 38
f 38 26 45
f 8 40 46
f 40 38 46
f 46 39 8
f 45 39 46
f 46 38 45

