# https://github.com/mikedh/trimesh
v -0.00640539 0.01889033 -0.10496070
v -0.00627504 0.01989800 -0.10136075
v -0.00813891 0.01657229 -0.10131473
v -0.00887312 0.01628808 -0.10500980
v -0.01100211 0.01652994 -0.10124330
v -0.01194443 0.01706946 -0.10507350
v -0.01321065 0.01879420 -0.10130635
v -0.01333789 0.01957377 -0.10500435
v -0.01219491 0.02223293 -0.10136290
v -0.01138988 0.02285245 -0.10495493
v -0.00972749 0.02307075 -0.10129277
v -0.00861081 0.02284348 -0.10507350
v -0.00767153 0.02229768 -0.10124485
v -0.00690858 0.02144357 -0.10502477
v -0.00940772 0.02108183 -0.08342967
v -0.01131146 0.02020608 -0.08366877
v -0.01102516 0.01890097 -0.08342725
v -0.01018349 0.02119550 -0.08376577
v -0.00877590 0.02092633 -0.08381645
v -0.00816539 0.01862848 -0.08377645
v -0.00983730 0.01806956 -0.08408295
v -0.01163829 0.01870846 -0.08397217
v -0.01169295 0.02043296 -0.08400197
v -0.00827101 0.01998849 -0.08397773
v -0.01031090 0.02173686 -0.08414795
v -0.00827930 0.02107511 -0.08425182
v -0.00778312 0.01922499 -0.08436790
v -0.00913184 0.01771914 -0.08447338
v -0.01138849 0.01826077 -0.08460738
v -0.00845101 0.02129716 -0.08487867
v -0.00778001 0.01969079 -0.08500669
v -0.00843801 0.01811704 -0.08508685
v -0.01022343 0.01768212 -0.08520632
v -0.00773106 0.01985050 -0.08570745
v -0.01007363 0.01756747 -0.08586593
v -0.00933242 0.02176944 -0.08690442
v -0.00802469 0.01968633 -0.10507592
v -0.01083375 0.02106476 -0.10504815
f 10 12 8
f 4 5 6
f 17 20 15
f 2 1 14
f 14 13 2
f 12 13 14
f 4 1 3
f 3 1 20
f 11 10 25
f 12 10 11
f 11 13 12
f 8 23 9
f 9 10 8
f 9 23 25
f 25 10 9
f 8 12 38
f 38 6 8
f 12 6 38
f 25 23 16
f 16 23 17
f 17 15 16
f 13 11 30
f 35 5 4
f 4 3 35
f 35 3 28
f 8 6 7
f 7 23 8
f 12 14 37
f 37 6 12
f 4 6 37
f 37 1 4
f 37 14 1
f 20 28 32
f 32 3 20
f 28 3 32
f 18 15 25
f 25 16 18
f 18 16 15
f 36 11 25
f 25 30 36
f 36 30 11
f 25 15 26
f 26 30 25
f 2 13 26
f 13 30 26
f 29 6 5
f 29 7 6
f 19 15 20
f 19 26 15
f 31 26 27
f 27 1 2
f 20 1 27
f 2 26 34
f 34 26 31
f 34 27 2
f 31 27 34
f 21 20 17
f 21 28 20
f 33 35 28
f 28 21 33
f 33 21 29
f 5 35 33
f 33 29 5
f 24 19 20
f 26 19 24
f 20 27 24
f 24 27 26
f 22 21 17
f 29 21 22
f 17 23 22
f 7 29 22
f 23 7 22

