# https://github.com/mikedh/trimesh
v 0.15267522 0.19037348 -0.04752196
v 0.15235490 0.18745489 -0.04965496
v 0.15202925 0.18530606 -0.04924499
v 0.16859742 0.18733903 -0.05005916
v 0.16910502 0.18702734 -0.04879149
v 0.16917784 0.18378574 -0.04744843
v 0.16848167 0.18484888 -0.05038936
v 0.16833955 0.18894792 -0.04871396
v 0.16855465 0.18856867 -0.04998786
v 0.16764150 0.18736984 -0.05144509
v 0.15500143 0.18768451 -0.04200964
v 0.16928145 0.18786503 -0.04819004
v 0.15242975 0.18237344 -0.04839174
v 0.15418547 0.17978554 -0.04520996
v 0.15470852 0.17997934 -0.04284759
v 0.16731880 0.18854599 -0.05087931
v 0.16789005 0.18582967 -0.05203064
v 0.16747484 0.18532481 -0.05202312
v 0.16811990 0.18341909 -0.05057346
v 0.16672250 0.18459051 -0.05160639
v 0.16667912 0.18634724 -0.05204474
v 0.15389755 0.19213529 -0.04627264
v 0.15468949 0.19240506 -0.04330841
v 0.15713037 0.18669951 -0.05188914
v 0.15627227 0.18974822 -0.03905993
v 0.15660912 0.18717258 -0.03818471
v 0.16194060 0.18862239 -0.04041444
v 0.16019157 0.17996626 -0.04500879
v 0.15908712 0.17982964 -0.04728036
v 0.16211640 0.18536802 -0.03986883
v 0.15664667 0.18408771 -0.03819993
v 0.16963692 0.18645169 -0.04747533
v 0.16930630 0.18713049 -0.04676718
v 0.15740618 0.18343488 -0.05138619
v 0.16950017 0.18439789 -0.04796646
v 0.15993135 0.19247226 -0.04527229
v 0.15863094 0.19204171 -0.04827641
v 0.16100832 0.18069519 -0.04279026
v 0.15572243 0.18101701 -0.04041581
f 9 37 36
f 11 15 26
f 26 27 25
f 36 23 25
f 25 27 36
f 3 15 1
f 15 11 1
f 1 25 23
f 1 11 26
f 26 25 1
f 36 27 8
f 8 9 36
f 37 9 16
f 19 29 34
f 26 15 39
f 15 38 39
f 30 27 26
f 28 38 15
f 15 14 28
f 28 14 29
f 29 19 28
f 22 1 23
f 37 1 22
f 22 23 36
f 36 37 22
f 33 8 27
f 27 30 33
f 24 1 37
f 37 16 24
f 24 16 21
f 24 34 3
f 20 19 34
f 34 29 13
f 29 14 13
f 3 34 13
f 13 15 3
f 13 14 15
f 26 39 31
f 31 30 26
f 31 39 38
f 38 30 31
f 6 30 38
f 38 28 6
f 6 28 19
f 32 33 6
f 6 33 30
f 9 8 12
f 8 33 12
f 12 33 32
f 3 1 2
f 2 24 3
f 1 24 2
f 21 16 10
f 10 17 21
f 10 16 9
f 9 17 10
f 19 20 18
f 18 17 19
f 18 20 34
f 34 24 18
f 18 24 21
f 21 17 18
f 4 17 9
f 19 17 7
f 35 6 19
f 19 7 35
f 32 6 35
f 35 7 17
f 35 17 32
f 5 4 9
f 5 12 32
f 9 12 5
f 32 17 5
f 17 4 5

