# https://github.com/mikedh/trimesh
v 0.16887751 -0.19556188 -0.03016984
v 0.20484940 -0.16961261 -0.04744734
v 0.19740157 -0.20049534 -0.06566311
v 0.20257414 -0.20423217 -0.05301266
v 0.20589083 -0.20104916 -0.04523788
v 0.16067215 -0.18360604 -0.05780527
v 0.16214927 -0.17433921 -0.05425059
v 0.20394176 -0.19590314 -0.05765189
v 0.17484394 -0.16636354 -0.04136281
v 0.17791744 -0.16636369 -0.04008628
v 0.17421772 -0.16636383 -0.04883313
v 0.17299647 -0.16636356 -0.04582299
v 0.19453656 -0.16636356 -0.05474519
v 0.19146310 -0.16636369 -0.05602171
v 0.19516284 -0.16636381 -0.04727488
v 0.19638402 -0.16636354 -0.05028496
v 0.16518757 -0.20333879 -0.04688989
v 0.16045662 -0.20012209 -0.05061873
v 0.16217317 -0.19756286 -0.05423348
v 0.20634716 -0.19496807 -0.05189346
v 0.17354680 -0.19596301 -0.02672069
v 0.17134332 -0.19326302 -0.02433596
v 0.16986892 -0.19898629 -0.02789541
v 0.16103614 -0.17629889 -0.04917794
v 0.15839305 -0.17903301 -0.05560068
v 0.20826152 -0.18408259 -0.04722518
v 0.20756782 -0.18002524 -0.04890456
v 0.17254794 -0.17285871 -0.02909609
v 0.17432516 -0.18041011 -0.02486844
v 0.20795780 -0.19427872 -0.03998808
v 0.20865300 -0.18832569 -0.03838953
v 0.16778441 -0.16930144 -0.03292791
v 0.16985390 -0.17312101 -0.02793169
v 0.16866862 -0.17590194 -0.03075556
v 0.20724495 -0.16916632 -0.04954268
v 0.20968588 -0.17380200 -0.04364968
v 0.20069774 -0.18688237 -0.06546398
v 0.20468369 -0.17601434 -0.05583380
v 0.21107696 -0.19271087 -0.04029126
v 0.16519667 -0.16777236 -0.03917524
v 0.17141964 -0.20147073 -0.03188591
v 0.19600450 -0.17543922 -0.06904603
v 0.16309989 -0.20383291 -0.04423731
v 0.15896842 -0.19566691 -0.05421156
v 0.20114034 -0.18137511 -0.06440096
v 0.20135772 -0.20242307 -0.06375563
v 0.19945579 -0.19878084 -0.06834733
v 0.16868631 -0.20418713 -0.03860931
v 0.16698449 -0.20366933 -0.03485909
v 0.20723801 -0.17459414 -0.04194216
v 0.19547662 -0.19428152 -0.07017623
v 0.19462342 -0.18561014 -0.07220111
v 0.20477939 -0.20453158 -0.05549501
v 0.19999610 -0.20373440 -0.05925641
v 0.19822365 -0.17020344 -0.06354688
v 0.17463639 -0.18829664 -0.02419206
v 0.15793897 -0.18851678 -0.05669688
v 0.21131922 -0.18158176 -0.03970646
v 0.17192975 -0.18624829 -0.02292016
v 0.16087356 -0.19065636 -0.05732811
v 0.20456246 -0.16775892 -0.05601876
v 0.19925717 -0.17381764 -0.06882681
v 0.20168717 -0.16914014 -0.06296031
v 0.19784432 -0.17997571 -0.07223775
v 0.19756427 -0.19052059 -0.07291381
v 0.17131559 -0.17852889 -0.02440284
v 0.16248909 -0.16879827 -0.04571191
v 0.20857399 -0.20097075 -0.04633401
v 0.16017132 -0.17259688 -0.05130751
f 52 65 57
f 37 47 65
f 53 49 48
f 23 1 49
f 26 27 58
f 20 27 26
f 58 39 26
f 26 39 20
f 46 20 53
f 65 47 51
f 19 51 47
f 64 37 65
f 65 52 64
f 45 27 20
f 20 37 45
f 45 64 62
f 37 64 45
f 8 37 20
f 47 37 8
f 20 46 8
f 8 46 47
f 6 52 57
f 57 25 6
f 6 64 52
f 25 64 6
f 11 69 67
f 49 1 43
f 43 48 49
f 53 48 43
f 41 23 49
f 53 20 68
f 20 39 68
f 58 59 31
f 31 39 58
f 21 39 22
f 22 23 21
f 59 1 22
f 1 23 22
f 47 46 3
f 3 19 47
f 3 46 17
f 57 65 60
f 62 64 42
f 42 64 25
f 27 45 38
f 24 69 25
f 57 1 24
f 24 25 57
f 67 69 24
f 1 34 24
f 66 1 59
f 66 34 1
f 66 33 34
f 50 66 58
f 32 33 10
f 34 33 32
f 12 11 67
f 18 43 1
f 17 43 18
f 18 3 17
f 19 3 18
f 17 46 54
f 54 43 17
f 54 46 53
f 53 43 54
f 4 49 53
f 53 68 4
f 23 41 5
f 21 23 5
f 5 41 49
f 49 4 5
f 5 4 68
f 30 39 21
f 30 68 39
f 21 5 30
f 30 5 68
f 59 22 56
f 56 22 39
f 56 31 59
f 39 31 56
f 25 69 7
f 7 42 25
f 7 69 62
f 62 42 7
f 61 35 27
f 27 38 61
f 29 59 58
f 58 66 29
f 29 66 59
f 33 66 28
f 66 50 28
f 10 33 28
f 34 32 40
f 67 24 40
f 40 24 34
f 40 12 67
f 40 32 10
f 15 2 35
f 35 61 15
f 10 28 15
f 11 12 14
f 12 13 14
f 14 55 62
f 62 69 14
f 69 11 14
f 19 18 44
f 57 60 44
f 44 1 57
f 44 18 1
f 51 19 44
f 65 51 44
f 44 60 65
f 63 61 38
f 63 38 45
f 63 45 62
f 62 55 63
f 55 14 63
f 13 61 63
f 63 14 13
f 9 40 10
f 12 40 9
f 9 13 12
f 2 15 36
f 35 2 36
f 36 28 50
f 36 15 28
f 27 35 36
f 36 50 58
f 58 27 36
f 13 9 16
f 16 61 13
f 16 15 61
f 10 15 16
f 16 9 10

