# https://github.com/mikedh/trimesh
v 0.19736509 0.19784393 -0.05469281
v 0.19659699 0.19784391 -0.05860468
v 0.19980570 0.18947779 -0.05090971
v 0.20034139 0.19784391 -0.04956491
v 0.19811838 0.19784393 -0.05287416
v 0.20298907 0.19092520 -0.04317284
v 0.20298906 0.18114064 -0.04317284
v 0.20034139 0.17422188 -0.04956491
v 0.19716742 0.18258800 -0.05727431
v 0.19659699 0.17422188 -0.05860468
v 0.19394932 0.18114064 -0.06499676
v 0.19394932 0.19092520 -0.06499676
v 0.19514207 0.19784391 -0.05800203
v 0.19676550 0.19417121 -0.05408270
v 0.19888647 0.19784391 -0.04896226
v 0.20153415 0.19092520 -0.04257019
v 0.20153415 0.18114064 -0.04257019
v 0.19888647 0.17422188 -0.04896226
v 0.19514207 0.17422188 -0.05800203
v 0.19249439 0.18114064 -0.06439411
v 0.19249439 0.19092520 -0.06439411
f 8 10 9
f 9 10 11
f 7 17 8
f 8 17 18
f 12 9 11
f 8 9 3
f 3 7 8
f 6 7 3
f 3 4 6
f 2 4 3
f 3 12 2
f 9 12 3
f 6 4 16
f 16 4 15
f 15 13 14
f 14 16 15
f 17 16 14
f 14 19 18
f 14 18 17
f 20 19 14
f 14 21 20
f 13 21 14
f 15 4 5
f 5 13 15
f 1 4 2
f 1 5 4
f 2 13 1
f 13 5 1
f 17 7 16
f 16 7 6
f 11 10 19
f 20 11 19
f 19 10 8
f 8 18 19
f 21 11 20
f 21 12 11
f 21 13 2
f 2 12 21

