# https://github.com/mikedh/trimesh
v 0.16665971 -0.16670561 0.05575610
v 0.16732788 -0.16644089 0.05789596
v 0.16753291 -0.16641533 0.05378290
v 0.16951614 -0.17022868 0.05259650
v 0.17144086 -0.16994991 0.05264771
v 0.17307184 -0.17024734 0.05422917
v 0.17363252 -0.16995889 0.05607977
v 0.17238301 -0.17020113 0.05863904
v 0.17004409 -0.16648357 0.05238742
v 0.17279257 -0.16649054 0.05376435
v 0.17352051 -0.16646134 0.05688773
v 0.17059324 -0.16648384 0.05940356
v 0.16898156 -0.17018677 0.05915687
v 0.16712526 -0.17018431 0.05743556
v 0.16690426 -0.17019199 0.05455345
v 0.16874876 -0.14860011 0.05551909
v 0.16962453 -0.14883921 0.05742283
v 0.17092961 -0.14859769 0.05713654
v 0.16863511 -0.14893621 0.05629488
v 0.16890922 -0.14899326 0.05488872
v 0.17120211 -0.14894692 0.05427671
v 0.17207952 -0.14907956 0.05604413
v 0.17112211 -0.14914261 0.05774969
v 0.16872581 -0.14919976 0.05753485
v 0.16821151 -0.14935629 0.05517673
v 0.16969676 -0.14945959 0.05389488
v 0.17157526 -0.14955969 0.05441182
v 0.17219247 -0.14968579 0.05641055
v 0.16913561 -0.14990836 0.05774744
v 0.16812809 -0.14995856 0.05619786
v 0.16864231 -0.15007579 0.05447097
v 0.17013949 -0.15017683 0.05389123
v 0.17072613 -0.15047444 0.05792773
v 0.17113927 -0.15093744 0.05407446
v 0.17203814 -0.15168719 0.05514908
v 0.16999704 -0.17025078 0.05418635
v 0.16890776 -0.17025716 0.05704802
v 0.17170061 -0.17025959 0.05688816
f 37 8 13
f 13 24 2
f 1 2 30
f 30 2 24
f 13 8 12
f 14 37 13
f 14 2 1
f 13 2 14
f 22 28 7
f 7 10 22
f 22 10 35
f 22 21 18
f 11 8 7
f 7 28 11
f 23 12 8
f 23 22 18
f 28 22 23
f 8 11 23
f 23 11 28
f 5 4 9
f 9 34 5
f 37 14 15
f 15 4 37
f 15 14 1
f 17 23 18
f 24 23 17
f 29 23 24
f 29 24 13
f 13 12 29
f 32 26 21
f 21 34 32
f 9 26 32
f 32 34 9
f 21 26 16
f 26 20 16
f 18 21 16
f 16 17 18
f 24 17 16
f 27 34 21
f 27 5 34
f 10 5 27
f 35 10 27
f 21 22 27
f 27 22 35
f 4 5 6
f 6 10 7
f 6 5 10
f 7 8 6
f 9 4 3
f 4 15 3
f 3 26 9
f 31 26 3
f 12 23 33
f 33 29 12
f 23 29 33
f 25 30 24
f 1 30 25
f 31 3 25
f 25 16 20
f 25 15 1
f 25 3 15
f 25 26 31
f 25 20 26
f 37 4 36
f 4 6 36
f 8 37 38
f 38 6 8
f 37 36 38
f 38 36 6
f 24 16 19
f 19 25 24
f 16 25 19

