# https://github.com/mikedh/trimesh
v 0.19890545 -0.19890866 0.08901089
v 0.19836778 -0.19716854 0.08828842
v 0.19880095 -0.19535216 0.08883554
v 0.19328041 -0.19602371 0.09478034
v 0.19214093 -0.19809622 0.09269659
v 0.19205945 -0.19649892 0.09230677
v 0.19671698 -0.19971759 0.09233229
v 0.19990123 -0.19962852 0.09157984
v 0.19221698 -0.19568992 0.09337989
v 0.19182049 -0.19690254 0.09260304
v 0.19199289 -0.19598386 0.09406252
v 0.19270401 -0.19605769 0.09482767
v 0.19250376 -0.19751924 0.09490379
v 0.19264075 -0.19849947 0.09411319
v 0.19262001 -0.19548254 0.09337977
v 0.19221536 -0.19828587 0.09377454
v 0.19298563 -0.19739629 0.09516579
v 0.19747508 -0.19570366 0.09417852
v 0.20028479 -0.19498591 0.09252661
v 0.19686938 -0.19436599 0.09268437
v 0.19559506 -0.19646359 0.08958566
v 0.19604358 -0.19478442 0.09068274
v 0.19158985 -0.19748737 0.09313337
v 0.20063850 -0.19762079 0.09324232
v 0.20007418 -0.19786692 0.09181022
v 0.19915104 -0.19757266 0.08957199
v 0.19767980 -0.19800421 0.09444159
v 0.19583383 -0.19873884 0.09012047
v 0.19946624 -0.19435506 0.09039134
v 0.19956771 -0.19839360 0.09057429
v 0.19921915 -0.19616982 0.08974289
v 0.19973341 -0.19557476 0.09099212
f 2 28 21
f 3 22 29
f 29 31 3
f 2 21 3
f 3 21 22
f 15 11 12
f 32 31 29
f 32 19 24
f 29 19 32
f 31 32 30
f 24 19 18
f 27 14 7
f 27 8 24
f 7 8 27
f 24 18 27
f 12 11 13
f 13 11 23
f 20 15 12
f 20 18 19
f 20 19 29
f 29 22 20
f 22 15 20
f 24 8 25
f 8 30 25
f 25 32 24
f 25 30 32
f 1 30 8
f 1 28 2
f 2 3 1
f 7 28 1
f 1 8 7
f 1 3 31
f 5 21 28
f 5 28 7
f 7 14 5
f 12 13 17
f 17 27 18
f 14 27 17
f 17 13 14
f 16 13 23
f 14 13 16
f 23 5 16
f 16 5 14
f 4 20 12
f 18 20 4
f 12 17 4
f 4 17 18
f 9 15 22
f 11 15 9
f 31 30 26
f 26 1 31
f 30 1 26
f 22 21 6
f 6 9 22
f 11 9 10
f 9 6 10
f 23 11 10
f 10 5 23
f 21 5 10
f 10 6 21

