# https://github.com/mikedh/trimesh
v 0.13461124 -0.21738536 0.02620263
v 0.13633559 -0.21628854 0.02640644
v 0.13325851 -0.21707441 0.02641635
v 0.13637376 -0.21294112 0.02356750
v 0.13697826 -0.21412050 0.02638294
v 0.13696806 -0.21512456 0.02359151
v 0.13494296 -0.21732893 0.02362219
v 0.13212389 -0.21623489 0.02359621
v 0.13170476 -0.21533994 0.02638734
v 0.13184949 -0.21319525 0.02361474
v 0.13216046 -0.21289997 0.02637341
v 0.13500398 -0.21187191 0.02635286
v 0.13447899 -0.21186356 0.02358121
v 0.13419801 -0.21335213 0.03404117
v 0.13309750 -0.21444857 0.03418377
v 0.13520539 -0.21441264 0.03445585
v 0.13468064 -0.21613214 0.03395996
v 0.13327478 -0.21571836 0.03404811
v 0.13277769 -0.21394603 0.03388190
v 0.13452766 -0.21305010 0.03377063
v 0.13578379 -0.21410284 0.03368938
v 0.13547691 -0.21560361 0.03359862
v 0.13412528 -0.21613533 0.03351736
v 0.13281600 -0.21513595 0.03344796
v 0.13315153 -0.21351985 0.03334190
v 0.13544986 -0.21353650 0.03272096
v 0.13576103 -0.21530520 0.03264411
v 0.13527236 -0.21327734 0.03227091
v 0.13573914 -0.21450064 0.02356218
v 0.13350312 -0.21584994 0.02352435
f 9 19 11
f 13 11 12
f 22 21 16
f 16 21 20
f 20 12 11
f 5 6 4
f 4 12 5
f 13 12 4
f 7 8 30
f 30 6 7
f 13 4 30
f 10 11 13
f 13 30 10
f 10 30 8
f 10 8 9
f 9 11 10
f 15 18 16
f 19 18 15
f 3 8 7
f 9 8 3
f 3 18 9
f 24 19 9
f 9 18 24
f 24 18 19
f 16 18 17
f 17 22 16
f 5 21 27
f 21 22 27
f 12 20 28
f 25 11 19
f 19 20 25
f 25 20 11
f 29 4 6
f 6 30 29
f 29 30 4
f 14 20 19
f 19 15 14
f 16 20 14
f 14 15 16
f 18 3 23
f 23 17 18
f 1 3 7
f 1 23 3
f 17 23 1
f 2 27 22
f 7 6 2
f 2 6 5
f 5 27 2
f 2 1 7
f 22 17 2
f 17 1 2
f 12 28 26
f 26 21 5
f 5 12 26
f 26 20 21
f 26 28 20

