# https://github.com/mikedh/trimesh
v -0.11588846 0.01927114 -0.07355931
v -0.11568603 0.01765068 -0.07543206
v -0.11566532 0.02107433 -0.07352285
v -0.11847046 0.01782091 -0.07494371
v -0.11848352 0.01971691 -0.07353406
v -0.11848599 0.02209331 -0.07403703
v -0.11565754 0.02277858 -0.07518076
v -0.11846579 0.02295118 -0.07713684
v -0.11570321 0.02280108 -0.07733191
v -0.11569656 0.02090704 -0.07874469
v -0.11850384 0.02041706 -0.07883428
v -0.11568961 0.01853293 -0.07824056
v -0.11849944 0.01805979 -0.07774344
v -0.10398811 0.02033740 -0.07735721
v -0.10410251 0.02182893 -0.07671388
v -0.10392611 0.01935754 -0.07681430
v -0.10411872 0.01911054 -0.07592630
v -0.10377861 0.02051519 -0.07513163
v -0.10417732 0.01993062 -0.07498481
v -0.10423221 0.02089238 -0.07501936
v -0.10424937 0.02033125 -0.07769658
v -0.10433394 0.01887738 -0.07681291
v -0.10447222 0.02018891 -0.07459273
v -0.10440429 0.01900900 -0.07532508
v -0.10454731 0.02140396 -0.07506124
v -0.10462394 0.02185583 -0.07644998
v -0.10470391 0.02056268 -0.07771383
v -0.10480324 0.01903263 -0.07703426
v -0.10493257 0.01899720 -0.07515826
v -0.10504061 0.02100558 -0.07472054
v -0.11853723 0.01909690 -0.07536238
v -0.11854429 0.02049682 -0.07467886
v -0.11852709 0.02152836 -0.07538136
v -0.11853616 0.02159187 -0.07680275
v -0.11852367 0.02031196 -0.07759843
v -0.11853616 0.01903207 -0.07680275
f 34 8 11
f 29 1 2
f 2 1 4
f 4 13 2
f 33 34 32
f 11 13 36
f 32 34 36
f 11 8 10
f 12 13 11
f 11 10 12
f 1 29 23
f 23 3 1
f 1 3 5
f 5 4 1
f 35 34 11
f 11 36 35
f 35 36 34
f 32 36 31
f 31 5 32
f 4 5 31
f 13 4 31
f 31 36 13
f 9 10 8
f 8 7 9
f 21 10 27
f 21 12 10
f 18 23 19
f 3 23 30
f 6 5 3
f 6 7 8
f 6 33 32
f 32 5 6
f 8 34 6
f 34 33 6
f 15 21 27
f 27 10 15
f 10 9 15
f 15 9 7
f 12 21 28
f 24 23 29
f 24 19 23
f 18 19 24
f 24 29 2
f 7 6 25
f 3 30 25
f 25 6 3
f 18 15 25
f 25 30 23
f 26 15 7
f 7 25 26
f 26 25 15
f 16 21 14
f 21 15 14
f 18 16 14
f 14 15 18
f 22 21 16
f 22 28 21
f 22 24 2
f 2 13 22
f 13 12 22
f 12 28 22
f 20 23 18
f 18 25 20
f 20 25 23
f 17 22 16
f 24 22 17
f 17 16 18
f 18 24 17

