# https://github.com/mikedh/trimesh
v -0.01039368 -0.05028712 -0.03316073
v -0.00935077 -0.05010732 -0.03594032
v -0.01208675 -0.05145062 -0.03597510
v -0.01196704 -0.05132410 -0.03317115
v -0.01244256 -0.05367730 -0.03317020
v -0.01232061 -0.05403533 -0.03597258
v -0.01007840 -0.05565925 -0.03317755
v -0.01008447 -0.05563750 -0.03592230
v -0.00785006 -0.05469733 -0.03596393
v -0.00716736 -0.05388645 -0.03318370
v -0.00709737 -0.05239890 -0.03595987
v -0.00802524 -0.05078668 -0.03316347
v -0.00979565 -0.05387925 -0.04785350
v -0.00876289 -0.05351677 -0.04766245
v -0.00892459 -0.05417285 -0.04742830
v -0.00891518 -0.05237912 -0.04788215
v -0.00841216 -0.05308395 -0.04755717
v -0.00937838 -0.05174895 -0.04753315
v -0.01078087 -0.05256112 -0.04787087
v -0.01111930 -0.05377020 -0.04748137
v -0.00870520 -0.05176983 -0.04728215
v -0.01067721 -0.05150962 -0.04720905
v -0.01122478 -0.05372720 -0.04706272
v -0.00927754 -0.05437885 -0.04695033
v -0.01026266 -0.05138862 -0.04671743
v -0.01141519 -0.05285182 -0.04663253
v -0.01056698 -0.05421200 -0.04655072
v -0.00880408 -0.05419065 -0.04648360
v -0.00845021 -0.05203200 -0.04631315
v -0.01145640 -0.05288480 -0.04612710
v -0.00974293 -0.05452250 -0.04597645
v -0.00826686 -0.05232865 -0.04538815
v -0.00831007 -0.05324880 -0.04689045
v -0.00990858 -0.05140525 -0.03311713
v -0.01105230 -0.05362380 -0.03312487
v -0.00990858 -0.05437272 -0.03311713
v -0.00854303 -0.05361852 -0.03310030
v -0.00854369 -0.05217377 -0.03311320
f 1 12 2
f 2 22 1
f 11 12 10
f 12 1 34
f 3 1 22
f 25 22 2
f 21 25 2
f 21 12 11
f 2 12 21
f 4 3 5
f 1 3 4
f 4 34 1
f 5 3 6
f 6 20 8
f 26 3 22
f 22 19 26
f 26 19 20
f 28 9 15
f 18 21 16
f 16 19 18
f 18 19 22
f 22 25 18
f 25 21 18
f 16 21 17
f 20 19 13
f 13 19 16
f 8 9 7
f 7 9 10
f 7 36 5
f 10 37 7
f 7 37 36
f 5 6 7
f 7 6 8
f 34 4 35
f 35 37 34
f 36 37 35
f 5 36 35
f 35 4 5
f 12 34 38
f 34 37 38
f 38 10 12
f 38 37 10
f 20 6 23
f 23 26 20
f 6 26 23
f 30 6 3
f 3 26 30
f 30 26 6
f 29 21 11
f 29 17 21
f 33 28 15
f 15 17 33
f 9 28 33
f 10 9 33
f 11 10 33
f 33 17 11
f 20 13 24
f 24 13 15
f 8 31 24
f 24 9 8
f 15 9 24
f 14 17 15
f 15 13 14
f 16 17 14
f 14 13 16
f 11 17 32
f 32 29 11
f 17 29 32
f 20 24 27
f 27 24 31
f 8 20 27
f 27 31 8

