# https://github.com/mikedh/trimesh
v 0.18499836 -0.18067828 0.04966793
v 0.18506384 -0.18074377 0.04573093
v 0.19404991 -0.18072037 0.04966793
v 0.19403231 -0.18070277 0.04573093
v 0.19445714 -0.17148964 0.04567763
v 0.18461461 -0.17172542 0.04569473
v 0.18503939 -0.17030073 0.03532895
v 0.18502178 -0.16636376 0.03531135
v 0.19400786 -0.17030073 0.03528790
v 0.19407333 -0.16636376 0.03535336
v 0.19445714 -0.16636374 0.04966793
v 0.18461461 -0.16636374 0.04966793
v 0.19445714 -0.17032561 0.04425693
v 0.18461461 -0.17038969 0.04462107
f 13 9 10
f 10 11 13
f 9 8 10
f 10 8 11
f 13 11 5
f 11 3 5
f 6 2 1
f 2 3 1
f 11 8 12
f 6 1 12
f 6 12 14
f 14 12 8
f 7 9 2
f 7 8 9
f 7 14 8
f 7 2 6
f 6 14 7
f 4 5 3
f 2 9 4
f 4 3 2
f 4 9 13
f 13 5 4
f 12 1 3
f 12 3 11

