# https://github.com/mikedh/trimesh
v -0.10940959 0.09199871 -0.08741730
v -0.10924958 0.09187748 -0.08833404
v -0.11038061 0.08962891 -0.08745873
v -0.11025029 0.08956071 -0.08832073
v -0.10884901 0.08751926 -0.08743931
v -0.10863176 0.08760553 -0.08832205
v -0.10625118 0.08779901 -0.08745071
v -0.10630708 0.08796116 -0.08834376
v -0.10516715 0.09015826 -0.08744938
v -0.10531433 0.09018451 -0.08831693
v -0.10672386 0.09232888 -0.08744558
v -0.10687439 0.09222781 -0.08832568
v -0.10940221 0.09210583 -0.08630581
v -0.10891128 0.08747038 -0.08628418
v -0.10526793 0.08921106 -0.08634518
v -0.10664618 0.09237688 -0.08628956
v -0.10803793 0.09226681 -0.08550888
v -0.10507899 0.09018999 -0.08619771
v -0.10616718 0.08773566 -0.08628366
v -0.11048788 0.08962728 -0.08628749
v -0.10616925 0.08775776 -0.08515861
v -0.10510210 0.09015086 -0.08517978
v -0.10669128 0.09240233 -0.08514385
v -0.10887021 0.08743211 -0.08513070
v -0.11048063 0.08961438 -0.08512368
v -0.10669349 0.09231086 -0.08407998
v -0.10702336 0.09215791 -0.08311886
v -0.10565428 0.09096944 -0.08338768
v -0.10511286 0.09020066 -0.08408698
v -0.10560183 0.08898206 -0.08333945
v -0.10619340 0.08775826 -0.08408688
v -0.10700208 0.08774033 -0.08308916
v -0.10885133 0.08744376 -0.08402429
v -0.10837681 0.08765584 -0.08308071
v -0.10993996 0.08899819 -0.08311049
v -0.11045480 0.08964503 -0.08408955
v -0.10996514 0.09085261 -0.08335266
v -0.10978933 0.09095408 -0.08290899
v -0.10528738 0.08981494 -0.08294526
v -0.10847606 0.09221406 -0.08294526
v -0.10926836 0.09205776 -0.08363519
v -0.10913051 0.08923038 -0.08865113
v -0.10824669 0.08846688 -0.08860961
v -0.10667798 0.08880216 -0.08857113
v -0.10778531 0.09137326 -0.08846643
v -0.10635691 0.09036911 -0.08852503
f 36 35 38
f 38 35 34
f 34 39 38
f 32 39 34
f 16 28 18
f 23 28 16
f 9 16 18
f 11 16 9
f 13 11 12
f 12 1 13
f 13 16 11
f 13 1 20
f 15 9 18
f 20 1 3
f 1 4 3
f 2 1 12
f 2 4 1
f 18 28 29
f 29 28 39
f 39 15 29
f 26 28 23
f 39 28 27
f 28 26 27
f 37 36 38
f 37 13 20
f 30 15 39
f 31 15 30
f 30 39 32
f 32 31 30
f 21 31 19
f 19 15 21
f 21 15 31
f 7 15 19
f 7 8 15
f 9 15 10
f 15 8 10
f 12 11 10
f 11 9 10
f 8 7 6
f 19 31 33
f 33 31 32
f 32 34 33
f 33 34 35
f 22 15 18
f 18 29 22
f 22 29 15
f 23 16 17
f 16 13 17
f 25 37 20
f 36 37 25
f 20 14 25
f 35 36 25
f 25 33 35
f 44 10 8
f 4 6 5
f 5 3 4
f 5 14 20
f 19 14 5
f 20 3 5
f 5 7 19
f 5 6 7
f 24 14 19
f 19 33 24
f 24 25 14
f 33 25 24
f 40 27 26
f 40 26 23
f 23 17 40
f 40 17 13
f 38 39 40
f 39 27 40
f 12 10 46
f 10 44 46
f 42 6 4
f 4 2 42
f 42 46 44
f 38 40 41
f 41 37 38
f 41 40 13
f 13 37 41
f 6 42 43
f 43 42 44
f 8 6 43
f 43 44 8
f 12 46 45
f 46 42 45
f 45 2 12
f 45 42 2

