# https://github.com/mikedh/trimesh
v 0.09443635 0.16978554 -0.09733162
v 0.09708677 0.16613796 -0.09847380
v 0.09381172 0.16618971 -0.09650539
v 0.09359552 0.16984962 -0.09486885
v 0.09383020 0.16606817 -0.09374779
v 0.09436975 0.16989834 -0.09280539
v 0.09609452 0.16613122 -0.09153919
v 0.09687407 0.16982922 -0.09141197
v 0.09953320 0.16618777 -0.09255491
v 0.10015275 0.16977977 -0.09335999
v 0.10037102 0.16611764 -0.09502239
v 0.10014377 0.16989834 -0.09613902
v 0.09959795 0.16606972 -0.09707832
v 0.09787463 0.16983467 -0.09835139
v 0.09838215 0.14825452 -0.09534210
v 0.09750634 0.14849362 -0.09343844
v 0.09620122 0.14825209 -0.09372462
v 0.09843157 0.14857202 -0.09440946
v 0.09824810 0.14865822 -0.09596989
v 0.09592875 0.14860131 -0.09658449
v 0.09537565 0.14890897 -0.09489321
v 0.09600877 0.14879702 -0.09311155
v 0.09840532 0.14885647 -0.09332604
v 0.09891937 0.14901069 -0.09568446
v 0.09743352 0.14911384 -0.09696657
v 0.09556075 0.14921284 -0.09645204
v 0.09493842 0.14934020 -0.09445070
v 0.09647797 0.14948291 -0.09291944
v 0.09907655 0.14964572 -0.09497652
v 0.09764445 0.14978387 -0.09696662
v 0.09662532 0.16991159 -0.09330579
v 0.09526878 0.16994671 -0.09560794
f 12 10 11
f 8 10 12
f 5 6 4
f 6 5 22
f 26 1 2
f 4 1 3
f 3 5 4
f 1 26 3
f 11 24 13
f 13 12 11
f 31 6 8
f 8 12 31
f 4 6 32
f 32 1 4
f 6 31 32
f 32 31 12
f 9 10 8
f 8 23 9
f 9 23 10
f 29 24 11
f 29 23 24
f 11 10 29
f 10 23 29
f 8 6 7
f 6 22 7
f 7 23 8
f 16 22 17
f 23 22 16
f 17 15 16
f 16 15 23
f 27 22 5
f 5 3 27
f 27 3 26
f 17 22 27
f 30 13 24
f 12 13 14
f 2 1 14
f 14 30 2
f 13 30 14
f 1 32 14
f 14 32 12
f 24 23 18
f 18 15 24
f 23 15 18
f 28 22 23
f 23 7 28
f 28 7 22
f 17 27 21
f 20 26 2
f 20 15 17
f 17 21 20
f 20 27 26
f 20 21 27
f 15 20 25
f 25 30 24
f 2 30 25
f 25 20 2
f 24 15 19
f 19 25 24
f 15 25 19

