# https://github.com/mikedh/trimesh
v -0.10559101 -0.16760627 0.07624102
v -0.10575678 -0.16672299 0.07626249
v -0.10708073 -0.16673135 0.07830599
v -0.10704728 -0.16760131 0.07844167
v -0.10964414 -0.16674010 0.07811049
v -0.10959847 -0.16760254 0.07830304
v -0.11079469 -0.16759896 0.07591474
v -0.11063552 -0.16669759 0.07597932
v -0.10956881 -0.16674249 0.07400214
v -0.10940917 -0.16761122 0.07377087
v -0.10680929 -0.16673862 0.07402089
v -0.10682721 -0.16761642 0.07385244
v -0.11038709 -0.16843034 0.07511107
v -0.11010814 -0.16846386 0.07754937
v -0.10956546 -0.16876450 0.07834397
v -0.11081656 -0.16875224 0.07598527
v -0.10947614 -0.16877797 0.07370637
v -0.10548656 -0.16875596 0.07624987
v -0.10672656 -0.16879472 0.07380622
v -0.11031294 -0.16956854 0.07712967
v -0.10695976 -0.16878599 0.07852854
v -0.10693369 -0.16987894 0.07846462
v -0.10676712 -0.16990557 0.07383677
v -0.10622107 -0.17065282 0.07740089
v -0.10942739 -0.16989224 0.07368874
v -0.11030637 -0.17073054 0.07498494
v -0.10969156 -0.16992629 0.07836544
v -0.10824579 -0.17063872 0.07847097
v -0.10562956 -0.17095627 0.07633757
v -0.10704140 -0.17095989 0.07840912
v -0.11079034 -0.17095925 0.07595872
v -0.10622609 -0.17171977 0.07740564
v -0.10593636 -0.17166877 0.07538247
v -0.10836116 -0.17194719 0.07378624
v -0.11006186 -0.17192687 0.07469889
v -0.10941612 -0.17097004 0.07370639
v -0.11045444 -0.17191807 0.07666387
v -0.10970236 -0.17100961 0.07834294
v -0.10966979 -0.17203614 0.07789242
v -0.10800736 -0.17192774 0.07840887
v -0.10616169 -0.17215132 0.07726247
v -0.10627323 -0.17211174 0.07455612
v -0.10675393 -0.17132309 0.07392687
v -0.10830818 -0.17207599 0.07451384
v -0.10916339 -0.16644741 0.07727892
v -0.10958357 -0.17202869 0.07547282
v -0.10973654 -0.16648589 0.07578064
v -0.10687039 -0.16659259 0.07626969
v -0.10697716 -0.16659060 0.07530904
v -0.10859736 -0.16653202 0.07465802
f 16 31 20
f 20 31 37
f 18 41 29
f 37 31 35
f 32 41 18
f 41 32 30
f 41 42 33
f 33 29 41
f 33 42 18
f 18 29 33
f 37 35 46
f 26 35 31
f 18 21 24
f 24 32 18
f 21 32 24
f 22 32 21
f 21 30 22
f 22 30 32
f 38 20 37
f 3 4 1
f 1 21 18
f 1 4 21
f 42 43 19
f 19 43 23
f 18 42 19
f 19 1 18
f 11 1 19
f 34 43 42
f 23 43 34
f 34 19 23
f 40 30 21
f 41 30 40
f 21 4 6
f 6 4 3
f 7 31 16
f 7 26 31
f 7 13 26
f 26 13 17
f 17 19 25
f 12 10 11
f 11 19 12
f 12 17 10
f 19 17 12
f 44 34 42
f 44 42 41
f 44 46 35
f 35 34 44
f 25 19 36
f 19 34 36
f 36 34 35
f 35 26 36
f 36 17 25
f 26 17 36
f 28 40 21
f 38 40 28
f 39 38 37
f 39 40 38
f 37 46 39
f 41 40 39
f 39 44 41
f 46 44 39
f 3 48 45
f 47 8 45
f 20 38 14
f 16 20 14
f 14 7 16
f 47 45 50
f 2 1 11
f 3 1 2
f 2 48 3
f 9 17 13
f 10 17 9
f 13 7 9
f 9 7 8
f 9 8 47
f 47 50 9
f 11 10 9
f 9 50 11
f 38 28 27
f 27 14 38
f 6 14 27
f 27 28 21
f 5 14 6
f 5 45 8
f 8 7 5
f 7 14 5
f 5 6 3
f 3 45 5
f 11 50 49
f 49 2 11
f 48 2 49
f 49 45 48
f 49 50 45
f 21 6 15
f 15 27 21
f 6 27 15

