# https://github.com/mikedh/trimesh
v 0.20814283 0.17298910 0.11262664
v 0.20531156 0.17352821 0.11430486
v 0.20441851 0.17230196 0.11217034
v 0.20104146 0.17547383 0.11534069
v 0.20040133 0.17607334 0.11473886
v 0.20065430 0.17521053 0.11518919
v 0.19990736 0.17624966 0.11305637
v 0.20060011 0.17652526 0.11444187
v 0.19958961 0.17459503 0.11312727
v 0.19977664 0.17406311 0.11412359
v 0.19953821 0.17559301 0.11316769
v 0.20474322 0.17778791 0.11293281
v 0.20783219 0.17769360 0.11182859
v 0.20670340 0.17679673 0.10908509
v 0.20154661 0.17465904 0.11516614
v 0.20851724 0.17538309 0.11359581
v 0.20549807 0.17557406 0.11474627
v 0.20083181 0.17358721 0.11460221
v 0.19968396 0.17434908 0.11271852
v 0.20055336 0.17407291 0.11479554
v 0.20622208 0.17509653 0.10853859
v 0.20351076 0.17392965 0.11006517
v 0.20352986 0.17627315 0.10990029
v 0.20733917 0.17228231 0.11125152
v 0.20682998 0.17309604 0.10937659
v 0.19994206 0.17622366 0.11376194
v 0.20803447 0.17556509 0.11226557
v 0.20022191 0.17577493 0.11253069
v 0.20794196 0.17415888 0.11204222
v 0.20015173 0.17556379 0.11506529
v 0.20761306 0.17647663 0.11125239
v 0.20740342 0.17365159 0.11073967
f 21 23 14
f 16 2 1
f 1 29 16
f 28 19 11
f 23 19 28
f 22 23 21
f 22 19 23
f 3 2 18
f 19 22 3
f 18 10 3
f 3 10 19
f 24 1 3
f 3 1 2
f 13 14 12
f 12 14 23
f 27 13 16
f 16 29 27
f 29 1 32
f 32 27 29
f 18 2 15
f 17 2 16
f 17 12 4
f 17 15 2
f 4 15 17
f 16 13 17
f 13 12 17
f 11 19 9
f 9 10 11
f 19 10 9
f 30 26 11
f 11 10 30
f 25 22 21
f 24 3 25
f 25 3 22
f 25 1 24
f 25 32 1
f 21 14 25
f 14 32 25
f 7 12 23
f 23 28 7
f 11 26 7
f 7 28 11
f 31 32 14
f 27 32 31
f 31 14 13
f 13 27 31
f 4 30 6
f 6 15 4
f 20 10 18
f 20 30 10
f 20 6 30
f 18 15 20
f 15 6 20
f 4 12 8
f 26 30 8
f 8 7 26
f 12 7 8
f 5 30 4
f 4 8 5
f 5 8 30

