# https://github.com/mikedh/trimesh
v 0.16950844 -0.19941096 -0.04277598
v 0.17163884 -0.19881157 -0.04088056
v 0.17212654 -0.19868731 -0.03785728
v 0.17446374 -0.18482333 -0.02970091
v 0.17574486 -0.18266679 -0.03056711
v 0.17422627 -0.17997997 -0.03092531
v 0.16511442 -0.18013664 -0.05274521
v 0.16528592 -0.18332951 -0.05436889
v 0.16464547 -0.18835928 -0.05398659
v 0.17384812 -0.19314911 -0.03157054
v 0.17485952 -0.19091148 -0.03036686
v 0.17382696 -0.19552399 -0.03324231
v 0.17220932 -0.19639706 -0.03483634
v 0.17020422 -0.19887206 -0.03981471
v 0.16705902 -0.17805646 -0.05191386
v 0.17513452 -0.19292118 -0.03255356
v 0.16828457 -0.17331161 -0.04586303
v 0.16825474 -0.17338608 -0.04463774
v 0.17027542 -0.17273784 -0.04065854
v 0.16933982 -0.19731588 -0.04632154
v 0.16609754 -0.18288836 -0.05406058
v 0.16638604 -0.18823997 -0.05359282
v 0.17579501 -0.18773519 -0.03010308
v 0.16492564 -0.19007724 -0.05250587
v 0.16595347 -0.18990359 -0.05396936
v 0.16587774 -0.19446181 -0.05159559
v 0.16800357 -0.19759109 -0.04832336
v 0.16735497 -0.19781136 -0.04744081
v 0.17213435 -0.17326463 -0.03874436
v 0.17064299 -0.17309121 -0.04317886
v 0.16955182 -0.17394842 -0.04159271
v 0.16812055 -0.17426191 -0.04810249
v 0.17464962 -0.17801971 -0.03230311
v 0.17421319 -0.17619846 -0.03462166
v 0.17301932 -0.17501101 -0.03482166
v 0.16672765 -0.19601294 -0.04824114
v 0.17269769 -0.17635301 -0.03383599
v 0.16969764 -0.19889916 -0.04500239
v 0.16732096 -0.19445214 -0.05141336
v 0.17359504 -0.19702604 -0.03561799
v 0.16605662 -0.17674377 -0.05063904
f 37 35 19
f 17 18 19
f 5 4 23
f 30 17 19
f 23 4 11
f 4 10 11
f 13 10 4
f 4 37 13
f 13 36 14
f 19 18 31
f 31 37 19
f 18 37 31
f 41 7 18
f 18 17 41
f 15 7 41
f 6 37 4
f 4 5 6
f 19 35 29
f 29 30 19
f 32 30 15
f 17 30 32
f 15 41 32
f 32 41 17
f 16 5 23
f 23 11 16
f 36 13 24
f 18 7 24
f 24 37 18
f 24 13 37
f 24 7 9
f 14 36 28
f 1 38 2
f 14 28 1
f 1 28 38
f 15 16 39
f 39 16 2
f 33 6 5
f 35 37 33
f 37 6 33
f 30 29 34
f 5 16 34
f 34 33 5
f 15 30 34
f 34 16 15
f 34 29 35
f 35 33 34
f 2 16 40
f 2 38 20
f 20 39 2
f 38 39 20
f 38 28 27
f 27 39 38
f 26 24 9
f 36 24 26
f 26 28 36
f 26 27 28
f 39 27 26
f 10 13 12
f 12 40 16
f 12 11 10
f 12 16 11
f 2 40 3
f 14 1 3
f 3 1 2
f 3 13 14
f 3 12 13
f 40 12 3
f 25 26 9
f 39 26 25
f 15 39 22
f 22 21 15
f 39 25 22
f 22 25 21
f 9 7 8
f 8 25 9
f 21 25 8
f 8 7 15
f 15 21 8

