# https://github.com/mikedh/trimesh
v 0.17040570 0.17699787 -0.03159996
v 0.17205875 0.18143441 -0.02973406
v 0.17072995 0.18035736 -0.02947281
v 0.16275833 0.19536661 -0.04963929
v 0.16531397 0.19854794 -0.04532299
v 0.16440013 0.19684401 -0.04799569
v 0.16190375 0.17925214 -0.05128336
v 0.16350207 0.17593751 -0.04909186
v 0.16281937 0.17588369 -0.04834676
v 0.16477284 0.19877984 -0.04376143
v 0.16647062 0.19944358 -0.04068406
v 0.16757165 0.17358884 -0.03661258
v 0.16925720 0.17764049 -0.03257339
v 0.16226735 0.18142522 -0.05255871
v 0.16120889 0.18156274 -0.05141896
v 0.16261262 0.19593381 -0.04853531
v 0.17161182 0.18648491 -0.02824911
v 0.17225435 0.18684576 -0.02887471
v 0.17210100 0.19071566 -0.03012116
v 0.17070584 0.19225822 -0.02970948
v 0.16339877 0.19208901 -0.05095501
v 0.16094117 0.18541749 -0.05211351
v 0.16129065 0.19076559 -0.05116799
v 0.16130769 0.18657549 -0.05315122
v 0.16399018 0.17764614 -0.04953739
v 0.16655567 0.17252379 -0.04119976
v 0.16833315 0.17315558 -0.03832351
v 0.16899112 0.17534172 -0.03339299
v 0.16825807 0.19639564 -0.03477456
v 0.16568830 0.19847443 -0.04050263
v 0.16472027 0.17381846 -0.04283221
v 0.16981107 0.17476149 -0.03453394
v 0.16545789 0.17417069 -0.04588741
v 0.16488269 0.17325424 -0.04443729
v 0.16756945 0.19840384 -0.03656489
v 0.16949673 0.19780344 -0.03522374
v 0.16794237 0.19912744 -0.03928064
v 0.17073384 0.18657553 -0.02860229
v 0.17076287 0.17669434 -0.03328173
v 0.16258928 0.19170699 -0.05212654
v 0.16163057 0.19110544 -0.05204941
v 0.16933850 0.19609704 -0.03265448
v 0.17091324 0.19486014 -0.03181213
v 0.16250862 0.18474499 -0.05297196
v 0.16883957 0.19758533 -0.03748694
f 30 16 23
f 23 31 30
f 23 24 22
f 12 31 26
f 15 23 22
f 31 23 15
f 22 24 15
f 15 24 14
f 14 7 15
f 14 24 44
f 28 12 32
f 8 7 14
f 26 31 34
f 34 33 26
f 34 8 33
f 21 44 40
f 40 44 24
f 17 20 38
f 38 3 17
f 38 20 42
f 30 31 38
f 30 35 11
f 11 35 37
f 37 5 11
f 36 35 42
f 37 35 36
f 36 45 37
f 21 45 19
f 45 36 19
f 19 17 18
f 19 20 17
f 14 44 25
f 25 8 14
f 33 8 25
f 25 44 21
f 21 19 25
f 1 3 28
f 28 32 1
f 9 34 31
f 31 15 9
f 9 15 7
f 7 8 9
f 8 34 9
f 24 23 41
f 41 40 24
f 41 23 16
f 16 5 6
f 21 40 6
f 6 45 21
f 6 5 37
f 37 45 6
f 29 35 30
f 30 38 29
f 42 35 29
f 29 38 42
f 28 3 13
f 3 38 13
f 13 12 28
f 31 12 13
f 13 38 31
f 10 5 16
f 10 11 5
f 10 16 30
f 30 11 10
f 2 19 18
f 3 1 2
f 18 17 2
f 17 3 2
f 20 19 43
f 43 19 36
f 42 20 43
f 43 36 42
f 33 25 39
f 39 25 19
f 19 2 39
f 39 1 32
f 39 2 1
f 16 6 4
f 4 6 40
f 4 41 16
f 40 41 4
f 33 39 27
f 27 39 32
f 26 33 27
f 27 12 26
f 27 32 12

