# https://github.com/mikedh/trimesh
v 0.16196599 0.18887854 0.10884914
v 0.16319556 0.18854424 0.11135109
v 0.16370156 0.18786503 0.11101361
v 0.16206291 0.18728271 0.10771116
v 0.16230993 0.18582967 0.10717289
v 0.16189476 0.18532489 0.10718044
v 0.16301731 0.18733903 0.10914436
v 0.16352491 0.18702734 0.11041206
v 0.16251281 0.18346623 0.11150309
v 0.16385691 0.18623743 0.11252929
v 0.16365509 0.18438951 0.11203592
v 0.16390734 0.18437098 0.11119326
v 0.16264428 0.18303441 0.10926119
v 0.14651324 0.18799869 0.11001524
v 0.15162983 0.18672287 0.10735104
v 0.14646648 0.18495144 0.11002579
v 0.15508873 0.18008896 0.11570761
v 0.14907936 0.17944469 0.11474231
v 0.15378686 0.17952038 0.11270641
v 0.14952406 0.19262253 0.11585184
v 0.15435123 0.19247586 0.11393544
v 0.14801064 0.19195639 0.11325231
v 0.16300541 0.18856921 0.10925199
v 0.14705054 0.18281277 0.11018093
v 0.14766511 0.18064009 0.11305376
v 0.15075444 0.18333911 0.12051538
v 0.15653559 0.18536266 0.11934237
v 0.14963176 0.19156224 0.11774091
v 0.16114872 0.18445996 0.10756664
v 0.15174904 0.18343497 0.10777886
v 0.15181446 0.18542849 0.12138136
v 0.15106263 0.18723677 0.12100108
v 0.16406575 0.18620984 0.11180201
v 0.16118741 0.18695162 0.10728729
v 0.15636023 0.18862324 0.11878739
v 0.15305429 0.19203542 0.11092761
v 0.14980674 0.18011442 0.11764049
v 0.15099320 0.18930387 0.12044936
v 0.16305354 0.18370049 0.10900834
f 17 18 19
f 25 28 16
f 19 18 25
f 25 30 19
f 27 35 31
f 18 17 37
f 37 25 18
f 16 28 14
f 11 27 17
f 20 28 21
f 28 35 21
f 35 2 21
f 21 36 20
f 21 2 23
f 16 30 24
f 24 25 16
f 30 25 24
f 31 35 38
f 38 35 28
f 28 25 26
f 25 37 26
f 26 37 17
f 26 27 31
f 17 27 26
f 14 36 15
f 15 30 16
f 16 14 15
f 15 36 34
f 15 6 30
f 20 36 22
f 22 36 14
f 22 28 20
f 22 14 28
f 34 36 1
f 1 21 23
f 36 21 1
f 9 11 17
f 19 30 13
f 13 17 19
f 13 9 17
f 11 9 13
f 13 12 11
f 5 15 34
f 6 15 5
f 23 2 3
f 27 11 10
f 35 27 10
f 10 12 33
f 11 12 10
f 10 2 35
f 33 3 10
f 10 3 2
f 32 38 28
f 28 26 32
f 31 38 32
f 32 26 31
f 30 6 29
f 29 13 30
f 6 13 29
f 34 1 4
f 4 5 34
f 4 1 23
f 23 5 4
f 12 5 8
f 23 3 8
f 33 12 8
f 8 3 33
f 39 13 6
f 6 5 39
f 12 13 39
f 39 5 12
f 7 5 23
f 23 8 7
f 7 8 5

