# https://github.com/mikedh/trimesh
v 0.16028132 -0.18227842 -0.04301581
v 0.15842937 -0.18268581 -0.04756696
v 0.15963387 -0.19078408 -0.04723884
v 0.16058952 -0.19086526 -0.04482746
v 0.15906125 -0.19073949 -0.04652161
v 0.15833799 -0.18988799 -0.04829664
v 0.15872504 -0.18918974 -0.04939111
v 0.15793732 -0.18810214 -0.04991106
v 0.15952752 -0.18110711 -0.04690429
v 0.15925382 -0.18128139 -0.04576401
v 0.16099556 -0.18161056 -0.04363249
v 0.16153454 -0.18459106 -0.04129148
v 0.16135879 -0.18295094 -0.04214691
v 0.16085392 -0.18653644 -0.04153181
v 0.16188354 -0.18682071 -0.04120924
v 0.16111127 -0.18823803 -0.04159611
v 0.16187347 -0.18888724 -0.04243134
v 0.16117392 -0.18999634 -0.04298839
v 0.16201394 -0.18338256 -0.04261376
v 0.16232867 -0.18553173 -0.04193351
v 0.15877212 -0.18713206 -0.05026286
v 0.15802102 -0.18532333 -0.05033621
v 0.15902797 -0.18405561 -0.04986454
v 0.15789079 -0.18395651 -0.04980761
v 0.15914632 -0.18221669 -0.04882953
v 0.16075724 -0.18155473 -0.04572536
v 0.16025657 -0.19047459 -0.04689276
v 0.16175737 -0.18941381 -0.04332398
v 0.15941937 -0.18901099 -0.04896311
v 0.15792614 -0.18300897 -0.04877806
v 0.15752227 -0.18657908 -0.04967241
v 0.15995612 -0.19041893 -0.04393946
v 0.15833970 -0.18923661 -0.04772669
v 0.15994117 -0.18969642 -0.04385404
f 24 22 31
f 31 14 1
f 31 22 8
f 9 26 25
f 21 8 22
f 7 8 21
f 30 24 31
f 31 1 30
f 30 1 2
f 9 25 30
f 30 25 24
f 12 1 14
f 2 1 10
f 9 30 10
f 10 30 2
f 33 14 31
f 7 21 29
f 23 25 26
f 26 29 23
f 23 29 21
f 23 21 22
f 22 24 23
f 24 25 23
f 20 26 19
f 19 12 20
f 11 10 1
f 11 19 26
f 11 26 9
f 9 10 11
f 34 32 14
f 14 33 34
f 34 33 32
f 32 33 5
f 27 29 28
f 28 26 20
f 28 29 26
f 20 12 15
f 15 12 14
f 12 19 13
f 19 11 13
f 1 12 13
f 13 11 1
f 6 5 33
f 31 8 6
f 6 33 31
f 6 8 7
f 32 5 4
f 4 18 32
f 27 28 4
f 4 28 18
f 16 15 14
f 14 32 16
f 32 18 16
f 18 28 17
f 17 16 18
f 15 16 17
f 17 28 20
f 20 15 17
f 27 4 3
f 3 4 5
f 5 6 3
f 3 6 7
f 3 29 27
f 7 29 3

