# https://github.com/mikedh/trimesh
v -0.21559226 -0.18067825 0.04966790
v -0.21552677 -0.18074371 0.04573090
v -0.20654061 -0.18072031 0.04966790
v -0.20655820 -0.18070268 0.04573090
v -0.20613344 -0.17172418 0.04569791
v -0.21597593 -0.17136883 0.04563887
v -0.21555118 -0.17030070 0.03532892
v -0.21556878 -0.16636373 0.03531133
v -0.20658266 -0.17030070 0.03528789
v -0.20651724 -0.16636373 0.03535335
v -0.20613344 -0.16636371 0.04966790
v -0.21597593 -0.16636371 0.04966790
v -0.20613344 -0.17039854 0.04466987
v -0.21597593 -0.17033158 0.04430282
f 13 9 10
f 10 11 13
f 9 8 10
f 10 8 11
f 13 11 5
f 11 3 5
f 5 9 13
f 6 2 1
f 2 3 1
f 11 8 12
f 6 1 12
f 14 2 6
f 6 12 14
f 14 12 8
f 7 9 2
f 7 8 9
f 2 14 7
f 7 14 8
f 9 5 4
f 4 5 3
f 2 9 4
f 4 3 2
f 12 1 3
f 12 3 11

