# https://github.com/mikedh/trimesh
v 0.08385344 -0.10627826 0.00705033
v 0.08242287 -0.10513525 -0.00581482
v 0.08357810 -0.10523523 -0.00350012
v 0.08268249 -0.10628053 -0.00317264
v 0.08143025 -0.10573238 -0.00340252
v 0.08129782 -0.10476320 -0.00305354
v 0.08137252 -0.10581843 -0.00294040
v 0.08267452 -0.10643161 -0.00276689
v 0.08386422 -0.10528793 -0.00263719
v 0.08366390 -0.10430848 -0.00260867
v 0.08257937 -0.10396153 -0.00327009
v 0.08349190 -0.10782984 0.00704488
v 0.08520865 -0.10537854 0.00704921
v 0.08389477 -0.10266911 0.00704466
v 0.08092540 -0.10291781 0.00703128
v 0.07960627 -0.10630631 0.00702396
v 0.08103400 -0.10460941 -0.00224254
v 0.08114492 -0.10587918 -0.00206924
v 0.08216309 -0.10364056 -0.00239899
v 0.08128572 -0.10656428 0.00704788
v 0.08354594 -0.10371950 0.00705033
v 0.08267617 -0.10438681 0.00705251
v 0.08100865 -0.10401804 0.00704788
v 0.08147415 -0.10629863 -0.00096479
v 0.08389045 -0.10551161 -0.00172292
v 0.08250432 -0.10671949 -0.00190710
f 23 15 16
f 14 15 23
f 10 14 13
f 16 15 17
f 16 26 12
f 16 17 18
f 19 17 15
f 19 15 14
f 14 23 21
f 23 22 21
f 13 14 21
f 21 22 13
f 1 12 13
f 13 22 1
f 20 22 23
f 20 23 16
f 16 12 20
f 12 1 20
f 20 1 22
f 24 26 16
f 16 18 24
f 24 18 26
f 2 26 5
f 5 18 17
f 13 12 25
f 2 10 3
f 14 10 11
f 11 19 14
f 11 10 2
f 2 19 11
f 26 18 7
f 7 5 26
f 18 5 7
f 2 5 6
f 6 5 17
f 6 19 2
f 17 19 6
f 8 12 26
f 8 25 12
f 25 8 9
f 9 3 10
f 9 10 13
f 13 25 9
f 2 3 4
f 4 26 2
f 4 8 26
f 3 9 4
f 4 9 8

