# https://github.com/mikedh/trimesh
v -0.08958582 -0.00856636 -0.07873931
v -0.08702416 0.03862568 -0.04316328
v -0.08952577 0.00152777 -0.00185793
v -0.08945309 0.01756682 -0.00549813
v -0.08953197 0.02568701 -0.01127096
v -0.08948572 0.03085113 -0.01632963
v -0.08950894 0.03752191 -0.02929983
v -0.08944344 0.03953176 -0.04056371
v -0.08952444 0.03204128 -0.06384716
v -0.08957894 0.01661205 -0.07628484
v -0.08952882 0.00079824 -0.08015356
v -0.08929104 -0.01244455 -0.07882218
v -0.08946757 -0.02536558 -0.07122189
v -0.08957399 -0.03247262 -0.06243521
v -0.08963234 -0.03728844 -0.05237306
v -0.08945837 -0.03929849 -0.04516438
v -0.08950895 -0.03786872 -0.03047743
v -0.08942735 -0.03418157 -0.02095478
v -0.08952277 -0.01829989 -0.00600348
v -0.08827607 0.00382043 -0.00094301
v -0.08912290 0.01082802 -0.00261071
v -0.08861274 0.02616971 -0.01064921
v -0.08861367 0.03646041 -0.02422206
v -0.08827736 0.03963981 -0.03439403
v -0.08904641 0.03854668 -0.05154223
v -0.08871884 0.03443396 -0.06147418
v -0.08861272 0.02902773 -0.06853986
v -0.08889544 0.02190575 -0.07449488
v -0.08861276 0.01316163 -0.07877513
v -0.08891614 0.00354374 -0.08082708
v -0.08861274 -0.00563066 -0.08060238
v -0.08861274 -0.01996216 -0.07566993
v -0.08854247 -0.03401274 -0.06242893
v -0.08861275 -0.03840204 -0.05230491
v -0.08827737 -0.03988417 -0.03608633
v -0.08834282 -0.03719309 -0.02548468
v -0.08820117 -0.03060954 -0.01489005
v -0.08912287 -0.02495532 -0.00989325
v -0.08819790 -0.01456448 -0.00348838
v -0.08919352 -0.00590664 -0.00169366
v -0.08765709 0.02105287 -0.00692228
v -0.08785724 0.03076211 -0.01528368
v -0.08709197 0.03439201 -0.02145476
v -0.08705259 0.03851761 -0.03222503
v -0.08751392 0.03977968 -0.04522518
v -0.08757219 0.03600511 -0.05835346
v -0.08704377 0.03116841 -0.06503109
v -0.08740231 0.02719811 -0.07002910
v -0.08735859 0.01962790 -0.07547118
v -0.08707411 0.01249174 -0.07836345
v -0.08752261 0.00629097 -0.08035581
v -0.08709556 -0.00418746 -0.08027221
v -0.08707411 -0.01330390 -0.07808273
v -0.08730494 -0.02089868 -0.07470600
v -0.08793844 -0.02774042 -0.06993913
v -0.08731597 -0.03502744 -0.05965335
v -0.08706840 -0.03793277 -0.05188163
v -0.08793937 -0.03986882 -0.04469443
v -0.08706565 -0.03771049 -0.02932731
v -0.08785230 -0.00429884 -0.00111656
v -0.08793939 -0.02317136 -0.00829883
v -0.08793942 0.01316168 -0.00313903
v -0.08702835 0.01155268 -0.00349688
v -0.08703612 0.02428035 -0.01014955
v -0.08702774 0.03506116 -0.05693495
v -0.08704357 -0.02597127 -0.07056278
v -0.08702792 -0.00139603 -0.00167831
v -0.08703822 -0.01637507 -0.00518631
v -0.08704270 -0.03005799 -0.01538490
v -0.08701232 -0.03906462 -0.04000283
f 2 63 70
f 9 10 7
f 16 17 15
f 17 16 35
f 70 68 69
f 67 63 20
f 70 63 67
f 67 68 70
f 15 3 5
f 5 10 15
f 7 10 5
f 19 17 18
f 15 17 19
f 19 3 15
f 44 2 45
f 57 66 70
f 57 56 66
f 8 9 7
f 59 35 70
f 70 69 59
f 4 5 3
f 38 19 18
f 68 67 60
f 60 67 20
f 45 2 65
f 65 2 70
f 70 66 65
f 66 47 65
f 50 47 66
f 70 35 58
f 58 57 70
f 58 35 16
f 52 50 53
f 53 50 66
f 13 32 55
f 66 56 55
f 13 14 1
f 15 10 1
f 1 14 15
f 25 8 45
f 9 8 25
f 24 8 7
f 24 44 45
f 45 8 24
f 17 35 36
f 35 59 36
f 18 17 36
f 36 59 69
f 21 3 20
f 21 4 3
f 37 38 18
f 18 36 37
f 37 36 69
f 61 69 68
f 19 38 61
f 61 37 69
f 38 37 61
f 3 19 40
f 20 3 40
f 40 60 20
f 51 50 52
f 47 50 49
f 7 5 6
f 23 24 7
f 44 24 23
f 7 6 23
f 23 6 42
f 63 2 64
f 2 44 64
f 34 16 15
f 34 58 16
f 57 58 34
f 56 57 34
f 54 53 66
f 32 53 54
f 66 55 54
f 54 55 32
f 33 14 13
f 13 55 33
f 33 55 56
f 56 34 33
f 15 14 33
f 33 34 15
f 12 32 13
f 13 1 12
f 12 53 32
f 45 65 46
f 46 25 45
f 46 65 47
f 39 61 68
f 19 61 39
f 39 40 19
f 68 60 39
f 60 40 39
f 30 51 52
f 29 49 50
f 50 51 29
f 29 30 10
f 51 30 29
f 48 27 47
f 47 49 48
f 44 23 43
f 43 23 42
f 43 64 44
f 42 64 43
f 63 64 41
f 47 27 26
f 26 46 47
f 26 27 9
f 9 25 26
f 25 46 26
f 11 12 1
f 11 1 10
f 10 30 11
f 28 29 10
f 49 29 28
f 10 9 28
f 9 27 28
f 27 48 28
f 28 48 49
f 63 41 62
f 20 63 62
f 62 21 20
f 4 21 62
f 62 41 4
f 5 4 22
f 4 41 22
f 22 6 5
f 42 6 22
f 22 64 42
f 22 41 64
f 12 11 31
f 31 11 30
f 31 30 52
f 52 53 31
f 53 12 31

