# https://github.com/mikedh/trimesh
v 0.20591010 -0.17661966 -0.04962853
v 0.20797852 -0.18000898 -0.04664536
v 0.20781709 -0.17803446 -0.04835796
v 0.20603751 -0.17556247 -0.05088446
v 0.19913904 -0.18845466 -0.06564786
v 0.20018890 -0.18745196 -0.06700728
v 0.19911849 -0.18604672 -0.06669383
v 0.20025480 -0.18335664 -0.06681571
v 0.20390092 -0.17443092 -0.05483843
v 0.20449840 -0.17413892 -0.05587124
v 0.20678211 -0.19589855 -0.05000938
v 0.20780195 -0.19270692 -0.04698076
v 0.20545004 -0.19618096 -0.05070543
v 0.20124962 -0.17867054 -0.06473624
v 0.19954389 -0.18067869 -0.06557484
v 0.20123064 -0.17693409 -0.06321943
v 0.20120664 -0.19154619 -0.06535249
v 0.19978392 -0.18969904 -0.06652004
v 0.20318559 -0.17566457 -0.06062978
v 0.20231980 -0.17482777 -0.05920093
v 0.20725396 -0.18079497 -0.04635216
v 0.20861514 -0.18469794 -0.04513216
v 0.20783349 -0.18588857 -0.04514123
v 0.20367223 -0.19762079 -0.05511638
v 0.20595010 -0.19726582 -0.05348084
v 0.20389639 -0.19634295 -0.05866276
v 0.20090949 -0.18270224 -0.06563456
v 0.20891417 -0.18233844 -0.04629198
v 0.20307589 -0.17557917 -0.05644616
v 0.20236624 -0.19727136 -0.05866436
v 0.20060964 -0.19461324 -0.06207441
v 0.20143284 -0.19587636 -0.06226470
v 0.20904358 -0.18865471 -0.04603466
v 0.20363975 -0.19760262 -0.05835544
v 0.20830873 -0.18948401 -0.04554796
v 0.20707565 -0.19095997 -0.04650336
v 0.19993047 -0.19313257 -0.06423831
v 0.20826741 -0.19293406 -0.04840431
v 0.20053017 -0.17727954 -0.06228120
v 0.20714806 -0.17637992 -0.05089138
v 0.20563293 -0.17488697 -0.05465256
v 0.20059094 -0.19241487 -0.06539533
v 0.20229745 -0.19567504 -0.06221350
f 17 42 6
f 8 6 7
f 8 17 6
f 7 6 18
f 6 42 18
f 42 37 18
f 14 16 19
f 19 38 17
f 32 37 42
f 14 8 15
f 15 16 14
f 39 16 15
f 15 8 7
f 27 8 14
f 17 8 27
f 14 19 27
f 27 19 17
f 7 18 5
f 5 18 37
f 5 15 7
f 39 15 5
f 17 38 26
f 20 9 10
f 39 9 20
f 20 16 39
f 10 19 20
f 20 19 16
f 29 9 39
f 9 29 1
f 1 39 21
f 1 29 39
f 21 22 2
f 2 1 21
f 3 1 2
f 21 39 36
f 28 22 33
f 33 38 28
f 3 2 28
f 28 2 22
f 43 26 34
f 17 26 43
f 34 32 43
f 42 17 43
f 43 32 42
f 34 26 25
f 25 26 38
f 38 11 25
f 25 24 34
f 25 11 13
f 13 24 25
f 4 1 3
f 10 9 4
f 9 1 4
f 23 22 21
f 21 36 23
f 12 38 33
f 12 11 38
f 13 11 12
f 12 36 13
f 40 28 38
f 3 28 40
f 40 4 3
f 30 32 34
f 34 24 30
f 35 23 36
f 36 12 35
f 35 12 33
f 33 22 35
f 22 23 35
f 38 19 41
f 41 40 38
f 41 19 10
f 10 4 41
f 4 40 41
f 31 30 24
f 31 5 37
f 37 32 31
f 32 30 31
f 31 24 13
f 13 36 31
f 39 5 31
f 31 36 39

