# https://github.com/mikedh/trimesh
v -0.10450304 -0.21346948 0.02620262
v -0.10441529 -0.21551137 0.02640642
v -0.10356262 -0.21245330 0.02641135
v -0.09966494 -0.21292134 0.02620261
v -0.10147704 -0.21197646 0.02640643
v -0.09925704 -0.21424694 0.02641478
v -0.10160927 -0.21738534 0.02620261
v -0.09988492 -0.21628852 0.02640642
v -0.10296193 -0.21707440 0.02641633
v -0.09984668 -0.21294112 0.02356748
v -0.09925241 -0.21512456 0.02359150
v -0.10127757 -0.21732891 0.02362217
v -0.10409662 -0.21623488 0.02359619
v -0.10437096 -0.21319521 0.02361472
v -0.10174152 -0.21186354 0.02358120
v -0.10202247 -0.21335211 0.03404115
v -0.10312296 -0.21444855 0.03418375
v -0.10101512 -0.21441262 0.03445583
v -0.10153982 -0.21613212 0.03395995
v -0.10294571 -0.21571834 0.03404809
v -0.10344279 -0.21394603 0.03388188
v -0.10169284 -0.21305008 0.03377061
v -0.10049495 -0.21398943 0.03368793
v -0.10067936 -0.21554446 0.03361055
v -0.10209519 -0.21613531 0.03351734
v -0.10340439 -0.21513546 0.03344817
v -0.10225449 -0.21306532 0.03331333
v -0.10052667 -0.21373494 0.03318726
v -0.10046171 -0.21530800 0.03264270
v -0.10047359 -0.21469777 0.02355987
v -0.10127746 -0.21329651 0.02356379
v -0.10280657 -0.21351326 0.02356763
v -0.10330044 -0.21481550 0.02356763
v -0.10194126 -0.21597169 0.02357993
f 11 8 12
f 12 8 7
f 3 27 5
f 5 4 15
f 15 3 5
f 6 8 11
f 5 27 22
f 22 4 5
f 34 12 13
f 10 15 4
f 10 6 11
f 4 6 10
f 1 3 14
f 3 15 14
f 9 12 7
f 13 12 9
f 7 8 19
f 18 20 19
f 1 14 2
f 2 14 13
f 13 9 2
f 2 9 20
f 17 20 18
f 23 6 4
f 23 22 18
f 33 34 13
f 13 14 33
f 25 9 7
f 7 19 25
f 20 9 25
f 25 19 20
f 26 2 20
f 18 22 16
f 16 17 18
f 16 22 27
f 4 22 28
f 28 23 4
f 22 23 28
f 24 19 8
f 18 19 24
f 24 23 18
f 32 14 15
f 32 33 14
f 34 33 30
f 30 10 11
f 33 32 30
f 11 12 30
f 12 34 30
f 20 17 21
f 21 26 20
f 17 16 21
f 21 16 27
f 1 2 21
f 2 26 21
f 21 3 1
f 27 3 21
f 8 6 29
f 29 24 8
f 6 23 29
f 23 24 29
f 10 30 31
f 31 30 32
f 15 10 31
f 31 32 15

