# https://github.com/mikedh/trimesh
v -0.11494142 -0.16760627 0.08559144
v -0.11641280 -0.16674081 0.08769309
v -0.11642367 -0.16762759 0.08782757
v -0.11903627 -0.16761589 0.08762067
v -0.11894616 -0.16672622 0.08746029
v -0.12016221 -0.16760311 0.08530839
v -0.12001014 -0.16672299 0.08533274
v -0.11859632 -0.16674477 0.08317704
v -0.11873189 -0.16760389 0.08311859
v -0.11603264 -0.16761662 0.08330107
v -0.11620843 -0.16670969 0.08340862
v -0.11508479 -0.16673219 0.08542504
v -0.11967342 -0.16841512 0.08645142
v -0.11806150 -0.16841457 0.08779112
v -0.11894069 -0.16877124 0.08769274
v -0.12023271 -0.16877685 0.08521314
v -0.11483697 -0.16875596 0.08560024
v -0.11605902 -0.16879517 0.08316859
v -0.11738544 -0.16954929 0.08308917
v -0.11879866 -0.16878856 0.08303067
v -0.11631014 -0.16878597 0.08787894
v -0.11484699 -0.16988062 0.08559474
v -0.11959976 -0.17079599 0.08429079
v -0.11903784 -0.16995969 0.08771577
v -0.11774689 -0.17079471 0.08778072
v -0.11632232 -0.16988837 0.08786422
v -0.11503589 -0.17092519 0.08546612
v -0.11644001 -0.17098619 0.08781127
v -0.11607834 -0.17124354 0.08321774
v -0.11514484 -0.17159102 0.08498154
v -0.11521987 -0.17208279 0.08443394
v -0.11756410 -0.17194266 0.08314064
v -0.11874641 -0.17099986 0.08303127
v -0.11936836 -0.17195421 0.08398597
v -0.12022640 -0.17097014 0.08529324
v -0.11967381 -0.17172929 0.08653329
v -0.11905275 -0.17100961 0.08769334
v -0.11845737 -0.17197987 0.08764887
v -0.11567664 -0.17174652 0.08694489
v -0.11613679 -0.17211174 0.08743577
v -0.11991621 -0.17211174 0.08571217
v -0.11765859 -0.17207601 0.08386419
v -0.11696394 -0.16659272 0.08404254
v -0.11739204 -0.16640585 0.08695474
v -0.11851379 -0.16644741 0.08662932
v -0.11908697 -0.16648589 0.08513109
v -0.11794777 -0.16653202 0.08400842
f 41 31 40
f 38 41 40
f 32 31 42
f 31 41 42
f 32 42 34
f 34 42 41
f 40 31 39
f 5 2 44
f 16 13 6
f 44 2 12
f 29 31 32
f 35 34 41
f 35 13 16
f 16 23 35
f 23 34 35
f 36 38 37
f 41 38 36
f 36 35 41
f 13 35 36
f 40 39 26
f 22 31 17
f 17 39 22
f 45 5 44
f 7 5 45
f 17 12 1
f 1 12 2
f 11 12 10
f 17 31 10
f 10 12 17
f 43 47 44
f 11 47 43
f 44 12 43
f 43 12 11
f 9 6 7
f 16 6 9
f 37 38 25
f 17 1 21
f 21 1 2
f 21 39 17
f 21 26 39
f 21 25 26
f 14 25 21
f 31 22 27
f 27 22 39
f 7 45 46
f 44 47 46
f 46 45 44
f 2 5 4
f 4 15 14
f 4 6 13
f 4 5 7
f 7 6 4
f 31 29 18
f 18 10 31
f 32 34 33
f 33 29 32
f 8 9 7
f 7 46 8
f 8 46 47
f 8 47 11
f 11 10 8
f 10 18 8
f 28 25 38
f 26 25 28
f 28 38 40
f 40 26 28
f 37 25 24
f 24 25 14
f 14 15 24
f 15 4 24
f 24 4 13
f 24 36 37
f 13 36 24
f 3 21 2
f 14 21 3
f 2 4 3
f 3 4 14
f 30 39 31
f 31 27 30
f 30 27 39
f 9 8 20
f 20 8 18
f 16 9 20
f 20 23 16
f 20 34 23
f 20 33 34
f 19 20 18
f 33 20 19
f 19 18 29
f 29 33 19

