# https://github.com/mikedh/trimesh
v 0.04296295 -0.10809548 -0.03734959
v 0.03905957 -0.11514950 -0.04245465
v 0.04043262 -0.11233798 -0.04366335
v 0.04064405 -0.12234918 -0.03099487
v 0.03862912 -0.12778115 -0.03658150
v 0.04158610 -0.12814810 -0.03195572
v 0.05411407 -0.13787418 -0.04337892
v 0.05111150 -0.13767748 -0.04177832
v 0.05129042 -0.13762986 -0.03914422
v 0.05499815 -0.13788477 -0.03728520
v 0.03856012 -0.11624330 -0.04062492
v 0.05094742 -0.10207330 -0.04786047
v 0.04744730 -0.10622013 -0.05029485
v 0.04711052 -0.10391197 -0.04533560
v 0.05776520 -0.12000923 -0.02097712
v 0.06215740 -0.12150265 -0.02172137
v 0.05984912 -0.12331033 -0.02149539
v 0.04791470 -0.11133158 -0.05492115
v 0.04415272 -0.11499571 -0.05318605
v 0.04307448 -0.11017450 -0.04849980
v 0.05315705 -0.11530141 -0.05884124
v 0.05384087 -0.10710986 -0.05596667
v 0.05481712 -0.11455798 -0.02180304
v 0.04422400 -0.12451791 -0.05352975
v 0.04987205 -0.11997813 -0.05789162
v 0.04992152 -0.12755145 -0.05594467
v 0.05723930 -0.13449857 -0.05214504
v 0.05200997 -0.13655648 -0.04756374
v 0.05221102 -0.13174697 -0.05411057
v 0.04577390 -0.10899180 -0.02968177
v 0.05221957 -0.11087948 -0.02364807
v 0.05025160 -0.10644325 -0.02766349
v 0.04241950 -0.11051085 -0.03353827
v 0.04684047 -0.10445415 -0.03467687
v 0.05794325 -0.13796365 -0.03714909
v 0.04530840 -0.13130150 -0.05042147
v 0.04116925 -0.13108060 -0.04584857
v 0.06871247 -0.13284378 -0.03982854
v 0.05264280 -0.13641490 -0.03273500
v 0.04566512 -0.13566350 -0.03823937
v 0.04782290 -0.13442860 -0.03243027
v 0.04096652 -0.13149217 -0.03601587
v 0.04502262 -0.13136268 -0.03089572
v 0.05167705 -0.13224605 -0.02762757
v 0.05065057 -0.12875606 -0.02529537
v 0.05698657 -0.12571243 -0.05861205
v 0.06187160 -0.13005055 -0.05629701
v 0.04610922 -0.12063433 -0.02529939
v 0.05515665 -0.11561650 -0.02140372
v 0.03990942 -0.11482700 -0.04612715
v 0.06182112 -0.12090998 -0.06006664
v 0.05728230 -0.11301460 -0.02260612
v 0.05583800 -0.12080532 -0.05970780
v 0.05156917 -0.10315055 -0.03045520
v 0.06697737 -0.12983783 -0.05515262
v 0.03743750 -0.12515260 -0.03973712
v 0.03849180 -0.13073815 -0.04048957
v 0.06026142 -0.12435203 -0.02179772
v 0.05530925 -0.12335180 -0.02179242
v 0.03900972 -0.12841103 -0.04471807
v 0.05950732 -0.13683140 -0.03296659
v 0.04518662 -0.13506727 -0.04428145
v 0.06055035 -0.13797573 -0.04377370
v 0.06696962 -0.13640876 -0.03966632
v 0.06062555 -0.11883661 -0.02080052
v 0.04049780 -0.12520590 -0.04898115
v 0.05003185 -0.12278128 -0.02333749
v 0.05764682 -0.13030580 -0.02472957
v 0.04063620 -0.11194401 -0.03724809
v 0.03986382 -0.11585311 -0.03372607
v 0.06224402 -0.12742181 -0.02326624
v 0.06781180 -0.13128438 -0.03059580
v 0.06977150 -0.13472723 -0.04546552
v 0.03771935 -0.11996881 -0.03972872
v 0.03902680 -0.11523685 -0.03845820
v 0.06710007 -0.13641678 -0.04133155
v 0.06214532 -0.12145040 -0.05462299
v 0.05732482 -0.11891062 -0.02096377
v 0.05474882 -0.10865400 -0.02382619
v 0.04457687 -0.12583138 -0.02761080
v 0.06474245 -0.13448998 -0.05058129
v 0.05586813 -0.11716235 -0.05954707
v 0.06258060 -0.12836786 -0.02387854
v 0.03809432 -0.12187837 -0.04484724
v 0.05815157 -0.11457961 -0.02196565
v 0.06202180 -0.13770613 -0.03757327
v 0.06555559 -0.13604626 -0.03413297
v 0.04761752 -0.10297198 -0.04111425
v 0.04305385 -0.10775743 -0.04383437
v 0.06306125 -0.12304733 -0.02247887
v 0.05851205 -0.11517481 -0.06004089
v 0.03875577 -0.12144411 -0.03449717
v 0.06719220 -0.13024713 -0.02648384
v 0.06253022 -0.13234126 -0.02674072
v 0.05816722 -0.13434843 -0.02865597
v 0.06031980 -0.13611375 -0.04932974
v 0.04762482 -0.10295755 -0.03974144
v 0.04533505 -0.10498540 -0.03807547
v 0.03976480 -0.11966500 -0.04835830
v 0.04277480 -0.12024332 -0.05265734
v 0.04435112 -0.11550183 -0.02731389
v 0.05023125 -0.10083920 -0.03916899
v 0.06977092 -0.13468756 -0.03520984
v 0.06553629 -0.12733838 -0.02379977
f 93 87 103
f 56 5 92
f 46 47 29
f 91 22 12
f 22 13 12
f 85 49 65
f 79 49 85
f 65 52 85
f 85 52 79
f 79 32 31
f 79 52 54
f 54 32 79
f 54 12 102
f 52 12 54
f 39 95 44
f 45 43 44
f 61 95 39
f 61 86 87
f 94 87 93
f 94 61 87
f 95 61 94
f 4 92 5
f 26 46 29
f 26 53 46
f 29 47 27
f 39 40 9
f 29 27 28
f 101 31 30
f 30 31 32
f 32 54 30
f 70 4 101
f 92 4 70
f 56 92 74
f 92 70 74
f 19 50 20
f 99 50 19
f 51 53 91
f 46 53 51
f 47 46 51
f 7 28 63
f 64 103 87
f 87 86 64
f 52 38 77
f 91 12 77
f 77 12 52
f 77 51 91
f 23 49 79
f 79 31 23
f 23 31 49
f 48 67 49
f 48 31 101
f 49 31 48
f 101 4 48
f 49 67 59
f 59 67 45
f 36 26 29
f 24 26 36
f 29 28 36
f 84 60 56
f 56 74 84
f 84 50 99
f 84 74 11
f 24 36 66
f 66 84 99
f 60 84 66
f 65 58 16
f 90 52 65
f 72 38 52
f 103 38 72
f 39 44 41
f 41 44 43
f 41 40 39
f 43 42 41
f 41 42 40
f 104 94 93
f 104 16 58
f 93 103 104
f 103 72 104
f 104 72 52
f 52 90 104
f 65 16 104
f 104 90 65
f 68 59 45
f 58 59 68
f 45 44 68
f 68 44 95
f 95 94 68
f 6 4 5
f 5 42 6
f 6 42 43
f 25 26 24
f 53 26 25
f 81 27 47
f 73 63 81
f 7 63 35
f 35 63 86
f 86 61 35
f 57 42 5
f 57 5 56
f 56 60 57
f 40 42 57
f 8 9 40
f 8 28 7
f 1 89 69
f 14 12 13
f 14 13 20
f 20 89 14
f 102 12 14
f 34 30 54
f 34 54 102
f 101 30 33
f 33 70 101
f 33 69 70
f 1 69 33
f 33 34 1
f 30 34 33
f 2 84 11
f 50 84 2
f 99 19 100
f 24 66 100
f 100 66 99
f 100 25 24
f 19 25 100
f 86 63 76
f 76 64 86
f 76 63 73
f 73 103 76
f 103 64 76
f 55 77 38
f 51 77 55
f 55 103 73
f 55 38 103
f 47 51 55
f 73 81 55
f 55 81 47
f 65 49 78
f 49 59 78
f 65 78 15
f 15 78 59
f 71 104 58
f 58 68 71
f 80 48 4
f 4 6 80
f 45 67 80
f 67 48 80
f 80 43 45
f 80 6 43
f 91 53 82
f 21 22 91
f 91 82 21
f 53 25 21
f 21 82 53
f 27 81 96
f 96 81 63
f 96 28 27
f 96 63 28
f 37 57 60
f 60 66 37
f 37 66 36
f 9 8 10
f 39 9 10
f 7 35 10
f 10 8 7
f 10 61 39
f 10 35 61
f 70 69 75
f 11 74 75
f 75 74 70
f 75 2 11
f 69 2 75
f 88 14 89
f 88 97 102
f 102 14 88
f 102 97 98
f 98 34 102
f 1 34 98
f 98 89 1
f 98 88 89
f 97 88 98
f 3 69 89
f 3 2 69
f 50 2 3
f 3 89 20
f 20 50 3
f 17 59 58
f 17 15 59
f 17 58 65
f 65 15 17
f 83 68 94
f 83 71 68
f 94 104 83
f 104 71 83
f 22 21 18
f 18 13 22
f 18 25 19
f 18 21 25
f 20 13 18
f 18 19 20
f 40 57 62
f 57 37 62
f 62 8 40
f 28 8 62
f 62 36 28
f 62 37 36

