# https://github.com/mikedh/trimesh
v 0.14463556 0.18443324 0.13527839
v 0.14358604 0.18355389 0.13274456
v 0.14481349 0.18690796 0.13570791
v 0.13638959 0.18710899 0.13079666
v 0.13704548 0.18313091 0.13059614
v 0.13699301 0.18202134 0.13226546
v 0.14413243 0.18842976 0.13406371
v 0.14323655 0.18789829 0.13190084
v 0.14189786 0.18915639 0.12876994
v 0.14390070 0.19205237 0.13360851
v 0.14588498 0.18894287 0.13840774
v 0.14069488 0.18360311 0.14062441
v 0.14583844 0.18291924 0.13828014
v 0.14296933 0.18566429 0.13125576
v 0.13898258 0.19145922 0.13701976
v 0.13909293 0.19206264 0.13565503
v 0.13688191 0.18970832 0.13151379
v 0.13867811 0.18017451 0.13551116
v 0.14183173 0.18312886 0.12863203
v 0.14382896 0.18001349 0.13343526
v 0.13986636 0.18192232 0.13915944
v 0.14061346 0.18881342 0.14039221
f 11 12 13
f 4 9 19
f 22 12 11
f 11 15 22
f 17 9 4
f 4 15 17
f 10 15 11
f 9 17 10
f 20 19 2
f 21 13 12
f 21 18 20
f 20 13 21
f 12 22 21
f 21 22 15
f 20 18 6
f 6 19 20
f 18 21 6
f 6 15 4
f 6 21 15
f 16 17 15
f 15 10 16
f 16 10 17
f 1 13 20
f 20 2 1
f 14 19 9
f 14 2 19
f 4 19 5
f 5 6 4
f 19 6 5
f 11 13 3
f 13 1 3
f 3 1 2
f 9 10 8
f 8 14 9
f 2 14 8
f 8 3 2
f 7 10 11
f 11 3 7
f 7 8 10
f 3 8 7

