# https://github.com/mikedh/trimesh
v -0.06957602 0.10891856 0.14071430
v -0.07159753 0.10548606 0.14072960
v -0.07318980 0.11125271 0.14071937
v 0.00008964 0.07972205 0.13832395
v -0.08163230 0.07481296 0.13736357
v 0.08234483 0.07608199 0.13256646
v -0.08111455 0.11713950 0.14061950
v -0.06620202 0.06089435 0.09736217
v -0.06163650 0.05977420 0.06800266
v -0.00433340 0.06198410 0.12000485
v 0.06454515 0.12584405 0.13640748
v 0.08104163 0.09233777 0.13535428
v 0.06989730 0.10949094 0.13618791
v 0.06470525 0.12409785 0.13641336
v -0.00820808 0.11138108 0.13969662
v -0.06468785 0.12601903 0.14060482
v -0.08069187 0.12591896 0.14057390
v 0.05696688 0.05977055 0.06409547
v 0.05503631 0.06094280 0.06337203
v 0.05889488 0.06083122 0.06546616
v -0.07311515 0.06178146 0.11860364
v 0.07884943 0.14807360 0.12727013
v -0.07962965 0.14472433 0.13566292
v 0.08163070 0.14165259 0.13219856
v -0.08520615 0.13211298 0.13917052
v -0.08290217 0.13761483 0.13916484
v -0.08419720 0.13876410 0.13724774
v 0.07462232 0.06350649 0.12014436
v 0.07820795 0.06759237 0.12640393
v -0.00020871 0.06663847 0.12909935
v -0.06510284 0.15586836 0.09625562
v -0.07300144 0.15488450 0.11823582
v 0.07155243 0.15494457 0.11368663
v -0.06442394 0.15469131 0.09393347
v 0.06303548 0.15571737 0.09199171
v 0.06357246 0.15468652 0.09024473
v 0.07694221 0.15160142 0.12005075
v 0.07329591 0.15370614 0.11319281
v 0.07470250 0.15305849 0.12025945
v 0.08180393 0.07150305 0.12832683
v 0.07752740 0.06563442 0.12110536
v 0.07425475 0.06318565 0.11523378
v -0.06116147 0.06094836 0.06731758
v -0.07558972 0.10725921 0.14068682
v -0.07767300 0.06488236 0.12503307
v -0.08207300 0.07154183 0.13354870
v -0.07579945 0.06373588 0.12550082
v 0.08515557 0.08373817 0.13372103
v 0.08524618 0.13245239 0.13359608
v 0.08165016 0.14548800 0.12798943
v 0.07243602 0.06194622 0.11508018
v 0.08104980 0.10021474 0.13536583
v -0.08452155 0.07921745 0.13785362
v 0.00008337 0.13117825 0.13946073
v 0.08340358 0.13479855 0.13455268
v -0.08331980 0.13306681 0.14035765
v 0.06487698 0.09054422 0.13642598
v -0.08245832 0.14379586 0.13473832
v -0.08088525 0.09077293 0.14058575
v 0.07434168 0.11090924 0.13590688
v -0.08088850 0.12423228 0.14059482
v -0.08072075 0.10033021 0.14061299
v -0.06494647 0.12000385 0.14062105
v -0.06333477 0.06078018 0.06958361
v -0.07505319 0.15353666 0.12385249
v -0.07587985 0.15320903 0.12090287
v -0.07937517 0.14957668 0.12848465
v 0.06513993 0.10051030 0.13642401
v -0.00002680 0.07246588 0.13472383
v 0.08036230 0.07133142 0.12974698
v 0.07203135 0.10532030 0.13606013
v 0.07554635 0.10714849 0.13584533
v -0.07783450 0.15009346 0.13011084
v -0.08338892 0.08357945 0.14037370
v 0.08233905 0.08307717 0.13515611
v 0.00012969 0.08772773 0.13956265
v -0.08529950 0.08535581 0.13917524
v -0.08304010 0.07984593 0.13943460
v -0.06494770 0.09047963 0.14061367
v -0.07432822 0.06284193 0.11759597
v -0.07954147 0.06906348 0.13302332
v 0.08426790 0.13829075 0.13197896
v -0.06713357 0.15463993 0.09562875
v 0.08440597 0.07873969 0.13214231
v -0.06494650 0.09441331 0.14062105
v 0.08368678 0.13091632 0.13513291
v 0.01652292 0.12884482 0.13897265
f 18 9 19
f 19 36 18
f 49 86 48
f 31 33 35
f 43 19 9
f 9 64 43
f 64 83 43
f 26 56 54
f 20 48 84
f 20 51 18
f 49 48 20
f 18 36 20
f 40 20 84
f 41 20 40
f 29 40 70
f 41 40 29
f 70 40 6
f 6 40 84
f 84 48 6
f 77 64 53
f 81 45 47
f 80 45 64
f 24 22 23
f 23 26 24
f 24 26 54
f 32 33 31
f 32 65 33
f 31 83 32
f 23 22 73
f 33 65 39
f 39 37 33
f 22 37 39
f 39 73 22
f 65 73 39
f 36 19 34
f 19 43 34
f 34 43 83
f 34 83 31
f 31 35 34
f 34 35 36
f 54 56 16
f 75 48 86
f 75 6 48
f 76 75 57
f 42 20 41
f 51 20 42
f 41 29 28
f 28 42 41
f 51 42 28
f 28 10 51
f 69 29 70
f 70 6 69
f 45 81 46
f 64 45 46
f 46 53 64
f 47 45 21
f 45 80 21
f 21 10 47
f 21 64 9
f 21 80 64
f 55 86 49
f 55 24 54
f 22 24 50
f 50 37 22
f 36 37 50
f 38 37 36
f 33 37 38
f 36 35 38
f 38 35 33
f 66 32 83
f 65 32 66
f 58 26 23
f 23 73 58
f 11 14 86
f 54 16 15
f 15 76 54
f 54 76 87
f 14 11 87
f 87 13 14
f 87 11 86
f 87 76 57
f 87 55 54
f 86 55 87
f 29 69 30
f 30 69 81
f 30 81 47
f 30 28 29
f 47 10 30
f 10 28 30
f 75 76 4
f 6 75 4
f 4 69 6
f 8 9 18
f 8 21 9
f 10 21 8
f 18 51 8
f 51 10 8
f 36 50 82
f 49 20 82
f 82 20 36
f 82 50 24
f 82 55 49
f 24 55 82
f 67 58 73
f 67 73 65
f 65 66 67
f 67 66 83
f 27 83 64
f 27 67 83
f 58 67 27
f 26 58 27
f 17 16 56
f 56 61 17
f 17 61 16
f 16 61 3
f 57 13 68
f 68 87 57
f 13 87 68
f 81 69 5
f 5 46 81
f 69 4 5
f 5 4 78
f 53 46 5
f 5 78 53
f 76 79 74
f 74 4 76
f 78 4 74
f 74 56 77
f 77 53 74
f 53 78 74
f 25 64 77
f 25 27 64
f 77 56 25
f 56 26 25
f 26 27 25
f 57 75 12
f 12 72 57
f 12 75 86
f 71 13 57
f 57 72 71
f 71 72 13
f 14 13 60
f 13 72 60
f 86 14 60
f 60 72 86
f 59 74 79
f 86 72 52
f 52 12 86
f 72 12 52
f 16 3 1
f 76 15 1
f 63 15 16
f 16 1 63
f 63 1 15
f 2 59 79
f 79 1 2
f 2 1 3
f 2 3 44
f 44 62 2
f 2 62 59
f 85 79 76
f 76 1 85
f 85 1 79
f 74 59 7
f 59 62 7
f 7 61 56
f 56 74 7
f 7 3 61
f 7 62 44
f 44 3 7

