# https://github.com/mikedh/trimesh
v 0.16322561 -0.18361661 0.11165214
v 0.16207555 -0.18310668 0.10928306
v 0.16349016 -0.18365893 0.10886869
v 0.16439228 -0.18793664 0.11139609
v 0.16324275 -0.18839221 0.10905176
v 0.16368286 -0.18789077 0.10933782
v 0.16454711 -0.18501081 0.11121337
v 0.16367473 -0.18327046 0.11057704
v 0.16448608 -0.18544788 0.11226572
v 0.16284278 -0.18711246 0.10754012
v 0.15706336 -0.18600329 0.11930566
v 0.15675502 -0.18936456 0.11834929
v 0.16353603 -0.18841296 0.11172874
v 0.13975458 -0.19135291 0.12230879
v 0.13823794 -0.19187241 0.11846764
v 0.13930791 -0.19261994 0.11946926
v 0.16201156 -0.18565191 0.10700919
v 0.16251744 -0.18371671 0.10800546
v 0.16259145 -0.18887921 0.10891364
v 0.15474573 -0.17963808 0.11346634
v 0.14059650 -0.18051672 0.12284384
v 0.15594449 -0.18060201 0.11659336
v 0.13792285 -0.19149123 0.11636326
v 0.15342098 -0.19153459 0.11025986
v 0.13835948 -0.17991088 0.11871431
v 0.15256741 -0.18270789 0.10821719
v 0.13704909 -0.18216941 0.11524078
v 0.13949221 -0.18015768 0.12124126
v 0.13697918 -0.18994524 0.11561164
v 0.16207273 -0.18746346 0.10740036
v 0.16276344 -0.18538291 0.10741339
v 0.14051295 -0.18210953 0.12413936
v 0.13665176 -0.18464174 0.11425043
v 0.15209548 -0.18610371 0.10732689
v 0.15459529 -0.19251421 0.11334716
v 0.14096258 -0.18814365 0.12509531
v 0.14138863 -0.18948125 0.12475631
v 0.14147086 -0.18617808 0.12569416
v 0.13650988 -0.18704763 0.11425339
f 35 16 24
f 33 34 39
f 39 25 27
f 27 33 39
f 21 22 20
f 37 11 38
f 12 11 37
f 20 18 26
f 26 25 20
f 26 27 25
f 34 33 26
f 33 27 26
f 23 24 16
f 16 15 23
f 35 24 19
f 20 22 8
f 22 1 8
f 20 25 28
f 28 21 20
f 29 25 39
f 29 23 15
f 39 34 29
f 34 24 29
f 24 23 29
f 13 12 35
f 13 4 12
f 35 19 13
f 13 19 4
f 12 4 9
f 9 11 12
f 9 4 7
f 7 8 9
f 9 8 1
f 9 1 22
f 22 11 9
f 22 21 32
f 32 11 22
f 38 11 32
f 21 28 32
f 32 28 25
f 25 29 32
f 36 37 38
f 38 32 36
f 35 12 14
f 12 37 14
f 14 16 35
f 14 15 16
f 37 36 14
f 14 29 15
f 14 32 29
f 14 36 32
f 20 8 3
f 3 8 7
f 2 18 20
f 20 3 2
f 2 3 18
f 7 4 6
f 6 3 7
f 6 10 3
f 18 3 31
f 3 10 31
f 30 19 24
f 30 10 19
f 30 24 34
f 19 10 5
f 10 6 5
f 4 19 5
f 5 6 4
f 18 31 17
f 17 26 18
f 34 26 17
f 17 30 34
f 17 31 10
f 10 30 17

