# https://github.com/mikedh/trimesh
v 0.13116932 0.21352663 0.02620263
v 0.13209034 0.21248959 0.02641480
v 0.13130294 0.21556602 0.02640644
v 0.13443087 0.21185840 0.02376954
v 0.13290002 0.21207366 0.02355980
v 0.13610874 0.21326607 0.02354562
v 0.13644064 0.21531341 0.02377580
v 0.13545307 0.21669186 0.02357065
v 0.13130434 0.21355057 0.02357637
v 0.13140114 0.21605287 0.02360564
v 0.13289557 0.21717120 0.02638293
v 0.13350644 0.21723712 0.02359540
v 0.13581509 0.21651905 0.02635559
v 0.13627929 0.21353238 0.02637596
v 0.13435962 0.21195903 0.02638513
v 0.13478080 0.21480618 0.03440304
v 0.13496527 0.21470037 0.03413689
v 0.13519952 0.21519268 0.03392066
v 0.13451644 0.21363922 0.03409052
v 0.13362989 0.21341284 0.03409595
v 0.13260514 0.21414376 0.03395007
v 0.13283529 0.21502040 0.03435606
v 0.13338527 0.21613105 0.03395997
v 0.13501882 0.21364172 0.03385522
v 0.13353802 0.21304975 0.03376966
v 0.13234037 0.21398833 0.03368795
v 0.13252344 0.21554106 0.03360996
v 0.13393226 0.21613350 0.03351997
v 0.13409724 0.21306277 0.03331193
v 0.13244962 0.21365743 0.03320873
v 0.13268447 0.21579860 0.03309441
v 0.13445389 0.21597929 0.03301570
v 0.13534817 0.21469014 0.03291745
v 0.13433230 0.21306806 0.03282943
v 0.13456280 0.21584881 0.02352435
v 0.13229165 0.21468192 0.02352317
f 7 14 6
f 2 5 15
f 8 13 7
f 12 13 8
f 7 6 8
f 7 13 18
f 18 14 7
f 11 13 12
f 12 10 11
f 15 14 24
f 3 10 1
f 3 11 10
f 4 14 15
f 4 6 14
f 15 5 4
f 5 6 4
f 26 3 1
f 27 3 26
f 35 8 6
f 12 8 35
f 31 3 27
f 11 3 31
f 13 11 28
f 17 18 16
f 16 24 17
f 17 24 18
f 14 18 33
f 33 24 14
f 18 24 33
f 1 2 30
f 30 26 1
f 27 26 22
f 36 6 5
f 36 35 6
f 36 10 12
f 12 35 36
f 32 18 13
f 13 28 32
f 32 28 18
f 11 31 23
f 23 28 11
f 23 31 27
f 27 22 23
f 23 22 16
f 16 18 23
f 18 28 23
f 21 22 26
f 9 36 5
f 10 36 9
f 1 10 9
f 9 2 1
f 5 2 9
f 15 24 34
f 34 29 15
f 24 29 34
f 26 30 25
f 25 29 24
f 25 30 2
f 25 2 15
f 15 29 25
f 20 21 26
f 26 25 20
f 22 21 20
f 16 22 20
f 19 25 24
f 19 20 25
f 19 24 16
f 16 20 19

