# https://github.com/mikedh/trimesh
v -0.09946128 0.16978556 -0.09733168
v -0.09669935 0.16618563 -0.09847483
v -0.10002508 0.16613961 -0.09661096
v -0.10030212 0.16984963 -0.09486898
v -0.10006742 0.16606818 -0.09374776
v -0.09952791 0.16989835 -0.09280541
v -0.09867450 0.16611765 -0.09205030
v -0.09714610 0.16977544 -0.09141061
v -0.09611870 0.16618778 -0.09154214
v -0.09380303 0.16983093 -0.09326426
v -0.09351970 0.16613123 -0.09401228
v -0.09375388 0.16989835 -0.09613906
v -0.09429965 0.16606973 -0.09707831
v -0.09602303 0.16983468 -0.09835141
v -0.09551550 0.14825454 -0.09534213
v -0.09639130 0.14849363 -0.09343843
v -0.09769640 0.14825210 -0.09372463
v -0.09546605 0.14857204 -0.09440951
v -0.09564955 0.14865824 -0.09596990
v -0.09796892 0.14860133 -0.09658449
v -0.09852276 0.14890780 -0.09488796
v -0.09788887 0.14879703 -0.09311156
v -0.09549233 0.14885648 -0.09332605
v -0.09497828 0.14901070 -0.09568450
v -0.09646410 0.14911386 -0.09696659
v -0.09833687 0.14921286 -0.09645206
v -0.09895930 0.14933981 -0.09444971
v -0.09741970 0.14948290 -0.09291946
v -0.09482108 0.14964573 -0.09497653
v -0.09625320 0.14978391 -0.09696663
v -0.09905742 0.15209361 -0.09515709
v -0.09833792 0.16990521 -0.09593820
v -0.09676378 0.16990521 -0.09667488
v -0.09727235 0.16991161 -0.09330580
f 3 27 4
f 10 23 11
f 8 10 34
f 17 27 21
f 4 27 5
f 26 27 31
f 31 3 26
f 27 3 31
f 8 7 28
f 1 3 4
f 1 14 2
f 2 26 1
f 26 3 1
f 2 14 13
f 32 1 4
f 14 1 32
f 12 34 10
f 12 13 14
f 12 10 11
f 4 5 6
f 6 5 7
f 6 7 8
f 8 34 6
f 6 32 4
f 34 32 6
f 8 28 9
f 9 28 23
f 9 10 8
f 23 10 9
f 22 28 7
f 7 5 22
f 22 5 27
f 22 27 17
f 23 28 22
f 33 32 34
f 34 12 33
f 14 32 33
f 33 12 14
f 16 22 17
f 23 22 16
f 17 15 16
f 16 15 23
f 20 25 15
f 20 15 17
f 17 21 20
f 20 26 2
f 2 25 20
f 20 27 26
f 20 21 27
f 24 12 11
f 13 12 24
f 15 25 19
f 19 24 15
f 25 24 19
f 13 24 30
f 30 24 25
f 2 13 30
f 30 25 2
f 23 15 18
f 18 24 23
f 15 24 18
f 11 23 29
f 29 24 11
f 23 24 29

