# https://github.com/mikedh/trimesh
v 0.20157720 -0.17292261 -0.06861466
v 0.20438002 -0.17336781 -0.07040735
v 0.20113147 -0.17532212 -0.06977824
v 0.19763889 -0.17457664 -0.06689661
v 0.19741843 -0.17517797 -0.06656955
v 0.19772597 -0.17398340 -0.06600318
v 0.19819850 -0.17356149 -0.06583394
v 0.20454472 -0.17716220 -0.07000471
v 0.20569361 -0.17754284 -0.06731744
v 0.20177790 -0.17751807 -0.06819211
v 0.20307723 -0.17641224 -0.06502409
v 0.20601522 -0.17588819 -0.06587466
v 0.19771305 -0.17608136 -0.06657074
v 0.19762640 -0.17627237 -0.06564816
v 0.20396591 -0.17563864 -0.07084396
v 0.19817935 -0.17661212 -0.06516458
v 0.19805187 -0.17584614 -0.06442361
v 0.19724284 -0.17435359 -0.06591911
v 0.19834497 -0.17397791 -0.06438916
v 0.19856577 -0.17547337 -0.06403843
v 0.20315507 -0.17416364 -0.06478176
v 0.20519525 -0.17239841 -0.06838936
v 0.20248602 -0.17764832 -0.06644661
v 0.20474132 -0.17562955 -0.06960621
v 0.20570975 -0.17446517 -0.06724061
v 0.20565895 -0.17589975 -0.06739091
v 0.19813752 -0.17472644 -0.06421965
v 0.20604178 -0.17344709 -0.06636099
v 0.20252274 -0.17240388 -0.06645758
f 15 3 2
f 2 3 1
f 10 9 23
f 13 3 10
f 16 10 23
f 28 29 21
f 23 9 11
f 11 16 23
f 20 16 11
f 11 21 20
f 7 29 1
f 2 25 24
f 22 29 28
f 28 25 22
f 22 25 2
f 1 29 22
f 22 2 1
f 9 10 8
f 8 24 9
f 8 3 15
f 8 10 3
f 15 2 8
f 2 24 8
f 13 10 14
f 10 16 14
f 20 21 19
f 19 21 29
f 29 7 19
f 19 7 18
f 12 9 28
f 12 11 9
f 28 21 12
f 21 11 12
f 18 7 6
f 6 7 1
f 1 3 4
f 18 6 4
f 4 6 1
f 9 24 26
f 26 24 25
f 28 9 26
f 26 25 28
f 17 16 20
f 17 14 16
f 18 14 17
f 5 3 13
f 5 4 3
f 18 4 5
f 5 14 18
f 13 14 5
f 20 19 27
f 27 17 20
f 27 19 18
f 18 17 27

