# https://github.com/mikedh/trimesh
v -0.06539251 0.13342541 -0.04218608
v -0.06533021 0.13294298 -0.04087138
v -0.06655991 0.13485211 -0.04309095
v -0.06811908 0.13762408 -0.04085770
v -0.06768666 0.13658953 -0.04256560
v -0.06797368 0.13702530 -0.03885221
v -0.06562061 0.13854535 -0.04212091
v -0.06578316 0.13881259 -0.03940633
v -0.06493746 0.13754501 -0.03802013
v -0.06666196 0.13503073 -0.03773753
v -0.06389708 0.13582061 -0.03789950
v -0.06564366 0.13343493 -0.03881568
v -0.06295103 0.13446013 -0.03999260
v -0.06325973 0.13492838 -0.04206535
v -0.06423341 0.13642621 -0.04316635
v -0.07293063 0.12997653 -0.04024976
v -0.07260701 0.12996678 -0.04035555
v -0.07229536 0.12989516 -0.03983950
v -0.07276981 0.13030803 -0.04132145
v -0.07331399 0.13115880 -0.04163040
v -0.07373524 0.13206050 -0.04084755
v -0.07395081 0.13163373 -0.04003553
v -0.07331911 0.13138823 -0.03892495
v -0.07244106 0.13025753 -0.04172648
v -0.07358496 0.13225928 -0.04153693
v -0.07349781 0.13230228 -0.03952098
v -0.07255443 0.13103563 -0.03892473
v -0.07176903 0.13000173 -0.04038653
v -0.07227186 0.13095764 -0.04194568
v -0.07163038 0.13060673 -0.03946408
v -0.07138559 0.13041145 -0.04107643
v -0.07207096 0.13157763 -0.04200260
v -0.07284918 0.13304985 -0.04012548
v -0.07182308 0.13213678 -0.04202058
v -0.06517756 0.13794676 -0.04035923
v -0.06477046 0.13737883 -0.04169013
v -0.06364738 0.13557626 -0.04071923
v -0.06390036 0.13596578 -0.03940623
f 37 36 13
f 15 5 7
f 7 36 15
f 8 36 7
f 10 11 9
f 8 6 9
f 9 6 10
f 9 11 13
f 14 1 15
f 14 37 13
f 15 36 14
f 36 37 14
f 2 14 13
f 1 14 2
f 15 1 3
f 3 1 24
f 3 5 15
f 13 11 12
f 12 2 13
f 12 11 10
f 5 3 25
f 35 36 8
f 8 9 35
f 35 9 36
f 13 36 38
f 38 9 13
f 36 9 38
f 29 3 24
f 32 3 29
f 34 3 32
f 32 25 34
f 34 25 3
f 8 7 4
f 25 33 4
f 4 7 5
f 5 25 4
f 4 6 8
f 16 19 24
f 24 1 31
f 31 28 24
f 1 2 31
f 2 28 31
f 20 25 32
f 32 29 20
f 20 29 24
f 24 19 20
f 22 25 20
f 20 16 22
f 19 16 20
f 26 33 25
f 6 4 26
f 26 4 33
f 24 28 17
f 17 16 24
f 21 25 22
f 22 26 21
f 21 26 25
f 27 12 10
f 18 17 28
f 16 17 18
f 2 12 18
f 18 28 2
f 23 27 10
f 23 26 22
f 10 6 23
f 6 26 23
f 22 16 23
f 16 18 23
f 23 18 27
f 12 27 30
f 30 18 12
f 27 18 30

