# https://github.com/mikedh/trimesh
v -0.09893775 -0.17013111 -0.09255493
v -0.09628733 -0.16648355 -0.09141278
v -0.09956238 -0.16653530 -0.09338120
v -0.09977858 -0.17019519 -0.09501778
v -0.09954390 -0.16641376 -0.09613886
v -0.09900435 -0.17024392 -0.09708121
v -0.09727963 -0.16647679 -0.09834738
v -0.09650003 -0.17017477 -0.09847463
v -0.09384090 -0.16653334 -0.09733165
v -0.09322138 -0.17012534 -0.09652661
v -0.09300308 -0.16646325 -0.09486424
v -0.09323035 -0.17024392 -0.09374753
v -0.09377615 -0.16641529 -0.09280826
v -0.09549957 -0.17018024 -0.09153519
v -0.09499197 -0.14860009 -0.09454446
v -0.09586775 -0.14883919 -0.09644818
v -0.09717285 -0.14859767 -0.09616190
v -0.09491155 -0.14892887 -0.09540323
v -0.09514515 -0.14900161 -0.09393413
v -0.09744535 -0.14894690 -0.09330208
v -0.09832272 -0.14907954 -0.09506948
v -0.09736532 -0.14914259 -0.09677505
v -0.09496897 -0.14919994 -0.09656033
v -0.09445475 -0.14935627 -0.09420211
v -0.09594462 -0.14946202 -0.09292050
v -0.09781648 -0.14956035 -0.09343581
v -0.09843567 -0.14968577 -0.09543590
v -0.09689618 -0.14982847 -0.09696714
v -0.09437130 -0.14995854 -0.09522319
v -0.09488553 -0.15007577 -0.09349633
v -0.09638312 -0.15017806 -0.09291574
v -0.09795753 -0.15025665 -0.09357498
v -0.09825870 -0.15039022 -0.09603443
v -0.09587968 -0.15054082 -0.09696888
v -0.09437380 -0.15066314 -0.09550481
v -0.09500528 -0.15081464 -0.09333598
v -0.09738250 -0.15093742 -0.09309981
v -0.09762628 -0.17024662 -0.09383373
v -0.09515098 -0.17025714 -0.09607335
v -0.09650065 -0.17024365 -0.09668878
f 12 10 11
f 5 6 4
f 4 1 3
f 3 5 4
f 13 12 11
f 8 10 39
f 10 12 39
f 4 6 38
f 38 1 4
f 6 39 38
f 38 39 12
f 9 10 8
f 8 6 7
f 6 22 7
f 16 22 17
f 23 22 16
f 5 3 27
f 12 13 14
f 2 1 14
f 14 25 2
f 1 38 14
f 14 38 12
f 40 6 8
f 8 39 40
f 40 39 6
f 11 29 24
f 24 13 11
f 30 13 24
f 24 25 30
f 19 25 24
f 24 29 23
f 11 10 35
f 35 29 11
f 10 9 35
f 35 9 23
f 23 29 35
f 8 7 34
f 34 9 8
f 23 9 34
f 5 27 33
f 33 27 22
f 6 5 33
f 33 22 6
f 17 22 21
f 22 27 21
f 21 27 3
f 36 13 30
f 30 25 36
f 36 14 13
f 25 14 36
f 26 3 1
f 19 24 15
f 23 16 15
f 15 16 17
f 15 25 19
f 28 7 22
f 28 34 7
f 28 22 23
f 23 34 28
f 25 15 20
f 21 26 20
f 17 21 20
f 20 15 17
f 32 21 3
f 3 26 32
f 32 26 21
f 18 24 23
f 23 15 18
f 18 15 24
f 2 25 31
f 25 20 31
f 37 20 26
f 37 1 2
f 37 26 1
f 2 31 37
f 37 31 20

