# https://github.com/mikedh/trimesh
v -0.03826474 0.14947793 0.06848072
v -0.03803812 0.15033173 0.06662201
v -0.03904876 0.15015213 0.06612755
v -0.03760971 0.15052680 0.06596987
v -0.03740464 0.14973120 0.06653289
v -0.03711254 0.14924660 0.06574196
v -0.03800071 0.14843003 0.06613566
v -0.03774204 0.14824328 0.06566333
v -0.03944037 0.14863293 0.06547223
v -0.03782031 0.14856748 0.06648021
v -0.03913602 0.15072933 0.06533291
v -0.03666526 0.14989688 0.04813023
v -0.03688014 0.15031008 0.04809838
v -0.03591954 0.15097818 0.04911659
v -0.03709524 0.15203575 0.04932493
v -0.03843661 0.15095248 0.04782042
v -0.03870236 0.15228780 0.04955029
v -0.03873854 0.15118487 0.04814201
v -0.03907186 0.15080753 0.04810383
v -0.04028736 0.15001546 0.04834325
v -0.03983736 0.14904777 0.04813070
v -0.03974811 0.14856133 0.04809438
v -0.04110526 0.14913570 0.04951170
v -0.03962399 0.14696752 0.04953922
v -0.03780594 0.14786168 0.04802977
v -0.03632379 0.14873826 0.04833416
v -0.03826084 0.14672530 0.04916622
v -0.03690722 0.14702398 0.04957291
v -0.04047656 0.15121655 0.04951654
v -0.03542969 0.14941103 0.04952804
v -0.03583329 0.14805360 0.04928063
v -0.03972692 0.14930163 0.06443401
v -0.03897102 0.14817708 0.06466013
v -0.03776501 0.14805053 0.06475193
v -0.03674942 0.14925075 0.06492488
v -0.03745849 0.15073740 0.06516117
v -0.03865659 0.14800755 0.06362278
v -0.03729481 0.14836017 0.06376631
v -0.03675596 0.14977985 0.06394279
v -0.03783124 0.15088986 0.06414673
f 29 11 17
f 26 14 30
f 32 29 23
f 11 29 32
f 17 16 18
f 18 29 17
f 15 16 17
f 15 36 14
f 23 22 24
f 29 18 20
f 23 29 20
f 20 22 23
f 31 26 30
f 30 35 31
f 31 38 28
f 35 38 31
f 16 15 13
f 13 15 14
f 27 24 22
f 25 22 16
f 25 27 22
f 28 27 25
f 25 31 28
f 26 31 25
f 9 32 23
f 23 24 9
f 9 24 33
f 1 11 3
f 11 32 3
f 3 9 1
f 32 9 3
f 2 11 1
f 1 35 5
f 35 36 5
f 39 36 35
f 14 36 39
f 39 35 30
f 30 14 39
f 17 11 40
f 11 36 40
f 40 15 17
f 36 15 40
f 16 22 21
f 21 20 16
f 22 20 21
f 19 18 16
f 16 20 19
f 19 20 18
f 14 26 12
f 12 13 14
f 26 25 12
f 16 13 12
f 12 25 16
f 28 38 34
f 34 27 28
f 1 5 4
f 4 5 36
f 4 2 1
f 4 36 11
f 11 2 4
f 6 35 1
f 1 10 6
f 6 10 35
f 37 34 33
f 27 34 37
f 33 24 37
f 24 27 37
f 33 34 8
f 35 10 8
f 8 38 35
f 8 34 38
f 33 8 7
f 7 8 10
f 7 10 1
f 1 9 7
f 7 9 33

