# https://github.com/mikedh/trimesh
v 0.15943579 0.00251669 0.12766291
v 0.15965484 0.00144963 0.12870542
v 0.15963549 0.00238348 0.12503389
v 0.15965372 -0.00261170 0.12699156
v 0.15681494 -0.00262262 0.12704793
v 0.15962582 -0.00228382 0.12502736
v 0.15684297 -0.00211137 0.12474799
v 0.15962829 -0.00026553 0.12367576
v 0.15683825 0.00023338 0.12367996
v 0.15681879 0.00261442 0.12555838
v 0.15690152 0.00192986 0.12844934
v 0.15681920 -0.00093485 0.12901954
v 0.15964349 -0.00111577 0.12894824
v 0.14521194 0.00131263 0.12556221
v 0.14512932 0.00088556 0.12725254
v 0.14536742 0.00147167 0.12692806
v 0.14510697 -0.00031262 0.12759851
v 0.14530092 -0.00126651 0.12632424
v 0.14492089 -0.00058233 0.12557006
v 0.14538667 -0.00031963 0.12518476
v 0.14546706 -0.00020832 0.12806376
v 0.14558115 -0.00158643 0.12648294
v 0.14566935 -0.00074254 0.12505081
v 0.14578657 0.00043191 0.12504886
v 0.14577472 0.00145912 0.12590236
v 0.14588047 0.00111008 0.12757906
v 0.14597464 -0.00063651 0.12783699
v 0.14621712 0.00057405 0.12498236
v 0.14652667 -0.00145506 0.12688156
v 0.14659557 -0.00128079 0.12550596
v 0.14674844 0.00075397 0.12494814
v 0.15966737 -0.00105367 0.12541404
v 0.15969147 0.00035674 0.12500446
v 0.15967359 0.00145276 0.12611372
v 0.15969522 -0.00031612 0.12783286
v 0.15967844 -0.00137039 0.12687279
f 35 34 2
f 14 20 19
f 35 4 36
f 4 32 36
f 6 32 4
f 6 7 8
f 33 6 8
f 32 6 33
f 33 34 35
f 35 36 33
f 33 36 32
f 13 4 35
f 35 2 13
f 15 14 19
f 7 22 30
f 3 9 31
f 3 14 10
f 31 14 3
f 8 9 3
f 10 1 3
f 3 33 8
f 34 33 3
f 3 2 34
f 3 1 2
f 7 30 23
f 8 7 23
f 23 9 8
f 19 20 23
f 23 22 19
f 23 30 22
f 20 14 24
f 24 23 20
f 2 1 11
f 4 13 5
f 5 22 7
f 5 6 4
f 7 6 5
f 26 15 21
f 21 11 26
f 16 15 26
f 14 15 16
f 26 11 16
f 16 11 1
f 16 1 10
f 9 23 28
f 23 24 28
f 31 9 28
f 28 14 31
f 28 24 14
f 27 21 22
f 22 21 17
f 17 15 19
f 17 21 15
f 10 14 25
f 25 16 10
f 14 16 25
f 22 5 29
f 29 27 22
f 5 27 29
f 12 5 13
f 12 27 5
f 21 27 12
f 12 13 2
f 2 11 12
f 11 21 12
f 19 22 18
f 18 17 19
f 22 17 18

