# https://github.com/mikedh/trimesh
v -0.10136050 0.13540263 -0.04047648
v -0.10253276 0.13790846 -0.03942278
v -0.10325981 0.13731963 -0.03943826
v -0.10363223 0.13680371 -0.04066978
v -0.10337260 0.13736815 -0.04151571
v -0.10396764 0.13713689 -0.04064211
v -0.10356838 0.13760305 -0.03932881
v -0.10232841 0.13861781 -0.03950553
v -0.10186528 0.13889770 -0.04029561
v -0.10240636 0.13786316 -0.04155808
v -0.10175643 0.13803150 -0.04027373
v -0.10703419 0.14705099 -0.03806003
v -0.10954631 0.14542549 -0.03804249
v -0.10608058 0.14767053 -0.04138946
v -0.10810516 0.14634008 -0.04313658
v -0.11078518 0.14459064 -0.04142216
v -0.10451205 0.13773316 -0.04029316
v -0.10411830 0.13791251 -0.04167741
v -0.10256983 0.13869016 -0.04177993
v -0.10987026 0.14521335 -0.04013256
v -0.10687933 0.14715859 -0.04081943
v -0.10779853 0.14656426 -0.04087948
v -0.10867576 0.14599198 -0.04225246
v -0.10522886 0.13862825 -0.04024066
v -0.10376486 0.13924059 -0.04196538
v -0.10286059 0.13930753 -0.03923516
v -0.10416346 0.13828778 -0.03914233
f 16 15 18
f 19 15 14
f 23 15 16
f 14 15 23
f 24 13 16
f 16 17 24
f 24 17 13
f 13 17 27
f 27 12 13
f 14 12 9
f 1 19 9
f 9 19 14
f 16 18 4
f 1 4 5
f 5 4 18
f 25 18 15
f 15 19 25
f 25 5 18
f 19 5 25
f 16 13 20
f 20 23 16
f 13 23 20
f 13 12 22
f 22 23 13
f 12 27 26
f 3 4 1
f 6 17 16
f 16 4 6
f 6 4 17
f 10 19 1
f 1 5 10
f 10 5 19
f 14 23 21
f 23 22 21
f 21 12 14
f 21 22 12
f 1 9 11
f 8 9 12
f 12 26 8
f 8 11 9
f 1 11 8
f 2 26 27
f 2 8 26
f 2 3 1
f 1 8 2
f 7 2 27
f 3 2 7
f 7 27 17
f 17 4 7
f 4 3 7

