# https://github.com/mikedh/trimesh
v -0.11561367 0.02016615 -0.00392781
v -0.11561367 0.02183409 -0.00666621
v -0.11561367 -0.04077134 -0.03911008
v -0.11561367 -0.04174117 -0.04243628
v -0.11561366 -0.02060706 -0.07779158
v -0.11561366 0.02212793 -0.07577196
v -0.11561366 0.01919635 -0.07761859
v -0.11561367 -0.02045885 -0.00392781
v -0.11561366 0.04007628 -0.03928048
v -0.11561366 0.04210388 -0.04031689
v -0.11561366 0.04155793 -0.04245376
v -0.11543124 -0.00961350 0.00451419
v -0.10970815 -0.00970606 0.00467739
v -0.11547337 -0.00043942 0.00574787
v -0.10970815 0.00054313 0.00591939
v -0.11541150 0.00962454 0.00454919
v -0.10970815 0.00970088 0.00464642
v -0.10970814 -0.00970188 -0.08656061
v -0.10970814 -0.00054419 -0.08783358
v -0.10970814 0.00970500 -0.08659158
v -0.10970814 0.03134736 -0.07201164
v -0.10970814 0.04115156 -0.05648148
v -0.10970814 0.04404356 -0.03827503
v -0.10970814 0.03810851 -0.01871353
v -0.10970815 0.02727088 -0.00659101
v -0.10970815 -0.02974047 -0.00855278
v -0.10970815 -0.03727269 -0.01796458
v -0.10970815 -0.04242232 -0.02934270
v -0.10970815 -0.04379252 -0.04131936
v -0.10970815 -0.04255734 -0.05161903
v -0.10970815 -0.03794229 -0.06298391
v -0.10970814 -0.02886982 -0.07413938
v -0.11547336 0.00043840 -0.08766205
v -0.11541150 -0.00962557 -0.08646336
v -0.11546760 -0.03463452 -0.06783704
v -0.11539809 -0.02252821 -0.07860636
v -0.11553107 -0.04106389 -0.05572969
v -0.11542367 -0.04368272 -0.04465933
v -0.11547907 -0.04209096 -0.02874739
v -0.11552227 -0.03592084 -0.01615186
v -0.11542598 -0.02884669 -0.00794381
v -0.11550475 -0.01893183 -0.00170066
v -0.11548142 0.01894087 -0.00164048
v -0.11543602 0.02952853 -0.00854396
v -0.11551397 0.03618366 -0.01650231
v -0.11547754 0.04229053 -0.02948261
v -0.11548524 0.04354581 -0.04583048
v -0.11545569 0.03871026 -0.06152256
v -0.11548542 0.02841558 -0.07431579
v -0.11543124 0.00961243 -0.08642838
f 39 38 29
f 46 24 23
f 38 39 4
f 20 49 21
f 28 39 29
f 29 38 30
f 17 16 15
f 17 25 16
f 16 25 44
f 44 25 24
f 19 18 34
f 49 20 50
f 42 12 8
f 8 12 14
f 15 16 14
f 14 13 15
f 14 12 13
f 3 40 8
f 3 4 39
f 39 40 3
f 26 40 27
f 39 28 27
f 27 40 39
f 31 35 32
f 31 30 37
f 37 35 31
f 37 30 38
f 38 4 37
f 48 22 21
f 21 49 48
f 49 6 48
f 45 24 46
f 45 44 24
f 1 14 16
f 44 45 1
f 8 14 1
f 7 6 49
f 49 50 7
f 20 19 33
f 33 50 20
f 33 19 34
f 33 7 50
f 41 40 26
f 12 42 41
f 8 40 41
f 41 42 8
f 26 13 41
f 13 12 41
f 18 32 36
f 34 18 36
f 36 32 35
f 23 22 47
f 22 48 47
f 46 23 47
f 16 44 43
f 43 1 16
f 44 1 43
f 5 37 4
f 7 33 5
f 35 37 5
f 5 33 34
f 34 36 5
f 5 36 35
f 2 1 45
f 46 47 10
f 10 45 46
f 9 2 10
f 10 2 45
f 11 47 48
f 11 10 47
f 11 48 6
f 21 22 32
f 32 22 23
f 18 19 32
f 24 25 32
f 32 23 24
f 25 17 32
f 32 19 20
f 32 20 21
f 26 27 32
f 32 13 26
f 32 27 28
f 15 13 32
f 32 28 29
f 32 17 15
f 32 30 31
f 29 30 32
f 9 5 2
f 4 3 2
f 8 1 2
f 2 5 4
f 2 3 8
f 11 5 9
f 6 7 11
f 7 5 11
f 9 10 11

