# https://github.com/mikedh/trimesh
v 0.16865401 -0.17752249 0.12464686
v 0.16766488 -0.17667086 0.12598264
v 0.16607105 -0.17385058 0.12223822
v 0.16543171 -0.17471131 0.12131721
v 0.16250883 -0.19836352 0.11216356
v 0.16427360 -0.19863401 0.11406811
v 0.16544935 -0.19923959 0.11738404
v 0.16098968 -0.19568019 0.10848297
v 0.16008765 -0.19076977 0.10547709
v 0.16173313 -0.19497611 0.10807011
v 0.15930146 -0.18035981 0.10662309
v 0.15904190 -0.18787436 0.10531059
v 0.16165514 -0.17779481 0.10769339
v 0.15949863 -0.18088869 0.10602409
v 0.16046376 -0.18180893 0.10536739
v 0.15982761 -0.18514734 0.10461706
v 0.16885216 -0.18787764 0.12934334
v 0.16969318 -0.18571527 0.12962019
v 0.16850583 -0.18297344 0.12887766
v 0.16768614 -0.17467733 0.12341174
v 0.16564908 -0.17285231 0.11947046
v 0.16297820 -0.17310234 0.11508181
v 0.16917998 -0.17795329 0.12665246
v 0.17041095 -0.18519281 0.12860756
v 0.16658201 -0.17379774 0.11924904
v 0.16050300 -0.17784952 0.10731009
v 0.16127413 -0.17521024 0.10987554
v 0.16812915 -0.19696312 0.12375599
v 0.15969783 -0.19216294 0.10636974
v 0.16119616 -0.19153502 0.10636774
v 0.16972818 -0.18965552 0.12896549
v 0.16919060 -0.18039626 0.12848596
v 0.16534109 -0.19752779 0.12117466
v 0.16432250 -0.17283176 0.11525989
v 0.16851255 -0.19240883 0.12806239
v 0.15983818 -0.19283774 0.10795021
v 0.16339316 -0.17413556 0.11193269
v 0.16388895 -0.19930246 0.11647394
v 0.16558573 -0.19871238 0.12104234
v 0.16759513 -0.19553169 0.12589286
v 0.16944043 -0.19321196 0.12725822
v 0.16159028 -0.19740181 0.11227829
v 0.16649191 -0.19876421 0.12067911
f 24 30 25
f 6 30 24
f 21 25 34
f 34 22 21
f 13 25 30
f 24 25 1
f 1 23 24
f 5 6 38
f 30 6 10
f 10 9 30
f 8 9 10
f 10 5 8
f 6 5 10
f 8 36 29
f 29 9 8
f 29 36 12
f 12 9 29
f 27 13 26
f 25 21 20
f 20 1 25
f 23 1 20
f 34 25 37
f 25 13 37
f 13 27 37
f 37 22 34
f 37 27 22
f 15 13 30
f 15 14 26
f 26 13 15
f 18 17 31
f 24 18 31
f 31 41 24
f 42 5 38
f 42 36 8
f 8 5 42
f 39 42 38
f 22 27 11
f 26 14 11
f 11 27 26
f 12 36 11
f 11 14 12
f 4 22 11
f 36 42 11
f 23 20 2
f 30 9 16
f 16 15 30
f 16 9 12
f 12 14 16
f 14 15 16
f 17 40 35
f 35 31 17
f 35 40 41
f 41 31 35
f 19 2 4
f 4 11 19
f 19 11 42
f 19 17 18
f 38 6 7
f 7 39 38
f 33 39 40
f 42 39 33
f 33 40 17
f 33 19 42
f 17 19 33
f 41 40 28
f 40 39 28
f 24 41 28
f 28 7 6
f 28 6 24
f 4 2 3
f 3 22 4
f 3 21 22
f 3 20 21
f 3 2 20
f 23 2 32
f 2 19 32
f 32 19 18
f 32 18 24
f 24 23 32
f 39 7 43
f 43 28 39
f 7 28 43

