# https://github.com/mikedh/trimesh
v 0.13088401 0.21296962 0.01236384
v 0.11760754 0.23407884 0.02652399
v 0.11791361 0.21438735 0.00455596
v 0.11302486 0.21110457 0.00692456
v 0.11086352 0.21446026 0.00749771
v 0.09880292 0.21538962 0.02629552
v 0.09887677 0.21391588 0.02626000
v 0.09821652 0.21474729 0.02958210
v 0.13067877 0.22932096 0.02522852
v 0.13241360 0.22831936 0.02958693
v 0.13395892 0.22563360 0.02487712
v 0.11799447 0.20853668 0.00682873
v 0.12167222 0.21167622 0.00608496
v 0.12061817 0.20562263 0.00898831
v 0.12302933 0.21694189 0.00647261
v 0.12415834 0.21326385 0.00690796
v 0.10686047 0.21841922 0.01124371
v 0.10583620 0.21468566 0.01176893
v 0.11776722 0.20201297 0.01183286
v 0.12516622 0.20195892 0.01404403
v 0.12223652 0.19805594 0.01820694
v 0.09928289 0.20947686 0.02651985
v 0.10153797 0.20773874 0.02023016
v 0.10144782 0.20373138 0.02956572
v 0.11411814 0.23333462 0.02958105
v 0.11361619 0.23353325 0.02651266
v 0.13331599 0.21784807 0.01598846
v 0.11856507 0.19636114 0.02088358
v 0.11520801 0.19536734 0.02626508
v 0.11175079 0.19749469 0.02103616
v 0.13249987 0.21155539 0.01467929
v 0.10380904 0.21153391 0.01460833
v 0.10523635 0.21279081 0.01261578
v 0.10513550 0.21656478 0.01271728
v 0.10349999 0.21777366 0.01520096
v 0.12369275 0.23324428 0.02651793
v 0.11860504 0.23418391 0.02641952
v 0.12108495 0.23292137 0.02187923
v 0.11531807 0.23227673 0.02015886
v 0.11350014 0.21839171 0.00678908
v 0.11967204 0.19554776 0.02480166
v 0.13271071 0.20207293 0.02416993
v 0.12829414 0.20016296 0.01956424
v 0.13073189 0.20525196 0.01568206
v 0.12392157 0.23244205 0.02960943
v 0.10629024 0.20181435 0.01886286
v 0.10432839 0.20157450 0.02339907
v 0.10816419 0.20969921 0.01035246
v 0.10563504 0.20706642 0.01432656
v 0.10770919 0.19746270 0.02958264
v 0.12258584 0.23355952 0.02667744
v 0.13502270 0.20745297 0.02135724
v 0.13650611 0.20700701 0.02956702
v 0.10298432 0.22450500 0.02052503
v 0.10361999 0.22818552 0.02956611
v 0.10802492 0.23011804 0.02152511
v 0.11672464 0.19556439 0.02473194
v 0.13447597 0.21133986 0.01801429
v 0.10085944 0.21012102 0.02958720
v 0.13011679 0.20918973 0.01236321
v 0.13064832 0.21565209 0.01205751
v 0.12749909 0.21524187 0.00902098
v 0.12508902 0.20700894 0.00974036
v 0.13057439 0.22734950 0.02001831
v 0.13305599 0.22233973 0.01764126
v 0.12647152 0.22638081 0.01400911
v 0.10867442 0.20441132 0.01334104
v 0.11383505 0.20619956 0.00911671
v 0.11257262 0.20119193 0.01424513
v 0.10787284 0.23114293 0.02667753
v 0.10887835 0.23170283 0.02651792
v 0.12833297 0.23117838 0.02651574
v 0.10068107 0.21785665 0.01997408
v 0.10271879 0.22109323 0.01759446
v 0.11416941 0.20043302 0.02959672
v 0.11495381 0.19516404 0.02958745
v 0.11249194 0.23326877 0.02668405
v 0.13653940 0.22051659 0.02493441
v 0.13693312 0.22104454 0.02958692
v 0.13754090 0.21543971 0.02634578
v 0.12142087 0.19501504 0.02958801
v 0.12377619 0.19625432 0.02444576
v 0.12831494 0.19793971 0.02593807
v 0.11516082 0.22240606 0.00832753
v 0.11861007 0.21918419 0.00614013
v 0.12211656 0.23309031 0.02957343
v 0.09973524 0.22190045 0.02958740
v 0.09979399 0.22103186 0.02560022
v 0.12913064 0.19812124 0.02958744
v 0.12957635 0.22044225 0.01212306
v 0.12026142 0.22700966 0.01195428
v 0.12101687 0.22164372 0.00779288
v 0.11655252 0.19814886 0.01731486
v 0.13785387 0.21341329 0.02958766
v 0.12735469 0.23179601 0.02668510
v 0.12690129 0.23164437 0.02958993
v 0.10321712 0.20405369 0.02958564
v 0.13598501 0.21764236 0.02092261
v 0.13447685 0.20340915 0.02958718
v 0.13753702 0.21378107 0.02635811
v 0.10954050 0.23142322 0.02959585
v 0.12711794 0.23055175 0.02129701
v 0.12402342 0.22989967 0.01706356
v 0.11719292 0.23425539 0.02958745
v 0.10861724 0.19762296 0.02600996
v 0.13700996 0.21213425 0.02340485
v 0.11438122 0.22804397 0.01337089
v 0.10772929 0.22814072 0.01832196
v 0.13138524 0.21689187 0.01302466
v 0.11961377 0.23008709 0.01563323
v 0.12411382 0.22226282 0.00926974
v 0.09993767 0.21176007 0.02175538
v 0.11022117 0.22399963 0.01153236
v 0.10718952 0.22425450 0.01438573
f 101 45 104
f 94 45 99
f 8 24 97
f 45 101 87
f 101 55 87
f 22 24 8
f 104 45 86
f 45 75 89
f 89 99 45
f 42 89 83
f 99 89 42
f 50 97 24
f 75 97 50
f 25 101 104
f 104 77 25
f 25 77 101
f 39 38 110
f 70 55 101
f 94 106 100
f 5 40 3
f 19 21 93
f 44 42 43
f 43 42 83
f 83 82 43
f 43 82 21
f 99 42 53
f 94 99 53
f 53 106 94
f 76 50 29
f 75 50 76
f 36 102 38
f 107 39 110
f 107 113 108
f 26 77 104
f 26 39 77
f 101 77 71
f 71 70 101
f 59 75 45
f 45 87 59
f 59 97 75
f 59 87 8
f 8 97 59
f 88 87 55
f 55 54 88
f 8 87 88
f 108 113 114
f 114 54 108
f 52 58 106
f 106 53 52
f 52 53 42
f 52 42 44
f 44 58 52
f 98 58 27
f 106 58 98
f 3 16 13
f 16 63 13
f 63 14 13
f 65 98 27
f 110 38 103
f 38 102 103
f 7 22 8
f 54 114 74
f 74 88 54
f 73 88 74
f 4 5 3
f 47 50 24
f 28 93 21
f 21 82 28
f 20 43 21
f 20 14 63
f 20 63 44
f 44 43 20
f 20 21 19
f 19 14 20
f 81 76 29
f 83 89 81
f 81 82 83
f 81 89 75
f 75 76 81
f 51 36 38
f 104 86 51
f 96 86 45
f 45 10 96
f 96 51 86
f 36 51 96
f 102 36 95
f 95 96 10
f 36 96 95
f 84 40 113
f 113 107 84
f 38 39 37
f 104 51 37
f 37 51 38
f 77 39 56
f 56 71 77
f 56 107 108
f 39 107 56
f 70 71 56
f 108 54 56
f 55 70 56
f 56 54 55
f 8 88 6
f 6 88 73
f 6 7 8
f 10 11 9
f 27 58 31
f 31 58 44
f 80 100 106
f 106 98 80
f 94 100 80
f 3 13 12
f 12 13 14
f 12 4 3
f 68 4 12
f 19 68 12
f 12 14 19
f 66 103 102
f 73 74 35
f 34 32 35
f 35 32 73
f 17 74 114
f 17 114 113
f 34 35 17
f 17 35 74
f 113 40 17
f 40 5 17
f 34 17 18
f 18 17 5
f 73 32 112
f 22 7 112
f 112 6 73
f 7 6 112
f 30 28 29
f 93 28 30
f 41 81 29
f 41 28 82
f 82 81 41
f 3 40 85
f 40 84 85
f 91 66 111
f 91 107 110
f 91 84 107
f 110 103 91
f 103 66 91
f 39 26 2
f 2 37 39
f 2 26 104
f 104 37 2
f 102 95 72
f 72 9 102
f 72 95 10
f 10 9 72
f 60 31 44
f 1 31 60
f 44 63 60
f 60 63 16
f 27 31 109
f 109 31 1
f 1 61 109
f 15 16 3
f 3 85 15
f 62 61 1
f 62 60 16
f 1 60 62
f 16 15 62
f 78 80 98
f 78 65 11
f 98 65 78
f 64 66 102
f 65 66 64
f 102 9 64
f 11 65 64
f 64 9 11
f 33 32 34
f 34 18 33
f 23 32 49
f 23 112 32
f 22 112 23
f 24 22 23
f 23 47 24
f 50 47 105
f 29 50 105
f 105 30 29
f 93 30 69
f 19 93 69
f 69 68 19
f 69 67 68
f 49 67 46
f 46 105 47
f 30 105 46
f 67 69 46
f 46 69 30
f 46 23 49
f 47 23 46
f 29 28 57
f 57 41 29
f 28 41 57
f 92 85 84
f 84 91 92
f 92 91 111
f 111 15 92
f 92 15 85
f 90 109 61
f 61 62 90
f 90 15 111
f 90 62 15
f 111 66 90
f 90 66 65
f 90 65 27
f 27 109 90
f 94 80 79
f 80 78 79
f 79 45 94
f 79 10 45
f 79 11 10
f 79 78 11
f 49 32 48
f 32 33 48
f 48 67 49
f 5 4 48
f 48 4 68
f 68 67 48
f 48 18 5
f 48 33 18

