# https://github.com/mikedh/trimesh
v -0.11831049 -0.02314608 -0.07594770
v -0.11851857 -0.02220653 -0.07426821
v -0.11851984 -0.02256360 -0.07759956
v -0.11847922 -0.02015209 -0.07344898
v -0.11567264 -0.02020691 -0.07344651
v -0.11848352 -0.01835431 -0.07432135
v -0.11571167 -0.01767499 -0.07514261
v -0.11848599 -0.01760167 -0.07663083
v -0.11568961 -0.01853398 -0.07824056
v -0.11846579 -0.01985726 -0.07892374
v -0.11569656 -0.02090806 -0.07874471
v -0.11570324 -0.02280212 -0.07733194
v -0.11567692 -0.02256280 -0.07453531
v -0.10398811 -0.02135505 -0.07677023
v -0.10410252 -0.02005213 -0.07774036
v -0.10392611 -0.02137476 -0.07565026
v -0.10411872 -0.02072922 -0.07499236
v -0.10377861 -0.01933871 -0.07581148
v -0.10417730 -0.01950381 -0.07523184
v -0.10424937 -0.02165199 -0.07693463
v -0.10433394 -0.02161360 -0.07523371
v -0.10446220 -0.01977136 -0.07461438
v -0.10451532 -0.01873944 -0.07625506
v -0.10473035 -0.02160134 -0.07703438
v -0.10480322 -0.02172769 -0.07547886
v -0.10493554 -0.02012004 -0.07450826
v -0.10504429 -0.01873497 -0.07603978
v -0.10510464 -0.01977145 -0.07765708
v -0.10545409 -0.01908525 -0.07515979
v -0.10554632 -0.01888113 -0.07671685
v -0.11853724 -0.01909797 -0.07536236
v -0.11853616 -0.01903313 -0.07680275
v -0.11852367 -0.02031304 -0.07759843
v -0.11853616 -0.02159293 -0.07680275
v -0.11854429 -0.02049786 -0.07467886
f 8 10 32
f 9 10 8
f 10 9 15
f 8 6 7
f 31 6 8
f 8 32 31
f 35 6 31
f 31 32 35
f 23 9 8
f 8 7 23
f 18 15 23
f 35 32 34
f 34 2 35
f 3 2 34
f 33 32 10
f 10 3 33
f 33 34 32
f 3 34 33
f 1 3 12
f 13 2 1
f 1 2 3
f 10 15 11
f 11 3 10
f 12 3 11
f 9 23 30
f 30 23 15
f 22 7 6
f 5 22 6
f 26 22 5
f 5 2 13
f 28 15 9
f 9 30 28
f 28 30 15
f 7 22 29
f 29 22 23
f 18 23 19
f 19 22 18
f 23 22 19
f 4 5 6
f 2 5 4
f 4 6 35
f 35 2 4
f 27 23 7
f 7 29 27
f 27 29 23
f 18 22 17
f 17 16 18
f 17 22 26
f 20 1 12
f 21 20 16
f 16 17 21
f 21 17 26
f 21 5 13
f 26 5 21
f 14 20 15
f 16 20 14
f 14 15 18
f 18 16 14
f 24 11 15
f 15 20 24
f 12 11 24
f 24 20 12
f 1 20 25
f 20 21 25
f 13 1 25
f 25 21 13

