# https://github.com/mikedh/trimesh
v -0.13630115 0.21352663 0.02620261
v -0.13538015 0.21248963 0.02641478
v -0.13616755 0.21556602 0.02640642
v -0.13616616 0.21355059 0.02357635
v -0.13606934 0.21605287 0.02360562
v -0.13457493 0.21717122 0.02638291
v -0.13396403 0.21723714 0.02359538
v -0.13165539 0.21651909 0.02635557
v -0.13167556 0.21649818 0.02361269
v -0.13107626 0.21415558 0.02360219
v -0.13119119 0.21353238 0.02637594
v -0.13202186 0.21247358 0.02361083
v -0.13311088 0.21195905 0.02638511
v -0.13437103 0.21195312 0.02359645
v -0.13268968 0.21480620 0.03440302
v -0.13250521 0.21470039 0.03413687
v -0.13227098 0.21519270 0.03392063
v -0.13295403 0.21363926 0.03409049
v -0.13384061 0.21341286 0.03409592
v -0.13488441 0.21417251 0.03394390
v -0.13463518 0.21502042 0.03435604
v -0.13408523 0.21613107 0.03395995
v -0.13245163 0.21364176 0.03385520
v -0.13393246 0.21304977 0.03376964
v -0.13518870 0.21410058 0.03368864
v -0.13488286 0.21560042 0.03359809
v -0.13355136 0.21613329 0.03352156
v -0.13434185 0.21313040 0.03327338
v -0.13527521 0.21473477 0.03316056
v -0.13295986 0.21594324 0.03300484
v -0.13212148 0.21468966 0.03291657
v -0.13301741 0.21315596 0.03284456
v -0.13451689 0.21338625 0.02355986
v -0.13290141 0.21338186 0.02356379
v -0.13233233 0.21480503 0.02357772
v -0.13506859 0.21484530 0.02356764
f 5 4 1
f 1 4 2
f 9 8 10
f 7 8 9
f 6 8 7
f 7 5 6
f 8 6 27
f 11 23 13
f 10 8 11
f 3 5 1
f 26 6 3
f 3 6 5
f 36 5 7
f 4 5 36
f 13 2 14
f 14 2 4
f 7 9 35
f 35 36 7
f 34 36 35
f 10 34 35
f 35 9 10
f 8 27 30
f 22 6 26
f 22 27 6
f 23 11 31
f 29 3 1
f 26 3 29
f 4 36 33
f 33 36 34
f 33 14 4
f 34 14 33
f 12 34 10
f 12 14 34
f 13 14 12
f 10 11 12
f 12 11 13
f 21 22 26
f 15 22 21
f 21 19 15
f 20 19 21
f 17 11 8
f 17 31 11
f 8 30 17
f 17 30 27
f 23 31 17
f 17 22 15
f 27 22 17
f 18 23 15
f 15 19 18
f 23 18 24
f 24 18 19
f 24 2 13
f 24 28 2
f 20 21 25
f 26 29 25
f 25 21 26
f 25 29 1
f 1 2 25
f 2 28 25
f 28 24 25
f 25 19 20
f 25 24 19
f 15 23 16
f 16 17 15
f 23 17 16
f 13 23 32
f 32 24 13
f 23 24 32

