# https://github.com/mikedh/trimesh
v -0.16263380 -0.04069841 0.08060949
v -0.16263380 0.02256451 0.10324351
v -0.15279129 0.04356549 0.07270422
v -0.15279129 0.04198954 0.08452209
v -0.15279130 0.03763351 0.09524814
v -0.15279130 0.02698726 0.10768559
v -0.15279130 0.01005236 0.11583794
v -0.15279130 -0.00646455 0.11637904
v -0.15279130 -0.01787153 0.11291201
v -0.15279130 -0.02775179 0.10687802
v -0.15279130 -0.03702254 0.09625824
v -0.15279130 -0.04302444 0.08102632
v -0.15279130 -0.04295421 0.06667090
v -0.15279130 -0.03893076 0.05341141
v -0.15279130 -0.03018726 0.04202550
v -0.15279130 -0.01895974 0.03390457
v -0.15279129 -0.00066826 0.02958341
v -0.15279129 0.01557861 0.03260563
v -0.15279129 0.02775491 0.03970923
v -0.15279129 0.03702574 0.05032906
v -0.15279129 0.04176809 0.06126759
v -0.16263380 -0.04736584 0.04557213
v -0.16263380 -0.00140320 0.12736807
v -0.16263380 0.00094726 0.12781971
v -0.16263380 0.04736906 0.10101519
v -0.16263379 0.04674974 0.04521166
v -0.16263379 0.04737276 0.04789020
v -0.16263381 -0.04716364 0.10121466
v -0.16263380 -0.00011630 0.01848061
v -0.15672831 -0.05730484 0.08756774
v -0.16245443 -0.05707814 0.08778049
v -0.15672831 -0.05925659 0.07651511
v -0.16254828 -0.05865509 0.07963406
v -0.16243501 -0.05913281 0.07024668
v -0.15672831 -0.05756219 0.05904614
v -0.16240148 -0.05702378 0.05869443
v -0.16255264 -0.04337701 0.10911631
v -0.16247316 -0.03066546 0.12044784
v -0.16252671 -0.01794872 0.12648529
v -0.16252901 -0.00775041 0.12891359
v -0.16254899 0.01157162 0.12822776
v -0.16251623 0.02599969 0.12319219
v -0.16257900 0.04347161 0.10883131
v -0.16253750 0.05370066 0.09028921
v -0.16237107 0.05735621 0.08758031
v -0.16253340 0.05906894 0.07485084
v -0.16253622 0.02933721 0.02542044
v -0.16253709 0.05703441 0.05881102
v -0.16252255 0.04734551 0.04315970
v -0.16245310 0.03900749 0.03273722
v -0.16247315 0.01623022 0.01943626
v -0.16252255 0.00322488 0.01726589
v -0.16246807 -0.01010399 0.01794574
v -0.16253967 -0.02419412 0.02249676
v -0.16248425 -0.03827004 0.03207911
v -0.16252258 -0.04672134 0.04220563
v -0.16250481 -0.05379866 0.05632612
v -0.15672830 0.05947274 0.07256395
v -0.15672830 0.05730806 0.05901958
v -0.15672830 0.05721769 0.08788574
v -0.15672830 0.04127184 0.11196474
v -0.15672830 0.02630341 0.12319752
v -0.15672831 0.00875197 0.12916954
v -0.15672831 -0.00995891 0.12881814
v -0.15672831 -0.02511542 0.12380421
v -0.15672831 -0.03826031 0.11474489
v -0.15672831 -0.04693426 0.10439894
v -0.15672830 -0.04615479 0.04086273
v -0.15672830 -0.03325456 0.02754749
v -0.15672830 -0.01644001 0.01933209
v -0.15672830 -0.00312938 0.01707344
v -0.15672830 0.01252387 0.01814044
v -0.15672830 0.02760126 0.02421440
v -0.15672830 0.04022336 0.03353318
v -0.15672830 0.04854689 0.04487853
v -0.16214708 0.04981334 0.09955482
v -0.16214708 0.03657894 0.11610669
v -0.16214708 0.00250400 0.12954839
v -0.16214709 -0.04995994 0.09926869
v -0.16213195 0.05793946 0.06048847
f 73 74 19
f 47 74 73
f 3 21 58
f 19 74 20
f 47 73 51
f 28 39 23
f 42 24 41
f 39 64 40
f 24 23 40
f 40 23 39
f 40 41 24
f 21 20 59
f 58 21 59
f 50 74 47
f 26 50 47
f 4 60 5
f 4 3 58
f 58 60 4
f 58 46 45
f 45 60 58
f 28 31 37
f 37 39 28
f 37 38 39
f 65 64 39
f 39 38 65
f 18 73 19
f 16 69 70
f 70 17 16
f 71 17 70
f 70 53 71
f 54 69 55
f 53 70 54
f 54 70 69
f 71 53 52
f 72 51 73
f 73 18 72
f 71 52 72
f 72 52 51
f 72 18 17
f 72 17 71
f 12 32 13
f 34 32 33
f 33 31 28
f 42 41 62
f 78 40 64
f 41 40 78
f 80 46 58
f 58 59 80
f 46 80 48
f 48 80 59
f 25 2 24
f 66 37 67
f 38 37 66
f 66 65 38
f 10 65 66
f 11 10 66
f 67 11 66
f 79 31 67
f 67 37 79
f 79 37 31
f 9 65 10
f 8 64 9
f 64 65 9
f 15 69 16
f 35 14 13
f 13 32 35
f 35 32 34
f 53 54 29
f 29 52 53
f 29 26 47
f 47 51 29
f 51 52 29
f 30 12 11
f 30 11 67
f 32 12 30
f 67 31 30
f 31 33 30
f 30 33 32
f 5 60 61
f 50 26 49
f 26 48 49
f 74 50 49
f 49 48 59
f 44 45 46
f 46 25 44
f 44 25 45
f 43 24 42
f 43 25 24
f 45 25 43
f 27 25 46
f 46 48 27
f 27 48 26
f 2 25 27
f 68 35 56
f 55 69 68
f 68 56 55
f 69 15 68
f 68 15 14
f 14 35 68
f 36 35 34
f 56 35 36
f 22 29 54
f 22 54 55
f 55 56 22
f 56 36 22
f 22 33 28
f 62 7 6
f 5 61 6
f 6 61 62
f 8 7 63
f 63 64 8
f 63 7 62
f 63 78 64
f 63 62 41
f 41 78 63
f 74 49 75
f 75 49 59
f 75 20 74
f 75 59 20
f 77 43 42
f 61 43 77
f 42 62 77
f 62 61 77
f 60 45 76
f 45 43 76
f 76 61 60
f 76 43 61
f 33 22 57
f 57 22 36
f 34 33 57
f 57 36 34
f 1 23 24
f 24 2 1
f 28 23 1
f 17 18 15
f 16 17 15
f 28 1 22
f 26 29 22
f 2 27 22
f 22 1 2
f 22 27 26
f 6 12 13
f 6 18 19
f 3 4 6
f 8 9 6
f 6 4 5
f 13 14 6
f 6 10 11
f 21 3 6
f 6 20 21
f 11 12 6
f 6 9 10
f 14 15 6
f 6 15 18
f 19 20 6
f 6 7 8

