# https://github.com/mikedh/trimesh
v 0.05640442 0.11152949 -0.05883787
v 0.06634097 0.12873490 -0.05582522
v 0.06662362 0.12922444 -0.02524947
v 0.06094881 0.06796434 -0.04187050
v 0.05980201 0.06858464 -0.04018027
v 0.06187751 0.06741097 -0.03941712
v 0.08280816 0.10370752 0.00249093
v 0.08120181 0.10585229 0.00252191
v 0.08331939 0.10613880 0.00247611
v 0.10481439 0.14182344 -0.03940829
v 0.10269644 0.14308207 -0.04046254
v 0.10413767 0.14219704 -0.04176944
v 0.08386479 0.10553767 -0.08342080
v 0.08120422 0.10585644 -0.08345179
v 0.08201487 0.10387929 -0.08340597
v 0.05044994 0.10121325 -0.03610912
v 0.09918801 0.08318267 -0.02437979
v 0.09591304 0.07751027 -0.03162609
v 0.09602961 0.07771214 -0.04958227
v 0.09917586 0.08316164 -0.05658679
v 0.09487197 0.07570704 -0.04116937
v 0.05645292 0.11161012 -0.02200952
v 0.05985612 0.11749607 -0.02076110
v 0.10328269 0.09027487 -0.02136772
v 0.08060872 0.11043857 -0.08330754
v 0.06387009 0.12330842 -0.02206392
v 0.06231931 0.12092140 -0.02129857
v 0.05270896 0.10512384 -0.02738330
v 0.10021732 0.14447132 -0.04410982
v 0.11029024 0.13842357 -0.04402726
v 0.09069839 0.10448874 -0.08330259
v 0.08713439 0.09831647 -0.08321432
v 0.05981234 0.11742238 -0.06016649
v 0.09069671 0.10448657 0.00228446
v 0.08056451 0.11043172 0.00248546
v 0.06749724 0.06430292 -0.03690110
v 0.05735094 0.07015495 -0.03679202
v 0.07695452 0.10410572 -0.08341592
v 0.05724946 0.07009347 -0.04407740
v 0.06754086 0.06437945 -0.04402727
v 0.05264579 0.10501447 -0.05339944
v 0.06877627 0.13295302 -0.05027772
v 0.06982919 0.13478025 -0.04456047
v 0.06915689 0.13361222 -0.03241502
v 0.10884644 0.09991152 -0.02297537
v 0.10362967 0.09087586 -0.05963852
v 0.11244019 0.10613609 -0.05137807
v 0.11423749 0.10924910 -0.04117604
v 0.10862964 0.09953604 -0.05804572
v 0.11033471 0.13849984 -0.03689989
v 0.10019357 0.14436054 -0.03679202
v 0.08713336 0.09831392 0.00237271
v 0.07693581 0.10407689 0.00237768
v 0.06992369 0.13494297 -0.03767704
v 0.11281734 0.10678932 -0.03073879
v 0.05056887 0.10142050 -0.04560167
v 0.06284237 0.12267439 -0.05951630
f 29 30 31
f 16 39 37
f 37 28 16
f 29 31 25
f 21 45 17
f 29 25 2
f 2 25 57
f 5 37 39
f 28 37 53
f 50 35 34
f 48 30 50
f 47 30 48
f 47 31 30
f 47 49 31
f 20 49 19
f 49 47 19
f 19 47 48
f 48 45 19
f 19 45 21
f 39 41 38
f 38 25 14
f 15 38 14
f 32 38 15
f 39 38 40
f 40 38 32
f 40 21 36
f 40 19 21
f 40 32 20
f 20 19 40
f 31 49 46
f 46 32 31
f 46 49 20
f 20 32 46
f 14 25 13
f 13 25 31
f 13 15 14
f 31 32 13
f 32 15 13
f 36 17 52
f 52 37 36
f 52 53 37
f 36 21 18
f 18 17 36
f 21 17 18
f 1 2 57
f 1 38 41
f 28 53 22
f 16 28 22
f 12 30 29
f 35 50 51
f 29 54 51
f 34 45 55
f 55 50 34
f 55 45 48
f 48 50 55
f 57 25 33
f 25 38 33
f 33 1 57
f 38 1 33
f 4 5 39
f 39 40 4
f 24 17 45
f 24 52 17
f 24 45 34
f 34 52 24
f 35 53 8
f 29 2 42
f 54 22 3
f 35 51 3
f 16 22 56
f 56 22 1
f 56 1 41
f 56 39 16
f 56 41 39
f 11 12 29
f 29 51 11
f 5 4 6
f 36 37 6
f 37 5 6
f 6 40 36
f 6 4 40
f 53 52 7
f 7 8 53
f 7 52 34
f 43 54 29
f 29 42 43
f 43 22 54
f 1 22 43
f 2 1 43
f 43 42 2
f 23 3 22
f 23 53 35
f 23 22 53
f 44 51 54
f 54 3 44
f 44 3 51
f 12 11 10
f 10 50 30
f 30 12 10
f 10 51 50
f 10 11 51
f 9 7 34
f 8 7 9
f 34 35 9
f 35 8 9
f 35 3 26
f 3 23 27
f 27 26 3
f 27 23 35
f 35 26 27

