# https://github.com/mikedh/trimesh
v 0.14450369 -0.02289312 -0.07509852
v 0.14430121 -0.02102036 -0.07347806
v 0.14428048 -0.02292953 -0.07690171
v 0.14692571 -0.01795540 -0.07455684
v 0.14713373 -0.01960884 -0.07357212
v 0.14713501 -0.01763388 -0.07627858
v 0.14708201 -0.02174878 -0.07385838
v 0.14709118 -0.02296551 -0.07567748
v 0.14709446 -0.02220175 -0.07813999
v 0.14430481 -0.02080316 -0.07884857
v 0.14708711 -0.01916330 -0.07867437
v 0.14430073 -0.01850472 -0.07809586
v 0.14434239 -0.01756453 -0.07586149
v 0.14427273 -0.01865622 -0.07407586
v 0.13268486 -0.01996864 -0.07767021
v 0.13260329 -0.01909523 -0.07616474
v 0.13283639 -0.01890732 -0.07681027
v 0.13257558 -0.01970907 -0.07509144
v 0.13271966 -0.02056680 -0.07492949
v 0.13239379 -0.02132075 -0.07634256
v 0.13285333 -0.02130639 -0.07688253
v 0.13289003 -0.01897257 -0.07539229
v 0.13298141 -0.02026758 -0.07456781
v 0.13306221 -0.02156219 -0.07524359
v 0.13315551 -0.02174546 -0.07684001
v 0.13322358 -0.02044384 -0.07766144
v 0.13330971 -0.01908702 -0.07714774
v 0.13338823 -0.01906333 -0.07507704
v 0.13352151 -0.02100158 -0.07472027
v 0.13359793 -0.02187247 -0.07615029
v 0.13367593 -0.02105734 -0.07752319
v 0.13380996 -0.01876525 -0.07634191
v 0.13391778 -0.01940621 -0.07486109
v 0.13406931 -0.02186612 -0.07590491
v 0.13422291 -0.02079954 -0.07772141
v 0.14715243 -0.02109005 -0.07492428
v 0.14715136 -0.02175319 -0.07620477
v 0.14715948 -0.02088322 -0.07749659
v 0.14714228 -0.01963862 -0.07740399
v 0.14715136 -0.01964965 -0.07485943
f 9 11 38
f 8 3 9
f 2 24 1
f 1 3 8
f 25 24 20
f 25 9 3
f 31 9 25
f 6 40 38
f 38 40 36
f 5 36 40
f 5 23 2
f 14 23 5
f 40 6 5
f 22 28 13
f 2 1 7
f 7 1 8
f 7 5 2
f 8 36 7
f 36 5 7
f 29 24 2
f 2 23 29
f 29 23 24
f 33 14 28
f 28 23 33
f 33 23 14
f 20 24 19
f 24 23 19
f 24 25 30
f 3 1 30
f 30 25 3
f 12 6 11
f 11 15 12
f 12 17 13
f 13 6 12
f 38 11 39
f 39 6 38
f 11 6 39
f 38 36 37
f 37 36 8
f 37 9 38
f 8 9 37
f 14 5 4
f 4 5 6
f 4 6 13
f 13 28 4
f 28 14 4
f 13 17 32
f 32 22 13
f 17 22 32
f 18 23 28
f 28 22 18
f 18 19 23
f 20 19 18
f 21 25 20
f 20 15 21
f 21 15 25
f 34 1 24
f 24 30 34
f 34 30 1
f 27 15 17
f 17 12 27
f 27 12 15
f 16 15 20
f 20 18 16
f 17 15 16
f 16 22 17
f 16 18 22
f 10 9 31
f 31 35 10
f 11 9 10
f 10 15 11
f 26 35 31
f 31 25 26
f 25 15 26
f 15 10 26
f 26 10 35

