# https://github.com/mikedh/trimesh
v 0.14875469 0.18778762 -0.02745221
v 0.14741599 0.18313829 -0.03057189
v 0.14239057 0.18318195 -0.02833814
v 0.14196957 0.18710889 -0.02840676
v 0.15019589 0.18422339 -0.02397291
v 0.14876232 0.18409416 -0.02743386
v 0.14940902 0.18001349 -0.02576831
v 0.14445874 0.18027182 -0.02285491
v 0.14285167 0.18154107 -0.02624591
v 0.15146507 0.18894286 -0.02079581
v 0.14620772 0.18881706 -0.01881041
v 0.14608359 0.18427304 -0.01854659
v 0.14246203 0.18970837 -0.02768974
v 0.14948079 0.19205237 -0.02559501
v 0.14747795 0.18915639 -0.03043361
v 0.15038267 0.18676056 -0.02352199
v 0.14456267 0.19145919 -0.02218374
v 0.14653446 0.18272996 -0.01905396
v 0.14983207 0.18837747 -0.02485121
v 0.15141421 0.18290944 -0.02093066
v 0.14467302 0.19206264 -0.02354849
f 10 12 20
f 20 8 7
f 4 15 2
f 11 12 10
f 10 17 11
f 11 17 12
f 13 15 4
f 4 17 13
f 14 17 10
f 15 13 14
f 7 2 6
f 6 2 15
f 12 8 18
f 18 20 12
f 8 20 18
f 7 8 9
f 9 2 7
f 9 8 12
f 9 17 4
f 12 17 9
f 21 13 17
f 17 14 21
f 21 14 13
f 5 20 7
f 7 6 5
f 4 2 3
f 3 9 4
f 2 9 3
f 10 20 16
f 20 5 16
f 16 5 6
f 19 14 10
f 10 16 19
f 15 14 1
f 14 19 1
f 1 6 15
f 1 16 6
f 1 19 16

