# https://github.com/mikedh/trimesh
v -0.09371688 0.10219413 -0.08742705
v -0.09457258 0.09999931 -0.08832834
v -0.09468933 0.09982803 -0.08744995
v -0.09321988 0.09771068 -0.08743188
v -0.09319151 0.09789813 -0.08832205
v -0.09076861 0.09802521 -0.08833406
v -0.09047216 0.09801486 -0.08742708
v -0.08958973 0.10037423 -0.08830801
v -0.08949971 0.10038091 -0.08744995
v -0.09100438 0.10249933 -0.08744576
v -0.09111736 0.10233963 -0.08834736
v -0.09342043 0.10218376 -0.08832483
v -0.09204316 0.10248011 -0.08645520
v -0.09011898 0.10137623 -0.08662696
v -0.09315508 0.09760368 -0.08627808
v -0.09102238 0.10256426 -0.08628748
v -0.09370216 0.10229960 -0.08629565
v -0.09230683 0.10245411 -0.08548974
v -0.08938966 0.10037316 -0.08626848
v -0.09049046 0.09792073 -0.08629238
v -0.09481553 0.09983139 -0.08625814
v -0.09313866 0.09761528 -0.08516875
v -0.09097603 0.10253218 -0.08514538
v -0.09426766 0.10105328 -0.08440418
v -0.09271201 0.10239473 -0.08444848
v -0.09404121 0.09875911 -0.08438383
v -0.09478776 0.09982468 -0.08517536
v -0.09367016 0.10222723 -0.08405981
v -0.09468358 0.09974754 -0.08407086
v -0.09315966 0.09762481 -0.08406519
v -0.08951808 0.10039798 -0.08409508
v -0.08943738 0.10044671 -0.08504673
v -0.09098356 0.10248388 -0.08408036
v -0.09430976 0.10082574 -0.08308741
v -0.09313018 0.10219066 -0.08306606
v -0.09140668 0.10245095 -0.08345491
v -0.08993828 0.10098121 -0.08313808
v -0.08991803 0.09916723 -0.08333943
v -0.09050958 0.09794343 -0.08408688
v -0.09184798 0.09773428 -0.08332721
v -0.09424708 0.09910348 -0.08314123
v -0.09259859 0.09773878 -0.08294526
v -0.09025091 0.09850400 -0.08294526
v -0.09094443 0.10225804 -0.08294526
v -0.09344671 0.09941556 -0.08865113
v -0.09296525 0.10112486 -0.08846440
v -0.09256288 0.09865208 -0.08860961
v -0.09099418 0.09898736 -0.08857113
v -0.09124076 0.10136714 -0.08846071
v -0.09067308 0.10055428 -0.08852503
f 44 42 43
f 37 44 43
f 42 41 30
f 30 26 15
f 41 26 30
f 34 41 42
f 34 44 35
f 42 44 34
f 34 29 41
f 43 42 40
f 40 39 43
f 42 30 40
f 15 6 20
f 20 40 15
f 39 40 20
f 2 3 21
f 45 5 2
f 2 5 3
f 35 44 36
f 1 2 21
f 29 34 27
f 41 29 27
f 21 26 27
f 27 26 41
f 22 30 15
f 15 40 22
f 22 40 30
f 47 5 45
f 6 5 47
f 21 3 4
f 3 5 4
f 4 26 21
f 15 26 4
f 4 6 15
f 4 5 6
f 9 8 10
f 7 20 6
f 6 8 7
f 8 9 7
f 19 20 7
f 7 9 19
f 37 31 32
f 38 37 43
f 38 31 37
f 38 32 31
f 19 32 38
f 38 20 19
f 43 39 38
f 39 20 38
f 33 36 44
f 44 37 33
f 37 32 33
f 17 1 21
f 2 1 12
f 1 17 12
f 45 2 12
f 19 9 14
f 14 9 10
f 14 32 19
f 48 8 6
f 6 47 48
f 48 47 45
f 16 14 10
f 28 34 35
f 24 17 21
f 21 27 24
f 24 27 34
f 34 28 24
f 24 28 17
f 11 12 10
f 10 8 11
f 10 12 13
f 13 12 17
f 13 16 10
f 46 49 45
f 45 12 46
f 46 11 49
f 12 11 46
f 8 48 50
f 50 11 8
f 49 11 50
f 45 49 50
f 50 48 45
f 36 33 23
f 23 33 32
f 14 16 23
f 32 14 23
f 17 28 25
f 35 36 25
f 25 28 35
f 18 13 17
f 17 25 18
f 16 13 18
f 18 23 16
f 36 23 18
f 18 25 36

