# https://github.com/mikedh/trimesh
v -0.14896480 -0.06924409 0.04966790
v -0.15166658 -0.06676987 0.04966790
v -0.13221067 -0.06865752 0.04966791
v -0.12859171 -0.06808784 0.04966791
v -0.14969509 0.06913716 0.04966790
v -0.15156370 0.06706324 0.04966790
v -0.12850399 0.06731986 0.04966791
v -0.12999980 0.06907724 0.04966791
v -0.12521496 -0.05299712 0.04954503
v -0.12521496 -0.07223377 0.04930187
v -0.15474250 -0.05307321 0.04956054
v -0.15474251 -0.07177651 0.04952853
v -0.12521496 -0.07178732 0.04588610
v -0.15474251 -0.07222244 0.04607062
v -0.15474250 -0.03602311 0.02115274
v -0.15474250 -0.02173313 0.01376171
v -0.15474250 0.02295134 0.01407941
v -0.15474250 0.00469855 0.01009316
v -0.15474250 -0.00850350 0.01058616
v -0.15474250 0.03926194 0.02354686
v -0.15474250 0.05306789 0.04954029
v -0.15474250 0.07173091 0.04950894
v -0.15474250 0.07218144 0.04602928
v -0.12521495 0.05302191 0.04955657
v -0.12521495 0.07229216 0.04939493
v -0.12521495 0.07155703 0.04584132
v -0.12521495 0.03602201 0.02115269
v -0.12521495 0.02173207 0.01376172
v -0.12521495 0.00604135 0.01020739
v -0.12521495 -0.00756151 0.01046562
v -0.12521495 -0.02295239 0.01407942
v -0.12521496 -0.03926304 0.02354690
f 26 27 23
f 23 25 26
f 14 10 12
f 12 10 3
f 10 4 3
f 9 4 10
f 27 28 17
f 17 28 29
f 17 29 18
f 8 25 22
f 25 23 22
f 16 31 15
f 10 14 13
f 14 15 13
f 18 29 30
f 2 11 12
f 7 25 8
f 20 23 27
f 27 17 20
f 32 15 31
f 32 13 15
f 18 30 19
f 19 30 31
f 19 31 16
f 12 3 1
f 1 2 12
f 11 2 6
f 24 7 4
f 4 9 24
f 25 7 24
f 11 6 21
f 21 6 22
f 8 22 5
f 22 6 5
f 26 25 24
f 24 27 26
f 24 9 10
f 29 28 24
f 10 13 24
f 24 28 27
f 24 32 31
f 24 30 29
f 31 30 24
f 13 32 24
f 23 20 21
f 21 14 12
f 12 11 21
f 21 17 18
f 18 19 21
f 16 15 21
f 21 22 23
f 21 15 14
f 21 20 17
f 21 19 16
f 5 3 4
f 5 1 3
f 5 7 8
f 4 7 5
f 2 1 5
f 5 6 2

