# https://github.com/mikedh/trimesh
v -0.16987404 0.04322919 0.04699992
v -0.16717482 0.04493401 0.04933709
v -0.16992027 0.04524941 0.04942774
v -0.16710272 0.04783934 0.04869015
v -0.16997177 0.04734309 0.04905980
v -0.16715115 0.04880591 0.04679971
v -0.16992145 0.04881034 0.04642865
v -0.16719223 0.04707904 0.04415796
v -0.16990767 0.04650154 0.04399755
v -0.16710355 0.04481774 0.04435762
v -0.16997370 0.04408894 0.04489509
v -0.16712467 0.04323349 0.04657646
v -0.15156119 0.04551571 0.04557007
v -0.15139638 0.04691194 0.04605049
v -0.15129575 0.04528429 0.04602115
v -0.15164329 0.04480279 0.04679834
v -0.15126545 0.04598934 0.04776096
v -0.15171375 0.04546221 0.04783280
v -0.15178543 0.04663916 0.04781709
v -0.15169377 0.04758999 0.04684002
v -0.15174220 0.04683011 0.04542735
v -0.15185322 0.04506406 0.04542589
v -0.15194232 0.04453329 0.04725387
v -0.15202720 0.04560989 0.04822056
v -0.15211917 0.04733456 0.04765241
v -0.15222067 0.04698584 0.04538859
v -0.15240902 0.04440139 0.04671840
v -0.15260342 0.04740576 0.04758668
v -0.15278475 0.04573959 0.04520457
v -0.15283538 0.04439966 0.04644038
v -0.15298800 0.04537346 0.04818015
v -0.15317394 0.04746481 0.04597979
v -0.15343069 0.04477519 0.04770651
v -0.15353662 0.04666101 0.04822142
v -0.16995174 0.04516634 0.04788031
v -0.16996552 0.04660259 0.04537675
v -0.16997405 0.04745891 0.04669552
f 1 3 11
f 36 11 37
f 9 11 36
f 37 7 36
f 36 7 9
f 35 11 3
f 2 3 1
f 9 7 8
f 8 7 32
f 10 11 9
f 10 22 11
f 23 2 1
f 24 2 31
f 31 23 24
f 6 7 4
f 4 28 6
f 32 7 6
f 26 8 32
f 15 14 17
f 20 26 32
f 17 14 20
f 32 6 20
f 20 6 28
f 31 2 33
f 33 23 31
f 2 23 33
f 2 24 34
f 18 23 17
f 17 24 18
f 18 24 23
f 8 26 29
f 9 8 29
f 29 10 9
f 22 10 29
f 13 15 22
f 14 15 13
f 22 15 16
f 17 23 16
f 16 15 17
f 27 30 22
f 22 16 27
f 27 16 23
f 11 22 12
f 22 30 12
f 1 11 12
f 30 27 12
f 12 23 1
f 12 27 23
f 25 28 4
f 4 34 25
f 17 20 25
f 25 20 28
f 3 2 5
f 2 34 5
f 5 34 4
f 4 7 5
f 5 35 3
f 5 7 37
f 11 35 5
f 37 11 5
f 22 29 21
f 21 29 26
f 21 13 22
f 14 13 21
f 21 20 14
f 26 20 21
f 19 34 24
f 19 25 34
f 19 24 17
f 17 25 19

