# https://github.com/mikedh/trimesh
v 0.04858655 -0.10962038 -0.03934244
v 0.04793310 -0.10890952 -0.03832622
v 0.04827055 -0.10947148 -0.04199545
v 0.05090297 -0.10840565 -0.04093649
v 0.05052270 -0.10778390 -0.03858445
v 0.04978957 -0.10641408 -0.03786232
v 0.04698507 -0.10719476 -0.03782549
v 0.04864552 -0.10458560 -0.03833422
v 0.04606237 -0.10559501 -0.03882217
v 0.04826600 -0.10380898 -0.04015545
v 0.04588990 -0.10527775 -0.04153837
v 0.04848582 -0.10423808 -0.04215712
v 0.04697918 -0.10718291 -0.04316634
v 0.04988980 -0.10671092 -0.04318512
v 0.05582565 -0.10152395 -0.04132517
v 0.05577075 -0.10116798 -0.04048424
v 0.05632295 -0.10239798 -0.04163039
v 0.05668995 -0.10331773 -0.04085129
v 0.05693405 -0.10290555 -0.04003550
v 0.05631605 -0.10262733 -0.03892494
v 0.05568947 -0.10136578 -0.03933865
v 0.05530487 -0.10098161 -0.04061904
v 0.05555765 -0.10158953 -0.04170509
v 0.05615378 -0.10274803 -0.04197077
v 0.05664130 -0.10373533 -0.04086605
v 0.05637760 -0.10345793 -0.03941424
v 0.05559157 -0.10224205 -0.03892682
v 0.05495162 -0.10130916 -0.03989012
v 0.05499265 -0.10154570 -0.04148062
v 0.05589323 -0.10328728 -0.04190407
v 0.05619987 -0.10404016 -0.04030882
v 0.05461397 -0.10168088 -0.03943084
v 0.05562872 -0.10391350 -0.04151867
v 0.05570910 -0.10418810 -0.03966167
v 0.04757550 -0.10827290 -0.04152369
v 0.04689082 -0.10708703 -0.04177792
v 0.04643845 -0.10630345 -0.04071919
v 0.04667067 -0.10670568 -0.03940620
f 30 3 14
f 11 9 10
f 10 9 8
f 10 12 11
f 14 3 13
f 11 12 13
f 13 23 14
f 13 12 23
f 37 9 11
f 8 9 7
f 7 6 8
f 14 23 24
f 24 30 14
f 23 17 24
f 1 3 4
f 19 17 16
f 8 6 27
f 36 13 3
f 11 13 36
f 36 37 11
f 9 37 38
f 2 5 6
f 6 7 2
f 1 5 2
f 2 3 1
f 2 7 9
f 9 38 2
f 37 36 2
f 2 38 37
f 18 17 19
f 18 24 17
f 3 30 33
f 33 4 3
f 15 17 23
f 15 16 17
f 12 10 22
f 22 15 23
f 16 15 22
f 1 4 34
f 34 5 1
f 34 26 5
f 21 32 8
f 8 27 21
f 16 22 21
f 19 16 21
f 20 27 6
f 6 5 20
f 5 26 20
f 20 26 19
f 19 21 20
f 20 21 27
f 35 36 3
f 3 2 35
f 35 2 36
f 23 12 29
f 29 22 23
f 12 22 29
f 19 26 25
f 25 18 19
f 25 33 30
f 4 33 25
f 30 24 25
f 24 18 25
f 32 21 28
f 28 21 22
f 28 22 10
f 28 10 8
f 8 32 28
f 26 34 31
f 31 25 26
f 31 34 4
f 4 25 31

