# https://github.com/mikedh/trimesh
v 0.01091932 -0.05546905 -0.03335787
v 0.01254156 -0.05359800 -0.03315960
v 0.00911669 -0.05550665 -0.03313630
v 0.00929138 -0.05028710 -0.03316072
v 0.00977239 -0.05019615 -0.03597685
v 0.00724042 -0.05189222 -0.03593782
v 0.00735924 -0.05175537 -0.03319657
v 0.00740991 -0.05384767 -0.03312992
v 0.00809940 -0.05499018 -0.03595987
v 0.01047351 -0.05549430 -0.03595290
v 0.01236753 -0.05408160 -0.03594625
v 0.01212821 -0.05128493 -0.03597257
v 0.01165981 -0.05078668 -0.03316347
v 0.00988936 -0.05387925 -0.04785350
v 0.01092213 -0.05351680 -0.04766245
v 0.01076044 -0.05417285 -0.04742830
v 0.01093518 -0.05228773 -0.04768833
v 0.00941722 -0.05168302 -0.04749225
v 0.00890417 -0.05256113 -0.04787087
v 0.00867427 -0.05330177 -0.04737760
v 0.01143525 -0.05258120 -0.04737633
v 0.01040765 -0.05144493 -0.04726755
v 0.00912928 -0.05154173 -0.04719765
v 0.00829487 -0.05281550 -0.04712267
v 0.00900416 -0.05414180 -0.04704107
v 0.01040748 -0.05437885 -0.04695032
v 0.01149569 -0.05276515 -0.04686070
v 0.00874134 -0.05180493 -0.04670760
v 0.00851880 -0.05382435 -0.04659800
v 0.00990927 -0.05124588 -0.04627730
v 0.00866339 -0.05211200 -0.03311222
v 0.00987845 -0.05434803 -0.03310030
v 0.01112930 -0.05362510 -0.03311320
v 0.00986674 -0.05145625 -0.03309435
f 7 4 6
f 27 12 2
f 27 21 12
f 21 27 16
f 32 3 2
f 13 34 2
f 4 34 13
f 2 12 13
f 20 24 19
f 29 24 20
f 14 20 19
f 3 9 25
f 25 9 29
f 29 20 25
f 20 14 25
f 2 3 1
f 11 27 2
f 11 16 27
f 2 1 11
f 11 1 16
f 12 21 22
f 22 13 12
f 2 34 33
f 33 32 2
f 34 32 33
f 8 32 34
f 3 32 8
f 8 9 3
f 8 7 6
f 29 9 8
f 6 24 8
f 8 24 29
f 21 16 15
f 16 14 15
f 3 25 10
f 10 1 3
f 16 1 10
f 19 24 23
f 23 18 19
f 6 4 23
f 23 22 18
f 17 22 21
f 21 15 17
f 19 18 17
f 18 22 17
f 17 14 19
f 17 15 14
f 7 8 31
f 31 8 34
f 4 7 31
f 31 34 4
f 16 10 26
f 26 10 25
f 26 14 16
f 26 25 14
f 28 24 6
f 6 23 28
f 28 23 24
f 13 22 5
f 4 13 5
f 5 23 4
f 22 23 30
f 30 5 22
f 23 5 30

