# https://github.com/mikedh/trimesh
v -0.10528479 -0.02861082 -0.07391708
v -0.10388012 -0.02854602 -0.07392918
v -0.10531789 -0.03305527 -0.06958083
v -0.10387769 -0.03298507 -0.06949401
v -0.10529704 0.03304341 -0.06957670
v -0.10387239 0.03297798 -0.06944148
v -0.10387739 0.02853663 -0.07393891
v -0.10203938 0.04271296 -0.03329236
v -0.10379159 0.04279261 -0.03319598
v -0.08321782 0.00216635 -0.00173538
v -0.08323797 -0.00773112 -0.00234546
v -0.08320035 -0.01651323 -0.00529998
v -0.08323665 -0.02391642 -0.00978328
v -0.08323665 -0.02970204 -0.01523555
v -0.08323665 -0.03427174 -0.02174095
v -0.08323120 -0.03743514 -0.02903183
v -0.08322185 -0.03906432 -0.03680813
v -0.08322185 -0.03909987 -0.04475640
v -0.08323120 -0.03753802 -0.05255435
v -0.08325429 -0.03353354 -0.06161436
v -0.08320192 -0.02629414 -0.07028556
v -0.08320302 -0.01809398 -0.07584043
v -0.08322629 -0.01001597 -0.07894470
v -0.08323796 -0.00020044 -0.08033448
v -0.08319341 0.00900490 -0.07920208
v -0.08323662 0.01715056 -0.07630698
v -0.08323664 0.02391526 -0.07213095
v -0.08323662 0.02970098 -0.06667858
v -0.08323664 0.03427078 -0.06017301
v -0.08324832 0.03807298 -0.05102620
v -0.08319287 0.03936706 -0.03979573
v -0.08319557 0.03774138 -0.03002878
v -0.08323664 0.03443538 -0.02203768
v -0.08323664 0.02992193 -0.01549293
v -0.08323664 0.02418356 -0.00999088
v -0.08323662 0.01745517 -0.00575661
v -0.08322627 0.01001476 -0.00296943
v -0.10969514 0.02249624 -0.06702439
v -0.10969388 0.03043186 -0.05681673
v -0.10969516 0.03356788 -0.03329096
v -0.10969514 0.00895016 -0.00770811
v -0.10969512 -0.03136342 -0.02674513
v -0.10969514 -0.03254332 -0.05220771
v -0.10969014 0.00384672 -0.07817523
v -0.10969219 -0.00950054 -0.07703011
v -0.10969557 -0.01833442 -0.07335161
v -0.10969192 -0.02746069 -0.06637361
v -0.10969102 -0.03455454 -0.05501015
v -0.10969445 -0.03691467 -0.04573636
v -0.10969340 -0.03681239 -0.03424883
v -0.10969015 -0.03104407 -0.02006953
v -0.10969445 -0.02310103 -0.01177041
v -0.10969412 -0.01493885 -0.00677478
v -0.10969142 -0.00572851 -0.00417973
v -0.10969220 0.00383500 -0.00385181
v -0.10969445 0.01312964 -0.00612758
v -0.10969411 0.02161409 -0.01055326
v -0.10969140 0.02858061 -0.01711380
v -0.10969219 0.03378491 -0.02514391
v -0.10969411 0.03699466 -0.03616748
v -0.10969194 0.03641656 -0.04955106
v -0.10969099 0.03094843 -0.06178088
v -0.10969411 0.02315073 -0.07020779
v -0.10969556 0.01490566 -0.07506491
v -0.08314719 0.03214958 -0.04032653
v -0.08314979 0.03332686 -0.04270103
v -0.08306039 -0.00015112 -0.07257083
v -0.08315752 -0.03369922 -0.03913768
v -0.08314572 -0.00170869 -0.00728763
v -0.10385992 -0.02851507 -0.00780141
v -0.10966222 -0.02869104 -0.00771795
v -0.10384465 -0.01976379 -0.00195876
v -0.10965560 -0.01623918 -0.00026951
v -0.10386805 -0.01018082 0.00165557
v -0.10963870 -0.00415446 0.00266247
v -0.10386807 0.00205374 0.00280657
v -0.10964842 0.01032699 0.00173797
v -0.10385360 0.01609489 -0.00009666
v -0.10965867 0.02376123 -0.00414158
v -0.10386265 0.02852578 -0.00781258
v -0.10963657 0.03456121 -0.01381521
v -0.10531787 0.03305418 -0.01233333
v -0.10387774 0.03298363 -0.01242008
v -0.10385647 0.03790836 -0.01906231
v -0.10962499 0.04147388 -0.02678996
v -0.10384024 0.04172096 -0.02788756
v -0.10967852 0.04342793 -0.03560208
v -0.10206417 0.04374946 -0.04087456
v -0.10966049 0.04352796 -0.04515098
v -0.10202347 0.04272816 -0.04863146
v -0.10379132 0.04278951 -0.04870856
v -0.10964421 0.04201131 -0.05309861
v -0.10384024 0.04172098 -0.05402656
v -0.10962602 0.03787638 -0.06305231
v -0.10385647 0.03790833 -0.06285186
v -0.10965771 0.02869148 -0.07419769
v -0.10382544 0.02231144 -0.07859061
v -0.10965559 0.01623824 -0.08164461
v -0.10392312 0.01240178 -0.08309951
v -0.10964384 0.00415274 -0.08457408
v -0.10383874 -0.00345401 -0.08476821
v -0.10964384 -0.00827002 -0.08398391
v -0.10385611 -0.01602442 -0.08164118
v -0.10965947 -0.01811745 -0.08075188
v -0.10384182 -0.02332980 -0.07793108
v -0.10964965 -0.02712917 -0.07536441
v -0.10965032 -0.03686029 -0.06483490
v -0.10387040 -0.03933482 -0.06050483
v -0.10964422 -0.04316364 -0.04924176
v -0.10384319 -0.04334972 -0.04708293
v -0.10385245 -0.04320769 -0.03310686
v -0.10967942 -0.04296974 -0.03174583
v -0.10387218 -0.03827402 -0.01963278
v -0.10960730 -0.03759109 -0.01841658
v -0.10388045 -0.03297534 -0.01241173
v -0.10529705 -0.03304442 -0.01233743
v -0.10968325 -0.04115744 -0.03932698
f 67 69 68
f 68 21 67
f 65 69 67
f 88 31 30
f 101 102 100
f 98 99 100
f 100 99 101
f 46 45 104
f 104 45 102
f 17 68 16
f 18 68 17
f 17 110 18
f 33 34 32
f 69 65 32
f 35 69 32
f 32 34 35
f 66 65 67
f 31 32 66
f 66 32 65
f 37 10 69
f 76 10 37
f 25 99 26
f 24 25 67
f 67 23 24
f 24 23 101
f 101 99 24
f 24 99 25
f 29 30 31
f 31 66 29
f 67 28 29
f 29 66 67
f 64 45 46
f 88 89 87
f 30 29 93
f 41 64 46
f 70 71 116
f 107 48 47
f 47 43 46
f 117 48 107
f 112 117 109
f 109 117 107
f 108 109 107
f 110 109 108
f 110 17 111
f 112 109 111
f 111 109 110
f 111 17 16
f 16 113 111
f 111 113 112
f 79 77 78
f 76 37 78
f 78 77 76
f 36 69 35
f 36 37 69
f 36 78 37
f 15 113 16
f 16 68 15
f 11 10 76
f 76 74 11
f 70 13 72
f 74 73 72
f 72 71 70
f 72 73 71
f 25 26 27
f 67 25 27
f 27 28 67
f 98 100 44
f 44 64 98
f 45 64 44
f 102 45 44
f 44 100 102
f 88 30 90
f 30 93 90
f 90 89 88
f 48 117 49
f 49 47 48
f 43 47 49
f 112 50 49
f 49 117 112
f 46 43 42
f 42 41 46
f 42 52 41
f 43 49 42
f 42 49 50
f 113 116 114
f 114 116 71
f 112 113 114
f 114 71 112
f 112 71 51
f 71 52 51
f 51 50 112
f 51 42 50
f 52 42 51
f 107 47 106
f 46 104 106
f 106 47 46
f 21 2 105
f 105 106 104
f 2 106 105
f 20 108 4
f 21 20 4
f 4 2 21
f 4 108 107
f 19 108 20
f 19 20 21
f 18 110 19
f 110 108 19
f 21 68 19
f 19 68 18
f 75 74 76
f 75 73 74
f 76 77 75
f 73 75 54
f 12 68 69
f 69 10 12
f 10 11 12
f 12 72 13
f 12 11 74
f 74 72 12
f 96 94 5
f 98 64 96
f 93 94 92
f 94 96 92
f 92 62 89
f 96 62 92
f 95 93 29
f 95 94 93
f 95 29 28
f 28 6 95
f 5 94 95
f 95 6 5
f 58 57 79
f 79 81 58
f 58 81 87
f 56 57 41
f 56 77 79
f 79 57 56
f 103 105 104
f 101 23 103
f 103 102 101
f 103 104 102
f 21 105 22
f 67 21 22
f 22 23 67
f 22 103 23
f 105 103 22
f 107 106 3
f 3 4 107
f 2 4 3
f 41 52 53
f 53 56 41
f 73 54 53
f 53 52 71
f 71 73 53
f 14 12 13
f 14 15 68
f 68 12 14
f 14 13 70
f 113 15 14
f 97 27 26
f 97 26 99
f 97 99 98
f 98 96 97
f 38 60 39
f 80 81 79
f 79 78 80
f 35 34 80
f 80 36 35
f 78 36 80
f 33 32 86
f 84 34 33
f 33 86 84
f 91 90 93
f 93 92 91
f 89 90 91
f 91 92 89
f 41 57 40
f 40 60 38
f 64 41 40
f 40 38 64
f 87 60 59
f 59 58 87
f 57 58 59
f 59 40 57
f 60 40 59
f 1 106 2
f 2 3 1
f 1 3 106
f 55 53 54
f 56 53 55
f 77 56 55
f 55 75 77
f 55 54 75
f 70 116 115
f 115 14 70
f 115 116 113
f 113 14 115
f 27 97 7
f 28 27 7
f 7 6 28
f 7 97 96
f 7 96 5
f 5 6 7
f 61 39 60
f 61 60 87
f 61 87 89
f 89 62 61
f 38 39 63
f 64 38 63
f 63 61 62
f 39 61 63
f 63 96 64
f 63 62 96
f 87 81 85
f 85 86 87
f 81 84 85
f 85 84 86
f 8 86 32
f 8 31 88
f 8 32 31
f 83 84 81
f 83 80 34
f 34 84 83
f 87 86 9
f 86 8 9
f 88 87 9
f 9 8 88
f 81 80 82
f 82 83 81
f 80 83 82

