# https://github.com/mikedh/trimesh
v 0.09726781 -0.08882321 -0.08742216
v 0.09718898 -0.08866016 -0.08832482
v 0.09835625 -0.08651923 -0.08744994
v 0.09821313 -0.08636348 -0.08832832
v 0.09692975 -0.08428790 -0.08743226
v 0.09684333 -0.08447861 -0.08833744
v 0.09394776 -0.08480306 -0.08821426
v 0.09314068 -0.08677823 -0.08745356
v 0.09325378 -0.08681773 -0.08835334
v 0.09451743 -0.08896678 -0.08745905
v 0.09472698 -0.08891756 -0.08832566
v 0.09545553 -0.08901443 -0.08647466
v 0.09778988 -0.08549286 -0.08662694
v 0.09694053 -0.08421763 -0.08627806
v 0.09304410 -0.08678298 -0.08630807
v 0.09454363 -0.08907161 -0.08628786
v 0.09723723 -0.08893221 -0.08630386
v 0.09423158 -0.08439951 -0.08625364
v 0.09848208 -0.08652918 -0.08625812
v 0.09692353 -0.08422838 -0.08516876
v 0.09424498 -0.08440808 -0.08515367
v 0.09453043 -0.08902688 -0.08515112
v 0.09788170 -0.08770808 -0.08441672
v 0.09574093 -0.08905791 -0.08437730
v 0.09364818 -0.08775276 -0.08442679
v 0.09305703 -0.08679358 -0.08517229
v 0.09776490 -0.08541783 -0.08438382
v 0.09845470 -0.08652108 -0.08517534
v 0.09835470 -0.08643856 -0.08407085
v 0.09695108 -0.08425451 -0.08408110
v 0.09306900 -0.08676476 -0.08409917
v 0.09349315 -0.08724601 -0.08310237
v 0.09373583 -0.08535758 -0.08332581
v 0.09429773 -0.08439128 -0.08405699
v 0.09610935 -0.08434853 -0.08309199
v 0.09773926 -0.08548648 -0.08310407
v 0.09794563 -0.08745696 -0.08308847
v 0.09402365 -0.08499501 -0.08294525
v 0.09459668 -0.08883918 -0.08294525
v 0.09451943 -0.08894191 -0.08363401
v 0.09631378 -0.08890025 -0.08313071
v 0.09715078 -0.08887648 -0.08369584
v 0.09721650 -0.08763296 -0.08296979
v 0.09713688 -0.08604228 -0.08865112
v 0.09656663 -0.08772408 -0.08846439
v 0.09629423 -0.08523361 -0.08860960
v 0.09427421 -0.08439981 -0.08869327
v 0.09483185 -0.08787576 -0.08846069
v 0.09430745 -0.08703423 -0.08852502
f 39 38 32
f 14 47 34
f 33 32 38
f 38 34 33
f 15 16 25
f 25 26 15
f 43 38 39
f 43 36 38
f 19 4 13
f 13 27 19
f 14 27 13
f 14 34 20
f 38 36 35
f 35 34 38
f 47 7 18
f 18 34 47
f 3 4 19
f 31 25 32
f 26 25 31
f 32 33 31
f 15 26 31
f 31 7 15
f 31 33 7
f 36 43 37
f 5 47 14
f 5 6 47
f 4 6 5
f 14 13 5
f 5 13 4
f 47 6 46
f 9 7 47
f 42 24 17
f 17 24 16
f 30 35 36
f 36 27 30
f 30 20 34
f 34 35 30
f 30 27 14
f 14 20 30
f 21 33 34
f 34 18 21
f 7 33 21
f 21 18 7
f 39 32 40
f 32 25 40
f 41 24 42
f 41 43 39
f 39 40 41
f 41 40 24
f 42 37 41
f 41 37 43
f 36 37 29
f 29 27 36
f 49 9 47
f 11 9 49
f 44 6 4
f 44 46 6
f 47 46 44
f 44 49 47
f 15 7 8
f 7 9 8
f 10 11 16
f 10 9 11
f 10 8 9
f 10 16 15
f 15 8 10
f 1 3 19
f 19 17 1
f 1 17 11
f 16 11 12
f 12 17 16
f 11 17 12
f 23 37 42
f 42 17 23
f 23 17 19
f 16 24 22
f 24 40 22
f 22 25 16
f 22 40 25
f 19 27 28
f 27 29 28
f 28 29 37
f 28 23 19
f 37 23 28
f 11 49 48
f 49 44 48
f 2 1 11
f 2 44 4
f 4 3 2
f 3 1 2
f 11 48 45
f 45 2 11
f 45 48 44
f 44 2 45

