# https://github.com/mikedh/trimesh
v -0.06847794 0.18067721 0.06216791
v -0.06841246 0.18074268 0.06610494
v -0.05942636 0.18071923 0.06216791
v -0.05944394 0.18070163 0.06610494
v -0.05901916 0.17123205 0.06626285
v -0.06886169 0.17144330 0.06616226
v -0.06843691 0.17029968 0.07650690
v -0.06845451 0.16636265 0.07652450
v -0.05946839 0.17029968 0.07654792
v -0.05940291 0.16636265 0.07648245
v -0.05901916 0.16636265 0.06216791
v -0.05901916 0.17031775 0.06768579
v -0.06886169 0.17031538 0.06760321
v -0.06886169 0.16636265 0.06216791
f 2 9 4
f 7 2 13
f 7 9 2
f 9 7 8
f 14 11 8
f 13 14 8
f 8 7 13
f 6 14 13
f 6 1 14
f 13 2 6
f 2 1 6
f 2 4 3
f 3 1 2
f 3 4 5
f 5 11 3
f 12 11 5
f 5 4 12
f 12 4 9
f 9 8 10
f 10 8 11
f 10 12 9
f 11 12 10
f 3 11 14
f 14 1 3

