# https://github.com/mikedh/trimesh
v 0.19218207 0.19848623 0.09418997
v 0.19272629 0.19678318 0.09518211
v 0.19291394 0.19809481 0.09454132
v 0.19123788 0.19780726 0.09300299
v 0.19188031 0.19814448 0.09417604
v 0.19232161 0.19850583 0.09328009
v 0.19163181 0.19825991 0.09298066
v 0.19659568 0.19450039 0.09324267
v 0.19999448 0.19561441 0.09290529
v 0.19716062 0.19704083 0.09455492
v 0.19225681 0.19729799 0.09493624
v 0.19539081 0.19908581 0.09030069
v 0.19908412 0.19964330 0.09078097
v 0.19838679 0.19897718 0.08910694
v 0.19977386 0.19901421 0.09243551
v 0.19996629 0.19708866 0.09345832
v 0.19138924 0.19598202 0.09386794
v 0.19175948 0.19748553 0.09480919
v 0.19134746 0.19603066 0.09287717
v 0.19184441 0.19589124 0.09260521
v 0.19128001 0.19713099 0.09234011
v 0.19903333 0.19557366 0.09056594
v 0.19808649 0.19726756 0.08832877
v 0.19822341 0.19512694 0.08885334
v 0.19502176 0.19665925 0.08956289
v 0.19568694 0.19447108 0.09121452
v 0.19656114 0.19948068 0.09314921
v 0.19200106 0.19549494 0.09434406
v 0.19918826 0.19840301 0.09093632
v 0.19922669 0.19433956 0.09116907
v 0.19961236 0.19755176 0.09195607
f 25 12 23
f 24 25 23
f 26 25 24
f 13 12 27
f 15 29 13
f 13 27 15
f 15 27 10
f 14 12 13
f 23 12 14
f 13 29 14
f 14 29 23
f 12 25 21
f 22 24 23
f 23 29 22
f 26 24 30
f 30 22 9
f 24 22 30
f 6 27 12
f 16 10 9
f 9 15 16
f 16 15 10
f 31 15 9
f 29 15 31
f 9 22 31
f 31 22 29
f 9 10 8
f 8 30 9
f 8 28 26
f 26 30 8
f 20 25 26
f 2 8 10
f 28 8 2
f 7 6 12
f 7 21 4
f 12 21 7
f 4 21 19
f 19 17 4
f 19 21 25
f 25 20 19
f 28 17 19
f 26 28 19
f 19 20 26
f 10 27 3
f 3 2 10
f 18 17 28
f 28 2 18
f 4 17 18
f 27 6 1
f 1 3 27
f 1 18 3
f 6 7 1
f 1 7 4
f 2 3 11
f 11 18 2
f 3 18 11
f 4 18 5
f 5 1 4
f 18 1 5

