# https://github.com/mikedh/trimesh
v 0.07954431 0.11003297 0.00703761
v 0.07956321 0.10411244 0.00704511
v 0.07814584 0.09406237 -0.08851887
v 0.06969249 0.09507705 -0.08438680
v 0.07631372 0.10647219 -0.08661316
v 0.11099349 0.09096434 -0.08869229
v 0.05496216 0.06896595 -0.05485870
v 0.05846556 0.07555725 -0.06631102
v 0.05739939 0.07218122 -0.06443852
v 0.10134382 0.14813417 -0.04934844
v 0.09985172 0.14732549 -0.05070527
v 0.10133624 0.14874149 -0.03552331
v 0.08014032 0.11108362 -0.08773074
v 0.08432209 0.11240562 -0.08862034
v 0.07966792 0.10721800 -0.08875494
v 0.13411976 0.07451839 -0.03907514
v 0.13075742 0.11385504 -0.00883042
v 0.12741751 0.10965426 -0.00400909
v 0.12438481 0.10344610 -0.00004569
v 0.08889810 0.12811037 -0.08113345
v 0.09651360 0.14004212 -0.06995289
v 0.09311884 0.13352885 -0.07749644
v 0.13653646 0.12531599 -0.03439051
v 0.09516168 0.05355129 -0.01686802
v 0.09875691 0.05913229 -0.00856956
v 0.13520596 0.07589546 -0.04070231
v 0.09491907 0.13729594 -0.00734912
v 0.09163619 0.13126734 -0.00153584
v 0.09872189 0.12671241 -0.00162577
v 0.08310262 0.11840415 -0.08510699
v 0.13231127 0.11738571 -0.06800799
v 0.10298659 0.06477887 -0.07632427
v 0.09987512 0.14741492 -0.03371584
v 0.08737599 0.12426514 0.00306946
v 0.10143507 0.14684649 -0.02635059
v 0.09829629 0.14481767 -0.02162094
v 0.07684700 0.10545430 -0.08782732
v 0.07268394 0.09863377 -0.08681844
v 0.05474889 0.06728520 -0.04989715
v 0.05401619 0.06706027 -0.04025557
v 0.09668921 0.05386024 -0.01825342
v 0.10243092 0.14825527 -0.04654724
v 0.11347826 0.14180079 -0.04613084
v 0.10736152 0.10358350 -0.08869320
v 0.10492209 0.10533310 -0.08869295
v 0.10118122 0.14738657 -0.05354287
v 0.09462892 0.13814499 -0.01041762
v 0.09445010 0.13788424 -0.07099017
v 0.09314876 0.04958949 -0.02659682
v 0.07330468 0.09971440 0.00615456
v 0.07763743 0.09467939 0.00532253
v 0.07575251 0.10204154 0.00685423
v 0.08700444 0.09589985 0.00679363
v 0.05670658 0.07266242 -0.01886840
v 0.05549408 0.06850867 -0.02568440
v 0.05788763 0.07261885 -0.01538972
v 0.10870226 0.08760159 -0.08869295
v 0.10360012 0.14777075 -0.04152794
v 0.10750489 0.14546524 -0.04336109
v 0.10801299 0.14519264 -0.03807799
v 0.05610134 0.06549987 -0.03940202
v 0.06004959 0.06326859 -0.03756695
v 0.06054009 0.06296652 -0.04285219
v 0.08522549 0.10687614 0.00699003
v 0.08308318 0.10201227 0.00700848
v 0.10370263 0.06777952 -0.00104019
v 0.08523962 0.12010549 -0.08577330
v 0.08966704 0.12645572 -0.08279999
v 0.08181604 0.11254475 0.00684006
v 0.08404159 0.11807719 0.00567398
v 0.10250894 0.06628259 -0.07878161
v 0.10611054 0.07174591 -0.08193217
v 0.09276089 0.04796089 -0.03455474
v 0.08188834 0.11601565 0.00386733
v 0.09097166 0.13188389 -0.00307039
v 0.09049214 0.11443975 -0.08830204
v 0.11279542 0.08722032 -0.08851159
v 0.08115494 0.08957035 -0.08843661
v 0.09533214 0.11403121 -0.08842337
v 0.07727354 0.10078462 -0.08863677
v 0.13682084 0.12340331 -0.03468761
v 0.05976471 0.07815260 -0.01007404
v 0.06141726 0.07820562 -0.00696377
v 0.11533190 0.08694509 -0.08499479
v 0.11004182 0.07782804 -0.08402382
v 0.12022550 0.09564809 -0.08391692
v 0.10896823 0.07733537 0.00320094
v 0.13421187 0.12506776 -0.05372617
v 0.13701769 0.12451061 -0.04749972
v 0.13491139 0.12118532 -0.06037331
v 0.07701249 0.10771787 0.00581306
v 0.05697261 0.06498425 -0.04279309
v 0.13676621 0.12567734 -0.04255749
v 0.13383941 0.07397212 -0.04126749
v 0.11990239 0.09644017 0.00310226
v 0.06059854 0.07951497 -0.07285077
v 0.06096631 0.07762400 -0.07315240
v 0.06403707 0.08336915 -0.07883885
v 0.11069571 0.07865757 0.00288818
v 0.10211966 0.06341057 -0.00569942
v 0.11910526 0.09319349 0.00306611
v 0.11450074 0.08676627 0.00453919
v 0.10448240 0.14727355 -0.03813676
v 0.09189281 0.04784142 -0.04355192
v 0.09327119 0.04905162 -0.05283147
v 0.12441797 0.10360629 -0.08086272
v 0.12987604 0.11223412 -0.07375753
v 0.06147166 0.06512965 -0.02663950
v 0.06326496 0.08421669 -0.00346020
v 0.10396242 0.08072314 -0.08858319
v 0.10901552 0.08290467 -0.08811204
v 0.09267709 0.10577217 0.00680323
v 0.06624414 0.05993467 -0.04621224
v 0.09830879 0.14270219 -0.01542997
v 0.09734342 0.08489619 -0.08869322
v 0.09435597 0.08460072 -0.08869291
v 0.13403678 0.11974491 -0.01728626
v 0.06791518 0.08967377 0.00251703
v 0.11478587 0.09638062 -0.08856494
v 0.06751412 0.08870727 -0.08301660
v 0.09828746 0.05899059 -0.07206565
v 0.12742329 0.10913893 -0.07707429
v 0.09887119 0.14425557 -0.06236012
v 0.11342505 0.10093599 -0.08852866
v 0.11498539 0.09325222 -0.08811297
v 0.06349114 0.08175325 -0.00300117
v 0.05476288 0.06931439 -0.02912327
v 0.07072426 0.09695459 0.00354361
v 0.05509014 0.06625357 -0.03438675
v 0.09956786 0.05890169 -0.07037651
v 0.13589422 0.12363689 -0.02656974
v 0.09666249 0.05389397 -0.06288169
v 0.05451956 0.06712062 -0.03329892
v 0.05508991 0.06625615 -0.04647649
v 0.06621009 0.05992997 -0.03479904
v 0.09648097 0.08070677 -0.08846587
v 0.11349272 0.14178215 -0.03474497
v 0.10244629 0.14827489 -0.03446462
v 0.09482681 0.05266720 -0.06251044
v 0.11062529 0.10519087 -0.08847557
f 36 11 30
f 30 96 36
f 96 82 36
f 117 27 17
f 97 96 98
f 7 39 40
f 131 117 26
f 26 117 17
f 12 11 33
f 33 36 12
f 11 36 33
f 131 23 137
f 27 117 114
f 17 27 18
f 27 29 18
f 30 67 13
f 4 96 30
f 4 98 96
f 127 82 96
f 127 7 40
f 9 96 97
f 15 13 14
f 14 67 76
f 14 13 67
f 89 26 90
f 26 31 90
f 30 11 48
f 10 11 12
f 12 42 10
f 89 43 93
f 43 137 93
f 93 137 23
f 131 26 81
f 81 23 131
f 81 26 89
f 89 93 81
f 81 93 23
f 24 55 49
f 24 56 55
f 87 66 99
f 87 99 102
f 102 53 87
f 27 114 47
f 47 114 36
f 12 36 35
f 36 114 35
f 131 137 35
f 35 117 131
f 35 114 117
f 112 53 102
f 112 65 53
f 19 18 29
f 19 26 17
f 17 18 19
f 30 13 5
f 5 4 30
f 97 98 121
f 98 136 121
f 78 136 98
f 8 127 96
f 7 127 8
f 96 9 8
f 8 9 7
f 88 43 89
f 89 90 88
f 79 14 76
f 40 129 133
f 133 129 55
f 133 127 40
f 55 127 133
f 49 55 108
f 54 127 55
f 55 56 54
f 82 127 54
f 54 56 82
f 11 10 46
f 46 88 90
f 43 88 46
f 46 42 43
f 46 10 42
f 82 56 83
f 83 126 82
f 56 24 83
f 66 126 25
f 25 83 24
f 126 83 25
f 60 137 43
f 74 70 34
f 34 19 29
f 52 50 53
f 1 50 52
f 118 126 66
f 50 128 118
f 66 87 118
f 109 36 82
f 109 128 36
f 109 118 128
f 82 126 109
f 126 118 109
f 36 128 75
f 75 47 36
f 74 34 75
f 27 47 75
f 12 35 138
f 138 35 137
f 103 58 138
f 137 60 138
f 138 60 103
f 138 42 12
f 138 58 42
f 69 70 1
f 1 112 69
f 69 112 70
f 64 112 1
f 65 112 64
f 70 112 95
f 95 34 70
f 19 34 95
f 101 19 95
f 102 101 95
f 95 112 102
f 40 39 134
f 92 61 134
f 134 129 40
f 134 61 129
f 37 13 15
f 37 5 13
f 15 80 37
f 139 105 7
f 7 9 139
f 139 121 130
f 139 9 97
f 97 121 139
f 3 78 120
f 120 78 98
f 98 4 120
f 73 104 105
f 105 94 73
f 49 73 16
f 16 73 94
f 16 94 26
f 99 66 16
f 102 99 16
f 16 101 102
f 16 19 101
f 26 19 16
f 119 77 6
f 6 44 119
f 15 44 6
f 110 136 116
f 116 115 110
f 136 78 116
f 116 78 3
f 3 80 116
f 116 80 15
f 15 115 116
f 140 122 124
f 119 44 124
f 124 44 140
f 125 77 119
f 107 122 140
f 107 31 26
f 77 125 86
f 86 125 119
f 15 14 45
f 45 44 15
f 14 79 45
f 140 44 45
f 45 79 140
f 140 79 22
f 22 107 140
f 31 107 22
f 104 73 135
f 135 73 49
f 49 108 135
f 55 129 135
f 135 108 55
f 21 22 48
f 31 22 21
f 59 60 43
f 43 42 59
f 42 58 59
f 59 58 103
f 103 60 59
f 53 65 2
f 2 52 53
f 65 64 2
f 1 52 2
f 2 64 1
f 51 87 53
f 51 118 87
f 53 50 51
f 50 118 51
f 74 75 91
f 91 75 128
f 1 70 91
f 91 70 74
f 91 50 1
f 91 128 50
f 27 75 28
f 28 75 34
f 28 29 27
f 28 34 29
f 4 5 38
f 5 37 38
f 38 37 80
f 38 120 4
f 38 80 3
f 3 120 38
f 130 94 132
f 132 139 130
f 132 94 105
f 105 139 132
f 41 25 24
f 41 16 25
f 41 24 49
f 49 16 41
f 66 25 100
f 100 16 66
f 25 16 100
f 57 77 110
f 57 6 77
f 110 115 57
f 57 115 15
f 15 6 57
f 110 77 111
f 111 72 110
f 71 136 110
f 110 72 71
f 71 121 136
f 94 72 85
f 85 111 77
f 72 111 85
f 119 124 106
f 106 124 122
f 106 86 119
f 26 86 106
f 106 107 26
f 122 107 106
f 26 94 84
f 84 86 26
f 77 86 84
f 94 85 84
f 84 85 77
f 68 22 79
f 76 67 68
f 68 79 76
f 129 61 62
f 62 135 129
f 62 61 92
f 104 135 113
f 105 104 113
f 113 134 39
f 39 7 113
f 7 105 113
f 123 46 90
f 123 90 31
f 31 21 123
f 11 46 123
f 123 48 11
f 123 21 48
f 130 121 32
f 121 71 32
f 32 94 130
f 32 72 94
f 32 71 72
f 20 68 67
f 22 68 20
f 20 67 30
f 30 48 20
f 48 22 20
f 135 62 63
f 63 113 135
f 63 62 92
f 92 134 63
f 134 113 63

