# https://github.com/mikedh/trimesh
v 0.16747155 0.18270724 -0.02721356
v 0.15182634 0.18448892 -0.02024739
v 0.15189799 0.18211136 -0.02118611
v 0.17500385 0.18565081 -0.03303579
v 0.17456912 0.18352509 -0.03427519
v 0.17476777 0.18368774 -0.03536936
v 0.17527478 0.18534806 -0.03387349
v 0.17356937 0.18531256 -0.03825538
v 0.17358260 0.18338466 -0.03692681
v 0.17304344 0.18545386 -0.03850054
v 0.17415980 0.18827744 -0.03691594
v 0.15170804 0.18777012 -0.02027864
v 0.15130285 0.19155039 -0.02271991
v 0.15004332 0.19193031 -0.02438274
v 0.15012630 0.18016459 -0.02410379
v 0.16638690 0.18107281 -0.02982806
v 0.16410147 0.18054984 -0.03535189
v 0.14910810 0.18004294 -0.02708246
v 0.14779537 0.18171199 -0.02985094
v 0.17514479 0.18718178 -0.03401334
v 0.17479515 0.18835234 -0.03504943
v 0.17415875 0.18871659 -0.03464876
v 0.14972722 0.19243521 -0.02641019
v 0.16542592 0.19244352 -0.03214594
v 0.14779372 0.19034714 -0.02989851
v 0.16664455 0.19146747 -0.02896531
v 0.17477052 0.18746237 -0.03335564
v 0.17237967 0.18715241 -0.03819506
v 0.16777552 0.18606296 -0.02626394
v 0.16281005 0.18600211 -0.03823176
v 0.14755649 0.18619629 -0.03202799
v 0.16327269 0.18930478 -0.03736438
v 0.14729462 0.18778462 -0.03105562
v 0.17310833 0.18879316 -0.03675748
v 0.16530481 0.17955439 -0.03221033
v 0.17227515 0.18485583 -0.03812593
f 31 32 30
f 19 31 30
f 33 31 19
f 16 1 35
f 3 1 2
f 35 1 3
f 5 16 35
f 1 16 5
f 17 9 35
f 17 19 30
f 35 18 17
f 18 19 17
f 24 32 25
f 33 14 25
f 25 31 33
f 32 31 25
f 34 32 24
f 7 20 4
f 4 5 7
f 1 5 4
f 2 1 29
f 1 4 29
f 13 26 24
f 15 3 2
f 15 19 18
f 15 18 35
f 35 3 15
f 33 19 15
f 35 9 6
f 6 5 35
f 7 5 6
f 24 25 23
f 23 25 14
f 23 13 24
f 14 13 23
f 9 17 36
f 24 26 22
f 22 34 24
f 27 4 20
f 27 29 4
f 26 29 27
f 27 22 26
f 12 29 26
f 26 13 12
f 2 29 12
f 12 13 14
f 12 15 2
f 12 14 33
f 33 15 12
f 32 34 28
f 30 32 28
f 7 6 11
f 11 28 34
f 8 6 9
f 8 11 6
f 34 22 21
f 21 11 34
f 21 27 20
f 22 27 21
f 21 20 7
f 7 11 21
f 9 36 10
f 10 8 9
f 10 17 30
f 10 36 17
f 30 28 10
f 28 11 10
f 11 8 10

