# https://github.com/mikedh/trimesh
v -0.20704069 0.18067719 0.04966790
v -0.20710616 0.18074266 0.04573090
v -0.21609237 0.18071924 0.04966790
v -0.21607472 0.18070164 0.04573090
v -0.21649952 0.17179472 0.04571383
v -0.20665698 0.17172431 0.04569470
v -0.20708177 0.17029969 0.03532892
v -0.20706417 0.16636266 0.03531132
v -0.21605029 0.17029969 0.03528789
v -0.21611573 0.16636266 0.03535336
v -0.21649952 0.16636266 0.04966790
v -0.20665698 0.16636266 0.04966790
v -0.21649952 0.17039954 0.04465778
v -0.20665698 0.17036364 0.04450602
f 2 9 4
f 6 2 1
f 5 4 9
f 6 1 12
f 3 5 11
f 4 5 3
f 2 4 3
f 3 1 2
f 9 8 10
f 7 2 6
f 7 9 2
f 7 8 9
f 13 5 9
f 9 10 13
f 13 10 11
f 11 5 13
f 14 7 6
f 8 7 14
f 14 12 8
f 6 12 14
f 3 12 1
f 11 12 3
f 10 12 11
f 8 12 10

