# https://github.com/mikedh/trimesh
v -0.05929184 -0.13620213 0.12423830
v -0.05929186 -0.06644825 0.11035177
v -0.05929184 -0.08055000 0.12430770
v -0.05929197 -0.14257230 0.12131550
v -0.05929197 -0.14716517 0.11672255
v -0.05929187 -0.15008724 0.11035407
v -0.05929181 -0.06601825 0.06216791
v -0.05929181 -0.15051824 0.06216791
v -0.05929196 -0.06937135 0.11672257
v -0.05929196 -0.07396420 0.12131550
v -0.19263279 -0.06647961 0.06216795
v -0.18499044 -0.06631398 0.08843921
v -0.13706893 -0.06646724 0.11090054
v -0.13706677 -0.15007026 0.11089879
v -0.18499047 -0.15022251 0.08843924
v -0.19263279 -0.15005688 0.06216795
v -0.14009874 -0.08146874 0.12446971
v -0.14000801 -0.13510066 0.12448501
v -0.20658826 -0.08126936 0.06216797
v -0.20662198 -0.13514921 0.06216800
v -0.20222211 -0.14430694 0.06216790
v -0.20222215 -0.07222961 0.06216790
v -0.19760315 -0.08789324 0.09902151
v -0.19942982 -0.08789324 0.09169546
v -0.19760315 -0.12864323 0.09902151
v -0.19942982 -0.12864323 0.09169546
v -0.18157193 -0.08244668 0.10605103
v -0.18203071 -0.08735646 0.10595484
v -0.17934581 -0.12918003 0.10715024
v -0.17888659 -0.13408851 0.10724691
v -0.13896676 -0.14421478 0.12035769
v -0.19747139 -0.13495143 0.09891221
v -0.19497627 -0.14233728 0.09681731
v -0.19037594 -0.14756041 0.09295731
v -0.13896676 -0.07232174 0.12035771
v -0.19747148 -0.08158488 0.09891158
v -0.19456309 -0.07338116 0.09647049
v -0.18965121 -0.06850879 0.09234901
f 7 8 22
f 21 22 8
f 19 21 20
f 22 21 19
f 7 22 11
f 11 22 38
f 8 15 16
f 16 21 8
f 7 11 12
f 12 11 38
f 18 32 33
f 20 21 33
f 33 32 20
f 18 1 3
f 3 8 7
f 3 1 8
f 14 15 8
f 31 1 18
f 31 4 1
f 18 33 31
f 10 3 9
f 30 32 18
f 18 29 30
f 20 32 26
f 22 19 37
f 38 22 37
f 6 14 8
f 8 1 6
f 15 14 34
f 14 31 34
f 34 31 33
f 34 33 21
f 34 16 15
f 21 16 34
f 2 3 7
f 2 9 3
f 25 26 32
f 29 23 25
f 32 30 25
f 25 30 29
f 24 19 20
f 20 26 24
f 36 37 19
f 36 24 23
f 19 24 36
f 38 37 35
f 10 9 35
f 35 3 10
f 1 4 5
f 5 6 1
f 4 31 5
f 5 31 14
f 14 6 5
f 17 29 18
f 18 3 17
f 3 35 17
f 37 36 17
f 17 35 37
f 13 12 38
f 38 35 13
f 7 12 13
f 13 2 7
f 9 2 13
f 13 35 9
f 27 36 23
f 27 17 36
f 28 27 23
f 17 27 28
f 28 23 29
f 29 17 28
f 26 25 24
f 24 25 23

