# https://github.com/mikedh/trimesh
v -0.11588847 -0.01927220 -0.00835486
v -0.11568604 -0.01765173 -0.00648211
v -0.11566532 -0.02107538 -0.00839128
v -0.11850820 -0.01773846 -0.00653283
v -0.11829342 -0.01858215 -0.00798768
v -0.11850362 -0.02029133 -0.00843399
v -0.11831052 -0.02314608 -0.00596643
v -0.11851438 -0.02236951 -0.00397428
v -0.11851857 -0.02220651 -0.00764598
v -0.11565755 -0.02277964 -0.00673341
v -0.11570324 -0.02280212 -0.00458223
v -0.11569657 -0.02090809 -0.00316948
v -0.11848989 -0.01959549 -0.00311399
v -0.11568962 -0.01853397 -0.00367361
v -0.11851958 -0.01784448 -0.00481616
v -0.10398812 -0.02033839 -0.00455696
v -0.10410252 -0.02182998 -0.00520021
v -0.10392612 -0.01935859 -0.00509986
v -0.10411872 -0.01911160 -0.00598788
v -0.10377862 -0.02051622 -0.00678253
v -0.10417733 -0.01993172 -0.00692935
v -0.10424935 -0.02033230 -0.00421758
v -0.10433262 -0.01887861 -0.00510308
v -0.10446220 -0.01926319 -0.00700638
v -0.10451532 -0.02119999 -0.00707973
v -0.10473035 -0.02044405 -0.00421158
v -0.10480325 -0.01903369 -0.00487991
v -0.10490095 -0.01888637 -0.00645358
v -0.10498353 -0.02032431 -0.00733378
v -0.10505082 -0.02168761 -0.00654348
v -0.11855347 -0.01908058 -0.00653673
v -0.11854500 -0.02148575 -0.00666553
v -0.11852952 -0.02155966 -0.00495726
v -0.11853480 -0.01903865 -0.00507199
f 31 6 32
f 6 3 9
f 9 32 6
f 3 25 9
f 8 9 7
f 32 9 8
f 14 15 13
f 23 15 14
f 4 6 31
f 31 15 4
f 20 24 19
f 1 3 6
f 20 19 18
f 18 19 23
f 21 24 20
f 29 25 3
f 3 1 29
f 29 1 24
f 24 21 29
f 20 25 29
f 29 21 20
f 7 9 10
f 10 9 25
f 31 32 33
f 32 8 33
f 13 15 34
f 34 8 13
f 34 15 31
f 31 33 34
f 34 33 8
f 13 8 12
f 17 25 20
f 7 10 17
f 22 18 23
f 22 14 13
f 13 12 22
f 2 15 23
f 2 4 15
f 11 12 8
f 11 17 12
f 11 8 7
f 7 17 11
f 30 10 25
f 25 17 30
f 30 17 10
f 23 14 27
f 27 22 23
f 14 22 27
f 18 22 16
f 16 22 17
f 20 18 16
f 16 17 20
f 12 17 26
f 26 22 12
f 17 22 26
f 28 2 23
f 24 2 28
f 23 19 28
f 28 19 24
f 4 2 5
f 6 4 5
f 5 1 6
f 24 1 5
f 5 2 24

