# https://github.com/mikedh/trimesh
v 0.19816702 -0.17799561 -0.07145846
v 0.20188117 -0.17591682 -0.07104133
v 0.20122597 -0.17977886 -0.07310376
v 0.21424845 -0.19383254 -0.04955394
v 0.21461793 -0.18575989 -0.05524691
v 0.21517282 -0.18999256 -0.04782281
v 0.21344777 -0.19163584 -0.05764791
v 0.20486558 -0.19393462 -0.06960676
v 0.20634943 -0.18644159 -0.06998073
v 0.20732249 -0.19423536 -0.06720264
v 0.21131831 -0.18590536 -0.06347066
v 0.20942489 -0.17597025 -0.06354638
v 0.21312946 -0.18006922 -0.05822278
v 0.20626389 -0.17361636 -0.06572026
v 0.20749675 -0.17626312 -0.06595933
v 0.21411424 -0.17799459 -0.04683681
v 0.19986809 -0.19845321 -0.06735189
v 0.19867282 -0.19634566 -0.07023801
v 0.20111954 -0.19870976 -0.06890908
v 0.20060445 -0.20131316 -0.06557468
v 0.21076914 -0.19407317 -0.04103428
v 0.21310061 -0.19615121 -0.04395533
v 0.21409679 -0.19192326 -0.04185103
v 0.20294677 -0.20389903 -0.05991954
v 0.20489131 -0.20286942 -0.06345348
v 0.20679014 -0.20380633 -0.05950001
v 0.19739854 -0.18737404 -0.07331388
v 0.21257032 -0.19815911 -0.05107849
v 0.21360691 -0.19550479 -0.05138459
v 0.20065927 -0.18483912 -0.07407813
v 0.21421412 -0.17786946 -0.05042816
v 0.20651499 -0.19819507 -0.06563579
v 0.20744398 -0.19593277 -0.06596911
v 0.20901521 -0.17347477 -0.04526881
v 0.20555623 -0.20411854 -0.05361971
v 0.20850182 -0.20380554 -0.05554048
v 0.20995784 -0.20282881 -0.05180696
v 0.21153787 -0.18469399 -0.03917868
v 0.21189855 -0.17564064 -0.04331818
v 0.20840691 -0.17086679 -0.04673781
v 0.21031063 -0.17593705 -0.04214173
v 0.20489977 -0.17815021 -0.06959279
v 0.20673681 -0.17812702 -0.06771873
v 0.21255661 -0.17387394 -0.05105551
v 0.21346563 -0.17614627 -0.05149093
v 0.21170500 -0.19843769 -0.05582614
v 0.20934802 -0.19781617 -0.06210446
v 0.20108280 -0.19297011 -0.07281415
v 0.20190452 -0.19615276 -0.07101091
v 0.21534951 -0.18392507 -0.04654108
v 0.21438123 -0.18603419 -0.04086863
v 0.21020766 -0.17132352 -0.04741284
v 0.21397246 -0.17987151 -0.04186516
v 0.20455137 -0.16979119 -0.06457016
v 0.20338038 -0.16794946 -0.05887278
v 0.20650290 -0.16825439 -0.06009055
v 0.20028405 -0.17116734 -0.06634791
v 0.20057852 -0.17563862 -0.07064023
v 0.20034549 -0.17346112 -0.06619939
v 0.21112572 -0.17312226 -0.05704040
v 0.20862287 -0.20092590 -0.04621583
v 0.21005143 -0.16970546 -0.05022863
v 0.21137803 -0.17139846 -0.04816958
v 0.21417616 -0.19394779 -0.04705818
v 0.20077027 -0.18843584 -0.07393761
v 0.21311377 -0.17592839 -0.04397748
v 0.21146727 -0.20053467 -0.04828111
v 0.21020215 -0.20090995 -0.04743616
v 0.21189192 -0.19643476 -0.04330476
v 0.20356678 -0.17134692 -0.06685073
v 0.20364307 -0.20066960 -0.06684335
v 0.20899502 -0.16843354 -0.05411506
v 0.20598982 -0.16816903 -0.05257306
f 61 21 1
f 27 17 1
f 1 17 61
f 34 21 38
f 34 1 21
f 55 34 73
f 73 34 40
f 24 17 20
f 35 61 24
f 61 17 24
f 20 17 18
f 18 17 27
f 65 9 48
f 27 65 48
f 48 18 27
f 42 9 3
f 55 54 57
f 55 73 72
f 69 21 61
f 50 53 51
f 51 53 38
f 5 31 50
f 13 31 5
f 37 61 35
f 63 40 52
f 40 34 41
f 41 34 38
f 38 53 41
f 19 71 20
f 20 18 19
f 12 14 54
f 10 71 8
f 8 9 10
f 8 48 9
f 30 9 65
f 30 3 9
f 30 65 27
f 27 1 30
f 1 3 30
f 55 57 59
f 59 57 1
f 59 34 55
f 1 34 59
f 42 3 2
f 2 14 42
f 16 66 53
f 16 53 50
f 50 31 16
f 13 12 60
f 62 73 40
f 62 72 73
f 62 40 63
f 63 72 62
f 21 69 23
f 23 69 22
f 38 21 23
f 23 51 38
f 35 24 26
f 40 41 39
f 39 52 40
f 53 66 39
f 39 41 53
f 39 66 63
f 63 52 39
f 18 48 49
f 49 19 18
f 71 19 49
f 49 8 71
f 48 8 49
f 43 9 42
f 11 12 13
f 13 5 11
f 9 43 11
f 11 43 12
f 10 9 11
f 70 57 54
f 70 2 57
f 54 14 70
f 14 2 70
f 1 57 58
f 57 2 58
f 58 3 1
f 58 2 3
f 45 31 13
f 13 60 45
f 56 12 54
f 56 60 12
f 72 60 56
f 56 54 55
f 55 72 56
f 61 37 68
f 37 67 68
f 68 67 22
f 68 69 61
f 22 69 68
f 32 71 10
f 36 37 35
f 35 26 36
f 25 26 24
f 20 71 25
f 25 24 20
f 71 32 25
f 47 26 25
f 25 32 47
f 14 12 15
f 12 43 15
f 42 14 15
f 15 43 42
f 7 11 5
f 7 47 10
f 10 11 7
f 44 45 60
f 44 72 63
f 44 60 72
f 31 45 44
f 44 16 31
f 63 66 44
f 66 16 44
f 10 47 33
f 33 32 10
f 47 32 33
f 22 67 64
f 64 23 22
f 47 7 46
f 46 7 29
f 46 26 47
f 46 36 26
f 37 36 46
f 23 64 6
f 50 51 6
f 51 23 6
f 6 5 50
f 6 7 5
f 28 67 37
f 37 46 28
f 28 46 29
f 28 64 67
f 4 6 64
f 4 28 29
f 64 28 4
f 29 7 4
f 7 6 4

