# https://github.com/mikedh/trimesh
v -0.02959758 -0.06724665 0.06127209
v -0.03045335 -0.06353482 0.06196842
v -0.03042524 -0.14945265 0.06172336
v -0.03145564 -0.14714825 0.06197111
v -0.03298999 -0.15676068 0.06205915
v -0.03010069 -0.15227707 0.06126779
v -0.03243251 -0.15693150 0.06121414
v -0.02958698 -0.06715150 0.05056378
v -0.03031006 -0.06416865 0.04989881
v -0.03170053 -0.06144337 0.05056378
v -0.03303345 -0.06147857 0.04968583
v -0.03501008 -0.05989410 0.05016852
v -0.03075746 -0.15396959 0.04992209
v -0.03010704 -0.14995485 0.05056427
v -0.17889894 -0.15698874 0.05476892
v -0.17610711 -0.15698874 0.05320532
v -0.17715648 -0.15698874 0.05877184
v -0.09009639 -0.15698874 0.05411500
v -0.08520226 -0.15698874 0.05434266
v -0.08608146 -0.15698874 0.05808328
v -0.08918054 -0.15698874 0.05834892
v -0.14991466 -0.06483584 0.04966790
v -0.14731008 -0.06505719 0.06216790
v -0.03650000 -0.06850982 0.04966791
v -0.03628101 -0.06829082 0.06216791
v -0.03671908 -0.06557432 0.04966791
v -0.03657563 -0.06578807 0.06216791
v -0.03917484 -0.15070152 0.04966791
v -0.03628101 -0.15070152 0.06216791
v -0.03623933 -0.15048242 0.04966791
v -0.20435710 -0.14353326 0.06216790
v -0.20476241 -0.14504613 0.04966790
v -0.20431018 -0.14613249 0.06216790
v -0.20321166 -0.14647911 0.04966790
v -0.20431017 -0.07040401 0.04966790
v -0.20372135 -0.07006406 0.06216790
v -0.20457086 -0.07285973 0.06216790
v -0.20535116 -0.15698789 0.04975314
v -0.09325111 -0.15146656 0.04966791
v -0.03311786 -0.15696312 0.04987334
v -0.20862586 -0.14488020 0.04974887
v -0.20923359 -0.07739601 0.04987757
v -0.20392746 -0.06688201 0.04969651
v -0.19107446 -0.06041681 0.04977923
v -0.17047443 -0.15121389 0.04966790
v -0.18213334 -0.15113558 0.04966790
v -0.20858142 -0.14504624 0.06209474
v -0.20874995 -0.07655596 0.06209285
v -0.20542521 -0.15698726 0.06207624
v -0.18214676 -0.15121389 0.06216790
v -0.09356409 -0.15121390 0.06216791
v -0.08190519 -0.15113559 0.06216791
v -0.03330678 -0.06063382 0.06201759
v -0.19177300 -0.06002354 0.06186082
v -0.20327856 -0.06621066 0.06214923
v -0.20957279 -0.14082963 0.06134368
v -0.20960526 -0.14084021 0.05056026
v -0.20821280 -0.14978701 0.06123516
v -0.20812566 -0.15009778 0.05056730
v -0.20958878 -0.07779913 0.06131741
v -0.19145310 -0.05973621 0.05045864
v -0.19765317 -0.06154051 0.06161827
v -0.19791874 -0.06166434 0.05021761
v -0.20365633 -0.06555448 0.06126356
v -0.20376853 -0.06566668 0.05057229
v -0.20779375 -0.07141546 0.06126358
v -0.20786079 -0.07155923 0.05057225
v -0.03503138 -0.05973467 0.06131971
f 29 5 25
f 19 40 20
f 18 40 19
f 25 5 2
f 49 5 52
f 5 29 52
f 8 14 13
f 38 18 16
f 40 18 38
f 49 59 38
f 38 17 49
f 30 13 40
f 11 13 30
f 8 2 1
f 25 2 27
f 63 61 44
f 12 61 68
f 68 10 12
f 12 10 11
f 11 44 12
f 12 44 61
f 68 61 54
f 49 17 21
f 8 13 9
f 9 13 11
f 11 10 9
f 9 2 8
f 9 10 2
f 15 38 16
f 17 38 15
f 40 13 7
f 7 20 40
f 7 21 20
f 7 5 49
f 49 21 7
f 3 1 2
f 53 10 68
f 2 10 53
f 68 54 53
f 53 27 2
f 22 44 11
f 11 26 22
f 62 61 63
f 62 54 61
f 34 38 32
f 34 46 38
f 11 30 24
f 24 26 11
f 41 35 32
f 41 42 35
f 32 38 41
f 57 42 41
f 41 59 57
f 41 38 59
f 4 2 5
f 5 3 4
f 4 3 2
f 1 3 6
f 6 14 8
f 8 1 6
f 6 13 14
f 6 7 13
f 5 7 6
f 6 3 5
f 27 53 23
f 23 53 54
f 43 22 35
f 44 22 43
f 63 44 43
f 43 65 63
f 67 65 43
f 43 42 67
f 35 42 43
f 63 65 64
f 64 62 63
f 49 52 51
f 51 50 49
f 49 50 33
f 60 42 57
f 67 42 60
f 38 39 28
f 40 38 28
f 28 30 40
f 38 46 45
f 45 39 38
f 36 23 55
f 55 23 54
f 54 62 55
f 62 64 55
f 49 33 47
f 66 55 64
f 67 60 66
f 66 65 67
f 66 64 65
f 56 60 57
f 31 47 33
f 31 37 47
f 47 37 48
f 60 56 48
f 48 56 47
f 48 66 60
f 55 66 48
f 48 37 36
f 36 55 48
f 47 56 58
f 58 59 49
f 49 47 58
f 57 59 58
f 58 56 57
f 15 18 19
f 19 20 15
f 16 18 15
f 20 21 15
f 15 21 17
f 35 22 45
f 32 35 45
f 45 34 32
f 45 24 30
f 45 22 26
f 46 34 45
f 30 28 45
f 26 24 45
f 45 28 39
f 31 29 25
f 31 52 29
f 25 27 31
f 31 51 52
f 31 23 36
f 27 23 31
f 50 51 31
f 31 33 50
f 36 37 31

