# https://github.com/mikedh/trimesh
v -0.09085845 -0.09776954 -0.08741730
v -0.09096502 -0.09791559 -0.08832483
v -0.09338687 -0.09783472 -0.08745636
v -0.09338802 -0.09800987 -0.08833403
v -0.09473925 -0.10016069 -0.08743181
v -0.09454365 -0.10007802 -0.08833080
v -0.09345470 -0.10216261 -0.08833406
v -0.09344720 -0.10237596 -0.08742295
v -0.09099055 -0.10232662 -0.08831943
v -0.08959732 -0.10006857 -0.08831841
v -0.08944707 -0.10013789 -0.08742963
v -0.09262080 -0.09777684 -0.08667666
v -0.09055137 -0.10216090 -0.08682055
v -0.09213452 -0.10244899 -0.08662126
v -0.09393000 -0.10164910 -0.08665280
v -0.09436772 -0.09938727 -0.08647251
v -0.09075752 -0.09773277 -0.08630581
v -0.09333382 -0.09777584 -0.08627341
v -0.09484205 -0.10025237 -0.08628970
v -0.09343925 -0.10239599 -0.08629920
v -0.08983357 -0.09926445 -0.08548828
v -0.08937225 -0.10011614 -0.08626231
v -0.09073892 -0.10244849 -0.08627463
v -0.09432252 -0.09921677 -0.08548400
v -0.09473050 -0.10004614 -0.08515478
v -0.09337507 -0.10247284 -0.08515698
v -0.09212445 -0.09773262 -0.08441220
v -0.09075232 -0.10244464 -0.08517231
v -0.09344557 -0.09775897 -0.08517536
v -0.09339825 -0.09770934 -0.08408549
v -0.09472622 -0.10013442 -0.08406861
v -0.09339687 -0.10241704 -0.08409743
v -0.09075180 -0.10232952 -0.08409821
v -0.08938837 -0.10010197 -0.08404106
v -0.09045230 -0.09845702 -0.08309173
v -0.08984795 -0.10100807 -0.08329738
v -0.09206550 -0.10247510 -0.08333945
v -0.09415960 -0.10129477 -0.08332721
v -0.09438367 -0.09955647 -0.08309403
v -0.09301237 -0.09778749 -0.08294526
v -0.09075495 -0.09785145 -0.08369583
v -0.09363157 -0.10197321 -0.08294526
v -0.09092295 -0.10230627 -0.08294526
v -0.08974017 -0.09994367 -0.08291768
v -0.09327387 -0.09915049 -0.08865113
v -0.09361187 -0.10026842 -0.08860961
v -0.09266757 -0.10156514 -0.08857113
v -0.09076912 -0.09950782 -0.08846643
v -0.09110552 -0.10122119 -0.08852503
f 19 25 24
f 24 39 30
f 2 10 48
f 34 36 22
f 44 36 34
f 30 39 40
f 22 36 13
f 13 11 22
f 10 11 13
f 13 9 10
f 16 24 3
f 29 24 30
f 3 24 29
f 18 12 3
f 18 29 30
f 3 29 18
f 17 18 30
f 22 11 17
f 19 7 8
f 7 9 8
f 8 9 14
f 5 7 19
f 5 6 7
f 19 24 5
f 24 16 5
f 5 16 3
f 4 3 2
f 4 5 3
f 6 5 4
f 6 4 45
f 2 48 45
f 45 4 2
f 44 34 35
f 35 34 41
f 35 40 44
f 41 40 35
f 43 36 44
f 2 3 1
f 1 10 2
f 3 12 1
f 1 11 10
f 1 17 11
f 12 18 1
f 18 17 1
f 27 17 30
f 41 17 27
f 30 40 27
f 27 40 41
f 41 34 21
f 21 17 41
f 21 34 22
f 22 17 21
f 26 8 14
f 31 38 39
f 39 24 31
f 31 24 25
f 31 25 19
f 19 38 31
f 39 38 42
f 42 40 39
f 44 40 42
f 42 43 44
f 37 43 42
f 19 8 15
f 15 38 19
f 7 6 46
f 6 45 46
f 28 43 37
f 8 26 20
f 20 26 38
f 20 15 8
f 38 15 20
f 38 26 32
f 32 42 38
f 32 26 37
f 37 42 32
f 49 45 48
f 49 48 10
f 10 9 49
f 23 13 36
f 36 28 23
f 9 13 23
f 14 9 23
f 23 28 37
f 37 26 23
f 23 26 14
f 36 43 33
f 33 28 36
f 43 28 33
f 47 46 45
f 45 49 47
f 7 46 47
f 47 9 7
f 47 49 9

