# https://github.com/mikedh/trimesh
v -0.13360596 0.01241655 0.12195909
v -0.13612380 -0.02768174 0.11566906
v -0.13610277 0.04822724 0.05761113
v -0.13611459 0.02756578 0.03083849
v -0.13360649 -0.05117064 0.07629534
v -0.13358743 -0.04784357 0.05506765
v -0.13358181 -0.04166706 0.04364600
v -0.13361102 -0.03578629 0.03658617
v -0.13356453 -0.02004815 0.02616965
v -0.13362387 0.00101630 0.02187196
v -0.13361102 0.01389747 0.02394675
v -0.13360407 0.03177714 0.03301074
v -0.13363259 0.03876391 0.03961103
v -0.13350032 0.04680096 0.05380775
v -0.13362863 0.05066191 0.06531836
v -0.13358507 0.04953504 0.08612049
v -0.13357358 0.04039571 0.10460186
v -0.13362196 0.02098962 0.12024769
v -0.13364181 0.00296661 0.12460006
v -0.13362583 -0.01253143 0.12316146
v -0.13358508 -0.02832076 0.11590744
v -0.13360649 -0.04142434 0.10348472
v -0.13360938 -0.04960866 0.08628587
v -0.13489361 -0.04602821 0.04901108
v -0.13396067 -0.02628896 0.02878543
v -0.13472768 -0.01187677 0.02261879
v -0.13410887 0.04424739 0.04647101
v -0.13480945 0.04866664 0.05491836
v -0.13389450 0.05148658 0.07544982
v -0.13480898 0.05048553 0.08554459
v -0.13389450 0.04699729 0.09443039
v -0.13438343 0.04186636 0.10385032
v -0.13480898 0.03586321 0.11090964
v -0.13403022 0.03098096 0.11469672
v -0.13480898 0.00982946 0.12430469
v -0.13480899 -0.02381615 0.11948599
v -0.13396068 -0.04779514 0.09298242
v -0.13404444 -0.03475689 0.11157584
v -0.13383172 0.02429002 0.02786198
v -0.13411168 -0.05081916 0.06305640
v -0.13514603 -0.05196279 0.07319536
v -0.13578568 -0.04966321 0.05957046
v -0.13514478 0.03925631 0.03939247
v -0.13578628 0.04423004 0.04687762
v -0.13514469 0.05180609 0.07584689
v -0.13580620 0.04970236 0.08689179
v -0.13586995 0.04241889 0.10255636
v -0.13601506 0.03175139 0.11360004
v -0.13514606 0.02149892 0.12060299
v -0.13580621 0.00827875 0.12415194
v -0.13549281 -0.03162956 0.11426194
v -0.13514476 -0.03925311 0.10719484
v -0.13514603 -0.04988551 0.08783954
v -0.13548506 -0.04497966 0.09896104
v -0.13514598 -0.01234480 0.12377016
v -0.13514476 -0.00008371 0.12516094
v -0.13514476 0.04714629 0.09491772
v -0.13514472 0.05135313 0.06599687
v -0.13553607 0.03304356 0.03339236
v -0.13542170 0.02160120 0.02610015
v -0.13514472 0.00990133 0.02237982
v -0.13514475 0.00008693 0.02142639
v -0.13546313 -0.02184174 0.02625168
v -0.13514472 -0.03199339 0.03247034
v -0.13514478 -0.03914099 0.03926312
v -0.13607188 -0.05069644 0.06875013
v -0.13604366 -0.04413099 0.04778093
v -0.13605828 -0.02712842 0.02989857
v -0.13611999 -0.00629341 0.02289604
v -0.13605892 0.00831382 0.02290389
v -0.13607553 0.04120511 0.04420348
v -0.13604434 0.05117521 0.07153002
v -0.13607553 0.04896906 0.08538317
v -0.13604726 0.01991558 0.12035694
v -0.13611318 -0.00730259 0.12348901
v -0.13606241 -0.04028371 0.10458197
v -0.13604043 -0.04990466 0.08476162
v -0.13604050 -0.01660203 0.12161044
v -0.13612730 -0.03760227 0.03931811
f 79 4 69
f 14 9 11
f 15 16 14
f 14 28 15
f 9 8 25
f 7 9 14
f 14 6 7
f 7 8 9
f 70 69 4
f 10 11 9
f 76 66 77
f 67 66 79
f 40 6 5
f 58 15 28
f 2 4 79
f 79 66 2
f 2 66 76
f 45 58 72
f 16 15 29
f 45 30 29
f 29 30 16
f 29 58 45
f 15 58 29
f 55 20 56
f 55 36 20
f 76 77 54
f 56 20 19
f 33 48 34
f 64 25 8
f 9 25 63
f 25 64 63
f 60 70 4
f 4 59 60
f 26 10 9
f 9 63 26
f 26 63 69
f 11 10 61
f 61 60 11
f 70 60 61
f 41 77 66
f 41 40 5
f 65 67 79
f 8 7 65
f 79 64 65
f 65 64 8
f 24 7 6
f 6 40 24
f 24 65 7
f 67 65 24
f 27 28 14
f 44 28 27
f 27 43 44
f 12 59 43
f 14 11 12
f 75 55 56
f 51 2 76
f 36 2 51
f 3 72 58
f 4 2 3
f 2 75 3
f 3 28 44
f 3 58 28
f 47 32 57
f 47 48 33
f 33 32 47
f 46 57 30
f 46 30 45
f 45 72 46
f 46 47 57
f 53 54 77
f 53 41 5
f 77 41 53
f 20 36 21
f 21 6 14
f 5 6 21
f 56 19 35
f 35 19 18
f 1 19 20
f 18 19 1
f 20 21 1
f 49 34 48
f 18 34 49
f 49 35 18
f 17 34 18
f 18 1 17
f 33 34 17
f 17 32 33
f 14 16 17
f 17 21 14
f 17 1 21
f 68 64 79
f 68 63 64
f 79 69 68
f 69 63 68
f 62 61 10
f 62 26 69
f 10 26 62
f 69 70 62
f 70 61 62
f 42 24 40
f 42 41 66
f 40 41 42
f 66 67 42
f 67 24 42
f 43 27 13
f 13 12 43
f 13 27 14
f 14 12 13
f 39 60 59
f 59 12 39
f 11 60 39
f 39 12 11
f 78 75 2
f 55 75 78
f 78 2 36
f 36 55 78
f 52 51 76
f 76 54 52
f 54 22 52
f 4 3 71
f 71 3 44
f 71 59 4
f 44 43 71
f 43 59 71
f 73 3 75
f 72 3 73
f 48 47 73
f 73 46 72
f 47 46 73
f 37 22 54
f 54 53 37
f 36 51 38
f 38 21 36
f 51 52 38
f 22 21 38
f 38 52 22
f 50 75 56
f 56 35 50
f 35 49 50
f 31 17 16
f 32 17 31
f 57 32 31
f 16 30 31
f 30 57 31
f 23 53 5
f 23 37 53
f 22 37 23
f 5 21 23
f 23 21 22
f 74 49 48
f 74 50 49
f 75 50 74
f 48 73 74
f 74 73 75

