# https://github.com/mikedh/trimesh
v 0.16600722 -0.17598126 -0.03131641
v 0.16368536 -0.17744229 -0.02898856
v 0.16316269 -0.17558983 -0.03007584
v 0.16433630 -0.17239686 -0.02729079
v 0.16688916 -0.17255087 -0.02972959
v 0.16335849 -0.17345121 -0.02977416
v 0.17090859 -0.17349199 -0.03013261
v 0.17077617 -0.17388501 -0.03154074
v 0.17049351 -0.17538277 -0.03194056
v 0.17105312 -0.17425824 -0.03163159
v 0.17190344 -0.17486749 -0.02922326
v 0.17111200 -0.17640521 -0.03155976
v 0.17175266 -0.17630867 -0.02980606
v 0.17171921 -0.17393306 -0.03027789
v 0.16818779 -0.17630259 -0.02664924
v 0.16518902 -0.17554127 -0.02522546
v 0.16465084 -0.17755528 -0.02668209
v 0.17164957 -0.17626811 -0.03080914
v 0.17150315 -0.17555848 -0.03169756
v 0.17205232 -0.17586753 -0.02998399
v 0.17190747 -0.17405258 -0.03077979
v 0.17146612 -0.17363477 -0.03006751
v 0.17203594 -0.17490824 -0.02964639
v 0.16741457 -0.17247296 -0.02790276
v 0.16811549 -0.17365564 -0.02682141
v 0.16731114 -0.17772602 -0.02863553
v 0.16431559 -0.17641381 -0.02734276
v 0.16664521 -0.17727916 -0.03033003
v 0.16629070 -0.17395916 -0.03122321
v 0.16525356 -0.17348051 -0.02564628
v 0.16421297 -0.17370513 -0.02756766
f 31 4 3
f 3 16 31
f 31 16 4
f 3 4 6
f 27 16 3
f 15 25 16
f 4 16 30
f 16 25 30
f 4 30 24
f 24 30 25
f 3 6 29
f 13 15 26
f 17 15 16
f 26 15 17
f 16 27 17
f 25 15 11
f 15 13 11
f 11 13 20
f 20 23 11
f 8 29 5
f 5 29 6
f 5 6 4
f 4 24 5
f 9 29 8
f 26 28 12
f 12 13 26
f 2 27 3
f 2 17 27
f 2 28 26
f 26 17 2
f 22 24 25
f 25 11 22
f 1 2 3
f 28 2 1
f 3 29 1
f 29 9 1
f 1 12 28
f 9 12 1
f 20 13 18
f 13 12 18
f 10 9 8
f 7 5 24
f 24 22 7
f 8 5 7
f 7 22 8
f 14 11 23
f 14 22 11
f 19 18 12
f 19 12 9
f 9 10 19
f 20 18 19
f 21 14 23
f 21 23 20
f 20 19 21
f 21 19 10
f 21 10 8
f 8 22 21
f 22 14 21

