# https://github.com/mikedh/trimesh
v 0.14986365 -0.05141714 0.04608104
v 0.15668399 -0.05175664 0.04638595
v 0.16111631 0.04525759 0.04823873
v 0.16111135 0.04730599 0.04794897
v 0.16113353 -0.04676361 0.04823946
v 0.16111793 0.05266714 0.04136051
v 0.14981288 0.05218416 0.04136047
v 0.14981183 0.05070359 0.04261637
v 0.14981911 0.05126994 0.04433861
v 0.16111631 0.05167201 0.04453590
v 0.14982312 0.05317582 0.04453243
v 0.16110560 0.05357999 0.04433557
v 0.14983390 0.05417801 0.04250538
v 0.16110633 0.05413889 0.04261563
v 0.14981288 -0.05265938 0.04135306
v 0.16108720 -0.05416529 0.04249934
v 0.14981555 -0.05413749 0.04260870
v 0.14985164 -0.05356859 0.04431414
v 0.16112882 -0.05317591 0.04453379
v 0.14979727 -0.05165881 0.04453583
v 0.16109086 -0.00059383 0.01103549
v 0.14983618 -0.00104264 0.01126171
v 0.14979728 0.00076509 0.01427381
v 0.14983850 0.00175585 0.01223666
v 0.16112381 0.00150041 0.01196799
v 0.15957985 -0.02643519 0.02382482
v 0.15961465 0.02839431 0.02477645
v 0.14987150 0.05154246 0.04608916
v 0.14989002 0.05323397 0.03993912
v 0.14987826 0.05558676 0.04374673
v 0.14987826 0.00220578 0.01038204
v 0.14989002 -0.00226811 0.01051581
v 0.16104410 0.05332354 0.03986948
v 0.16103096 0.05551721 0.04397085
v 0.16100792 -0.00229724 0.01039566
v 0.16108111 0.00233397 0.01053604
v 0.15686815 -0.04509514 0.04978061
v 0.16103402 -0.04504254 0.04983045
v 0.15686815 0.04510159 0.04978695
v 0.16109471 0.04517739 0.04979755
v 0.15686672 -0.02482549 0.02296149
v 0.15671875 0.05095929 0.04660212
v 0.14987340 -0.05337826 0.03993146
v 0.14989833 -0.05550471 0.04387150
v 0.16104902 -0.05560291 0.04382762
v 0.16102272 -0.05315226 0.03987336
f 30 33 29
f 46 45 43
f 7 29 31
f 1 28 20
f 1 37 39
f 39 28 1
f 5 40 38
f 38 45 5
f 39 37 38
f 38 40 39
f 34 33 30
f 20 23 15
f 5 45 19
f 19 25 5
f 24 7 31
f 23 7 24
f 30 29 13
f 29 7 13
f 8 23 20
f 8 7 23
f 37 1 2
f 2 38 37
f 45 38 2
f 44 43 45
f 45 2 44
f 44 2 1
f 30 28 42
f 42 34 30
f 40 34 42
f 42 28 39
f 39 40 42
f 43 32 41
f 22 32 43
f 43 15 22
f 22 15 23
f 23 24 22
f 31 32 22
f 22 24 31
f 3 40 5
f 16 45 46
f 16 19 45
f 33 36 27
f 27 29 33
f 27 36 31
f 31 29 27
f 11 13 7
f 7 8 11
f 11 28 30
f 30 13 11
f 20 28 11
f 18 1 20
f 20 44 18
f 18 44 1
f 17 15 43
f 43 44 17
f 20 15 17
f 17 44 20
f 35 41 32
f 35 32 31
f 31 36 35
f 40 3 4
f 9 8 20
f 20 11 9
f 9 11 8
f 26 35 46
f 41 35 26
f 46 43 26
f 43 41 26
f 21 36 25
f 21 35 36
f 25 19 21
f 19 16 21
f 21 16 46
f 46 35 21
f 5 25 6
f 6 3 5
f 6 36 33
f 25 36 6
f 10 4 3
f 3 6 10
f 4 10 12
f 12 34 40
f 40 4 12
f 12 10 6
f 34 12 14
f 14 12 6
f 33 34 14
f 14 6 33

