# https://github.com/mikedh/trimesh
v -0.11136006 0.16763314 0.07632054
v -0.11120286 0.16673648 0.07612397
v -0.10992457 0.16759961 0.07841569
v -0.10990159 0.16670076 0.07826524
v -0.10794754 0.16684164 0.07846427
v -0.10622868 0.16673518 0.07598872
v -0.10610639 0.16761236 0.07592472
v -0.10754274 0.16760284 0.07376819
v -0.10767084 0.16673111 0.07386887
v -0.11023692 0.16761951 0.07394832
v -0.11003469 0.16671559 0.07402612
v -0.10645652 0.16842878 0.07683942
v -0.11144047 0.16876033 0.07624777
v -0.10905924 0.16956583 0.07373939
v -0.11018809 0.16878086 0.07380679
v -0.10673139 0.16957996 0.07475119
v -0.10749582 0.16876083 0.07368174
v -0.10600724 0.16880233 0.07590969
v -0.10724736 0.16878153 0.07837492
v -0.10997677 0.16879784 0.07852587
v -0.11020042 0.16991246 0.07389134
v -0.11079771 0.17067876 0.07488372
v -0.10863131 0.17062346 0.07372637
v -0.10725164 0.16991013 0.07836934
v -0.10929484 0.17059296 0.07846447
v -0.10995237 0.16988734 0.07851384
v -0.10986179 0.17097698 0.07845267
v -0.10726559 0.17098104 0.07828594
v -0.11015076 0.17098765 0.07388462
v -0.11057072 0.17196623 0.07464532
v -0.10839016 0.17196761 0.07378377
v -0.10752829 0.17099881 0.07368084
v -0.10675046 0.17193166 0.07487634
v -0.10604884 0.17098760 0.07594234
v -0.10870229 0.17195191 0.07840392
v -0.11029111 0.17163633 0.07792629
v -0.11075096 0.17214473 0.07734157
v -0.11129942 0.17138311 0.07625307
v -0.10669163 0.17211069 0.07753927
v -0.10861611 0.17207491 0.07451387
v -0.10888257 0.16640481 0.07760434
v -0.10776089 0.16644636 0.07727892
v -0.10734109 0.17203138 0.07547064
v -0.10724757 0.16663636 0.07835479
v -0.10718771 0.16648481 0.07578062
v -0.10994708 0.16658951 0.07530902
v -0.10832686 0.16653093 0.07465802
f 13 37 38
f 37 30 38
f 18 17 16
f 16 17 32
f 16 34 18
f 18 44 7
f 44 6 7
f 45 6 44
f 9 6 45
f 13 38 22
f 22 38 30
f 12 44 18
f 37 35 39
f 44 12 39
f 18 34 39
f 39 12 18
f 40 30 37
f 40 31 30
f 37 39 40
f 8 6 9
f 8 7 6
f 9 15 8
f 8 15 17
f 8 17 18
f 18 7 8
f 9 45 47
f 33 39 34
f 32 31 33
f 31 40 33
f 33 16 32
f 34 16 33
f 28 39 35
f 35 27 26
f 36 35 37
f 36 27 35
f 37 26 36
f 36 26 27
f 32 17 14
f 17 15 14
f 11 15 9
f 9 47 11
f 30 31 29
f 29 22 30
f 44 4 41
f 41 47 45
f 43 40 39
f 39 33 43
f 43 33 40
f 20 26 37
f 20 37 13
f 26 20 5
f 5 20 3
f 5 4 44
f 3 4 5
f 23 31 32
f 32 14 23
f 23 29 31
f 23 14 15
f 15 29 23
f 2 41 4
f 21 15 22
f 22 29 21
f 21 29 15
f 42 45 44
f 44 41 42
f 42 41 45
f 46 11 47
f 47 41 46
f 46 2 11
f 41 2 46
f 26 5 24
f 24 28 35
f 39 28 24
f 10 2 13
f 13 22 10
f 22 15 10
f 15 11 10
f 11 2 10
f 13 2 1
f 1 2 4
f 1 4 3
f 1 20 13
f 3 20 1
f 35 26 25
f 25 24 35
f 26 24 25
f 19 5 44
f 19 24 5
f 44 39 19
f 39 24 19

