# https://github.com/mikedh/trimesh
v 0.16862963 0.19494206 0.11368244
v 0.16846551 0.19437062 0.11438444
v 0.16869051 0.19355077 0.11388466
v 0.16834239 0.19345792 0.11217219
v 0.16692381 0.19544969 0.11348514
v 0.16611031 0.19340038 0.11449529
v 0.16727861 0.19230889 0.11355917
v 0.16691720 0.19293689 0.11451574
v 0.16640606 0.19399351 0.11465462
v 0.16705729 0.19507251 0.11203986
v 0.16778101 0.19406622 0.11158736
v 0.16728773 0.19488037 0.11171099
v 0.16725951 0.19240633 0.11255147
v 0.16606798 0.19305961 0.11401092
v 0.16868464 0.19447434 0.11316097
v 0.16779798 0.19537939 0.11360386
v 0.16856718 0.19315064 0.11313641
v 0.16599246 0.19525874 0.11283721
v 0.16569419 0.19442456 0.11275059
v 0.16809450 0.19312127 0.11173059
v 0.16712103 0.19509256 0.11425087
v 0.16776884 0.19291964 0.11469019
v 0.16582966 0.19509233 0.11244896
v 0.16616436 0.19285841 0.11212451
v 0.16714346 0.19455692 0.11494131
v 0.16586931 0.19297394 0.11354124
v 0.16794136 0.19511341 0.11243996
v 0.16860603 0.19294632 0.11361534
v 0.16638455 0.19500376 0.11427611
v 0.16779536 0.19504311 0.11196891
v 0.16613228 0.19520096 0.11332989
v 0.16801866 0.19256319 0.11280419
v 0.16843098 0.19474482 0.11273734
v 0.16565129 0.19303911 0.11309994
v 0.16630539 0.19494586 0.11206127
v 0.16563994 0.19405394 0.11236396
v 0.16656599 0.19239066 0.11225854
v 0.16739934 0.19297927 0.11167189
v 0.16736561 0.19232134 0.11407414
v 0.16547091 0.19315331 0.11266119
v 0.16592249 0.19441766 0.11398044
f 23 19 41
f 40 6 41
f 41 19 40
f 6 39 8
f 36 24 40
f 40 19 36
f 36 19 23
f 4 20 11
f 11 20 38
f 34 6 40
f 34 26 6
f 13 20 32
f 6 26 14
f 14 39 6
f 26 39 14
f 24 38 37
f 37 20 13
f 37 38 20
f 40 24 37
f 37 34 40
f 37 39 26
f 26 34 37
f 12 30 11
f 11 38 12
f 16 30 5
f 16 25 1
f 9 41 6
f 6 25 9
f 6 8 22
f 22 25 6
f 22 8 39
f 3 1 2
f 1 25 2
f 2 22 3
f 25 22 2
f 15 1 3
f 11 30 33
f 33 4 11
f 33 15 4
f 1 15 33
f 13 32 7
f 7 32 39
f 7 37 13
f 39 37 7
f 20 4 17
f 17 15 3
f 4 15 17
f 30 12 10
f 5 30 10
f 35 36 23
f 23 10 35
f 35 10 12
f 24 36 35
f 35 38 24
f 35 12 38
f 27 16 1
f 30 16 27
f 1 33 27
f 27 33 30
f 21 16 5
f 25 16 21
f 23 41 18
f 41 31 18
f 18 31 5
f 5 10 18
f 18 10 23
f 29 31 41
f 41 9 29
f 29 9 25
f 25 21 29
f 5 31 29
f 29 21 5
f 39 32 28
f 28 22 39
f 3 22 28
f 28 32 20
f 20 17 28
f 28 17 3

