# https://github.com/mikedh/trimesh
v 0.19976512 0.17893156 -0.06479785
v 0.20037949 0.17656978 -0.06211183
v 0.19893212 0.18091102 -0.06490331
v 0.20456864 0.17546041 -0.05571868
v 0.20029030 0.19090401 -0.06600010
v 0.19891558 0.18675746 -0.06704088
v 0.19945578 0.19257851 -0.06510501
v 0.20783106 0.19263795 -0.04759091
v 0.20582670 0.19673681 -0.05275314
v 0.20628878 0.19586991 -0.05010358
v 0.20099825 0.19209573 -0.06448160
v 0.20307628 0.19719406 -0.05926373
v 0.20564927 0.19355731 -0.04881763
v 0.20656601 0.19365518 -0.04765526
v 0.20495583 0.19630061 -0.05089413
v 0.20063873 0.19611046 -0.06118188
v 0.20111423 0.19509216 -0.06326773
v 0.20440525 0.17440996 -0.05575578
v 0.20385803 0.17455976 -0.05379716
v 0.20250794 0.17438362 -0.05702313
v 0.19861047 0.18296108 -0.06609281
v 0.20192440 0.19621651 -0.05804881
v 0.20542756 0.17657266 -0.04960196
v 0.20608884 0.17554043 -0.05142496
v 0.20658382 0.17722129 -0.04867578
v 0.20009320 0.18093873 -0.06604948
v 0.20777117 0.17916188 -0.04823496
v 0.20180199 0.17538913 -0.06110089
v 0.19976382 0.18532579 -0.06702931
v 0.20823032 0.18344791 -0.04548746
v 0.20717043 0.18807176 -0.04529063
v 0.20692719 0.18286139 -0.04571046
v 0.20795432 0.18917231 -0.04542166
v 0.20247892 0.17607003 -0.06112406
v 0.20454737 0.19770833 -0.05421416
v 0.20277633 0.19774620 -0.05635829
v 0.20865132 0.18710599 -0.04578986
v 0.19863269 0.18916296 -0.06592318
v 0.20748206 0.18020081 -0.04651246
f 11 9 34
f 14 13 31
f 32 30 31
f 39 30 32
f 31 13 32
f 13 3 32
f 16 22 36
f 16 3 13
f 13 22 16
f 33 14 31
f 33 30 37
f 31 30 33
f 13 14 15
f 36 22 15
f 15 22 13
f 39 32 23
f 23 32 3
f 12 9 11
f 12 16 36
f 38 16 7
f 21 3 38
f 3 16 38
f 27 4 34
f 27 9 37
f 27 34 9
f 37 30 27
f 27 30 39
f 3 2 20
f 19 23 20
f 20 23 3
f 11 34 5
f 34 29 5
f 21 29 26
f 26 29 34
f 14 33 8
f 37 9 8
f 8 33 37
f 10 15 14
f 10 8 9
f 14 8 10
f 35 12 36
f 9 12 35
f 36 15 35
f 35 10 9
f 15 10 35
f 39 23 25
f 25 27 39
f 17 5 7
f 7 16 17
f 16 12 17
f 17 12 11
f 11 5 17
f 6 5 29
f 6 29 21
f 21 38 6
f 6 38 7
f 7 5 6
f 1 2 3
f 1 3 21
f 21 26 1
f 27 25 24
f 24 23 19
f 24 25 23
f 28 26 34
f 28 1 26
f 2 1 28
f 28 20 2
f 18 24 19
f 19 20 18
f 4 27 18
f 27 24 18
f 20 28 18
f 34 4 18
f 18 28 34

