# https://github.com/mikedh/trimesh
v 0.14433138 -0.25437376 0.04971385
v 0.15248501 -0.24811997 0.05053755
v 0.14817693 -0.25136375 0.05749165
v 0.16345503 -0.21221492 0.09270659
v 0.16163738 -0.22052989 0.09327379
v 0.16082896 -0.19283309 0.04995292
v 0.16415739 -0.20075629 0.05005924
v 0.16110363 -0.19819876 0.04940718
v 0.07552601 -0.20133077 0.09019888
v 0.07461496 -0.20749070 0.09290863
v 0.07849151 -0.19481083 0.09275188
v 0.11586318 -0.16840144 0.04934318
v 0.15698616 -0.23818900 0.09213876
v 0.15813060 -0.23285885 0.09329591
v 0.15153755 -0.24502399 0.09274584
v 0.09146648 -0.25329975 0.05759238
v 0.09883886 -0.17228003 0.04945498
v 0.09729661 -0.17191453 0.05071274
v 0.10843084 -0.16823788 0.05008182
v 0.12983613 -0.16636444 0.07427911
v 0.16142363 -0.22846024 0.09237639
v 0.15581871 -0.18964916 0.09285481
v 0.15994576 -0.19667341 0.09219319
v 0.16386655 -0.22937252 0.05030689
v 0.15910388 -0.23967566 0.05029095
v 0.15879451 -0.23785557 0.04928605
v 0.10952720 -0.25892426 0.04941150
v 0.10922193 -0.25705475 0.09317361
v 0.10747310 -0.25815925 0.09212038
v 0.11829993 -0.25955376 0.09248024
v 0.10712321 -0.16636421 0.07482718
v 0.13159296 -0.25860700 0.04927313
v 0.16234173 -0.20431921 0.09246686
v 0.14191948 -0.17611146 0.09245576
v 0.12743196 -0.17112344 0.09307671
v 0.14335029 -0.17873274 0.09330151
v 0.09236791 -0.17980613 0.09324208
v 0.16380409 -0.22841754 0.05717248
v 0.07568991 -0.22052886 0.09330281
v 0.09141036 -0.25350100 0.05024285
v 0.08491538 -0.24815959 0.05057540
v 0.08094743 -0.24335853 0.04992512
v 0.07504358 -0.22976114 0.04925477
v 0.07307636 -0.22879306 0.05086611
v 0.07142031 -0.21974126 0.05003764
v 0.15646293 -0.18567649 0.05037018
v 0.13332796 -0.17215883 0.09229779
v 0.13307198 -0.16923854 0.05036995
v 0.11004899 -0.16636385 0.07383448
v 0.16318221 -0.22070334 0.09212856
v 0.14754678 -0.17853053 0.04921614
v 0.15400161 -0.18427976 0.04937681
v 0.13266819 -0.17024281 0.04934379
v 0.11849086 -0.16636403 0.06426543
v 0.11873161 -0.16637055 0.05178396
v 0.11557094 -0.16637648 0.05527898
v 0.09035803 -0.17967753 0.09219621
v 0.07372088 -0.21249959 0.09210628
v 0.08322101 -0.18693326 0.09242606
v 0.11256941 -0.26189701 0.05108494
v 0.11300376 -0.26186001 0.06387691
v 0.12724138 -0.16638784 0.08754551
v 0.12463848 -0.16694499 0.08945976
v 0.12959376 -0.16695916 0.08582853
v 0.13934955 -0.25451850 0.09240359
v 0.12948516 -0.25825800 0.09220353
v 0.12501431 -0.16641259 0.05303625
v 0.10613567 -0.16682290 0.05822906
v 0.11566368 -0.16663011 0.05162781
v 0.10454303 -0.16656633 0.07972038
v 0.10440486 -0.16656589 0.06324164
v 0.08120933 -0.24043903 0.04940038
v 0.12347659 -0.16744059 0.05001126
v 0.13937888 -0.25755326 0.05064850
v 0.12793623 -0.26121151 0.05012846
v 0.13041043 -0.16653814 0.05714703
v 0.09227170 -0.25104801 0.09202161
v 0.13013036 -0.26037950 0.05639852
v 0.12469693 -0.26191127 0.05108473
v 0.15047391 -0.24864719 0.04935306
v 0.07117051 -0.21352912 0.05233685
v 0.07121473 -0.21169595 0.05687131
v 0.07119603 -0.21697961 0.05744808
v 0.16616899 -0.21565506 0.05233679
v 0.16612469 -0.21748826 0.05687129
v 0.16614313 -0.21220479 0.05744795
v 0.11760235 -0.26209375 0.05233614
v 0.11577360 -0.26204700 0.05687128
v 0.12105698 -0.26206550 0.05744795
v 0.16618004 -0.21226346 0.05334925
v 0.11838118 -0.21559171 0.11567588
v 0.11897423 -0.21353709 0.11564049
v 0.16436479 -0.21176059 0.04937759
v 0.10823456 -0.16636408 0.07833166
v 0.14079089 -0.17226296 0.05060397
v 0.12099794 -0.26210176 0.05334960
v 0.14755068 -0.24880561 0.09275871
v 0.12438988 -0.26185076 0.06390003
v 0.12008335 -0.16652018 0.09040391
v 0.11565876 -0.16672993 0.09032818
v 0.11018338 -0.16653056 0.08781449
v 0.13282076 -0.16661224 0.06206077
v 0.10979006 -0.16642888 0.05462298
v 0.07222534 -0.20516161 0.04995162
v 0.07133828 -0.20850956 0.05108277
v 0.09040996 -0.17638008 0.05027527
v 0.14902176 -0.17790113 0.05061657
v 0.09240183 -0.24942121 0.09321741
v 0.09921755 -0.25503725 0.09249771
v 0.13280488 -0.16659576 0.07972381
v 0.10812639 -0.17112673 0.09280748
v 0.07115999 -0.21692027 0.05334958
v 0.12669865 -0.25810952 0.09305506
v 0.09959478 -0.25810651 0.05003977
v 0.09091351 -0.25147425 0.04931425
v 0.12093031 -0.16636383 0.08471579
v 0.11993766 -0.16636421 0.08764158
v 0.09900696 -0.17420139 0.09247813
v 0.07794351 -0.19336998 0.04936252
v 0.07415810 -0.22070417 0.09213001
v 0.16593786 -0.22025800 0.06387660
v 0.16602183 -0.22067013 0.05108466
v 0.16335035 -0.22418582 0.04939082
v 0.08097883 -0.18577688 0.04997090
v 0.08870591 -0.17968326 0.04925246
v 0.12978235 -0.16636385 0.07768799
v 0.08602720 -0.24539646 0.09250383
v 0.08036443 -0.23819203 0.09220406
v 0.10680361 -0.16653338 0.08424604
v 0.16529755 -0.22282526 0.04989266
v 0.11798111 -0.17006226 0.09290974
v 0.11640039 -0.16636383 0.06613662
v 0.07270024 -0.21133701 0.04929192
v 0.15071279 -0.18299144 0.09212611
v 0.07996865 -0.23425926 0.09322286
v 0.16601921 -0.20858049 0.05108307
v 0.07140158 -0.20892619 0.06387654
v 0.07141006 -0.22031192 0.06389742
v 0.07131123 -0.22059278 0.05108554
v 0.07699176 -0.23722591 0.04993820
v 0.11920070 -0.26086401 0.04933875
v 0.11612753 -0.26209075 0.05034011
v 0.07593898 -0.22853538 0.09236481
v 0.16588541 -0.21137681 0.04980456
v 0.07549281 -0.19464550 0.05013406
v 0.07261711 -0.20289618 0.05360905
v 0.16591679 -0.20884478 0.06390373
v 0.08429706 -0.18166358 0.05050206
v 0.10694485 -0.26080200 0.05022691
v 0.11618901 -0.16636444 0.08611021
f 8 144 93
f 8 93 51
f 91 113 65
f 7 144 8
f 53 51 12
f 95 51 53
f 107 51 95
f 125 51 43
f 12 51 125
f 57 118 129
f 120 58 138
f 138 143 120
f 39 58 120
f 39 143 91
f 120 143 39
f 91 143 135
f 109 28 91
f 30 113 91
f 91 28 30
f 97 15 91
f 91 65 97
f 97 2 15
f 66 65 113
f 113 30 66
f 65 66 74
f 15 2 13
f 2 25 13
f 26 93 123
f 26 51 93
f 71 31 103
f 103 19 18
f 133 104 119
f 133 125 43
f 119 125 133
f 43 45 133
f 133 45 104
f 145 104 146
f 119 104 145
f 146 9 145
f 144 7 136
f 8 51 52
f 51 107 52
f 73 53 12
f 12 19 73
f 95 53 48
f 53 73 48
f 35 92 34
f 34 47 35
f 102 107 95
f 18 19 17
f 17 19 12
f 12 125 17
f 132 31 49
f 70 31 71
f 70 57 129
f 131 35 99
f 131 92 35
f 100 131 99
f 92 118 37
f 118 57 37
f 59 92 37
f 37 57 59
f 59 57 148
f 62 34 64
f 47 34 62
f 83 82 112
f 59 145 11
f 11 145 9
f 11 92 59
f 137 9 146
f 137 138 58
f 82 83 137
f 137 83 138
f 108 109 91
f 77 109 108
f 143 138 44
f 44 45 43
f 128 135 143
f 143 44 128
f 41 115 40
f 42 115 41
f 147 7 23
f 147 136 7
f 50 4 5
f 5 4 92
f 144 122 130
f 123 93 130
f 130 93 144
f 130 26 123
f 98 66 30
f 75 98 79
f 2 97 3
f 3 97 65
f 65 74 3
f 91 15 14
f 15 13 14
f 18 71 68
f 68 103 18
f 71 103 68
f 56 103 31
f 104 45 105
f 82 137 105
f 146 104 105
f 105 137 146
f 84 122 144
f 144 136 84
f 84 136 90
f 90 85 84
f 85 122 84
f 6 7 8
f 8 52 6
f 23 7 6
f 134 34 36
f 36 34 92
f 101 100 99
f 129 118 101
f 94 70 129
f 31 70 94
f 129 101 94
f 94 101 150
f 94 49 31
f 131 100 111
f 111 118 92
f 92 131 111
f 111 101 118
f 100 101 111
f 124 145 59
f 59 148 124
f 119 145 124
f 124 125 119
f 124 148 125
f 57 70 106
f 106 148 57
f 106 70 71
f 106 71 18
f 125 148 106
f 18 17 106
f 106 17 125
f 63 62 99
f 47 62 63
f 99 35 63
f 35 47 63
f 99 62 117
f 117 101 99
f 150 101 117
f 117 94 150
f 10 11 9
f 10 137 58
f 9 137 10
f 10 39 91
f 58 39 10
f 91 92 10
f 92 11 10
f 40 115 114
f 43 115 72
f 72 115 42
f 139 44 138
f 45 44 139
f 139 83 112
f 138 83 139
f 42 128 140
f 140 128 44
f 140 44 43
f 43 72 140
f 140 72 42
f 91 135 127
f 135 128 127
f 127 108 91
f 77 108 127
f 127 41 77
f 127 128 42
f 42 41 127
f 77 41 16
f 16 41 40
f 16 109 77
f 40 114 16
f 16 114 109
f 86 85 90
f 90 136 86
f 136 147 86
f 33 147 23
f 4 147 33
f 23 92 33
f 92 4 33
f 28 109 29
f 29 30 28
f 109 114 29
f 142 75 79
f 141 75 142
f 61 98 30
f 30 29 61
f 78 74 66
f 66 98 78
f 78 75 74
f 98 75 78
f 80 25 2
f 80 26 25
f 24 13 25
f 25 26 24
f 26 130 24
f 24 130 122
f 121 122 85
f 121 24 122
f 38 24 121
f 121 4 50
f 121 147 4
f 85 86 121
f 121 86 147
f 21 14 13
f 21 121 50
f 38 121 21
f 13 24 21
f 21 24 38
f 50 5 21
f 91 14 21
f 21 92 91
f 21 5 92
f 76 20 102
f 95 48 76
f 76 102 95
f 103 56 55
f 55 31 132
f 55 56 31
f 23 6 22
f 22 92 23
f 134 36 22
f 22 36 92
f 46 52 107
f 46 6 52
f 46 107 134
f 134 22 46
f 46 22 6
f 102 20 110
f 64 34 110
f 110 62 64
f 107 102 110
f 134 107 110
f 110 34 134
f 126 117 62
f 62 110 126
f 126 110 20
f 27 115 141
f 27 114 115
f 81 105 45
f 45 139 81
f 81 139 112
f 112 82 81
f 82 105 81
f 79 98 96
f 96 142 79
f 149 29 114
f 149 61 29
f 60 61 149
f 149 142 60
f 141 142 149
f 149 27 141
f 114 27 149
f 74 75 1
f 1 80 2
f 2 3 1
f 1 3 74
f 19 103 69
f 103 55 69
f 69 73 19
f 69 55 73
f 20 76 67
f 67 55 20
f 73 55 67
f 67 48 73
f 67 76 48
f 54 55 132
f 20 55 54
f 132 126 54
f 54 126 20
f 132 49 116
f 116 126 132
f 117 126 116
f 49 94 116
f 94 117 116
f 60 142 88
f 88 61 60
f 32 75 141
f 32 1 75
f 80 1 32
f 26 80 32
f 32 115 43
f 141 115 32
f 43 51 32
f 51 26 32
f 142 96 87
f 87 88 142
f 96 88 87
f 89 96 98
f 89 88 96
f 98 61 89
f 61 88 89

