# https://github.com/mikedh/trimesh
v 0.16577440 0.17924601 0.11292554
v 0.16839476 0.17836108 0.11218926
v 0.16594931 0.17836951 0.11450264
v 0.16746386 0.17662751 0.11300001
v 0.16567813 0.17850824 0.11356306
v 0.16776911 0.17686728 0.11236526
v 0.16811288 0.17675501 0.11380644
v 0.16893599 0.17816739 0.11349681
v 0.16869101 0.17777543 0.11388941
v 0.16690586 0.17719552 0.11451012
v 0.16677608 0.17683256 0.11427229
v 0.16753391 0.17960801 0.11264626
v 0.16825840 0.17935351 0.11337536
v 0.16809611 0.17922629 0.11380549
v 0.16848485 0.17865286 0.11438274
v 0.16687894 0.17660567 0.11215611
v 0.16878961 0.17788196 0.11307376
v 0.16576023 0.17941594 0.11244831
v 0.16805206 0.17934916 0.11292854
v 0.16862211 0.17799308 0.11259079
v 0.16729661 0.17962406 0.11222909
v 0.16711316 0.17966402 0.11393704
v 0.16769026 0.17879833 0.11163782
v 0.16729886 0.17886564 0.11171061
v 0.16642080 0.17821464 0.11464861
v 0.16714536 0.17877064 0.11493444
v 0.16696334 0.17926356 0.11433854
v 0.16763943 0.17717941 0.11474319
v 0.16559193 0.17722719 0.11261312
v 0.16654776 0.17696214 0.11197869
v 0.16657823 0.17668408 0.11276057
v 0.16564516 0.17737286 0.11311257
v 0.16589008 0.17865459 0.11399649
v 0.16630293 0.17697066 0.11391786
v 0.16575316 0.17760499 0.11229222
v 0.16701471 0.17970087 0.11344126
v 0.16808848 0.17875016 0.11180324
v 0.16803293 0.17746059 0.11175724
v 0.16752913 0.17747946 0.11160651
v 0.16592354 0.17879796 0.11227904
f 26 28 15
f 13 15 8
f 36 18 22
f 26 15 22
f 25 28 26
f 8 15 9
f 9 15 28
f 29 18 35
f 5 18 29
f 37 13 8
f 37 38 23
f 21 37 23
f 21 18 36
f 3 22 33
f 3 25 26
f 33 5 3
f 15 13 14
f 14 22 15
f 13 22 14
f 29 35 30
f 7 9 28
f 28 11 7
f 8 9 7
f 24 21 23
f 18 21 24
f 24 30 35
f 1 5 33
f 18 5 1
f 33 22 1
f 1 22 18
f 2 37 8
f 38 37 2
f 12 21 36
f 36 22 12
f 12 22 13
f 13 37 19
f 37 21 19
f 19 12 13
f 21 12 19
f 26 22 27
f 27 3 26
f 22 3 27
f 32 5 29
f 32 3 5
f 34 11 3
f 3 32 34
f 34 32 29
f 25 3 10
f 3 11 10
f 28 25 10
f 10 11 28
f 6 7 4
f 4 7 11
f 20 2 8
f 38 2 20
f 6 38 17
f 17 7 6
f 38 20 17
f 8 7 17
f 17 20 8
f 40 35 18
f 18 24 40
f 40 24 35
f 39 24 23
f 30 24 39
f 23 38 39
f 11 34 31
f 31 4 11
f 31 34 29
f 4 31 16
f 6 4 16
f 29 30 16
f 16 31 29
f 30 39 16
f 16 38 6
f 16 39 38

