# https://github.com/mikedh/trimesh
v 0.10733604 0.08775487 -0.08744711
v 0.10739139 0.08789462 -0.08832482
v 0.10992000 0.08786222 -0.08744616
v 0.10981364 0.08798329 -0.08833404
v 0.11116814 0.09025254 -0.08743629
v 0.11100050 0.09016334 -0.08831691
v 0.10965547 0.09226719 -0.08833402
v 0.10965632 0.09246134 -0.08743109
v 0.10723319 0.09217854 -0.08832482
v 0.10709906 0.09226739 -0.08744996
v 0.10587867 0.08990932 -0.08743631
v 0.10604631 0.08999849 -0.08832566
v 0.10840522 0.08770519 -0.08662389
v 0.10632282 0.08917639 -0.08645972
v 0.10649334 0.09126372 -0.08662697
v 0.10845986 0.09245122 -0.08646444
v 0.11070267 0.09102604 -0.08648312
v 0.11002739 0.08781247 -0.08627102
v 0.10965224 0.09252819 -0.08626236
v 0.10582474 0.08991062 -0.08627674
v 0.10654959 0.08878391 -0.08550882
v 0.11122695 0.09024141 -0.08629686
v 0.10738592 0.08760739 -0.08519129
v 0.10586074 0.08994124 -0.08514602
v 0.10677076 0.08848044 -0.08445461
v 0.10706060 0.09234652 -0.08517229
v 0.11122912 0.09021876 -0.08514581
v 0.11002067 0.08780829 -0.08514909
v 0.10735024 0.08771424 -0.08404982
v 0.11001817 0.08786344 -0.08409639
v 0.11116172 0.09016114 -0.08409579
v 0.10974452 0.09240622 -0.08407967
v 0.10980562 0.09239722 -0.08505742
v 0.10588727 0.08994806 -0.08407564
v 0.10747936 0.08802437 -0.08305689
v 0.10907971 0.08783587 -0.08308525
v 0.10630936 0.08915839 -0.08337684
v 0.10654827 0.09127467 -0.08310694
v 0.10703045 0.09232346 -0.08405717
v 0.11048321 0.09133697 -0.08310354
v 0.11061742 0.08907684 -0.08311355
v 0.10843281 0.09254547 -0.08294525
v 0.10625597 0.08967434 -0.08290634
v 0.10955647 0.08887139 -0.08865959
v 0.10780336 0.08892769 -0.08847320
v 0.10747736 0.09114324 -0.08852502
v 0.11002475 0.09005759 -0.08861449
v 0.10959131 0.09121857 -0.08858104
v 0.10852634 0.09155726 -0.08857324
f 38 43 42
f 43 38 34
f 42 40 32
f 27 40 31
f 3 6 5
f 5 6 7
f 20 34 24
f 39 38 42
f 20 24 39
f 39 34 38
f 39 24 34
f 3 5 18
f 43 34 37
f 37 34 20
f 9 12 10
f 10 12 11
f 1 11 2
f 2 11 12
f 6 44 47
f 42 32 19
f 19 16 42
f 26 39 42
f 42 16 26
f 26 16 10
f 27 18 22
f 22 18 5
f 22 5 17
f 22 40 27
f 13 1 3
f 3 18 13
f 41 31 40
f 41 40 42
f 42 43 41
f 43 36 41
f 27 31 41
f 21 37 20
f 12 9 46
f 3 1 4
f 1 2 4
f 4 2 44
f 4 6 3
f 4 44 6
f 45 2 12
f 44 2 45
f 12 46 45
f 45 46 44
f 8 5 7
f 17 5 8
f 7 9 8
f 16 19 8
f 10 16 8
f 8 9 10
f 33 19 32
f 33 32 40
f 17 8 33
f 33 8 19
f 40 22 33
f 33 22 17
f 20 39 15
f 39 26 15
f 15 26 10
f 15 11 20
f 10 11 15
f 23 13 18
f 36 29 23
f 1 13 23
f 23 21 1
f 23 29 37
f 30 41 36
f 35 36 43
f 35 29 36
f 43 37 35
f 37 29 35
f 20 11 14
f 14 21 20
f 14 11 1
f 1 21 14
f 44 46 49
f 49 9 7
f 49 46 9
f 37 21 25
f 25 23 37
f 21 23 25
f 36 23 28
f 28 30 36
f 28 23 18
f 28 18 27
f 27 41 28
f 41 30 28
f 48 47 44
f 44 49 48
f 48 49 7
f 7 6 48
f 6 47 48

