# https://github.com/mikedh/trimesh
v -0.12069114 0.16761631 0.08561102
v -0.12051784 0.16672188 0.08561287
v -0.11922681 0.16761806 0.08781862
v -0.11911983 0.16673518 0.08771397
v -0.11655612 0.16761556 0.08758984
v -0.11667889 0.16672513 0.08746029
v -0.11563739 0.16684164 0.08479562
v -0.11689314 0.16760284 0.08311859
v -0.11702137 0.16671101 0.08321177
v -0.11949366 0.16762410 0.08321219
v -0.11951806 0.16673026 0.08343007
v -0.12034172 0.16842881 0.08470119
v -0.11781424 0.16842260 0.08779639
v -0.11938912 0.16878800 0.08780699
v -0.11659144 0.16877449 0.08768024
v -0.11949542 0.16876804 0.08314619
v -0.11798911 0.16952358 0.08309274
v -0.11535761 0.16880233 0.08526002
v -0.11936544 0.16988231 0.08779694
v -0.11656314 0.16991535 0.08766964
v -0.11960196 0.16990480 0.08323432
v -0.12066394 0.16988153 0.08567674
v -0.12014658 0.17067858 0.08423794
v -0.11799617 0.17064403 0.08308097
v -0.11536887 0.16992004 0.08525839
v -0.11918457 0.17098124 0.08783464
v -0.11657786 0.17098095 0.08764842
v -0.11545712 0.17098015 0.08538169
v -0.11953331 0.17099081 0.08324404
v -0.12014455 0.17195253 0.08432537
v -0.11847682 0.17198534 0.08313452
v -0.11687864 0.17099881 0.08303127
v -0.11593944 0.17173016 0.08435169
v -0.11590009 0.17193433 0.08632894
v -0.11773589 0.17167846 0.08778302
v -0.11977692 0.17211069 0.08734762
v -0.12069436 0.17136009 0.08554967
v -0.11666264 0.17211069 0.08743739
v -0.11636317 0.17211069 0.08373592
v -0.11796652 0.17207494 0.08386422
v -0.11971136 0.17210374 0.08575872
v -0.11823299 0.16640476 0.08695474
v -0.11940424 0.16659156 0.08562014
v -0.11711129 0.16644636 0.08662932
v -0.11537917 0.16661355 0.08529684
v -0.11653810 0.16648481 0.08513107
v -0.11866112 0.16659166 0.08404254
v -0.11767732 0.16653093 0.08400839
f 42 4 2
f 7 33 18
f 18 45 7
f 20 45 18
f 35 36 26
f 35 38 36
f 23 12 37
f 42 2 43
f 47 48 42
f 11 48 47
f 42 43 47
f 47 2 11
f 47 43 2
f 42 48 46
f 11 12 10
f 9 7 45
f 45 46 9
f 9 46 48
f 9 48 11
f 11 10 9
f 26 36 19
f 19 14 26
f 36 14 19
f 18 33 25
f 33 28 25
f 34 28 33
f 34 25 28
f 34 20 18
f 18 25 34
f 6 4 42
f 3 2 4
f 26 14 3
f 22 36 37
f 2 3 1
f 1 3 14
f 1 12 11
f 11 2 1
f 37 12 1
f 1 14 36
f 36 22 1
f 1 22 37
f 42 46 44
f 44 46 45
f 44 6 42
f 45 6 44
f 12 23 21
f 21 10 12
f 27 34 38
f 20 34 27
f 38 35 27
f 27 35 20
f 45 20 5
f 5 6 45
f 4 6 5
f 37 36 30
f 30 31 29
f 30 23 37
f 29 21 30
f 30 21 23
f 7 9 8
f 8 32 7
f 8 9 10
f 39 32 31
f 31 40 39
f 33 7 39
f 7 32 39
f 39 34 33
f 38 34 39
f 36 38 39
f 10 21 16
f 16 8 10
f 29 31 16
f 16 21 29
f 13 3 4
f 4 5 13
f 26 3 13
f 13 35 26
f 31 30 41
f 41 40 31
f 41 30 36
f 36 39 41
f 41 39 40
f 31 32 24
f 24 16 31
f 32 16 24
f 32 8 17
f 17 16 32
f 8 16 17
f 15 5 20
f 15 13 5
f 20 35 15
f 35 13 15

