# https://github.com/mikedh/trimesh
v 0.06276465 -0.13417756 -0.04325822
v 0.06325795 -0.13545293 -0.04295027
v 0.06172725 -0.13278473 -0.04216227
v 0.06179252 -0.13249376 -0.03879419
v 0.06140577 -0.13224485 -0.04011835
v 0.06252335 -0.13416366 -0.03784837
v 0.06421155 -0.13668366 -0.03934242
v 0.06355809 -0.13597280 -0.03832620
v 0.06399330 -0.13670961 -0.04138419
v 0.06617955 -0.13490703 -0.04237122
v 0.06647627 -0.13537058 -0.03965915
v 0.06562405 -0.13390328 -0.03788482
v 0.06427055 -0.13164888 -0.03833424
v 0.06389102 -0.13087228 -0.04015542
v 0.06411082 -0.13130138 -0.04215714
v 0.06504847 -0.13291871 -0.04311097
v 0.07145064 -0.12858722 -0.04132517
v 0.07139577 -0.12823128 -0.04048422
v 0.07194795 -0.12946126 -0.04163039
v 0.07232144 -0.13038378 -0.04084752
v 0.07255905 -0.12996886 -0.04003550
v 0.07194107 -0.12969065 -0.03892494
v 0.07131450 -0.12842911 -0.03933862
v 0.07092987 -0.12804488 -0.04061902
v 0.07118267 -0.12865283 -0.04170512
v 0.07177865 -0.12980975 -0.04197054
v 0.07230380 -0.13088633 -0.04059999
v 0.07069707 -0.12852501 -0.03940267
v 0.07059424 -0.12857783 -0.04144679
v 0.07180170 -0.13095606 -0.04113599
v 0.07153960 -0.13069210 -0.03922317
v 0.07045270 -0.12939248 -0.04195452
v 0.07124415 -0.13093961 -0.04157212
v 0.07133410 -0.13125141 -0.03966164
f 8 6 5
f 8 11 12
f 6 8 12
f 12 13 6
f 16 26 10
f 10 11 9
f 18 23 21
f 5 6 4
f 6 13 4
f 7 8 9
f 9 11 7
f 7 11 8
f 23 13 22
f 13 12 22
f 21 23 22
f 2 1 16
f 16 10 2
f 2 10 9
f 2 8 5
f 9 8 2
f 33 10 26
f 19 18 21
f 25 19 26
f 21 22 31
f 31 12 11
f 31 22 12
f 34 31 11
f 11 10 27
f 27 34 11
f 21 31 27
f 31 34 27
f 28 13 23
f 32 26 16
f 16 25 32
f 32 25 26
f 18 19 17
f 19 25 17
f 10 33 30
f 30 27 10
f 30 33 26
f 26 27 30
f 20 19 21
f 21 27 20
f 26 19 20
f 20 27 26
f 14 4 13
f 13 28 14
f 5 4 14
f 5 14 15
f 16 1 15
f 15 25 16
f 15 29 25
f 5 15 3
f 3 15 1
f 3 2 5
f 1 2 3
f 24 15 14
f 24 14 28
f 29 15 24
f 23 18 24
f 24 28 23
f 25 29 24
f 18 17 24
f 24 17 25

