# https://github.com/mikedh/trimesh
v 0.12615379 -0.19621901 0.02958485
v 0.13491750 -0.22492301 0.08080991
v 0.12656381 -0.23244779 0.08080991
v 0.13806561 -0.21894779 0.02958624
v 0.12471824 -0.23364422 0.02958146
v 0.10033628 -0.20788187 0.08080991
v 0.10831998 -0.19821693 0.08080991
v 0.11502849 -0.23400156 0.02974842
v 0.09948543 -0.20992455 0.02958694
v 0.10572036 -0.22980761 0.02958746
v 0.09990069 -0.22103071 0.02958674
v 0.16162346 -0.21353564 0.05636214
v 0.16165403 -0.21459021 0.05389860
v 0.16161076 -0.21589658 0.05558926
v 0.11972638 -0.25754802 0.05636212
v 0.11867210 -0.25757901 0.05389861
v 0.11736520 -0.25753302 0.05558926
v 0.07571386 -0.21564879 0.05636212
v 0.07568288 -0.21459447 0.05389861
v 0.07572868 -0.21328761 0.05558924
v 0.11726416 -0.17165083 0.05530303
v 0.11895518 -0.17161141 0.05399982
v 0.11971759 -0.17163650 0.05638392
v 0.12052451 -0.19515753 0.08080991
v 0.10409936 -0.20097646 0.02958748
v 0.12234439 -0.17177026 0.05094707
v 0.07571878 -0.21095351 0.05109362
v 0.11508904 -0.17161406 0.05103300
v 0.11510738 -0.17184271 0.06280429
v 0.13782663 -0.20945549 0.02958559
v 0.13354944 -0.22767374 0.02958731
v 0.16141910 -0.21815440 0.06280429
v 0.16150741 -0.21102829 0.06280468
v 0.10555953 -0.22869322 0.08080991
v 0.13367577 -0.20165762 0.02958730
v 0.09895688 -0.21449520 0.02958996
v 0.16155836 -0.21826272 0.05107594
v 0.07592033 -0.21102981 0.06280428
v 0.11510738 -0.25734150 0.06280429
v 0.11503111 -0.25754301 0.05109364
v 0.11406476 -0.23340852 0.08080991
v 0.13302018 -0.20135555 0.08080991
v 0.11328346 -0.19554073 0.02958783
v 0.12234263 -0.25743477 0.05109183
v 0.11934462 -0.19489046 0.02958977
v 0.13819053 -0.21431021 0.08080991
v 0.10020921 -0.22046346 0.08080991
v 0.12223476 -0.25742976 0.06280468
v 0.12223356 -0.17175444 0.06280477
v 0.07583206 -0.21815716 0.06280467
v 0.16157894 -0.21095958 0.05108530
v 0.07582711 -0.21826498 0.05109183
f 16 40 44
f 14 37 13
f 32 37 14
f 13 12 14
f 14 12 32
f 2 32 46
f 46 32 33
f 32 12 33
f 52 18 19
f 34 47 50
f 18 52 50
f 50 52 40
f 31 44 5
f 37 44 31
f 48 2 3
f 32 2 48
f 48 37 32
f 48 44 37
f 49 33 51
f 13 37 51
f 51 12 13
f 51 33 12
f 46 33 42
f 42 33 49
f 49 24 42
f 27 52 19
f 5 11 9
f 9 27 25
f 10 11 5
f 40 52 10
f 52 11 10
f 6 50 47
f 37 31 4
f 4 51 37
f 4 31 5
f 41 48 3
f 16 44 15
f 44 48 15
f 25 27 28
f 28 23 22
f 21 23 28
f 5 9 1
f 1 9 25
f 19 18 20
f 20 27 19
f 52 27 36
f 27 9 36
f 36 11 52
f 36 9 11
f 8 10 5
f 40 10 8
f 5 44 8
f 8 44 40
f 35 51 30
f 51 4 30
f 30 1 35
f 30 4 5
f 5 1 30
f 39 41 34
f 48 41 39
f 34 50 39
f 39 50 40
f 39 15 48
f 43 1 25
f 45 1 43
f 25 28 43
f 43 28 45
f 45 28 26
f 26 1 45
f 26 28 22
f 35 1 26
f 22 23 26
f 26 23 49
f 49 51 26
f 26 51 35
f 29 7 24
f 29 24 49
f 49 23 29
f 29 23 21
f 21 28 29
f 29 28 27
f 17 40 16
f 17 39 40
f 16 15 17
f 15 39 17
f 7 29 38
f 6 7 38
f 50 6 38
f 18 50 38
f 38 20 18
f 27 20 38
f 38 29 27
f 7 6 47
f 7 2 46
f 7 47 34
f 3 2 7
f 46 42 7
f 7 42 24
f 34 41 7
f 7 41 3

