# https://github.com/mikedh/trimesh
v -0.20361912 0.14468989 0.06848070
v -0.20339246 0.14554366 0.06662200
v -0.20440309 0.14536414 0.06612752
v -0.20296409 0.14573876 0.06596987
v -0.20275896 0.14494314 0.06653287
v -0.20335507 0.14364201 0.06613569
v -0.20309637 0.14345524 0.06566332
v -0.20479474 0.14384492 0.06547222
v -0.20317466 0.14377939 0.06648023
v -0.20449042 0.14594126 0.06533290
v -0.20196988 0.14495919 0.04800988
v -0.20221038 0.14552949 0.04813133
v -0.20125635 0.14594226 0.04897964
v -0.20225773 0.14709789 0.04901717
v -0.20411589 0.14634016 0.04809293
v -0.20347688 0.14754024 0.04955039
v -0.20522673 0.14697234 0.04935930
v -0.20442874 0.14601596 0.04807281
v -0.20534346 0.14562476 0.04828875
v -0.20530200 0.14423327 0.04810416
v -0.20644483 0.14420887 0.04932514
v -0.20516889 0.14234520 0.04921761
v -0.20293748 0.14187104 0.04922878
v -0.20326054 0.14315749 0.04801890
v -0.20278602 0.14334049 0.04811676
v -0.20107305 0.14347674 0.04919816
v -0.20608640 0.14595199 0.04957475
v -0.20095832 0.14559728 0.04957261
v -0.20496459 0.14384647 0.04809520
v -0.20538750 0.14265484 0.04965719
v -0.20509925 0.14504187 0.06439397
v -0.20422657 0.14323069 0.06462955
v -0.20212333 0.14412472 0.06488547
v -0.20281289 0.14594939 0.06516116
v -0.20305426 0.14322477 0.06371372
v -0.20211205 0.14482724 0.06394012
v -0.20333269 0.14624626 0.06415348
f 28 33 26
f 26 33 23
f 23 32 22
f 22 24 23
f 8 32 1
f 8 22 32
f 20 22 21
f 25 24 11
f 11 26 25
f 23 24 25
f 25 26 23
f 28 26 13
f 13 26 11
f 1 32 6
f 32 7 6
f 9 33 1
f 9 7 33
f 1 6 9
f 9 6 7
f 35 32 23
f 35 7 32
f 23 33 35
f 33 7 35
f 37 16 10
f 21 22 30
f 30 8 21
f 22 8 30
f 36 33 28
f 28 34 36
f 1 33 5
f 33 36 5
f 5 36 34
f 24 22 29
f 29 20 24
f 22 20 29
f 31 8 1
f 21 8 31
f 31 27 21
f 31 10 27
f 2 10 1
f 1 5 4
f 4 5 34
f 4 2 1
f 10 2 4
f 4 34 37
f 37 10 4
f 14 15 16
f 14 16 37
f 37 34 14
f 14 34 28
f 28 13 14
f 11 24 18
f 18 15 11
f 24 20 18
f 16 15 17
f 27 10 17
f 17 10 16
f 1 10 3
f 3 31 1
f 10 31 3
f 11 15 12
f 15 14 12
f 12 13 11
f 12 14 13
f 15 18 19
f 19 17 15
f 27 17 19
f 19 18 20
f 21 27 19
f 19 20 21

