# https://github.com/mikedh/trimesh
v 0.20376932 0.07185796 0.06848073
v 0.20417380 0.07264324 0.06662202
v 0.20315136 0.07257199 0.06600760
v 0.20463414 0.07274184 0.06596990
v 0.20466372 0.07192086 0.06653290
v 0.20496637 0.07144083 0.06581212
v 0.20380246 0.07077778 0.06613568
v 0.20401511 0.07053991 0.06566335
v 0.20243980 0.07128473 0.06547225
v 0.20400814 0.07087334 0.06648026
v 0.20318667 0.07326708 0.06533293
v 0.20542142 0.07192411 0.04813025
v 0.20530502 0.07237438 0.04810052
v 0.20649924 0.07242136 0.04911725
v 0.20561559 0.07391783 0.04901723
v 0.20373146 0.07342366 0.04805848
v 0.20288000 0.07361471 0.04820859
v 0.20444667 0.07463551 0.04955735
v 0.20222138 0.07422808 0.04933308
v 0.20326566 0.07334106 0.04810789
v 0.20202763 0.07177286 0.04810420
v 0.20115008 0.07086986 0.04953550
v 0.20242536 0.06957071 0.04891563
v 0.20500497 0.06955901 0.04886540
v 0.20379281 0.07025976 0.04804468
v 0.20429668 0.07036803 0.04808442
v 0.20549581 0.07088866 0.04826683
v 0.20437166 0.06908351 0.04953229
v 0.20120905 0.07312646 0.04955550
v 0.20626213 0.07049336 0.04950713
v 0.20228046 0.07132394 0.04809255
v 0.20248107 0.06944724 0.04961749
v 0.20632598 0.07264161 0.04963326
v 0.20224665 0.07161346 0.06447967
v 0.20376689 0.07031898 0.06478002
v 0.20519406 0.07130141 0.06491845
v 0.20482692 0.07291516 0.06516119
v 0.20312843 0.07046258 0.06363379
v 0.20448002 0.07055703 0.06376610
v 0.20530776 0.07182923 0.06394280
v 0.20449552 0.07314406 0.06414674
f 19 11 18
f 15 16 18
f 22 32 9
f 9 32 38
f 14 36 30
f 37 15 18
f 28 30 39
f 39 30 36
f 18 16 17
f 17 19 18
f 13 15 14
f 16 15 13
f 29 21 22
f 19 17 29
f 29 17 21
f 11 19 29
f 16 13 25
f 25 13 26
f 1 11 3
f 3 9 1
f 11 9 3
f 24 30 28
f 24 25 26
f 2 11 1
f 18 11 41
f 41 37 18
f 11 37 41
f 40 36 14
f 14 37 40
f 40 37 36
f 14 15 33
f 33 37 14
f 15 37 33
f 28 39 35
f 35 32 28
f 38 32 35
f 35 9 38
f 16 21 20
f 20 17 16
f 21 17 20
f 22 9 34
f 34 29 22
f 34 9 11
f 11 29 34
f 31 21 16
f 16 25 31
f 30 24 27
f 14 30 27
f 27 24 26
f 1 5 4
f 4 5 37
f 4 2 1
f 4 37 11
f 11 2 4
f 36 37 6
f 37 5 6
f 6 5 1
f 1 10 6
f 8 35 39
f 8 39 36
f 36 6 8
f 8 6 10
f 23 31 25
f 28 32 23
f 23 32 22
f 23 24 28
f 25 24 23
f 22 21 23
f 21 31 23
f 12 13 14
f 14 27 12
f 26 13 12
f 12 27 26
f 9 35 7
f 35 8 7
f 7 8 10
f 1 9 7
f 7 10 1

