#usda 1.0
(
    defaultPrim = "Panel"
    metersPerUnit = 1
    upAxis = "Z"
)

def Xform "Panel" (
    prepend references = @../../panels/ship_green/panel.usda@
)
{
    def Cube "Foundation" (
        prepend apiSchemas = ["MaterialBindingAPI", "PhysicsCollisionAPI"]
    )
    {
        rel material:binding = </Panel/Material>
        uniform token purpose = "guide"
        double size = 1
        float3 xformOp:scale = (0.08, 1.15, 0.45)
        double3 xformOp:translate = (0, 0, -0.79)
        uniform token[] xformOpOrder = ["xformOp:translate", "xformOp:scale"]
    }

    def Mesh "FoundationSurface" (
        prepend apiSchemas = ["MaterialBindingAPI"]
    )
    {
        uniform bool doubleSided = 1
        int[] faceVertexCounts = [4, 4, 4, 4, 4, 4]
        int[] faceVertexIndices = [0, 1, 2, 3, 4, 5, 6, 7, 8, 9, 10, 11, 12, 13, 14, 15, 16, 17, 18, 19, 20, 21, 22, 23]
        rel material:binding = </Panel/Material>
        point3f[] points = [(-0.04, -0.575, -1.015), (-0.04, -0.575, -0.565), (-0.04, 0.575, -0.565), (-0.04, 0.575, -1.015), (0.04, 0.575, -1.015), (0.04, 0.575, -0.565), (0.04, -0.575, -0.565), (0.04, -0.575, -1.015), (0.04, -0.575, -1.015), (0.04, -0.575, -0.565), (-0.04, -0.575, -0.565), (-0.04, -0.575, -1.015), (-0.04, 0.575, -1.015), (-0.04, 0.575, -0.565), (0.04, 0.575, -0.565), (0.04, 0.575, -1.015), (-0.04, -0.575, -0.565), (0.04, -0.575, -0.565), (0.04, 0.575, -0.565), (-0.04, 0.575, -0.565), (0.04, -0.575, -1.015), (-0.04, -0.575, -1.015), (-0.04, 0.575, -1.015), (0.04, 0.575, -1.015)]
        texCoord2f[] primvars:st = [(0, -0.44), (0, 0.00999999), (1.15, 0.00999999), (1.15, -0.44), (0, -0.44), (0, 0.00999999), (1.15, 0.00999999), (1.15, -0.44), (0, -0.44), (0, 0.00999999), (0.08, 0.00999999), (0.08, -0.44), (0, -0.44), (0, 0.00999999), (0.08, 0.00999999), (0.08, -0.44), (0, 0), (0, 0.08), (1.15, 0.08), (1.15, 0), (0, 0), (0, 0.08), (1.15, 0.08), (1.15, 0)] (
            interpolation = "vertex"
        )
        uniform token subdivisionScheme = "none"
    }

    def Material "Trim"
    {
        token outputs:surface.connect = </Panel/Trim/Surface.outputs:surface>

        def Shader "Surface"
        {
            uniform token info:id = "UsdPreviewSurface"
            color3f inputs:diffuseColor = (0.13, 0.18, 0.17)
            float inputs:metallic = 0.65
            float inputs:roughness = 0.48
            token outputs:surface
        }
    }

    def Cube "Edge0" (
        prepend apiSchemas = ["MaterialBindingAPI"]
    )
    {
        rel material:binding = </Panel/Trim>
        double size = 1
        float3 xformOp:scale = (0.009, 0.016, 1.59)
        double3 xformOp:translate = (-0.044, -0.565, -0.22)
        uniform token[] xformOpOrder = ["xformOp:translate", "xformOp:scale"]
    }

    def Cube "Edge1" (
        prepend apiSchemas = ["MaterialBindingAPI"]
    )
    {
        rel material:binding = </Panel/Trim>
        double size = 1
        float3 xformOp:scale = (0.009, 0.016, 1.59)
        double3 xformOp:translate = (-0.044, 0.565, -0.22)
        uniform token[] xformOpOrder = ["xformOp:translate", "xformOp:scale"]
    }
}

