#usda 1.0
(
    defaultPrim = "BoulderCoral"
    metersPerUnit = 1
    upAxis = "Z"
)

def Xform "BoulderCoral"
{
    def "Looks"
    {
        def Material "Coral"
        {
            token outputs:surface.connect = </BoulderCoral/Looks/Coral/Surface.outputs:surface>

            def Shader "Surface"
            {
                uniform token info:id = "UsdPreviewSurface"
                color3f inputs:diffuseColor = (0.35, 0.31, 0.22)
                float inputs:roughness = 0.9
                token outputs:surface
            }
        }
    }

    def Mesh "Part0" (
        prepend apiSchemas = ["MaterialBindingAPI", "PhysicsCollisionAPI", "PhysicsMeshCollisionAPI"]
    )
    {
        int[] faceVertexCounts = [3, 3, 3, 3, 3, 3, 3, 3, 3, 3, 3, 3, 3, 3, 3, 3, 3, 3, 3, 3, 3, 3, 3, 3, 3, 3, 3, 3, 3, 3, 3, 3, 3, 3, 3, 3, 3, 3, 3, 3, 3, 3, 3, 3, 3, 3, 3, 3, 3, 3, 3, 3, 3, 3, 3, 3, 3, 3, 3, 3, 3, 3, 3, 3, 3, 3, 3, 3, 3, 3, 3, 3, 3, 3, 3, 3, 3, 3, 3, 3, 3, 3, 3, 3, 3, 3, 3, 3, 3, 3, 3, 3, 3, 3, 3, 3, 3, 3, 3, 3, 3, 3, 3, 3, 3, 3, 3, 3, 3, 3, 3, 3, 3, 3, 3, 3, 3, 3, 3, 3, 3, 3, 3, 3, 3, 3, 3, 3, 3, 3, 3, 3, 3, 3, 3, 3, 3, 3, 3, 3, 3, 3, 3, 3, 3, 3, 3, 3, 3, 3, 3, 3, 3, 3, 3, 3, 3, 3, 3, 3, 3, 3, 3, 3, 3, 3, 3, 3, 3, 3, 3, 3, 3, 3, 3, 3, 3, 3, 3, 3, 3, 3, 3, 3, 3, 3, 3, 3, 3, 3, 3, 3, 3, 3, 3, 3, 3, 3, 3, 3, 3, 3, 3, 3, 3, 3, 3, 3, 3, 3, 3, 3, 3, 3, 3, 3, 3, 3, 3, 3, 3, 3, 3, 3, 3, 3, 3, 3, 3, 3, 3, 3, 3, 3, 3, 3, 3, 3, 3, 3, 3, 3, 3, 3, 3, 3, 3, 3, 3, 3, 3, 3, 3, 3, 3, 3, 3, 3, 3, 3, 3, 3, 3, 3, 3, 3, 3, 3, 3, 3, 3, 3, 3, 3, 3, 3, 3, 3, 3, 3, 3, 3, 3, 3, 3, 3, 3, 3, 3, 3, 3, 3, 3, 3, 3, 3, 3, 3, 3, 3, 3, 3, 3, 3, 3, 3, 3, 3, 3, 3, 3, 3, 3, 3, 3, 3, 3, 3, 3, 3]
        int[] faceVertexIndices = [0, 137, 53, 137, 37, 139, 53, 139, 16, 137, 139, 53, 37, 138, 154, 138, 11, 151, 154, 151, 40, 138, 151, 154, 16, 152, 54, 152, 40, 150, 54, 150, 5, 152, 150, 54, 37, 154, 139, 154, 40, 152, 139, 152, 16, 154, 152, 139, 0, 53, 42, 53, 16, 55, 42, 55, 12, 53, 55, 42, 16, 54, 59, 54, 5, 57, 59, 57, 17, 54, 57, 59, 12, 58, 43, 58, 17, 56, 43, 56, 1, 58, 56, 43, 16, 59, 55, 59, 17, 58, 55, 58, 12, 59, 58, 55, 0, 42, 69, 42, 12, 71, 69, 71, 21, 42, 71, 69, 12, 43, 74, 43, 1, 72, 74, 72, 22, 43, 72, 74, 21, 75, 70, 75, 22, 73, 70, 73, 7, 75, 73, 70, 12, 74, 71, 74, 22, 75, 71, 75, 21, 74, 75, 71, 0, 69, 120, 69, 21, 122, 120, 122, 33, 69, 122, 120, 21, 70, 133, 70, 7, 131, 133, 131, 36, 70, 131, 133, 33, 135, 121, 135, 36, 132, 121, 132, 10, 135, 132, 121, 21, 133, 122, 133, 36, 135, 122, 135, 33, 133, 135, 122, 0, 120, 137, 120, 33, 140, 137, 140, 37, 120, 140, 137, 33, 121, 158, 121, 10, 156, 158, 156, 41, 121, 156, 158, 37, 160, 138, 160, 41, 157, 138, 157, 11, 160, 157, 138, 33, 158, 140, 158, 41, 160, 140, 160, 37, 158, 160, 140, 1, 56, 95, 56, 17, 97, 95, 97, 28, 56, 97, 95, 17, 57, 110, 57, 5, 108, 110, 108, 31, 57, 108, 110, 28, 112, 96, 112, 31, 109, 96, 109, 9, 112, 109, 96, 17, 110, 97, 110, 31, 112, 97, 112, 28, 110, 112, 97, 5, 150, 61, 150, 40, 153, 61, 153, 18, 150, 153, 61, 40, 151, 155, 151, 11, 146, 155, 146, 39, 151, 146, 155, 18, 148, 60, 148, 39, 145, 60, 145, 4, 148, 145, 60, 40, 155, 153, 155, 39, 148, 153, 148, 18, 155, 148, 153, 11, 157, 142, 157, 41, 161, 142, 161, 38, 157, 161, 142, 41, 156, 159, 156, 10, 124, 159, 124, 34, 156, 124, 159, 38, 144, 141, 144, 34, 123, 141, 123, 2, 144, 123, 141, 41, 159, 161, 159, 34, 144, 161, 144, 38, 159, 144, 161, 10, 132, 127, 132, 36, 136, 127, 136, 35, 132, 136, 127, 36, 131, 134, 131, 7, 77, 134, 77, 23, 131, 77, 134, 35, 129, 126, 129, 23, 76, 126, 76, 6, 129, 76, 126, 36, 134, 136, 134, 23, 129, 136, 129, 35, 134, 129, 136, 7, 73, 89, 73, 22, 91, 89, 91, 27, 73, 91, 89, 22, 72, 80, 72, 1, 78, 80, 78, 24, 72, 78, 80, 27, 93, 90, 93, 24, 79, 90, 79, 8, 93, 79, 90, 22, 80, 91, 80, 24, 93, 91, 93, 27, 80, 93, 91, 3, 99, 49, 99, 29, 101, 49, 101, 15, 99, 101, 49, 29, 100, 107, 100, 9, 104, 107, 104, 30, 100, 104, 107, 15, 105, 50, 105, 30, 103, 50, 103, 4, 105, 103, 50, 29, 107, 101, 107, 30, 105, 101, 105, 15, 107, 105, 101, 3, 49, 45, 49, 15, 51, 45, 51, 13, 49, 51, 45, 15, 50, 52, 50, 4, 47, 52, 47, 14, 50, 47, 52, 13, 48, 44, 48, 14, 46, 44, 46, 2, 48, 46, 44, 15, 52, 51, 52, 14, 48, 51, 48, 13, 52, 48, 51, 3, 45, 65, 45, 13, 67, 65, 67, 20, 45, 67, 65, 13, 44, 64, 44, 2, 62, 64, 62, 19, 44, 62, 64, 20, 68, 66, 68, 19, 63, 66, 63, 6, 68, 63, 66, 13, 64, 67, 64, 19, 68, 67, 68, 20, 64, 68, 67, 3, 65, 81, 65, 20, 83, 81, 83, 25, 65, 83, 81, 20, 66, 86, 66, 6, 84, 86, 84, 26, 66, 84, 86, 25, 88, 82, 88, 26, 85, 82, 85, 8, 88, 85, 82, 20, 86, 83, 86, 26, 88, 83, 88, 25, 86, 88, 83, 3, 81, 99, 81, 25, 102, 99, 102, 29, 81, 102, 99, 25, 82, 117, 82, 8, 114, 117, 114, 32, 82, 114, 117, 29, 119, 100, 119, 32, 115, 100, 115, 9, 119, 115, 100, 25, 117, 102, 117, 32, 119, 102, 119, 29, 117, 119, 102, 4, 103, 60, 103, 30, 106, 60, 106, 18, 103, 106, 60, 30, 104, 113, 104, 9, 109, 113, 109, 31, 104, 109, 113, 18, 111, 61, 111, 31, 108, 61, 108, 5, 111, 108, 61, 30, 113, 106, 113, 31, 111, 106, 111, 18, 113, 111, 106, 2, 46, 141, 46, 14, 143, 141, 143, 38, 46, 143, 141, 14, 47, 147, 47, 4, 145, 147, 145, 39, 47, 145, 147, 38, 149, 142, 149, 39, 146, 142, 146, 11, 149, 146, 142, 14, 147, 143, 147, 39, 149, 143, 149, 38, 147, 149, 143, 6, 63, 126, 63, 19, 128, 126, 128, 35, 63, 128, 126, 19, 62, 125, 62, 2, 123, 125, 123, 34, 62, 123, 125, 35, 130, 127, 130, 34, 124, 127, 124, 10, 130, 124, 127, 19, 125, 128, 125, 34, 130, 128, 130, 35, 125, 130, 128, 8, 85, 90, 85, 26, 94, 90, 94, 27, 85, 94, 90, 26, 84, 87, 84, 6, 76, 87, 76, 23, 84, 76, 87, 27, 92, 89, 92, 23, 77, 89, 77, 7, 92, 77, 89, 26, 87, 94, 87, 23, 92, 94, 92, 27, 87, 92, 94, 9, 115, 96, 115, 32, 118, 96, 118, 28, 115, 118, 96, 32, 114, 116, 114, 8, 79, 116, 79, 24, 114, 79, 116, 28, 98, 95, 98, 24, 78, 95, 78, 1, 98, 78, 95, 32, 116, 118, 116, 24, 98, 118, 98, 28, 116, 98, 118]
        rel material:binding = </BoulderCoral/Looks/Coral>
        uniform token physics:approximation = "convexHull"
        point3f[] points = [(0.006034893, 0.024953766, 0.024), (0.03863022, 0.024953766, 0.024), (0.006034893, -0.020981377, 0.024), (0.03863022, -0.020981377, 0.024), (0.022332557, -0.012208546, 0.04526627), (0.022332557, 0.016180934, 0.04526627), (0.022332557, -0.012208546, 0.0027337298), (0.022332557, 0.016180934, 0.0027337298), (0.04870273, 0.0019861946, 0.0108567225), (0.04870273, 0.0019861946, 0.03714328), (-0.0040376177, 0.0019861946, 0.0108567225), (-0.0040376177, 0.0019861946, 0.03714328), (0.022332557, 0.028986195, 0.024), (0.022332557, -0.025013804, 0.024), (0.01275303, -0.019857265, 0.0365), (0.031912085, -0.019857265, 0.0365), (0.01275303, 0.023829654, 0.0365), (0.031912085, 0.023829654, 0.0365), (0.022332557, 0.0019861946, 0.049), (0.01275303, -0.019857265, 0.0115), (0.031912085, -0.019857265, 0.0115), (0.01275303, 0.023829654, 0.0115), (0.031912085, 0.023829654, 0.0115), (0.022332557, 0.0019861946, -0.001), (0.047412083, 0.015486195, 0.016274575), (0.047412083, -0.011513805, 0.016274575), (0.03783256, -0.0063572642, 0.0037745752), (0.03783256, 0.0103296535, 0.0037745752), (0.047412083, 0.015486195, 0.031725425), (0.047412083, -0.011513805, 0.031725425), (0.03783256, -0.0063572642, 0.044225425), (0.03783256, 0.0103296535, 0.044225425), (0.053332556, 0.0019861946, 0.024), (-0.0027469695, 0.015486195, 0.016274575), (-0.0027469695, -0.011513805, 0.016274575), (0.0068325573, -0.0063572642, 0.0037745752), (0.0068325573, 0.0103296535, 0.0037745752), (-0.0027469695, 0.015486195, 0.031725425), (-0.0027469695, -0.011513805, 0.031725425), (0.0068325573, -0.0063572642, 0.044225425), (0.0068325573, 0.0103296535, 0.044225425), (-0.008667443, 0.0019861946, 0.024), (0.013861295, 0.027958531, 0.024), (0.03080382, 0.027958531, 0.024), (0.013861295, -0.02398614, 0.024), (0.03080382, -0.02398614, 0.024), (0.008882012, -0.021305854, 0.030497298), (0.017353274, -0.016745878, 0.04155116), (0.017296301, -0.023692332, 0.03057164), (0.035783105, -0.021305854, 0.030497298), (0.027311841, -0.016745878, 0.04155116), (0.027368812, -0.023692332, 0.03057164), (0.022332557, -0.020981377, 0.03714328), (0.008882012, 0.025278244, 0.030497298), (0.017353274, 0.020718267, 0.04155116), (0.017296301, 0.027664721, 0.03057164), (0.035783105, 0.025278244, 0.030497298), (0.027311841, 0.020718267, 0.04155116), (0.027368812, 0.027664721, 0.03057164), (0.022332557, 0.024953766, 0.03714328), (0.022332557, -0.0053920015, 0.04804846), (0.022332557, 0.009364391, 0.04804846), (0.008882012, -0.021305854, 0.017502703), (0.017353274, -0.016745878, 0.006448839), (0.017296301, -0.023692332, 0.01742836), (0.035783105, -0.021305854, 0.017502703), (0.027311841, -0.016745878, 0.006448839), (0.027368812, -0.023692332, 0.01742836), (0.022332557, -0.020981377, 0.0108567225), (0.008882012, 0.025278244, 0.017502703), (0.017353274, 0.020718267, 0.006448839), (0.017296301, 0.027664721, 0.01742836), (0.035783105, 0.025278244, 0.017502703), (0.027311841, 0.020718267, 0.006448839), (0.027368812, 0.027664721, 0.01742836), (0.022332557, 0.024953766, 0.0108567225), (0.022332557, -0.0053920015, -0.000048458944), (0.022332557, 0.009364391, -0.000048458944), (0.043839753, 0.02094145, 0.019984448), (0.04907528, 0.009003276, 0.013152786), (0.0405539, 0.02056735, 0.013366865), (0.043839753, -0.016969059, 0.019984448), (0.04907528, -0.005030887, 0.013152786), (0.0405539, -0.016594961, 0.013366865), (0.030389206, -0.009728797, 0.002433288), (0.044095997, -0.0023506002, 0.006655488), (0.035517644, -0.013884007, 0.006795226), (0.030481389, -0.0024002213, 0.00022358709), (0.04366648, -0.009497591, 0.009305369), (0.030389206, 0.013701186, 0.002433288), (0.044095997, 0.0063229897, 0.006655488), (0.035517644, 0.017856397, 0.006795226), (0.030481389, 0.0063726106, 0.00022358709), (0.04366648, 0.01346998, 0.009305369), (0.03863022, 0.0019861946, 0.0027337298), (0.043839753, 0.02094145, 0.02801555), (0.04907528, 0.009003276, 0.034847215), (0.0405539, 0.02056735, 0.034633134), (0.04870273, 0.016180934, 0.024), (0.043839753, -0.016969059, 0.02801555), (0.04907528, -0.005030887, 0.034847215), (0.0405539, -0.016594961, 0.034633134), (0.04870273, -0.012208546, 0.024), (0.030389206, -0.009728797, 0.04556671), (0.044095997, -0.0023506002, 0.041344512), (0.035517644, -0.013884007, 0.041204773), (0.030481389, -0.0024002213, 0.047776412), (0.04366648, -0.009497591, 0.03869463), (0.030389206, 0.013701186, 0.04556671), (0.044095997, 0.0063229897, 0.041344512), (0.035517644, 0.017856397, 0.041204773), (0.030481389, 0.0063726106, 0.047776412), (0.04366648, 0.01346998, 0.03869463), (0.03863022, 0.0019861946, 0.04526627), (0.052152645, 0.0019861946, 0.017168337), (0.052152645, 0.0019861946, 0.030831663), (0.05181531, 0.009083564, 0.019938504), (0.05181531, -0.0051111756, 0.019938504), (0.05181531, 0.009083564, 0.028061496), (0.05181531, -0.0051111756, 0.028061496), (0.0008253625, 0.02094145, 0.019984448), (-0.0044101654, 0.009003276, 0.013152786), (0.0041112145, 0.02056735, 0.013366865), (0.0008253625, -0.016969059, 0.019984448), (-0.0044101654, -0.005030887, 0.013152786), (0.0041112145, -0.016594961, 0.013366865), (0.0142759085, -0.009728797, 0.002433288), (0.00056911755, -0.0023506002, 0.006655488), (0.00914747, -0.013884007, 0.006795226), (0.014183725, -0.0024002213, 0.00022358709), (0.0009986375, -0.009497591, 0.009305369), (0.0142759085, 0.013701186, 0.002433288), (0.00056911755, 0.0063229897, 0.006655488), (0.00914747, 0.017856397, 0.006795226), (0.014183725, 0.0063726106, 0.00022358709), (0.0009986375, 0.01346998, 0.009305369), (0.006034893, 0.0019861946, 0.0027337298), (0.0008253625, 0.02094145, 0.02801555), (-0.0044101654, 0.009003276, 0.034847215), (0.0041112145, 0.02056735, 0.034633134), (-0.0040376177, 0.016180934, 0.024), (0.0008253625, -0.016969059, 0.02801555), (-0.0044101654, -0.005030887, 0.034847215), (0.0041112145, -0.016594961, 0.034633134), (-0.0040376177, -0.012208546, 0.024), (0.0142759085, -0.009728797, 0.04556671), (0.00056911755, -0.0023506002, 0.041344512), (0.00914747, -0.013884007, 0.041204773), (0.014183725, -0.0024002213, 0.047776412), (0.0009986375, -0.009497591, 0.03869463), (0.0142759085, 0.013701186, 0.04556671), (0.00056911755, 0.0063229897, 0.041344512), (0.00914747, 0.017856397, 0.041204773), (0.014183725, 0.0063726106, 0.047776412), (0.0009986375, 0.01346998, 0.03869463), (0.006034893, 0.0019861946, 0.04526627), (-0.0074875318, 0.0019861946, 0.017168337), (-0.0074875318, 0.0019861946, 0.030831663), (-0.0071501946, 0.009083564, 0.019938504), (-0.0071501946, -0.0051111756, 0.019938504), (-0.0071501946, 0.009083564, 0.028061496), (-0.0071501946, -0.0051111756, 0.028061496)]
        uniform token subdivisionScheme = "none"
    }

    def Mesh "Part1" (
        prepend apiSchemas = ["MaterialBindingAPI", "PhysicsCollisionAPI", "PhysicsMeshCollisionAPI"]
    )
    {
        int[] faceVertexCounts = [3, 3, 3, 3, 3, 3, 3, 3, 3, 3, 3, 3, 3, 3, 3, 3, 3, 3, 3, 3, 3, 3, 3, 3, 3, 3, 3, 3, 3, 3, 3, 3, 3, 3, 3, 3, 3, 3, 3, 3, 3, 3, 3, 3, 3, 3, 3, 3, 3, 3, 3, 3, 3, 3, 3, 3, 3, 3, 3, 3, 3, 3, 3, 3, 3, 3, 3, 3, 3, 3, 3, 3, 3, 3, 3, 3, 3, 3, 3, 3, 3, 3, 3, 3, 3, 3, 3, 3, 3, 3, 3, 3, 3, 3, 3, 3, 3, 3, 3, 3, 3, 3, 3, 3, 3, 3, 3, 3, 3, 3, 3, 3, 3, 3, 3, 3, 3, 3, 3, 3, 3, 3, 3, 3, 3, 3, 3, 3, 3, 3, 3, 3, 3, 3, 3, 3, 3, 3, 3, 3, 3, 3, 3, 3, 3, 3, 3, 3, 3, 3, 3, 3, 3, 3, 3, 3, 3, 3, 3, 3, 3, 3, 3, 3, 3, 3, 3, 3, 3, 3, 3, 3, 3, 3, 3, 3, 3, 3, 3, 3, 3, 3, 3, 3, 3, 3, 3, 3, 3, 3, 3, 3, 3, 3, 3, 3, 3, 3, 3, 3, 3, 3, 3, 3, 3, 3, 3, 3, 3, 3, 3, 3, 3, 3, 3, 3, 3, 3, 3, 3, 3, 3, 3, 3, 3, 3, 3, 3, 3, 3, 3, 3, 3, 3, 3, 3, 3, 3, 3, 3, 3, 3, 3, 3, 3, 3, 3, 3, 3, 3, 3, 3, 3, 3, 3, 3, 3, 3, 3, 3, 3, 3, 3, 3, 3, 3, 3, 3, 3, 3, 3, 3, 3, 3, 3, 3, 3, 3, 3, 3, 3, 3, 3, 3, 3, 3, 3, 3, 3, 3, 3, 3, 3, 3, 3, 3, 3, 3, 3, 3, 3, 3, 3, 3, 3, 3, 3, 3, 3, 3, 3, 3, 3, 3, 3, 3, 3, 3, 3, 3]
        int[] faceVertexIndices = [0, 137, 53, 137, 37, 139, 53, 139, 16, 137, 139, 53, 37, 138, 154, 138, 11, 151, 154, 151, 40, 138, 151, 154, 16, 152, 54, 152, 40, 150, 54, 150, 5, 152, 150, 54, 37, 154, 139, 154, 40, 152, 139, 152, 16, 154, 152, 139, 0, 53, 42, 53, 16, 55, 42, 55, 12, 53, 55, 42, 16, 54, 59, 54, 5, 57, 59, 57, 17, 54, 57, 59, 12, 58, 43, 58, 17, 56, 43, 56, 1, 58, 56, 43, 16, 59, 55, 59, 17, 58, 55, 58, 12, 59, 58, 55, 0, 42, 69, 42, 12, 71, 69, 71, 21, 42, 71, 69, 12, 43, 74, 43, 1, 72, 74, 72, 22, 43, 72, 74, 21, 75, 70, 75, 22, 73, 70, 73, 7, 75, 73, 70, 12, 74, 71, 74, 22, 75, 71, 75, 21, 74, 75, 71, 0, 69, 120, 69, 21, 122, 120, 122, 33, 69, 122, 120, 21, 70, 133, 70, 7, 131, 133, 131, 36, 70, 131, 133, 33, 135, 121, 135, 36, 132, 121, 132, 10, 135, 132, 121, 21, 133, 122, 133, 36, 135, 122, 135, 33, 133, 135, 122, 0, 120, 137, 120, 33, 140, 137, 140, 37, 120, 140, 137, 33, 121, 158, 121, 10, 156, 158, 156, 41, 121, 156, 158, 37, 160, 138, 160, 41, 157, 138, 157, 11, 160, 157, 138, 33, 158, 140, 158, 41, 160, 140, 160, 37, 158, 160, 140, 1, 56, 95, 56, 17, 97, 95, 97, 28, 56, 97, 95, 17, 57, 110, 57, 5, 108, 110, 108, 31, 57, 108, 110, 28, 112, 96, 112, 31, 109, 96, 109, 9, 112, 109, 96, 17, 110, 97, 110, 31, 112, 97, 112, 28, 110, 112, 97, 5, 150, 61, 150, 40, 153, 61, 153, 18, 150, 153, 61, 40, 151, 155, 151, 11, 146, 155, 146, 39, 151, 146, 155, 18, 148, 60, 148, 39, 145, 60, 145, 4, 148, 145, 60, 40, 155, 153, 155, 39, 148, 153, 148, 18, 155, 148, 153, 11, 157, 142, 157, 41, 161, 142, 161, 38, 157, 161, 142, 41, 156, 159, 156, 10, 124, 159, 124, 34, 156, 124, 159, 38, 144, 141, 144, 34, 123, 141, 123, 2, 144, 123, 141, 41, 159, 161, 159, 34, 144, 161, 144, 38, 159, 144, 161, 10, 132, 127, 132, 36, 136, 127, 136, 35, 132, 136, 127, 36, 131, 134, 131, 7, 77, 134, 77, 23, 131, 77, 134, 35, 129, 126, 129, 23, 76, 126, 76, 6, 129, 76, 126, 36, 134, 136, 134, 23, 129, 136, 129, 35, 134, 129, 136, 7, 73, 89, 73, 22, 91, 89, 91, 27, 73, 91, 89, 22, 72, 80, 72, 1, 78, 80, 78, 24, 72, 78, 80, 27, 93, 90, 93, 24, 79, 90, 79, 8, 93, 79, 90, 22, 80, 91, 80, 24, 93, 91, 93, 27, 80, 93, 91, 3, 99, 49, 99, 29, 101, 49, 101, 15, 99, 101, 49, 29, 100, 107, 100, 9, 104, 107, 104, 30, 100, 104, 107, 15, 105, 50, 105, 30, 103, 50, 103, 4, 105, 103, 50, 29, 107, 101, 107, 30, 105, 101, 105, 15, 107, 105, 101, 3, 49, 45, 49, 15, 51, 45, 51, 13, 49, 51, 45, 15, 50, 52, 50, 4, 47, 52, 47, 14, 50, 47, 52, 13, 48, 44, 48, 14, 46, 44, 46, 2, 48, 46, 44, 15, 52, 51, 52, 14, 48, 51, 48, 13, 52, 48, 51, 3, 45, 65, 45, 13, 67, 65, 67, 20, 45, 67, 65, 13, 44, 64, 44, 2, 62, 64, 62, 19, 44, 62, 64, 20, 68, 66, 68, 19, 63, 66, 63, 6, 68, 63, 66, 13, 64, 67, 64, 19, 68, 67, 68, 20, 64, 68, 67, 3, 65, 81, 65, 20, 83, 81, 83, 25, 65, 83, 81, 20, 66, 86, 66, 6, 84, 86, 84, 26, 66, 84, 86, 25, 88, 82, 88, 26, 85, 82, 85, 8, 88, 85, 82, 20, 86, 83, 86, 26, 88, 83, 88, 25, 86, 88, 83, 3, 81, 99, 81, 25, 102, 99, 102, 29, 81, 102, 99, 25, 82, 117, 82, 8, 114, 117, 114, 32, 82, 114, 117, 29, 119, 100, 119, 32, 115, 100, 115, 9, 119, 115, 100, 25, 117, 102, 117, 32, 119, 102, 119, 29, 117, 119, 102, 4, 103, 60, 103, 30, 106, 60, 106, 18, 103, 106, 60, 30, 104, 113, 104, 9, 109, 113, 109, 31, 104, 109, 113, 18, 111, 61, 111, 31, 108, 61, 108, 5, 111, 108, 61, 30, 113, 106, 113, 31, 111, 106, 111, 18, 113, 111, 106, 2, 46, 141, 46, 14, 143, 141, 143, 38, 46, 143, 141, 14, 47, 147, 47, 4, 145, 147, 145, 39, 47, 145, 147, 38, 149, 142, 149, 39, 146, 142, 146, 11, 149, 146, 142, 14, 147, 143, 147, 39, 149, 143, 149, 38, 147, 149, 143, 6, 63, 126, 63, 19, 128, 126, 128, 35, 63, 128, 126, 19, 62, 125, 62, 2, 123, 125, 123, 34, 62, 123, 125, 35, 130, 127, 130, 34, 124, 127, 124, 10, 130, 124, 127, 19, 125, 128, 125, 34, 130, 128, 130, 35, 125, 130, 128, 8, 85, 90, 85, 26, 94, 90, 94, 27, 85, 94, 90, 26, 84, 87, 84, 6, 76, 87, 76, 23, 84, 76, 87, 27, 92, 89, 92, 23, 77, 89, 77, 7, 92, 77, 89, 26, 87, 94, 87, 23, 92, 94, 92, 27, 87, 92, 94, 9, 115, 96, 115, 32, 118, 96, 118, 28, 115, 118, 96, 32, 114, 116, 114, 8, 79, 116, 79, 24, 114, 79, 116, 28, 98, 95, 98, 24, 78, 95, 78, 1, 98, 78, 95, 32, 116, 118, 116, 24, 98, 118, 98, 28, 116, 98, 118]
        rel material:binding = </BoulderCoral/Looks/Coral>
        uniform token physics:approximation = "convexHull"
        point3f[] points = [(-0.01816725, 0.01996829, 0.024), (0.014428078, 0.01996829, 0.024), (-0.01816725, -0.025966853, 0.024), (0.014428078, -0.025966853, 0.024), (-0.0018695858, -0.017194021, 0.04526627), (-0.0018695858, 0.0111954585, 0.04526627), (-0.0018695858, -0.017194021, 0.0027337298), (-0.0018695858, 0.0111954585, 0.0027337298), (0.02450059, -0.0029992817, 0.0108567225), (0.02450059, -0.0029992817, 0.03714328), (-0.02823976, -0.0029992817, 0.0108567225), (-0.02823976, -0.0029992817, 0.03714328), (-0.0018695858, 0.02400072, 0.024), (-0.0018695858, -0.029999282, 0.024), (-0.011449113, -0.024842741, 0.0365), (0.007709941, -0.024842741, 0.0365), (-0.011449113, 0.018844178, 0.0365), (0.007709941, 0.018844178, 0.0365), (-0.0018695858, -0.0029992817, 0.049), (-0.011449113, -0.024842741, 0.0115), (0.007709941, -0.024842741, 0.0115), (-0.011449113, 0.018844178, 0.0115), (0.007709941, 0.018844178, 0.0115), (-0.0018695858, -0.0029992817, -0.001), (0.02320994, 0.010500718, 0.016274575), (0.02320994, -0.01649928, 0.016274575), (0.013630414, -0.011342741, 0.0037745752), (0.013630414, 0.005344177, 0.0037745752), (0.02320994, 0.010500718, 0.031725425), (0.02320994, -0.01649928, 0.031725425), (0.013630414, -0.011342741, 0.044225425), (0.013630414, 0.005344177, 0.044225425), (0.029130414, -0.0029992817, 0.024), (-0.026949113, 0.010500718, 0.016274575), (-0.026949113, -0.01649928, 0.016274575), (-0.017369585, -0.011342741, 0.0037745752), (-0.017369585, 0.005344177, 0.0037745752), (-0.026949113, 0.010500718, 0.031725425), (-0.026949113, -0.01649928, 0.031725425), (-0.017369585, -0.011342741, 0.044225425), (-0.017369585, 0.005344177, 0.044225425), (-0.032869585, -0.0029992817, 0.024), (-0.010340848, 0.022973053, 0.024), (0.0066016763, 0.022973053, 0.024), (-0.010340848, -0.028971618, 0.024), (0.0066016763, -0.028971618, 0.024), (-0.015320132, -0.026291331, 0.030497298), (-0.006848869, -0.021731354, 0.04155116), (-0.006905841, -0.028677808, 0.03057164), (0.01158096, -0.026291331, 0.030497298), (0.0031096973, -0.021731354, 0.04155116), (0.0031666695, -0.028677808, 0.03057164), (-0.0018695858, -0.025966853, 0.03714328), (-0.015320132, 0.020292766, 0.030497298), (-0.006848869, 0.015732791, 0.04155116), (-0.006905841, 0.022679245, 0.03057164), (0.01158096, 0.020292766, 0.030497298), (0.0031096973, 0.015732791, 0.04155116), (0.0031666695, 0.022679245, 0.03057164), (-0.0018695858, 0.01996829, 0.03714328), (-0.0018695858, -0.010377478, 0.04804846), (-0.0018695858, 0.004378915, 0.04804846), (-0.015320132, -0.026291331, 0.017502703), (-0.006848869, -0.021731354, 0.006448839), (-0.006905841, -0.028677808, 0.01742836), (0.01158096, -0.026291331, 0.017502703), (0.0031096973, -0.021731354, 0.006448839), (0.0031666695, -0.028677808, 0.01742836), (-0.0018695858, -0.025966853, 0.0108567225), (-0.015320132, 0.020292766, 0.017502703), (-0.006848869, 0.015732791, 0.006448839), (-0.006905841, 0.022679245, 0.01742836), (0.01158096, 0.020292766, 0.017502703), (0.0031096973, 0.015732791, 0.006448839), (0.0031666695, 0.022679245, 0.01742836), (-0.0018695858, 0.01996829, 0.0108567225), (-0.0018695858, -0.010377478, -0.000048458944), (-0.0018695858, 0.004378915, -0.000048458944), (0.019637609, 0.015955972, 0.019984448), (0.024873137, 0.0040178, 0.013152786), (0.016351758, 0.015581874, 0.013366865), (0.019637609, -0.021954536, 0.019984448), (0.024873137, -0.010016363, 0.013152786), (0.016351758, -0.021580437, 0.013366865), (0.0061870636, -0.014714273, 0.002433288), (0.019893853, -0.007336077, 0.006655488), (0.011315501, -0.018869484, 0.006795226), (0.0062792464, -0.0073856977, 0.00022358709), (0.019464334, -0.014483067, 0.009305369), (0.0061870636, 0.00871571, 0.002433288), (0.019893853, 0.0013375133, 0.006655488), (0.011315501, 0.01287092, 0.006795226), (0.0062792464, 0.0013871342, 0.00022358709), (0.019464334, 0.008484504, 0.009305369), (0.014428078, -0.0029992817, 0.0027337298), (0.019637609, 0.015955972, 0.02801555), (0.024873137, 0.0040178, 0.034847215), (0.016351758, 0.015581874, 0.034633134), (0.02450059, 0.0111954585, 0.024), (0.019637609, -0.021954536, 0.02801555), (0.024873137, -0.010016363, 0.034847215), (0.016351758, -0.021580437, 0.034633134), (0.02450059, -0.017194021, 0.024), (0.0061870636, -0.014714273, 0.04556671), (0.019893853, -0.007336077, 0.041344512), (0.011315501, -0.018869484, 0.041204773), (0.0062792464, -0.0073856977, 0.047776412), (0.019464334, -0.014483067, 0.03869463), (0.0061870636, 0.00871571, 0.04556671), (0.019893853, 0.0013375133, 0.041344512), (0.011315501, 0.01287092, 0.041204773), (0.0062792464, 0.0013871342, 0.047776412), (0.019464334, 0.008484504, 0.03869463), (0.014428078, -0.0029992817, 0.04526627), (0.027950503, -0.0029992817, 0.017168337), (0.027950503, -0.0029992817, 0.030831663), (0.027613167, 0.0040980885, 0.019938504), (0.027613167, -0.0100966515, 0.019938504), (0.027613167, 0.0040980885, 0.028061496), (0.027613167, -0.0100966515, 0.028061496), (-0.023376781, 0.015955972, 0.019984448), (-0.028612308, 0.0040178, 0.013152786), (-0.020090928, 0.015581874, 0.013366865), (-0.023376781, -0.021954536, 0.019984448), (-0.028612308, -0.010016363, 0.013152786), (-0.020090928, -0.021580437, 0.013366865), (-0.009926235, -0.014714273, 0.002433288), (-0.023633026, -0.007336077, 0.006655488), (-0.015054673, -0.018869484, 0.006795226), (-0.010018419, -0.0073856977, 0.00022358709), (-0.023203505, -0.014483067, 0.009305369), (-0.009926235, 0.00871571, 0.002433288), (-0.023633026, 0.0013375133, 0.006655488), (-0.015054673, 0.01287092, 0.006795226), (-0.010018419, 0.0013871342, 0.00022358709), (-0.023203505, 0.008484504, 0.009305369), (-0.01816725, -0.0029992817, 0.0027337298), (-0.023376781, 0.015955972, 0.02801555), (-0.028612308, 0.0040178, 0.034847215), (-0.020090928, 0.015581874, 0.034633134), (-0.02823976, 0.0111954585, 0.024), (-0.023376781, -0.021954536, 0.02801555), (-0.028612308, -0.010016363, 0.034847215), (-0.020090928, -0.021580437, 0.034633134), (-0.02823976, -0.017194021, 0.024), (-0.009926235, -0.014714273, 0.04556671), (-0.023633026, -0.007336077, 0.041344512), (-0.015054673, -0.018869484, 0.041204773), (-0.010018419, -0.0073856977, 0.047776412), (-0.023203505, -0.014483067, 0.03869463), (-0.009926235, 0.00871571, 0.04556671), (-0.023633026, 0.0013375133, 0.041344512), (-0.015054673, 0.01287092, 0.041204773), (-0.010018419, 0.0013871342, 0.047776412), (-0.023203505, 0.008484504, 0.03869463), (-0.01816725, -0.0029992817, 0.04526627), (-0.031689674, -0.0029992817, 0.017168337), (-0.031689674, -0.0029992817, 0.030831663), (-0.031352337, 0.0040980885, 0.019938504), (-0.031352337, -0.0100966515, 0.019938504), (-0.031352337, 0.0040980885, 0.028061496), (-0.031352337, -0.0100966515, 0.028061496)]
        uniform token subdivisionScheme = "none"
    }

    def Mesh "Part2" (
        prepend apiSchemas = ["MaterialBindingAPI", "PhysicsCollisionAPI", "PhysicsMeshCollisionAPI"]
    )
    {
        int[] faceVertexCounts = [3, 3, 3, 3, 3, 3, 3, 3, 3, 3, 3, 3, 3, 3, 3, 3, 3, 3, 3, 3, 3, 3, 3, 3, 3, 3, 3, 3, 3, 3, 3, 3, 3, 3, 3, 3, 3, 3, 3, 3, 3, 3, 3, 3, 3, 3, 3, 3, 3, 3, 3, 3, 3, 3, 3, 3, 3, 3, 3, 3, 3, 3, 3, 3, 3, 3, 3, 3, 3, 3, 3, 3, 3, 3, 3, 3, 3, 3, 3, 3, 3, 3, 3, 3, 3, 3, 3, 3, 3, 3, 3, 3, 3, 3, 3, 3, 3, 3, 3, 3, 3, 3, 3, 3, 3, 3, 3, 3, 3, 3, 3, 3, 3, 3, 3, 3, 3, 3, 3, 3, 3, 3, 3, 3, 3, 3, 3, 3, 3, 3, 3, 3, 3, 3, 3, 3, 3, 3, 3, 3, 3, 3, 3, 3, 3, 3, 3, 3, 3, 3, 3, 3, 3, 3, 3, 3, 3, 3, 3, 3, 3, 3, 3, 3, 3, 3, 3, 3, 3, 3, 3, 3, 3, 3, 3, 3, 3, 3, 3, 3, 3, 3, 3, 3, 3, 3, 3, 3, 3, 3, 3, 3, 3, 3, 3, 3, 3, 3, 3, 3, 3, 3, 3, 3, 3, 3, 3, 3, 3, 3, 3, 3, 3, 3, 3, 3, 3, 3, 3, 3, 3, 3, 3, 3, 3, 3, 3, 3, 3, 3, 3, 3, 3, 3, 3, 3, 3, 3, 3, 3, 3, 3, 3, 3, 3, 3, 3, 3, 3, 3, 3, 3, 3, 3, 3, 3, 3, 3, 3, 3, 3, 3, 3, 3, 3, 3, 3, 3, 3, 3, 3, 3, 3, 3, 3, 3, 3, 3, 3, 3, 3, 3, 3, 3, 3, 3, 3, 3, 3, 3, 3, 3, 3, 3, 3, 3, 3, 3, 3, 3, 3, 3, 3, 3, 3, 3, 3, 3, 3, 3, 3, 3, 3, 3, 3, 3, 3, 3, 3, 3]
        int[] faceVertexIndices = [0, 137, 53, 137, 37, 139, 53, 139, 16, 137, 139, 53, 37, 138, 154, 138, 11, 151, 154, 151, 40, 138, 151, 154, 16, 152, 54, 152, 40, 150, 54, 150, 5, 152, 150, 54, 37, 154, 139, 154, 40, 152, 139, 152, 16, 154, 152, 139, 0, 53, 42, 53, 16, 55, 42, 55, 12, 53, 55, 42, 16, 54, 59, 54, 5, 57, 59, 57, 17, 54, 57, 59, 12, 58, 43, 58, 17, 56, 43, 56, 1, 58, 56, 43, 16, 59, 55, 59, 17, 58, 55, 58, 12, 59, 58, 55, 0, 42, 69, 42, 12, 71, 69, 71, 21, 42, 71, 69, 12, 43, 74, 43, 1, 72, 74, 72, 22, 43, 72, 74, 21, 75, 70, 75, 22, 73, 70, 73, 7, 75, 73, 70, 12, 74, 71, 74, 22, 75, 71, 75, 21, 74, 75, 71, 0, 69, 120, 69, 21, 122, 120, 122, 33, 69, 122, 120, 21, 70, 133, 70, 7, 131, 133, 131, 36, 70, 131, 133, 33, 135, 121, 135, 36, 132, 121, 132, 10, 135, 132, 121, 21, 133, 122, 133, 36, 135, 122, 135, 33, 133, 135, 122, 0, 120, 137, 120, 33, 140, 137, 140, 37, 120, 140, 137, 33, 121, 158, 121, 10, 156, 158, 156, 41, 121, 156, 158, 37, 160, 138, 160, 41, 157, 138, 157, 11, 160, 157, 138, 33, 158, 140, 158, 41, 160, 140, 160, 37, 158, 160, 140, 1, 56, 95, 56, 17, 97, 95, 97, 28, 56, 97, 95, 17, 57, 110, 57, 5, 108, 110, 108, 31, 57, 108, 110, 28, 112, 96, 112, 31, 109, 96, 109, 9, 112, 109, 96, 17, 110, 97, 110, 31, 112, 97, 112, 28, 110, 112, 97, 5, 150, 61, 150, 40, 153, 61, 153, 18, 150, 153, 61, 40, 151, 155, 151, 11, 146, 155, 146, 39, 151, 146, 155, 18, 148, 60, 148, 39, 145, 60, 145, 4, 148, 145, 60, 40, 155, 153, 155, 39, 148, 153, 148, 18, 155, 148, 153, 11, 157, 142, 157, 41, 161, 142, 161, 38, 157, 161, 142, 41, 156, 159, 156, 10, 124, 159, 124, 34, 156, 124, 159, 38, 144, 141, 144, 34, 123, 141, 123, 2, 144, 123, 141, 41, 159, 161, 159, 34, 144, 161, 144, 38, 159, 144, 161, 10, 132, 127, 132, 36, 136, 127, 136, 35, 132, 136, 127, 36, 131, 134, 131, 7, 77, 134, 77, 23, 131, 77, 134, 35, 129, 126, 129, 23, 76, 126, 76, 6, 129, 76, 126, 36, 134, 136, 134, 23, 129, 136, 129, 35, 134, 129, 136, 7, 73, 89, 73, 22, 91, 89, 91, 27, 73, 91, 89, 22, 72, 80, 72, 1, 78, 80, 78, 24, 72, 78, 80, 27, 93, 90, 93, 24, 79, 90, 79, 8, 93, 79, 90, 22, 80, 91, 80, 24, 93, 91, 93, 27, 80, 93, 91, 3, 99, 49, 99, 29, 101, 49, 101, 15, 99, 101, 49, 29, 100, 107, 100, 9, 104, 107, 104, 30, 100, 104, 107, 15, 105, 50, 105, 30, 103, 50, 103, 4, 105, 103, 50, 29, 107, 101, 107, 30, 105, 101, 105, 15, 107, 105, 101, 3, 49, 45, 49, 15, 51, 45, 51, 13, 49, 51, 45, 15, 50, 52, 50, 4, 47, 52, 47, 14, 50, 47, 52, 13, 48, 44, 48, 14, 46, 44, 46, 2, 48, 46, 44, 15, 52, 51, 52, 14, 48, 51, 48, 13, 52, 48, 51, 3, 45, 65, 45, 13, 67, 65, 67, 20, 45, 67, 65, 13, 44, 64, 44, 2, 62, 64, 62, 19, 44, 62, 64, 20, 68, 66, 68, 19, 63, 66, 63, 6, 68, 63, 66, 13, 64, 67, 64, 19, 68, 67, 68, 20, 64, 68, 67, 3, 65, 81, 65, 20, 83, 81, 83, 25, 65, 83, 81, 20, 66, 86, 66, 6, 84, 86, 84, 26, 66, 84, 86, 25, 88, 82, 88, 26, 85, 82, 85, 8, 88, 85, 82, 20, 86, 83, 86, 26, 88, 83, 88, 25, 86, 88, 83, 3, 81, 99, 81, 25, 102, 99, 102, 29, 81, 102, 99, 25, 82, 117, 82, 8, 114, 117, 114, 32, 82, 114, 117, 29, 119, 100, 119, 32, 115, 100, 115, 9, 119, 115, 100, 25, 117, 102, 117, 32, 119, 102, 119, 29, 117, 119, 102, 4, 103, 60, 103, 30, 106, 60, 106, 18, 103, 106, 60, 30, 104, 113, 104, 9, 109, 113, 109, 31, 104, 109, 113, 18, 111, 61, 111, 31, 108, 61, 108, 5, 111, 108, 61, 30, 113, 106, 113, 31, 111, 106, 111, 18, 113, 111, 106, 2, 46, 141, 46, 14, 143, 141, 143, 38, 46, 143, 141, 14, 47, 147, 47, 4, 145, 147, 145, 39, 47, 145, 147, 38, 149, 142, 149, 39, 146, 142, 146, 11, 149, 146, 142, 14, 147, 143, 147, 39, 149, 143, 149, 38, 147, 149, 143, 6, 63, 126, 63, 19, 128, 126, 128, 35, 63, 128, 126, 19, 62, 125, 62, 2, 123, 125, 123, 34, 62, 123, 125, 35, 130, 127, 130, 34, 124, 127, 124, 10, 130, 124, 127, 19, 125, 128, 125, 34, 130, 128, 130, 35, 125, 130, 128, 8, 85, 90, 85, 26, 94, 90, 94, 27, 85, 94, 90, 26, 84, 87, 84, 6, 76, 87, 76, 23, 84, 76, 87, 27, 92, 89, 92, 23, 77, 89, 77, 7, 92, 77, 89, 26, 87, 94, 87, 23, 92, 94, 92, 27, 87, 92, 94, 9, 115, 96, 115, 32, 118, 96, 118, 28, 115, 118, 96, 32, 114, 116, 114, 8, 79, 116, 79, 24, 114, 79, 116, 28, 98, 95, 98, 24, 78, 95, 78, 1, 98, 78, 95, 32, 116, 118, 116, 24, 98, 118, 98, 28, 116, 98, 118]
        rel material:binding = </BoulderCoral/Looks/Coral>
        uniform token physics:approximation = "convexHull"
        point3f[] points = [(-0.008792286, 0.0025783272, 0.024), (0.023803042, 0.0025783272, 0.024), (-0.008792286, -0.043356817, 0.024), (0.023803042, -0.043356817, 0.024), (0.0075053787, -0.034583986, 0.04526627), (0.0075053787, -0.0061945044, 0.04526627), (0.0075053787, -0.034583986, 0.0027337298), (0.0075053787, -0.0061945044, 0.0027337298), (0.033875555, -0.020389244, 0.0108567225), (0.033875555, -0.020389244, 0.03714328), (-0.018864797, -0.020389244, 0.0108567225), (-0.018864797, -0.020389244, 0.03714328), (0.0075053787, 0.0066107553, 0.024), (0.0075053787, -0.047389243, 0.024), (-0.0020741483, -0.042232703, 0.0365), (0.017084906, -0.042232703, 0.0365), (-0.0020741483, 0.0014542143, 0.0365), (0.017084906, 0.0014542143, 0.0365), (0.0075053787, -0.020389244, 0.049), (-0.0020741483, -0.042232703, 0.0115), (0.017084906, -0.042232703, 0.0115), (-0.0020741483, 0.0014542143, 0.0115), (0.017084906, 0.0014542143, 0.0115), (0.0075053787, -0.020389244, -0.001), (0.032584906, -0.0068892445, 0.016274575), (0.032584906, -0.033889245, 0.016274575), (0.02300538, -0.028732704, 0.0037745752), (0.02300538, -0.012045786, 0.0037745752), (0.032584906, -0.0068892445, 0.031725425), (0.032584906, -0.033889245, 0.031725425), (0.02300538, -0.028732704, 0.044225425), (0.02300538, -0.012045786, 0.044225425), (0.03850538, -0.020389244, 0.024), (-0.017574148, -0.0068892445, 0.016274575), (-0.017574148, -0.033889245, 0.016274575), (-0.007994622, -0.028732704, 0.0037745752), (-0.007994622, -0.012045786, 0.0037745752), (-0.017574148, -0.0068892445, 0.031725425), (-0.017574148, -0.033889245, 0.031725425), (-0.007994622, -0.028732704, 0.044225425), (-0.007994622, -0.012045786, 0.044225425), (-0.023494622, -0.020389244, 0.024), (-0.00096588396, 0.005583091, 0.024), (0.015976641, 0.005583091, 0.024), (-0.00096588396, -0.04636158, 0.024), (0.015976641, -0.04636158, 0.024), (-0.005945167, -0.043681294, 0.030497298), (0.0025260954, -0.03912132, 0.04155116), (0.002469123, -0.04606777, 0.03057164), (0.020955924, -0.043681294, 0.030497298), (0.012484661, -0.03912132, 0.04155116), (0.012541634, -0.04606777, 0.03057164), (0.0075053787, -0.043356817, 0.03714328), (-0.005945167, 0.0029028044, 0.030497298), (0.0025260954, -0.0016571716, 0.04155116), (0.002469123, 0.0052892813, 0.03057164), (0.020955924, 0.0029028044, 0.030497298), (0.012484661, -0.0016571716, 0.04155116), (0.012541634, 0.0052892813, 0.03057164), (0.0075053787, 0.0025783272, 0.03714328), (0.0075053787, -0.02776744, 0.04804846), (0.0075053787, -0.013011049, 0.04804846), (-0.005945167, -0.043681294, 0.017502703), (0.0025260954, -0.03912132, 0.006448839), (0.002469123, -0.04606777, 0.01742836), (0.020955924, -0.043681294, 0.017502703), (0.012484661, -0.03912132, 0.006448839), (0.012541634, -0.04606777, 0.01742836), (0.0075053787, -0.043356817, 0.0108567225), (-0.005945167, 0.0029028044, 0.017502703), (0.0025260954, -0.0016571716, 0.006448839), (0.002469123, 0.0052892813, 0.01742836), (0.020955924, 0.0029028044, 0.017502703), (0.012484661, -0.0016571716, 0.006448839), (0.012541634, 0.0052892813, 0.01742836), (0.0075053787, 0.0025783272, 0.0108567225), (0.0075053787, -0.02776744, -0.000048458944), (0.0075053787, -0.013011049, -0.000048458944), (0.029012574, -0.0014339905, 0.019984448), (0.034248102, -0.013372163, 0.013152786), (0.02572672, -0.0018080886, 0.013366865), (0.029012574, -0.039344497, 0.019984448), (0.034248102, -0.027406326, 0.013152786), (0.02572672, -0.0389704, 0.013366865), (0.015562028, -0.032104235, 0.002433288), (0.029268818, -0.024726039, 0.006655488), (0.020690465, -0.036259446, 0.006795226), (0.01565421, -0.02477566, 0.00022358709), (0.028839298, -0.03187303, 0.009305369), (0.015562028, -0.008674254, 0.002433288), (0.029268818, -0.01605245, 0.006655488), (0.020690465, -0.0045190426, 0.006795226), (0.01565421, -0.016002828, 0.00022358709), (0.028839298, -0.008905458, 0.009305369), (0.023803042, -0.020389244, 0.0027337298), (0.029012574, -0.0014339905, 0.02801555), (0.034248102, -0.013372163, 0.034847215), (0.02572672, -0.0018080886, 0.034633134), (0.033875555, -0.0061945044, 0.024), (0.029012574, -0.039344497, 0.02801555), (0.034248102, -0.027406326, 0.034847215), (0.02572672, -0.0389704, 0.034633134), (0.033875555, -0.034583986, 0.024), (0.015562028, -0.032104235, 0.04556671), (0.029268818, -0.024726039, 0.041344512), (0.020690465, -0.036259446, 0.041204773), (0.01565421, -0.02477566, 0.047776412), (0.028839298, -0.03187303, 0.03869463), (0.015562028, -0.008674254, 0.04556671), (0.029268818, -0.01605245, 0.041344512), (0.020690465, -0.0045190426, 0.041204773), (0.01565421, -0.016002828, 0.047776412), (0.028839298, -0.008905458, 0.03869463), (0.023803042, -0.020389244, 0.04526627), (0.037325468, -0.020389244, 0.017168337), (0.037325468, -0.020389244, 0.030831663), (0.03698813, -0.013291875, 0.019938504), (0.03698813, -0.027486615, 0.019938504), (0.03698813, -0.013291875, 0.028061496), (0.03698813, -0.027486615, 0.028061496), (-0.0140018165, -0.0014339905, 0.019984448), (-0.019237345, -0.013372163, 0.013152786), (-0.010715964, -0.0018080886, 0.013366865), (-0.0140018165, -0.039344497, 0.019984448), (-0.019237345, -0.027406326, 0.013152786), (-0.010715964, -0.0389704, 0.013366865), (-0.00055127084, -0.032104235, 0.002433288), (-0.014258062, -0.024726039, 0.006655488), (-0.005679709, -0.036259446, 0.006795226), (-0.0006434538, -0.02477566, 0.00022358709), (-0.013828541, -0.03187303, 0.009305369), (-0.00055127084, -0.008674254, 0.002433288), (-0.014258062, -0.01605245, 0.006655488), (-0.005679709, -0.0045190426, 0.006795226), (-0.0006434538, -0.016002828, 0.00022358709), (-0.013828541, -0.008905458, 0.009305369), (-0.008792286, -0.020389244, 0.0027337298), (-0.0140018165, -0.0014339905, 0.02801555), (-0.019237345, -0.013372163, 0.034847215), (-0.010715964, -0.0018080886, 0.034633134), (-0.018864797, -0.0061945044, 0.024), (-0.0140018165, -0.039344497, 0.02801555), (-0.019237345, -0.027406326, 0.034847215), (-0.010715964, -0.0389704, 0.034633134), (-0.018864797, -0.034583986, 0.024), (-0.00055127084, -0.032104235, 0.04556671), (-0.014258062, -0.024726039, 0.041344512), (-0.005679709, -0.036259446, 0.041204773), (-0.0006434538, -0.02477566, 0.047776412), (-0.013828541, -0.03187303, 0.03869463), (-0.00055127084, -0.008674254, 0.04556671), (-0.014258062, -0.01605245, 0.041344512), (-0.005679709, -0.0045190426, 0.041204773), (-0.0006434538, -0.016002828, 0.047776412), (-0.013828541, -0.008905458, 0.03869463), (-0.008792286, -0.020389244, 0.04526627), (-0.02231471, -0.020389244, 0.017168337), (-0.02231471, -0.020389244, 0.030831663), (-0.021977374, -0.013291875, 0.019938504), (-0.021977374, -0.027486615, 0.019938504), (-0.021977374, -0.013291875, 0.028061496), (-0.021977374, -0.027486615, 0.028061496)]
        uniform token subdivisionScheme = "none"
    }

    def Mesh "Part3" (
        prepend apiSchemas = ["MaterialBindingAPI", "PhysicsCollisionAPI", "PhysicsMeshCollisionAPI"]
    )
    {
        int[] faceVertexCounts = [3, 3, 3, 3, 3, 3, 3, 3, 3, 3, 3, 3, 3, 3, 3, 3, 3, 3, 3, 3, 3, 3, 3, 3, 3, 3, 3, 3, 3, 3, 3, 3, 3, 3, 3, 3, 3, 3, 3, 3, 3, 3, 3, 3, 3, 3, 3, 3, 3, 3, 3, 3, 3, 3, 3, 3, 3, 3, 3, 3, 3, 3, 3, 3, 3, 3, 3, 3, 3, 3, 3, 3, 3, 3, 3, 3, 3, 3, 3, 3, 3, 3, 3, 3, 3, 3, 3, 3, 3, 3, 3, 3, 3, 3, 3, 3, 3, 3, 3, 3, 3, 3, 3, 3, 3, 3, 3, 3, 3, 3, 3, 3, 3, 3, 3, 3, 3, 3, 3, 3, 3, 3, 3, 3, 3, 3, 3, 3, 3, 3, 3, 3, 3, 3, 3, 3, 3, 3, 3, 3, 3, 3, 3, 3, 3, 3, 3, 3, 3, 3, 3, 3, 3, 3, 3, 3, 3, 3, 3, 3, 3, 3, 3, 3, 3, 3, 3, 3, 3, 3, 3, 3, 3, 3, 3, 3, 3, 3, 3, 3, 3, 3, 3, 3, 3, 3, 3, 3, 3, 3, 3, 3, 3, 3, 3, 3, 3, 3, 3, 3, 3, 3, 3, 3, 3, 3, 3, 3, 3, 3, 3, 3, 3, 3, 3, 3, 3, 3, 3, 3, 3, 3, 3, 3, 3, 3, 3, 3, 3, 3, 3, 3, 3, 3, 3, 3, 3, 3, 3, 3, 3, 3, 3, 3, 3, 3, 3, 3, 3, 3, 3, 3, 3, 3, 3, 3, 3, 3, 3, 3, 3, 3, 3, 3, 3, 3, 3, 3, 3, 3, 3, 3, 3, 3, 3, 3, 3, 3, 3, 3, 3, 3, 3, 3, 3, 3, 3, 3, 3, 3, 3, 3, 3, 3, 3, 3, 3, 3, 3, 3, 3, 3, 3, 3, 3, 3, 3, 3, 3, 3, 3, 3, 3, 3, 3, 3, 3, 3, 3, 3]
        int[] faceVertexIndices = [0, 137, 53, 137, 37, 139, 53, 139, 16, 137, 139, 53, 37, 138, 154, 138, 11, 151, 154, 151, 40, 138, 151, 154, 16, 152, 54, 152, 40, 150, 54, 150, 5, 152, 150, 54, 37, 154, 139, 154, 40, 152, 139, 152, 16, 154, 152, 139, 0, 53, 42, 53, 16, 55, 42, 55, 12, 53, 55, 42, 16, 54, 59, 54, 5, 57, 59, 57, 17, 54, 57, 59, 12, 58, 43, 58, 17, 56, 43, 56, 1, 58, 56, 43, 16, 59, 55, 59, 17, 58, 55, 58, 12, 59, 58, 55, 0, 42, 69, 42, 12, 71, 69, 71, 21, 42, 71, 69, 12, 43, 74, 43, 1, 72, 74, 72, 22, 43, 72, 74, 21, 75, 70, 75, 22, 73, 70, 73, 7, 75, 73, 70, 12, 74, 71, 74, 22, 75, 71, 75, 21, 74, 75, 71, 0, 69, 120, 69, 21, 122, 120, 122, 33, 69, 122, 120, 21, 70, 133, 70, 7, 131, 133, 131, 36, 70, 131, 133, 33, 135, 121, 135, 36, 132, 121, 132, 10, 135, 132, 121, 21, 133, 122, 133, 36, 135, 122, 135, 33, 133, 135, 122, 0, 120, 137, 120, 33, 140, 137, 140, 37, 120, 140, 137, 33, 121, 158, 121, 10, 156, 158, 156, 41, 121, 156, 158, 37, 160, 138, 160, 41, 157, 138, 157, 11, 160, 157, 138, 33, 158, 140, 158, 41, 160, 140, 160, 37, 158, 160, 140, 1, 56, 95, 56, 17, 97, 95, 97, 28, 56, 97, 95, 17, 57, 110, 57, 5, 108, 110, 108, 31, 57, 108, 110, 28, 112, 96, 112, 31, 109, 96, 109, 9, 112, 109, 96, 17, 110, 97, 110, 31, 112, 97, 112, 28, 110, 112, 97, 5, 150, 61, 150, 40, 153, 61, 153, 18, 150, 153, 61, 40, 151, 155, 151, 11, 146, 155, 146, 39, 151, 146, 155, 18, 148, 60, 148, 39, 145, 60, 145, 4, 148, 145, 60, 40, 155, 153, 155, 39, 148, 153, 148, 18, 155, 148, 153, 11, 157, 142, 157, 41, 161, 142, 161, 38, 157, 161, 142, 41, 156, 159, 156, 10, 124, 159, 124, 34, 156, 124, 159, 38, 144, 141, 144, 34, 123, 141, 123, 2, 144, 123, 141, 41, 159, 161, 159, 34, 144, 161, 144, 38, 159, 144, 161, 10, 132, 127, 132, 36, 136, 127, 136, 35, 132, 136, 127, 36, 131, 134, 131, 7, 77, 134, 77, 23, 131, 77, 134, 35, 129, 126, 129, 23, 76, 126, 76, 6, 129, 76, 126, 36, 134, 136, 134, 23, 129, 136, 129, 35, 134, 129, 136, 7, 73, 89, 73, 22, 91, 89, 91, 27, 73, 91, 89, 22, 72, 80, 72, 1, 78, 80, 78, 24, 72, 78, 80, 27, 93, 90, 93, 24, 79, 90, 79, 8, 93, 79, 90, 22, 80, 91, 80, 24, 93, 91, 93, 27, 80, 93, 91, 3, 99, 49, 99, 29, 101, 49, 101, 15, 99, 101, 49, 29, 100, 107, 100, 9, 104, 107, 104, 30, 100, 104, 107, 15, 105, 50, 105, 30, 103, 50, 103, 4, 105, 103, 50, 29, 107, 101, 107, 30, 105, 101, 105, 15, 107, 105, 101, 3, 49, 45, 49, 15, 51, 45, 51, 13, 49, 51, 45, 15, 50, 52, 50, 4, 47, 52, 47, 14, 50, 47, 52, 13, 48, 44, 48, 14, 46, 44, 46, 2, 48, 46, 44, 15, 52, 51, 52, 14, 48, 51, 48, 13, 52, 48, 51, 3, 45, 65, 45, 13, 67, 65, 67, 20, 45, 67, 65, 13, 44, 64, 44, 2, 62, 64, 62, 19, 44, 62, 64, 20, 68, 66, 68, 19, 63, 66, 63, 6, 68, 63, 66, 13, 64, 67, 64, 19, 68, 67, 68, 20, 64, 68, 67, 3, 65, 81, 65, 20, 83, 81, 83, 25, 65, 83, 81, 20, 66, 86, 66, 6, 84, 86, 84, 26, 66, 84, 86, 25, 88, 82, 88, 26, 85, 82, 85, 8, 88, 85, 82, 20, 86, 83, 86, 26, 88, 83, 88, 25, 86, 88, 83, 3, 81, 99, 81, 25, 102, 99, 102, 29, 81, 102, 99, 25, 82, 117, 82, 8, 114, 117, 114, 32, 82, 114, 117, 29, 119, 100, 119, 32, 115, 100, 115, 9, 119, 115, 100, 25, 117, 102, 117, 32, 119, 102, 119, 29, 117, 119, 102, 4, 103, 60, 103, 30, 106, 60, 106, 18, 103, 106, 60, 30, 104, 113, 104, 9, 109, 113, 109, 31, 104, 109, 113, 18, 111, 61, 111, 31, 108, 61, 108, 5, 111, 108, 61, 30, 113, 106, 113, 31, 111, 106, 111, 18, 113, 111, 106, 2, 46, 141, 46, 14, 143, 141, 143, 38, 46, 143, 141, 14, 47, 147, 47, 4, 145, 147, 145, 39, 47, 145, 147, 38, 149, 142, 149, 39, 146, 142, 146, 11, 149, 146, 142, 14, 147, 143, 147, 39, 149, 143, 149, 38, 147, 149, 143, 6, 63, 126, 63, 19, 128, 126, 128, 35, 63, 128, 126, 19, 62, 125, 62, 2, 123, 125, 123, 34, 62, 123, 125, 35, 130, 127, 130, 34, 124, 127, 124, 10, 130, 124, 127, 19, 125, 128, 125, 34, 130, 128, 130, 35, 125, 130, 128, 8, 85, 90, 85, 26, 94, 90, 94, 27, 85, 94, 90, 26, 84, 87, 84, 6, 76, 87, 76, 23, 84, 76, 87, 27, 92, 89, 92, 23, 77, 89, 77, 7, 92, 77, 89, 26, 87, 94, 87, 23, 92, 94, 92, 27, 87, 92, 94, 9, 115, 96, 115, 32, 118, 96, 118, 28, 115, 118, 96, 32, 114, 116, 114, 8, 79, 116, 79, 24, 114, 79, 116, 28, 98, 95, 98, 24, 78, 95, 78, 1, 98, 78, 95, 32, 116, 118, 116, 24, 98, 118, 98, 28, 116, 98, 118]
        rel material:binding = </BoulderCoral/Looks/Coral>
        uniform token physics:approximation = "convexHull"
        point3f[] points = [(0.005415871, 0.020229217, 0.024), (0.0380112, 0.020229217, 0.024), (0.005415871, -0.025705928, 0.024), (0.0380112, -0.025705928, 0.024), (0.021713536, -0.016933095, 0.04526627), (0.021713536, 0.011456384, 0.04526627), (0.021713536, -0.016933095, 0.0027337298), (0.021713536, 0.011456384, 0.0027337298), (0.04808371, -0.0027383554, 0.0108567225), (0.04808371, -0.0027383554, 0.03714328), (-0.0046566394, -0.0027383554, 0.0108567225), (-0.0046566394, -0.0027383554, 0.03714328), (0.021713536, 0.024261644, 0.024), (0.021713536, -0.029738355, 0.024), (0.012134009, -0.024581814, 0.0365), (0.03129306, -0.024581814, 0.0365), (0.012134009, 0.019105103, 0.0365), (0.03129306, 0.019105103, 0.0365), (0.021713536, -0.0027383554, 0.049), (0.012134009, -0.024581814, 0.0115), (0.03129306, -0.024581814, 0.0115), (0.012134009, 0.019105103, 0.0115), (0.03129306, 0.019105103, 0.0115), (0.021713536, -0.0027383554, -0.001), (0.046793062, 0.010761645, 0.016274575), (0.046793062, -0.016238356, 0.016274575), (0.037213534, -0.011081815, 0.0037745752), (0.037213534, 0.0056051034, 0.0037745752), (0.046793062, 0.010761645, 0.031725425), (0.046793062, -0.016238356, 0.031725425), (0.037213534, -0.011081815, 0.044225425), (0.037213534, 0.0056051034, 0.044225425), (0.052713536, -0.0027383554, 0.024), (-0.0033659914, 0.010761645, 0.016274575), (-0.0033659914, -0.016238356, 0.016274575), (0.0062135356, -0.011081815, 0.0037745752), (0.0062135356, 0.0056051034, 0.0037745752), (-0.0033659914, 0.010761645, 0.031725425), (-0.0033659914, -0.016238356, 0.031725425), (0.0062135356, -0.011081815, 0.044225425), (0.0062135356, 0.0056051034, 0.044225425), (-0.009286464, -0.0027383554, 0.024), (0.013242273, 0.02323398, 0.024), (0.030184798, 0.02323398, 0.024), (0.013242273, -0.028710691, 0.024), (0.030184798, -0.028710691, 0.024), (0.00826299, -0.026030404, 0.030497298), (0.016734252, -0.021470428, 0.04155116), (0.01667728, -0.028416881, 0.03057164), (0.03516408, -0.026030404, 0.030497298), (0.026692819, -0.021470428, 0.04155116), (0.026749792, -0.028416881, 0.03057164), (0.021713536, -0.025705928, 0.03714328), (0.00826299, 0.020553693, 0.030497298), (0.016734252, 0.015993718, 0.04155116), (0.01667728, 0.02294017, 0.03057164), (0.03516408, 0.020553693, 0.030497298), (0.026692819, 0.015993718, 0.04155116), (0.026749792, 0.02294017, 0.03057164), (0.021713536, 0.020229217, 0.03714328), (0.021713536, -0.010116552, 0.04804846), (0.021713536, 0.0046398407, 0.04804846), (0.00826299, -0.026030404, 0.017502703), (0.016734252, -0.021470428, 0.006448839), (0.01667728, -0.028416881, 0.01742836), (0.03516408, -0.026030404, 0.017502703), (0.026692819, -0.021470428, 0.006448839), (0.026749792, -0.028416881, 0.01742836), (0.021713536, -0.025705928, 0.0108567225), (0.00826299, 0.020553693, 0.017502703), (0.016734252, 0.015993718, 0.006448839), (0.01667728, 0.02294017, 0.01742836), (0.03516408, 0.020553693, 0.017502703), (0.026692819, 0.015993718, 0.006448839), (0.026749792, 0.02294017, 0.01742836), (0.021713536, 0.020229217, 0.0108567225), (0.021713536, -0.010116552, -0.000048458944), (0.021713536, 0.0046398407, -0.000048458944), (0.04322073, 0.016216898, 0.019984448), (0.04845626, 0.004278726, 0.013152786), (0.039934877, 0.015842801, 0.013366865), (0.04322073, -0.02169361, 0.019984448), (0.04845626, -0.009755437, 0.013152786), (0.039934877, -0.021319512, 0.013366865), (0.029770184, -0.014453347, 0.002433288), (0.043476976, -0.0070751505, 0.006655488), (0.034898624, -0.018608557, 0.006795226), (0.029862368, -0.0071247714, 0.00022358709), (0.043047454, -0.014222141, 0.009305369), (0.029770184, 0.0089766355, 0.002433288), (0.043476976, 0.0015984395, 0.006655488), (0.034898624, 0.013131847, 0.006795226), (0.029862368, 0.0016480604, 0.00022358709), (0.043047454, 0.00874543, 0.009305369), (0.0380112, -0.0027383554, 0.0027337298), (0.04322073, 0.016216898, 0.02801555), (0.04845626, 0.004278726, 0.034847215), (0.039934877, 0.015842801, 0.034633134), (0.04808371, 0.011456384, 0.024), (0.04322073, -0.02169361, 0.02801555), (0.04845626, -0.009755437, 0.034847215), (0.039934877, -0.021319512, 0.034633134), (0.04808371, -0.016933095, 0.024), (0.029770184, -0.014453347, 0.04556671), (0.043476976, -0.0070751505, 0.041344512), (0.034898624, -0.018608557, 0.041204773), (0.029862368, -0.0071247714, 0.047776412), (0.043047454, -0.014222141, 0.03869463), (0.029770184, 0.0089766355, 0.04556671), (0.043476976, 0.0015984395, 0.041344512), (0.034898624, 0.013131847, 0.041204773), (0.029862368, 0.0016480604, 0.047776412), (0.043047454, 0.00874543, 0.03869463), (0.0380112, -0.0027383554, 0.04526627), (0.051533625, -0.0027383554, 0.017168337), (0.051533625, -0.0027383554, 0.030831663), (0.05119629, 0.0043590143, 0.019938504), (0.05119629, -0.009835726, 0.019938504), (0.05119629, 0.0043590143, 0.028061496), (0.05119629, -0.009835726, 0.028061496), (0.00020634061, 0.016216898, 0.019984448), (-0.0050291875, 0.004278726, 0.013152786), (0.0034921926, 0.015842801, 0.013366865), (0.00020634061, -0.02169361, 0.019984448), (-0.0050291875, -0.009755437, 0.013152786), (0.0034921926, -0.021319512, 0.013366865), (0.013656886, -0.014453347, 0.002433288), (-0.000049904367, -0.0070751505, 0.006655488), (0.008528448, -0.018608557, 0.006795226), (0.013564703, -0.0071247714, 0.00022358709), (0.00037961567, -0.014222141, 0.009305369), (0.013656886, 0.0089766355, 0.002433288), (-0.000049904367, 0.0015984395, 0.006655488), (0.008528448, 0.013131847, 0.006795226), (0.013564703, 0.0016480604, 0.00022358709), (0.00037961567, 0.00874543, 0.009305369), (0.005415871, -0.0027383554, 0.0027337298), (0.00020634061, 0.016216898, 0.02801555), (-0.0050291875, 0.004278726, 0.034847215), (0.0034921926, 0.015842801, 0.034633134), (-0.0046566394, 0.011456384, 0.024), (0.00020634061, -0.02169361, 0.02801555), (-0.0050291875, -0.009755437, 0.034847215), (0.0034921926, -0.021319512, 0.034633134), (-0.0046566394, -0.016933095, 0.024), (0.013656886, -0.014453347, 0.04556671), (-0.000049904367, -0.0070751505, 0.041344512), (0.008528448, -0.018608557, 0.041204773), (0.013564703, -0.0071247714, 0.047776412), (0.00037961567, -0.014222141, 0.03869463), (0.013656886, 0.0089766355, 0.04556671), (-0.000049904367, 0.0015984395, 0.041344512), (0.008528448, 0.013131847, 0.041204773), (0.013564703, 0.0016480604, 0.047776412), (0.00037961567, 0.00874543, 0.03869463), (0.005415871, -0.0027383554, 0.04526627), (-0.008106554, -0.0027383554, 0.017168337), (-0.008106554, -0.0027383554, 0.030831663), (-0.007769217, 0.0043590143, 0.019938504), (-0.007769217, -0.009835726, 0.019938504), (-0.007769217, 0.0043590143, 0.028061496), (-0.007769217, -0.009835726, 0.028061496)]
        uniform token subdivisionScheme = "none"
    }

    def Mesh "Part4" (
        prepend apiSchemas = ["MaterialBindingAPI", "PhysicsCollisionAPI", "PhysicsMeshCollisionAPI"]
    )
    {
        int[] faceVertexCounts = [3, 3, 3, 3, 3, 3, 3, 3, 3, 3, 3, 3, 3, 3, 3, 3, 3, 3, 3, 3, 3, 3, 3, 3, 3, 3, 3, 3, 3, 3, 3, 3, 3, 3, 3, 3, 3, 3, 3, 3, 3, 3, 3, 3, 3, 3, 3, 3, 3, 3, 3, 3, 3, 3, 3, 3, 3, 3, 3, 3, 3, 3, 3, 3, 3, 3, 3, 3, 3, 3, 3, 3, 3, 3, 3, 3, 3, 3, 3, 3, 3, 3, 3, 3, 3, 3, 3, 3, 3, 3, 3, 3, 3, 3, 3, 3, 3, 3, 3, 3, 3, 3, 3, 3, 3, 3, 3, 3, 3, 3, 3, 3, 3, 3, 3, 3, 3, 3, 3, 3, 3, 3, 3, 3, 3, 3, 3, 3, 3, 3, 3, 3, 3, 3, 3, 3, 3, 3, 3, 3, 3, 3, 3, 3, 3, 3, 3, 3, 3, 3, 3, 3, 3, 3, 3, 3, 3, 3, 3, 3, 3, 3, 3, 3, 3, 3, 3, 3, 3, 3, 3, 3, 3, 3, 3, 3, 3, 3, 3, 3, 3, 3, 3, 3, 3, 3, 3, 3, 3, 3, 3, 3, 3, 3, 3, 3, 3, 3, 3, 3, 3, 3, 3, 3, 3, 3, 3, 3, 3, 3, 3, 3, 3, 3, 3, 3, 3, 3, 3, 3, 3, 3, 3, 3, 3, 3, 3, 3, 3, 3, 3, 3, 3, 3, 3, 3, 3, 3, 3, 3, 3, 3, 3, 3, 3, 3, 3, 3, 3, 3, 3, 3, 3, 3, 3, 3, 3, 3, 3, 3, 3, 3, 3, 3, 3, 3, 3, 3, 3, 3, 3, 3, 3, 3, 3, 3, 3, 3, 3, 3, 3, 3, 3, 3, 3, 3, 3, 3, 3, 3, 3, 3, 3, 3, 3, 3, 3, 3, 3, 3, 3, 3, 3, 3, 3, 3, 3, 3, 3, 3, 3, 3, 3, 3, 3, 3, 3, 3, 3, 3]
        int[] faceVertexIndices = [0, 137, 53, 137, 37, 139, 53, 139, 16, 137, 139, 53, 37, 138, 154, 138, 11, 151, 154, 151, 40, 138, 151, 154, 16, 152, 54, 152, 40, 150, 54, 150, 5, 152, 150, 54, 37, 154, 139, 154, 40, 152, 139, 152, 16, 154, 152, 139, 0, 53, 42, 53, 16, 55, 42, 55, 12, 53, 55, 42, 16, 54, 59, 54, 5, 57, 59, 57, 17, 54, 57, 59, 12, 58, 43, 58, 17, 56, 43, 56, 1, 58, 56, 43, 16, 59, 55, 59, 17, 58, 55, 58, 12, 59, 58, 55, 0, 42, 69, 42, 12, 71, 69, 71, 21, 42, 71, 69, 12, 43, 74, 43, 1, 72, 74, 72, 22, 43, 72, 74, 21, 75, 70, 75, 22, 73, 70, 73, 7, 75, 73, 70, 12, 74, 71, 74, 22, 75, 71, 75, 21, 74, 75, 71, 0, 69, 120, 69, 21, 122, 120, 122, 33, 69, 122, 120, 21, 70, 133, 70, 7, 131, 133, 131, 36, 70, 131, 133, 33, 135, 121, 135, 36, 132, 121, 132, 10, 135, 132, 121, 21, 133, 122, 133, 36, 135, 122, 135, 33, 133, 135, 122, 0, 120, 137, 120, 33, 140, 137, 140, 37, 120, 140, 137, 33, 121, 158, 121, 10, 156, 158, 156, 41, 121, 156, 158, 37, 160, 138, 160, 41, 157, 138, 157, 11, 160, 157, 138, 33, 158, 140, 158, 41, 160, 140, 160, 37, 158, 160, 140, 1, 56, 95, 56, 17, 97, 95, 97, 28, 56, 97, 95, 17, 57, 110, 57, 5, 108, 110, 108, 31, 57, 108, 110, 28, 112, 96, 112, 31, 109, 96, 109, 9, 112, 109, 96, 17, 110, 97, 110, 31, 112, 97, 112, 28, 110, 112, 97, 5, 150, 61, 150, 40, 153, 61, 153, 18, 150, 153, 61, 40, 151, 155, 151, 11, 146, 155, 146, 39, 151, 146, 155, 18, 148, 60, 148, 39, 145, 60, 145, 4, 148, 145, 60, 40, 155, 153, 155, 39, 148, 153, 148, 18, 155, 148, 153, 11, 157, 142, 157, 41, 161, 142, 161, 38, 157, 161, 142, 41, 156, 159, 156, 10, 124, 159, 124, 34, 156, 124, 159, 38, 144, 141, 144, 34, 123, 141, 123, 2, 144, 123, 141, 41, 159, 161, 159, 34, 144, 161, 144, 38, 159, 144, 161, 10, 132, 127, 132, 36, 136, 127, 136, 35, 132, 136, 127, 36, 131, 134, 131, 7, 77, 134, 77, 23, 131, 77, 134, 35, 129, 126, 129, 23, 76, 126, 76, 6, 129, 76, 126, 36, 134, 136, 134, 23, 129, 136, 129, 35, 134, 129, 136, 7, 73, 89, 73, 22, 91, 89, 91, 27, 73, 91, 89, 22, 72, 80, 72, 1, 78, 80, 78, 24, 72, 78, 80, 27, 93, 90, 93, 24, 79, 90, 79, 8, 93, 79, 90, 22, 80, 91, 80, 24, 93, 91, 93, 27, 80, 93, 91, 3, 99, 49, 99, 29, 101, 49, 101, 15, 99, 101, 49, 29, 100, 107, 100, 9, 104, 107, 104, 30, 100, 104, 107, 15, 105, 50, 105, 30, 103, 50, 103, 4, 105, 103, 50, 29, 107, 101, 107, 30, 105, 101, 105, 15, 107, 105, 101, 3, 49, 45, 49, 15, 51, 45, 51, 13, 49, 51, 45, 15, 50, 52, 50, 4, 47, 52, 47, 14, 50, 47, 52, 13, 48, 44, 48, 14, 46, 44, 46, 2, 48, 46, 44, 15, 52, 51, 52, 14, 48, 51, 48, 13, 52, 48, 51, 3, 45, 65, 45, 13, 67, 65, 67, 20, 45, 67, 65, 13, 44, 64, 44, 2, 62, 64, 62, 19, 44, 62, 64, 20, 68, 66, 68, 19, 63, 66, 63, 6, 68, 63, 66, 13, 64, 67, 64, 19, 68, 67, 68, 20, 64, 68, 67, 3, 65, 81, 65, 20, 83, 81, 83, 25, 65, 83, 81, 20, 66, 86, 66, 6, 84, 86, 84, 26, 66, 84, 86, 25, 88, 82, 88, 26, 85, 82, 85, 8, 88, 85, 82, 20, 86, 83, 86, 26, 88, 83, 88, 25, 86, 88, 83, 3, 81, 99, 81, 25, 102, 99, 102, 29, 81, 102, 99, 25, 82, 117, 82, 8, 114, 117, 114, 32, 82, 114, 117, 29, 119, 100, 119, 32, 115, 100, 115, 9, 119, 115, 100, 25, 117, 102, 117, 32, 119, 102, 119, 29, 117, 119, 102, 4, 103, 60, 103, 30, 106, 60, 106, 18, 103, 106, 60, 30, 104, 113, 104, 9, 109, 113, 109, 31, 104, 109, 113, 18, 111, 61, 111, 31, 108, 61, 108, 5, 111, 108, 61, 30, 113, 106, 113, 31, 111, 106, 111, 18, 113, 111, 106, 2, 46, 141, 46, 14, 143, 141, 143, 38, 46, 143, 141, 14, 47, 147, 47, 4, 145, 147, 145, 39, 47, 145, 147, 38, 149, 142, 149, 39, 146, 142, 146, 11, 149, 146, 142, 14, 147, 143, 147, 39, 149, 143, 149, 38, 147, 149, 143, 6, 63, 126, 63, 19, 128, 126, 128, 35, 63, 128, 126, 19, 62, 125, 62, 2, 123, 125, 123, 34, 62, 123, 125, 35, 130, 127, 130, 34, 124, 127, 124, 10, 130, 124, 127, 19, 125, 128, 125, 34, 130, 128, 130, 35, 125, 130, 128, 8, 85, 90, 85, 26, 94, 90, 94, 27, 85, 94, 90, 26, 84, 87, 84, 6, 76, 87, 76, 23, 84, 76, 87, 27, 92, 89, 92, 23, 77, 89, 77, 7, 92, 77, 89, 26, 87, 94, 87, 23, 92, 94, 92, 27, 87, 92, 94, 9, 115, 96, 115, 32, 118, 96, 118, 28, 115, 118, 96, 32, 114, 116, 114, 8, 79, 116, 79, 24, 114, 79, 116, 28, 98, 95, 98, 24, 78, 95, 78, 1, 98, 78, 95, 32, 116, 118, 116, 24, 98, 118, 98, 28, 116, 98, 118]
        rel material:binding = </BoulderCoral/Looks/Coral>
        uniform token physics:approximation = "convexHull"
        point3f[] points = [(-0.0041436427, 0.001474404, 0.024), (0.028451687, 0.001474404, 0.024), (-0.0041436427, -0.04446074, 0.024), (0.028451687, -0.04446074, 0.024), (0.012154021, -0.03568791, 0.04526627), (0.012154021, -0.0072984276, 0.04526627), (0.012154021, -0.03568791, 0.0027337298), (0.012154021, -0.0072984276, 0.0027337298), (0.038524196, -0.021493169, 0.0108567225), (0.038524196, -0.021493169, 0.03714328), (-0.014216153, -0.021493169, 0.0108567225), (-0.014216153, -0.021493169, 0.03714328), (0.012154021, 0.005506832, 0.024), (0.012154021, -0.04849317, 0.024), (0.0025744948, -0.043336626, 0.0365), (0.021733548, -0.043336626, 0.0365), (0.0025744948, 0.00035029105, 0.0365), (0.021733548, 0.00035029105, 0.0365), (0.012154021, -0.021493169, 0.049), (0.0025744948, -0.043336626, 0.0115), (0.021733548, -0.043336626, 0.0115), (0.0025744948, 0.00035029105, 0.0115), (0.021733548, 0.00035029105, 0.0115), (0.012154021, -0.021493169, -0.001), (0.03723355, -0.007993168, 0.016274575), (0.03723355, -0.034993168, 0.016274575), (0.027654022, -0.029836627, 0.0037745752), (0.027654022, -0.0131497085, 0.0037745752), (0.03723355, -0.007993168, 0.031725425), (0.03723355, -0.034993168, 0.031725425), (0.027654022, -0.029836627, 0.044225425), (0.027654022, -0.0131497085, 0.044225425), (0.04315402, -0.021493169, 0.024), (-0.012925505, -0.007993168, 0.016274575), (-0.012925505, -0.034993168, 0.016274575), (-0.0033459782, -0.029836627, 0.0037745752), (-0.0033459782, -0.0131497085, 0.0037745752), (-0.012925505, -0.007993168, 0.031725425), (-0.012925505, -0.034993168, 0.031725425), (-0.0033459782, -0.029836627, 0.044225425), (-0.0033459782, -0.0131497085, 0.044225425), (-0.01884598, -0.021493169, 0.024), (0.0036827594, 0.004479168, 0.024), (0.020625284, 0.004479168, 0.024), (0.0036827594, -0.047465503, 0.024), (0.020625284, -0.047465503, 0.024), (-0.0012965238, -0.044785216, 0.030497298), (0.0071747387, -0.04022524, 0.04155116), (0.0071177664, -0.047171693, 0.03057164), (0.025604567, -0.044785216, 0.030497298), (0.017133305, -0.04022524, 0.04155116), (0.017190278, -0.047171693, 0.03057164), (0.012154021, -0.04446074, 0.03714328), (-0.0012965238, 0.0017988812, 0.030497298), (0.0071747387, -0.0027610948, 0.04155116), (0.0071177664, 0.004185358, 0.03057164), (0.025604567, 0.0017988812, 0.030497298), (0.017133305, -0.0027610948, 0.04155116), (0.017190278, 0.004185358, 0.03057164), (0.012154021, 0.001474404, 0.03714328), (0.012154021, -0.028871365, 0.04804846), (0.012154021, -0.014114971, 0.04804846), (-0.0012965238, -0.044785216, 0.017502703), (0.0071747387, -0.04022524, 0.006448839), (0.0071177664, -0.047171693, 0.01742836), (0.025604567, -0.044785216, 0.017502703), (0.017133305, -0.04022524, 0.006448839), (0.017190278, -0.047171693, 0.01742836), (0.012154021, -0.04446074, 0.0108567225), (-0.0012965238, 0.0017988812, 0.017502703), (0.0071747387, -0.0027610948, 0.006448839), (0.0071177664, 0.004185358, 0.01742836), (0.025604567, 0.0017988812, 0.017502703), (0.017133305, -0.0027610948, 0.006448839), (0.017190278, 0.004185358, 0.01742836), (0.012154021, 0.001474404, 0.0108567225), (0.012154021, -0.028871365, -0.000048458944), (0.012154021, -0.014114971, -0.000048458944), (0.033661216, -0.0025379139, 0.019984448), (0.038896743, -0.014476086, 0.013152786), (0.030375365, -0.002912012, 0.013366865), (0.033661216, -0.040448423, 0.019984448), (0.038896743, -0.02851025, 0.013152786), (0.030375365, -0.040074322, 0.013366865), (0.02021067, -0.033208158, 0.002433288), (0.03391746, -0.025829963, 0.006655488), (0.02533911, -0.03736337, 0.006795226), (0.020302854, -0.025879584, 0.00022358709), (0.033487942, -0.032976955, 0.009305369), (0.02021067, -0.009778176, 0.002433288), (0.03391746, -0.017156374, 0.006655488), (0.02533911, -0.005622966, 0.006795226), (0.020302854, -0.017106751, 0.00022358709), (0.033487942, -0.010009382, 0.009305369), (0.028451687, -0.021493169, 0.0027337298), (0.033661216, -0.0025379139, 0.02801555), (0.038896743, -0.014476086, 0.034847215), (0.030375365, -0.002912012, 0.034633134), (0.038524196, -0.0072984276, 0.024), (0.033661216, -0.040448423, 0.02801555), (0.038896743, -0.02851025, 0.034847215), (0.030375365, -0.040074322, 0.034633134), (0.038524196, -0.03568791, 0.024), (0.02021067, -0.033208158, 0.04556671), (0.03391746, -0.025829963, 0.041344512), (0.02533911, -0.03736337, 0.041204773), (0.020302854, -0.025879584, 0.047776412), (0.033487942, -0.032976955, 0.03869463), (0.02021067, -0.009778176, 0.04556671), (0.03391746, -0.017156374, 0.041344512), (0.02533911, -0.005622966, 0.041204773), (0.020302854, -0.017106751, 0.047776412), (0.033487942, -0.010009382, 0.03869463), (0.028451687, -0.021493169, 0.04526627), (0.041974112, -0.021493169, 0.017168337), (0.041974112, -0.021493169, 0.030831663), (0.041636772, -0.014395798, 0.019938504), (0.041636772, -0.028590538, 0.019938504), (0.041636772, -0.014395798, 0.028061496), (0.041636772, -0.028590538, 0.028061496), (-0.009353173, -0.0025379139, 0.019984448), (-0.014588702, -0.014476086, 0.013152786), (-0.006067321, -0.002912012, 0.013366865), (-0.009353173, -0.040448423, 0.019984448), (-0.014588702, -0.02851025, 0.013152786), (-0.006067321, -0.040074322, 0.013366865), (0.0040973723, -0.033208158, 0.002433288), (-0.009609418, -0.025829963, 0.006655488), (-0.0010310658, -0.03736337, 0.006795226), (0.0040051895, -0.025879584, 0.00022358709), (-0.009179898, -0.032976955, 0.009305369), (0.0040973723, -0.009778176, 0.002433288), (-0.009609418, -0.017156374, 0.006655488), (-0.0010310658, -0.005622966, 0.006795226), (0.0040051895, -0.017106751, 0.00022358709), (-0.009179898, -0.010009382, 0.009305369), (-0.0041436427, -0.021493169, 0.0027337298), (-0.009353173, -0.0025379139, 0.02801555), (-0.014588702, -0.014476086, 0.034847215), (-0.006067321, -0.002912012, 0.034633134), (-0.014216153, -0.0072984276, 0.024), (-0.009353173, -0.040448423, 0.02801555), (-0.014588702, -0.02851025, 0.034847215), (-0.006067321, -0.040074322, 0.034633134), (-0.014216153, -0.03568791, 0.024), (0.0040973723, -0.033208158, 0.04556671), (-0.009609418, -0.025829963, 0.041344512), (-0.0010310658, -0.03736337, 0.041204773), (0.0040051895, -0.025879584, 0.047776412), (-0.009179898, -0.032976955, 0.03869463), (0.0040973723, -0.009778176, 0.04556671), (-0.009609418, -0.017156374, 0.041344512), (-0.0010310658, -0.005622966, 0.041204773), (0.0040051895, -0.017106751, 0.047776412), (-0.009179898, -0.010009382, 0.03869463), (-0.0041436427, -0.021493169, 0.04526627), (-0.017666068, -0.021493169, 0.017168337), (-0.017666068, -0.021493169, 0.030831663), (-0.01732873, -0.014395798, 0.019938504), (-0.01732873, -0.028590538, 0.019938504), (-0.01732873, -0.014395798, 0.028061496), (-0.01732873, -0.028590538, 0.028061496)]
        uniform token subdivisionScheme = "none"
    }
}

