#usda 1.0
(
    defaultPrim = "BranchCoral"
    metersPerUnit = 1
    upAxis = "Z"
)

def Xform "BranchCoral"
{
    def "Looks"
    {
        def Material "Coral"
        {
            token outputs:surface.connect = </BranchCoral/Looks/Coral/Surface.outputs:surface>

            def Shader "Surface"
            {
                uniform token info:id = "UsdPreviewSurface"
                color3f inputs:diffuseColor = (0.4, 0.25, 0.2)
                float inputs:roughness = 0.9
                token outputs:surface
            }
        }
    }

    def Mesh "Part0" (
        prepend apiSchemas = ["MaterialBindingAPI", "PhysicsCollisionAPI", "PhysicsMeshCollisionAPI"]
    )
    {
        int[] faceVertexCounts = [3, 3, 3, 3, 3, 3, 3, 3, 3, 3, 3, 3, 3, 3, 3, 3, 3, 3, 3, 3, 3, 3, 3, 3, 3, 3, 3, 3, 3, 3, 3, 3, 3, 3, 3, 3, 3, 3, 3, 3]
        int[] faceVertexIndices = [1, 0, 4, 1, 4, 2, 2, 4, 5, 2, 5, 3, 4, 0, 6, 4, 6, 5, 5, 6, 7, 5, 7, 3, 6, 0, 8, 6, 8, 7, 7, 8, 9, 7, 9, 3, 8, 0, 10, 8, 10, 9, 9, 10, 11, 9, 11, 3, 10, 0, 12, 10, 12, 11, 11, 12, 13, 11, 13, 3, 12, 0, 14, 12, 14, 13, 13, 14, 15, 13, 15, 3, 14, 0, 16, 14, 16, 15, 15, 16, 17, 15, 17, 3, 16, 0, 18, 16, 18, 17, 17, 18, 19, 17, 19, 3, 18, 0, 20, 18, 20, 19, 19, 20, 21, 19, 21, 3, 20, 0, 1, 20, 1, 21, 21, 1, 2, 21, 2, 3]
        rel material:binding = </BranchCoral/Looks/Coral>
        uniform token physics:approximation = "convexHull"
        point3f[] points = [(6.938894e-18, 0, 0.005), (0.005422879, 0, 0.002432436), (0.050422877, 0, 0.09747565), (0.045, 0, 0.100043215), (0.0043872013, 0.0035267116, 0.002922797), (0.0493872, 0.0035267116, 0.097966015), (0.0016757617, 0.005706339, 0.004206579), (0.04667576, 0.005706339, 0.099249795), (-0.0016757617, 0.005706339, 0.005793421), (0.04332424, 0.005706339, 0.100836635), (-0.0043872013, 0.0035267116, 0.007077203), (0.0406128, 0.0035267116, 0.102120414), (-0.005422879, 7.3478805e-19, 0.007567564), (0.039577123, 7.3478805e-19, 0.10261078), (-0.0043872013, -0.0035267116, 0.007077203), (0.0406128, -0.0035267116, 0.102120414), (-0.0016757617, -0.005706339, 0.005793421), (0.04332424, -0.005706339, 0.100836635), (0.0016757617, -0.005706339, 0.004206579), (0.04667576, -0.005706339, 0.099249795), (0.0043872013, -0.0035267116, 0.002922797), (0.0493872, -0.0035267116, 0.097966015)]
        uniform token subdivisionScheme = "none"
    }

    def Mesh "Part1" (
        prepend apiSchemas = ["MaterialBindingAPI", "PhysicsCollisionAPI", "PhysicsMeshCollisionAPI"]
    )
    {
        int[] faceVertexCounts = [3, 3, 3, 3, 3, 3, 3, 3, 3, 3, 3, 3, 3, 3, 3, 3, 3, 3, 3, 3, 3, 3, 3, 3, 3, 3, 3, 3, 3, 3, 3, 3]
        int[] faceVertexIndices = [1, 0, 4, 1, 4, 2, 2, 4, 5, 2, 5, 3, 4, 0, 6, 4, 6, 5, 5, 6, 7, 5, 7, 3, 6, 0, 8, 6, 8, 7, 7, 8, 9, 7, 9, 3, 8, 0, 10, 8, 10, 9, 9, 10, 11, 9, 11, 3, 10, 0, 12, 10, 12, 11, 11, 12, 13, 11, 13, 3, 12, 0, 14, 12, 14, 13, 13, 14, 15, 13, 15, 3, 14, 0, 16, 14, 16, 15, 15, 16, 17, 15, 17, 3, 16, 0, 1, 16, 1, 17, 17, 1, 2, 17, 2, 3]
        rel material:binding = </BranchCoral/Looks/Coral>
        uniform token physics:approximation = "convexHull"
        point3f[] points = [(0.02475, 0, 0.055023767), (0.027758712, 0.0011374617, 0.05264599), (0.04351627, 0.022174237, 0.08264815), (0.04050756, 0.021036774, 0.08502593), (0.025385743, 0.003068774, 0.05253812), (0.041143302, 0.024105549, 0.08254028), (0.022640364, 0.0032024398, 0.053886306), (0.038397923, 0.024239214, 0.08388846), (0.021130782, 0.00146016, 0.055900805), (0.03688834, 0.022496935, 0.08590297), (0.021741288, -0.0011374617, 0.057401545), (0.037498847, 0.019899312, 0.08740371), (0.024114257, -0.003068774, 0.05750942), (0.039871816, 0.017968, 0.08751158), (0.026859635, -0.0032024398, 0.05616123), (0.042617194, 0.017834336, 0.086163394), (0.028369218, -0.00146016, 0.054146733), (0.044126775, 0.019576615, 0.08414889)]
        uniform token subdivisionScheme = "none"
    }

    def Mesh "Part2" (
        prepend apiSchemas = ["MaterialBindingAPI", "PhysicsCollisionAPI", "PhysicsMeshCollisionAPI"]
    )
    {
        int[] faceVertexCounts = [3, 3, 3, 3, 3, 3, 3, 3, 3, 3, 3, 3, 3, 3, 3, 3, 3, 3, 3, 3, 3, 3, 3, 3, 3, 3, 3, 3, 3, 3, 3, 3, 3, 3, 3, 3, 3, 3, 3, 3]
        int[] faceVertexIndices = [1, 0, 4, 1, 4, 2, 2, 4, 5, 2, 5, 3, 4, 0, 6, 4, 6, 5, 5, 6, 7, 5, 7, 3, 6, 0, 8, 6, 8, 7, 7, 8, 9, 7, 9, 3, 8, 0, 10, 8, 10, 9, 9, 10, 11, 9, 11, 3, 10, 0, 12, 10, 12, 11, 11, 12, 13, 11, 13, 3, 12, 0, 14, 12, 14, 13, 13, 14, 15, 13, 15, 3, 14, 0, 16, 14, 16, 15, 15, 16, 17, 15, 17, 3, 16, 0, 18, 16, 18, 17, 17, 18, 19, 17, 19, 3, 18, 0, 20, 18, 20, 19, 19, 20, 21, 19, 21, 3, 20, 0, 1, 20, 1, 21, 21, 1, 2, 21, 2, 3]
        rel material:binding = </BranchCoral/Looks/Coral>
        uniform token physics:approximation = "convexHull"
        point3f[] points = [(-8.673617e-18, -3.469447e-18, 0.005), (0.0050211414, 0.0016021673, 0.0021327366), (0.033078182, 0.036784586, 0.07092533), (0.02805704, 0.035182416, 0.07379259), (0.002552786, 0.004341265, 0.0017386049), (0.030609827, 0.039523683, 0.0705312), (-0.0008906468, 0.0054221475, 0.0025902153), (0.027166395, 0.040604565, 0.071382806), (-0.003993883, 0.0044319537, 0.0043622814), (0.024063159, 0.039614372, 0.073154874), (-0.005571591, 0.0017489042, 0.0063779345), (0.02248545, 0.03693132, 0.075170524), (-0.0050211414, -0.0016021673, 0.007867264), (0.0230359, 0.03358025, 0.07665986), (-0.002552786, -0.004341265, 0.008261396), (0.025504256, 0.030841151, 0.07705399), (0.0008906468, -0.0054221475, 0.007409785), (0.028947689, 0.02976027, 0.07620238), (0.003993883, -0.0044319537, 0.0056377184), (0.032050923, 0.030750463, 0.07443031), (0.005571591, -0.0017489042, 0.0036220655), (0.03362863, 0.03343351, 0.07241466)]
        uniform token subdivisionScheme = "none"
    }

    def Mesh "Part3" (
        prepend apiSchemas = ["MaterialBindingAPI", "PhysicsCollisionAPI", "PhysicsMeshCollisionAPI"]
    )
    {
        int[] faceVertexCounts = [3, 3, 3, 3, 3, 3, 3, 3, 3, 3, 3, 3, 3, 3, 3, 3, 3, 3, 3, 3, 3, 3, 3, 3, 3, 3, 3, 3, 3, 3, 3, 3]
        int[] faceVertexIndices = [1, 0, 4, 1, 4, 2, 2, 4, 5, 2, 5, 3, 4, 0, 6, 4, 6, 5, 5, 6, 7, 5, 7, 3, 6, 0, 8, 6, 8, 7, 7, 8, 9, 7, 9, 3, 8, 0, 10, 8, 10, 9, 9, 10, 11, 9, 11, 3, 10, 0, 12, 10, 12, 11, 11, 12, 13, 11, 13, 3, 12, 0, 14, 12, 14, 13, 13, 14, 15, 13, 15, 3, 14, 0, 16, 14, 16, 15, 15, 16, 17, 15, 17, 3, 16, 0, 1, 16, 1, 17, 17, 1, 2, 17, 2, 3]
        rel material:binding = </BranchCoral/Looks/Coral>
        uniform token physics:approximation = "convexHull"
        point3f[] points = [(0.015431372, 0.01935033, 0.040585928), (0.01838075, 0.017702688, 0.042727526), (0.011758214, 0.043138657, 0.07141715), (0.008808836, 0.044786297, 0.06927556), (0.019365905, 0.019980768, 0.040935207), (0.01274337, 0.04541674, 0.069624834), (0.018046265, 0.021889545, 0.038938284), (0.011423728, 0.047325514, 0.067627914), (0.015194856, 0.022310885, 0.037906528), (0.0085723195, 0.047746852, 0.06659616), (0.012481995, 0.02099797, 0.038444325), (0.005859459, 0.04643394, 0.067133956), (0.01149684, 0.018719891, 0.040236644), (0.0048743035, 0.04415586, 0.068926275), (0.01281648, 0.016811114, 0.042233568), (0.0061939443, 0.042247083, 0.070923194), (0.01566789, 0.016389774, 0.043265324), (0.009045353, 0.04182574, 0.07195495)]
        uniform token subdivisionScheme = "none"
    }

    def Mesh "Part4" (
        prepend apiSchemas = ["MaterialBindingAPI", "PhysicsCollisionAPI", "PhysicsMeshCollisionAPI"]
    )
    {
        int[] faceVertexCounts = [3, 3, 3, 3, 3, 3, 3, 3, 3, 3, 3, 3, 3, 3, 3, 3, 3, 3, 3, 3, 3, 3, 3, 3, 3, 3, 3, 3, 3, 3, 3, 3, 3, 3, 3, 3, 3, 3, 3, 3]
        int[] faceVertexIndices = [1, 0, 4, 1, 4, 2, 2, 4, 5, 2, 5, 3, 4, 0, 6, 4, 6, 5, 5, 6, 7, 5, 7, 3, 6, 0, 8, 6, 8, 7, 7, 8, 9, 7, 9, 3, 8, 0, 10, 8, 10, 9, 9, 10, 11, 9, 11, 3, 10, 0, 12, 10, 12, 11, 11, 12, 13, 11, 13, 3, 12, 0, 14, 12, 14, 13, 13, 14, 15, 13, 15, 3, 14, 0, 16, 14, 16, 15, 15, 16, 17, 15, 17, 3, 16, 0, 18, 16, 18, 17, 17, 18, 19, 17, 19, 3, 18, 0, 20, 18, 20, 19, 19, 20, 21, 19, 21, 3, 20, 0, 1, 20, 1, 21, 21, 1, 2, 21, 2, 3]
        rel material:binding = </BranchCoral/Looks/Coral>
        uniform token physics:approximation = "convexHull"
        point3f[] points = [(-8.6736174e-19, 3.469447e-18, 0.005), (0.005267608, -0.0022220598, 0.0068206466), (-0.004745834, 0.041649695, 0.089336686), (-0.0100134425, 0.043871757, 0.08751604), (0.0059077702, 0.0010346093, 0.0051668403), (-0.004105672, 0.044906367, 0.08768288), (0.004291365, 0.0038960928, 0.0034493064), (-0.0057220776, 0.047767848, 0.08596534), (0.0010358038, 0.0052694012, 0.0023240848), (-0.008977639, 0.049141157, 0.08484013), (-0.002615399, 0.0046299775, 0.002220972), (-0.012628841, 0.048501734, 0.08473701), (-0.005267608, 0.0022220598, 0.0031793534), (-0.0152810505, 0.046093814, 0.08569539), (-0.0059077702, -0.0010346093, 0.00483316), (-0.015921213, 0.042837147, 0.0873492), (-0.004291365, -0.0038960928, 0.0065506934), (-0.0143048065, 0.03997566, 0.08906673), (-0.0010358038, -0.0052694012, 0.007675915), (-0.0110492455, 0.038602356, 0.09019195), (0.002615399, -0.0046299775, 0.0077790283), (-0.0073980433, 0.03924178, 0.09029507)]
        uniform token subdivisionScheme = "none"
    }

    def Mesh "Part5" (
        prepend apiSchemas = ["MaterialBindingAPI", "PhysicsCollisionAPI", "PhysicsMeshCollisionAPI"]
    )
    {
        int[] faceVertexCounts = [3, 3, 3, 3, 3, 3, 3, 3, 3, 3, 3, 3, 3, 3, 3, 3, 3, 3, 3, 3, 3, 3, 3, 3, 3, 3, 3, 3, 3, 3, 3, 3]
        int[] faceVertexIndices = [1, 0, 4, 1, 4, 2, 2, 4, 5, 2, 5, 3, 4, 0, 6, 4, 6, 5, 5, 6, 7, 5, 7, 3, 6, 0, 8, 6, 8, 7, 7, 8, 9, 7, 9, 3, 8, 0, 10, 8, 10, 9, 9, 10, 11, 9, 11, 3, 10, 0, 12, 10, 12, 11, 11, 12, 13, 11, 13, 3, 12, 0, 14, 12, 14, 13, 13, 14, 15, 13, 15, 3, 14, 0, 16, 14, 16, 15, 15, 16, 17, 15, 17, 3, 16, 0, 1, 16, 1, 17, 17, 1, 2, 17, 2, 3]
        rel material:binding = </BranchCoral/Looks/Coral>
        uniform token physics:approximation = "convexHull"
        point3f[] points = [(-0.0055073933, 0.024129465, 0.04813382), (-0.0025264453, 0.023627516, 0.050753362), (-0.02654217, 0.034308877, 0.08012916), (-0.029523117, 0.034810826, 0.07750963), (-0.0026331083, 0.026473904, 0.049631186), (-0.026648834, 0.037155263, 0.079006985), (-0.0044234884, 0.02794695, 0.04763187), (-0.028439213, 0.03862831, 0.07700767), (-0.006848805, 0.027183767, 0.045926593), (-0.03086453, 0.03786513, 0.07530239), (-0.008488341, 0.024631416, 0.04551428), (-0.032504067, 0.035312776, 0.074890085), (-0.008381678, 0.021785028, 0.04663646), (-0.032397404, 0.03246639, 0.07601226), (-0.006591298, 0.02031198, 0.04863577), (-0.030607022, 0.03099334, 0.07801157), (-0.0041659814, 0.021075163, 0.050341047), (-0.028181706, 0.031756524, 0.079716854)]
        uniform token subdivisionScheme = "none"
    }

    def Mesh "Part6" (
        prepend apiSchemas = ["MaterialBindingAPI", "PhysicsCollisionAPI", "PhysicsMeshCollisionAPI"]
    )
    {
        int[] faceVertexCounts = [3, 3, 3, 3, 3, 3, 3, 3, 3, 3, 3, 3, 3, 3, 3, 3, 3, 3, 3, 3, 3, 3, 3, 3, 3, 3, 3, 3, 3, 3, 3, 3, 3, 3, 3, 3, 3, 3, 3, 3]
        int[] faceVertexIndices = [1, 0, 4, 1, 4, 2, 2, 4, 5, 2, 5, 3, 4, 0, 6, 4, 6, 5, 5, 6, 7, 5, 7, 3, 6, 0, 8, 6, 8, 7, 7, 8, 9, 7, 9, 3, 8, 0, 10, 8, 10, 9, 9, 10, 11, 9, 11, 3, 10, 0, 12, 10, 12, 11, 11, 12, 13, 11, 13, 3, 12, 0, 14, 12, 14, 13, 13, 14, 15, 13, 15, 3, 14, 0, 16, 14, 16, 15, 15, 16, 17, 15, 17, 3, 16, 0, 18, 16, 18, 17, 17, 18, 19, 17, 19, 3, 18, 0, 20, 18, 20, 19, 19, 20, 21, 19, 21, 3, 20, 0, 1, 20, 1, 21, 21, 1, 2, 21, 2, 3]
        rel material:binding = </BranchCoral/Looks/Coral>
        uniform token physics:approximation = "convexHull"
        point3f[] points = [(-6.938894e-18, 1.7347235e-18, 0.005), (0.0052552405, -0.00076687144, 0.007791837), (-0.03528836, 0.018757896, 0.089472584), (-0.0405436, 0.019524768, 0.08668075), (0.0049899546, 0.002798552, 0.006807888), (-0.035553645, 0.02232332, 0.08848864), (0.0028186757, 0.005295024, 0.005133387), (-0.037724923, 0.024819791, 0.086814135), (-0.00042924145, 0.005768976, 0.0034079368), (-0.04097284, 0.025293745, 0.085088685), (-0.003513203, 0.004039376, 0.0022906004), (-0.044056803, 0.023564145, 0.083971344), (-0.0052552405, 0.00076687144, 0.0022081628), (-0.04579884, 0.02029164, 0.08388891), (-0.0049899546, -0.002798552, 0.0031921118), (-0.045533553, 0.016726216, 0.08487286), (-0.0028186757, -0.005295024, 0.004866613), (-0.043362275, 0.014229745, 0.08654736), (0.00042924145, -0.005768976, 0.0065920632), (-0.040114358, 0.013755792, 0.08827281), (0.003513203, -0.004039376, 0.0077093993), (-0.037030395, 0.015485392, 0.089390144)]
        uniform token subdivisionScheme = "none"
    }

    def Mesh "Part7" (
        prepend apiSchemas = ["MaterialBindingAPI", "PhysicsCollisionAPI", "PhysicsMeshCollisionAPI"]
    )
    {
        int[] faceVertexCounts = [3, 3, 3, 3, 3, 3, 3, 3, 3, 3, 3, 3, 3, 3, 3, 3, 3, 3, 3, 3, 3, 3, 3, 3, 3, 3, 3, 3, 3, 3, 3, 3]
        int[] faceVertexIndices = [1, 0, 4, 1, 4, 2, 2, 4, 5, 2, 5, 3, 4, 0, 6, 4, 6, 5, 5, 6, 7, 5, 7, 3, 6, 0, 8, 6, 8, 7, 7, 8, 9, 7, 9, 3, 8, 0, 10, 8, 10, 9, 9, 10, 11, 9, 11, 3, 10, 0, 12, 10, 12, 11, 11, 12, 13, 11, 13, 3, 12, 0, 14, 12, 14, 13, 13, 14, 15, 13, 15, 3, 14, 0, 16, 14, 16, 15, 15, 16, 17, 15, 17, 3, 16, 0, 1, 16, 1, 17, 17, 1, 2, 17, 2, 3]
        rel material:binding = </BranchCoral/Looks/Coral>
        uniform token physics:approximation = "convexHull"
        point3f[] points = [(-0.022298979, 0.010738622, 0.04767441), (-0.019319918, 0.011314209, 0.05028092), (-0.0426445, -0.0008023224, 0.07961496), (-0.045623563, -0.0013779084, 0.07700845), (-0.021062568, 0.013805937, 0.049924493), (-0.04438715, 0.0016894063, 0.07925853), (-0.023529492, 0.014500875, 0.048249997), (-0.046854075, 0.0023843437, 0.077584036), (-0.025275597, 0.012991936, 0.04623833), (-0.048600182, 0.00087540474, 0.07557237), (-0.025278041, 0.010163036, 0.0450679), (-0.048602626, -0.0019534945, 0.07440194), (-0.023535391, 0.007671308, 0.045424327), (-0.046859972, -0.004445223, 0.074758366), (-0.021068467, 0.0069763702, 0.047098823), (-0.04439305, -0.0051401607, 0.07643286), (-0.019322362, 0.00848531, 0.04911049), (-0.042646945, -0.0036312216, 0.078444526)]
        uniform token subdivisionScheme = "none"
    }

    def Mesh "Part8" (
        prepend apiSchemas = ["MaterialBindingAPI", "PhysicsCollisionAPI", "PhysicsMeshCollisionAPI"]
    )
    {
        int[] faceVertexCounts = [3, 3, 3, 3, 3, 3, 3, 3, 3, 3, 3, 3, 3, 3, 3, 3, 3, 3, 3, 3, 3, 3, 3, 3, 3, 3, 3, 3, 3, 3, 3, 3, 3, 3, 3, 3, 3, 3, 3, 3]
        int[] faceVertexIndices = [1, 0, 4, 1, 4, 2, 2, 4, 5, 2, 5, 3, 4, 0, 6, 4, 6, 5, 5, 6, 7, 5, 7, 3, 6, 0, 8, 6, 8, 7, 7, 8, 9, 7, 9, 3, 8, 0, 10, 8, 10, 9, 9, 10, 11, 9, 11, 3, 10, 0, 12, 10, 12, 11, 11, 12, 13, 11, 13, 3, 12, 0, 14, 12, 14, 13, 13, 14, 15, 13, 15, 3, 14, 0, 16, 14, 16, 15, 15, 16, 17, 15, 17, 3, 16, 0, 18, 16, 18, 17, 17, 18, 19, 17, 19, 3, 18, 0, 20, 18, 20, 19, 19, 20, 21, 19, 21, 3, 20, 0, 1, 20, 1, 21, 21, 1, 2, 21, 2, 3]
        rel material:binding = </BranchCoral/Looks/Coral>
        uniform token physics:approximation = "convexHull"
        point3f[] points = [(3.469447e-18, 0, 0.005), (0.0049784943, 0.00080221787, 0.008251314), (-0.035565104, -0.018722551, 0.07515017), (-0.0405436, -0.019524768, 0.071898855), (0.003173635, 0.0040381006, 0.0081019), (-0.037369963, -0.015486668, 0.075000755), (0.00015655548, 0.005731566, 0.006767666), (-0.040387042, -0.013793202, 0.07366652), (-0.002920323, 0.005235768, 0.0047582434), (-0.043463923, -0.014289, 0.0716571), (-0.0048817373, 0.0027400847, 0.0028411634), (-0.045425337, -0.016784683, 0.06974002), (-0.0049784943, -0.00080221787, 0.001748686), (-0.045522094, -0.020326987, 0.06864754), (-0.003173635, -0.0040381006, 0.0018980999), (-0.043717235, -0.023562869, 0.068796955), (-0.00015655548, -0.005731566, 0.0032323343), (-0.040700156, -0.025256334, 0.07013119), (0.002920323, -0.005235768, 0.005241757), (-0.037623275, -0.024760537, 0.07214061), (0.0048817373, -0.0027400847, 0.0071588363), (-0.03566186, -0.022264853, 0.07405769)]
        uniform token subdivisionScheme = "none"
    }

    def Mesh "Part9" (
        prepend apiSchemas = ["MaterialBindingAPI", "PhysicsCollisionAPI", "PhysicsMeshCollisionAPI"]
    )
    {
        int[] faceVertexCounts = [3, 3, 3, 3, 3, 3, 3, 3, 3, 3, 3, 3, 3, 3, 3, 3, 3, 3, 3, 3, 3, 3, 3, 3, 3, 3, 3, 3, 3, 3, 3, 3]
        int[] faceVertexIndices = [1, 0, 4, 1, 4, 2, 2, 4, 5, 2, 5, 3, 4, 0, 6, 4, 6, 5, 5, 6, 7, 5, 7, 3, 6, 0, 8, 6, 8, 7, 7, 8, 9, 7, 9, 3, 8, 0, 10, 8, 10, 9, 9, 10, 11, 9, 11, 3, 10, 0, 12, 10, 12, 11, 11, 12, 13, 11, 13, 3, 12, 0, 14, 12, 14, 13, 13, 14, 15, 13, 15, 3, 14, 0, 16, 14, 16, 15, 15, 16, 17, 15, 17, 3, 16, 0, 1, 16, 1, 17, 17, 1, 2, 17, 2, 3]
        rel material:binding = </BranchCoral/Looks/Coral>
        uniform token physics:approximation = "convexHull"
        point3f[] points = [(-0.022298979, -0.010738622, 0.03954437), (-0.019354055, -0.0090088975, 0.04162655), (-0.02442361, -0.034799322, 0.07022149), (-0.027368534, -0.03652905, 0.068139315), (-0.022094745, -0.007790237, 0.042239793), (-0.0271643, -0.033580665, 0.07083473), (-0.024955073, -0.008298702, 0.041274097), (-0.030024627, -0.03408913, 0.06986904), (-0.026259497, -0.010236438, 0.039295148), (-0.03132905, -0.036026865, 0.06789009), (-0.025243903, -0.012468348, 0.03746219), (-0.030313458, -0.038258776, 0.06605713), (-0.022503214, -0.013687008, 0.036848947), (-0.027572768, -0.039477434, 0.06544389), (-0.019642886, -0.013178544, 0.037814643), (-0.02471244, -0.03896897, 0.06640959), (-0.018338462, -0.011240806, 0.039793592), (-0.023408016, -0.037031233, 0.06838854)]
        uniform token subdivisionScheme = "none"
    }

    def Mesh "Part10" (
        prepend apiSchemas = ["MaterialBindingAPI", "PhysicsCollisionAPI", "PhysicsMeshCollisionAPI"]
    )
    {
        int[] faceVertexCounts = [3, 3, 3, 3, 3, 3, 3, 3, 3, 3, 3, 3, 3, 3, 3, 3, 3, 3, 3, 3, 3, 3, 3, 3, 3, 3, 3, 3, 3, 3, 3, 3, 3, 3, 3, 3, 3, 3, 3, 3]
        int[] faceVertexIndices = [1, 0, 4, 1, 4, 2, 2, 4, 5, 2, 5, 3, 4, 0, 6, 4, 6, 5, 5, 6, 7, 5, 7, 3, 6, 0, 8, 6, 8, 7, 7, 8, 9, 7, 9, 3, 8, 0, 10, 8, 10, 9, 9, 10, 11, 9, 11, 3, 10, 0, 12, 10, 12, 11, 11, 12, 13, 11, 13, 3, 12, 0, 14, 12, 14, 13, 13, 14, 15, 13, 15, 3, 14, 0, 16, 14, 16, 15, 15, 16, 17, 15, 17, 3, 16, 0, 18, 16, 18, 17, 17, 18, 19, 17, 19, 3, 18, 0, 20, 18, 20, 19, 19, 20, 21, 19, 21, 3, 20, 0, 1, 20, 1, 21, 21, 1, 2, 21, 2, 3]
        rel material:binding = </BranchCoral/Looks/Coral>
        uniform token physics:approximation = "convexHull"
        point3f[] points = [(5.2041704e-18, -3.469447e-18, 0.005), (0.0055375006, 0.0019144693, 0.00629263), (-0.0044759414, -0.041957285, 0.11416617), (-0.0100134425, -0.043871757, 0.11287355), (0.0031561926, 0.004617896, 0.0071710562), (-0.0068572494, -0.03925386, 0.1150446), (-0.0004306738, 0.005557443, 0.0072202133), (-0.010444116, -0.038314313, 0.11509376), (-0.0038530375, 0.004374236, 0.006421324), (-0.0138664795, -0.03949752, 0.114294864), (-0.0058036717, 0.0015202194, 0.005079537), (-0.015817113, -0.042351536, 0.11295308), (-0.0055375006, -0.0019144693, 0.00370737), (-0.015550943, -0.045786224, 0.111580916), (-0.0031561926, -0.004617896, 0.0028289435), (-0.013169635, -0.048489653, 0.110702485), (0.0004306738, -0.005557443, 0.002779787), (-0.009582768, -0.0494292, 0.11065333), (0.0038530375, -0.004374236, 0.0035786761), (-0.0061604045, -0.048245993, 0.11145222), (0.0058036717, -0.0015202194, 0.0049204626), (-0.0042097704, -0.045391977, 0.112794004)]
        uniform token subdivisionScheme = "none"
    }

    def Mesh "Part11" (
        prepend apiSchemas = ["MaterialBindingAPI", "PhysicsCollisionAPI", "PhysicsMeshCollisionAPI"]
    )
    {
        int[] faceVertexCounts = [3, 3, 3, 3, 3, 3, 3, 3, 3, 3, 3, 3, 3, 3, 3, 3, 3, 3, 3, 3, 3, 3, 3, 3, 3, 3, 3, 3, 3, 3, 3, 3]
        int[] faceVertexIndices = [1, 0, 4, 1, 4, 2, 2, 4, 5, 2, 5, 3, 4, 0, 6, 4, 6, 5, 5, 6, 7, 5, 7, 3, 6, 0, 8, 6, 8, 7, 7, 8, 9, 7, 9, 3, 8, 0, 10, 8, 10, 9, 9, 10, 11, 9, 11, 3, 10, 0, 12, 10, 12, 11, 11, 12, 13, 11, 13, 3, 12, 0, 14, 12, 14, 13, 13, 14, 15, 13, 15, 3, 14, 0, 16, 14, 16, 15, 15, 16, 17, 15, 17, 3, 16, 0, 1, 16, 1, 17, 17, 1, 2, 17, 2, 3]
        rel material:binding = </BranchCoral/Looks/Coral>
        uniform token physics:approximation = "convexHull"
        point3f[] points = [(-0.0055073933, -0.024129465, 0.06208045), (-0.0024712456, -0.02519013, 0.059702046), (0.014531706, -0.045233734, 0.090345725), (0.0114955595, -0.044173073, 0.09272413), (-0.0019562677, -0.022541609, 0.061148666), (0.015046684, -0.042585213, 0.091792345), (-0.003521491, -0.020823231, 0.063141115), (0.013481461, -0.040866837, 0.093784794), (-0.006250029, -0.021041602, 0.06451224), (0.010752924, -0.041085206, 0.09515592), (-0.008543541, -0.023068802, 0.064458854), (0.008459412, -0.04311241, 0.095102526), (-0.009058518, -0.025717324, 0.06301223), (0.007944434, -0.04576093, 0.09365591), (-0.0074932952, -0.0274357, 0.061019786), (0.0095096575, -0.047479305, 0.091663465), (-0.0047647576, -0.027217329, 0.059648663), (0.012238195, -0.047260936, 0.09029234)]
        uniform token subdivisionScheme = "none"
    }

    def Mesh "Part12" (
        prepend apiSchemas = ["MaterialBindingAPI", "PhysicsCollisionAPI", "PhysicsMeshCollisionAPI"]
    )
    {
        int[] faceVertexCounts = [3, 3, 3, 3, 3, 3, 3, 3, 3, 3, 3, 3, 3, 3, 3, 3, 3, 3, 3, 3, 3, 3, 3, 3, 3, 3, 3, 3, 3, 3, 3, 3, 3, 3, 3, 3, 3, 3, 3, 3]
        int[] faceVertexIndices = [1, 0, 4, 1, 4, 2, 2, 4, 5, 2, 5, 3, 4, 0, 6, 4, 6, 5, 5, 6, 7, 5, 7, 3, 6, 0, 8, 6, 8, 7, 7, 8, 9, 7, 9, 3, 8, 0, 10, 8, 10, 9, 9, 10, 11, 9, 11, 3, 10, 0, 12, 10, 12, 11, 11, 12, 13, 11, 13, 3, 12, 0, 14, 12, 14, 13, 13, 14, 15, 13, 15, 3, 14, 0, 16, 14, 16, 15, 15, 16, 17, 15, 17, 3, 16, 0, 18, 16, 18, 17, 17, 18, 19, 17, 19, 3, 18, 0, 20, 18, 20, 19, 19, 20, 21, 19, 21, 3, 20, 0, 1, 20, 1, 21, 21, 1, 2, 21, 2, 3]
        rel material:binding = </BranchCoral/Looks/Coral>
        uniform token physics:approximation = "convexHull"
        point3f[] points = [(-3.469447e-18, 0, 0.005), (0.0049750423, -0.0016123365, 0.0020590264), (0.033032082, -0.036794752, 0.06880932), (0.02805704, -0.035182416, 0.0717503), (0.0055661965, 0.0017227908, 0.00356841), (0.033623237, -0.033459626, 0.07031871), (0.0040312526, 0.0043998705, 0.0056246123), (0.032088295, -0.030782547, 0.07237491), (0.0009565075, 0.0053963494, 0.007442234), (0.029013548, -0.029786067, 0.07419253), (-0.002483591, 0.004331606, 0.008327005), (0.02557345, -0.03085081, 0.0750773), (-0.0049750423, 0.0016123365, 0.007940973), (0.023082, -0.03357008, 0.07469127), (-0.0055661965, -0.0017227908, 0.00643159), (0.022490844, -0.036905207, 0.07318188), (-0.0040312526, -0.0043998705, 0.0043753874), (0.024025789, -0.039582286, 0.071125686), (-0.0009565075, -0.0053963494, 0.002557766), (0.027100533, -0.040578768, 0.069308065), (0.002483591, -0.004331606, 0.0016729947), (0.030540632, -0.039514024, 0.06842329)]
        uniform token subdivisionScheme = "none"
    }

    def Mesh "Part13" (
        prepend apiSchemas = ["MaterialBindingAPI", "PhysicsCollisionAPI", "PhysicsMeshCollisionAPI"]
    )
    {
        int[] faceVertexCounts = [3, 3, 3, 3, 3, 3, 3, 3, 3, 3, 3, 3, 3, 3, 3, 3, 3, 3, 3, 3, 3, 3, 3, 3, 3, 3, 3, 3, 3, 3, 3, 3]
        int[] faceVertexIndices = [1, 0, 4, 1, 4, 2, 2, 4, 5, 2, 5, 3, 4, 0, 6, 4, 6, 5, 5, 6, 7, 5, 7, 3, 6, 0, 8, 6, 8, 7, 7, 8, 9, 7, 9, 3, 8, 0, 10, 8, 10, 9, 9, 10, 11, 9, 11, 3, 10, 0, 12, 10, 12, 11, 11, 12, 13, 11, 13, 3, 12, 0, 14, 12, 14, 13, 13, 14, 15, 13, 15, 3, 14, 0, 16, 14, 16, 15, 15, 16, 17, 15, 17, 3, 16, 0, 1, 16, 1, 17, 17, 1, 2, 17, 2, 3]
        rel material:binding = </BranchCoral/Looks/Coral>
        uniform token physics:approximation = "convexHull"
        point3f[] points = [(0.015431372, -0.01935033, 0.039462663), (0.018375946, -0.019314308, 0.0367556), (0.044647835, -0.018517848, 0.06534311), (0.04170326, -0.01855387, 0.068050176), (0.017455492, -0.01649714, 0.03752301), (0.04372738, -0.015700681, 0.06611052), (0.015349336, -0.015351333, 0.03942664), (0.041621223, -0.014554873, 0.06801415), (0.013291236, -0.016548082, 0.041351374), (0.039563123, -0.015751623, 0.06993889), (0.012486799, -0.019386351, 0.042169727), (0.038758688, -0.018589891, 0.07075724), (0.013407254, -0.022203518, 0.041402318), (0.039679144, -0.021407058, 0.06998983), (0.01551341, -0.023349326, 0.039498683), (0.0417853, -0.022552866, 0.0680862), (0.017571509, -0.022152575, 0.037573952), (0.0438434, -0.021356115, 0.06616147)]
        uniform token subdivisionScheme = "none"
    }
}

