#usda 1.0
(
    defaultPrim = "FanAlgae"
    metersPerUnit = 1
    upAxis = "Z"
)

def Xform "FanAlgae"
{
    def "Looks"
    {
        def Material "Leaf0"
        {
            token outputs:surface.connect = </FanAlgae/Looks/Leaf0/Surface.outputs:surface>

            def Shader "Surface"
            {
                uniform token info:id = "UsdPreviewSurface"
                color3f inputs:diffuseColor = (0.12311223, 0.29284602, 0.15230192)
                float inputs:roughness = 0.65
                token outputs:surface
            }
        }

        def Material "Leaf1"
        {
            token outputs:surface.connect = </FanAlgae/Looks/Leaf1/Surface.outputs:surface>

            def Shader "Surface"
            {
                uniform token info:id = "UsdPreviewSurface"
                color3f inputs:diffuseColor = (0.1421769, 0.30353576, 0.22624747)
                float inputs:roughness = 0.65
                token outputs:surface
            }
        }

        def Material "Leaf2"
        {
            token outputs:surface.connect = </FanAlgae/Looks/Leaf2/Surface.outputs:surface>

            def Shader "Surface"
            {
                uniform token info:id = "UsdPreviewSurface"
                color3f inputs:diffuseColor = (0.100848734, 0.2555207, 0.17155254)
                float inputs:roughness = 0.65
                token outputs:surface
            }
        }

        def Material "Leaf3"
        {
            token outputs:surface.connect = </FanAlgae/Looks/Leaf3/Surface.outputs:surface>

            def Shader "Surface"
            {
                uniform token info:id = "UsdPreviewSurface"
                color3f inputs:diffuseColor = (0.12053562, 0.25788715, 0.21497406)
                float inputs:roughness = 0.65
                token outputs:surface
            }
        }

        def Material "Leaf4"
        {
            token outputs:surface.connect = </FanAlgae/Looks/Leaf4/Surface.outputs:surface>

            def Shader "Surface"
            {
                uniform token info:id = "UsdPreviewSurface"
                color3f inputs:diffuseColor = (0.14049494, 0.2963409, 0.19477083)
                float inputs:roughness = 0.65
                token outputs:surface
            }
        }

        def Material "Leaf5"
        {
            token outputs:surface.connect = </FanAlgae/Looks/Leaf5/Surface.outputs:surface>

            def Shader "Surface"
            {
                uniform token info:id = "UsdPreviewSurface"
                color3f inputs:diffuseColor = (0.13782613, 0.30541512, 0.21656887)
                float inputs:roughness = 0.65
                token outputs:surface
            }
        }

        def Material "Leaf6"
        {
            token outputs:surface.connect = </FanAlgae/Looks/Leaf6/Surface.outputs:surface>

            def Shader "Surface"
            {
                uniform token info:id = "UsdPreviewSurface"
                color3f inputs:diffuseColor = (0.098282635, 0.24936341, 0.19706011)
                float inputs:roughness = 0.65
                token outputs:surface
            }
        }
    }

    def Mesh "Blade0" (
        prepend apiSchemas = ["MaterialBindingAPI"]
    )
    {
        uniform bool doubleSided = 1
        int[] faceVertexCounts = [3, 3, 3, 3, 3, 3, 3, 3, 3, 3, 3, 3, 3, 3, 3, 3, 3, 3, 3, 3, 3, 3, 3, 3, 3, 3, 3, 3, 3, 3, 3, 3]
        int[] faceVertexIndices = [0, 1, 2, 2, 3, 4, 4, 5, 6, 6, 7, 8, 8, 9, 10, 10, 11, 12, 12, 13, 14, 14, 15, 16, 16, 17, 18, 18, 19, 20, 20, 21, 22, 22, 23, 24, 24, 25, 26, 26, 27, 28, 28, 29, 30, 30, 31, 32, 1, 3, 2, 3, 5, 4, 5, 7, 6, 7, 9, 8, 9, 11, 10, 11, 13, 12, 13, 15, 14, 15, 17, 16, 17, 19, 18, 19, 21, 20, 21, 23, 22, 23, 25, 24, 25, 27, 26, 27, 29, 28, 29, 31, 30, 31, 32, 32]
        rel material:binding = </FanAlgae/Looks/Leaf0>
        point3f[] points = [(0.0045447866, 0.003330714, 0), (0.010978778, 0.011558793, 0), (0.0037461524, 0.0021191414, 0.008709956), (0.011962042, 0.012625992, 0.008709956), (0.0049859295, 0.003133896, 0.017454566), (0.011276155, 0.011178121, 0.017454566), (0.0036761092, 0.0005076246, 0.025771905), (0.013509125, 0.01308253, 0.025771905), (-0.0005200096, -0.006190262, 0.033685893), (0.018997654, 0.01876981, 0.033685893), (-0.0011633188, -0.00872514, 0.04185079), (0.021302633, 0.020005336, 0.04185079), (0.0037243327, -0.0045672613, 0.050893813), (0.018445913, 0.01425936, 0.050893813), (0.0070442725, -0.0027947288, 0.060607575), (0.017526163, 0.010609986, 0.060607575), (0.004686305, -0.008663847, 0.069932446), (0.02265358, 0.014313517, 0.069932446), (0.0029767293, -0.014084257, 0.07792402), (0.027501866, 0.017279597, 0.07792402), (0.007678277, -0.0116863195, 0.08482302), (0.026308289, 0.012138582, 0.08482302), (0.014354812, -0.0071431636, 0.09207174), (0.023508983, 0.004563605, 0.09207174), (0.016881637, -0.008287329, 0.10105767), (0.025228648, 0.0023872044, 0.10105767), (0.017580513, -0.012149648, 0.11167825), (0.029145524, 0.002640212, 0.11167825), (0.02138747, -0.012417693, 0.12218196), (0.030323574, -0.0009897988, 0.12218196), (0.027041843, -0.010703668, 0.13064934), (0.030023472, -0.0068906243, 0.13064934), (0.031394422, -0.011034919, 0.13686489)]
        uniform token subdivisionScheme = "none"
    }

    def Mesh "Blade1" (
        prepend apiSchemas = ["MaterialBindingAPI"]
    )
    {
        uniform bool doubleSided = 1
        int[] faceVertexCounts = [3, 3, 3, 3, 3, 3, 3, 3, 3, 3, 3, 3, 3, 3, 3, 3, 3, 3, 3, 3, 3, 3, 3, 3, 3, 3, 3, 3, 3, 3, 3, 3]
        int[] faceVertexIndices = [0, 1, 2, 2, 3, 4, 4, 5, 6, 6, 7, 8, 8, 9, 10, 10, 11, 12, 12, 13, 14, 14, 15, 16, 16, 17, 18, 18, 19, 20, 20, 21, 22, 22, 23, 24, 24, 25, 26, 26, 27, 28, 28, 29, 30, 30, 31, 32, 1, 3, 2, 3, 5, 4, 5, 7, 6, 7, 9, 8, 9, 11, 10, 11, 13, 12, 13, 15, 14, 15, 17, 16, 17, 19, 18, 19, 21, 20, 21, 23, 22, 23, 25, 24, 25, 27, 26, 27, 29, 28, 29, 31, 30, 31, 32, 32]
        rel material:binding = </FanAlgae/Looks/Leaf1>
        point3f[] points = [(0.007012473, 0.00069112796, 0), (0.017456904, 0.00058451865, 0), (0.0055649797, 0.0005887093, 0.011247503), (0.018902006, 0.00045257452, 0.011247503), (0.007124377, 0.0002212113, 0.022217661), (0.017335432, 0.00011698417, 0.022217661), (0.0042428537, -0.0003353442, 0.0328219), (0.020204993, -0.0004982743, 0.0328219), (-0.0036261645, -0.0010753782, 0.043569658), (0.028057266, -0.0013987799, 0.043569658), (-0.0060299383, -0.0021055846, 0.05503517), (0.03043951, -0.0024778387, 0.05503517), (0.00024270534, -0.003458741, 0.06709567), (0.024140552, -0.003702673, 0.06709567), (0.003668344, -0.0050172242, 0.078841574), (0.020683814, -0.005190906, 0.078841574), (-0.0024251887, -0.00671293, 0.089415364), (0.026741464, -0.007010642, 0.089415364), (-0.0077682785, -0.008650683, 0.0990064), (0.032043885, -0.009057057, 0.0990064), (-0.0030061647, -0.010925969, 0.10891079), (0.02723632, -0.011234663, 0.10891079), (0.004659881, -0.013465284, 0.120400205), (0.019520039, -0.013616966, 0.120400205), (0.0052875117, -0.016167143, 0.13338652), (0.018837387, -0.016305452, 0.13338652), (0.0026456846, -0.019070018, 0.14625159), (0.02141941, -0.019261647, 0.14625159), (0.00474717, -0.022255696, 0.15721421), (0.019253334, -0.022403764, 0.15721421), (0.009545494, -0.025703289, 0.16608287), (0.014385637, -0.025752693, 0.16608287), (0.011928486, -0.029360615, 0.1746854)]
        uniform token subdivisionScheme = "none"
    }

    def Mesh "Blade2" (
        prepend apiSchemas = ["MaterialBindingAPI"]
    )
    {
        uniform bool doubleSided = 1
        int[] faceVertexCounts = [3, 3, 3, 3, 3, 3, 3, 3, 3, 3, 3, 3, 3, 3, 3, 3, 3, 3, 3, 3, 3, 3, 3, 3, 3, 3, 3, 3, 3, 3, 3, 3]
        int[] faceVertexIndices = [0, 1, 2, 2, 3, 4, 4, 5, 6, 6, 7, 8, 8, 9, 10, 10, 11, 12, 12, 13, 14, 14, 15, 16, 16, 17, 18, 18, 19, 20, 20, 21, 22, 22, 23, 24, 24, 25, 26, 26, 27, 28, 28, 29, 30, 30, 31, 32, 1, 3, 2, 3, 5, 4, 5, 7, 6, 7, 9, 8, 9, 11, 10, 11, 13, 12, 13, 15, 14, 15, 17, 16, 17, 19, 18, 19, 21, 20, 21, 23, 22, 23, 25, 24, 25, 27, 26, 27, 29, 28, 29, 31, 30, 31, 32, 32]
        rel material:binding = </FanAlgae/Looks/Leaf2>
        point3f[] points = [(-0.020354573, 0.016393954, 0), (-0.010222459, 0.01893123, 0), (-0.021729155, 0.015928926, 0.005766665), (-0.008790944, 0.019168904, 0.005766665), (-0.020127507, 0.015967593, 0.011198977), (-0.0102217905, 0.018448174, 0.011198977), (-0.022774728, 0.0147006465, 0.016663145), (-0.007289899, 0.018578345, 0.016663145), (-0.03020105, 0.011995311, 0.022685753), (0.00053496036, 0.0196922, 0.022685753), (-0.032266296, 0.010390879, 0.029233057), (0.0031126149, 0.01925044, 0.029233057), (-0.025855321, 0.010667443, 0.035545178), (-0.0026720865, 0.016472971, 0.035545178), (-0.022146964, 0.010025609, 0.04084662), (-0.005640303, 0.014159195, 0.04084662), (-0.027613873, 0.006844499, 0.04527035), (0.0006806167, 0.0139299845, 0.04527035), (-0.032293525, 0.0036189219, 0.049965404), (0.006328147, 0.013290532, 0.049965404), (-0.027110893, 0.0026214381, 0.05609166), (0.0022272596, 0.009968276, 0.05609166), (-0.01905191, 0.0021026363, 0.06358097), (-0.0046361103, 0.0057126298, 0.06358097), (-0.017761616, -0.00035278875, 0.07095063), (-0.0046169204, 0.0029388964, 0.07095063), (-0.019583764, -0.00382924, 0.07655461), (-0.0013714244, 0.0007314801, 0.07655461), (-0.01674518, -0.0063801673, 0.08021969), (-0.0026727899, -0.0028561698, 0.08021969), (-0.011231147, -0.008502722, 0.083658345), (-0.006535737, -0.0073269014, 0.083658345), (-0.008000965, -0.011438809, 0.08906125)]
        uniform token subdivisionScheme = "none"
    }

    def Mesh "Blade3" (
        prepend apiSchemas = ["MaterialBindingAPI"]
    )
    {
        uniform bool doubleSided = 1
        int[] faceVertexCounts = [3, 3, 3, 3, 3, 3, 3, 3, 3, 3, 3, 3, 3, 3, 3, 3, 3, 3, 3, 3, 3, 3, 3, 3, 3, 3, 3, 3, 3, 3, 3, 3]
        int[] faceVertexIndices = [0, 1, 2, 2, 3, 4, 4, 5, 6, 6, 7, 8, 8, 9, 10, 10, 11, 12, 12, 13, 14, 14, 15, 16, 16, 17, 18, 18, 19, 20, 20, 21, 22, 22, 23, 24, 24, 25, 26, 26, 27, 28, 28, 29, 30, 30, 31, 32, 1, 3, 2, 3, 5, 4, 5, 7, 6, 7, 9, 8, 9, 11, 10, 11, 13, 12, 13, 15, 14, 15, 17, 16, 17, 19, 18, 19, 21, 20, 21, 23, 22, 23, 25, 24, 25, 27, 26, 27, 29, 28, 29, 31, 30, 31, 32, 32]
        rel material:binding = </FanAlgae/Looks/Leaf3>
        point3f[] points = [(0.0017036552, 0.0048240256, 0), (-0.0065192273, -0.0016166039, 0), (0.0027700616, 0.0058081513, 0.007685819), (-0.007730155, -0.002416216, 0.007685819), (0.0013227437, 0.005121096, 0.01528768), (-0.0067164013, -0.0011756204, 0.01528768), (0.00322535, 0.0073556025, 0.023289884), (-0.009341614, -0.0024875598, 0.023289884), (0.008908197, 0.01284872, 0.03175202), (-0.016036112, -0.0066890833, 0.03175202), (0.010141863, 0.015154696, 0.040063392), (-0.01857047, -0.0073344386, 0.040063392), (0.004398195, 0.012293338, 0.04752564), (-0.014416538, -0.0024434326, 0.04752564), (0.0007495644, 0.011370642, 0.05421033), (-0.012646685, 0.0008779368, 0.05421033), (0.0044489563, 0.016501049, 0.061118685), (-0.0185139, -0.0014847674, 0.061118685), (0.007411121, 0.021351727, 0.06930298), (-0.023932928, -0.0031987173, 0.06930298), (0.0022710713, 0.020154, 0.07872049), (-0.021538785, 0.0015047644, 0.07872049), (-0.0053016436, 0.017348582, 0.0880259), (-0.01700102, 0.008184964, 0.0880259), (-0.0074794316, 0.019066488, 0.0957051), (-0.018147225, 0.010710865, 0.0957051), (-0.007229585, 0.022983568, 0.10159757), (-0.022010107, 0.011406622, 0.10159757), (-0.010860546, 0.024158688, 0.10729728), (-0.022281224, 0.015213364, 0.10729728), (-0.016761128, 0.023853824, 0.11484628), (-0.020571763, 0.020869117, 0.11484628), (-0.020906527, 0.025221428, 0.12478399)]
        uniform token subdivisionScheme = "none"
    }

    def Mesh "Blade4" (
        prepend apiSchemas = ["MaterialBindingAPI"]
    )
    {
        uniform bool doubleSided = 1
        int[] faceVertexCounts = [3, 3, 3, 3, 3, 3, 3, 3, 3, 3, 3, 3, 3, 3, 3, 3, 3, 3, 3, 3, 3, 3, 3, 3, 3, 3, 3, 3, 3, 3, 3, 3]
        int[] faceVertexIndices = [0, 1, 2, 2, 3, 4, 4, 5, 6, 6, 7, 8, 8, 9, 10, 10, 11, 12, 12, 13, 14, 14, 15, 16, 16, 17, 18, 18, 19, 20, 20, 21, 22, 22, 23, 24, 24, 25, 26, 26, 27, 28, 28, 29, 30, 30, 31, 32, 1, 3, 2, 3, 5, 4, 5, 7, 6, 7, 9, 8, 9, 11, 10, 11, 13, 12, 13, 15, 14, 15, 17, 16, 17, 19, 18, 19, 21, 20, 21, 23, 22, 23, 25, 24, 25, 27, 26, 27, 29, 28, 29, 31, 30, 31, 32, 32]
        rel material:binding = </FanAlgae/Looks/Leaf4>
        point3f[] points = [(-0.01968409, 0.02381499, 0), (-0.0126374485, 0.016105102, 0), (-0.020746376, 0.02480356, 0.0072024977), (-0.011748163, 0.014958412, 0.0072024977), (-0.019951366, 0.023412613, 0.014648622), (-0.013062181, 0.015875, 0.014648622), (-0.022323942, 0.025139986, 0.022495503), (-0.011554617, 0.013357027, 0.022495503), (-0.028232863, 0.030389152, 0.03028095), (-0.006856712, 0.007001024, 0.03028095), (-0.030625887, 0.031444088, 0.037378784), (-0.006020709, 0.00452301, 0.037378784), (-0.0273365, 0.025934367, 0.043794233), (-0.011213121, 0.0082934145, 0.043794233), (-0.026139317, 0.022366367, 0.05038013), (-0.014659334, 0.009805859, 0.05038013), (-0.03153591, 0.02566536, 0.05808543), (-0.011857776, 0.004135071, 0.05808543), (-0.036597583, 0.028250502, 0.0668982), (-0.009737143, -0.0011381075, 0.0668982), (-0.03501287, 0.023216285, 0.075612366), (-0.014608897, 0.0008918365, 0.075612366), (-0.03164033, 0.015878553, 0.08284236), (-0.02161449, 0.004909056, 0.08284236), (-0.033187844, 0.013576562, 0.08843472), (-0.024046026, 0.0035742926, 0.08843472), (-0.037112586, 0.01352814, 0.09386199), (-0.024446344, -0.00033027842, 0.09386199), (-0.0380085, 0.009818408, 0.10101987), (-0.028221492, -0.0008897769, 0.10101987), (-0.0372563, 0.003958032, 0.11040253), (-0.03399076, 0.0003851272, 0.11040253), (-0.038305067, -0.0002792757, 0.120402195)]
        uniform token subdivisionScheme = "none"
    }

    def Mesh "Blade5" (
        prepend apiSchemas = ["MaterialBindingAPI"]
    )
    {
        uniform bool doubleSided = 1
        int[] faceVertexCounts = [3, 3, 3, 3, 3, 3, 3, 3, 3, 3, 3, 3, 3, 3, 3, 3, 3, 3, 3, 3, 3, 3, 3, 3, 3, 3, 3, 3, 3, 3, 3, 3]
        int[] faceVertexIndices = [0, 1, 2, 2, 3, 4, 4, 5, 6, 6, 7, 8, 8, 9, 10, 10, 11, 12, 12, 13, 14, 14, 15, 16, 16, 17, 18, 18, 19, 20, 20, 21, 22, 22, 23, 24, 24, 25, 26, 26, 27, 28, 28, 29, 30, 30, 31, 32, 1, 3, 2, 3, 5, 4, 5, 7, 6, 7, 9, 8, 9, 11, 10, 11, 13, 12, 13, 15, 14, 15, 17, 16, 17, 19, 18, 19, 21, 20, 21, 23, 22, 23, 25, 24, 25, 27, 26, 27, 29, 28, 29, 31, 30, 31, 32, 32]
        rel material:binding = </FanAlgae/Looks/Leaf5>
        point3f[] points = [(0.018333932, 0.000840179, 0), (0.01958047, 0.011210504, 0), (0.018277667, -0.00060984166, 0.010640629), (0.019869436, 0.0126325535, 0.010640629), (0.018813258, 0.0009000973, 0.02162848), (0.020031944, 0.011038701, 0.02162848), (0.019051813, -0.0020249705, 0.032649048), (0.020956889, 0.013823913, 0.032649048), (0.018928098, -0.009927741, 0.043143295), (0.022709504, 0.021530887, 0.043143295), (0.019689642, -0.012429642, 0.053045273), (0.024042258, 0.023781046, 0.053045273), (0.0217197, -0.006342281, 0.06305898), (0.0245719, 0.017386004, 0.06305898), (0.023642955, -0.0031073214, 0.07403444), (0.025673745, 0.01378742, 0.07403444), (0.024663085, -0.009349588, 0.08599586), (0.028144114, 0.01961012, 0.08599586), (0.026005765, -0.014872332, 0.097878076), (0.030757332, 0.024657356, 0.097878076), (0.028787483, -0.010387168, 0.10842054), (0.032396913, 0.01964074, 0.10842054), (0.03214877, -0.0030442714, 0.11747129), (0.033922326, 0.011710449, 0.11747129), (0.03490301, -0.0027154465, 0.12637861), (0.036520183, 0.010738289, 0.12637861), (0.037500028, -0.005658478, 0.13689427), (0.039740663, 0.0129820425, 0.13689427), (0.04089614, -0.0039174473, 0.1494728), (0.042627446, 0.010485792, 0.1494728), (0.04484711, 0.00047569035, 0.16260615), (0.045424778, 0.005281491, 0.16260615), (0.048742794, 0.0024450384, 0.1740175)]
        uniform token subdivisionScheme = "none"
    }

    def Mesh "Blade6" (
        prepend apiSchemas = ["MaterialBindingAPI"]
    )
    {
        uniform bool doubleSided = 1
        int[] faceVertexCounts = [3, 3, 3, 3, 3, 3, 3, 3, 3, 3, 3, 3, 3, 3, 3, 3, 3, 3, 3, 3, 3, 3, 3, 3, 3, 3, 3, 3, 3, 3, 3, 3]
        int[] faceVertexIndices = [0, 1, 2, 2, 3, 4, 4, 5, 6, 6, 7, 8, 8, 9, 10, 10, 11, 12, 12, 13, 14, 14, 15, 16, 16, 17, 18, 18, 19, 20, 20, 21, 22, 22, 23, 24, 24, 25, 26, 26, 27, 28, 28, 29, 30, 30, 31, 32, 1, 3, 2, 3, 5, 4, 5, 7, 6, 7, 9, 8, 9, 11, 10, 11, 13, 12, 13, 15, 14, 15, 17, 16, 17, 19, 18, 19, 21, 20, 21, 23, 22, 23, 25, 24, 25, 27, 26, 27, 29, 28, 29, 31, 30, 31, 32, 32]
        rel material:binding = </FanAlgae/Looks/Leaf6>
        point3f[] points = [(0.019433433, -0.011703206, 0), (0.008988781, -0.011620977, 0), (0.020880682, -0.011597409, 0.007313309), (0.0075433766, -0.011492406, 0.007313309), (0.019320432, -0.011233551, 0.014758202), (0.009109163, -0.01115316, 0.014758202), (0.022200648, -0.010670272, 0.02183769), (0.006238172, -0.010544602, 0.02183769), (0.030067917, -0.0099118715, 0.028409872), (-0.0016161812, -0.009662427, 0.028409872), (0.03246928, -0.008876056, 0.035029653), (-0.0040009376, -0.008588932, 0.035029653), (0.026193496, -0.007537546, 0.04245256), (0.0022951441, -0.007349398, 0.04245256), (0.022764228, -0.005987063, 0.050744284), (0.0057483986, -0.0058531, 0.050744284), (0.028853785, -0.0042771385, 0.05898205), (-0.00031348257, -0.004047509, 0.05898205), (0.03419234, -0.0023269188, 0.066026755), (-0.0056206672, -0.002013477, 0.066026755), (0.029424926, -0.00006275419, 0.071722314), (-0.0008181975, 0.0001753453, 0.071722314), (0.021752974, 0.0024586597, 0.077290095), (0.006892503, 0.0025756538, 0.077290095), (0.021119038, 0.0051590465, 0.08434052), (0.0075688767, 0.005265725, 0.08434052), (0.02375408, 0.008068079, 0.09329402), (0.0049799616, 0.008215886, 0.09329402), (0.021645166, 0.011248844, 0.10274605), (0.007138696, 0.011363051, 0.10274605), (0.016838808, 0.014685226, 0.11057283), (0.011998563, 0.014723333, 0.11057283), (0.014447285, 0.01833698, 0.11592183)]
        uniform token subdivisionScheme = "none"
    }
}

