#usda 1.0
(
    defaultPrim = "PlateCoral"
    metersPerUnit = 1
    upAxis = "Z"
)

def Xform "PlateCoral"
{
    def "Looks"
    {
        def Material "Coral"
        {
            token outputs:surface.connect = </PlateCoral/Looks/Coral/Surface.outputs:surface>

            def Shader "Surface"
            {
                uniform token info:id = "UsdPreviewSurface"
                color3f inputs:diffuseColor = (0.44, 0.3, 0.23)
                float inputs:roughness = 0.9
                token outputs:surface
            }
        }
    }

    def Mesh "Part0" (
        prepend apiSchemas = ["MaterialBindingAPI", "PhysicsCollisionAPI", "PhysicsMeshCollisionAPI"]
    )
    {
        int[] faceVertexCounts = [3, 3, 3, 3, 3, 3, 3, 3, 3, 3, 3, 3, 3, 3, 3, 3, 3, 3, 3, 3, 3, 3, 3, 3, 3, 3, 3, 3, 3, 3, 3, 3, 3, 3, 3, 3, 3, 3, 3, 3, 3, 3, 3, 3, 3, 3, 3, 3, 3, 3, 3, 3, 3, 3, 3, 3, 3, 3, 3, 3, 3, 3, 3, 3, 3, 3, 3, 3, 3, 3, 3, 3, 3, 3, 3, 3, 3, 3, 3, 3, 3, 3, 3, 3, 3, 3, 3, 3, 3, 3, 3, 3, 3, 3, 3, 3, 3, 3, 3, 3, 3, 3, 3, 3, 3, 3, 3, 3, 3, 3, 3, 3, 3, 3, 3, 3, 3, 3, 3, 3, 3, 3, 3, 3, 3, 3, 3, 3, 3, 3, 3, 3, 3, 3, 3, 3, 3, 3, 3, 3, 3, 3, 3, 3, 3, 3, 3, 3, 3, 3, 3, 3, 3, 3, 3, 3, 3, 3, 3, 3, 3, 3, 3, 3, 3, 3, 3, 3, 3, 3, 3, 3, 3, 3, 3, 3, 3, 3, 3, 3, 3, 3, 3, 3, 3, 3, 3, 3, 3, 3, 3, 3, 3, 3, 3, 3, 3, 3, 3, 3, 3, 3, 3, 3, 3, 3, 3, 3, 3, 3, 3, 3, 3, 3, 3, 3, 3, 3, 3, 3, 3, 3, 3, 3, 3, 3, 3, 3, 3, 3, 3, 3, 3, 3, 3, 3, 3, 3, 3, 3, 3, 3, 3, 3, 3, 3, 3, 3, 3, 3, 3, 3, 3, 3, 3, 3, 3, 3, 3, 3, 3, 3, 3, 3, 3, 3, 3, 3, 3, 3, 3, 3, 3, 3, 3, 3, 3, 3, 3, 3, 3, 3, 3, 3, 3, 3, 3, 3, 3, 3, 3, 3, 3, 3, 3, 3, 3, 3, 3, 3, 3, 3, 3, 3, 3, 3, 3, 3, 3, 3, 3, 3, 3, 3, 3, 3, 3, 3, 3, 3]
        int[] faceVertexIndices = [0, 137, 53, 137, 37, 139, 53, 139, 16, 137, 139, 53, 37, 138, 154, 138, 11, 151, 154, 151, 40, 138, 151, 154, 16, 152, 54, 152, 40, 150, 54, 150, 5, 152, 150, 54, 37, 154, 139, 154, 40, 152, 139, 152, 16, 154, 152, 139, 0, 53, 42, 53, 16, 55, 42, 55, 12, 53, 55, 42, 16, 54, 59, 54, 5, 57, 59, 57, 17, 54, 57, 59, 12, 58, 43, 58, 17, 56, 43, 56, 1, 58, 56, 43, 16, 59, 55, 59, 17, 58, 55, 58, 12, 59, 58, 55, 0, 42, 69, 42, 12, 71, 69, 71, 21, 42, 71, 69, 12, 43, 74, 43, 1, 72, 74, 72, 22, 43, 72, 74, 21, 75, 70, 75, 22, 73, 70, 73, 7, 75, 73, 70, 12, 74, 71, 74, 22, 75, 71, 75, 21, 74, 75, 71, 0, 69, 120, 69, 21, 122, 120, 122, 33, 69, 122, 120, 21, 70, 133, 70, 7, 131, 133, 131, 36, 70, 131, 133, 33, 135, 121, 135, 36, 132, 121, 132, 10, 135, 132, 121, 21, 133, 122, 133, 36, 135, 122, 135, 33, 133, 135, 122, 0, 120, 137, 120, 33, 140, 137, 140, 37, 120, 140, 137, 33, 121, 158, 121, 10, 156, 158, 156, 41, 121, 156, 158, 37, 160, 138, 160, 41, 157, 138, 157, 11, 160, 157, 138, 33, 158, 140, 158, 41, 160, 140, 160, 37, 158, 160, 140, 1, 56, 95, 56, 17, 97, 95, 97, 28, 56, 97, 95, 17, 57, 110, 57, 5, 108, 110, 108, 31, 57, 108, 110, 28, 112, 96, 112, 31, 109, 96, 109, 9, 112, 109, 96, 17, 110, 97, 110, 31, 112, 97, 112, 28, 110, 112, 97, 5, 150, 61, 150, 40, 153, 61, 153, 18, 150, 153, 61, 40, 151, 155, 151, 11, 146, 155, 146, 39, 151, 146, 155, 18, 148, 60, 148, 39, 145, 60, 145, 4, 148, 145, 60, 40, 155, 153, 155, 39, 148, 153, 148, 18, 155, 148, 153, 11, 157, 142, 157, 41, 161, 142, 161, 38, 157, 161, 142, 41, 156, 159, 156, 10, 124, 159, 124, 34, 156, 124, 159, 38, 144, 141, 144, 34, 123, 141, 123, 2, 144, 123, 141, 41, 159, 161, 159, 34, 144, 161, 144, 38, 159, 144, 161, 10, 132, 127, 132, 36, 136, 127, 136, 35, 132, 136, 127, 36, 131, 134, 131, 7, 77, 134, 77, 23, 131, 77, 134, 35, 129, 126, 129, 23, 76, 126, 76, 6, 129, 76, 126, 36, 134, 136, 134, 23, 129, 136, 129, 35, 134, 129, 136, 7, 73, 89, 73, 22, 91, 89, 91, 27, 73, 91, 89, 22, 72, 80, 72, 1, 78, 80, 78, 24, 72, 78, 80, 27, 93, 90, 93, 24, 79, 90, 79, 8, 93, 79, 90, 22, 80, 91, 80, 24, 93, 91, 93, 27, 80, 93, 91, 3, 99, 49, 99, 29, 101, 49, 101, 15, 99, 101, 49, 29, 100, 107, 100, 9, 104, 107, 104, 30, 100, 104, 107, 15, 105, 50, 105, 30, 103, 50, 103, 4, 105, 103, 50, 29, 107, 101, 107, 30, 105, 101, 105, 15, 107, 105, 101, 3, 49, 45, 49, 15, 51, 45, 51, 13, 49, 51, 45, 15, 50, 52, 50, 4, 47, 52, 47, 14, 50, 47, 52, 13, 48, 44, 48, 14, 46, 44, 46, 2, 48, 46, 44, 15, 52, 51, 52, 14, 48, 51, 48, 13, 52, 48, 51, 3, 45, 65, 45, 13, 67, 65, 67, 20, 45, 67, 65, 13, 44, 64, 44, 2, 62, 64, 62, 19, 44, 62, 64, 20, 68, 66, 68, 19, 63, 66, 63, 6, 68, 63, 66, 13, 64, 67, 64, 19, 68, 67, 68, 20, 64, 68, 67, 3, 65, 81, 65, 20, 83, 81, 83, 25, 65, 83, 81, 20, 66, 86, 66, 6, 84, 86, 84, 26, 66, 84, 86, 25, 88, 82, 88, 26, 85, 82, 85, 8, 88, 85, 82, 20, 86, 83, 86, 26, 88, 83, 88, 25, 86, 88, 83, 3, 81, 99, 81, 25, 102, 99, 102, 29, 81, 102, 99, 25, 82, 117, 82, 8, 114, 117, 114, 32, 82, 114, 117, 29, 119, 100, 119, 32, 115, 100, 115, 9, 119, 115, 100, 25, 117, 102, 117, 32, 119, 102, 119, 29, 117, 119, 102, 4, 103, 60, 103, 30, 106, 60, 106, 18, 103, 106, 60, 30, 104, 113, 104, 9, 109, 113, 109, 31, 104, 109, 113, 18, 111, 61, 111, 31, 108, 61, 108, 5, 111, 108, 61, 30, 113, 106, 113, 31, 111, 106, 111, 18, 113, 111, 106, 2, 46, 141, 46, 14, 143, 141, 143, 38, 46, 143, 141, 14, 47, 147, 47, 4, 145, 147, 145, 39, 47, 145, 147, 38, 149, 142, 149, 39, 146, 142, 146, 11, 149, 146, 142, 14, 147, 143, 147, 39, 149, 143, 149, 38, 147, 149, 143, 6, 63, 126, 63, 19, 128, 126, 128, 35, 63, 128, 126, 19, 62, 125, 62, 2, 123, 125, 123, 34, 62, 123, 125, 35, 130, 127, 130, 34, 124, 127, 124, 10, 130, 124, 127, 19, 125, 128, 125, 34, 130, 128, 130, 35, 125, 130, 128, 8, 85, 90, 85, 26, 94, 90, 94, 27, 85, 94, 90, 26, 84, 87, 84, 6, 76, 87, 76, 23, 84, 76, 87, 27, 92, 89, 92, 23, 77, 89, 77, 7, 92, 77, 89, 26, 87, 94, 87, 23, 92, 94, 92, 27, 87, 92, 94, 9, 115, 96, 115, 32, 118, 96, 118, 28, 115, 118, 96, 32, 114, 116, 114, 8, 79, 116, 79, 24, 114, 79, 116, 28, 98, 95, 98, 24, 78, 95, 78, 1, 98, 78, 95, 32, 116, 118, 116, 24, 98, 118, 98, 28, 116, 98, 118]
        rel material:binding = </PlateCoral/Looks/Coral>
        uniform token physics:approximation = "convexHull"
        point3f[] points = [(-0.035107307, 0.04305266, 0.008), (0.011157031, 0.04305266, 0.008), (-0.035107307, -0.016492898, 0.008), (0.011157031, -0.016492898, 0.008), (-0.0119751375, -0.005120709, 0.014805206), (-0.0119751375, 0.03168047, 0.014805206), (-0.0119751375, -0.005120709, 0.0011947935), (-0.0119751375, 0.03168047, 0.0011947935), (0.025453499, 0.01327988, 0.0037941511), (0.025453499, 0.01327988, 0.0122058485), (-0.04940377, 0.01327988, 0.0037941511), (-0.04940377, 0.01327988, 0.0122058485), (-0.0119751375, 0.04827988, 0.008), (-0.0119751375, -0.02172012, 0.008), (-0.025571885, -0.015035715, 0.012), (0.0016216104, -0.015035715, 0.012), (-0.025571885, 0.041595474, 0.012), (0.0016216104, 0.041595474, 0.012), (-0.0119751375, 0.01327988, 0.016), (-0.025571885, -0.015035715, 0.004), (0.0016216104, -0.015035715, 0.004), (-0.025571885, 0.041595474, 0.004), (0.0016216104, 0.041595474, 0.004), (-0.0119751375, 0.01327988, 0), (0.02362161, 0.03077988, 0.005527864), (0.02362161, -0.00422012, 0.005527864), (0.010024862, 0.0024642854, 0.001527864), (0.010024862, 0.024095476, 0.001527864), (0.02362161, 0.03077988, 0.010472136), (0.02362161, -0.00422012, 0.010472136), (0.010024862, 0.0024642854, 0.014472136), (0.010024862, 0.024095476, 0.014472136), (0.032024864, 0.01327988, 0.008), (-0.047571886, 0.03077988, 0.005527864), (-0.047571886, -0.00422012, 0.005527864), (-0.03397514, 0.0024642854, 0.001527864), (-0.03397514, 0.024095476, 0.001527864), (-0.047571886, 0.03077988, 0.010472136), (-0.047571886, -0.00422012, 0.010472136), (-0.03397514, 0.0024642854, 0.014472136), (-0.03397514, 0.024095476, 0.014472136), (-0.05597514, 0.01327988, 0.008), (-0.023998864, 0.04694772, 0.008), (0.00004858985, 0.04694772, 0.008), (-0.023998864, -0.020387962, 0.008), (0.00004858985, -0.020387962, 0.008), (-0.031066235, -0.016913516, 0.010079135), (-0.019042507, -0.011002436, 0.013616372), (-0.01912337, -0.020007098, 0.010102925), (0.007115959, -0.016913516, 0.010079135), (-0.0049077678, -0.011002436, 0.013616372), (-0.0048269043, -0.020007098, 0.010102925), (-0.0119751375, -0.016492898, 0.0122058485), (-0.031066235, 0.043473277, 0.010079135), (-0.019042507, 0.037562195, 0.013616372), (-0.01912337, 0.04656686, 0.010102925), (0.007115959, 0.043473277, 0.010079135), (-0.0049077678, 0.037562195, 0.013616372), (-0.0048269043, 0.04656686, 0.010102925), (-0.0119751375, 0.04305266, 0.0122058485), (-0.0119751375, 0.0037155515, 0.015695507), (-0.0119751375, 0.022844208, 0.015695507), (-0.031066235, -0.016913516, 0.0059208646), (-0.019042507, -0.011002436, 0.0023836284), (-0.01912337, -0.020007098, 0.0058970754), (0.007115959, -0.016913516, 0.0059208646), (-0.0049077678, -0.011002436, 0.0023836284), (-0.0048269043, -0.020007098, 0.0058970754), (-0.0119751375, -0.016492898, 0.0037941511), (-0.031066235, 0.043473277, 0.0059208646), (-0.019042507, 0.037562195, 0.0023836284), (-0.01912337, 0.04656686, 0.0058970754), (0.007115959, 0.043473277, 0.0059208646), (-0.0049077678, 0.037562195, 0.0023836284), (-0.0048269043, 0.04656686, 0.0058970754), (-0.0119751375, 0.04305266, 0.0037941511), (-0.0119751375, 0.0037155515, 0.00030449315), (-0.0119751375, 0.022844208, 0.00030449315), (0.018551204, 0.037851505, 0.006715024), (0.025982276, 0.022376098, 0.0045288913), (0.013887414, 0.037366565, 0.0045973966), (0.018551204, -0.011291745, 0.006715024), (0.025982276, 0.004183663, 0.0045288913), (0.013887414, -0.010806804, 0.0045973966), (-0.0005398932, -0.0019062198, 0.0010986521), (0.018914906, 0.0076581086, 0.0024497563), (0.0067391805, -0.0072926036, 0.0024944723), (-0.00040905297, 0.0075937854, 0.00039154786), (0.018305264, -0.0016065091, 0.003297718), (-0.0005398932, 0.02846598, 0.0010986521), (0.018914906, 0.018901652, 0.0024497563), (0.0067391805, 0.033852365, 0.0024944723), (-0.00040905297, 0.018965974, 0.00039154786), (0.018305264, 0.02816627, 0.003297718), (0.011157031, 0.01327988, 0.0011947935), (0.018551204, 0.037851505, 0.009284976), (0.025982276, 0.022376098, 0.0114711085), (0.013887414, 0.037366565, 0.011402603), (0.025453499, 0.03168047, 0.008), (0.018551204, -0.011291745, 0.009284976), (0.025982276, 0.004183663, 0.0114711085), (0.013887414, -0.010806804, 0.011402603), (0.025453499, -0.005120709, 0.008), (-0.0005398932, -0.0019062198, 0.014901347), (0.018914906, 0.0076581086, 0.013550244), (0.0067391805, -0.0072926036, 0.013505528), (-0.00040905297, 0.0075937854, 0.015608452), (0.018305264, -0.0016065091, 0.012702282), (-0.0005398932, 0.02846598, 0.014901347), (0.018914906, 0.018901652, 0.013550244), (0.0067391805, 0.033852365, 0.013505528), (-0.00040905297, 0.018965974, 0.015608452), (0.018305264, 0.02816627, 0.012702282), (0.011157031, 0.01327988, 0.014805206), (0.03035015, 0.01327988, 0.005813868), (0.03035015, 0.01327988, 0.010186132), (0.02987135, 0.022480175, 0.006700321), (0.02987135, 0.0040795854, 0.006700321), (0.02987135, 0.022480175, 0.009299679), (0.02987135, 0.0040795854, 0.009299679), (-0.04250148, 0.037851505, 0.006715024), (-0.04993255, 0.022376098, 0.0045288913), (-0.037837688, 0.037366565, 0.0045973966), (-0.04250148, -0.011291745, 0.006715024), (-0.04993255, 0.004183663, 0.0045288913), (-0.037837688, -0.010806804, 0.0045973966), (-0.023410382, -0.0019062198, 0.0010986521), (-0.04286518, 0.0076581086, 0.0024497563), (-0.030689456, -0.0072926036, 0.0024944723), (-0.023541221, 0.0075937854, 0.00039154786), (-0.04225554, -0.0016065091, 0.003297718), (-0.023410382, 0.02846598, 0.0010986521), (-0.04286518, 0.018901652, 0.0024497563), (-0.030689456, 0.033852365, 0.0024944723), (-0.023541221, 0.018965974, 0.00039154786), (-0.04225554, 0.02816627, 0.003297718), (-0.035107307, 0.01327988, 0.0011947935), (-0.04250148, 0.037851505, 0.009284976), (-0.04993255, 0.022376098, 0.0114711085), (-0.037837688, 0.037366565, 0.011402603), (-0.04940377, 0.03168047, 0.008), (-0.04250148, -0.011291745, 0.009284976), (-0.04993255, 0.004183663, 0.0114711085), (-0.037837688, -0.010806804, 0.011402603), (-0.04940377, -0.005120709, 0.008), (-0.023410382, -0.0019062198, 0.014901347), (-0.04286518, 0.0076581086, 0.013550244), (-0.030689456, -0.0072926036, 0.013505528), (-0.023541221, 0.0075937854, 0.015608452), (-0.04225554, -0.0016065091, 0.012702282), (-0.023410382, 0.02846598, 0.014901347), (-0.04286518, 0.018901652, 0.013550244), (-0.030689456, 0.033852365, 0.013505528), (-0.023541221, 0.018965974, 0.015608452), (-0.04225554, 0.02816627, 0.012702282), (-0.035107307, 0.01327988, 0.014805206), (-0.054300424, 0.01327988, 0.005813868), (-0.054300424, 0.01327988, 0.010186132), (-0.053821623, 0.022480175, 0.006700321), (-0.053821623, 0.0040795854, 0.006700321), (-0.053821623, 0.022480175, 0.009299679), (-0.053821623, 0.0040795854, 0.009299679)]
        uniform token subdivisionScheme = "none"
    }

    def Mesh "Part1" (
        prepend apiSchemas = ["MaterialBindingAPI", "PhysicsCollisionAPI", "PhysicsMeshCollisionAPI"]
    )
    {
        int[] faceVertexCounts = [3, 3, 3, 3, 3, 3, 3, 3, 3, 3, 3, 3, 3, 3, 3, 3, 3, 3, 3, 3, 3, 3, 3, 3, 3, 3, 3, 3, 3, 3, 3, 3, 3, 3, 3, 3, 3, 3, 3, 3, 3, 3, 3, 3, 3, 3, 3, 3, 3, 3, 3, 3, 3, 3, 3, 3, 3, 3, 3, 3, 3, 3, 3, 3, 3, 3, 3, 3, 3, 3, 3, 3, 3, 3, 3, 3, 3, 3, 3, 3, 3, 3, 3, 3, 3, 3, 3, 3, 3, 3, 3, 3, 3, 3, 3, 3, 3, 3, 3, 3, 3, 3, 3, 3, 3, 3, 3, 3, 3, 3, 3, 3, 3, 3, 3, 3, 3, 3, 3, 3, 3, 3, 3, 3, 3, 3, 3, 3, 3, 3, 3, 3, 3, 3, 3, 3, 3, 3, 3, 3, 3, 3, 3, 3, 3, 3, 3, 3, 3, 3, 3, 3, 3, 3, 3, 3, 3, 3, 3, 3, 3, 3, 3, 3, 3, 3, 3, 3, 3, 3, 3, 3, 3, 3, 3, 3, 3, 3, 3, 3, 3, 3, 3, 3, 3, 3, 3, 3, 3, 3, 3, 3, 3, 3, 3, 3, 3, 3, 3, 3, 3, 3, 3, 3, 3, 3, 3, 3, 3, 3, 3, 3, 3, 3, 3, 3, 3, 3, 3, 3, 3, 3, 3, 3, 3, 3, 3, 3, 3, 3, 3, 3, 3, 3, 3, 3, 3, 3, 3, 3, 3, 3, 3, 3, 3, 3, 3, 3, 3, 3, 3, 3, 3, 3, 3, 3, 3, 3, 3, 3, 3, 3, 3, 3, 3, 3, 3, 3, 3, 3, 3, 3, 3, 3, 3, 3, 3, 3, 3, 3, 3, 3, 3, 3, 3, 3, 3, 3, 3, 3, 3, 3, 3, 3, 3, 3, 3, 3, 3, 3, 3, 3, 3, 3, 3, 3, 3, 3, 3, 3, 3, 3, 3, 3, 3, 3, 3, 3, 3, 3]
        int[] faceVertexIndices = [0, 137, 53, 137, 37, 139, 53, 139, 16, 137, 139, 53, 37, 138, 154, 138, 11, 151, 154, 151, 40, 138, 151, 154, 16, 152, 54, 152, 40, 150, 54, 150, 5, 152, 150, 54, 37, 154, 139, 154, 40, 152, 139, 152, 16, 154, 152, 139, 0, 53, 42, 53, 16, 55, 42, 55, 12, 53, 55, 42, 16, 54, 59, 54, 5, 57, 59, 57, 17, 54, 57, 59, 12, 58, 43, 58, 17, 56, 43, 56, 1, 58, 56, 43, 16, 59, 55, 59, 17, 58, 55, 58, 12, 59, 58, 55, 0, 42, 69, 42, 12, 71, 69, 71, 21, 42, 71, 69, 12, 43, 74, 43, 1, 72, 74, 72, 22, 43, 72, 74, 21, 75, 70, 75, 22, 73, 70, 73, 7, 75, 73, 70, 12, 74, 71, 74, 22, 75, 71, 75, 21, 74, 75, 71, 0, 69, 120, 69, 21, 122, 120, 122, 33, 69, 122, 120, 21, 70, 133, 70, 7, 131, 133, 131, 36, 70, 131, 133, 33, 135, 121, 135, 36, 132, 121, 132, 10, 135, 132, 121, 21, 133, 122, 133, 36, 135, 122, 135, 33, 133, 135, 122, 0, 120, 137, 120, 33, 140, 137, 140, 37, 120, 140, 137, 33, 121, 158, 121, 10, 156, 158, 156, 41, 121, 156, 158, 37, 160, 138, 160, 41, 157, 138, 157, 11, 160, 157, 138, 33, 158, 140, 158, 41, 160, 140, 160, 37, 158, 160, 140, 1, 56, 95, 56, 17, 97, 95, 97, 28, 56, 97, 95, 17, 57, 110, 57, 5, 108, 110, 108, 31, 57, 108, 110, 28, 112, 96, 112, 31, 109, 96, 109, 9, 112, 109, 96, 17, 110, 97, 110, 31, 112, 97, 112, 28, 110, 112, 97, 5, 150, 61, 150, 40, 153, 61, 153, 18, 150, 153, 61, 40, 151, 155, 151, 11, 146, 155, 146, 39, 151, 146, 155, 18, 148, 60, 148, 39, 145, 60, 145, 4, 148, 145, 60, 40, 155, 153, 155, 39, 148, 153, 148, 18, 155, 148, 153, 11, 157, 142, 157, 41, 161, 142, 161, 38, 157, 161, 142, 41, 156, 159, 156, 10, 124, 159, 124, 34, 156, 124, 159, 38, 144, 141, 144, 34, 123, 141, 123, 2, 144, 123, 141, 41, 159, 161, 159, 34, 144, 161, 144, 38, 159, 144, 161, 10, 132, 127, 132, 36, 136, 127, 136, 35, 132, 136, 127, 36, 131, 134, 131, 7, 77, 134, 77, 23, 131, 77, 134, 35, 129, 126, 129, 23, 76, 126, 76, 6, 129, 76, 126, 36, 134, 136, 134, 23, 129, 136, 129, 35, 134, 129, 136, 7, 73, 89, 73, 22, 91, 89, 91, 27, 73, 91, 89, 22, 72, 80, 72, 1, 78, 80, 78, 24, 72, 78, 80, 27, 93, 90, 93, 24, 79, 90, 79, 8, 93, 79, 90, 22, 80, 91, 80, 24, 93, 91, 93, 27, 80, 93, 91, 3, 99, 49, 99, 29, 101, 49, 101, 15, 99, 101, 49, 29, 100, 107, 100, 9, 104, 107, 104, 30, 100, 104, 107, 15, 105, 50, 105, 30, 103, 50, 103, 4, 105, 103, 50, 29, 107, 101, 107, 30, 105, 101, 105, 15, 107, 105, 101, 3, 49, 45, 49, 15, 51, 45, 51, 13, 49, 51, 45, 15, 50, 52, 50, 4, 47, 52, 47, 14, 50, 47, 52, 13, 48, 44, 48, 14, 46, 44, 46, 2, 48, 46, 44, 15, 52, 51, 52, 14, 48, 51, 48, 13, 52, 48, 51, 3, 45, 65, 45, 13, 67, 65, 67, 20, 45, 67, 65, 13, 44, 64, 44, 2, 62, 64, 62, 19, 44, 62, 64, 20, 68, 66, 68, 19, 63, 66, 63, 6, 68, 63, 66, 13, 64, 67, 64, 19, 68, 67, 68, 20, 64, 68, 67, 3, 65, 81, 65, 20, 83, 81, 83, 25, 65, 83, 81, 20, 66, 86, 66, 6, 84, 86, 84, 26, 66, 84, 86, 25, 88, 82, 88, 26, 85, 82, 85, 8, 88, 85, 82, 20, 86, 83, 86, 26, 88, 83, 88, 25, 86, 88, 83, 3, 81, 99, 81, 25, 102, 99, 102, 29, 81, 102, 99, 25, 82, 117, 82, 8, 114, 117, 114, 32, 82, 114, 117, 29, 119, 100, 119, 32, 115, 100, 115, 9, 119, 115, 100, 25, 117, 102, 117, 32, 119, 102, 119, 29, 117, 119, 102, 4, 103, 60, 103, 30, 106, 60, 106, 18, 103, 106, 60, 30, 104, 113, 104, 9, 109, 113, 109, 31, 104, 109, 113, 18, 111, 61, 111, 31, 108, 61, 108, 5, 111, 108, 61, 30, 113, 106, 113, 31, 111, 106, 111, 18, 113, 111, 106, 2, 46, 141, 46, 14, 143, 141, 143, 38, 46, 143, 141, 14, 47, 147, 47, 4, 145, 147, 145, 39, 47, 145, 147, 38, 149, 142, 149, 39, 146, 142, 146, 11, 149, 146, 142, 14, 147, 143, 147, 39, 149, 143, 149, 38, 147, 149, 143, 6, 63, 126, 63, 19, 128, 126, 128, 35, 63, 128, 126, 19, 62, 125, 62, 2, 123, 125, 123, 34, 62, 123, 125, 35, 130, 127, 130, 34, 124, 127, 124, 10, 130, 124, 127, 19, 125, 128, 125, 34, 130, 128, 130, 35, 125, 130, 128, 8, 85, 90, 85, 26, 94, 90, 94, 27, 85, 94, 90, 26, 84, 87, 84, 6, 76, 87, 76, 23, 84, 76, 87, 27, 92, 89, 92, 23, 77, 89, 77, 7, 92, 77, 89, 26, 87, 94, 87, 23, 92, 94, 92, 27, 87, 92, 94, 9, 115, 96, 115, 32, 118, 96, 118, 28, 115, 118, 96, 32, 114, 116, 114, 8, 79, 116, 79, 24, 114, 79, 116, 28, 98, 95, 98, 24, 78, 95, 78, 1, 98, 78, 95, 32, 116, 118, 116, 24, 98, 118, 98, 28, 116, 98, 118]
        rel material:binding = </PlateCoral/Looks/Coral>
        uniform token physics:approximation = "convexHull"
        point3f[] points = [(-0.012918119, 0.008878566, 0.021), (0.033346217, 0.008878566, 0.021), (-0.012918119, -0.05066699, 0.021), (0.033346217, -0.05066699, 0.021), (0.010214049, -0.0392948, 0.027805207), (0.010214049, -0.0024936232, 0.027805207), (0.010214049, -0.0392948, 0.014194793), (0.010214049, -0.0024936232, 0.014194793), (0.047642685, -0.020894213, 0.01679415), (0.047642685, -0.020894213, 0.025205849), (-0.027214587, -0.020894213, 0.01679415), (-0.027214587, -0.020894213, 0.025205849), (0.010214049, 0.0141057875, 0.021), (0.010214049, -0.05589421, 0.021), (-0.0033826984, -0.049209807, 0.025), (0.023810796, -0.049209807, 0.025), (-0.0033826984, 0.0074213827, 0.025), (0.023810796, 0.0074213827, 0.025), (0.010214049, -0.020894213, 0.029), (-0.0033826984, -0.049209807, 0.017), (0.023810796, -0.049209807, 0.017), (-0.0033826984, 0.0074213827, 0.017), (0.023810796, 0.0074213827, 0.017), (0.010214049, -0.020894213, 0.013), (0.045810796, -0.003394212, 0.018527864), (0.045810796, -0.038394213, 0.018527864), (0.03221405, -0.03170981, 0.014527864), (0.03221405, -0.010078617, 0.014527864), (0.045810796, -0.003394212, 0.023472136), (0.045810796, -0.038394213, 0.023472136), (0.03221405, -0.03170981, 0.027472137), (0.03221405, -0.010078617, 0.027472137), (0.05421405, -0.020894213, 0.021), (-0.025382698, -0.003394212, 0.018527864), (-0.025382698, -0.038394213, 0.018527864), (-0.0117859505, -0.03170981, 0.014527864), (-0.0117859505, -0.010078617, 0.014527864), (-0.025382698, -0.003394212, 0.023472136), (-0.025382698, -0.038394213, 0.023472136), (-0.0117859505, -0.03170981, 0.027472137), (-0.0117859505, -0.010078617, 0.027472137), (-0.03378595, -0.020894213, 0.021), (-0.0018096779, 0.01277363, 0.021), (0.022237776, 0.01277363, 0.021), (-0.0018096779, -0.054562055, 0.021), (0.022237776, -0.054562055, 0.021), (-0.008877047, -0.05108761, 0.023079135), (0.0031466798, -0.04517653, 0.026616372), (0.0030658161, -0.054181192, 0.023102924), (0.029305147, -0.05108761, 0.023079135), (0.017281419, -0.04517653, 0.026616372), (0.017362284, -0.054181192, 0.023102924), (0.010214049, -0.05066699, 0.025205849), (-0.008877047, 0.009299184, 0.023079135), (0.0031466798, 0.0033881045, 0.026616372), (0.0030658161, 0.012392766, 0.023102924), (0.029305147, 0.009299184, 0.023079135), (0.017281419, 0.0033881045, 0.026616372), (0.017362284, 0.012392766, 0.023102924), (0.010214049, 0.008878566, 0.025205849), (0.010214049, -0.030458542, 0.028695507), (0.010214049, -0.011329884, 0.028695507), (-0.008877047, -0.05108761, 0.018920865), (0.0031466798, -0.04517653, 0.015383628), (0.0030658161, -0.054181192, 0.018897075), (0.029305147, -0.05108761, 0.018920865), (0.017281419, -0.04517653, 0.015383628), (0.017362284, -0.054181192, 0.018897075), (0.010214049, -0.05066699, 0.01679415), (-0.008877047, 0.009299184, 0.018920865), (0.0031466798, 0.0033881045, 0.015383628), (0.0030658161, 0.012392766, 0.018897075), (0.029305147, 0.009299184, 0.018920865), (0.017281419, 0.0033881045, 0.015383628), (0.017362284, 0.012392766, 0.018897075), (0.010214049, 0.008878566, 0.01679415), (0.010214049, -0.030458542, 0.013304493), (0.010214049, -0.011329884, 0.013304493), (0.04074039, 0.0036774133, 0.019715024), (0.04817146, -0.011797995, 0.017528892), (0.0360766, 0.0031924713, 0.017597396), (0.04074039, -0.04546584, 0.019715024), (0.04817146, -0.029990429, 0.017528892), (0.0360766, -0.044980895, 0.017597396), (0.021649294, -0.036080312, 0.014098652), (0.041104093, -0.026515983, 0.015449756), (0.028928367, -0.041466694, 0.015494472), (0.021780133, -0.026580308, 0.013391548), (0.040494453, -0.0357806, 0.016297719), (0.021649294, -0.0057081124, 0.014098652), (0.041104093, -0.015272441, 0.015449756), (0.028928367, -0.00032172838, 0.015494472), (0.021780133, -0.015208118, 0.013391548), (0.040494453, -0.006007823, 0.016297719), (0.033346217, -0.020894213, 0.014194793), (0.04074039, 0.0036774133, 0.022284977), (0.04817146, -0.011797995, 0.024471108), (0.0360766, 0.0031924713, 0.024402604), (0.047642685, -0.0024936232, 0.021), (0.04074039, -0.04546584, 0.022284977), (0.04817146, -0.029990429, 0.024471108), (0.0360766, -0.044980895, 0.024402604), (0.047642685, -0.0392948, 0.021), (0.021649294, -0.036080312, 0.027901348), (0.041104093, -0.026515983, 0.026550245), (0.028928367, -0.041466694, 0.026505528), (0.021780133, -0.026580308, 0.028608453), (0.040494453, -0.0357806, 0.025702283), (0.021649294, -0.0057081124, 0.027901348), (0.041104093, -0.015272441, 0.026550245), (0.028928367, -0.00032172838, 0.026505528), (0.021780133, -0.015208118, 0.028608453), (0.040494453, -0.006007823, 0.025702283), (0.033346217, -0.020894213, 0.027805207), (0.052539337, -0.020894213, 0.018813867), (0.052539337, -0.020894213, 0.023186132), (0.052060537, -0.011693918, 0.01970032), (0.052060537, -0.030094506, 0.01970032), (0.052060537, -0.011693918, 0.022299679), (0.052060537, -0.030094506, 0.022299679), (-0.020312293, 0.0036774133, 0.019715024), (-0.027743364, -0.011797995, 0.017528892), (-0.015648501, 0.0031924713, 0.017597396), (-0.020312293, -0.04546584, 0.019715024), (-0.027743364, -0.029990429, 0.017528892), (-0.015648501, -0.044980895, 0.017597396), (-0.0012211949, -0.036080312, 0.014098652), (-0.020675994, -0.026515983, 0.015449756), (-0.008500269, -0.041466694, 0.015494472), (-0.0013520351, -0.026580308, 0.013391548), (-0.020066353, -0.0357806, 0.016297719), (-0.0012211949, -0.0057081124, 0.014098652), (-0.020675994, -0.015272441, 0.015449756), (-0.008500269, -0.00032172838, 0.015494472), (-0.0013520351, -0.015208118, 0.013391548), (-0.020066353, -0.006007823, 0.016297719), (-0.012918119, -0.020894213, 0.014194793), (-0.020312293, 0.0036774133, 0.022284977), (-0.027743364, -0.011797995, 0.024471108), (-0.015648501, 0.0031924713, 0.024402604), (-0.027214587, -0.0024936232, 0.021), (-0.020312293, -0.04546584, 0.022284977), (-0.027743364, -0.029990429, 0.024471108), (-0.015648501, -0.044980895, 0.024402604), (-0.027214587, -0.0392948, 0.021), (-0.0012211949, -0.036080312, 0.027901348), (-0.020675994, -0.026515983, 0.026550245), (-0.008500269, -0.041466694, 0.026505528), (-0.0013520351, -0.026580308, 0.028608453), (-0.020066353, -0.0357806, 0.025702283), (-0.0012211949, -0.0057081124, 0.027901348), (-0.020675994, -0.015272441, 0.026550245), (-0.008500269, -0.00032172838, 0.026505528), (-0.0013520351, -0.015208118, 0.028608453), (-0.020066353, -0.006007823, 0.025702283), (-0.012918119, -0.020894213, 0.027805207), (-0.03211124, -0.020894213, 0.018813867), (-0.03211124, -0.020894213, 0.023186132), (-0.03163244, -0.011693918, 0.01970032), (-0.03163244, -0.030094506, 0.01970032), (-0.03163244, -0.011693918, 0.022299679), (-0.03163244, -0.030094506, 0.022299679)]
        uniform token subdivisionScheme = "none"
    }

    def Mesh "Part2" (
        prepend apiSchemas = ["MaterialBindingAPI", "PhysicsCollisionAPI", "PhysicsMeshCollisionAPI"]
    )
    {
        int[] faceVertexCounts = [3, 3, 3, 3, 3, 3, 3, 3, 3, 3, 3, 3, 3, 3, 3, 3, 3, 3, 3, 3, 3, 3, 3, 3, 3, 3, 3, 3, 3, 3, 3, 3, 3, 3, 3, 3, 3, 3, 3, 3, 3, 3, 3, 3, 3, 3, 3, 3, 3, 3, 3, 3, 3, 3, 3, 3, 3, 3, 3, 3, 3, 3, 3, 3, 3, 3, 3, 3, 3, 3, 3, 3, 3, 3, 3, 3, 3, 3, 3, 3, 3, 3, 3, 3, 3, 3, 3, 3, 3, 3, 3, 3, 3, 3, 3, 3, 3, 3, 3, 3, 3, 3, 3, 3, 3, 3, 3, 3, 3, 3, 3, 3, 3, 3, 3, 3, 3, 3, 3, 3, 3, 3, 3, 3, 3, 3, 3, 3, 3, 3, 3, 3, 3, 3, 3, 3, 3, 3, 3, 3, 3, 3, 3, 3, 3, 3, 3, 3, 3, 3, 3, 3, 3, 3, 3, 3, 3, 3, 3, 3, 3, 3, 3, 3, 3, 3, 3, 3, 3, 3, 3, 3, 3, 3, 3, 3, 3, 3, 3, 3, 3, 3, 3, 3, 3, 3, 3, 3, 3, 3, 3, 3, 3, 3, 3, 3, 3, 3, 3, 3, 3, 3, 3, 3, 3, 3, 3, 3, 3, 3, 3, 3, 3, 3, 3, 3, 3, 3, 3, 3, 3, 3, 3, 3, 3, 3, 3, 3, 3, 3, 3, 3, 3, 3, 3, 3, 3, 3, 3, 3, 3, 3, 3, 3, 3, 3, 3, 3, 3, 3, 3, 3, 3, 3, 3, 3, 3, 3, 3, 3, 3, 3, 3, 3, 3, 3, 3, 3, 3, 3, 3, 3, 3, 3, 3, 3, 3, 3, 3, 3, 3, 3, 3, 3, 3, 3, 3, 3, 3, 3, 3, 3, 3, 3, 3, 3, 3, 3, 3, 3, 3, 3, 3, 3, 3, 3, 3, 3, 3, 3, 3, 3, 3, 3, 3, 3, 3, 3, 3, 3]
        int[] faceVertexIndices = [0, 137, 53, 137, 37, 139, 53, 139, 16, 137, 139, 53, 37, 138, 154, 138, 11, 151, 154, 151, 40, 138, 151, 154, 16, 152, 54, 152, 40, 150, 54, 150, 5, 152, 150, 54, 37, 154, 139, 154, 40, 152, 139, 152, 16, 154, 152, 139, 0, 53, 42, 53, 16, 55, 42, 55, 12, 53, 55, 42, 16, 54, 59, 54, 5, 57, 59, 57, 17, 54, 57, 59, 12, 58, 43, 58, 17, 56, 43, 56, 1, 58, 56, 43, 16, 59, 55, 59, 17, 58, 55, 58, 12, 59, 58, 55, 0, 42, 69, 42, 12, 71, 69, 71, 21, 42, 71, 69, 12, 43, 74, 43, 1, 72, 74, 72, 22, 43, 72, 74, 21, 75, 70, 75, 22, 73, 70, 73, 7, 75, 73, 70, 12, 74, 71, 74, 22, 75, 71, 75, 21, 74, 75, 71, 0, 69, 120, 69, 21, 122, 120, 122, 33, 69, 122, 120, 21, 70, 133, 70, 7, 131, 133, 131, 36, 70, 131, 133, 33, 135, 121, 135, 36, 132, 121, 132, 10, 135, 132, 121, 21, 133, 122, 133, 36, 135, 122, 135, 33, 133, 135, 122, 0, 120, 137, 120, 33, 140, 137, 140, 37, 120, 140, 137, 33, 121, 158, 121, 10, 156, 158, 156, 41, 121, 156, 158, 37, 160, 138, 160, 41, 157, 138, 157, 11, 160, 157, 138, 33, 158, 140, 158, 41, 160, 140, 160, 37, 158, 160, 140, 1, 56, 95, 56, 17, 97, 95, 97, 28, 56, 97, 95, 17, 57, 110, 57, 5, 108, 110, 108, 31, 57, 108, 110, 28, 112, 96, 112, 31, 109, 96, 109, 9, 112, 109, 96, 17, 110, 97, 110, 31, 112, 97, 112, 28, 110, 112, 97, 5, 150, 61, 150, 40, 153, 61, 153, 18, 150, 153, 61, 40, 151, 155, 151, 11, 146, 155, 146, 39, 151, 146, 155, 18, 148, 60, 148, 39, 145, 60, 145, 4, 148, 145, 60, 40, 155, 153, 155, 39, 148, 153, 148, 18, 155, 148, 153, 11, 157, 142, 157, 41, 161, 142, 161, 38, 157, 161, 142, 41, 156, 159, 156, 10, 124, 159, 124, 34, 156, 124, 159, 38, 144, 141, 144, 34, 123, 141, 123, 2, 144, 123, 141, 41, 159, 161, 159, 34, 144, 161, 144, 38, 159, 144, 161, 10, 132, 127, 132, 36, 136, 127, 136, 35, 132, 136, 127, 36, 131, 134, 131, 7, 77, 134, 77, 23, 131, 77, 134, 35, 129, 126, 129, 23, 76, 126, 76, 6, 129, 76, 126, 36, 134, 136, 134, 23, 129, 136, 129, 35, 134, 129, 136, 7, 73, 89, 73, 22, 91, 89, 91, 27, 73, 91, 89, 22, 72, 80, 72, 1, 78, 80, 78, 24, 72, 78, 80, 27, 93, 90, 93, 24, 79, 90, 79, 8, 93, 79, 90, 22, 80, 91, 80, 24, 93, 91, 93, 27, 80, 93, 91, 3, 99, 49, 99, 29, 101, 49, 101, 15, 99, 101, 49, 29, 100, 107, 100, 9, 104, 107, 104, 30, 100, 104, 107, 15, 105, 50, 105, 30, 103, 50, 103, 4, 105, 103, 50, 29, 107, 101, 107, 30, 105, 101, 105, 15, 107, 105, 101, 3, 49, 45, 49, 15, 51, 45, 51, 13, 49, 51, 45, 15, 50, 52, 50, 4, 47, 52, 47, 14, 50, 47, 52, 13, 48, 44, 48, 14, 46, 44, 46, 2, 48, 46, 44, 15, 52, 51, 52, 14, 48, 51, 48, 13, 52, 48, 51, 3, 45, 65, 45, 13, 67, 65, 67, 20, 45, 67, 65, 13, 44, 64, 44, 2, 62, 64, 62, 19, 44, 62, 64, 20, 68, 66, 68, 19, 63, 66, 63, 6, 68, 63, 66, 13, 64, 67, 64, 19, 68, 67, 68, 20, 64, 68, 67, 3, 65, 81, 65, 20, 83, 81, 83, 25, 65, 83, 81, 20, 66, 86, 66, 6, 84, 86, 84, 26, 66, 84, 86, 25, 88, 82, 88, 26, 85, 82, 85, 8, 88, 85, 82, 20, 86, 83, 86, 26, 88, 83, 88, 25, 86, 88, 83, 3, 81, 99, 81, 25, 102, 99, 102, 29, 81, 102, 99, 25, 82, 117, 82, 8, 114, 117, 114, 32, 82, 114, 117, 29, 119, 100, 119, 32, 115, 100, 115, 9, 119, 115, 100, 25, 117, 102, 117, 32, 119, 102, 119, 29, 117, 119, 102, 4, 103, 60, 103, 30, 106, 60, 106, 18, 103, 106, 60, 30, 104, 113, 104, 9, 109, 113, 109, 31, 104, 109, 113, 18, 111, 61, 111, 31, 108, 61, 108, 5, 111, 108, 61, 30, 113, 106, 113, 31, 111, 106, 111, 18, 113, 111, 106, 2, 46, 141, 46, 14, 143, 141, 143, 38, 46, 143, 141, 14, 47, 147, 47, 4, 145, 147, 145, 39, 47, 145, 147, 38, 149, 142, 149, 39, 146, 142, 146, 11, 149, 146, 142, 14, 147, 143, 147, 39, 149, 143, 149, 38, 147, 149, 143, 6, 63, 126, 63, 19, 128, 126, 128, 35, 63, 128, 126, 19, 62, 125, 62, 2, 123, 125, 123, 34, 62, 123, 125, 35, 130, 127, 130, 34, 124, 127, 124, 10, 130, 124, 127, 19, 125, 128, 125, 34, 130, 128, 130, 35, 125, 130, 128, 8, 85, 90, 85, 26, 94, 90, 94, 27, 85, 94, 90, 26, 84, 87, 84, 6, 76, 87, 76, 23, 84, 76, 87, 27, 92, 89, 92, 23, 77, 89, 77, 7, 92, 77, 89, 26, 87, 94, 87, 23, 92, 94, 92, 27, 87, 92, 94, 9, 115, 96, 115, 32, 118, 96, 118, 28, 115, 118, 96, 32, 114, 116, 114, 8, 79, 116, 79, 24, 114, 79, 116, 28, 98, 95, 98, 24, 78, 95, 78, 1, 98, 78, 95, 32, 116, 118, 116, 24, 98, 118, 98, 28, 116, 98, 118]
        rel material:binding = </PlateCoral/Looks/Coral>
        uniform token physics:approximation = "convexHull"
        point3f[] points = [(-0.03097715, 0.01882999, 0.034), (0.015287188, 0.01882999, 0.034), (-0.03097715, -0.040715568, 0.034), (0.015287188, -0.040715568, 0.034), (-0.007844981, -0.029343378, 0.040805206), (-0.007844981, 0.0074578007, 0.040805206), (-0.007844981, -0.029343378, 0.027194794), (-0.007844981, 0.0074578007, 0.027194794), (0.029583653, -0.010942788, 0.029794151), (0.029583653, -0.010942788, 0.038205847), (-0.045273617, -0.010942788, 0.029794151), (-0.045273617, -0.010942788, 0.038205847), (-0.007844981, 0.024057211, 0.034), (-0.007844981, -0.045942787, 0.034), (-0.02144173, -0.039258383, 0.038), (0.0057517667, -0.039258383, 0.038), (-0.02144173, 0.017372807, 0.038), (0.0057517667, 0.017372807, 0.038), (-0.007844981, -0.010942788, 0.042), (-0.02144173, -0.039258383, 0.03), (0.0057517667, -0.039258383, 0.03), (-0.02144173, 0.017372807, 0.03), (0.0057517667, 0.017372807, 0.03), (-0.007844981, -0.010942788, 0.026), (0.027751766, 0.0065572117, 0.031527866), (0.027751766, -0.028442789, 0.031527866), (0.014155019, -0.021758383, 0.027527863), (0.014155019, -0.00012719323, 0.027527863), (0.027751766, 0.0065572117, 0.036472134), (0.027751766, -0.028442789, 0.036472134), (0.014155019, -0.021758383, 0.040472135), (0.014155019, -0.00012719323, 0.040472135), (0.03615502, -0.010942788, 0.034), (-0.043441728, 0.0065572117, 0.031527866), (-0.043441728, -0.028442789, 0.031527866), (-0.02984498, -0.021758383, 0.027527863), (-0.02984498, -0.00012719323, 0.027527863), (-0.043441728, 0.0065572117, 0.036472134), (-0.043441728, -0.028442789, 0.036472134), (-0.02984498, -0.021758383, 0.040472135), (-0.02984498, -0.00012719323, 0.040472135), (-0.05184498, -0.010942788, 0.034), (-0.01986871, 0.022725055, 0.034), (0.004178746, 0.022725055, 0.034), (-0.01986871, -0.04461063, 0.034), (0.004178746, -0.04461063, 0.034), (-0.026936078, -0.041136187, 0.036079135), (-0.014912351, -0.035225105, 0.039616372), (-0.014993215, -0.044229764, 0.036102924), (0.011246116, -0.041136187, 0.036079135), (-0.0007776117, -0.035225105, 0.039616372), (-0.0006967479, -0.044229764, 0.036102924), (-0.007844981, -0.040715568, 0.038205847), (-0.026936078, 0.019250609, 0.036079135), (-0.014912351, 0.013339529, 0.039616372), (-0.014993215, 0.02234419, 0.036102924), (0.011246116, 0.019250609, 0.036079135), (-0.0007776117, 0.013339529, 0.039616372), (-0.0006967479, 0.02234419, 0.036102924), (-0.007844981, 0.01882999, 0.038205847), (-0.007844981, -0.020507116, 0.041695505), (-0.007844981, -0.0013784595, 0.041695505), (-0.026936078, -0.041136187, 0.031920865), (-0.014912351, -0.035225105, 0.028383628), (-0.014993215, -0.044229764, 0.031897075), (0.011246116, -0.041136187, 0.031920865), (-0.0007776117, -0.035225105, 0.028383628), (-0.0006967479, -0.044229764, 0.031897075), (-0.007844981, -0.040715568, 0.029794151), (-0.026936078, 0.019250609, 0.031920865), (-0.014912351, 0.013339529, 0.028383628), (-0.014993215, 0.02234419, 0.031897075), (0.011246116, 0.019250609, 0.031920865), (-0.0007776117, 0.013339529, 0.028383628), (-0.0006967479, 0.02234419, 0.031897075), (-0.007844981, 0.01882999, 0.029794151), (-0.007844981, -0.020507116, 0.026304493), (-0.007844981, -0.0013784595, 0.026304493), (0.02268136, 0.013628838, 0.032715023), (0.030112432, -0.0018465711, 0.030528892), (0.01801757, 0.013143895, 0.030597396), (0.02268136, -0.035514414, 0.032715023), (0.030112432, -0.020039005, 0.030528892), (0.01801757, -0.03502947, 0.030597396), (0.003590263, -0.026128888, 0.027098652), (0.023045063, -0.01656456, 0.028449757), (0.010869336, -0.03151527, 0.028494472), (0.0037211033, -0.016628882, 0.026391547), (0.022435421, -0.025829177, 0.029297719), (0.003590263, 0.004243312, 0.027098652), (0.023045063, -0.005321017, 0.028449757), (0.010869336, 0.009629696, 0.028494472), (0.0037211033, -0.0052566933, 0.026391547), (0.022435421, 0.003943601, 0.029297719), (0.015287188, -0.010942788, 0.027194794), (0.02268136, 0.013628838, 0.035284977), (0.030112432, -0.0018465711, 0.03747111), (0.01801757, 0.013143895, 0.037402604), (0.029583653, 0.0074578007, 0.034), (0.02268136, -0.035514414, 0.035284977), (0.030112432, -0.020039005, 0.03747111), (0.01801757, -0.03502947, 0.037402604), (0.029583653, -0.029343378, 0.034), (0.003590263, -0.026128888, 0.040901348), (0.023045063, -0.01656456, 0.039550245), (0.010869336, -0.03151527, 0.039505526), (0.0037211033, -0.016628882, 0.041608453), (0.022435421, -0.025829177, 0.038702283), (0.003590263, 0.004243312, 0.040901348), (0.023045063, -0.005321017, 0.039550245), (0.010869336, 0.009629696, 0.039505526), (0.0037211033, -0.0052566933, 0.041608453), (0.022435421, 0.003943601, 0.038702283), (0.015287188, -0.010942788, 0.040805206), (0.034480307, -0.010942788, 0.031813867), (0.034480307, -0.010942788, 0.036186133), (0.034001507, -0.0017424936, 0.032700323), (0.034001507, -0.020143082, 0.032700323), (0.034001507, -0.0017424936, 0.035299677), (0.034001507, -0.020143082, 0.035299677), (-0.03837132, 0.013628838, 0.032715023), (-0.045802396, -0.0018465711, 0.030528892), (-0.033707533, 0.013143895, 0.030597396), (-0.03837132, -0.035514414, 0.032715023), (-0.045802396, -0.020039005, 0.030528892), (-0.033707533, -0.03502947, 0.030597396), (-0.019280225, -0.026128888, 0.027098652), (-0.038735025, -0.01656456, 0.028449757), (-0.026559299, -0.03151527, 0.028494472), (-0.019411067, -0.016628882, 0.026391547), (-0.038125385, -0.025829177, 0.029297719), (-0.019280225, 0.004243312, 0.027098652), (-0.038735025, -0.005321017, 0.028449757), (-0.026559299, 0.009629696, 0.028494472), (-0.019411067, -0.0052566933, 0.026391547), (-0.038125385, 0.003943601, 0.029297719), (-0.03097715, -0.010942788, 0.027194794), (-0.03837132, 0.013628838, 0.035284977), (-0.045802396, -0.0018465711, 0.03747111), (-0.033707533, 0.013143895, 0.037402604), (-0.045273617, 0.0074578007, 0.034), (-0.03837132, -0.035514414, 0.035284977), (-0.045802396, -0.020039005, 0.03747111), (-0.033707533, -0.03502947, 0.037402604), (-0.045273617, -0.029343378, 0.034), (-0.019280225, -0.026128888, 0.040901348), (-0.038735025, -0.01656456, 0.039550245), (-0.026559299, -0.03151527, 0.039505526), (-0.019411067, -0.016628882, 0.041608453), (-0.038125385, -0.025829177, 0.038702283), (-0.019280225, 0.004243312, 0.040901348), (-0.038735025, -0.005321017, 0.039550245), (-0.026559299, 0.009629696, 0.039505526), (-0.019411067, -0.0052566933, 0.041608453), (-0.038125385, 0.003943601, 0.038702283), (-0.03097715, -0.010942788, 0.040805206), (-0.05017027, -0.010942788, 0.031813867), (-0.05017027, -0.010942788, 0.036186133), (-0.04969147, -0.0017424936, 0.032700323), (-0.04969147, -0.020143082, 0.032700323), (-0.04969147, -0.0017424936, 0.035299677), (-0.04969147, -0.020143082, 0.035299677)]
        uniform token subdivisionScheme = "none"
    }

    def Mesh "Part3" (
        prepend apiSchemas = ["MaterialBindingAPI", "PhysicsCollisionAPI", "PhysicsMeshCollisionAPI"]
    )
    {
        int[] faceVertexCounts = [3, 3, 3, 3, 3, 3, 3, 3, 3, 3, 3, 3, 3, 3, 3, 3, 3, 3, 3, 3, 3, 3, 3, 3, 3, 3, 3, 3, 3, 3, 3, 3, 3, 3, 3, 3, 3, 3, 3, 3, 3, 3, 3, 3, 3, 3, 3, 3, 3, 3, 3, 3, 3, 3, 3, 3, 3, 3, 3, 3, 3, 3, 3, 3, 3, 3, 3, 3, 3, 3, 3, 3, 3, 3, 3, 3, 3, 3, 3, 3, 3, 3, 3, 3, 3, 3, 3, 3, 3, 3, 3, 3, 3, 3, 3, 3, 3, 3, 3, 3, 3, 3, 3, 3, 3, 3, 3, 3, 3, 3, 3, 3, 3, 3, 3, 3, 3, 3, 3, 3, 3, 3, 3, 3, 3, 3, 3, 3, 3, 3, 3, 3, 3, 3, 3, 3, 3, 3, 3, 3, 3, 3, 3, 3, 3, 3, 3, 3, 3, 3, 3, 3, 3, 3, 3, 3, 3, 3, 3, 3, 3, 3, 3, 3, 3, 3, 3, 3, 3, 3, 3, 3, 3, 3, 3, 3, 3, 3, 3, 3, 3, 3, 3, 3, 3, 3, 3, 3, 3, 3, 3, 3, 3, 3, 3, 3, 3, 3, 3, 3, 3, 3, 3, 3, 3, 3, 3, 3, 3, 3, 3, 3, 3, 3, 3, 3, 3, 3, 3, 3, 3, 3, 3, 3, 3, 3, 3, 3, 3, 3, 3, 3, 3, 3, 3, 3, 3, 3, 3, 3, 3, 3, 3, 3, 3, 3, 3, 3, 3, 3, 3, 3, 3, 3, 3, 3, 3, 3, 3, 3, 3, 3, 3, 3, 3, 3, 3, 3, 3, 3, 3, 3, 3, 3, 3, 3, 3, 3, 3, 3, 3, 3, 3, 3, 3, 3, 3, 3, 3, 3, 3, 3, 3, 3, 3, 3, 3, 3, 3, 3, 3, 3, 3, 3, 3, 3, 3, 3, 3, 3, 3, 3, 3, 3, 3, 3, 3, 3, 3, 3]
        int[] faceVertexIndices = [0, 137, 53, 137, 37, 139, 53, 139, 16, 137, 139, 53, 37, 138, 154, 138, 11, 151, 154, 151, 40, 138, 151, 154, 16, 152, 54, 152, 40, 150, 54, 150, 5, 152, 150, 54, 37, 154, 139, 154, 40, 152, 139, 152, 16, 154, 152, 139, 0, 53, 42, 53, 16, 55, 42, 55, 12, 53, 55, 42, 16, 54, 59, 54, 5, 57, 59, 57, 17, 54, 57, 59, 12, 58, 43, 58, 17, 56, 43, 56, 1, 58, 56, 43, 16, 59, 55, 59, 17, 58, 55, 58, 12, 59, 58, 55, 0, 42, 69, 42, 12, 71, 69, 71, 21, 42, 71, 69, 12, 43, 74, 43, 1, 72, 74, 72, 22, 43, 72, 74, 21, 75, 70, 75, 22, 73, 70, 73, 7, 75, 73, 70, 12, 74, 71, 74, 22, 75, 71, 75, 21, 74, 75, 71, 0, 69, 120, 69, 21, 122, 120, 122, 33, 69, 122, 120, 21, 70, 133, 70, 7, 131, 133, 131, 36, 70, 131, 133, 33, 135, 121, 135, 36, 132, 121, 132, 10, 135, 132, 121, 21, 133, 122, 133, 36, 135, 122, 135, 33, 133, 135, 122, 0, 120, 137, 120, 33, 140, 137, 140, 37, 120, 140, 137, 33, 121, 158, 121, 10, 156, 158, 156, 41, 121, 156, 158, 37, 160, 138, 160, 41, 157, 138, 157, 11, 160, 157, 138, 33, 158, 140, 158, 41, 160, 140, 160, 37, 158, 160, 140, 1, 56, 95, 56, 17, 97, 95, 97, 28, 56, 97, 95, 17, 57, 110, 57, 5, 108, 110, 108, 31, 57, 108, 110, 28, 112, 96, 112, 31, 109, 96, 109, 9, 112, 109, 96, 17, 110, 97, 110, 31, 112, 97, 112, 28, 110, 112, 97, 5, 150, 61, 150, 40, 153, 61, 153, 18, 150, 153, 61, 40, 151, 155, 151, 11, 146, 155, 146, 39, 151, 146, 155, 18, 148, 60, 148, 39, 145, 60, 145, 4, 148, 145, 60, 40, 155, 153, 155, 39, 148, 153, 148, 18, 155, 148, 153, 11, 157, 142, 157, 41, 161, 142, 161, 38, 157, 161, 142, 41, 156, 159, 156, 10, 124, 159, 124, 34, 156, 124, 159, 38, 144, 141, 144, 34, 123, 141, 123, 2, 144, 123, 141, 41, 159, 161, 159, 34, 144, 161, 144, 38, 159, 144, 161, 10, 132, 127, 132, 36, 136, 127, 136, 35, 132, 136, 127, 36, 131, 134, 131, 7, 77, 134, 77, 23, 131, 77, 134, 35, 129, 126, 129, 23, 76, 126, 76, 6, 129, 76, 126, 36, 134, 136, 134, 23, 129, 136, 129, 35, 134, 129, 136, 7, 73, 89, 73, 22, 91, 89, 91, 27, 73, 91, 89, 22, 72, 80, 72, 1, 78, 80, 78, 24, 72, 78, 80, 27, 93, 90, 93, 24, 79, 90, 79, 8, 93, 79, 90, 22, 80, 91, 80, 24, 93, 91, 93, 27, 80, 93, 91, 3, 99, 49, 99, 29, 101, 49, 101, 15, 99, 101, 49, 29, 100, 107, 100, 9, 104, 107, 104, 30, 100, 104, 107, 15, 105, 50, 105, 30, 103, 50, 103, 4, 105, 103, 50, 29, 107, 101, 107, 30, 105, 101, 105, 15, 107, 105, 101, 3, 49, 45, 49, 15, 51, 45, 51, 13, 49, 51, 45, 15, 50, 52, 50, 4, 47, 52, 47, 14, 50, 47, 52, 13, 48, 44, 48, 14, 46, 44, 46, 2, 48, 46, 44, 15, 52, 51, 52, 14, 48, 51, 48, 13, 52, 48, 51, 3, 45, 65, 45, 13, 67, 65, 67, 20, 45, 67, 65, 13, 44, 64, 44, 2, 62, 64, 62, 19, 44, 62, 64, 20, 68, 66, 68, 19, 63, 66, 63, 6, 68, 63, 66, 13, 64, 67, 64, 19, 68, 67, 68, 20, 64, 68, 67, 3, 65, 81, 65, 20, 83, 81, 83, 25, 65, 83, 81, 20, 66, 86, 66, 6, 84, 86, 84, 26, 66, 84, 86, 25, 88, 82, 88, 26, 85, 82, 85, 8, 88, 85, 82, 20, 86, 83, 86, 26, 88, 83, 88, 25, 86, 88, 83, 3, 81, 99, 81, 25, 102, 99, 102, 29, 81, 102, 99, 25, 82, 117, 82, 8, 114, 117, 114, 32, 82, 114, 117, 29, 119, 100, 119, 32, 115, 100, 115, 9, 119, 115, 100, 25, 117, 102, 117, 32, 119, 102, 119, 29, 117, 119, 102, 4, 103, 60, 103, 30, 106, 60, 106, 18, 103, 106, 60, 30, 104, 113, 104, 9, 109, 113, 109, 31, 104, 109, 113, 18, 111, 61, 111, 31, 108, 61, 108, 5, 111, 108, 61, 30, 113, 106, 113, 31, 111, 106, 111, 18, 113, 111, 106, 2, 46, 141, 46, 14, 143, 141, 143, 38, 46, 143, 141, 14, 47, 147, 47, 4, 145, 147, 145, 39, 47, 145, 147, 38, 149, 142, 149, 39, 146, 142, 146, 11, 149, 146, 142, 14, 147, 143, 147, 39, 149, 143, 149, 38, 147, 149, 143, 6, 63, 126, 63, 19, 128, 126, 128, 35, 63, 128, 126, 19, 62, 125, 62, 2, 123, 125, 123, 34, 62, 123, 125, 35, 130, 127, 130, 34, 124, 127, 124, 10, 130, 124, 127, 19, 125, 128, 125, 34, 130, 128, 130, 35, 125, 130, 128, 8, 85, 90, 85, 26, 94, 90, 94, 27, 85, 94, 90, 26, 84, 87, 84, 6, 76, 87, 76, 23, 84, 76, 87, 27, 92, 89, 92, 23, 77, 89, 77, 7, 92, 77, 89, 26, 87, 94, 87, 23, 92, 94, 92, 27, 87, 92, 94, 9, 115, 96, 115, 32, 118, 96, 118, 28, 115, 118, 96, 32, 114, 116, 114, 8, 79, 116, 79, 24, 114, 79, 116, 28, 98, 95, 98, 24, 78, 95, 78, 1, 98, 78, 95, 32, 116, 118, 116, 24, 98, 118, 98, 28, 116, 98, 118]
        rel material:binding = </PlateCoral/Looks/Coral>
        uniform token physics:approximation = "convexHull"
        point3f[] points = [(-0.020175587, 0.04756618, 0.047), (0.02608875, 0.04756618, 0.047), (-0.020175587, -0.011979376, 0.047), (0.02608875, -0.011979376, 0.047), (0.0029565813, -0.00060718646, 0.053805206), (0.0029565813, 0.036193993, 0.053805206), (0.0029565813, -0.00060718646, 0.040194795), (0.0029565813, 0.036193993, 0.040194795), (0.040385216, 0.017793402, 0.04279415), (0.040385216, 0.017793402, 0.051205847), (-0.034472056, 0.017793402, 0.04279415), (-0.034472056, 0.017793402, 0.051205847), (0.0029565813, 0.052793402, 0.047), (0.0029565813, -0.017206598, 0.047), (-0.010640167, -0.010522192, 0.051), (0.01655333, -0.010522192, 0.051), (-0.010640167, 0.046109, 0.051), (0.01655333, 0.046109, 0.051), (0.0029565813, 0.017793402, 0.055), (-0.010640167, -0.010522192, 0.043), (0.01655333, -0.010522192, 0.043), (-0.010640167, 0.046109, 0.043), (0.01655333, 0.046109, 0.043), (0.0029565813, 0.017793402, 0.039), (0.038553327, 0.035293404, 0.044527862), (0.038553327, 0.00029340244, 0.044527862), (0.024956582, 0.0069778077, 0.040527865), (0.024956582, 0.028608996, 0.040527865), (0.038553327, 0.035293404, 0.049472135), (0.038553327, 0.00029340244, 0.049472135), (0.024956582, 0.0069778077, 0.053472135), (0.024956582, 0.028608996, 0.053472135), (0.04695658, 0.017793402, 0.047), (-0.032640167, 0.035293404, 0.044527862), (-0.032640167, 0.00029340244, 0.044527862), (-0.01904342, 0.0069778077, 0.040527865), (-0.01904342, 0.028608996, 0.040527865), (-0.032640167, 0.035293404, 0.049472135), (-0.032640167, 0.00029340244, 0.049472135), (-0.01904342, 0.0069778077, 0.053472135), (-0.01904342, 0.028608996, 0.053472135), (-0.04104342, 0.017793402, 0.047), (-0.009067146, 0.051461246, 0.047), (0.014980309, 0.051461246, 0.047), (-0.009067146, -0.01587444, 0.047), (0.014980309, -0.01587444, 0.047), (-0.016134515, -0.012399995, 0.049079135), (-0.004110788, -0.006488914, 0.052616373), (-0.004191652, -0.0154935755, 0.049102925), (0.022047678, -0.012399995, 0.049079135), (0.010023951, -0.006488914, 0.052616373), (0.010104815, -0.0154935755, 0.049102925), (0.0029565813, -0.011979376, 0.051205847), (-0.016134515, 0.047986798, 0.049079135), (-0.004110788, 0.04207572, 0.052616373), (-0.004191652, 0.05108038, 0.049102925), (0.022047678, 0.047986798, 0.049079135), (0.010023951, 0.04207572, 0.052616373), (0.010104815, 0.05108038, 0.049102925), (0.0029565813, 0.04756618, 0.051205847), (0.0029565813, 0.008229074, 0.054695506), (0.0029565813, 0.027357731, 0.054695506), (-0.016134515, -0.012399995, 0.044920865), (-0.004110788, -0.006488914, 0.041383628), (-0.004191652, -0.0154935755, 0.044897076), (0.022047678, -0.012399995, 0.044920865), (0.010023951, -0.006488914, 0.041383628), (0.010104815, -0.0154935755, 0.044897076), (0.0029565813, -0.011979376, 0.04279415), (-0.016134515, 0.047986798, 0.044920865), (-0.004110788, 0.04207572, 0.041383628), (-0.004191652, 0.05108038, 0.044897076), (0.022047678, 0.047986798, 0.044920865), (0.010023951, 0.04207572, 0.041383628), (0.010104815, 0.05108038, 0.044897076), (0.0029565813, 0.04756618, 0.04279415), (0.0029565813, 0.008229074, 0.039304495), (0.0029565813, 0.027357731, 0.039304495), (0.033482924, 0.04236503, 0.045715023), (0.040913995, 0.026889618, 0.043528892), (0.028819133, 0.041880086, 0.043597396), (0.033482924, -0.006778223, 0.045715023), (0.040913995, 0.008697186, 0.043528892), (0.028819133, -0.006293281, 0.043597396), (0.014391826, 0.0026073027, 0.040098652), (0.033846624, 0.012171631, 0.041449755), (0.021670898, -0.0027790815, 0.041494474), (0.014522666, 0.012107308, 0.039391547), (0.033236984, 0.0029070133, 0.042297717), (0.014391826, 0.032979503, 0.040098652), (0.033846624, 0.023415174, 0.041449755), (0.021670898, 0.038365886, 0.041494474), (0.014522666, 0.023479497, 0.039391547), (0.033236984, 0.032679792, 0.042297717), (0.02608875, 0.017793402, 0.040194795), (0.033482924, 0.04236503, 0.048284978), (0.040913995, 0.026889618, 0.05047111), (0.028819133, 0.041880086, 0.050402604), (0.040385216, 0.036193993, 0.047), (0.033482924, -0.006778223, 0.048284978), (0.040913995, 0.008697186, 0.05047111), (0.028819133, -0.006293281, 0.050402604), (0.040385216, -0.00060718646, 0.047), (0.014391826, 0.0026073027, 0.05390135), (0.033846624, 0.012171631, 0.052550245), (0.021670898, -0.0027790815, 0.052505527), (0.014522666, 0.012107308, 0.054608453), (0.033236984, 0.0029070133, 0.051702283), (0.014391826, 0.032979503, 0.05390135), (0.033846624, 0.023415174, 0.052550245), (0.021670898, 0.038365886, 0.052505527), (0.014522666, 0.023479497, 0.054608453), (0.033236984, 0.032679792, 0.051702283), (0.02608875, 0.017793402, 0.053805206), (0.04528187, 0.017793402, 0.044813868), (0.04528187, 0.017793402, 0.049186133), (0.044803068, 0.026993698, 0.045700323), (0.044803068, 0.008593108, 0.045700323), (0.044803068, 0.026993698, 0.048299678), (0.044803068, 0.008593108, 0.048299678), (-0.02756976, 0.04236503, 0.045715023), (-0.03500083, 0.026889618, 0.043528892), (-0.02290597, 0.041880086, 0.043597396), (-0.02756976, -0.006778223, 0.045715023), (-0.03500083, 0.008697186, 0.043528892), (-0.02290597, -0.006293281, 0.043597396), (-0.008478663, 0.0026073027, 0.040098652), (-0.027933462, 0.012171631, 0.041449755), (-0.015757736, -0.0027790815, 0.041494474), (-0.0086095035, 0.012107308, 0.039391547), (-0.027323822, 0.0029070133, 0.042297717), (-0.008478663, 0.032979503, 0.040098652), (-0.027933462, 0.023415174, 0.041449755), (-0.015757736, 0.038365886, 0.041494474), (-0.0086095035, 0.023479497, 0.039391547), (-0.027323822, 0.032679792, 0.042297717), (-0.020175587, 0.017793402, 0.040194795), (-0.02756976, 0.04236503, 0.048284978), (-0.03500083, 0.026889618, 0.05047111), (-0.02290597, 0.041880086, 0.050402604), (-0.034472056, 0.036193993, 0.047), (-0.02756976, -0.006778223, 0.048284978), (-0.03500083, 0.008697186, 0.05047111), (-0.02290597, -0.006293281, 0.050402604), (-0.034472056, -0.00060718646, 0.047), (-0.008478663, 0.0026073027, 0.05390135), (-0.027933462, 0.012171631, 0.052550245), (-0.015757736, -0.0027790815, 0.052505527), (-0.0086095035, 0.012107308, 0.054608453), (-0.027323822, 0.0029070133, 0.051702283), (-0.008478663, 0.032979503, 0.05390135), (-0.027933462, 0.023415174, 0.052550245), (-0.015757736, 0.038365886, 0.052505527), (-0.0086095035, 0.023479497, 0.054608453), (-0.027323822, 0.032679792, 0.051702283), (-0.020175587, 0.017793402, 0.053805206), (-0.039368708, 0.017793402, 0.044813868), (-0.039368708, 0.017793402, 0.049186133), (-0.038889904, 0.026993698, 0.045700323), (-0.038889904, 0.008593108, 0.045700323), (-0.038889904, 0.026993698, 0.048299678), (-0.038889904, 0.008593108, 0.048299678)]
        uniform token subdivisionScheme = "none"
    }

    def Mesh "Part4" (
        prepend apiSchemas = ["MaterialBindingAPI", "PhysicsCollisionAPI", "PhysicsMeshCollisionAPI"]
    )
    {
        int[] faceVertexCounts = [3, 3, 3, 3, 3, 3, 3, 3, 3, 3, 3, 3, 3, 3, 3, 3, 3, 3, 3, 3, 3, 3, 3, 3, 3, 3, 3, 3, 3, 3, 3, 3, 3, 3, 3, 3, 3, 3, 3, 3, 3, 3, 3, 3, 3, 3, 3, 3, 3, 3, 3, 3, 3, 3, 3, 3, 3, 3, 3, 3, 3, 3, 3, 3, 3, 3, 3, 3, 3, 3, 3, 3, 3, 3, 3, 3, 3, 3, 3, 3, 3, 3, 3, 3, 3, 3, 3, 3, 3, 3, 3, 3, 3, 3, 3, 3, 3, 3, 3, 3, 3, 3, 3, 3, 3, 3, 3, 3, 3, 3, 3, 3, 3, 3, 3, 3, 3, 3, 3, 3, 3, 3, 3, 3, 3, 3, 3, 3, 3, 3, 3, 3, 3, 3, 3, 3, 3, 3, 3, 3, 3, 3, 3, 3, 3, 3, 3, 3, 3, 3, 3, 3, 3, 3, 3, 3, 3, 3, 3, 3, 3, 3, 3, 3, 3, 3, 3, 3, 3, 3, 3, 3, 3, 3, 3, 3, 3, 3, 3, 3, 3, 3, 3, 3, 3, 3, 3, 3, 3, 3, 3, 3, 3, 3, 3, 3, 3, 3, 3, 3, 3, 3, 3, 3, 3, 3, 3, 3, 3, 3, 3, 3, 3, 3, 3, 3, 3, 3, 3, 3, 3, 3, 3, 3, 3, 3, 3, 3, 3, 3, 3, 3, 3, 3, 3, 3, 3, 3, 3, 3, 3, 3, 3, 3, 3, 3, 3, 3, 3, 3, 3, 3, 3, 3, 3, 3, 3, 3, 3, 3, 3, 3, 3, 3, 3, 3, 3, 3, 3, 3, 3, 3, 3, 3, 3, 3, 3, 3, 3, 3, 3, 3, 3, 3, 3, 3, 3, 3, 3, 3, 3, 3, 3, 3, 3, 3, 3, 3, 3, 3, 3, 3, 3, 3, 3, 3, 3, 3, 3, 3, 3, 3, 3, 3, 3, 3, 3, 3, 3, 3]
        int[] faceVertexIndices = [0, 137, 53, 137, 37, 139, 53, 139, 16, 137, 139, 53, 37, 138, 154, 138, 11, 151, 154, 151, 40, 138, 151, 154, 16, 152, 54, 152, 40, 150, 54, 150, 5, 152, 150, 54, 37, 154, 139, 154, 40, 152, 139, 152, 16, 154, 152, 139, 0, 53, 42, 53, 16, 55, 42, 55, 12, 53, 55, 42, 16, 54, 59, 54, 5, 57, 59, 57, 17, 54, 57, 59, 12, 58, 43, 58, 17, 56, 43, 56, 1, 58, 56, 43, 16, 59, 55, 59, 17, 58, 55, 58, 12, 59, 58, 55, 0, 42, 69, 42, 12, 71, 69, 71, 21, 42, 71, 69, 12, 43, 74, 43, 1, 72, 74, 72, 22, 43, 72, 74, 21, 75, 70, 75, 22, 73, 70, 73, 7, 75, 73, 70, 12, 74, 71, 74, 22, 75, 71, 75, 21, 74, 75, 71, 0, 69, 120, 69, 21, 122, 120, 122, 33, 69, 122, 120, 21, 70, 133, 70, 7, 131, 133, 131, 36, 70, 131, 133, 33, 135, 121, 135, 36, 132, 121, 132, 10, 135, 132, 121, 21, 133, 122, 133, 36, 135, 122, 135, 33, 133, 135, 122, 0, 120, 137, 120, 33, 140, 137, 140, 37, 120, 140, 137, 33, 121, 158, 121, 10, 156, 158, 156, 41, 121, 156, 158, 37, 160, 138, 160, 41, 157, 138, 157, 11, 160, 157, 138, 33, 158, 140, 158, 41, 160, 140, 160, 37, 158, 160, 140, 1, 56, 95, 56, 17, 97, 95, 97, 28, 56, 97, 95, 17, 57, 110, 57, 5, 108, 110, 108, 31, 57, 108, 110, 28, 112, 96, 112, 31, 109, 96, 109, 9, 112, 109, 96, 17, 110, 97, 110, 31, 112, 97, 112, 28, 110, 112, 97, 5, 150, 61, 150, 40, 153, 61, 153, 18, 150, 153, 61, 40, 151, 155, 151, 11, 146, 155, 146, 39, 151, 146, 155, 18, 148, 60, 148, 39, 145, 60, 145, 4, 148, 145, 60, 40, 155, 153, 155, 39, 148, 153, 148, 18, 155, 148, 153, 11, 157, 142, 157, 41, 161, 142, 161, 38, 157, 161, 142, 41, 156, 159, 156, 10, 124, 159, 124, 34, 156, 124, 159, 38, 144, 141, 144, 34, 123, 141, 123, 2, 144, 123, 141, 41, 159, 161, 159, 34, 144, 161, 144, 38, 159, 144, 161, 10, 132, 127, 132, 36, 136, 127, 136, 35, 132, 136, 127, 36, 131, 134, 131, 7, 77, 134, 77, 23, 131, 77, 134, 35, 129, 126, 129, 23, 76, 126, 76, 6, 129, 76, 126, 36, 134, 136, 134, 23, 129, 136, 129, 35, 134, 129, 136, 7, 73, 89, 73, 22, 91, 89, 91, 27, 73, 91, 89, 22, 72, 80, 72, 1, 78, 80, 78, 24, 72, 78, 80, 27, 93, 90, 93, 24, 79, 90, 79, 8, 93, 79, 90, 22, 80, 91, 80, 24, 93, 91, 93, 27, 80, 93, 91, 3, 99, 49, 99, 29, 101, 49, 101, 15, 99, 101, 49, 29, 100, 107, 100, 9, 104, 107, 104, 30, 100, 104, 107, 15, 105, 50, 105, 30, 103, 50, 103, 4, 105, 103, 50, 29, 107, 101, 107, 30, 105, 101, 105, 15, 107, 105, 101, 3, 49, 45, 49, 15, 51, 45, 51, 13, 49, 51, 45, 15, 50, 52, 50, 4, 47, 52, 47, 14, 50, 47, 52, 13, 48, 44, 48, 14, 46, 44, 46, 2, 48, 46, 44, 15, 52, 51, 52, 14, 48, 51, 48, 13, 52, 48, 51, 3, 45, 65, 45, 13, 67, 65, 67, 20, 45, 67, 65, 13, 44, 64, 44, 2, 62, 64, 62, 19, 44, 62, 64, 20, 68, 66, 68, 19, 63, 66, 63, 6, 68, 63, 66, 13, 64, 67, 64, 19, 68, 67, 68, 20, 64, 68, 67, 3, 65, 81, 65, 20, 83, 81, 83, 25, 65, 83, 81, 20, 66, 86, 66, 6, 84, 86, 84, 26, 66, 84, 86, 25, 88, 82, 88, 26, 85, 82, 85, 8, 88, 85, 82, 20, 86, 83, 86, 26, 88, 83, 88, 25, 86, 88, 83, 3, 81, 99, 81, 25, 102, 99, 102, 29, 81, 102, 99, 25, 82, 117, 82, 8, 114, 117, 114, 32, 82, 114, 117, 29, 119, 100, 119, 32, 115, 100, 115, 9, 119, 115, 100, 25, 117, 102, 117, 32, 119, 102, 119, 29, 117, 119, 102, 4, 103, 60, 103, 30, 106, 60, 106, 18, 103, 106, 60, 30, 104, 113, 104, 9, 109, 113, 109, 31, 104, 109, 113, 18, 111, 61, 111, 31, 108, 61, 108, 5, 111, 108, 61, 30, 113, 106, 113, 31, 111, 106, 111, 18, 113, 111, 106, 2, 46, 141, 46, 14, 143, 141, 143, 38, 46, 143, 141, 14, 47, 147, 47, 4, 145, 147, 145, 39, 47, 145, 147, 38, 149, 142, 149, 39, 146, 142, 146, 11, 149, 146, 142, 14, 147, 143, 147, 39, 149, 143, 149, 38, 147, 149, 143, 6, 63, 126, 63, 19, 128, 126, 128, 35, 63, 128, 126, 19, 62, 125, 62, 2, 123, 125, 123, 34, 62, 123, 125, 35, 130, 127, 130, 34, 124, 127, 124, 10, 130, 124, 127, 19, 125, 128, 125, 34, 130, 128, 130, 35, 125, 130, 128, 8, 85, 90, 85, 26, 94, 90, 94, 27, 85, 94, 90, 26, 84, 87, 84, 6, 76, 87, 76, 23, 84, 76, 87, 27, 92, 89, 92, 23, 77, 89, 77, 7, 92, 77, 89, 26, 87, 94, 87, 23, 92, 94, 92, 27, 87, 92, 94, 9, 115, 96, 115, 32, 118, 96, 118, 28, 115, 118, 96, 32, 114, 116, 114, 8, 79, 116, 79, 24, 114, 79, 116, 28, 98, 95, 98, 24, 78, 95, 78, 1, 98, 78, 95, 32, 116, 118, 116, 24, 98, 118, 98, 28, 116, 98, 118]
        rel material:binding = </PlateCoral/Looks/Coral>
        uniform token physics:approximation = "convexHull"
        point3f[] points = [(-0.03207612, 0.051489986, 0.06), (0.014188218, 0.051489986, 0.06), (-0.03207612, -0.008055571, 0.06), (0.014188218, -0.008055571, 0.06), (-0.008943951, 0.0033166187, 0.066805206), (-0.008943951, 0.040117797, 0.066805206), (-0.008943951, 0.0033166187, 0.053194795), (-0.008943951, 0.040117797, 0.053194795), (0.028484685, 0.021717208, 0.05579415), (0.028484685, 0.021717208, 0.06420585), (-0.046372585, 0.021717208, 0.05579415), (-0.046372585, 0.021717208, 0.06420585), (-0.008943951, 0.056717206, 0.06), (-0.008943951, -0.013282793, 0.06), (-0.0225407, -0.0065983874, 0.064), (0.004652797, -0.0065983874, 0.064), (-0.0225407, 0.050032802, 0.064), (0.004652797, 0.050032802, 0.064), (-0.008943951, 0.021717208, 0.068), (-0.0225407, -0.0065983874, 0.056), (0.004652797, -0.0065983874, 0.056), (-0.0225407, 0.050032802, 0.056), (0.004652797, 0.050032802, 0.056), (-0.008943951, 0.021717208, 0.052), (0.026652796, 0.039217208, 0.057527862), (0.026652796, 0.0042172074, 0.057527862), (0.013056049, 0.010901613, 0.053527866), (0.013056049, 0.032532804, 0.053527866), (0.026652796, 0.039217208, 0.062472135), (0.026652796, 0.0042172074, 0.062472135), (0.013056049, 0.010901613, 0.066472135), (0.013056049, 0.032532804, 0.066472135), (0.035056047, 0.021717208, 0.06), (-0.0445407, 0.039217208, 0.057527862), (-0.0445407, 0.0042172074, 0.057527862), (-0.03094395, 0.010901613, 0.053527866), (-0.03094395, 0.032532804, 0.053527866), (-0.0445407, 0.039217208, 0.062472135), (-0.0445407, 0.0042172074, 0.062472135), (-0.03094395, 0.010901613, 0.066472135), (-0.03094395, 0.032532804, 0.066472135), (-0.052943952, 0.021717208, 0.06), (-0.02096768, 0.05538505, 0.06), (0.0030797762, 0.05538505, 0.06), (-0.02096768, -0.011950635, 0.06), (0.0030797762, -0.011950635, 0.06), (-0.028035048, -0.008476189, 0.062079135), (-0.01601132, -0.0025651092, 0.06561637), (-0.016092185, -0.01156977, 0.062102925), (0.010147146, -0.008476189, 0.062079135), (-0.0018765815, -0.0025651092, 0.06561637), (-0.0017957177, -0.01156977, 0.062102925), (-0.008943951, -0.008055571, 0.06420585), (-0.028035048, 0.051910605, 0.062079135), (-0.01601132, 0.045999523, 0.06561637), (-0.016092185, 0.055004187, 0.062102925), (0.010147146, 0.051910605, 0.062079135), (-0.0018765815, 0.045999523, 0.06561637), (-0.0017957177, 0.055004187, 0.062102925), (-0.008943951, 0.051489986, 0.06420585), (-0.008943951, 0.0121528795, 0.067695506), (-0.008943951, 0.031281535, 0.067695506), (-0.028035048, -0.008476189, 0.057920866), (-0.01601132, -0.0025651092, 0.054383628), (-0.016092185, -0.01156977, 0.057897076), (0.010147146, -0.008476189, 0.057920866), (-0.0018765815, -0.0025651092, 0.054383628), (-0.0017957177, -0.01156977, 0.057897076), (-0.008943951, -0.008055571, 0.05579415), (-0.028035048, 0.051910605, 0.057920866), (-0.01601132, 0.045999523, 0.054383628), (-0.016092185, 0.055004187, 0.057897076), (0.010147146, 0.051910605, 0.057920866), (-0.0018765815, 0.045999523, 0.054383628), (-0.0017957177, 0.055004187, 0.057897076), (-0.008943951, 0.051489986, 0.05579415), (-0.008943951, 0.0121528795, 0.05230449), (-0.008943951, 0.031281535, 0.05230449), (0.02158239, 0.046288833, 0.058715023), (0.029013462, 0.030813424, 0.056528892), (0.0169186, 0.04580389, 0.056597397), (0.02158239, -0.002854418, 0.058715023), (0.029013462, 0.012620991, 0.056528892), (0.0169186, -0.002369476, 0.056597397), (0.0024912932, 0.0065311077, 0.053098653), (0.021946093, 0.016095437, 0.054449756), (0.009770366, 0.0011447237, 0.054494474), (0.0026221334, 0.016031113, 0.052391548), (0.021336451, 0.0068308185, 0.055297717), (0.0024912932, 0.036903307, 0.053098653), (0.021946093, 0.02733898, 0.054449756), (0.009770366, 0.042289693, 0.054494474), (0.0026221334, 0.027403302, 0.052391548), (0.021336451, 0.036603596, 0.055297717), (0.014188218, 0.021717208, 0.053194795), (0.02158239, 0.046288833, 0.061284978), (0.029013462, 0.030813424, 0.06347111), (0.0169186, 0.04580389, 0.0634026), (0.028484685, 0.040117797, 0.06), (0.02158239, -0.002854418, 0.061284978), (0.029013462, 0.012620991, 0.06347111), (0.0169186, -0.002369476, 0.0634026), (0.028484685, 0.0033166187, 0.06), (0.0024912932, 0.0065311077, 0.06690135), (0.021946093, 0.016095437, 0.065550245), (0.009770366, 0.0011447237, 0.06550553), (0.0026221334, 0.016031113, 0.06760845), (0.021336451, 0.0068308185, 0.06470228), (0.0024912932, 0.036903307, 0.06690135), (0.021946093, 0.02733898, 0.065550245), (0.009770366, 0.042289693, 0.06550553), (0.0026221334, 0.027403302, 0.06760845), (0.021336451, 0.036603596, 0.06470228), (0.014188218, 0.021717208, 0.066805206), (0.033381335, 0.021717208, 0.057813868), (0.033381335, 0.021717208, 0.062186133), (0.032902535, 0.030917503, 0.05870032), (0.032902535, 0.012516913, 0.05870032), (0.032902535, 0.030917503, 0.061299678), (0.032902535, 0.012516913, 0.061299678), (-0.039470293, 0.046288833, 0.058715023), (-0.046901364, 0.030813424, 0.056528892), (-0.0348065, 0.04580389, 0.056597397), (-0.039470293, -0.002854418, 0.058715023), (-0.046901364, 0.012620991, 0.056528892), (-0.0348065, -0.002369476, 0.056597397), (-0.020379195, 0.0065311077, 0.053098653), (-0.039833996, 0.016095437, 0.054449756), (-0.027658269, 0.0011447237, 0.054494474), (-0.020510035, 0.016031113, 0.052391548), (-0.039224353, 0.0068308185, 0.055297717), (-0.020379195, 0.036903307, 0.053098653), (-0.039833996, 0.02733898, 0.054449756), (-0.027658269, 0.042289693, 0.054494474), (-0.020510035, 0.027403302, 0.052391548), (-0.039224353, 0.036603596, 0.055297717), (-0.03207612, 0.021717208, 0.053194795), (-0.039470293, 0.046288833, 0.061284978), (-0.046901364, 0.030813424, 0.06347111), (-0.0348065, 0.04580389, 0.0634026), (-0.046372585, 0.040117797, 0.06), (-0.039470293, -0.002854418, 0.061284978), (-0.046901364, 0.012620991, 0.06347111), (-0.0348065, -0.002369476, 0.0634026), (-0.046372585, 0.0033166187, 0.06), (-0.020379195, 0.0065311077, 0.06690135), (-0.039833996, 0.016095437, 0.065550245), (-0.027658269, 0.0011447237, 0.06550553), (-0.020510035, 0.016031113, 0.06760845), (-0.039224353, 0.0068308185, 0.06470228), (-0.020379195, 0.036903307, 0.06690135), (-0.039833996, 0.02733898, 0.065550245), (-0.027658269, 0.042289693, 0.06550553), (-0.020510035, 0.027403302, 0.06760845), (-0.039224353, 0.036603596, 0.06470228), (-0.03207612, 0.021717208, 0.066805206), (-0.051269237, 0.021717208, 0.057813868), (-0.051269237, 0.021717208, 0.062186133), (-0.050790437, 0.030917503, 0.05870032), (-0.050790437, 0.012516913, 0.05870032), (-0.050790437, 0.030917503, 0.061299678), (-0.050790437, 0.012516913, 0.061299678)]
        uniform token subdivisionScheme = "none"
    }
}

