#usda 1.0
(
    defaultPrim = "RibbonKelp"
    metersPerUnit = 1
    upAxis = "Z"
)

def Xform "RibbonKelp"
{
    def "Looks"
    {
        def Material "Leaf0"
        {
            token outputs:surface.connect = </RibbonKelp/Looks/Leaf0/Surface.outputs:surface>

            def Shader "Surface"
            {
                uniform token info:id = "UsdPreviewSurface"
                color3f inputs:diffuseColor = (0.21310955, 0.20320083, 0.07993152)
                float inputs:roughness = 0.65
                token outputs:surface
            }
        }

        def Material "Leaf1"
        {
            token outputs:surface.connect = </RibbonKelp/Looks/Leaf1/Surface.outputs:surface>

            def Shader "Surface"
            {
                uniform token info:id = "UsdPreviewSurface"
                color3f inputs:diffuseColor = (0.20195, 0.24529086, 0.076801926)
                float inputs:roughness = 0.65
                token outputs:surface
            }
        }

        def Material "Leaf2"
        {
            token outputs:surface.connect = </RibbonKelp/Looks/Leaf2/Surface.outputs:surface>

            def Shader "Surface"
            {
                uniform token info:id = "UsdPreviewSurface"
                color3f inputs:diffuseColor = (0.269379, 0.21148618, 0.08238143)
                float inputs:roughness = 0.65
                token outputs:surface
            }
        }

        def Material "Leaf3"
        {
            token outputs:surface.connect = </RibbonKelp/Looks/Leaf3/Surface.outputs:surface>

            def Shader "Surface"
            {
                uniform token info:id = "UsdPreviewSurface"
                color3f inputs:diffuseColor = (0.27757624, 0.20814875, 0.06709695)
                float inputs:roughness = 0.65
                token outputs:surface
            }
        }

        def Material "Leaf4"
        {
            token outputs:surface.connect = </RibbonKelp/Looks/Leaf4/Surface.outputs:surface>

            def Shader "Surface"
            {
                uniform token info:id = "UsdPreviewSurface"
                color3f inputs:diffuseColor = (0.2302748, 0.29267263, 0.07908578)
                float inputs:roughness = 0.65
                token outputs:surface
            }
        }

        def Material "Leaf5"
        {
            token outputs:surface.connect = </RibbonKelp/Looks/Leaf5/Surface.outputs:surface>

            def Shader "Surface"
            {
                uniform token info:id = "UsdPreviewSurface"
                color3f inputs:diffuseColor = (0.25808802, 0.29358032, 0.07118492)
                float inputs:roughness = 0.65
                token outputs:surface
            }
        }

        def Material "Leaf6"
        {
            token outputs:surface.connect = </RibbonKelp/Looks/Leaf6/Surface.outputs:surface>

            def Shader "Surface"
            {
                uniform token info:id = "UsdPreviewSurface"
                color3f inputs:diffuseColor = (0.28391716, 0.2504076, 0.06390868)
                float inputs:roughness = 0.65
                token outputs:surface
            }
        }
    }

    def Mesh "Blade0" (
        prepend apiSchemas = ["MaterialBindingAPI"]
    )
    {
        uniform bool doubleSided = 1
        int[] faceVertexCounts = [3, 3, 3, 3, 3, 3, 3, 3, 3, 3, 3, 3, 3, 3, 3, 3, 3, 3, 3, 3, 3, 3, 3, 3, 3, 3, 3, 3, 3, 3, 3, 3]
        int[] faceVertexIndices = [0, 1, 2, 2, 3, 4, 4, 5, 6, 6, 7, 8, 8, 9, 10, 10, 11, 12, 12, 13, 14, 14, 15, 16, 16, 17, 18, 18, 19, 20, 20, 21, 22, 22, 23, 24, 24, 25, 26, 26, 27, 28, 28, 29, 30, 30, 31, 32, 1, 3, 2, 3, 5, 4, 5, 7, 6, 7, 9, 8, 9, 11, 10, 11, 13, 12, 13, 15, 14, 15, 17, 16, 17, 19, 18, 19, 21, 20, 21, 23, 22, 23, 25, 24, 25, 27, 26, 27, 29, 28, 29, 31, 30, 31, 32, 32]
        rel material:binding = </RibbonKelp/Looks/Leaf0>
        point3f[] points = [(-0.010033487, 0.024576424, 0), (-0.010332548, 0.018117405, 0), (-0.010048351, 0.026789086, 0.007487343), (-0.010551808, 0.015915582, 0.007487343), (-0.010305531, 0.028835664, 0.01500934), (-0.010997, 0.013901526, 0.01500934), (-0.010808087, 0.030650081, 0.022104066), (-0.011665066, 0.01214131, 0.022104066), (-0.011558711, 0.032174177, 0.02879544), (-0.012553311, 0.010693096, 0.02879544), (-0.012559642, 0.033359587, 0.035737727), (-0.013659498, 0.009605248, 0.035737727), (-0.013812594, 0.03416932, 0.043558136), (-0.0149819115, 0.0089147575, 0.043558136), (-0.015318696, 0.034578968, 0.052049283), (-0.016519424, 0.008646034, 0.052049283), (-0.017078461, 0.03457749, 0.06015154), (-0.018271523, 0.008810113, 0.06015154), (-0.01909176, 0.034167584, 0.066920504), (-0.020238332, 0.009404304, 0.066920504), (-0.021357844, 0.033365585, 0.07259689), (-0.02242061, 0.010412268, 0.07259689), (-0.02387534, 0.032200944, 0.078623), (-0.024819719, 0.011804555, 0.078623), (-0.02664233, 0.030715266, 0.086386316), (-0.027437586, 0.013539557, 0.086386316), (-0.029656382, 0.028960956, 0.095784284), (-0.030276638, 0.015564874, 0.095784284), (-0.032914653, 0.026999513, 0.105065376), (-0.03333972, 0.017819002, 0.105065376), (-0.036413964, 0.024899531, 0.11231014), (-0.036630012, 0.020233352, 0.11231014), (-0.04015091, 0.022734465, 0.11730308)]
        uniform token subdivisionScheme = "none"
    }

    def Mesh "Blade1" (
        prepend apiSchemas = ["MaterialBindingAPI"]
    )
    {
        uniform bool doubleSided = 1
        int[] faceVertexCounts = [3, 3, 3, 3, 3, 3, 3, 3, 3, 3, 3, 3, 3, 3, 3, 3, 3, 3, 3, 3, 3, 3, 3, 3, 3, 3, 3, 3, 3, 3, 3, 3]
        int[] faceVertexIndices = [0, 1, 2, 2, 3, 4, 4, 5, 6, 6, 7, 8, 8, 9, 10, 10, 11, 12, 12, 13, 14, 14, 15, 16, 16, 17, 18, 18, 19, 20, 20, 21, 22, 22, 23, 24, 24, 25, 26, 26, 27, 28, 28, 29, 30, 30, 31, 32, 1, 3, 2, 3, 5, 4, 5, 7, 6, 7, 9, 8, 9, 11, 10, 11, 13, 12, 13, 15, 14, 15, 17, 16, 17, 19, 18, 19, 21, 20, 21, 23, 22, 23, 25, 24, 25, 27, 26, 27, 29, 28, 29, 31, 30, 31, 32, 32]
        rel material:binding = </RibbonKelp/Looks/Leaf1>
        point3f[] points = [(0.01266359, -0.020057736, 0), (0.006981383, -0.016972145, 0), (0.014661296, -0.021009192, 0.010540806), (0.0050955224, -0.015814722, 0.010540806), (0.016615199, -0.021670163, 0.020804267), (0.0034771552, -0.014535853, 0.020804267), (0.018467175, -0.02200908, 0.030701809), (0.0021844073, -0.013167102, 0.030701809), (0.02016605, -0.02199816, 0.04074287), (0.001268448, -0.011736255, 0.04074287), (0.021669284, -0.021614298, 0.051501684), (0.0007718238, -0.010266418, 0.051501684), (0.022944331, -0.020839823, 0.06285548), (0.0007270754, -0.008775259, 0.06285548), (0.02396972, -0.019663075, 0.073894694), (0.0011556775, -0.0072744405, 0.073894694), (0.024735738, -0.018078782, 0.08376178), (0.0020673408, -0.0057692355, 0.08376178), (0.025244754, -0.016088227, 0.09264612), (0.0034596955, -0.0042583575, 0.09264612), (0.025511144, -0.013699218, 0.10184382), (0.0053183683, -0.0027340006, 0.10184382), (0.025560815, -0.010925823, 0.11262653), (0.0076174503, -0.0011820963, 0.11262653), (0.025430368, -0.007787918, 0.12490615), (0.010320341, 0.0004172307, 0.12490615), (0.025165906, -0.004310537, 0.13706452), (0.013380938, 0.0020890154, 0.13706452), (0.024821531, -0.0005230601, 0.14732045), (0.016745139, 0.003862637, 0.14732045), (0.024457587, 0.0035417448, 0.15548241), (0.020352598, 0.0057708644, 0.15548241), (0.024138696, 0.007848787, 0.16337825)]
        uniform token subdivisionScheme = "none"
    }

    def Mesh "Blade2" (
        prepend apiSchemas = ["MaterialBindingAPI"]
    )
    {
        uniform bool doubleSided = 1
        int[] faceVertexCounts = [3, 3, 3, 3, 3, 3, 3, 3, 3, 3, 3, 3, 3, 3, 3, 3, 3, 3, 3, 3, 3, 3, 3, 3, 3, 3, 3, 3, 3, 3, 3, 3]
        int[] faceVertexIndices = [0, 1, 2, 2, 3, 4, 4, 5, 6, 6, 7, 8, 8, 9, 10, 10, 11, 12, 12, 13, 14, 14, 15, 16, 16, 17, 18, 18, 19, 20, 20, 21, 22, 22, 23, 24, 24, 25, 26, 26, 27, 28, 28, 29, 30, 30, 31, 32, 1, 3, 2, 3, 5, 4, 5, 7, 6, 7, 9, 8, 9, 11, 10, 11, 13, 12, 13, 15, 14, 15, 17, 16, 17, 19, 18, 19, 21, 20, 21, 23, 22, 23, 25, 24, 25, 27, 26, 27, 29, 28, 29, 31, 30, 31, 32, 32]
        rel material:binding = </RibbonKelp/Looks/Leaf2>
        point3f[] points = [(0.014131874, -0.010129129, 0), (0.009825377, -0.005306015, 0), (0.015690949, -0.0116992835, 0.0066594738), (0.008441129, -0.0035797595, 0.0066594738), (0.017306885, -0.012981223, 0.012984594), (0.0073496713, -0.0018295195, 0.012984594), (0.01893563, -0.013925607, 0.019341571), (0.0065950584, -0.0001046326, 0.019341571), (0.020538405, -0.014489006, 0.026256988), (0.0062160697, 0.0015514684, 0.026256988), (0.022082962, -0.014635304, 0.0336971), (0.006244952, 0.0031026693, 0.0336971), (0.02354464, -0.014336879, 0.04090203), (0.006706367, 0.0045213494, 0.04090203), (0.02490716, -0.013575506, 0.047096282), (0.00761659, 0.005789281, 0.047096282), (0.026163168, -0.01234294, 0.05241282), (0.008982981, 0.0068982206, 0.05241282), (0.027314456, -0.010641195, 0.058000684), (0.010803743, 0.007850181, 0.058000684), (0.028371919, -0.008482468, 0.06501975), (0.013067984, 0.008657361, 0.06501975), (0.029355193, -0.0058887526, 0.07340186), (0.015756067, 0.009341754, 0.07340186), (0.030292016, -0.0028911158, 0.08166433), (0.018840253, 0.009934425, 0.08166433), (0.031217331, 0.00047131072, 0.088161126), (0.022285603, 0.010474509, 0.088161126), (0.03217214, 0.0041526034, 0.09271902), (0.02605111, 0.011007926, 0.09271902), (0.03320218, 0.008101542, 0.09705047), (0.03009104, 0.011585899, 0.09705047), (0.03435642, 0.012263276, 0.10334619)]
        uniform token subdivisionScheme = "none"
    }

    def Mesh "Blade3" (
        prepend apiSchemas = ["MaterialBindingAPI"]
    )
    {
        uniform bool doubleSided = 1
        int[] faceVertexCounts = [3, 3, 3, 3, 3, 3, 3, 3, 3, 3, 3, 3, 3, 3, 3, 3, 3, 3, 3, 3, 3, 3, 3, 3, 3, 3, 3, 3, 3, 3, 3, 3]
        int[] faceVertexIndices = [0, 1, 2, 2, 3, 4, 4, 5, 6, 6, 7, 8, 8, 9, 10, 10, 11, 12, 12, 13, 14, 14, 15, 16, 16, 17, 18, 18, 19, 20, 20, 21, 22, 22, 23, 24, 24, 25, 26, 26, 27, 28, 28, 29, 30, 30, 31, 32, 1, 3, 2, 3, 5, 4, 5, 7, 6, 7, 9, 8, 9, 11, 10, 11, 13, 12, 13, 15, 14, 15, 17, 16, 17, 19, 18, 19, 21, 20, 21, 23, 22, 23, 25, 24, 25, 27, 26, 27, 29, 28, 29, 31, 30, 31, 32, 32]
        rel material:binding = </RibbonKelp/Looks/Leaf3>
        point3f[] points = [(-0.018422313, 0.004550857, 0), (-0.019050842, 0.0109861735, 0), (-0.018090893, 0.0023631046, 0.006332989), (-0.019148998, 0.013196709, 0.006332989), (-0.017543424, 0.00037441243, 0.012582019), (-0.01899667, 0.015253749, 0.012582019), (-0.016786337, -0.0013493899, 0.019231392), (-0.018587433, 0.017091464, 0.019231392), (-0.01582529, -0.0027503516, 0.026340699), (-0.017915623, 0.018651906, 0.026340699), (-0.014664992, -0.0037802863, 0.03329924), (-0.016976537, 0.019886885, 0.03329924), (-0.013309041, -0.0044023413, 0.03940866), (-0.015766572, 0.020759549, 0.03940866), (-0.011759811, -0.0045921947, 0.04474052), (-0.014283356, 0.021245578, 0.04474052), (-0.0100183785, -0.00433885, 0.050296042), (-0.012525813, 0.021333974, 0.050296042), (-0.008084481, -0.0036449898, 0.057127513), (-0.010494205, 0.02102742, 0.057127513), (-0.0059565264, -0.002526893, 0.065192185), (-0.008190123, 0.020342195, 0.065192185), (-0.003631651, -0.0010139025, 0.07314476), (-0.005616432, 0.019307641, 0.07314476), (-0.0011058057, 0.00085253036, 0.07947113), (-0.002777181, 0.017965212, 0.07947113), (0.001626109, 0.0030201927, 0.08401077), (0.00032253074, 0.016367117, 0.08401077), (0.0045700776, 0.0054278104, 0.08835766), (0.0036767186, 0.014574633, 0.08835766), (0.0077327755, 0.008007042, 0.09455382), (0.007278708, 0.0126561, 0.09455382), (0.01112135, 0.0106847035, 0.10313871)]
        uniform token subdivisionScheme = "none"
    }

    def Mesh "Blade4" (
        prepend apiSchemas = ["MaterialBindingAPI"]
    )
    {
        uniform bool doubleSided = 1
        int[] faceVertexCounts = [3, 3, 3, 3, 3, 3, 3, 3, 3, 3, 3, 3, 3, 3, 3, 3, 3, 3, 3, 3, 3, 3, 3, 3, 3, 3, 3, 3, 3, 3, 3, 3]
        int[] faceVertexIndices = [0, 1, 2, 2, 3, 4, 4, 5, 6, 6, 7, 8, 8, 9, 10, 10, 11, 12, 12, 13, 14, 14, 15, 16, 16, 17, 18, 18, 19, 20, 20, 21, 22, 22, 23, 24, 24, 25, 26, 26, 27, 28, 28, 29, 30, 30, 31, 32, 1, 3, 2, 3, 5, 4, 5, 7, 6, 7, 9, 8, 9, 11, 10, 11, 13, 12, 13, 15, 14, 15, 17, 16, 17, 19, 18, 19, 21, 20, 21, 23, 22, 23, 25, 24, 25, 27, 26, 27, 29, 28, 29, 31, 30, 31, 32, 32]
        rel material:binding = </RibbonKelp/Looks/Leaf4>
        point3f[] points = [(-0.009160665, -0.006761245, 0), (-0.004496813, -0.0022827608, 0), (-0.010673279, -0.008376206, 0.0057829698), (-0.0028218646, -0.00083685276, 0.0057829698), (-0.011895805, -0.010037546, 0.011809565), (-0.0011123354, 0.0003173259, 0.011809565), (-0.012780534, -0.011699452, 0.018236918), (0.00058406667, 0.0011339629, 0.018236918), (-0.013285468, -0.013321593, 0.024602836), (0.0022253427, 0.001572729, 0.024602836), (-0.0133756865, -0.014870438, 0.030281141), (0.0037765712, 0.0016000903, 0.030281141), (-0.013024478, -0.016320338, 0.035277065), (0.0052110436, 0.0011903999, 0.035277065), (-0.01221422, -0.017654369, 0.04044343), (0.006511133, 0.0003267321, 0.04044343), (-0.010936939, -0.018864874, 0.046729203), (0.0076688705, -0.0009985665, 0.046729203), (-0.009194582, -0.019953726, 0.054122444), (0.0086862, -0.0027836282, 0.054122444), (-0.0069989455, -0.02093225, 0.061417084), (0.009574919, -0.0050171246, 0.061417084), (-0.004371295, -0.021820866, 0.06722755), (0.010356294, -0.0076786354, 0.06722755), (-0.0013416719, -0.022648422, 0.07140038), (0.011060365, -0.010739313, 0.07140038), (0.0020520838, -0.023451254, 0.07540812), (0.011724971, -0.014162823, 0.07540812), (0.005765565, -0.024272006, 0.08114647), (0.012394522, -0.01790652, 0.08114647), (0.009749243, -0.025158234, 0.089109614), (0.013118545, -0.02192285, 0.089109614), (0.013950079, -0.026160873, 0.09768975)]
        uniform token subdivisionScheme = "none"
    }

    def Mesh "Blade5" (
        prepend apiSchemas = ["MaterialBindingAPI"]
    )
    {
        uniform bool doubleSided = 1
        int[] faceVertexCounts = [3, 3, 3, 3, 3, 3, 3, 3, 3, 3, 3, 3, 3, 3, 3, 3, 3, 3, 3, 3, 3, 3, 3, 3, 3, 3, 3, 3, 3, 3, 3, 3]
        int[] faceVertexIndices = [0, 1, 2, 2, 3, 4, 4, 5, 6, 6, 7, 8, 8, 9, 10, 10, 11, 12, 12, 13, 14, 14, 15, 16, 16, 17, 18, 18, 19, 20, 20, 21, 22, 22, 23, 24, 24, 25, 26, 26, 27, 28, 28, 29, 30, 30, 31, 32, 1, 3, 2, 3, 5, 4, 5, 7, 6, 7, 9, 8, 9, 11, 10, 11, 13, 12, 13, 15, 14, 15, 17, 16, 17, 19, 18, 19, 21, 20, 21, 23, 22, 23, 25, 24, 25, 27, 26, 27, 29, 28, 29, 31, 30, 31, 32, 32]
        rel material:binding = </RibbonKelp/Looks/Leaf5>
        point3f[] points = [(-0.0029108438, 0.006407054, 0), (-0.0025320589, 0.012861887, 0), (-0.0029233, 0.004194376, 0.0058410424), (-0.0022856302, 0.0150608355, 0.0058410424), (-0.002691408, 0.0021447798, 0.012029308), (-0.0018156049, 0.017069241, 0.012029308), (-0.0022112927, 0.00032429487, 0.018250288), (-0.0011258575, 0.018821076, 0.018250288), (-0.0014795436, -0.001208952, 0.023944952), (-0.00021979921, 0.020258212, 0.023944952), (-0.00049332425, -0.0024066288, 0.029047342), (0.0008997338, 0.021332318, 0.029047342), (0.0007495346, -0.0032317706, 0.034261465), (0.0022305723, 0.02200643, 0.034261465), (0.0022504644, -0.003659982, 0.040437333), (0.0037712848, 0.02225615, 0.040437333), (0.0040101125, -0.0036802327, 0.04759917), (0.005521224, 0.02207045, 0.04759917), (0.006028321, -0.0032952146, 0.0546818), (0.0074805478, 0.02145202, 0.0546818), (0.008304132, -0.0025212548, 0.06042468), (0.009650215, 0.02041719, 0.06042468), (0.010835818, -0.0013877854, 0.064675845), (0.012031951, 0.01899539, 0.064675845), (0.013620939, 0.00006361614, 0.068783574), (0.014628197, 0.017228195, 0.068783574), (0.016656421, 0.0017805789, 0.07449965), (0.017442027, 0.015167981, 0.07449965), (0.01993866, 0.003701643, 0.08227859), (0.020477045, 0.012876206, 0.08227859), (0.023463631, 0.00575826, 0.09061235), (0.023737276, 0.010421417, 0.09061235), (0.027227027, 0.007877022, 0.09722413)]
        uniform token subdivisionScheme = "none"
    }

    def Mesh "Blade6" (
        prepend apiSchemas = ["MaterialBindingAPI"]
    )
    {
        uniform bool doubleSided = 1
        int[] faceVertexCounts = [3, 3, 3, 3, 3, 3, 3, 3, 3, 3, 3, 3, 3, 3, 3, 3, 3, 3, 3, 3, 3, 3, 3, 3, 3, 3, 3, 3, 3, 3, 3, 3]
        int[] faceVertexIndices = [0, 1, 2, 2, 3, 4, 4, 5, 6, 6, 7, 8, 8, 9, 10, 10, 11, 12, 12, 13, 14, 14, 15, 16, 16, 17, 18, 18, 19, 20, 20, 21, 22, 22, 23, 24, 24, 25, 26, 26, 27, 28, 28, 29, 30, 30, 31, 32, 1, 3, 2, 3, 5, 4, 5, 7, 6, 7, 9, 8, 9, 11, 10, 11, 13, 12, 13, 15, 14, 15, 17, 16, 17, 19, 18, 19, 21, 20, 21, 23, 22, 23, 25, 24, 25, 27, 26, 27, 29, 28, 29, 31, 30, 31, 32, 32]
        rel material:binding = </RibbonKelp/Looks/Leaf6>
        point3f[] points = [(-0.01188132, -0.020280452, 0), (-0.017365139, -0.016854657, 0), (-0.009945243, -0.021351764, 0.007785189), (-0.019177038, -0.015584569, 0.007785189), (-0.008035203, -0.02213046, 0.015701963), (-0.020714547, -0.014209548, 0.015701963), (-0.006207297, -0.022581495, 0.023253333), (-0.021921568, -0.012764634, 0.023253333), (-0.004510906, -0.022674022, 0.030297393), (-0.02274872, -0.011280679, 0.030297393), (-0.0029870926, -0.022382388, 0.037389055), (-0.02315494, -0.009783333, 0.037389055), (-0.0016672604, -0.021686973, 0.045283843), (-0.023108825, -0.008292216, 0.045283843), (-0.0005721349, -0.020574834, 0.054047447), (-0.022589648, -0.0068202745, 0.054047447), (0.0002889125, -0.019040113, 0.06275709), (-0.02158804, -0.0053733634, 0.06275709), (0.0009181689, -0.017084239, 0.070273675), (-0.020106288, -0.003950053, 0.070273675), (0.0013295056, -0.014715879, 0.07644112), (-0.01815826, -0.0025416783, 0.07644112), (0.0015479267, -0.011950652, 0.08248078), (-0.015768964, -0.0011326192, 0.08248078), (0.0016087553, -0.008810626, 0.09000309), (-0.01297372, 0.0002991912, 0.09000309), (0.001556484, -0.005323595, 0.09942846), (-0.009817024, 0.0017815479, 0.09942846), (0.0014433272, -0.0015221778, 0.109352365), (-0.006351087, 0.0033470697, 0.109352365), (0.0013275216, 0.0025572442, 0.11765103), (-0.002634147, 0.005032138, 0.11765103), (0.0012714313, 0.0068757115, 0.12347192)]
        uniform token subdivisionScheme = "none"
    }
}

