#usda 1.0
(
    defaultPrim = "Seagrass"
    metersPerUnit = 1
    upAxis = "Z"
)

def Xform "Seagrass"
{
    def "Looks"
    {
        def Material "Leaf0"
        {
            token outputs:surface.connect = </Seagrass/Looks/Leaf0/Surface.outputs:surface>

            def Shader "Surface"
            {
                uniform token info:id = "UsdPreviewSurface"
                color3f inputs:diffuseColor = (0.10862333, 0.21256186, 0.08234585)
                float inputs:roughness = 0.65
                token outputs:surface
            }
        }

        def Material "Leaf1"
        {
            token outputs:surface.connect = </Seagrass/Looks/Leaf1/Surface.outputs:surface>

            def Shader "Surface"
            {
                uniform token info:id = "UsdPreviewSurface"
                color3f inputs:diffuseColor = (0.09393055, 0.24687798, 0.07848838)
                float inputs:roughness = 0.65
                token outputs:surface
            }
        }

        def Material "Leaf2"
        {
            token outputs:surface.connect = </Seagrass/Looks/Leaf2/Surface.outputs:surface>

            def Shader "Surface"
            {
                uniform token info:id = "UsdPreviewSurface"
                color3f inputs:diffuseColor = (0.11148595, 0.19957486, 0.09485036)
                float inputs:roughness = 0.65
                token outputs:surface
            }
        }

        def Material "Leaf3"
        {
            token outputs:surface.connect = </Seagrass/Looks/Leaf3/Surface.outputs:surface>

            def Shader "Surface"
            {
                uniform token info:id = "UsdPreviewSurface"
                color3f inputs:diffuseColor = (0.09888785, 0.2288972, 0.09481894)
                float inputs:roughness = 0.65
                token outputs:surface
            }
        }

        def Material "Leaf4"
        {
            token outputs:surface.connect = </Seagrass/Looks/Leaf4/Surface.outputs:surface>

            def Shader "Surface"
            {
                uniform token info:id = "UsdPreviewSurface"
                color3f inputs:diffuseColor = (0.09790995, 0.2649541, 0.06604344)
                float inputs:roughness = 0.65
                token outputs:surface
            }
        }

        def Material "Leaf5"
        {
            token outputs:surface.connect = </Seagrass/Looks/Leaf5/Surface.outputs:surface>

            def Shader "Surface"
            {
                uniform token info:id = "UsdPreviewSurface"
                color3f inputs:diffuseColor = (0.10786111, 0.18691273, 0.07961839)
                float inputs:roughness = 0.65
                token outputs:surface
            }
        }

        def Material "Leaf6"
        {
            token outputs:surface.connect = </Seagrass/Looks/Leaf6/Surface.outputs:surface>

            def Shader "Surface"
            {
                uniform token info:id = "UsdPreviewSurface"
                color3f inputs:diffuseColor = (0.11307553, 0.25820488, 0.06847693)
                float inputs:roughness = 0.65
                token outputs:surface
            }
        }

        def Material "Leaf7"
        {
            token outputs:surface.connect = </Seagrass/Looks/Leaf7/Surface.outputs:surface>

            def Shader "Surface"
            {
                uniform token info:id = "UsdPreviewSurface"
                color3f inputs:diffuseColor = (0.08323336, 0.26214695, 0.091888346)
                float inputs:roughness = 0.65
                token outputs:surface
            }
        }

        def Material "Leaf8"
        {
            token outputs:surface.connect = </Seagrass/Looks/Leaf8/Surface.outputs:surface>

            def Shader "Surface"
            {
                uniform token info:id = "UsdPreviewSurface"
                color3f inputs:diffuseColor = (0.11344426, 0.20005625, 0.076620206)
                float inputs:roughness = 0.65
                token outputs:surface
            }
        }

        def Material "Leaf9"
        {
            token outputs:surface.connect = </Seagrass/Looks/Leaf9/Surface.outputs:surface>

            def Shader "Surface"
            {
                uniform token info:id = "UsdPreviewSurface"
                color3f inputs:diffuseColor = (0.11103741, 0.20469882, 0.09263493)
                float inputs:roughness = 0.65
                token outputs:surface
            }
        }

        def Material "Leaf10"
        {
            token outputs:surface.connect = </Seagrass/Looks/Leaf10/Surface.outputs:surface>

            def Shader "Surface"
            {
                uniform token info:id = "UsdPreviewSurface"
                color3f inputs:diffuseColor = (0.08454773, 0.2010906, 0.07411006)
                float inputs:roughness = 0.65
                token outputs:surface
            }
        }

        def Material "Leaf11"
        {
            token outputs:surface.connect = </Seagrass/Looks/Leaf11/Surface.outputs:surface>

            def Shader "Surface"
            {
                uniform token info:id = "UsdPreviewSurface"
                color3f inputs:diffuseColor = (0.091682196, 0.18888335, 0.091082156)
                float inputs:roughness = 0.65
                token outputs:surface
            }
        }

        def Material "Leaf12"
        {
            token outputs:surface.connect = </Seagrass/Looks/Leaf12/Surface.outputs:surface>

            def Shader "Surface"
            {
                uniform token info:id = "UsdPreviewSurface"
                color3f inputs:diffuseColor = (0.11870139, 0.2336505, 0.09079817)
                float inputs:roughness = 0.65
                token outputs:surface
            }
        }
    }

    def Mesh "Blade0" (
        prepend apiSchemas = ["MaterialBindingAPI"]
    )
    {
        uniform bool doubleSided = 1
        int[] faceVertexCounts = [3, 3, 3, 3, 3, 3, 3, 3, 3, 3, 3, 3, 3, 3, 3, 3, 3, 3, 3, 3, 3, 3, 3, 3, 3, 3, 3, 3, 3, 3, 3, 3]
        int[] faceVertexIndices = [0, 1, 2, 2, 3, 4, 4, 5, 6, 6, 7, 8, 8, 9, 10, 10, 11, 12, 12, 13, 14, 14, 15, 16, 16, 17, 18, 18, 19, 20, 20, 21, 22, 22, 23, 24, 24, 25, 26, 26, 27, 28, 28, 29, 30, 30, 31, 32, 1, 3, 2, 3, 5, 4, 5, 7, 6, 7, 9, 8, 9, 11, 10, 11, 13, 12, 13, 15, 14, 15, 17, 16, 17, 19, 18, 19, 21, 20, 21, 23, 22, 23, 25, 24, 25, 27, 26, 27, 29, 28, 29, 31, 30, 31, 32, 32]
        rel material:binding = </Seagrass/Looks/Leaf0>
        point3f[] points = [(-0.01245158, -0.017364802, 0), (-0.011180974, -0.01658247, 0), (-0.012824343, -0.017731937, 0.00424969), (-0.010685327, -0.016414914, 0.00424969), (-0.013039418, -0.01827722, 0.008534034), (-0.010101603, -0.016468365, 0.008534034), (-0.013083808, -0.01899265, 0.012391107), (-0.009442798, -0.016750826, 0.012391107), (-0.01294607, -0.019871179, 0.01584483), (-0.008720353, -0.017269341, 0.01584483), (-0.012616691, -0.02090695, 0.019549461), (-0.007943784, -0.018029772, 0.019549461), (-0.012088395, -0.022095485, 0.024132218), (-0.0071203657, -0.019036595, 0.024132218), (-0.011356379, -0.023433825, 0.029385714), (-0.006254901, -0.02029277, 0.029385714), (-0.010418471, -0.024920633, 0.034250315), (-0.005349562, -0.021799631, 0.034250315), (-0.009275202, -0.026556237, 0.03778163), (-0.0044038175, -0.023556853, 0.03778163), (-0.007929786, -0.028342614, 0.040220365), (-0.0034144537, -0.025562458, 0.040220365), (-0.0063880165, -0.030283334, 0.043008815), (-0.0023756777, -0.027812876, 0.043008815), (-0.004658077, -0.03238343, 0.047534484), (-0.0012793047, -0.030303072, 0.047534484), (-0.0027502775, -0.034649257, 0.0536948), (-0.00011502598, -0.033026695, 0.0536948), (-0.0006767157, -0.03708826, 0.059738237), (0.0011292568, -0.0359763, 0.059738237), (0.001549115, -0.03970875, 0.06374535), (0.0024670372, -0.03914357, 0.06374535), (0.0039127646, -0.042519618, 0.06550063)]
        uniform token subdivisionScheme = "none"
    }

    def Mesh "Blade1" (
        prepend apiSchemas = ["MaterialBindingAPI"]
    )
    {
        uniform bool doubleSided = 1
        int[] faceVertexCounts = [3, 3, 3, 3, 3, 3, 3, 3, 3, 3, 3, 3, 3, 3, 3, 3, 3, 3, 3, 3, 3, 3, 3, 3, 3, 3, 3, 3, 3, 3, 3, 3]
        int[] faceVertexIndices = [0, 1, 2, 2, 3, 4, 4, 5, 6, 6, 7, 8, 8, 9, 10, 10, 11, 12, 12, 13, 14, 14, 15, 16, 16, 17, 18, 18, 19, 20, 20, 21, 22, 22, 23, 24, 24, 25, 26, 26, 27, 28, 28, 29, 30, 30, 31, 32, 1, 3, 2, 3, 5, 4, 5, 7, 6, 7, 9, 8, 9, 11, 10, 11, 13, 12, 13, 15, 14, 15, 17, 16, 17, 19, 18, 19, 21, 20, 21, 23, 22, 23, 25, 24, 25, 27, 26, 27, 29, 28, 29, 31, 30, 31, 32, 32]
        rel material:binding = </Seagrass/Looks/Leaf1>
        point3f[] points = [(0.020196943, 0.017226383, 0), (0.01971902, 0.018639915, 0), (0.020471279, 0.016780872, 0.005599937), (0.019666713, 0.019160496, 0.005599937), (0.02095455, 0.016449148, 0.01092253), (0.019849526, 0.019717425, 0.01092253), (0.021641867, 0.016245672, 0.015879203), (0.020272344, 0.020296246, 0.015879203), (0.02252893, 0.016183175, 0.020979397), (0.020939477, 0.020884225, 0.020979397), (0.023612158, 0.01627224, 0.026797343), (0.0218545, 0.021470783, 0.026797343), (0.024888813, 0.016520958, 0.033210274), (0.023020148, 0.022047821, 0.033210274), (0.02635709, 0.016934676, 0.03930862), (0.02443823, 0.022609998, 0.03930862), (0.028016174, 0.017515808, 0.04423484), (0.026109563, 0.0231549, 0.04423484), (0.029866261, 0.018263767, 0.048178308), (0.028033948, 0.023683114, 0.048178308), (0.03190856, 0.019174973, 0.052435137), (0.030210173, 0.024198215, 0.052435137), (0.034145255, 0.020242982, 0.05827698), (0.03263606, 0.024706652, 0.05827698), (0.03657942, 0.021458691, 0.065615736), (0.035308532, 0.025217528, 0.065615736), (0.03921493, 0.02281063, 0.07283323), (0.038223714, 0.025742311, 0.07283323), (0.042056344, 0.024285343, 0.0781483), (0.04137705, 0.02629446, 0.0781483), (0.04510873, 0.025867812, 0.08136939), (0.044763464, 0.026888987, 0.08136939), (0.04837753, 0.027541969, 0.08432435)]
        uniform token subdivisionScheme = "none"
    }

    def Mesh "Blade2" (
        prepend apiSchemas = ["MaterialBindingAPI"]
    )
    {
        uniform bool doubleSided = 1
        int[] faceVertexCounts = [3, 3, 3, 3, 3, 3, 3, 3, 3, 3, 3, 3, 3, 3, 3, 3, 3, 3, 3, 3, 3, 3, 3, 3, 3, 3, 3, 3, 3, 3, 3, 3]
        int[] faceVertexIndices = [0, 1, 2, 2, 3, 4, 4, 5, 6, 6, 7, 8, 8, 9, 10, 10, 11, 12, 12, 13, 14, 14, 15, 16, 16, 17, 18, 18, 19, 20, 20, 21, 22, 22, 23, 24, 24, 25, 26, 26, 27, 28, 28, 29, 30, 30, 31, 32, 1, 3, 2, 3, 5, 4, 5, 7, 6, 7, 9, 8, 9, 11, 10, 11, 13, 12, 13, 15, 14, 15, 17, 16, 17, 19, 18, 19, 21, 20, 21, 23, 22, 23, 25, 24, 25, 27, 26, 27, 29, 28, 29, 31, 30, 31, 32, 32]
        rel material:binding = </Seagrass/Looks/Leaf2>
        point3f[] points = [(0.011938622, 0.0015671169, 0), (0.012019421, 0.00007716679, 0), (0.011793995, 0.0020699326, 0.0067324713), (0.011930017, -0.00043834027, 0.0067324713), (0.011417551, 0.002519244, 0.013130589), (0.011604368, -0.00092572556, 0.013130589), (0.010810114, 0.00289981, 0.019560564), (0.011041649, -0.0013697478, 0.019560564), (0.009972415, 0.003198213, 0.026548978), (0.01024113, -0.0017569896, 0.026548978), (0.008905056, 0.003403297, 0.034062088), (0.009202208, -0.002076295, 0.034062088), (0.0076085012, 0.003506529, 0.041340016), (0.007924421, -0.0023191308, 0.041340016), (0.006083056, 0.0035022781, 0.047607265), (0.0064074616, -0.0024798668, 0.047607265), (0.004328858, 0.0033879986, 0.052996803), (0.0046511926, -0.0025559561, 0.052996803), (0.0023458737, 0.0031643114, 0.05865766), (0.0026556477, -0.0025480206, 0.05865766), (0.00013389865, 0.0028349853, 0.06574973), (0.00042103103, -0.0024598287, 0.06574973), (-0.0023074355, 0.0024068141, 0.07420484), (-0.0020522887, -0.0022981742, 0.07420484), (-0.0049786493, 0.0018893952, 0.0825403), (-0.0047637913, -0.0020726544, 0.0825403), (-0.007880398, 0.001294817, 0.08911009), (-0.007712821, -0.001795358, 0.08911009), (-0.011013451, 0.0006372661, 0.093740985), (-0.010898609, -0.0014804713, 0.093740985), (-0.014378667, -0.0000674346, 0.09814544), (-0.014320295, -0.0011438176, 0.09814544), (-0.017976964, -0.00080234074, 0.10451415)]
        uniform token subdivisionScheme = "none"
    }

    def Mesh "Blade3" (
        prepend apiSchemas = ["MaterialBindingAPI"]
    )
    {
        uniform bool doubleSided = 1
        int[] faceVertexCounts = [3, 3, 3, 3, 3, 3, 3, 3, 3, 3, 3, 3, 3, 3, 3, 3, 3, 3, 3, 3, 3, 3, 3, 3, 3, 3, 3, 3, 3, 3, 3, 3]
        int[] faceVertexIndices = [0, 1, 2, 2, 3, 4, 4, 5, 6, 6, 7, 8, 8, 9, 10, 10, 11, 12, 12, 13, 14, 14, 15, 16, 16, 17, 18, 18, 19, 20, 20, 21, 22, 22, 23, 24, 24, 25, 26, 26, 27, 28, 28, 29, 30, 30, 31, 32, 1, 3, 2, 3, 5, 4, 5, 7, 6, 7, 9, 8, 9, 11, 10, 11, 13, 12, 13, 15, 14, 15, 17, 16, 17, 19, 18, 19, 21, 20, 21, 23, 22, 23, 25, 24, 25, 27, 26, 27, 29, 28, 29, 31, 30, 31, 32, 32]
        rel material:binding = </Seagrass/Looks/Leaf3>
        point3f[] points = [(0.0030176486, -0.019909933, 0), (0.0020248177, -0.018796036, 0), (0.0034444109, -0.020212611, 0.0074989493), (0.0017730189, -0.01833741, 0.0074989493), (0.0040189405, -0.02032883, 0.014913939), (0.0017233791, -0.017753348, 0.014913939), (0.004731082, -0.020247199, 0.022729272), (0.0018860545, -0.017055247, 0.022729272), (0.0055718934, -0.01995768, 0.031004539), (0.0022699859, -0.016253136, 0.031004539), (0.006533942, -0.019451937, 0.03912904), (0.0028826068, -0.015355355, 0.03912904), (0.007611542, -0.018723588, 0.04640442), (0.0037296035, -0.014368285, 0.04640442), (0.008800941, -0.017768428, 0.05290224), (0.0048147277, -0.013296135, 0.05290224), (0.010100441, -0.01658455, 0.059623726), (0.0061396766, -0.012140808, 0.059623726), (0.011510458, -0.015172418, 0.06762116), (0.007704036, -0.010901839, 0.06762116), (0.013033503, -0.013534851, 0.076851785), (0.009505294, -0.009576412, 0.076851785), (0.014674102, -0.011676928, 0.08597032), (0.011538925, -0.0081594465, 0.08597032), (0.01643865, -0.009605824, 0.09346266), (0.013798532, -0.0066437684, 0.09346266), (0.018335205, -0.0073305764, 0.099168256), (0.016276062, -0.00502034, 0.099168256), (0.020373216, -0.0048617907, 0.1046811), (0.018962057, -0.0032785553, 0.1046811), (0.02256323, -0.0022112965, 0.112043224), (0.02184598, -0.0014065851, 0.112043224), (0.024916537, 0.0006082385, 0.12179407)]
        uniform token subdivisionScheme = "none"
    }

    def Mesh "Blade4" (
        prepend apiSchemas = ["MaterialBindingAPI"]
    )
    {
        uniform bool doubleSided = 1
        int[] faceVertexCounts = [3, 3, 3, 3, 3, 3, 3, 3, 3, 3, 3, 3, 3, 3, 3, 3, 3, 3, 3, 3, 3, 3, 3, 3, 3, 3, 3, 3, 3, 3, 3, 3]
        int[] faceVertexIndices = [0, 1, 2, 2, 3, 4, 4, 5, 6, 6, 7, 8, 8, 9, 10, 10, 11, 12, 12, 13, 14, 14, 15, 16, 16, 17, 18, 18, 19, 20, 20, 21, 22, 22, 23, 24, 24, 25, 26, 26, 27, 28, 28, 29, 30, 30, 31, 32, 1, 3, 2, 3, 5, 4, 5, 7, 6, 7, 9, 8, 9, 11, 10, 11, 13, 12, 13, 15, 14, 15, 17, 16, 17, 19, 18, 19, 21, 20, 21, 23, 22, 23, 25, 24, 25, 27, 26, 27, 29, 28, 29, 31, 30, 31, 32, 32]
        rel material:binding = </Seagrass/Looks/Leaf4>
        point3f[] points = [(-0.0026179191, -0.007438253, 0), (-0.00354774, -0.008605263, 0), (-0.0023918238, -0.006966425, 0.0047569047), (-0.003957141, -0.008931042, 0.0047569047), (-0.0023745045, -0.0063805142, 0.009757435), (-0.0045243786, -0.009078803, 0.009757435), (-0.0025754725, -0.0056924582, 0.015158723), (-0.0052399402, -0.009036609, 0.015158723), (-0.0030031009, -0.0049127666, 0.020498576), (-0.0060954536, -0.008793952, 0.020498576), (-0.0036643522, -0.004050177, 0.025150817), (-0.0070839557, -0.008342092, 0.025150817), (-0.004564551, -0.003111373, 0.029120674), (-0.008200122, -0.0076743476, 0.029120674), (-0.0057072113, -0.002100765, 0.033260975), (-0.00944044, -0.0067863073, 0.033260975), (-0.0070939227, -0.0010203472, 0.038520683), (-0.010803318, -0.0056759766, 0.038520683), (-0.008724296, 0.00013036697, 0.04488786), (-0.012289145, -0.004343843, 0.04488786), (-0.010595982, 0.0013543295, 0.051156435), (-0.013900273, -0.0027928578, 0.051156435), (-0.012704738, 0.0026568614, 0.055940833), (-0.015640942, -0.0010283423, 0.055940833), (-0.0150445765, 0.00404548, 0.059087597), (-0.01751714, 0.0009421865, 0.059087597), (-0.017607953, 0.0055296537, 0.06206928), (-0.019536413, 0.00310926, 0.06206928), (-0.020386014, 0.007120494, 0.066781566), (-0.021707613, 0.0054617664, 0.066781566), (-0.023368884, 0.008830395, 0.07371864), (-0.024040613, 0.007987313, 0.07371864), (-0.026545992, 0.010672627, 0.08127271)]
        uniform token subdivisionScheme = "none"
    }

    def Mesh "Blade5" (
        prepend apiSchemas = ["MaterialBindingAPI"]
    )
    {
        uniform bool doubleSided = 1
        int[] faceVertexCounts = [3, 3, 3, 3, 3, 3, 3, 3, 3, 3, 3, 3, 3, 3, 3, 3, 3, 3, 3, 3, 3, 3, 3, 3, 3, 3, 3, 3, 3, 3, 3, 3]
        int[] faceVertexIndices = [0, 1, 2, 2, 3, 4, 4, 5, 6, 6, 7, 8, 8, 9, 10, 10, 11, 12, 12, 13, 14, 14, 15, 16, 16, 17, 18, 18, 19, 20, 20, 21, 22, 22, 23, 24, 24, 25, 26, 26, 27, 28, 28, 29, 30, 30, 31, 32, 1, 3, 2, 3, 5, 4, 5, 7, 6, 7, 9, 8, 9, 11, 10, 11, 13, 12, 13, 15, 14, 15, 17, 16, 17, 19, 18, 19, 21, 20, 21, 23, 22, 23, 25, 24, 25, 27, 26, 27, 29, 28, 29, 31, 30, 31, 32, 32]
        rel material:binding = </Seagrass/Looks/Leaf5>
        point3f[] points = [(0.020368714, -0.016979039, 0), (0.020088349, -0.015513475, 0), (0.020579625, -0.017457847, 0.007019284), (0.02010764, -0.014990629, 0.007019284), (0.021013055, -0.017852472, 0.0143857915), (0.02036481, -0.014463889, 0.0143857915), (0.021666138, -0.018147923, 0.021785013), (0.02086273, -0.013948249, 0.021785013), (0.02253635, -0.018331002, 0.028657919), (0.021603921, -0.013456905, 0.028657919), (0.023621589, -0.018390734, 0.03493855), (0.022590488, -0.013000831, 0.03493855), (0.024920253, -0.018318728, 0.041330915), (0.02382403, -0.01258842, 0.041330915), (0.02643128, -0.018109443, 0.048685025), (0.02530561, -0.012225212, 0.048685025), (0.02815419, -0.017760376, 0.05702511), (0.027035708, -0.011913709, 0.05702511), (0.030089103, -0.017272137, 0.06528597), (0.029014206, -0.011653303, 0.06528597), (0.032236725, -0.016648434, 0.0722071), (0.031240392, -0.011440285, 0.0722071), (0.03459834, -0.01589595, 0.0776365), (0.033712994, -0.011267971, 0.0776365), (0.037175745, -0.015024124, 0.08292247), (0.0364302, -0.011126924, 0.08292247), (0.03997122, -0.014044847, 0.089816794), (0.039389737, -0.011005252, 0.089816794), (0.042987436, -0.012972075, 0.09877397), (0.042588938, -0.010888999, 0.09877397), (0.046227366, -0.01182137, 0.10828598), (0.04602482, -0.010762604, 0.10828598), (0.049694203, -0.010609399, 0.116076)]
        uniform token subdivisionScheme = "none"
    }

    def Mesh "Blade6" (
        prepend apiSchemas = ["MaterialBindingAPI"]
    )
    {
        uniform bool doubleSided = 1
        int[] faceVertexCounts = [3, 3, 3, 3, 3, 3, 3, 3, 3, 3, 3, 3, 3, 3, 3, 3, 3, 3, 3, 3, 3, 3, 3, 3, 3, 3, 3, 3, 3, 3, 3, 3]
        int[] faceVertexIndices = [0, 1, 2, 2, 3, 4, 4, 5, 6, 6, 7, 8, 8, 9, 10, 10, 11, 12, 12, 13, 14, 14, 15, 16, 16, 17, 18, 18, 19, 20, 20, 21, 22, 22, 23, 24, 24, 25, 26, 26, 27, 28, 28, 29, 30, 30, 31, 32, 1, 3, 2, 3, 5, 4, 5, 7, 6, 7, 9, 8, 9, 11, 10, 11, 13, 12, 13, 15, 14, 15, 17, 16, 17, 19, 18, 19, 21, 20, 21, 23, 22, 23, 25, 24, 25, 27, 26, 27, 29, 28, 29, 31, 30, 31, 32, 32]
        rel material:binding = </Seagrass/Looks/Leaf6>
        point3f[] points = [(-0.006227614, -0.009349526, 0), (-0.0067195357, -0.010758246, 0), (-0.0061701452, -0.008829489, 0.0067497776), (-0.006998277, -0.011201016, 0.0067497776), (-0.0063474234, -0.008270773, 0.01363114), (-0.0074848146, -0.0115279285, 0.01363114), (-0.006764481, -0.007687788, 0.020147098), (-0.008174118, -0.011724575, 0.020147098), (-0.007425747, -0.0070932186, 0.026155747), (-0.009061757, -0.011778271, 0.026155747), (-0.008334905, -0.0064976136, 0.032212), (-0.010144047, -0.011678466, 0.032212), (-0.009494772, -0.0059090406, 0.039071374), (-0.011418172, -0.011417094, 0.039071374), (-0.010907209, -0.005332824, 0.046799567), (-0.012882274, -0.010988831, 0.046799567), (-0.012573054, -0.00477137, 0.054473802), (-0.01453551, -0.010391269, 0.054473802), (-0.014492103, -0.004224092, 0.060954973), (-0.016378086, -0.009624995, 0.060954973), (-0.016663112, -0.003687426, 0.06608701), (-0.018411247, -0.008693574, 0.06608701), (-0.019083837, -0.0031549495, 0.07109126), (-0.020637237, -0.007603429, 0.07109126), (-0.02175111, -0.002617588, 0.07757815), (-0.023059221, -0.0063636326, 0.07757815), (-0.024660941, -0.002063912, 0.085968114), (-0.025681192, -0.004985615, 0.085968114), (-0.027808644, -0.0014805087, 0.09485661), (-0.028507836, -0.0034827902, 0.09485661), (-0.031188997, -0.0008524174, 0.10211986), (-0.031544376, -0.0018701175, 0.10211986), (-0.0347964, -0.0001636177, 0.10690534)]
        uniform token subdivisionScheme = "none"
    }

    def Mesh "Blade7" (
        prepend apiSchemas = ["MaterialBindingAPI"]
    )
    {
        uniform bool doubleSided = 1
        int[] faceVertexCounts = [3, 3, 3, 3, 3, 3, 3, 3, 3, 3, 3, 3, 3, 3, 3, 3, 3, 3, 3, 3, 3, 3, 3, 3, 3, 3, 3, 3, 3, 3, 3, 3]
        int[] faceVertexIndices = [0, 1, 2, 2, 3, 4, 4, 5, 6, 6, 7, 8, 8, 9, 10, 10, 11, 12, 12, 13, 14, 14, 15, 16, 16, 17, 18, 18, 19, 20, 20, 21, 22, 22, 23, 24, 24, 25, 26, 26, 27, 28, 28, 29, 30, 30, 31, 32, 1, 3, 2, 3, 5, 4, 5, 7, 6, 7, 9, 8, 9, 11, 10, 11, 13, 12, 13, 15, 14, 15, 17, 16, 17, 19, 18, 19, 21, 20, 21, 23, 22, 23, 25, 24, 25, 27, 26, 27, 29, 28, 29, 31, 30, 31, 32, 32]
        rel material:binding = </Seagrass/Looks/Leaf7>
        point3f[] points = [(0.005176503, 0.011158555, 0), (0.0038988492, 0.0103877885, 0), (0.0055525834, 0.011522291, 0.0067302585), (0.0034017025, 0.010224737, 0.0067302585), (0.005772599, 0.012065601, 0.013255485), (0.0028184871, 0.010283483, 0.013255485), (0.0058234804, 0.0127805965, 0.019353138), (0.0021622723, 0.010571913, 0.019353138), (0.0056937225, 0.013660341, 0.02542891), (0.0014445641, 0.0110969655, 0.02542891), (0.0053737587, 0.01469906, 0.03214839), (0.00067492865, 0.011864413, 0.03214839), (0.0048562717, 0.01589234, 0.039624), (-0.00013931692, 0.0128786685, 0.039624), (0.0041364324, 0.017237268, 0.047076713), (-0.000993344, 0.0141426455, 0.047076713), (0.0032120587, 0.01873253, 0.053485148), (-0.0018849693, 0.015657661, 0.053485148), (0.0020836825, 0.020378442, 0.058683563), (-0.0028147255, 0.017423397, 0.058683563), (0.00075453595, 0.022176957, 0.06376384), (-0.0037858444, 0.019437898, 0.06376384), (-0.0007695555, 0.02413159, 0.07019775), (-0.004804152, 0.021697653, 0.07019775), (-0.0024803618, 0.026247304, 0.07837725), (-0.0058778776, 0.024197696, 0.07837725), (-0.0043675173, 0.028530354, 0.08700487), (-0.0070173875, 0.026931776, 0.08700487), (-0.0064188563, 0.030988077, 0.094108336), (-0.008234847, 0.02989255, 0.094108336), (-0.008620811, 0.033628657, 0.09890074), (-0.009543825, 0.033071835, 0.09890074), (-0.010958849, 0.036460865, 0.10273763)]
        uniform token subdivisionScheme = "none"
    }

    def Mesh "Blade8" (
        prepend apiSchemas = ["MaterialBindingAPI"]
    )
    {
        uniform bool doubleSided = 1
        int[] faceVertexCounts = [3, 3, 3, 3, 3, 3, 3, 3, 3, 3, 3, 3, 3, 3, 3, 3, 3, 3, 3, 3, 3, 3, 3, 3, 3, 3, 3, 3, 3, 3, 3, 3]
        int[] faceVertexIndices = [0, 1, 2, 2, 3, 4, 4, 5, 6, 6, 7, 8, 8, 9, 10, 10, 11, 12, 12, 13, 14, 14, 15, 16, 16, 17, 18, 18, 19, 20, 20, 21, 22, 22, 23, 24, 24, 25, 26, 26, 27, 28, 28, 29, 30, 30, 31, 32, 1, 3, 2, 3, 5, 4, 5, 7, 6, 7, 9, 8, 9, 11, 10, 11, 13, 12, 13, 15, 14, 15, 17, 16, 17, 19, 18, 19, 21, 20, 21, 23, 22, 23, 25, 24, 25, 27, 26, 27, 29, 28, 29, 31, 30, 31, 32, 32]
        rel material:binding = </Seagrass/Looks/Leaf8>
        point3f[] points = [(0.014047158, -0.017547026, 0), (0.014124529, -0.016056895, 0), (0.014137748, -0.018062327, 0.008223736), (0.014268, -0.015553748, 0.008223736), (0.014464516, -0.018548962, 0.016094329), (0.01464341, -0.015103572, 0.016094329), (0.015028255, -0.018991688, 0.023868287), (0.015249969, -0.01472161, 0.023868287), (0.015829662, -0.019377088, 0.03212591), (0.01608698, -0.014421281, 0.03212591), (0.016869314, -0.019694004, 0.04103153), (0.017153865, -0.014213744, 0.04103153), (0.018147659, -0.0199339, 0.049951095), (0.018450178, -0.01410753, 0.049951095), (0.019664982, -0.020091148, 0.057977103), (0.01997563, -0.014108272, 0.057977103), (0.021421421, -0.020163197, 0.06492861), (0.021730086, -0.014218517, 0.06492861), (0.023416944, -0.020150673, 0.07176564), (0.02371358, -0.014437643, 0.07176564), (0.02565135, -0.020057341, 0.07982414), (0.025926307, -0.014761881, 0.07982414), (0.028124293, -0.01989, 0.08947318), (0.028368618, -0.015184436, 0.08947318), (0.030835269, -0.019658243, 0.09952585), (0.031041015, -0.01569571, 0.09952585), (0.033783652, -0.019374166, 0.10815969), (0.033944122, -0.016283615, 0.10815969), (0.036968708, -0.019051954, 0.11464801), (0.037078682, -0.016933957, 0.11464801), (0.040389612, -0.018707432, 0.12026421), (0.040445507, -0.017630916, 0.12026421), (0.044045486, -0.018357545, 0.12732565)]
        uniform token subdivisionScheme = "none"
    }

    def Mesh "Blade9" (
        prepend apiSchemas = ["MaterialBindingAPI"]
    )
    {
        uniform bool doubleSided = 1
        int[] faceVertexCounts = [3, 3, 3, 3, 3, 3, 3, 3, 3, 3, 3, 3, 3, 3, 3, 3, 3, 3, 3, 3, 3, 3, 3, 3, 3, 3, 3, 3, 3, 3, 3, 3]
        int[] faceVertexIndices = [0, 1, 2, 2, 3, 4, 4, 5, 6, 6, 7, 8, 8, 9, 10, 10, 11, 12, 12, 13, 14, 14, 15, 16, 16, 17, 18, 18, 19, 20, 20, 21, 22, 22, 23, 24, 24, 25, 26, 26, 27, 28, 28, 29, 30, 30, 31, 32, 1, 3, 2, 3, 5, 4, 5, 7, 6, 7, 9, 8, 9, 11, 10, 11, 13, 12, 13, 15, 14, 15, 17, 16, 17, 19, 18, 19, 21, 20, 21, 23, 22, 23, 25, 24, 25, 27, 26, 27, 29, 28, 29, 31, 30, 31, 32, 32]
        rel material:binding = </Seagrass/Looks/Leaf9>
        point3f[] points = [(0.018949823, -0.021401444, 0), (0.02044189, -0.02138674, 0), (0.018441092, -0.02152365, 0.0065614195), (0.020952929, -0.021498898, 0.0065614195), (0.017975543, -0.021879818, 0.012946263), (0.021425407, -0.021845821, 0.012946263), (0.017568437, -0.022469796, 0.019654257), (0.021844061, -0.022427661, 0.019654257), (0.017233212, -0.023293452, 0.02690678), (0.022195455, -0.02324455, 0.02690678), (0.016981037, -0.024350675, 0.034215823), (0.022468414, -0.024296599, 0.034215823), (0.01682046, -0.025641384, 0.04078381), (0.022654397, -0.025583891, 0.04078381), (0.01675712, -0.02716552, 0.046409108), (0.022747763, -0.027106483, 0.046409108), (0.016793562, -0.028923057, 0.051917586), (0.022745961, -0.028864399, 0.051917586), (0.01692917, -0.030914005, 0.058512364), (0.022649618, -0.030857632, 0.058512364), (0.017160166, -0.033138398, 0.06654521), (0.022462504, -0.033086147, 0.06654521), (0.01747975, -0.035596307, 0.074943155), (0.022191422, -0.035549875, 0.074943155), (0.017878307, -0.038287822, 0.0820317), (0.021845985, -0.03824872, 0.0820317), (0.018343734, -0.041213065, 0.08713892), (0.021438299, -0.04118257, 0.08713892), (0.01886182, -0.044372175, 0.09145182), (0.020982567, -0.044351276, 0.09145182), (0.019416727, -0.04776531, 0.09713339), (0.02049464, -0.047754686, 0.09713339), (0.019991482, -0.051392637, 0.1053322)]
        uniform token subdivisionScheme = "none"
    }

    def Mesh "Blade10" (
        prepend apiSchemas = ["MaterialBindingAPI"]
    )
    {
        uniform bool doubleSided = 1
        int[] faceVertexCounts = [3, 3, 3, 3, 3, 3, 3, 3, 3, 3, 3, 3, 3, 3, 3, 3, 3, 3, 3, 3, 3, 3, 3, 3, 3, 3, 3, 3, 3, 3, 3, 3]
        int[] faceVertexIndices = [0, 1, 2, 2, 3, 4, 4, 5, 6, 6, 7, 8, 8, 9, 10, 10, 11, 12, 12, 13, 14, 14, 15, 16, 16, 17, 18, 18, 19, 20, 20, 21, 22, 22, 23, 24, 24, 25, 26, 26, 27, 28, 28, 29, 30, 30, 31, 32, 1, 3, 2, 3, 5, 4, 5, 7, 6, 7, 9, 8, 9, 11, 10, 11, 13, 12, 13, 15, 14, 15, 17, 16, 17, 19, 18, 19, 21, 20, 21, 23, 22, 23, 25, 24, 25, 27, 26, 27, 29, 28, 29, 31, 30, 31, 32, 32]
        rel material:binding = </Seagrass/Looks/Leaf10>
        point3f[] points = [(-0.017857946, -0.00026269435, 0), (-0.016874671, 0.00085964764, 0), (-0.018105816, -0.00072345586, 0.0068418), (-0.016450511, 0.0011659632, 0.0068418), (-0.018150462, -0.0013079199, 0.0138459345), (-0.015876997, 0.0012870893, 0.0138459345), (-0.017981825, -0.0020046055, 0.0212959), (-0.015164184, 0.0012115452, 0.0212959), (-0.017591054, -0.002803406, 0.028850624), (-0.014320929, 0.00092922384, 0.028850624), (-0.016970782, -0.0036959173, 0.035818428), (-0.013354592, 0.0004317215, 0.035818428), (-0.016115379, -0.0046757124, 0.041971494), (-0.012270807, -0.0002873891, 0.041971494), (-0.015021131, -0.0057385494, 0.047999445), (-0.0110732885, -0.0012323497, 0.047999445), (-0.013686356, -0.00688251, 0.05497565), (-0.009763717, -0.0024050784, 0.05497565), (-0.0121114645, -0.008108063, 0.06324021), (-0.008341681, -0.0038051067, 0.06324021), (-0.010298944, -0.009418047, 0.071837276), (-0.0068046967, -0.005429596, 0.071837276), (-0.008253277, -0.010817579, 0.07923834), (-0.005148278, -0.0072734295, 0.07923834), (-0.005980798, -0.012313889, 0.08482081), (-0.0033660922, -0.009329377, 0.08482081), (-0.0034894843, -0.013916083, 0.08968109), (-0.0014501616, -0.011588331, 0.08968109), (-0.0007886984, -0.015634848, 0.095828556), (0.00060887635, -0.014039609, 0.095828556), (0.0021111178, -0.0174821, 0.10432711), (0.0028214636, -0.016671289, 0.10432711), (0.0051987823, -0.019470606, 0.11410058)]
        uniform token subdivisionScheme = "none"
    }

    def Mesh "Blade11" (
        prepend apiSchemas = ["MaterialBindingAPI"]
    )
    {
        uniform bool doubleSided = 1
        int[] faceVertexCounts = [3, 3, 3, 3, 3, 3, 3, 3, 3, 3, 3, 3, 3, 3, 3, 3, 3, 3, 3, 3, 3, 3, 3, 3, 3, 3, 3, 3, 3, 3, 3, 3]
        int[] faceVertexIndices = [0, 1, 2, 2, 3, 4, 4, 5, 6, 6, 7, 8, 8, 9, 10, 10, 11, 12, 12, 13, 14, 14, 15, 16, 16, 17, 18, 18, 19, 20, 20, 21, 22, 22, 23, 24, 24, 25, 26, 26, 27, 28, 28, 29, 30, 30, 31, 32, 1, 3, 2, 3, 5, 4, 5, 7, 6, 7, 9, 8, 9, 11, 10, 11, 13, 12, 13, 15, 14, 15, 17, 16, 17, 19, 18, 19, 21, 20, 21, 23, 22, 23, 25, 24, 25, 27, 26, 27, 29, 28, 29, 31, 30, 31, 32, 32]
        rel material:binding = </Seagrass/Looks/Leaf11>
        point3f[] points = [(-0.003487075, 0.008010891, 0), (-0.004369565, 0.0068076905, 0), (-0.0032799963, 0.008491369, 0.0064154738), (-0.0047656335, 0.0064658276, 0.0064154738), (-0.0032860818, 0.009077504, 0.013182943), (-0.0053265197, 0.006295539, 0.013182943), (-0.0035143583, 0.009756988, 0.020109028), (-0.0060431953, 0.0063091316, 0.020109028), (-0.003972773, 0.010518987, 0.026603786), (-0.006907714, 0.0065174415, 0.026603786), (-0.004667934, 0.01135449, 0.032407798), (-0.0079134675, 0.006929477, 0.032407798), (-0.0056048944, 0.012256607, 0.038072452), (-0.009055402, 0.0075521297, 0.038072452), (-0.0067869895, 0.013220792, 0.0445446), (-0.010330183, 0.008389946, 0.0445446), (-0.008215728, 0.014244988, 0.052158255), (-0.011736302, 0.009444982, 0.052158255), (-0.009890742, 0.015329696, 0.06007781), (-0.013274127, 0.010716735, 0.06007781), (-0.011809798, 0.016477961, 0.066918604), (-0.014945889, 0.012202164, 0.066918604), (-0.013968874, 0.017695267, 0.07210189), (-0.016755614, 0.013895782, 0.07210189), (-0.016362283, 0.018989367, 0.07662941), (-0.018708985, 0.015789837, 0.07662941), (-0.018982869, 0.020370021, 0.08235784), (-0.020813163, 0.017874569, 0.08235784), (-0.021822223, 0.021848686, 0.09027153), (-0.02307655, 0.02013852, 0.09027153), (-0.02487098, 0.02343814, 0.09935716), (-0.025508517, 0.022568913, 0.09935716), (-0.028119102, 0.025152067, 0.1073032)]
        uniform token subdivisionScheme = "none"
    }

    def Mesh "Blade12" (
        prepend apiSchemas = ["MaterialBindingAPI"]
    )
    {
        uniform bool doubleSided = 1
        int[] faceVertexCounts = [3, 3, 3, 3, 3, 3, 3, 3, 3, 3, 3, 3, 3, 3, 3, 3, 3, 3, 3, 3, 3, 3, 3, 3, 3, 3, 3, 3, 3, 3, 3, 3]
        int[] faceVertexIndices = [0, 1, 2, 2, 3, 4, 4, 5, 6, 6, 7, 8, 8, 9, 10, 10, 11, 12, 12, 13, 14, 14, 15, 16, 16, 17, 18, 18, 19, 20, 20, 21, 22, 22, 23, 24, 24, 25, 26, 26, 27, 28, 28, 29, 30, 30, 31, 32, 1, 3, 2, 3, 5, 4, 5, 7, 6, 7, 9, 8, 9, 11, 10, 11, 13, 12, 13, 15, 14, 15, 17, 16, 17, 19, 18, 19, 21, 20, 21, 23, 22, 23, 25, 24, 25, 27, 26, 27, 29, 28, 29, 31, 30, 31, 32, 32]
        rel material:binding = </Seagrass/Looks/Leaf12>
        point3f[] points = [(-0.005198733, -0.018793592, 0), (-0.004282988, -0.017615505, 0), (-0.0054191477, -0.019268101, 0.007605569), (-0.003877527, -0.017284835, 0.007605569), (-0.0054294323, -0.019854177, 0.015429171), (-0.0033121046, -0.017130274, 0.015429171), (-0.0052202195, -0.02053977, 0.022978343), (-0.0025960878, -0.017163876, 0.022978343), (-0.004783262, -0.021314273, 0.029956663), (-0.0017377234, -0.017396245, 0.029956663), (-0.0041117035, -0.022168862, 0.03677548), (-0.0007438679, -0.017836206, 0.03677548), (-0.0032003, -0.023096792, 0.044258446), (0.00038023415, -0.018490504, 0.044258446), (-0.0020455902, -0.024093611, 0.052739102), (0.001631122, -0.019363591, 0.052739102), (-0.0006460093, -0.025157304, 0.061505027), (0.0030072306, -0.020457482, 0.061505027), (0.0009980609, -0.026288364, 0.06931315), (0.004508942, -0.021771682, 0.06931315), (0.002884304, -0.02748977, 0.07562306), (0.0061385725, -0.023303216, 0.07562306), (0.0050085443, -0.028766895, 0.08133786), (0.007900298, -0.025046708, 0.08133786), (0.007364883, -0.030127324, 0.08816262), (0.009800016, -0.026994573, 0.08816262), (0.009945892, -0.03158062, 0.09700729), (0.0118451575, -0.02913725, 0.09700729), (0.012742849, -0.033137996, 0.10692617), (0.014044441, -0.031463522, 0.10692617), (0.015746031, -0.034811966, 0.11576036), (0.016407592, -0.033960883, 0.11576036), (0.018945023, -0.036615927, 0.122088216)]
        uniform token subdivisionScheme = "none"
    }
}

