# https://github.com/mikedh/trimesh
mtllib Finger.mtl

o part_000
usemtl material_0
v 0.01278667 0.01548761 0.01533235
v 0.04354144 -0.00377607 0.01533238
v 0.06254475 0.01333750 0.01533235
v 0.02866522 -0.00934098 -0.01550999
v -0.00858331 -0.02581039 -0.01551032
v 0.01278673 0.01548725 -0.01551085
v 0.06254475 0.01333750 0.01533235
v 0.01278673 0.01548725 -0.01551085
v 0.01278667 0.01548761 0.01533235
v 0.07428933 0.00896745 0.01533235
v 0.07238110 0.01074113 -0.01551085
v 0.07238098 0.01074142 0.01533235
v 0.02866503 -0.00934076 0.01533321
v 0.00280251 -0.03219384 -0.01550999
v 0.02866522 -0.00934098 -0.01550999
v 0.03690473 -0.00681307 0.01533238
v 0.02866522 -0.00934098 -0.01550999
v 0.03690492 -0.00681329 -0.01551082
v 0.07581498 0.00685497 0.01533235
v 0.07428951 0.00896708 -0.01551085
v 0.07428933 0.00896745 0.01533235
v -0.01958980 -0.00265430 0.01533236
v -0.01973101 0.00121825 -0.01551085
v -0.01958954 -0.00265459 -0.01551085
v 0.00080849 -0.03299981 0.01533310
v 0.00280251 -0.03219384 -0.01550999
v 0.00280232 -0.03219362 0.01533321
v 0.05882366 -0.01134484 0.01533236
v 0.05464948 -0.00790974 -0.01551082
v 0.05882378 -0.01134512 -0.01551083
v 0.07689915 0.00448576 0.01533235
v 0.07581510 0.00685468 -0.01551085
v 0.07581498 0.00685497 0.01533235
v -0.01973120 0.00121846 0.01533236
v -0.01911405 0.00504424 -0.01551085
v -0.01973101 0.00121825 -0.01551085
v -0.00216428 -0.03323884 0.01533299
v 0.00080867 -0.03300017 -0.01551010
v 0.00080849 -0.03299981 0.01533310
v 0.03890252 -0.00537011 0.01533238
v 0.03690492 -0.00681329 -0.01551082
v 0.03890278 -0.00537041 -0.01551082
v 0.07750035 0.00195039 0.01533235
v 0.07689935 0.00448542 -0.01551085
v 0.07689915 0.00448576 0.01533235
v -0.01911423 0.00504445 0.01533236
v -0.01776255 0.00867630 -0.01551085
v -0.01911405 0.00504424 -0.01551085
v -0.00216428 -0.03323884 0.01533299
v -0.00858331 -0.02581039 -0.01551032
v -0.00216422 -0.03323917 -0.01551021
v 0.04114351 -0.00434466 0.01533238
v 0.03890278 -0.00537041 -0.01551082
v 0.04114363 -0.00434495 -0.01551082
v 0.07759540 -0.00065335 0.01533235
v 0.07750049 0.00195024 -0.01551085
v 0.07750035 0.00195039 0.01533235
v -0.01776255 0.00867657 0.01533236
v -0.01572829 0.01197490 -0.01551085
v -0.01776255 0.00867630 -0.01551085
v -0.01215718 -0.02482858 0.01533277
v -0.00858331 -0.02581039 -0.01551032
v -0.00858343 -0.02581010 0.01533288
v 0.04354144 -0.00377607 0.01533238
v 0.04114363 -0.00434495 -0.01551082
v 0.04354163 -0.00377643 -0.01551082
v 0.07718044 -0.00322583 0.01533235
v 0.07759546 -0.00065372 -0.01551085
v 0.07759540 -0.00065335 0.01533235
v -0.01572848 0.01197511 0.01533236
v -0.01308974 0.01481337 -0.01551085
v -0.01572829 0.01197490 -0.01551085
v -0.01726541 -0.02711807 0.01533265
v -0.01215693 -0.02482888 -0.01551044
v -0.01215718 -0.02482858 0.01533277
v 0.04600415 -0.00368617 0.01533238
v 0.04354163 -0.00377643 -0.01551082
v 0.04600427 -0.00368645 -0.01551082
v 0.07627174 -0.00566782 0.01533235
v 0.07718055 -0.00322611 -0.01551085
v 0.07718044 -0.00322583 0.01533235
v -0.01308993 0.01481359 0.01533235
v -0.00994813 0.01708247 -0.01551085
v -0.01308974 0.01481337 -0.01551085
v -0.02105720 -0.02282680 0.01533254
v -0.01726521 -0.02711829 -0.01551055
v -0.01726541 -0.02711807 0.01533265
v 0.04843709 -0.00407857 0.01533238
v 0.04600427 -0.00368645 -0.01551082
v 0.04843727 -0.00407893 -0.01551082
v 0.07490410 -0.00788562 0.01533235
v 0.07627199 -0.00566811 -0.01551085
v 0.07627174 -0.00566782 0.01533235
v -0.00642430 0.01869533 0.01533235
v -0.00994813 0.01708247 -0.01551085
v -0.00994827 0.01708277 0.01533235
v -0.02057659 -0.01969935 0.01533243
v -0.02105694 -0.02282710 -0.01551066
v -0.02105720 -0.02282680 0.01533254
v 0.05074668 -0.00493796 0.01533238
v 0.04843727 -0.00407893 -0.01551082
v 0.05074680 -0.00493824 -0.01551082
v 0.07313019 -0.00979405 0.01533235
v 0.07490421 -0.00788590 -0.01551085
v 0.07490410 -0.00788562 0.01533235
v -0.00265345 0.01958941 0.01533235
v -0.00642410 0.01869510 -0.01551085
v -0.00642430 0.01869533 0.01533235
v -0.02057659 -0.01969935 0.01533243
v -0.01958954 -0.00265459 -0.01551085
v -0.02057648 -0.01969964 -0.01551077
v 0.05284428 -0.00623145 0.01533238
v 0.05074680 -0.00493824 -0.01551082
v 0.05284447 -0.00623181 -0.01551082
v 0.07101786 -0.01131957 0.01533235
v 0.07313038 -0.00979426 -0.01551085
v 0.07313019 -0.00979405 0.01533235
v 0.00121939 0.01973074 0.01533235
v -0.00265340 0.01958921 -0.01551085
v -0.00265345 0.01958941 0.01533235
v 0.06514870 0.01343247 0.01533235
v 0.06254494 0.01333728 -0.01551085
v 0.06254475 0.01333750 0.01533235
v 0.05464929 -0.00790938 0.01533238
v 0.05284447 -0.00623181 -0.01551082
v 0.05464948 -0.00790974 -0.01551082
v 0.06864857 -0.01240381 0.01533235
v 0.07101790 -0.01131991 -0.01551085
v 0.07101786 -0.01131957 0.01533235
v 0.00504538 0.01911378 0.01533235
v 0.00121950 0.01973046 -0.01551085
v 0.00121939 0.01973074 0.01533235
v 0.06772103 0.01301763 0.01533235
v 0.06514890 0.01343225 -0.01551085
v 0.06514870 0.01343247 0.01533235
v 0.06864857 -0.01240381 0.01533235
v 0.06611345 -0.01300531 -0.01551085
v 0.06864877 -0.01240404 -0.01551085
v 0.00874372 0.01774261 0.01533235
v 0.00504556 0.01911357 -0.01551085
v 0.00504538 0.01911378 0.01533235
v 0.07016311 0.01210915 0.01533235
v 0.06772129 0.01301734 -0.01551085
v 0.06772103 0.01301763 0.01533235
v 0.06611319 -0.01300502 0.01533235
v 0.06350957 -0.01310035 -0.01551085
v 0.06611345 -0.01300531 -0.01551085
v 0.01278667 0.01548761 0.01533235
v 0.00874390 0.01774240 -0.01551085
v 0.00874372 0.01774261 0.01533235
v 0.07238098 0.01074142 0.01533235
v 0.07016336 0.01210886 -0.01551085
v 0.07016311 0.01210915 0.01533235
v 0.06350932 -0.01310006 0.01533235
v 0.05882378 -0.01134512 -0.01551083
v 0.06350957 -0.01310035 -0.01551085
v 0.07689915 0.00448576 0.01533235
v 0.07581498 0.00685497 0.01533235
v 0.05464929 -0.00790938 0.01533238
v 0.07428933 0.00896745 0.01533235
v 0.07238098 0.01074142 0.01533235
v 0.07016311 0.01210915 0.01533235
v 0.06772103 0.01301763 0.01533235
v 0.06514870 0.01343247 0.01533235
v 0.07759540 -0.00065335 0.01533235
v 0.07750035 0.00195039 0.01533235
v 0.07627174 -0.00566782 0.01533235
v 0.07718044 -0.00322583 0.01533235
v 0.05882366 -0.01134484 0.01533236
v 0.07313019 -0.00979405 0.01533235
v 0.07490410 -0.00788562 0.01533235
v 0.06864857 -0.01240381 0.01533235
v 0.07101786 -0.01131957 0.01533235
v 0.06350932 -0.01310006 0.01533235
v 0.06611319 -0.01300502 0.01533235
v 0.05284428 -0.00623145 0.01533238
v 0.00874372 0.01774261 0.01533235
v -0.01958980 -0.00265430 0.01533236
v 0.00504538 0.01911378 0.01533235
v 0.00121939 0.01973074 0.01533235
v -0.00265345 0.01958941 0.01533235
v -0.00642430 0.01869533 0.01533235
v -0.00994827 0.01708277 0.01533235
v -0.01308993 0.01481359 0.01533235
v -0.01572848 0.01197511 0.01533236
v -0.01776255 0.00867657 0.01533236
v -0.01911423 0.00504445 0.01533236
v -0.01973120 0.00121846 0.01533236
v -0.02057659 -0.01969935 0.01533243
v -0.02105720 -0.02282680 0.01533254
v -0.01215718 -0.02482858 0.01533277
v -0.01726541 -0.02711807 0.01533265
v -0.00858343 -0.02581010 0.01533288
v -0.00216428 -0.03323884 0.01533299
v 0.00080849 -0.03299981 0.01533310
v 0.05074668 -0.00493796 0.01533238
v 0.00280232 -0.03219362 0.01533321
v 0.02866503 -0.00934076 0.01533321
v 0.03690473 -0.00681307 0.01533238
v 0.03890252 -0.00537011 0.01533238
v 0.04843709 -0.00407857 0.01533238
v 0.04600415 -0.00368617 0.01533238
v 0.04114351 -0.00434466 0.01533238
v 0.07428951 0.00896708 -0.01551085
v 0.07581510 0.00685468 -0.01551085
v 0.05464948 -0.00790974 -0.01551082
v 0.07689935 0.00448542 -0.01551085
v 0.07750049 0.00195024 -0.01551085
v 0.07759546 -0.00065372 -0.01551085
v 0.07718055 -0.00322611 -0.01551085
v 0.07627199 -0.00566811 -0.01551085
v 0.07490421 -0.00788590 -0.01551085
v 0.05882378 -0.01134512 -0.01551083
v 0.07313038 -0.00979426 -0.01551085
v 0.07101790 -0.01131991 -0.01551085
v 0.06864877 -0.01240404 -0.01551085
v 0.06611345 -0.01300531 -0.01551085
v 0.06350957 -0.01310035 -0.01551085
v 0.07016336 0.01210886 -0.01551085
v 0.07238110 0.01074113 -0.01551085
v 0.06514890 0.01343225 -0.01551085
v 0.06772129 0.01301734 -0.01551085
v 0.06254494 0.01333728 -0.01551085
v 0.00504556 0.01911357 -0.01551085
v -0.01958954 -0.00265459 -0.01551085
v -0.01911405 0.00504424 -0.01551085
v 0.04354163 -0.00377643 -0.01551082
v 0.05284447 -0.00623181 -0.01551082
v 0.05074680 -0.00493824 -0.01551082
v 0.00121950 0.01973046 -0.01551085
v 0.04843727 -0.00407893 -0.01551082
v 0.04600427 -0.00368645 -0.01551082
v -0.00265340 0.01958921 -0.01551085
v -0.00994813 0.01708247 -0.01551085
v -0.00642410 0.01869510 -0.01551085
v -0.01572829 0.01197490 -0.01551085
v -0.01308974 0.01481337 -0.01551085
v -0.01776255 0.00867630 -0.01551085
v -0.01973101 0.00121825 -0.01551085
v -0.01726521 -0.02711829 -0.01551055
v -0.02105694 -0.02282710 -0.01551066
v -0.01215693 -0.02482888 -0.01551044
v -0.02057648 -0.01969964 -0.01551077
v 0.04114363 -0.00434495 -0.01551082
v 0.00874390 0.01774240 -0.01551085
v 0.03890278 -0.00537041 -0.01551082
v 0.03690492 -0.00681329 -0.01551082
v 0.00080867 -0.03300017 -0.01551010
v -0.00216422 -0.03323917 -0.01551021
v 0.00280251 -0.03219384 -0.01550999
v 0.06254494 0.01333728 -0.01551085
v 0.07428951 0.00896708 -0.01551085
v 0.00280232 -0.03219362 0.01533321
v 0.02866503 -0.00934076 0.01533321
v 0.07581510 0.00685468 -0.01551085
v -0.01973120 0.00121846 0.01533236
v 0.00080867 -0.03300017 -0.01551010
v 0.05464929 -0.00790938 0.01533238
v 0.07689935 0.00448542 -0.01551085
v -0.01911423 0.00504445 0.01533236
v -0.00216422 -0.03323917 -0.01551021
v 0.03690473 -0.00681307 0.01533238
v 0.07750049 0.00195024 -0.01551085
v -0.01776255 0.00867657 0.01533236
v -0.00858343 -0.02581010 0.01533288
v 0.03890252 -0.00537011 0.01533238
v 0.07759546 -0.00065372 -0.01551085
v -0.01572848 0.01197511 0.01533236
v -0.01215693 -0.02482888 -0.01551044
v 0.04114351 -0.00434466 0.01533238
v 0.07718055 -0.00322611 -0.01551085
v -0.01308993 0.01481359 0.01533235
v -0.01726521 -0.02711829 -0.01551055
v 0.04354144 -0.00377607 0.01533238
v 0.07627199 -0.00566811 -0.01551085
v -0.00994827 0.01708277 0.01533235
v -0.02105694 -0.02282710 -0.01551066
v 0.04600415 -0.00368617 0.01533238
v 0.07490421 -0.00788590 -0.01551085
v -0.00642410 0.01869510 -0.01551085
v -0.02057648 -0.01969964 -0.01551077
v 0.04843709 -0.00407857 0.01533238
v 0.07313038 -0.00979426 -0.01551085
v -0.00265340 0.01958921 -0.01551085
v -0.01958980 -0.00265430 0.01533236
v 0.05074668 -0.00493796 0.01533238
v 0.07101790 -0.01131991 -0.01551085
v 0.00121950 0.01973046 -0.01551085
v 0.06514890 0.01343225 -0.01551085
v 0.05284428 -0.00623145 0.01533238
v 0.06864877 -0.01240404 -0.01551085
v 0.00504556 0.01911357 -0.01551085
v 0.06772129 0.01301734 -0.01551085
v 0.06611319 -0.01300502 0.01533235
v 0.00874390 0.01774240 -0.01551085
v 0.07016336 0.01210886 -0.01551085
v 0.06350932 -0.01310006 0.01533235
v 0.01278673 0.01548725 -0.01551085
v 0.07238110 0.01074113 -0.01551085
v 0.05882366 -0.01134484 0.01533236
vn -0.00000212 0.00001613 1.00000000
vn -0.00000006 0.00000158 1.00000000
vn 0.00000008 0.00000134 1.00000000
vn -0.00002981 -0.00005354 -1.00000000
vn 0.00002067 -0.00001376 -1.00000000
vn 0.00000174 -0.00001566 -1.00000000
vn 0.04316914 0.99906778 -0.00000853
vn 0.04317000 0.99906774 -0.00000993
vn 0.04317104 0.99906770 -0.00001160
vn 0.68084980 0.73242307 -0.00000423
vn 0.68085294 0.73242015 -0.00000459
vn 0.68084961 0.73242324 -0.00000420
vn 0.66215619 -0.74936585 0.00000951
vn 0.66215619 -0.74936585 0.00000951
vn 0.66215619 -0.74936585 0.00000952
vn 0.29327961 -0.95602671 0.00000871
vn 0.29327934 -0.95602679 0.00000879
vn 0.29327926 -0.95602682 0.00000881
vn 0.81068446 0.58548330 -0.00000215
vn 0.81068570 0.58548159 -0.00000233
vn 0.81068439 0.58548341 -0.00000214
vn -0.99933407 -0.03648850 -0.00000597
vn -0.99933357 -0.03650225 -0.00000770
vn -0.99933352 -0.03650355 -0.00000786
vn 0.37485983 -0.92708150 0.00000917
vn 0.37490926 -0.92706151 0.00001288
vn 0.37485743 -0.92708247 0.00000899
vn -0.63545778 -0.77213562 0.00000509
vn -0.63545613 -0.77213698 0.00000472
vn -0.63545589 -0.77213717 0.00000466
vn 0.90931343 0.41611186 -0.00000029
vn 0.90930660 0.41612680 0.00000110
vn 0.90931385 0.41611096 -0.00000037
vn -0.98724650 0.15919905 -0.00000709
vn -0.98724650 0.15919905 -0.00000709
vn -0.98724650 0.15919905 -0.00000709
vn 0.08014701 -0.99678305 0.00001210
vn 0.08013760 -0.99678381 0.00001118
vn 0.08014767 -0.99678300 0.00001216
vn 0.58551720 -0.81065998 0.00000976
vn 0.58548960 -0.81067992 0.00001248
vn 0.58548804 -0.81068105 0.00001264
vn 0.97301825 0.23072816 0.00000364
vn 0.97301964 0.23072229 0.00000313
vn 0.97301817 0.23072852 0.00000367
vn -0.93720627 0.34877559 -0.00000352
vn -0.93721789 0.34874435 -0.00000771
vn -0.93721899 0.34874139 -0.00000811
vn -0.75665159 -0.65381830 0.00000369
vn -0.75665478 -0.65381462 0.00000524
vn -0.75665580 -0.65381342 0.00000574
vn 0.41609598 -0.90932070 0.00001205
vn 0.41611803 -0.90931061 0.00001012
vn 0.41611928 -0.90931004 0.00001001
vn 0.99933442 0.03647909 0.00000403
vn 0.99933556 0.03644776 0.00000138
vn 0.99933435 0.03648098 0.00000419
vn -0.85117268 0.52488577 -0.00000839
vn -0.85115852 0.52490873 -0.00000501
vn -0.85115718 0.52491090 -0.00000469
vn -0.26484003 -0.96429236 0.00000791
vn -0.26484678 -0.96429051 0.00000707
vn -0.26483943 -0.96429253 0.00000799
vn 0.23071809 -0.97302064 0.00001001
vn 0.23068795 -0.97302779 0.00001249
vn 0.23068624 -0.97302819 0.00001263
vn 0.98723830 -0.15924994 0.00000360
vn 0.98724061 -0.15923562 0.00000483
vn 0.98723816 -0.15925080 0.00000353
vn -0.73242985 0.68084251 -0.00000916
vn -0.73242940 0.68084299 -0.00000908
vn -0.73242936 0.68084303 -0.00000907
vn 0.40899447 -0.91253686 0.00001179
vn 0.40898247 -0.91254224 0.00000941
vn 0.40899624 -0.91253607 0.00001215
vn 0.03648379 -0.99933424 0.00001165
vn 0.03651104 -0.99933325 0.00000947
vn 0.03651258 -0.99933319 0.00000935
vn 0.93721641 -0.34874833 0.00000669
vn 0.93723306 -0.34870359 0.00001072
vn 0.93721541 -0.34875102 0.00000645
vn -0.58552525 0.81065417 -0.00001019
vn -0.58551934 0.81065844 -0.00000927
vn -0.58551878 0.81065884 -0.00000918
vn -0.74937195 -0.66214929 0.00000005
vn -0.74937195 -0.66214929 0.00000005
vn -0.74937195 -0.66214929 0.00000005
vn -0.15923205 -0.98724118 0.00000858
vn -0.15925536 -0.98723742 0.00001046
vn -0.15925668 -0.98723721 0.00001057
vn 0.85116951 -0.52489091 0.00001169
vn 0.85114657 -0.52492810 0.00000800
vn 0.85117088 -0.52488868 0.00001191
vn -0.41610268 0.90931763 -0.00001043
vn -0.41610823 0.90931509 -0.00000966
vn -0.41610216 0.90931787 -0.00001050
vn -0.98839787 0.15188698 -0.00000940
vn -0.98840368 0.15184917 -0.00000547
vn -0.98839743 0.15188981 -0.00000969
vn -0.34873468 -0.93722149 0.00000878
vn -0.34871756 -0.93722786 0.00000732
vn -0.34871659 -0.93722822 0.00000724
vn 0.73244947 -0.68082140 0.00000877
vn 0.73245175 -0.68081894 0.00000906
vn 0.73244933 -0.68082155 0.00000876
vn -0.23070823 0.97302298 -0.00000867
vn -0.23072284 0.97301951 -0.00000679
vn -0.23070685 0.97302330 -0.00000885
vn -0.99832822 0.05779930 -0.00000732
vn -0.99832806 0.05780213 -0.00000575
vn -0.99832791 0.05780469 -0.00000433
vn -0.52488088 -0.85117570 0.00000581
vn -0.52489006 -0.85117003 0.00000667
vn -0.52489058 -0.85116971 0.00000672
vn 0.58547911 -0.81068749 0.00000912
vn 0.58548438 -0.81068369 0.00000967
vn 0.58547879 -0.81068772 0.00000908
vn -0.03646686 0.99933486 -0.00000671
vn -0.03644920 0.99933551 -0.00000893
vn -0.03646853 0.99933480 -0.00000650
vn -0.03644695 0.99933559 -0.00000736
vn -0.03644615 0.99933562 -0.00000742
vn -0.03644700 0.99933559 -0.00000735
vn -0.68085339 -0.73241973 0.00000442
vn -0.68085339 -0.73241973 0.00000442
vn -0.68085339 -0.73241973 0.00000442
vn 0.41611917 -0.90931009 0.00001051
vn 0.41610887 -0.90931480 0.00000956
vn 0.41611979 -0.90930980 0.00001057
vn 0.15919796 0.98724668 -0.00000810
vn 0.15918163 0.98724931 -0.00000603
vn 0.15919951 0.98724643 -0.00000830
vn 0.15921345 0.98724418 -0.00000622
vn 0.15923408 0.98724086 -0.00000798
vn 0.15921221 0.98724438 -0.00000611
vn 0.23073153 -0.97301745 0.00001089
vn 0.23075467 -0.97301196 0.00000888
vn 0.23075606 -0.97301163 0.00000876
vn 0.34762993 0.93763182 -0.00000436
vn 0.34762993 0.93763182 -0.00000436
vn 0.34762993 0.93763182 -0.00000436
vn 0.34866723 0.93724659 -0.00000603
vn 0.34866712 0.93724663 -0.00000602
vn 0.34866724 0.93724658 -0.00000603
vn 0.03647456 -0.99933458 0.00000967
vn 0.03647456 -0.99933458 0.00000967
vn 0.03647456 -0.99933458 0.00000967
vn 0.48711654 0.87333698 -0.00000367
vn 0.48714587 0.87332062 -0.00000871
vn 0.48711311 0.87333889 -0.00000308
vn 0.52490160 0.85116292 -0.00000384
vn 0.52492115 0.85115086 -0.00000578
vn 0.52490042 0.85116364 -0.00000373
vn -0.35078997 -0.93645416 0.00000717
vn -0.35078348 -0.93645659 0.00000604
vn -0.35078265 -0.93645691 0.00000590
vn 0.00000105 0.00000016 1.00000000
vn 0.00000080 0.00000059 1.00000000
vn 0.00000096 0.00000010 1.00000000
vn 0.00000069 0.00000073 1.00000000
vn 0.00000057 0.00000086 1.00000000
vn 0.00000042 0.00000099 1.00000000
vn 0.00000026 0.00000110 1.00000000
vn 0.00000007 0.00000121 1.00000000
vn 0.00000114 0.00000006 1.00000000
vn 0.00000122 -0.00000011 1.00000000
vn 0.00000092 -0.00000030 1.00000000
vn 0.00000113 -0.00000024 1.00000000
vn 0.00000132 -0.00000177 1.00000000
vn 0.00000106 -0.00000078 1.00000000
vn 0.00000100 -0.00000060 1.00000000
vn 0.00000097 -0.00000228 1.00000000
vn 0.00000099 -0.00000043 1.00000000
vn 0.00000021 -0.00000629 1.00000000
vn 0.00000078 -0.00000377 1.00000000
vn 0.00000069 0.00000101 1.00000000
vn 0.00000008 0.00000031 1.00000000
vn -0.00001028 0.00001015 1.00000000
vn 0.00000015 0.00000006 1.00000000
vn 0.00000015 -0.00000454 1.00000000
vn 0.00000034 -0.00000023 1.00000000
vn -0.00000002 0.00000010 1.00000000
vn -0.00000027 0.00000105 1.00000000
vn 0.00000339 -0.00000306 1.00000000
vn 0.00000037 -0.00000002 1.00000000
vn -0.00000002 0.00000010 1.00000000
vn -0.00000002 0.00000010 1.00000000
vn -0.00000002 0.00000010 1.00000000
vn -0.00002962 0.00001838 1.00000000
vn -0.00001883 0.00002980 1.00000000
vn -0.00002815 0.00001032 1.00000000
vn -0.00002470 0.00000370 1.00000000
vn -0.00002047 0.00001381 1.00000000
vn -0.00003545 -0.00001536 1.00000000
vn -0.00004304 -0.00002528 1.00000000
vn 0.00000113 0.00000071 1.00000000
vn -0.00002687 0.00000482 1.00000000
vn 0.00002141 0.00004031 1.00000000
vn 0.00017545 -0.00024284 0.99999996
vn 0.00003016 0.00000373 1.00000000
vn 0.00000073 0.00000111 1.00000000
vn 0.00000000 0.00000174 1.00000000
vn -0.00000032 0.00000110 1.00000000
vn -0.00000091 -0.00000047 -1.00000000
vn -0.00000107 -0.00000033 -1.00000000
vn -0.00000104 -0.00000016 -1.00000000
vn -0.00000127 0.00000008 -1.00000000
vn -0.00000153 0.00000046 -1.00000000
vn -0.00000130 -0.00000005 -1.00000000
vn -0.00000131 0.00000027 -1.00000000
vn -0.00000115 0.00000041 -1.00000000
vn -0.00000126 0.00000078 -1.00000000
vn -0.00000146 0.00000172 -1.00000000
vn -0.00000131 0.00000082 -1.00000000
vn -0.00000113 -0.00000034 -1.00000000
vn -0.00000112 0.00000262 -1.00000000
vn -0.00000090 0.00000433 -1.00000000
vn -0.00000024 0.00000720 -1.00000000
vn -0.00000015 -0.00000129 -1.00000000
vn -0.00000033 -0.00000108 -1.00000000
vn -0.00000008 -0.00000129 -1.00000000
vn -0.00000028 -0.00000117 -1.00000000
vn -0.00000005 -0.00000141 -1.00000000
vn -0.00000005 -0.00000029 -1.00000000
vn 0.00001025 -0.00001016 -1.00000000
vn -0.00000019 -0.00000005 -1.00000000
vn -0.00000010 -0.00000141 -1.00000000
vn -0.00000074 -0.00000107 -1.00000000
vn -0.00000051 -0.00000121 -1.00000000
vn -0.00000030 -0.00000002 -1.00000000
vn -0.00000028 -0.00000138 -1.00000000
vn -0.00000053 -0.00000112 -1.00000000
vn -0.00000116 0.00000124 -1.00000000
vn 0.00000002 -0.00000010 -1.00000000
vn 0.00000002 -0.00000010 -1.00000000
vn 0.00000002 -0.00000010 -1.00000000
vn 0.00000002 -0.00000010 -1.00000000
vn 0.00000002 -0.00000010 -1.00000000
vn 0.00000002 -0.00000010 -1.00000000
vn 0.00002472 -0.00000451 -1.00000000
vn 0.00001933 -0.00002847 -1.00000000
vn 0.00002840 -0.00001015 -1.00000000
vn 0.00002940 -0.00001770 -1.00000000
vn 0.00000032 -0.00000110 -1.00000000
vn -0.00000005 -0.00000026 -1.00000000
vn 0.00000046 -0.00000090 -1.00000000
vn -0.00002761 -0.00003125 -1.00000000
vn 0.00004299 0.00002473 -1.00000000
vn 0.00003656 0.00001632 -1.00000000
vn 0.00002678 -0.00000527 -1.00000000
vn 0.04316810 0.99906782 -0.00000685
vn 0.68085313 0.73241997 -0.00000461
vn 0.66215620 -0.74936585 0.00000951
vn 0.29327968 -0.95602669 0.00000869
vn 0.81068578 0.58548148 -0.00000234
vn -0.99933412 -0.03648720 -0.00000581
vn 0.37491166 -0.92706054 0.00001306
vn -0.63545801 -0.77213543 0.00000514
vn 0.90930619 0.41612770 0.00000118
vn -0.98724650 0.15919905 -0.00000709
vn 0.08013694 -0.99678386 0.00001112
vn 0.58551876 -0.81065885 0.00000961
vn 0.97301973 0.23072193 0.00000310
vn -0.93720517 0.34877855 -0.00000313
vn -0.75665056 -0.65381949 0.00000319
vn 0.41609473 -0.90932127 0.00001216
vn 0.99933563 0.03644587 0.00000122
vn -0.85117402 0.52488360 -0.00000872
vn -0.26484739 -0.96429034 0.00000700
vn 0.23071979 -0.97302024 0.00000987
vn 0.98724075 -0.15923476 0.00000490
vn -0.73242989 0.68084246 -0.00000917
vn 0.40898069 -0.91254304 0.00000905
vn 0.03648225 -0.99933430 0.00001177
vn 0.93723406 -0.34870090 0.00001096
vn -0.58552581 0.81065377 -0.00001027
vn -0.74937195 -0.66214929 0.00000005
vn -0.15923073 -0.98724140 0.00000847
vn 0.85114519 -0.52493034 0.00000777
vn -0.41610876 0.90931485 -0.00000959
vn -0.98840411 0.15184634 -0.00000518
vn -0.34873565 -0.93722113 0.00000886
vn 0.73245189 -0.68081879 0.00000907
vn -0.23072422 0.97301919 -0.00000661
vn -0.99832837 0.05779674 -0.00000874
vn -0.52488036 -0.85117602 0.00000576
vn 0.58548470 -0.81068346 0.00000970
vn -0.03644753 0.99933557 -0.00000914
vn -0.03644611 0.99933562 -0.00000743
vn -0.68085339 -0.73241973 0.00000442
vn 0.41610825 -0.90931508 0.00000950
vn 0.15918009 0.98724956 -0.00000583
vn 0.15923532 0.98724066 -0.00000809
vn 0.23073013 -0.97301778 0.00001102
vn 0.34762993 0.93763182 -0.00000436
vn 0.34866711 0.93724663 -0.00000601
vn 0.03647456 -0.99933458 0.00000967
vn 0.48714930 0.87331870 -0.00000930
vn 0.52492232 0.85115014 -0.00000590
vn -0.35079081 -0.93645385 0.00000731
vt 0.00000000 0.00000000
vt 0.00000000 0.00000000
vt 0.00000000 0.00000000
vt 0.00000000 0.00000000
vt 0.00000000 0.00000000
vt 0.00000000 0.00000000
vt 0.00000000 0.00000000
vt 0.00000000 0.00000000
vt 0.00000000 0.00000000
vt 0.00000000 0.00000000
vt 0.00000000 0.00000000
vt 0.00000000 0.00000000
vt 0.00000000 0.00000000
vt 0.00000000 0.00000000
vt 0.00000000 0.00000000
vt 0.00000000 0.00000000
vt 0.00000000 0.00000000
vt 0.00000000 0.00000000
vt 0.00000000 0.00000000
vt 0.00000000 0.00000000
vt 0.00000000 0.00000000
vt 0.00000000 0.00000000
vt 0.00000000 0.00000000
vt 0.00000000 0.00000000
vt 0.00000000 0.00000000
vt 0.00000000 0.00000000
vt 0.00000000 0.00000000
vt 0.00000000 0.00000000
vt 0.00000000 0.00000000
vt 0.00000000 0.00000000
vt 0.00000000 0.00000000
vt 0.00000000 0.00000000
vt 0.00000000 0.00000000
vt 0.00000000 0.00000000
vt 0.00000000 0.00000000
vt 0.00000000 0.00000000
vt 0.00000000 0.00000000
vt 0.00000000 0.00000000
vt 0.00000000 0.00000000
vt 0.00000000 0.00000000
vt 0.00000000 0.00000000
vt 0.00000000 0.00000000
vt 0.00000000 0.00000000
vt 0.00000000 0.00000000
vt 0.00000000 0.00000000
vt 0.00000000 0.00000000
vt 0.00000000 0.00000000
vt 0.00000000 0.00000000
vt 0.00000000 0.00000000
vt 0.00000000 0.00000000
vt 0.00000000 0.00000000
vt 0.00000000 0.00000000
vt 0.00000000 0.00000000
vt 0.00000000 0.00000000
vt 0.00000000 0.00000000
vt 0.00000000 0.00000000
vt 0.00000000 0.00000000
vt 0.00000000 0.00000000
vt 0.00000000 0.00000000
vt 0.00000000 0.00000000
vt 0.00000000 0.00000000
vt 0.00000000 0.00000000
vt 0.00000000 0.00000000
vt 0.00000000 0.00000000
vt 0.00000000 0.00000000
vt 0.00000000 0.00000000
vt 0.00000000 0.00000000
vt 0.00000000 0.00000000
vt 0.00000000 0.00000000
vt 0.00000000 0.00000000
vt 0.00000000 0.00000000
vt 0.00000000 0.00000000
vt 0.00000000 0.00000000
vt 0.00000000 0.00000000
vt 0.00000000 0.00000000
vt 0.00000000 0.00000000
vt 0.00000000 0.00000000
vt 0.00000000 0.00000000
vt 0.00000000 0.00000000
vt 0.00000000 0.00000000
vt 0.00000000 0.00000000
vt 0.00000000 0.00000000
vt 0.00000000 0.00000000
vt 0.00000000 0.00000000
vt 0.00000000 0.00000000
vt 0.00000000 0.00000000
vt 0.00000000 0.00000000
vt 0.00000000 0.00000000
vt 0.00000000 0.00000000
vt 0.00000000 0.00000000
vt 0.00000000 0.00000000
vt 0.00000000 0.00000000
vt 0.00000000 0.00000000
vt 0.00000000 0.00000000
vt 0.00000000 0.00000000
vt 0.00000000 0.00000000
vt 0.00000000 0.00000000
vt 0.00000000 0.00000000
vt 0.00000000 0.00000000
vt 0.00000000 0.00000000
vt 0.00000000 0.00000000
vt 0.00000000 0.00000000
vt 0.00000000 0.00000000
vt 0.00000000 0.00000000
vt 0.00000000 0.00000000
vt 0.00000000 0.00000000
vt 0.00000000 0.00000000
vt 0.00000000 0.00000000
vt 0.00000000 0.00000000
vt 0.00000000 0.00000000
vt 0.00000000 0.00000000
vt 0.00000000 0.00000000
vt 0.00000000 0.00000000
vt 0.00000000 0.00000000
vt 0.00000000 0.00000000
vt 0.00000000 0.00000000
vt 0.00000000 0.00000000
vt 0.00000000 0.00000000
vt 0.00000000 0.00000000
vt 0.00000000 0.00000000
vt 0.00000000 0.00000000
vt 0.00000000 0.00000000
vt 0.00000000 0.00000000
vt 0.00000000 0.00000000
vt 0.00000000 0.00000000
vt 0.00000000 0.00000000
vt 0.00000000 0.00000000
vt 0.00000000 0.00000000
vt 0.00000000 0.00000000
vt 0.00000000 0.00000000
vt 0.00000000 0.00000000
vt 0.00000000 0.00000000
vt 0.00000000 0.00000000
vt 0.00000000 0.00000000
vt 0.00000000 0.00000000
vt 0.00000000 0.00000000
vt 0.00000000 0.00000000
vt 0.00000000 0.00000000
vt 0.00000000 0.00000000
vt 0.00000000 0.00000000
vt 0.00000000 0.00000000
vt 0.00000000 0.00000000
vt 0.00000000 0.00000000
vt 0.00000000 0.00000000
vt 0.00000000 0.00000000
vt 0.00000000 0.00000000
vt 0.00000000 0.00000000
vt 0.00000000 0.00000000
vt 0.00000000 0.00000000
vt 0.00000000 0.00000000
vt 0.00000000 0.00000000
vt 0.00000000 0.00000000
vt 0.00000000 0.00000000
vt 0.00000000 0.00000000
vt 0.00000000 0.00000000
vt 0.00000000 0.00000000
vt 0.00000000 0.00000000
vt 0.00000000 0.00000000
vt 0.00000000 0.00000000
vt 0.00000000 0.00000000
vt 0.00000000 0.00000000
vt 0.00000000 0.00000000
vt 0.00000000 0.00000000
vt 0.00000000 0.00000000
vt 0.00000000 0.00000000
vt 0.00000000 0.00000000
vt 0.00000000 0.00000000
vt 0.00000000 0.00000000
vt 0.00000000 0.00000000
vt 0.00000000 0.00000000
vt 0.00000000 0.00000000
vt 0.00000000 0.00000000
vt 0.00000000 0.00000000
vt 0.00000000 0.00000000
vt 0.00000000 0.00000000
vt 0.00000000 0.00000000
vt 0.00000000 0.00000000
vt 0.00000000 0.00000000
vt 0.00000000 0.00000000
vt 0.00000000 0.00000000
vt 0.00000000 0.00000000
vt 0.00000000 0.00000000
vt 0.00000000 0.00000000
vt 0.00000000 0.00000000
vt 0.00000000 0.00000000
vt 0.00000000 0.00000000
vt 0.00000000 0.00000000
vt 0.00000000 0.00000000
vt 0.00000000 0.00000000
vt 0.00000000 0.00000000
vt 0.00000000 0.00000000
vt 0.00000000 0.00000000
vt 0.00000000 0.00000000
vt 0.00000000 0.00000000
vt 0.00000000 0.00000000
vt 0.00000000 0.00000000
vt 0.00000000 0.00000000
vt 0.00000000 0.00000000
vt 0.00000000 0.00000000
vt 0.00000000 0.00000000
vt 0.00000000 0.00000000
vt 0.00000000 0.00000000
vt 0.00000000 0.00000000
vt 0.00000000 0.00000000
vt 0.00000000 0.00000000
vt 0.00000000 0.00000000
vt 0.00000000 0.00000000
vt 0.00000000 0.00000000
vt 0.00000000 0.00000000
vt 0.00000000 0.00000000
vt 0.00000000 0.00000000
vt 0.00000000 0.00000000
vt 0.00000000 0.00000000
vt 0.00000000 0.00000000
vt 0.00000000 0.00000000
vt 0.00000000 0.00000000
vt 0.00000000 0.00000000
vt 0.00000000 0.00000000
vt 0.00000000 0.00000000
vt 0.00000000 0.00000000
vt 0.00000000 0.00000000
vt 0.00000000 0.00000000
vt 0.00000000 0.00000000
vt 0.00000000 0.00000000
vt 0.00000000 0.00000000
vt 0.00000000 0.00000000
vt 0.00000000 0.00000000
vt 0.00000000 0.00000000
vt 0.00000000 0.00000000
vt 0.00000000 0.00000000
vt 0.00000000 0.00000000
vt 0.00000000 0.00000000
vt 0.00000000 0.00000000
vt 0.00000000 0.00000000
vt 0.00000000 0.00000000
vt 0.00000000 0.00000000
vt 0.00000000 0.00000000
vt 0.00000000 0.00000000
vt 0.00000000 0.00000000
vt 0.00000000 0.00000000
vt 0.00000000 0.00000000
vt 0.00000000 0.00000000
vt 0.00000000 0.00000000
vt 0.00000000 0.00000000
vt 0.00000000 0.00000000
vt 0.00000000 0.00000000
vt 0.00000000 0.00000000
vt 0.00000000 0.00000000
vt 0.00000000 0.00000000
vt 0.00000000 0.00000000
vt 0.00000000 0.00000000
vt 0.00000000 0.00000000
vt 0.00000000 0.00000000
vt 0.00000000 0.00000000
vt 0.00000000 0.00000000
vt 0.00000000 0.00000000
vt 0.00000000 0.00000000
vt 0.00000000 0.00000000
vt 0.00000000 0.00000000
vt 0.00000000 0.00000000
vt 0.00000000 0.00000000
vt 0.00000000 0.00000000
vt 0.00000000 0.00000000
vt 0.00000000 0.00000000
vt 0.00000000 0.00000000
vt 0.00000000 0.00000000
vt 0.00000000 0.00000000
vt 0.00000000 0.00000000
vt 0.00000000 0.00000000
vt 0.00000000 0.00000000
vt 0.00000000 0.00000000
vt 0.00000000 0.00000000
vt 0.00000000 0.00000000
vt 0.00000000 0.00000000
vt 0.00000000 0.00000000
vt 0.00000000 0.00000000
vt 0.00000000 0.00000000
vt 0.00000000 0.00000000
vt 0.00000000 0.00000000
vt 0.00000000 0.00000000
vt 0.00000000 0.00000000
vt 0.00000000 0.00000000
vt 0.00000000 0.00000000
vt 0.00000000 0.00000000
vt 0.00000000 0.00000000
vt 0.00000000 0.00000000
vt 0.00000000 0.00000000
vt 0.00000000 0.00000000
vt 0.00000000 0.00000000
vt 0.00000000 0.00000000
vt 0.00000000 0.00000000
vt 0.00000000 0.00000000
vt 0.00000000 0.00000000
vt 0.00000000 0.00000000
vt 0.00000000 0.00000000
vt 0.00000000 0.00000000
vt 0.00000000 0.00000000
vt 0.00000000 0.00000000
vt 0.00000000 0.00000000
vt 0.00000000 0.00000000
f 1/1/1 2/2/2 3/3/3
f 4/4/4 5/5/5 6/6/6
f 7/7/7 8/8/8 9/9/9
f 10/10/10 11/11/11 12/12/12
f 13/13/13 14/14/14 15/15/15
f 16/16/16 17/17/17 18/18/18
f 19/19/19 20/20/20 21/21/21
f 22/22/22 23/23/23 24/24/24
f 25/25/25 26/26/26 27/27/27
f 28/28/28 29/29/29 30/30/30
f 31/31/31 32/32/32 33/33/33
f 34/34/34 35/35/35 36/36/36
f 37/37/37 38/38/38 39/39/39
f 40/40/40 41/41/41 42/42/42
f 43/43/43 44/44/44 45/45/45
f 46/46/46 47/47/47 48/48/48
f 49/49/49 50/50/50 51/51/51
f 52/52/52 53/53/53 54/54/54
f 55/55/55 56/56/56 57/57/57
f 58/58/58 59/59/59 60/60/60
f 61/61/61 62/62/62 63/63/63
f 64/64/64 65/65/65 66/66/66
f 67/67/67 68/68/68 69/69/69
f 70/70/70 71/71/71 72/72/72
f 73/73/73 74/74/74 75/75/75
f 76/76/76 77/77/77 78/78/78
f 79/79/79 80/80/80 81/81/81
f 82/82/82 83/83/83 84/84/84
f 85/85/85 86/86/86 87/87/87
f 88/88/88 89/89/89 90/90/90
f 91/91/91 92/92/92 93/93/93
f 94/94/94 95/95/95 96/96/96
f 97/97/97 98/98/98 99/99/99
f 100/100/100 101/101/101 102/102/102
f 103/103/103 104/104/104 105/105/105
f 106/106/106 107/107/107 108/108/108
f 109/109/109 110/110/110 111/111/111
f 112/112/112 113/113/113 114/114/114
f 115/115/115 116/116/116 117/117/117
f 118/118/118 119/119/119 120/120/120
f 121/121/121 122/122/122 123/123/123
f 124/124/124 125/125/125 126/126/126
f 127/127/127 128/128/128 129/129/129
f 130/130/130 131/131/131 132/132/132
f 133/133/133 134/134/134 135/135/135
f 136/136/136 137/137/137 138/138/138
f 139/139/139 140/140/140 141/141/141
f 142/142/142 143/143/143 144/144/144
f 145/145/145 146/146/146 147/147/147
f 148/148/148 149/149/149 150/150/150
f 151/151/151 152/152/152 153/153/153
f 154/154/154 155/155/155 156/156/156
f 157/157/157 158/158/158 159/159/159
f 160/160/160 161/161/161 159/159/159
f 162/162/162 163/163/163 159/159/159
f 163/163/163 164/164/164 159/159/159
f 158/158/158 160/160/160 159/159/159
f 165/165/165 166/166/166 159/159/159
f 167/167/167 168/168/168 169/169/169
f 170/170/170 171/171/171 169/169/169
f 172/172/172 173/173/173 169/169/169
f 174/174/174 175/175/175 169/169/169
f 159/159/159 169/169/169 168/168/168
f 176/176/176 159/159/159 3/3/3
f 175/175/175 172/172/172 169/169/169
f 171/171/171 167/167/167 169/169/169
f 166/166/166 157/157/157 159/159/159
f 164/164/164 3/3/3 159/159/159
f 1/1/1 177/177/177 178/178/178
f 179/179/179 180/180/180 181/181/181
f 181/181/181 182/182/182 183/183/183
f 183/183/183 184/184/184 185/185/185
f 185/185/185 186/186/186 178/178/178
f 187/187/187 188/188/188 178/178/178
f 189/189/189 190/190/190 191/191/191
f 187/187/187 178/178/178 186/186/186
f 183/183/183 185/185/185 181/181/181
f 179/179/179 181/181/181 185/185/185
f 161/161/161 162/162/162 159/159/159
f 177/177/177 179/179/179 178/178/178
f 185/185/185 178/178/178 179/179/179
f 190/190/190 192/192/192 191/191/191
f 193/193/193 194/194/194 195/195/195
f 189/189/189 191/191/191 178/178/178
f 1/1/1 178/178/178 193/193/193
f 168/168/168 165/165/165 159/159/159
f 169/169/169 173/173/173 170/170/170
f 196/196/196 176/176/176 3/3/3
f 178/178/178 191/191/191 193/193/193
f 193/193/193 195/195/195 197/197/197
f 198/198/198 199/199/199 200/200/200
f 193/193/193 197/197/197 198/198/198
f 196/196/196 3/3/3 201/201/201
f 201/201/201 3/3/3 202/202/202
f 1/1/1 193/193/193 198/198/198
f 198/198/198 200/200/200 1/1/1
f 1/1/1 200/200/200 203/203/203
f 202/202/202 3/3/3 2/2/2
f 1/1/1 203/203/203 2/2/2
f 204/204/204 205/205/205 206/206/206
f 207/207/207 208/208/208 206/206/206
f 209/209/209 210/210/210 206/206/206
f 211/211/211 212/212/212 213/213/213
f 214/214/214 215/215/215 213/213/213
f 216/216/216 217/217/217 213/213/213
f 218/218/218 213/213/213 217/217/217
f 213/213/213 206/206/206 210/210/210
f 215/215/215 216/216/216 213/213/213
f 210/210/210 211/211/211 213/213/213
f 205/205/205 207/207/207 206/206/206
f 219/219/219 220/220/220 206/206/206
f 221/221/221 222/222/222 206/206/206
f 223/223/223 221/221/221 206/206/206
f 220/220/220 204/204/204 206/206/206
f 212/212/212 214/214/214 213/213/213
f 209/209/209 206/206/206 208/208/208
f 222/222/222 219/219/219 206/206/206
f 224/224/224 225/225/225 226/226/226
f 6/6/6 223/223/223 227/227/227
f 206/206/206 228/228/228 223/223/223
f 228/228/228 229/229/229 223/223/223
f 230/230/230 224/224/224 226/226/226
f 223/223/223 229/229/229 231/231/231
f 223/223/223 231/231/231 232/232/232
f 233/233/233 230/230/230 226/226/226
f 234/234/234 235/235/235 233/233/233
f 236/236/236 237/237/237 234/234/234
f 226/226/226 238/238/238 236/236/236
f 225/225/225 239/239/239 226/226/226
f 240/240/240 241/241/241 242/242/242
f 243/243/243 225/225/225 242/242/242
f 226/226/226 236/236/236 233/233/233
f 234/234/234 233/233/233 236/236/236
f 223/223/223 232/232/232 227/227/227
f 6/6/6 227/227/227 244/244/244
f 224/224/224 245/245/245 225/225/225
f 241/241/241 243/243/243 242/242/242
f 242/242/242 225/225/225 5/5/5
f 245/245/245 6/6/6 225/225/225
f 246/246/246 247/247/247 6/6/6
f 6/6/6 244/244/244 246/246/246
f 5/5/5 225/225/225 6/6/6
f 248/248/248 249/249/249 5/5/5
f 4/4/4 250/250/250 5/5/5
f 6/6/6 247/247/247 4/4/4
f 248/248/248 5/5/5 250/250/250
f 7/7/7 251/251/251 8/8/8
f 10/10/10 252/252/252 11/11/11
f 13/13/13 253/253/253 14/14/14
f 16/16/16 254/254/254 17/17/17
f 19/19/19 255/255/255 20/20/20
f 22/22/22 256/256/256 23/23/23
f 25/25/25 257/257/257 26/26/26
f 28/28/28 258/258/258 29/29/29
f 31/31/31 259/259/259 32/32/32
f 34/34/34 260/260/260 35/35/35
f 37/37/37 261/261/261 38/38/38
f 40/40/40 262/262/262 41/41/41
f 43/43/43 263/263/263 44/44/44
f 46/46/46 264/264/264 47/47/47
f 49/49/49 265/265/265 50/50/50
f 52/52/52 266/266/266 53/53/53
f 55/55/55 267/267/267 56/56/56
f 58/58/58 268/268/268 59/59/59
f 61/61/61 269/269/269 62/62/62
f 64/64/64 270/270/270 65/65/65
f 67/67/67 271/271/271 68/68/68
f 70/70/70 272/272/272 71/71/71
f 73/73/73 273/273/273 74/74/74
f 76/76/76 274/274/274 77/77/77
f 79/79/79 275/275/275 80/80/80
f 82/82/82 276/276/276 83/83/83
f 85/85/85 277/277/277 86/86/86
f 88/88/88 278/278/278 89/89/89
f 91/91/91 279/279/279 92/92/92
f 94/94/94 280/280/280 95/95/95
f 97/97/97 281/281/281 98/98/98
f 100/100/100 282/282/282 101/101/101
f 103/103/103 283/283/283 104/104/104
f 106/106/106 284/284/284 107/107/107
f 109/109/109 285/285/285 110/110/110
f 112/112/112 286/286/286 113/113/113
f 115/115/115 287/287/287 116/116/116
f 118/118/118 288/288/288 119/119/119
f 121/121/121 289/289/289 122/122/122
f 124/124/124 290/290/290 125/125/125
f 127/127/127 291/291/291 128/128/128
f 130/130/130 292/292/292 131/131/131
f 133/133/133 293/293/293 134/134/134
f 136/136/136 294/294/294 137/137/137
f 139/139/139 295/295/295 140/140/140
f 142/142/142 296/296/296 143/143/143
f 145/145/145 297/297/297 146/146/146
f 148/148/148 298/298/298 149/149/149
f 151/151/151 299/299/299 152/152/152
f 154/154/154 300/300/300 155/155/155

o part_001
usemtl material_0
v 0.05547137 0.00054438 -0.02426178
v 0.05844695 0.00663712 -0.02426178
v 0.07018034 -0.00663925 -0.02426104
v 0.05593556 -0.00288095 0.02426185
v 0.07018034 -0.00663925 0.02426111
v 0.05553486 -0.00119112 0.02426185
v 0.07196890 0.00445782 -0.02426104
v 0.07095190 0.00586563 0.02426185
v 0.07196890 0.00445783 0.02426111
v 0.07196890 0.00445782 -0.02426104
v 0.07269165 0.00287863 0.02426111
v 0.07269165 0.00287863 -0.02426104
v 0.07269165 0.00287863 -0.02426104
v 0.07309262 0.00118878 0.02426185
v 0.07309262 0.00118878 -0.02426178
v 0.07309262 0.00118878 -0.02426178
v 0.07315598 -0.00054671 0.02426185
v 0.07315598 -0.00054672 -0.02426178
v 0.07315598 -0.00054672 -0.02426178
v 0.07287961 -0.00226118 0.02426185
v 0.07287968 -0.00226126 -0.02426178
v 0.07287968 -0.00226126 -0.02426178
v 0.07227417 -0.00388898 0.02426111
v 0.07227417 -0.00388899 -0.02426104
v 0.07227417 -0.00388899 -0.02426104
v 0.07136270 -0.00536722 0.02426185
v 0.07136270 -0.00536723 -0.02426178
v 0.07136270 -0.00536723 -0.02426178
v 0.07018034 -0.00663925 0.02426111
v 0.07018034 -0.00663925 -0.02426104
v 0.07018034 -0.00663925 -0.02426104
v 0.06877254 -0.00765625 0.02426185
v 0.06877254 -0.00765625 -0.02426178
v 0.06877254 -0.00765625 -0.02426178
v 0.06719347 -0.00837914 0.02426185
v 0.06719347 -0.00837915 -0.02426178
v 0.06719347 -0.00837915 -0.02426178
v 0.06550356 -0.00877990 0.02426185
v 0.06550356 -0.00877991 -0.02426178
v 0.06550356 -0.00877991 -0.02426178
v 0.06376820 -0.00884341 0.02426185
v 0.06376820 -0.00884341 -0.02426178
v 0.06205351 -0.00856724 -0.02426178
v 0.06376820 -0.00884341 0.02426185
v 0.06205351 -0.00856723 0.02426185
v 0.06042578 -0.00796173 -0.02426178
v 0.06205351 -0.00856723 0.02426185
v 0.06042579 -0.00796159 0.02426185
v 0.05894748 -0.00705019 -0.02426103
v 0.06042579 -0.00796159 0.02426185
v 0.05894748 -0.00705018 0.02426111
v 0.05894748 -0.00705019 -0.02426103
v 0.05767545 -0.00586796 0.02426111
v 0.05767545 -0.00586796 -0.02426103
v 0.05767545 -0.00586796 -0.02426103
v 0.05665845 -0.00446015 0.02426185
v 0.05665845 -0.00446016 -0.02426177
v 0.05665845 -0.00446016 -0.02426177
v 0.05593556 -0.00288095 0.02426185
v 0.05593556 -0.00288096 -0.02426178
v 0.05593556 -0.00288096 -0.02426178
v 0.05553486 -0.00119112 0.02426185
v 0.05553487 -0.00119112 -0.02426178
v 0.05553487 -0.00119112 -0.02426178
v 0.05547137 0.00054438 0.02426185
v 0.05547137 0.00054438 -0.02426178
v 0.05547137 0.00054438 -0.02426178
v 0.05574774 0.00225899 0.02426185
v 0.05574774 0.00225899 -0.02426178
v 0.05635310 0.00388659 -0.02426178
v 0.05574774 0.00225899 0.02426185
v 0.05635297 0.00388674 0.02426185
v 0.05635310 0.00388659 -0.02426178
v 0.05726458 0.00536497 0.02426111
v 0.05726459 0.00536496 -0.02426104
v 0.05726459 0.00536496 -0.02426104
v 0.05844695 0.00663713 0.02426185
v 0.05844695 0.00663712 -0.02426178
v 0.05985476 0.00765412 -0.02426104
v 0.05844695 0.00663713 0.02426185
v 0.05985475 0.00765413 0.02426111
v 0.05985476 0.00765412 -0.02426104
v 0.06143375 0.00837696 0.02426111
v 0.06143375 0.00837696 -0.02426104
v 0.06143375 0.00837696 -0.02426104
v 0.06312359 0.00877779 0.02426111
v 0.06312360 0.00877778 -0.02426104
v 0.06312360 0.00877778 -0.02426104
v 0.06485908 0.00884115 0.02426185
v 0.06485908 0.00884115 -0.02426178
v 0.06657370 0.00856491 -0.02426104
v 0.06485908 0.00884115 0.02426185
v 0.06657370 0.00856491 0.02426111
v 0.06657370 0.00856491 -0.02426104
v 0.06820149 0.00795920 0.02426185
v 0.06820163 0.00795932 -0.02426178
v 0.06820163 0.00795932 -0.02426178
v 0.06967988 0.00704799 0.02426185
v 0.06967988 0.00704798 -0.02426178
v 0.06967988 0.00704798 -0.02426178
v 0.07095190 0.00586563 0.02426185
v 0.07095190 0.00586562 -0.02426178
v 0.07095190 0.00586562 -0.02426178
v 0.07196890 0.00445782 -0.02426104
v 0.07269165 0.00287863 -0.02426104
v 0.07309262 0.00118878 -0.02426178
v 0.07315598 -0.00054672 -0.02426178
v 0.07287968 -0.00226126 -0.02426178
v 0.07227417 -0.00388899 -0.02426104
v 0.07136270 -0.00536723 -0.02426178
v 0.06877254 -0.00765625 -0.02426178
v 0.06550356 -0.00877991 -0.02426178
v 0.06719347 -0.00837915 -0.02426178
v 0.06376820 -0.00884341 -0.02426178
v 0.06205351 -0.00856724 -0.02426178
v 0.06042578 -0.00796173 -0.02426178
v 0.05894748 -0.00705019 -0.02426103
v 0.05767545 -0.00586796 -0.02426103
v 0.05665845 -0.00446016 -0.02426177
v 0.05593556 -0.00288096 -0.02426178
v 0.05553487 -0.00119112 -0.02426178
v 0.05574774 0.00225899 -0.02426178
v 0.05635310 0.00388659 -0.02426178
v 0.05726459 0.00536496 -0.02426104
v 0.05985476 0.00765412 -0.02426104
v 0.06485908 0.00884115 -0.02426178
v 0.06143375 0.00837696 -0.02426104
v 0.06312360 0.00877778 -0.02426104
v 0.06657370 0.00856491 -0.02426104
v 0.06820163 0.00795932 -0.02426178
v 0.06967988 0.00704798 -0.02426178
v 0.07269165 0.00287863 0.02426111
v 0.07196890 0.00445783 0.02426111
v 0.06820149 0.00795920 0.02426185
v 0.07095190 0.00586563 0.02426185
v 0.06967988 0.00704799 0.02426185
v 0.06657370 0.00856491 0.02426111
v 0.06485908 0.00884115 0.02426185
v 0.06312359 0.00877779 0.02426111
v 0.06143375 0.00837696 0.02426111
v 0.05985475 0.00765413 0.02426111
v 0.05844695 0.00663713 0.02426185
v 0.05726458 0.00536497 0.02426111
v 0.05574774 0.00225899 0.02426185
v 0.05635297 0.00388674 0.02426185
v 0.05547137 0.00054438 0.02426185
v 0.05665845 -0.00446015 0.02426185
v 0.06042579 -0.00796159 0.02426185
v 0.05767545 -0.00586796 0.02426111
v 0.05894748 -0.00705018 0.02426111
v 0.06205351 -0.00856723 0.02426185
v 0.06376820 -0.00884341 0.02426185
v 0.06550356 -0.00877990 0.02426185
v 0.06719347 -0.00837914 0.02426185
v 0.06877254 -0.00765625 0.02426185
v 0.07136270 -0.00536722 0.02426185
v 0.07227417 -0.00388898 0.02426111
v 0.07287961 -0.00226118 0.02426185
v 0.07315598 -0.00054671 0.02426185
v 0.07309262 0.00118878 0.02426185
v 0.07095190 0.00586562 -0.02426178
v 0.07196890 0.00445783 0.02426111
v 0.07269165 0.00287863 0.02426111
v 0.07309262 0.00118878 0.02426185
v 0.07315598 -0.00054671 0.02426185
v 0.07287961 -0.00226118 0.02426185
v 0.07227417 -0.00388898 0.02426111
v 0.07136270 -0.00536722 0.02426185
v 0.07018034 -0.00663925 0.02426111
v 0.06877254 -0.00765625 0.02426185
v 0.06719347 -0.00837914 0.02426185
v 0.06550356 -0.00877990 0.02426185
v 0.06376820 -0.00884341 -0.02426178
v 0.06205351 -0.00856724 -0.02426178
v 0.06042578 -0.00796173 -0.02426178
v 0.05894748 -0.00705018 0.02426111
v 0.05767545 -0.00586796 0.02426111
v 0.05665845 -0.00446015 0.02426185
v 0.05593556 -0.00288095 0.02426185
v 0.05553486 -0.00119112 0.02426185
v 0.05547137 0.00054438 0.02426185
v 0.05574774 0.00225899 -0.02426178
v 0.05635297 0.00388674 0.02426185
v 0.05726458 0.00536497 0.02426111
v 0.05844695 0.00663712 -0.02426178
v 0.05985475 0.00765413 0.02426111
v 0.06143375 0.00837696 0.02426111
v 0.06312359 0.00877779 0.02426111
v 0.06485908 0.00884115 -0.02426178
v 0.06657370 0.00856491 0.02426111
v 0.06820149 0.00795920 0.02426185
v 0.06967988 0.00704799 0.02426185
vn 0.00005733 -0.00004102 -1.00000000
vn -0.00014070 0.00020119 -0.99999997
vn -0.00014853 0.00015481 -0.99999998
vn 0.00004548 0.00002583 1.00000000
vn -0.00003950 0.00019342 0.99999998
vn 0.00002967 -0.00001094 1.00000000
vn 0.81061082 0.58558526 -0.00000004
vn 0.81061082 0.58558526 -0.00000004
vn 0.81061082 0.58558526 -0.00000004
vn 0.90929235 0.41615793 -0.00000002
vn 0.90929235 0.41615793 -0.00000002
vn 0.90929235 0.41615793 -0.00000002
vn 0.97298500 0.23086833 -0.00000000
vn 0.97298500 0.23086833 -0.00000000
vn 0.97298500 0.23086833 -0.00000000
vn 0.99933422 0.03648461 0.00000002
vn 0.99933422 0.03648461 0.00000002
vn 0.99933422 0.03648461 0.00000002
vn 0.98726260 -0.15909924 0.00000158
vn 0.98725589 -0.15914082 0.00000007
vn 0.98726276 -0.15909824 0.00000162
vn 0.93725267 -0.34865088 0.00000010
vn 0.93726942 -0.34860584 0.00000182
vn 0.93725227 -0.34865196 0.00000006
vn 0.85119817 -0.52484443 0.00000007
vn 0.85119817 -0.52484443 0.00000007
vn 0.85119817 -0.52484443 0.00000007
vn 0.73244974 -0.68082111 0.00000009
vn 0.73244974 -0.68082111 0.00000009
vn 0.73244974 -0.68082111 0.00000009
vn 0.58558669 -0.81060979 0.00000010
vn 0.58558669 -0.81060979 0.00000010
vn 0.58558669 -0.81060979 0.00000010
vn 0.41625336 -0.90924867 0.00000010
vn 0.41625336 -0.90924867 0.00000010
vn 0.41625336 -0.90924867 0.00000010
vn 0.23074818 -0.97301350 0.00000011
vn 0.23074818 -0.97301350 0.00000011
vn 0.23074818 -0.97301350 0.00000011
vn 0.03657075 -0.99933107 0.00000010
vn 0.03657075 -0.99933107 0.00000010
vn 0.03657075 -0.99933107 0.00000010
vn -0.15901361 -0.98727639 0.00000010
vn -0.15901361 -0.98727639 0.00000010
vn -0.15901361 -0.98727639 0.00000010
vn -0.34865277 -0.93725197 0.00000015
vn -0.34872189 -0.93722625 0.00000279
vn -0.34872354 -0.93722563 0.00000286
vn -0.52485703 -0.85119040 0.00000257
vn -0.52479917 -0.85122608 0.00000013
vn -0.52479779 -0.85122693 0.00000008
vn -0.68077677 -0.73249094 0.00000006
vn -0.68077677 -0.73249094 0.00000006
vn -0.68077677 -0.73249094 0.00000006
vn -0.81061057 -0.58558561 0.00000004
vn -0.81061057 -0.58558561 0.00000004
vn -0.81061057 -0.58558561 0.00000004
vn -0.90926343 -0.41622110 0.00000002
vn -0.90926343 -0.41622110 0.00000002
vn -0.90926343 -0.41622110 0.00000002
vn -0.97301969 -0.23072208 0.00000000
vn -0.97301969 -0.23072208 0.00000000
vn -0.97301969 -0.23072208 0.00000000
vn -0.99933136 -0.03656281 -0.00000002
vn -0.99933136 -0.03656281 -0.00000002
vn -0.99933136 -0.03656281 -0.00000002
vn -0.98725696 0.15913421 -0.00000004
vn -0.98725696 0.15913421 -0.00000004
vn -0.98725696 0.15913421 -0.00000004
vn -0.93727145 0.34860038 -0.00000014
vn -0.93730406 0.34851269 -0.00000348
vn -0.93730484 0.34851060 -0.00000356
vn -0.85121628 0.52481506 -0.00000016
vn -0.85116300 0.52490146 -0.00000379
vn -0.85121755 0.52481300 -0.00000007
vn -0.73248468 0.68078351 -0.00000009
vn -0.73248468 0.68078351 -0.00000009
vn -0.73248468 0.68078351 -0.00000009
vn -0.58558563 0.81061055 -0.00000010
vn -0.58558563 0.81061055 -0.00000010
vn -0.58558563 0.81061055 -0.00000010
vn -0.41623984 0.90925486 -0.00000010
vn -0.41623984 0.90925486 -0.00000010
vn -0.41623984 0.90925486 -0.00000010
vn -0.23079387 0.97300267 -0.00000011
vn -0.23079387 0.97300267 -0.00000011
vn -0.23079387 0.97300267 -0.00000011
vn -0.03648600 0.99933416 -0.00000010
vn -0.03648600 0.99933416 -0.00000010
vn -0.03648600 0.99933416 -0.00000010
vn 0.15905601 0.98726956 -0.00000010
vn 0.15905601 0.98726956 -0.00000010
vn 0.15905601 0.98726956 -0.00000010
vn 0.34865834 0.93724989 0.00000334
vn 0.34874601 0.93721728 -0.00000001
vn 0.34865624 0.93725067 0.00000342
vn 0.52478193 0.85123670 0.00000001
vn 0.52469551 0.85128997 0.00000364
vn 0.52478399 0.85123543 -0.00000008
vn 0.68082114 0.73244971 -0.00000006
vn 0.68082114 0.73244971 -0.00000006
vn 0.68082114 0.73244971 -0.00000006
vn 0.00010599 -0.00002339 -0.99999999
vn 0.00198257 0.00090725 -0.99999762
vn 0.00015554 -0.00001509 -0.99999999
vn -0.00217778 -0.00007961 -0.99999763
vn -0.00057919 0.00012016 -0.99999983
vn -0.00216813 0.00035140 -0.99999759
vn 0.00190507 -0.00072324 -0.99999792
vn -0.00083964 0.00031301 -0.99999960
vn -0.00046163 0.00134294 -0.99999899
vn -0.00002874 0.00039720 -0.99999992
vn 0.00000002 -0.00000010 -1.00000000
vn 0.00001597 0.00030481 -0.99999995
vn -0.00000369 -0.00001009 -1.00000000
vn 0.00036280 0.00137930 -0.99999898
vn -0.00021695 -0.00016530 -0.99999996
vn 0.00007354 -0.00003300 -1.00000000
vn 0.00197507 0.00090056 -0.99999764
vn 0.00076497 0.00019569 -0.99999969
vn 0.00040182 0.00002427 -0.99999992
vn 0.00000002 -0.00000010 -1.00000000
vn -0.00011510 0.00008753 -0.99999999
vn -0.00345367 0.00262903 -0.99999058
vn -0.00046504 0.00133809 -0.99999900
vn -0.00000559 0.00024106 -0.99999997
vn -0.00031295 0.00071766 -0.99999969
vn -0.00050317 0.00212130 -0.99999762
vn 0.00110685 0.00419532 -0.99999059
vn 0.00003692 0.00013977 -0.99999999
vn 0.00000002 -0.00000010 -1.00000000
vn -0.00001791 0.00000499 1.00000000
vn 0.00025997 0.00006831 0.99999996
vn 0.00002705 0.00008074 1.00000000
vn -0.00086004 -0.00112974 0.99999899
vn -0.00000002 0.00000010 1.00000000
vn 0.00110919 0.00420375 0.99999055
vn -0.00011317 -0.00029407 0.99999995
vn -0.00050444 0.00212669 0.99999761
vn -0.00008532 0.00020106 0.99999998
vn -0.00091019 0.00198831 0.99999761
vn 0.00019385 -0.00007187 0.99999998
vn -0.00173035 0.00108359 0.99999792
vn 0.00016862 -0.00002497 0.99999999
vn 0.00204618 -0.00076072 0.99999762
vn 0.00001305 0.00001852 1.00000000
vn -0.00009403 -0.00010208 0.99999999
vn -0.00009790 -0.00010533 0.99999999
vn -0.00148510 -0.00159875 0.99999762
vn -0.00148103 -0.00159341 0.99999763
vn 0.00000369 0.00001009 1.00000000
vn 0.00000023 -0.00000304 1.00000000
vn 0.00000020 -0.00000034 1.00000000
vn -0.00000002 0.00000010 1.00000000
vn 0.00013097 0.00035150 0.99999993
vn -0.00345357 0.00262937 0.99999058
vn 0.00101720 -0.00077433 0.99999918
vn -0.00038674 0.00005813 0.99999992
vn -0.00077720 0.00011098 0.99999969
vn -0.00218315 -0.00007960 0.99999761
vn 0.81061082 0.58558526 -0.00000004
vn 0.90929235 0.41615793 -0.00000002
vn 0.97298500 0.23086833 -0.00000000
vn 0.99933422 0.03648461 0.00000002
vn 0.98725573 -0.15914182 0.00000004
vn 0.93726982 -0.34860477 0.00000186
vn 0.85119817 -0.52484443 0.00000007
vn 0.73244974 -0.68082111 0.00000009
vn 0.58558669 -0.81060979 0.00000010
vn 0.41625336 -0.90924867 0.00000010
vn 0.23074818 -0.97301350 0.00000011
vn 0.03657075 -0.99933107 0.00000010
vn -0.15901361 -0.98727639 0.00000010
vn -0.34865112 -0.93725258 0.00000009
vn -0.52485841 -0.85118955 0.00000263
vn -0.68077677 -0.73249094 0.00000006
vn -0.81061057 -0.58558561 0.00000004
vn -0.90926343 -0.41622110 0.00000002
vn -0.97301969 -0.23072208 0.00000000
vn -0.99933136 -0.03656281 -0.00000002
vn -0.98725696 0.15913421 -0.00000004
vn -0.93727067 0.34860247 -0.00000006
vn -0.85116173 0.52490353 -0.00000388
vn -0.73248468 0.68078351 -0.00000009
vn -0.58558563 0.81061055 -0.00000010
vn -0.41623984 0.90925486 -0.00000010
vn -0.23079387 0.97300267 -0.00000011
vn -0.03648600 0.99933416 -0.00000010
vn 0.15905601 0.98726956 -0.00000010
vn 0.34874810 0.93721650 -0.00000009
vn 0.52469345 0.85129124 0.00000373
vn 0.68082114 0.73244971 -0.00000006
vt 0.00000000 0.00000000
vt 0.00000000 0.00000000
vt 0.00000000 0.00000000
vt 0.00000000 0.00000000
vt 0.00000000 0.00000000
vt 0.00000000 0.00000000
vt 0.00000000 0.00000000
vt 0.00000000 0.00000000
vt 0.00000000 0.00000000
vt 0.00000000 0.00000000
vt 0.00000000 0.00000000
vt 0.00000000 0.00000000
vt 0.00000000 0.00000000
vt 0.00000000 0.00000000
vt 0.00000000 0.00000000
vt 0.00000000 0.00000000
vt 0.00000000 0.00000000
vt 0.00000000 0.00000000
vt 0.00000000 0.00000000
vt 0.00000000 0.00000000
vt 0.00000000 0.00000000
vt 0.00000000 0.00000000
vt 0.00000000 0.00000000
vt 0.00000000 0.00000000
vt 0.00000000 0.00000000
vt 0.00000000 0.00000000
vt 0.00000000 0.00000000
vt 0.00000000 0.00000000
vt 0.00000000 0.00000000
vt 0.00000000 0.00000000
vt 0.00000000 0.00000000
vt 0.00000000 0.00000000
vt 0.00000000 0.00000000
vt 0.00000000 0.00000000
vt 0.00000000 0.00000000
vt 0.00000000 0.00000000
vt 0.00000000 0.00000000
vt 0.00000000 0.00000000
vt 0.00000000 0.00000000
vt 0.00000000 0.00000000
vt 0.00000000 0.00000000
vt 0.00000000 0.00000000
vt 0.00000000 0.00000000
vt 0.00000000 0.00000000
vt 0.00000000 0.00000000
vt 0.00000000 0.00000000
vt 0.00000000 0.00000000
vt 0.00000000 0.00000000
vt 0.00000000 0.00000000
vt 0.00000000 0.00000000
vt 0.00000000 0.00000000
vt 0.00000000 0.00000000
vt 0.00000000 0.00000000
vt 0.00000000 0.00000000
vt 0.00000000 0.00000000
vt 0.00000000 0.00000000
vt 0.00000000 0.00000000
vt 0.00000000 0.00000000
vt 0.00000000 0.00000000
vt 0.00000000 0.00000000
vt 0.00000000 0.00000000
vt 0.00000000 0.00000000
vt 0.00000000 0.00000000
vt 0.00000000 0.00000000
vt 0.00000000 0.00000000
vt 0.00000000 0.00000000
vt 0.00000000 0.00000000
vt 0.00000000 0.00000000
vt 0.00000000 0.00000000
vt 0.00000000 0.00000000
vt 0.00000000 0.00000000
vt 0.00000000 0.00000000
vt 0.00000000 0.00000000
vt 0.00000000 0.00000000
vt 0.00000000 0.00000000
vt 0.00000000 0.00000000
vt 0.00000000 0.00000000
vt 0.00000000 0.00000000
vt 0.00000000 0.00000000
vt 0.00000000 0.00000000
vt 0.00000000 0.00000000
vt 0.00000000 0.00000000
vt 0.00000000 0.00000000
vt 0.00000000 0.00000000
vt 0.00000000 0.00000000
vt 0.00000000 0.00000000
vt 0.00000000 0.00000000
vt 0.00000000 0.00000000
vt 0.00000000 0.00000000
vt 0.00000000 0.00000000
vt 0.00000000 0.00000000
vt 0.00000000 0.00000000
vt 0.00000000 0.00000000
vt 0.00000000 0.00000000
vt 0.00000000 0.00000000
vt 0.00000000 0.00000000
vt 0.00000000 0.00000000
vt 0.00000000 0.00000000
vt 0.00000000 0.00000000
vt 0.00000000 0.00000000
vt 0.00000000 0.00000000
vt 0.00000000 0.00000000
vt 0.00000000 0.00000000
vt 0.00000000 0.00000000
vt 0.00000000 0.00000000
vt 0.00000000 0.00000000
vt 0.00000000 0.00000000
vt 0.00000000 0.00000000
vt 0.00000000 0.00000000
vt 0.00000000 0.00000000
vt 0.00000000 0.00000000
vt 0.00000000 0.00000000
vt 0.00000000 0.00000000
vt 0.00000000 0.00000000
vt 0.00000000 0.00000000
vt 0.00000000 0.00000000
vt 0.00000000 0.00000000
vt 0.00000000 0.00000000
vt 0.00000000 0.00000000
vt 0.00000000 0.00000000
vt 0.00000000 0.00000000
vt 0.00000000 0.00000000
vt 0.00000000 0.00000000
vt 0.00000000 0.00000000
vt 0.00000000 0.00000000
vt 0.00000000 0.00000000
vt 0.00000000 0.00000000
vt 0.00000000 0.00000000
vt 0.00000000 0.00000000
vt 0.00000000 0.00000000
vt 0.00000000 0.00000000
vt 0.00000000 0.00000000
vt 0.00000000 0.00000000
vt 0.00000000 0.00000000
vt 0.00000000 0.00000000
vt 0.00000000 0.00000000
vt 0.00000000 0.00000000
vt 0.00000000 0.00000000
vt 0.00000000 0.00000000
vt 0.00000000 0.00000000
vt 0.00000000 0.00000000
vt 0.00000000 0.00000000
vt 0.00000000 0.00000000
vt 0.00000000 0.00000000
vt 0.00000000 0.00000000
vt 0.00000000 0.00000000
vt 0.00000000 0.00000000
vt 0.00000000 0.00000000
vt 0.00000000 0.00000000
vt 0.00000000 0.00000000
vt 0.00000000 0.00000000
vt 0.00000000 0.00000000
vt 0.00000000 0.00000000
vt 0.00000000 0.00000000
vt 0.00000000 0.00000000
vt 0.00000000 0.00000000
vt 0.00000000 0.00000000
vt 0.00000000 0.00000000
vt 0.00000000 0.00000000
vt 0.00000000 0.00000000
vt 0.00000000 0.00000000
vt 0.00000000 0.00000000
vt 0.00000000 0.00000000
vt 0.00000000 0.00000000
vt 0.00000000 0.00000000
vt 0.00000000 0.00000000
vt 0.00000000 0.00000000
vt 0.00000000 0.00000000
vt 0.00000000 0.00000000
vt 0.00000000 0.00000000
vt 0.00000000 0.00000000
vt 0.00000000 0.00000000
vt 0.00000000 0.00000000
vt 0.00000000 0.00000000
vt 0.00000000 0.00000000
vt 0.00000000 0.00000000
vt 0.00000000 0.00000000
vt 0.00000000 0.00000000
vt 0.00000000 0.00000000
vt 0.00000000 0.00000000
vt 0.00000000 0.00000000
vt 0.00000000 0.00000000
vt 0.00000000 0.00000000
vt 0.00000000 0.00000000
vt 0.00000000 0.00000000
vt 0.00000000 0.00000000
vt 0.00000000 0.00000000
vt 0.00000000 0.00000000
vt 0.00000000 0.00000000
vt 0.00000000 0.00000000
vt 0.00000000 0.00000000
vt 0.00000000 0.00000000
f 301/301/301 302/302/302 303/303/303
f 304/304/304 305/305/305 306/306/306
f 307/307/307 308/308/308 309/309/309
f 310/310/310 311/311/311 312/312/312
f 313/313/313 314/314/314 315/315/315
f 316/316/316 317/317/317 318/318/318
f 319/319/319 320/320/320 321/321/321
f 322/322/322 323/323/323 324/324/324
f 325/325/325 326/326/326 327/327/327
f 328/328/328 329/329/329 330/330/330
f 331/331/331 332/332/332 333/333/333
f 334/334/334 335/335/335 336/336/336
f 337/337/337 338/338/338 339/339/339
f 340/340/340 341/341/341 342/342/342
f 343/343/343 344/344/344 345/345/345
f 346/346/346 347/347/347 348/348/348
f 349/349/349 350/350/350 351/351/351
f 352/352/352 353/353/353 354/354/354
f 355/355/355 356/356/356 357/357/357
f 358/358/358 359/359/359 360/360/360
f 361/361/361 362/362/362 363/363/363
f 364/364/364 365/365/365 366/366/366
f 367/367/367 368/368/368 369/369/369
f 370/370/370 371/371/371 372/372/372
f 373/373/373 374/374/374 375/375/375
f 376/376/376 377/377/377 378/378/378
f 379/379/379 380/380/380 381/381/381
f 382/382/382 383/383/383 384/384/384
f 385/385/385 386/386/386 387/387/387
f 388/388/388 389/389/389 390/390/390
f 391/391/391 392/392/392 393/393/393
f 394/394/394 395/395/395 396/396/396
f 397/397/397 398/398/398 399/399/399
f 400/400/400 401/401/401 402/402/402
f 403/403/403 404/404/404 405/405/405
f 405/405/405 406/406/406 407/407/407
f 407/407/407 408/408/408 409/409/409
f 409/409/409 410/410/410 407/407/407
f 303/303/303 411/411/411 412/412/412
f 413/413/413 412/412/412 411/411/411
f 414/414/414 415/415/415 416/416/416
f 416/416/416 417/417/417 414/414/414
f 418/418/418 419/419/419 420/420/420
f 420/420/420 421/421/421 418/418/418
f 301/301/301 422/422/422 302/302/302
f 423/423/423 424/424/424 302/302/302
f 302/302/302 425/425/425 426/426/426
f 427/427/427 428/428/428 426/426/426
f 426/426/426 429/429/429 430/430/430
f 430/430/430 431/431/431 403/403/403
f 403/403/403 405/405/405 303/303/303
f 407/407/407 410/410/410 303/303/303
f 303/303/303 412/412/412 414/414/414
f 414/414/414 417/417/417 418/418/418
f 418/418/418 421/421/421 301/301/301
f 422/422/422 423/423/423 302/302/302
f 425/425/425 427/427/427 426/426/426
f 426/426/426 430/430/430 403/403/403
f 405/405/405 407/407/407 303/303/303
f 303/303/303 414/414/414 418/418/418
f 418/418/418 301/301/301 303/303/303
f 302/302/302 426/426/426 303/303/303
f 403/403/403 303/303/303 426/426/426
f 432/432/432 433/433/433 434/434/434
f 435/435/435 436/436/436 434/434/434
f 434/434/434 437/437/437 438/438/438
f 438/438/438 439/439/439 440/440/440
f 440/440/440 441/441/441 442/442/442
f 442/442/442 443/443/443 444/444/444
f 445/445/445 444/444/444 443/443/443
f 446/446/446 306/306/306 434/434/434
f 304/304/304 447/447/447 448/448/448
f 449/449/449 450/450/450 448/448/448
f 448/448/448 451/451/451 452/452/452
f 452/452/452 453/453/453 448/448/448
f 454/454/454 455/455/455 453/453/453
f 305/305/305 456/456/456 457/457/457
f 457/457/457 458/458/458 305/305/305
f 459/459/459 460/460/460 432/432/432
f 433/433/433 435/435/435 434/434/434
f 434/434/434 438/438/438 440/440/440
f 440/440/440 442/442/442 444/444/444
f 444/444/444 446/446/446 440/440/440
f 447/447/447 449/449/449 448/448/448
f 448/448/448 453/453/453 304/304/304
f 455/455/455 305/305/305 304/304/304
f 458/458/458 459/459/459 432/432/432
f 432/432/432 434/434/434 305/305/305
f 440/440/440 446/446/446 434/434/434
f 304/304/304 453/453/453 455/455/455
f 305/305/305 458/458/458 432/432/432
f 434/434/434 306/306/306 305/305/305
f 307/307/307 461/461/461 308/308/308
f 310/310/310 462/462/462 311/311/311
f 313/313/313 463/463/463 314/314/314
f 316/316/316 464/464/464 317/317/317
f 319/319/319 465/465/465 320/320/320
f 322/322/322 466/466/466 323/323/323
f 325/325/325 467/467/467 326/326/326
f 328/328/328 468/468/468 329/329/329
f 331/331/331 469/469/469 332/332/332
f 334/334/334 470/470/470 335/335/335
f 337/337/337 471/471/471 338/338/338
f 340/340/340 472/472/472 341/341/341
f 343/343/343 473/473/473 344/344/344
f 346/346/346 474/474/474 347/347/347
f 349/349/349 475/475/475 350/350/350
f 352/352/352 476/476/476 353/353/353
f 355/355/355 477/477/477 356/356/356
f 358/358/358 478/478/478 359/359/359
f 361/361/361 479/479/479 362/362/362
f 364/364/364 480/480/480 365/365/365
f 367/367/367 481/481/481 368/368/368
f 370/370/370 482/482/482 371/371/371
f 373/373/373 483/483/483 374/374/374
f 376/376/376 484/484/484 377/377/377
f 379/379/379 485/485/485 380/380/380
f 382/382/382 486/486/486 383/383/383
f 385/385/385 487/487/487 386/386/386
f 388/388/388 488/488/488 389/389/389
f 391/391/391 489/489/489 392/392/392
f 394/394/394 490/490/490 395/395/395
f 397/397/397 491/491/491 398/398/398
f 400/400/400 492/492/492 401/401/401

