# https://github.com/mikedh/trimesh
mtllib FingerTip.mtl

o part_000
usemtl material_0
v -0.00633032 0.00619805 0.02426179
v -0.00886235 -0.00009198 0.02426179
v 0.00885496 0.00008532 0.02426105
v -0.00347567 0.00814723 -0.02426184
v 0.00885495 0.00008532 -0.02426110
v -0.00499895 0.00731314 -0.02426184
v 0.00181157 -0.00867451 0.02426105
v 0.00008500 -0.00886203 -0.02426184
v 0.00181156 -0.00867451 -0.02426110
v 0.00181157 -0.00867451 0.02426105
v 0.00346836 -0.00815369 -0.02426110
v 0.00346837 -0.00815370 0.02426105
v 0.00346837 -0.00815370 0.02426105
v 0.00499184 -0.00731980 -0.02426184
v 0.00499185 -0.00731980 0.02426178
v 0.00499185 -0.00731980 0.02426178
v 0.00632312 -0.00620461 -0.02426184
v 0.00632313 -0.00620462 0.02426178
v 0.00632313 -0.00620462 0.02426178
v 0.00741128 -0.00485121 -0.02426184
v 0.00741139 -0.00485121 0.02426179
v 0.00741139 -0.00485121 0.02426179
v 0.00821471 -0.00331147 -0.02426110
v 0.00821471 -0.00331147 0.02426105
v 0.00821471 -0.00331147 0.02426105
v 0.00870211 -0.00164461 -0.02426184
v 0.00870211 -0.00164461 0.02426179
v 0.00870211 -0.00164461 0.02426179
v 0.00885495 0.00008532 -0.02426110
v 0.00885496 0.00008532 0.02426105
v 0.00885496 0.00008532 0.02426105
v 0.00866744 0.00181188 -0.02426184
v 0.00866744 0.00181188 0.02426179
v 0.00866744 0.00181188 0.02426179
v 0.00814681 0.00346868 -0.02426184
v 0.00814681 0.00346868 0.02426179
v 0.00814681 0.00346868 0.02426179
v 0.00731272 0.00499207 -0.02426184
v 0.00731272 0.00499206 0.02426179
v 0.00731272 0.00499206 0.02426179
v 0.00619773 0.00632335 -0.02426184
v 0.00619774 0.00632334 0.02426179
v 0.00484434 0.00741180 0.02426178
v 0.00619773 0.00632335 -0.02426184
v 0.00484433 0.00741180 -0.02426184
v 0.00330459 0.00821512 0.02426179
v 0.00484433 0.00741180 -0.02426184
v 0.00330449 0.00821502 -0.02426184
v 0.00163763 0.00870252 0.02426104
v 0.00330449 0.00821502 -0.02426184
v 0.00163763 0.00870253 -0.02426111
v 0.00163763 0.00870252 0.02426104
v -0.00009221 0.00885547 -0.02426111
v -0.00009220 0.00885547 0.02426104
v -0.00009220 0.00885547 0.02426104
v -0.00181877 0.00866795 -0.02426185
v -0.00181876 0.00866795 0.02426178
v -0.00181876 0.00866795 0.02426178
v -0.00347567 0.00814723 -0.02426184
v -0.00347566 0.00814722 0.02426179
v -0.00347566 0.00814722 0.02426179
v -0.00499895 0.00731314 -0.02426184
v -0.00499894 0.00731313 0.02426179
v -0.00499894 0.00731313 0.02426179
v -0.00633033 0.00619805 -0.02426184
v -0.00633032 0.00619805 0.02426179
v -0.00633032 0.00619805 0.02426179
v -0.00741859 0.00484455 -0.02426184
v -0.00741858 0.00484455 0.02426179
v -0.00822191 0.00330500 0.02426179
v -0.00741859 0.00484455 -0.02426184
v -0.00822211 0.00330500 -0.02426184
v -0.00822191 0.00330500 0.02426179
v -0.00870941 0.00163805 -0.02426110
v -0.00870940 0.00163804 0.02426105
v -0.00870940 0.00163804 0.02426105
v -0.00886236 -0.00009198 -0.02426184
v -0.00886235 -0.00009198 0.02426179
v -0.00867483 -0.00181855 0.02426105
v -0.00886236 -0.00009198 -0.02426184
v -0.00867483 -0.00181855 -0.02426110
v -0.00867483 -0.00181855 0.02426105
v -0.00815421 -0.00347525 -0.02426110
v -0.00815420 -0.00347525 0.02426105
v -0.00815420 -0.00347525 0.02426105
v -0.00732021 -0.00499863 -0.02426110
v -0.00732021 -0.00499863 0.02426105
v -0.00732021 -0.00499863 0.02426105
v -0.00620504 -0.00632991 -0.02426184
v -0.00620503 -0.00632991 0.02426179
v -0.00485163 -0.00741827 0.02426105
v -0.00620504 -0.00632991 -0.02426184
v -0.00485163 -0.00741827 -0.02426110
v -0.00485163 -0.00741827 0.02426105
v -0.00331169 -0.00822149 -0.02426184
v -0.00331169 -0.00822169 0.02426179
v -0.00331169 -0.00822169 0.02426179
v -0.00164493 -0.00870919 -0.02426184
v -0.00164492 -0.00870919 0.02426179
v -0.00164492 -0.00870919 0.02426179
v 0.00008500 -0.00886203 -0.02426184
v 0.00008501 -0.00886204 0.02426179
v 0.00008501 -0.00886204 0.02426179
v 0.00181157 -0.00867451 0.02426105
v 0.00346837 -0.00815370 0.02426105
v 0.00499185 -0.00731980 0.02426178
v 0.00632313 -0.00620462 0.02426178
v 0.00741139 -0.00485121 0.02426179
v 0.00821471 -0.00331147 0.02426105
v 0.00870211 -0.00164461 0.02426179
v 0.00866744 0.00181188 0.02426179
v 0.00731272 0.00499206 0.02426179
v 0.00814681 0.00346868 0.02426179
v 0.00619774 0.00632334 0.02426179
v 0.00484434 0.00741180 0.02426178
v 0.00330459 0.00821512 0.02426179
v 0.00163763 0.00870252 0.02426104
v -0.00009220 0.00885547 0.02426104
v -0.00181876 0.00866795 0.02426178
v -0.00347566 0.00814722 0.02426179
v -0.00499894 0.00731313 0.02426179
v -0.00741858 0.00484455 0.02426179
v -0.00822191 0.00330500 0.02426179
v -0.00870940 0.00163804 0.02426105
v -0.00867483 -0.00181855 0.02426105
v -0.00620503 -0.00632991 0.02426179
v -0.00815420 -0.00347525 0.02426105
v -0.00732021 -0.00499863 0.02426105
v -0.00485163 -0.00741827 0.02426105
v -0.00331169 -0.00822169 0.02426179
v -0.00164492 -0.00870919 0.02426179
v 0.00346836 -0.00815369 -0.02426110
v 0.00181156 -0.00867451 -0.02426110
v -0.00331169 -0.00822149 -0.02426184
v 0.00008500 -0.00886203 -0.02426184
v -0.00164493 -0.00870919 -0.02426184
v -0.00485163 -0.00741827 -0.02426110
v -0.00620504 -0.00632991 -0.02426184
v -0.00732021 -0.00499863 -0.02426110
v -0.00815421 -0.00347525 -0.02426110
v -0.00867483 -0.00181855 -0.02426110
v -0.00886236 -0.00009198 -0.02426184
v -0.00870941 0.00163805 -0.02426110
v -0.00741859 0.00484455 -0.02426184
v -0.00822211 0.00330500 -0.02426184
v -0.00633033 0.00619805 -0.02426184
v -0.00181877 0.00866795 -0.02426185
v 0.00330449 0.00821502 -0.02426184
v -0.00009221 0.00885547 -0.02426111
v 0.00163763 0.00870253 -0.02426111
v 0.00484433 0.00741180 -0.02426184
v 0.00619773 0.00632335 -0.02426184
v 0.00731272 0.00499207 -0.02426184
v 0.00814681 0.00346868 -0.02426184
v 0.00866744 0.00181188 -0.02426184
v 0.00870211 -0.00164461 -0.02426184
v 0.00821471 -0.00331147 -0.02426110
v 0.00741128 -0.00485121 -0.02426184
v 0.00632312 -0.00620461 -0.02426184
v 0.00499184 -0.00731980 -0.02426184
v 0.00008501 -0.00886204 0.02426179
v 0.00181156 -0.00867451 -0.02426110
v 0.00346836 -0.00815369 -0.02426110
v 0.00499184 -0.00731980 -0.02426184
v 0.00632312 -0.00620461 -0.02426184
v 0.00741128 -0.00485121 -0.02426184
v 0.00821471 -0.00331147 -0.02426110
v 0.00870211 -0.00164461 -0.02426184
v 0.00885495 0.00008532 -0.02426110
v 0.00866744 0.00181188 -0.02426184
v 0.00814681 0.00346868 -0.02426184
v 0.00731272 0.00499207 -0.02426184
v 0.00619774 0.00632334 0.02426179
v 0.00484434 0.00741180 0.02426178
v 0.00330459 0.00821512 0.02426179
v 0.00163763 0.00870253 -0.02426111
v -0.00009221 0.00885547 -0.02426111
v -0.00181877 0.00866795 -0.02426185
v -0.00347567 0.00814723 -0.02426184
v -0.00499895 0.00731314 -0.02426184
v -0.00633033 0.00619805 -0.02426184
v -0.00741858 0.00484455 0.02426179
v -0.00822211 0.00330500 -0.02426184
v -0.00870941 0.00163805 -0.02426110
v -0.00886235 -0.00009198 0.02426179
v -0.00867483 -0.00181855 -0.02426110
v -0.00815421 -0.00347525 -0.02426110
v -0.00732021 -0.00499863 -0.02426110
v -0.00620503 -0.00632991 0.02426179
v -0.00485163 -0.00741827 -0.02426110
v -0.00331169 -0.00822149 -0.02426184
v -0.00164493 -0.00870919 -0.02426184
vn 0.00006891 -0.00001519 1.00000000
vn -0.00024359 -0.00003034 0.99999997
vn -0.00021438 0.00000654 0.99999998
vn 0.00001122 -0.00005099 -1.00000000
vn -0.00017014 -0.00010011 -0.99999998
vn 0.00002794 -0.00001462 -1.00000000
vn 0.10797473 -0.99415364 -0.00000005
vn 0.10797473 -0.99415364 -0.00000005
vn 0.10797473 -0.99415364 -0.00000005
vn 0.29988456 -0.95397550 -0.00000008
vn 0.29988456 -0.95397550 -0.00000008
vn 0.29988456 -0.95397550 -0.00000008
vn 0.48014280 -0.87719034 -0.00000010
vn 0.48014280 -0.87719034 -0.00000010
vn 0.48014280 -0.87719034 -0.00000010
vn 0.64214630 -0.76658211 -0.00000012
vn 0.64214630 -0.76658211 -0.00000012
vn 0.64214630 -0.76658211 -0.00000012
vn 0.77931112 -0.62663720 -0.00000168
vn 0.77933751 -0.62660437 -0.00000017
vn 0.77931049 -0.62663798 -0.00000171
vn 0.88658937 -0.46255734 -0.00000018
vn 0.88656714 -0.46259995 -0.00000190
vn 0.88658990 -0.46255632 -0.00000014
vn 0.95980872 -0.28065498 -0.00000015
vn 0.95980872 -0.28065498 -0.00000015
vn 0.95980872 -0.28065498 -0.00000015
vn 0.99611944 -0.08801166 -0.00000015
vn 0.99611944 -0.08801166 -0.00000015
vn 0.99611944 -0.08801166 -0.00000015
vn 0.99415383 0.10797301 -0.00000014
vn 0.99415383 0.10797301 -0.00000014
vn 0.99415383 0.10797301 -0.00000014
vn 0.95400696 0.29978446 -0.00000013
vn 0.95400696 0.29978446 -0.00000013
vn 0.95400696 0.29978446 -0.00000013
vn 0.87713104 0.48025112 -0.00000011
vn 0.87713104 0.48025112 -0.00000011
vn 0.87713104 0.48025112 -0.00000011
vn 0.76663745 0.64208022 -0.00000009
vn 0.76663745 0.64208022 -0.00000009
vn 0.76663745 0.64208022 -0.00000009
vn 0.62670479 0.77925676 -0.00000006
vn 0.62670479 0.77925676 -0.00000006
vn 0.62670479 0.77925676 -0.00000006
vn 0.46255558 0.88659029 -0.00000010
vn 0.46249019 0.88662440 -0.00000274
vn 0.46248863 0.88662521 -0.00000280
vn 0.28064080 0.95981287 -0.00000250
vn 0.28070604 0.95979379 -0.00000007
vn 0.28070760 0.95979333 -0.00000001
vn 0.08807199 0.99611411 0.00000002
vn 0.08807199 0.99611411 0.00000002
vn 0.08807199 0.99611411 0.00000002
vn -0.10797430 0.99415369 0.00000005
vn -0.10797430 0.99415369 0.00000005
vn -0.10797430 0.99415369 0.00000005
vn -0.29981828 0.95399633 0.00000008
vn -0.29981828 0.95399633 0.00000008
vn -0.29981828 0.95399633 0.00000008
vn -0.48027464 0.87711816 0.00000010
vn -0.48027464 0.87711816 0.00000010
vn -0.48027464 0.87711816 0.00000010
vn -0.64208630 0.76663236 0.00000012
vn -0.64208630 0.76663236 0.00000012
vn -0.64208630 0.76663236 0.00000012
vn -0.77933332 0.62660959 0.00000013
vn -0.77933332 0.62660959 0.00000013
vn -0.77933332 0.62660959 0.00000013
vn -0.88656444 0.46260511 0.00000022
vn -0.88652116 0.46268805 0.00000357
vn -0.88652013 0.46269003 0.00000365
vn -0.95979904 0.28068809 0.00000023
vn -0.95982753 0.28059066 0.00000387
vn -0.95979836 0.28069042 0.00000015
vn -0.99611493 0.08806279 0.00000015
vn -0.99611493 0.08806279 0.00000015
vn -0.99611493 0.08806279 0.00000015
vn -0.99415368 -0.10797431 0.00000014
vn -0.99415368 -0.10797431 0.00000014
vn -0.99415368 -0.10797431 0.00000014
vn -0.95400250 -0.29979865 0.00000013
vn -0.95400250 -0.29979865 0.00000013
vn -0.95400250 -0.29979865 0.00000013
vn -0.87715358 -0.48020994 0.00000011
vn -0.87715358 -0.48020994 0.00000011
vn -0.87715358 -0.48020994 0.00000011
vn -0.76658300 -0.64214523 0.00000009
vn -0.76658300 -0.64214523 0.00000009
vn -0.76658300 -0.64214523 0.00000009
vn -0.62667132 -0.77928368 0.00000006
vn -0.62667132 -0.77928368 0.00000006
vn -0.62667132 -0.77928368 0.00000006
vn -0.46255031 -0.88659304 -0.00000339
vn -0.46246738 -0.88663630 -0.00000004
vn -0.46255229 -0.88659200 -0.00000347
vn -0.28072548 -0.95978810 -0.00000008
vn -0.28082291 -0.95975960 -0.00000371
vn -0.28072316 -0.95978878 0.00000001
vn -0.08801166 -0.99611944 -0.00000002
vn -0.08801166 -0.99611944 -0.00000002
vn -0.08801166 -0.99611944 -0.00000002
vn 0.00008841 -0.00006313 0.99999999
vn 0.00065399 -0.00208000 0.99999762
vn 0.00011542 -0.00010549 0.99999999
vn -0.00139925 0.00167054 0.99999763
vn -0.00047706 0.00034957 0.99999983
vn -0.00171289 0.00137473 0.99999759
vn 0.00181296 -0.00093052 0.99999792
vn -0.00079470 0.00041385 0.99999960
vn -0.00130642 -0.00055661 0.99999899
vn -0.00031417 -0.00024474 0.99999992
vn 0.00000014 -0.00000003 1.00000000
vn -0.00021562 -0.00021607 0.99999995
vn 0.00000507 0.00000942 1.00000000
vn -0.00078131 -0.00119322 0.99999898
vn -0.00002247 0.00027173 0.99999996
vn 0.00007381 -0.00003260 1.00000000
vn 0.00065394 -0.00206995 0.99999764
vn 0.00036702 -0.00069924 0.99999969
vn 0.00025112 -0.00031475 0.99999992
vn 0.00000014 -0.00000003 1.00000000
vn -0.00014203 0.00002677 0.99999999
vn -0.00426526 0.00080413 0.99999058
vn -0.00130510 -0.00055083 0.99999900
vn -0.00018272 -0.00015737 0.99999997
vn -0.00074249 -0.00024828 0.99999969
vn -0.00191228 -0.00104702 0.99999762
vn -0.00237433 -0.00363163 0.99999059
vn -0.00007902 -0.00012111 0.99999999
vn 0.00000014 -0.00000003 1.00000000
vn -0.00001575 0.00001004 -1.00000000
vn 0.00012331 -0.00023872 -0.99999996
vn -0.00004190 -0.00007407 -1.00000000
vn 0.00026298 0.00139536 -0.99999899
vn -0.00000014 0.00000003 -1.00000000
vn -0.00237913 -0.00363884 -0.99999055
vn 0.00014255 0.00028107 -0.99999995
vn -0.00191725 -0.00104951 -0.99999761
vn -0.00020650 -0.00007120 -0.99999998
vn -0.00208620 -0.00065552 -0.99999761
vn 0.00018314 -0.00009575 -0.99999998
vn -0.00196357 0.00055945 -0.99999792
vn 0.00013141 -0.00010842 -0.99999999
vn 0.00193519 -0.00101005 -0.99999762
vn -0.00000507 -0.00002201 -1.00000000
vn 0.00001278 0.00013828 -0.99999999
vn 0.00001261 0.00014333 -0.99999999
vn 0.00019270 0.00217365 -0.99999762
vn 0.00019145 0.00216706 -0.99999763
vn -0.00000507 -0.00000941 -1.00000000
vn 0.00000236 0.00000195 -1.00000000
vn 0.00000033 0.00000017 -1.00000000
vn -0.00000014 0.00000003 -1.00000000
vn -0.00017338 -0.00033257 -0.99999993
vn -0.00426555 0.00080401 -0.99999058
vn 0.00125620 -0.00023677 -0.99999918
vn -0.00030222 0.00024837 -0.99999992
vn -0.00060296 0.00050295 -0.99999969
vn -0.00140296 0.00167469 -0.99999761
vn 0.10797473 -0.99415364 -0.00000005
vn 0.29988456 -0.95397550 -0.00000008
vn 0.48014280 -0.87719034 -0.00000010
vn 0.64214630 -0.76658211 -0.00000012
vn 0.77933814 -0.62660359 -0.00000013
vn 0.88656661 -0.46260096 -0.00000195
vn 0.95980872 -0.28065498 -0.00000015
vn 0.99611944 -0.08801166 -0.00000015
vn 0.99415383 0.10797301 -0.00000014
vn 0.95400696 0.29978446 -0.00000013
vn 0.87713104 0.48025112 -0.00000011
vn 0.76663745 0.64208022 -0.00000009
vn 0.62670479 0.77925676 -0.00000006
vn 0.46255714 0.88658947 -0.00000004
vn 0.28063925 0.95981332 -0.00000256
vn 0.08807199 0.99611411 0.00000002
vn -0.10797430 0.99415369 0.00000005
vn -0.29981828 0.95399633 0.00000008
vn -0.48027464 0.87711816 0.00000010
vn -0.64208630 0.76663236 0.00000012
vn -0.77933332 0.62660959 0.00000013
vn -0.88656547 0.46260314 0.00000014
vn -0.95982821 0.28058834 0.00000395
vn -0.99611493 0.08806279 0.00000015
vn -0.99415368 -0.10797431 0.00000014
vn -0.95400250 -0.29979865 0.00000013
vn -0.87715358 -0.48020994 0.00000011
vn -0.76658300 -0.64214523 0.00000009
vn -0.62667132 -0.77928368 0.00000006
vn -0.46246540 -0.88663733 0.00000004
vn -0.28082524 -0.95975892 -0.00000380
vn -0.08801166 -0.99611944 -0.00000002
vt 0.00000000 0.00000000
vt 0.00000000 0.00000000
vt 0.00000000 0.00000000
vt 0.00000000 0.00000000
vt 0.00000000 0.00000000
vt 0.00000000 0.00000000
vt 0.00000000 0.00000000
vt 0.00000000 0.00000000
vt 0.00000000 0.00000000
vt 0.00000000 0.00000000
vt 0.00000000 0.00000000
vt 0.00000000 0.00000000
vt 0.00000000 0.00000000
vt 0.00000000 0.00000000
vt 0.00000000 0.00000000
vt 0.00000000 0.00000000
vt 0.00000000 0.00000000
vt 0.00000000 0.00000000
vt 0.00000000 0.00000000
vt 0.00000000 0.00000000
vt 0.00000000 0.00000000
vt 0.00000000 0.00000000
vt 0.00000000 0.00000000
vt 0.00000000 0.00000000
vt 0.00000000 0.00000000
vt 0.00000000 0.00000000
vt 0.00000000 0.00000000
vt 0.00000000 0.00000000
vt 0.00000000 0.00000000
vt 0.00000000 0.00000000
vt 0.00000000 0.00000000
vt 0.00000000 0.00000000
vt 0.00000000 0.00000000
vt 0.00000000 0.00000000
vt 0.00000000 0.00000000
vt 0.00000000 0.00000000
vt 0.00000000 0.00000000
vt 0.00000000 0.00000000
vt 0.00000000 0.00000000
vt 0.00000000 0.00000000
vt 0.00000000 0.00000000
vt 0.00000000 0.00000000
vt 0.00000000 0.00000000
vt 0.00000000 0.00000000
vt 0.00000000 0.00000000
vt 0.00000000 0.00000000
vt 0.00000000 0.00000000
vt 0.00000000 0.00000000
vt 0.00000000 0.00000000
vt 0.00000000 0.00000000
vt 0.00000000 0.00000000
vt 0.00000000 0.00000000
vt 0.00000000 0.00000000
vt 0.00000000 0.00000000
vt 0.00000000 0.00000000
vt 0.00000000 0.00000000
vt 0.00000000 0.00000000
vt 0.00000000 0.00000000
vt 0.00000000 0.00000000
vt 0.00000000 0.00000000
vt 0.00000000 0.00000000
vt 0.00000000 0.00000000
vt 0.00000000 0.00000000
vt 0.00000000 0.00000000
vt 0.00000000 0.00000000
vt 0.00000000 0.00000000
vt 0.00000000 0.00000000
vt 0.00000000 0.00000000
vt 0.00000000 0.00000000
vt 0.00000000 0.00000000
vt 0.00000000 0.00000000
vt 0.00000000 0.00000000
vt 0.00000000 0.00000000
vt 0.00000000 0.00000000
vt 0.00000000 0.00000000
vt 0.00000000 0.00000000
vt 0.00000000 0.00000000
vt 0.00000000 0.00000000
vt 0.00000000 0.00000000
vt 0.00000000 0.00000000
vt 0.00000000 0.00000000
vt 0.00000000 0.00000000
vt 0.00000000 0.00000000
vt 0.00000000 0.00000000
vt 0.00000000 0.00000000
vt 0.00000000 0.00000000
vt 0.00000000 0.00000000
vt 0.00000000 0.00000000
vt 0.00000000 0.00000000
vt 0.00000000 0.00000000
vt 0.00000000 0.00000000
vt 0.00000000 0.00000000
vt 0.00000000 0.00000000
vt 0.00000000 0.00000000
vt 0.00000000 0.00000000
vt 0.00000000 0.00000000
vt 0.00000000 0.00000000
vt 0.00000000 0.00000000
vt 0.00000000 0.00000000
vt 0.00000000 0.00000000
vt 0.00000000 0.00000000
vt 0.00000000 0.00000000
vt 0.00000000 0.00000000
vt 0.00000000 0.00000000
vt 0.00000000 0.00000000
vt 0.00000000 0.00000000
vt 0.00000000 0.00000000
vt 0.00000000 0.00000000
vt 0.00000000 0.00000000
vt 0.00000000 0.00000000
vt 0.00000000 0.00000000
vt 0.00000000 0.00000000
vt 0.00000000 0.00000000
vt 0.00000000 0.00000000
vt 0.00000000 0.00000000
vt 0.00000000 0.00000000
vt 0.00000000 0.00000000
vt 0.00000000 0.00000000
vt 0.00000000 0.00000000
vt 0.00000000 0.00000000
vt 0.00000000 0.00000000
vt 0.00000000 0.00000000
vt 0.00000000 0.00000000
vt 0.00000000 0.00000000
vt 0.00000000 0.00000000
vt 0.00000000 0.00000000
vt 0.00000000 0.00000000
vt 0.00000000 0.00000000
vt 0.00000000 0.00000000
vt 0.00000000 0.00000000
vt 0.00000000 0.00000000
vt 0.00000000 0.00000000
vt 0.00000000 0.00000000
vt 0.00000000 0.00000000
vt 0.00000000 0.00000000
vt 0.00000000 0.00000000
vt 0.00000000 0.00000000
vt 0.00000000 0.00000000
vt 0.00000000 0.00000000
vt 0.00000000 0.00000000
vt 0.00000000 0.00000000
vt 0.00000000 0.00000000
vt 0.00000000 0.00000000
vt 0.00000000 0.00000000
vt 0.00000000 0.00000000
vt 0.00000000 0.00000000
vt 0.00000000 0.00000000
vt 0.00000000 0.00000000
vt 0.00000000 0.00000000
vt 0.00000000 0.00000000
vt 0.00000000 0.00000000
vt 0.00000000 0.00000000
vt 0.00000000 0.00000000
vt 0.00000000 0.00000000
vt 0.00000000 0.00000000
vt 0.00000000 0.00000000
vt 0.00000000 0.00000000
vt 0.00000000 0.00000000
vt 0.00000000 0.00000000
vt 0.00000000 0.00000000
vt 0.00000000 0.00000000
vt 0.00000000 0.00000000
vt 0.00000000 0.00000000
vt 0.00000000 0.00000000
vt 0.00000000 0.00000000
vt 0.00000000 0.00000000
vt 0.00000000 0.00000000
vt 0.00000000 0.00000000
vt 0.00000000 0.00000000
vt 0.00000000 0.00000000
vt 0.00000000 0.00000000
vt 0.00000000 0.00000000
vt 0.00000000 0.00000000
vt 0.00000000 0.00000000
vt 0.00000000 0.00000000
vt 0.00000000 0.00000000
vt 0.00000000 0.00000000
vt 0.00000000 0.00000000
vt 0.00000000 0.00000000
vt 0.00000000 0.00000000
vt 0.00000000 0.00000000
vt 0.00000000 0.00000000
vt 0.00000000 0.00000000
vt 0.00000000 0.00000000
vt 0.00000000 0.00000000
vt 0.00000000 0.00000000
vt 0.00000000 0.00000000
vt 0.00000000 0.00000000
vt 0.00000000 0.00000000
vt 0.00000000 0.00000000
vt 0.00000000 0.00000000
vt 0.00000000 0.00000000
f 1/1/1 2/2/2 3/3/3
f 4/4/4 5/5/5 6/6/6
f 7/7/7 8/8/8 9/9/9
f 10/10/10 11/11/11 12/12/12
f 13/13/13 14/14/14 15/15/15
f 16/16/16 17/17/17 18/18/18
f 19/19/19 20/20/20 21/21/21
f 22/22/22 23/23/23 24/24/24
f 25/25/25 26/26/26 27/27/27
f 28/28/28 29/29/29 30/30/30
f 31/31/31 32/32/32 33/33/33
f 34/34/34 35/35/35 36/36/36
f 37/37/37 38/38/38 39/39/39
f 40/40/40 41/41/41 42/42/42
f 43/43/43 44/44/44 45/45/45
f 46/46/46 47/47/47 48/48/48
f 49/49/49 50/50/50 51/51/51
f 52/52/52 53/53/53 54/54/54
f 55/55/55 56/56/56 57/57/57
f 58/58/58 59/59/59 60/60/60
f 61/61/61 62/62/62 63/63/63
f 64/64/64 65/65/65 66/66/66
f 67/67/67 68/68/68 69/69/69
f 70/70/70 71/71/71 72/72/72
f 73/73/73 74/74/74 75/75/75
f 76/76/76 77/77/77 78/78/78
f 79/79/79 80/80/80 81/81/81
f 82/82/82 83/83/83 84/84/84
f 85/85/85 86/86/86 87/87/87
f 88/88/88 89/89/89 90/90/90
f 91/91/91 92/92/92 93/93/93
f 94/94/94 95/95/95 96/96/96
f 97/97/97 98/98/98 99/99/99
f 100/100/100 101/101/101 102/102/102
f 103/103/103 104/104/104 105/105/105
f 105/105/105 106/106/106 107/107/107
f 107/107/107 108/108/108 109/109/109
f 109/109/109 110/110/110 107/107/107
f 3/3/3 111/111/111 112/112/112
f 113/113/113 112/112/112 111/111/111
f 114/114/114 115/115/115 116/116/116
f 116/116/116 117/117/117 114/114/114
f 118/118/118 119/119/119 120/120/120
f 120/120/120 121/121/121 118/118/118
f 1/1/1 122/122/122 2/2/2
f 123/123/123 124/124/124 2/2/2
f 2/2/2 125/125/125 126/126/126
f 127/127/127 128/128/128 126/126/126
f 126/126/126 129/129/129 130/130/130
f 130/130/130 131/131/131 103/103/103
f 103/103/103 105/105/105 3/3/3
f 107/107/107 110/110/110 3/3/3
f 3/3/3 112/112/112 114/114/114
f 114/114/114 117/117/117 118/118/118
f 118/118/118 121/121/121 1/1/1
f 122/122/122 123/123/123 2/2/2
f 125/125/125 127/127/127 126/126/126
f 126/126/126 130/130/130 103/103/103
f 105/105/105 107/107/107 3/3/3
f 3/3/3 114/114/114 118/118/118
f 118/118/118 1/1/1 3/3/3
f 2/2/2 126/126/126 3/3/3
f 103/103/103 3/3/3 126/126/126
f 132/132/132 133/133/133 134/134/134
f 135/135/135 136/136/136 134/134/134
f 134/134/134 137/137/137 138/138/138
f 138/138/138 139/139/139 140/140/140
f 140/140/140 141/141/141 142/142/142
f 142/142/142 143/143/143 144/144/144
f 145/145/145 144/144/144 143/143/143
f 146/146/146 6/6/6 134/134/134
f 4/4/4 147/147/147 148/148/148
f 149/149/149 150/150/150 148/148/148
f 148/148/148 151/151/151 152/152/152
f 152/152/152 153/153/153 148/148/148
f 154/154/154 155/155/155 153/153/153
f 5/5/5 156/156/156 157/157/157
f 157/157/157 158/158/158 5/5/5
f 159/159/159 160/160/160 132/132/132
f 133/133/133 135/135/135 134/134/134
f 134/134/134 138/138/138 140/140/140
f 140/140/140 142/142/142 144/144/144
f 144/144/144 146/146/146 140/140/140
f 147/147/147 149/149/149 148/148/148
f 148/148/148 153/153/153 4/4/4
f 155/155/155 5/5/5 4/4/4
f 158/158/158 159/159/159 132/132/132
f 132/132/132 134/134/134 5/5/5
f 140/140/140 146/146/146 134/134/134
f 4/4/4 153/153/153 155/155/155
f 5/5/5 158/158/158 132/132/132
f 134/134/134 6/6/6 5/5/5
f 7/7/7 161/161/161 8/8/8
f 10/10/10 162/162/162 11/11/11
f 13/13/13 163/163/163 14/14/14
f 16/16/16 164/164/164 17/17/17
f 19/19/19 165/165/165 20/20/20
f 22/22/22 166/166/166 23/23/23
f 25/25/25 167/167/167 26/26/26
f 28/28/28 168/168/168 29/29/29
f 31/31/31 169/169/169 32/32/32
f 34/34/34 170/170/170 35/35/35
f 37/37/37 171/171/171 38/38/38
f 40/40/40 172/172/172 41/41/41
f 43/43/43 173/173/173 44/44/44
f 46/46/46 174/174/174 47/47/47
f 49/49/49 175/175/175 50/50/50
f 52/52/52 176/176/176 53/53/53
f 55/55/55 177/177/177 56/56/56
f 58/58/58 178/178/178 59/59/59
f 61/61/61 179/179/179 62/62/62
f 64/64/64 180/180/180 65/65/65
f 67/67/67 181/181/181 68/68/68
f 70/70/70 182/182/182 71/71/71
f 73/73/73 183/183/183 74/74/74
f 76/76/76 184/184/184 77/77/77
f 79/79/79 185/185/185 80/80/80
f 82/82/82 186/186/186 83/83/83
f 85/85/85 187/187/187 86/86/86
f 88/88/88 188/188/188 89/89/89
f 91/91/91 189/189/189 92/92/92
f 94/94/94 190/190/190 95/95/95
f 97/97/97 191/191/191 98/98/98
f 100/100/100 192/192/192 101/101/101

o part_001
usemtl material_1
v 0.02048439 -0.01252890 -0.00455089
v 0.02034993 0.01745787 -0.03150001
v 0.02035013 0.01745806 -0.00455088
v 0.02035013 0.01745806 -0.00455088
v 0.02076211 0.01958245 -0.03150001
v 0.02076211 0.01958245 -0.00455087
v 0.02076211 0.01958245 -0.00455087
v 0.02195503 0.02138689 -0.03150001
v 0.02195503 0.02138688 -0.00455087
v 0.02195503 0.02138689 -0.03150001
v 0.02374656 0.02259752 -0.00455087
v 0.02195503 0.02138688 -0.00455087
v 0.02438949 0.02272868 -0.03149999
v 0.02586476 0.02302921 -0.03121203
v 0.02586476 0.02302921 -0.00455087
v 0.02034993 0.01745787 -0.03150001
v 0.01067778 0.03634487 -0.03150001
v 0.02076211 0.01958245 -0.03150001
v 0.02407586 0.03726856 0.00008906
v 0.02236950 0.03632765 -0.03149999
v 0.02236932 0.03632785 0.00008905
v 0.08971955 0.03588554 -0.01874537
v 0.08786495 0.03717461 0.00008908
v 0.08971955 0.03588553 0.00008909
v 0.04981392 0.02734906 -0.02653676
v 0.04022865 0.02736311 0.00008906
v 0.04981385 0.02734906 0.00008907
v 0.04981785 0.02999619 -0.02653366
v 0.04981385 0.02734906 0.00008907
v 0.04981785 0.02999629 0.00008907
v 0.05064392 0.02999491 -0.02637253
v 0.04981785 0.02999629 0.00008907
v 0.05064392 0.02999491 0.00008907
v 0.05779046 0.03721887 -0.02497221
v 0.05064392 0.02999491 0.00008907
v 0.05779046 0.03721887 0.00008907
v 0.08786495 0.03717461 -0.01910594
v 0.05779046 0.03721887 0.00008907
v 0.08786495 0.03717461 0.00008908
v 0.08942536 0.03031052 0.00008908
v 0.08971955 0.03588554 -0.01874537
v 0.08971955 0.03588553 0.00008909
v 0.02011316 -0.01275947 0.00008904
v 0.07808656 0.02326475 -0.00455080
v 0.08942536 0.03031052 0.00008908
v 0.02432451 0.03726812 -0.03149999
v 0.02407586 0.03726856 -0.03149999
v 0.02407586 0.03726856 0.00008906
v 0.03948910 0.02992878 -0.02854845
v 0.03185652 0.03725710 0.00008906
v 0.03948910 0.02992868 0.00008906
v 0.04023293 0.02992753 -0.02840338
v 0.03948910 0.02992868 0.00008906
v 0.04023293 0.02992753 0.00008906
v 0.04022865 0.02736311 0.00008906
v 0.04023293 0.02992753 -0.02840338
v 0.04023293 0.02992753 0.00008906
v 0.01067778 0.03634487 -0.03150001
v 0.01067779 0.03634487 -0.02266018
v 0.01359811 0.03634065 -0.01546428
v 0.02035013 0.01745806 -0.00455088
v 0.02195503 0.02138688 -0.00455087
v 0.02586476 0.02302921 -0.00455087
v -0.01232666 0.02988765 -0.02266021
v -0.01204007 0.03067723 -0.02266019
v -0.01233048 0.02746558 -0.02266021
v 0.01067778 0.03634487 -0.03150001
v 0.01089867 -0.01295806 -0.02266020
v 0.01067779 0.03634487 -0.02266018
v -0.00868518 0.03465139 -0.01546431
v -0.00686274 0.03576774 -0.02266019
v -0.00868518 0.03465139 -0.02266019
v -0.00245695 -0.01292136 -0.01546432
v 0.00020865 -0.01318838 -0.02266021
v 0.00020865 -0.01318838 -0.01546432
v -0.01232685 0.02988758 -0.01546431
v -0.01217076 -0.00497085 -0.01546433
v 0.01359811 0.03634065 -0.01546428
v -0.01204007 0.03067744 -0.01546431
v -0.01115372 0.03218619 -0.02266021
v -0.01204007 0.03067723 -0.02266019
v -0.00868518 0.03465139 -0.01546431
v -0.01002258 0.03352286 -0.02266019
v -0.01002258 0.03352286 -0.01546431
v -0.00738040 -0.01087103 -0.01546433
v -0.00501954 -0.01213900 -0.02266021
v -0.00501954 -0.01213900 -0.01546432
v -0.00944902 -0.00916631 -0.01546433
v -0.00738059 -0.01087103 -0.02266021
v -0.00738040 -0.01087103 -0.01546433
v -0.00501954 -0.01213900 -0.01546432
v -0.00245695 -0.01292136 -0.02266021
v -0.00245695 -0.01292136 -0.01546432
v -0.00686274 0.03576774 -0.01546430
v -0.00499923 0.03625886 -0.02266019
v -0.00686274 0.03576774 -0.02266019
v 0.01381890 -0.01289505 -0.01546431
v 0.01089867 -0.01295806 -0.03150001
v 0.02011315 -0.01275947 -0.03150001
v -0.01114549 -0.00709032 -0.01546433
v -0.00944902 -0.00916631 -0.02266021
v -0.00944902 -0.00916631 -0.01546433
v -0.01002258 0.03352286 -0.01546431
v -0.01115372 0.03218619 -0.02266021
v -0.01115372 0.03218619 -0.01546430
v -0.00499923 0.03625886 -0.01546430
v -0.00379278 0.03636627 -0.02266019
v -0.00499923 0.03625886 -0.02266019
v 0.07808655 0.02326475 -0.02102552
v 0.02586476 0.02302921 -0.00455087
v 0.02586476 0.02302921 -0.03121203
v 0.04981392 0.02734906 -0.02653676
v 0.05779046 0.03721887 -0.02497221
v 0.07808655 0.02326475 -0.02102552
v -0.01204007 0.03067723 -0.02266019
v -0.01232685 0.02988758 -0.01546431
v -0.01204007 0.03067744 -0.01546431
v -0.01232666 0.02988765 -0.02266021
v -0.01217076 -0.00497085 -0.01546433
v -0.01232685 0.02988758 -0.01546431
v -0.01114549 -0.00709032 -0.01546433
v -0.01217057 -0.00497095 -0.02266023
v -0.01114549 -0.00709032 -0.02266021
v 0.01381890 -0.01289505 -0.01546431
v 0.01359811 0.03634065 0.00008905
v 0.01359811 0.03634065 -0.01546428
v 0.02034994 0.01745786 0.03149995
v 0.02048439 -0.01252890 0.00455083
v 0.02035013 0.01745806 0.00455081
v 0.02035013 0.01745806 0.00455081
v 0.02076212 0.01958245 0.03149995
v 0.02034994 0.01745786 0.03149995
v 0.02076211 0.01958245 0.00455081
v 0.02195503 0.02138688 0.03149995
v 0.02076212 0.01958245 0.03149995
v 0.02374656 0.02259752 0.00455080
v 0.02195503 0.02138688 0.03149995
v 0.02195503 0.02138688 0.00455080
v 0.02586476 0.02302921 0.00455080
v 0.02438969 0.02272868 0.03149994
v 0.02374656 0.02259752 0.00455080
v 0.02034994 0.01745786 0.03149995
v 0.02076212 0.01958245 0.03149995
v 0.01067779 0.03634487 0.03149996
v 0.02407586 0.03726856 -0.00008911
v 0.02236951 0.03632765 0.03149994
v 0.02407587 0.03726856 0.03149994
v 0.08786495 0.03717461 -0.00008915
v 0.08971955 0.03588553 0.01874533
v 0.08971955 0.03588553 -0.00008915
v 0.04022865 0.02736311 -0.00008912
v 0.04981393 0.02734905 0.02653669
v 0.04981385 0.02734906 -0.00008912
v 0.04981385 0.02734906 -0.00008912
v 0.04981786 0.02999619 0.02653360
v 0.04981785 0.02999629 -0.00008912
v 0.04981785 0.02999629 -0.00008912
v 0.05064392 0.02999491 0.02637247
v 0.05064392 0.02999491 -0.00008912
v 0.05064392 0.02999491 -0.00008912
v 0.05779047 0.03721887 0.02497218
v 0.05779046 0.03721887 -0.00008913
v 0.05779046 0.03721887 -0.00008913
v 0.08786495 0.03717461 0.01910588
v 0.08786495 0.03717461 -0.00008915
v 0.08942536 0.03031052 -0.00008914
v 0.08971955 0.03588553 0.01874533
v 0.08942537 0.03031052 0.01880754
v 0.02011316 -0.01275947 -0.00008909
v 0.07808656 0.02326475 0.00455074
v 0.02048439 -0.01252890 0.00455083
v 0.02407586 0.03726856 -0.00008911
v 0.02432452 0.03726812 0.03149994
v 0.03185652 0.03725710 -0.00008911
v 0.03185652 0.03725710 -0.00008911
v 0.03948910 0.02992878 0.02854839
v 0.03948910 0.02992868 -0.00008912
v 0.03948910 0.02992868 -0.00008912
v 0.04023294 0.02992753 0.02840332
v 0.04023293 0.02992753 -0.00008912
v 0.04022865 0.02736311 -0.00008912
v 0.04023294 0.02992753 0.02840332
v 0.04022885 0.02736303 0.02840632
v 0.01359811 0.03634065 0.01546423
v 0.01067779 0.03634487 0.03149996
v 0.02236951 0.03632765 0.03149994
v 0.02586476 0.02302921 0.00455080
v 0.02195503 0.02138688 0.00455080
v 0.02035013 0.01745806 0.00455081
v -0.01216354 -0.00026485 0.02266017
v 0.01089867 -0.01295806 0.02266016
v 0.01067779 0.03634487 0.02266013
v 0.01089867 -0.01295806 0.02266016
v 0.01067779 0.03634487 0.03149996
v 0.01067779 0.03634487 0.02266013
v -0.00868517 0.03465139 0.01546426
v -0.00686273 0.03576774 0.02266015
v -0.00686273 0.03576774 0.01546426
v 0.00020865 -0.01318838 0.02266016
v -0.00245694 -0.01292137 0.01546427
v 0.00020865 -0.01318838 0.01546427
v -0.01217076 -0.00497085 0.01546427
v -0.01232684 0.02988758 0.01546426
v 0.01359811 0.03634065 0.01546423
v -0.01204006 0.03067743 0.01546426
v -0.01115371 0.03218619 0.02266015
v -0.01115371 0.03218619 0.01546426
v -0.01002257 0.03352286 0.02266015
v -0.00868517 0.03465139 0.01546426
v -0.01002257 0.03352286 0.01546426
v -0.00501954 -0.01213900 0.02266016
v -0.00738039 -0.01087104 0.01546428
v -0.00501954 -0.01213900 0.01546427
v -0.00738039 -0.01087104 0.02266016
v -0.00944902 -0.00916631 0.01546428
v -0.00738039 -0.01087104 0.01546428
v -0.00245694 -0.01292137 0.02266016
v -0.00501954 -0.01213900 0.01546427
v -0.00245694 -0.01292137 0.01546427
v -0.00686273 0.03576774 0.01546426
v -0.00499904 0.03625876 0.02266015
v -0.00499904 0.03625876 0.01546425
v 0.01089868 -0.01295806 0.03149997
v 0.01089867 -0.01295806 0.02266016
v 0.01381890 -0.01289515 0.01546426
v -0.00944901 -0.00916631 0.02266016
v -0.01114548 -0.00709033 0.01546428
v -0.00944902 -0.00916631 0.01546428
v -0.01115371 0.03218619 0.02266015
v -0.01002257 0.03352286 0.01546426
v -0.01115371 0.03218619 0.01546426
v -0.00499904 0.03625876 0.01546425
v -0.00379267 0.03636627 0.02266015
v -0.00379267 0.03636627 0.01546424
v 0.07808656 0.02326475 0.02102548
v 0.02586476 0.02302921 0.00455080
v 0.07808656 0.02326475 0.00455074
v 0.05779047 0.03721887 0.02497218
v 0.05064392 0.02999491 0.02637247
v 0.04981393 0.02734905 0.02653669
v -0.01204007 0.03067723 0.02266015
v -0.01232684 0.02988758 0.01546426
v -0.01232665 0.02988765 0.02266015
v -0.01217076 -0.00497085 0.01546427
v -0.01232665 0.02988765 0.02266015
v -0.01232684 0.02988758 0.01546426
v -0.01217056 -0.00497095 0.02266018
v -0.01114548 -0.00709033 0.01546428
v -0.01114548 -0.00709033 0.02266017
v 0.01359811 0.03634065 0.01546423
v 0.01381890 -0.01289515 -0.00008909
v 0.01381890 -0.01289515 0.01546426
v 0.02048438 -0.01252889 -0.03150001
v 0.02034993 0.01745787 -0.03150001
v 0.02076211 0.01958245 -0.03150001
v 0.02374665 0.02259742 -0.03149999
v 0.02374656 0.02259752 -0.00455087
v 0.02374665 0.02259742 -0.03149999
v 0.02236950 0.03632765 -0.03149999
v 0.02407586 0.03726856 -0.03149999
v 0.02432451 0.03726812 -0.03149999
v 0.02438949 0.02272868 -0.03149999
v 0.02374665 0.02259742 -0.03149999
v 0.01089867 -0.01295806 -0.03150001
v 0.02195503 0.02138689 -0.03150001
v 0.02048438 -0.01252889 -0.03150001
v 0.02011315 -0.01275947 -0.03150001
v 0.02407586 0.03726856 -0.03149999
v 0.08786495 0.03717461 -0.01910594
v 0.04022885 0.02736304 -0.02840636
v 0.04981392 0.02734906 -0.02653676
v 0.04981785 0.02999619 -0.02653366
v 0.05064392 0.02999491 -0.02637253
v 0.05779046 0.03721887 -0.02497221
v 0.08942536 0.03031052 -0.01880760
v 0.02011315 -0.01275947 -0.03150001
v 0.02048439 -0.01252890 -0.00455089
v 0.02048438 -0.01252889 -0.03150001
v 0.07808655 0.02326475 -0.02102552
v 0.08942536 0.03031052 -0.01880760
v 0.03185652 0.03725710 0.00008906
v 0.03185651 0.03725710 -0.03003082
v 0.03185651 0.03725710 -0.03003082
v 0.03948910 0.02992878 -0.02854845
v 0.04022885 0.02736304 -0.02840636
v 0.01359811 0.03634065 0.00008905
v 0.02236932 0.03632785 0.00008905
v 0.02236950 0.03632765 -0.03149999
v -0.00379278 0.03636627 -0.02266019
v -0.00379277 0.03636627 -0.01546429
v 0.07808656 0.02326475 -0.00455080
v 0.02048439 -0.01252890 -0.00455089
v 0.02076211 0.01958245 -0.00455087
v 0.02374656 0.02259752 -0.00455087
v 0.01067779 0.03634487 -0.02266018
v 0.01089867 -0.01295806 -0.02266020
v -0.01216355 -0.00026485 -0.02266021
v 0.00020865 -0.01318838 -0.02266021
v -0.00245695 -0.01292136 -0.02266021
v -0.00501954 -0.01213900 -0.02266021
v -0.00738059 -0.01087103 -0.02266021
v -0.00944902 -0.00916631 -0.02266021
v -0.01114549 -0.00709032 -0.02266021
v -0.01217057 -0.00497095 -0.02266023
v -0.00379278 0.03636627 -0.02266019
v -0.00686274 0.03576774 -0.02266019
v -0.00499923 0.03625886 -0.02266019
v -0.00868518 0.03465139 -0.02266019
v -0.01002258 0.03352286 -0.02266019
v -0.01115372 0.03218619 -0.02266021
v 0.01089867 -0.01295806 -0.03150001
v -0.00686274 0.03576774 -0.01546430
v -0.00245695 -0.01292136 -0.02266021
v 0.01381890 -0.01289505 -0.01546431
v -0.00379277 0.03636627 -0.01546429
v -0.00499923 0.03625886 -0.01546430
v -0.00868518 0.03465139 -0.01546431
v -0.00686274 0.03576774 -0.01546430
v -0.01002258 0.03352286 -0.01546431
v -0.01115372 0.03218619 -0.01546430
v -0.01204007 0.03067744 -0.01546431
v -0.01114549 -0.00709032 -0.01546433
v -0.00944902 -0.00916631 -0.01546433
v -0.00738040 -0.01087103 -0.01546433
v -0.00501954 -0.01213900 -0.01546432
v -0.00245695 -0.01292136 -0.01546432
v 0.00020865 -0.01318838 -0.01546432
v -0.01115372 0.03218619 -0.01546430
v -0.00868518 0.03465139 -0.02266019
v -0.00738059 -0.01087103 -0.02266021
v -0.00944902 -0.00916631 -0.02266021
v -0.00501954 -0.01213900 -0.02266021
v -0.00499923 0.03625886 -0.01546430
v 0.02011316 -0.01275947 0.00008904
v 0.01381890 -0.01289515 0.00008904
v 0.00020865 -0.01318838 -0.01546432
v 0.01089867 -0.01295806 -0.02266020
v 0.00020865 -0.01318838 -0.02266021
v -0.01114549 -0.00709032 -0.02266021
v -0.01002258 0.03352286 -0.02266019
v -0.00379277 0.03636627 -0.01546429
v 0.07808656 0.02326475 -0.00455080
v 0.02438949 0.02272868 -0.03149999
v 0.02432451 0.03726812 -0.03149999
v 0.02586476 0.02302921 -0.03121203
v 0.03948910 0.02992878 -0.02854845
v 0.04023293 0.02992753 -0.02840338
v 0.04022885 0.02736304 -0.02840636
v 0.03185651 0.03725710 -0.03003082
v 0.08942536 0.03031052 -0.01880760
v 0.08786495 0.03717461 -0.01910594
v 0.08971955 0.03588554 -0.01874537
v 0.05064392 0.02999491 -0.02637253
v 0.04981785 0.02999619 -0.02653366
v -0.01232666 0.02988765 -0.02266021
v -0.01217057 -0.00497095 -0.02266023
v -0.01217076 -0.00497085 -0.01546433
v 0.01381890 -0.01289515 0.00008904
v 0.02048439 -0.01252890 0.03149995
v 0.02076211 0.01958245 0.00455081
v 0.02195503 0.02138688 0.00455080
v 0.02374666 0.02259742 0.03149994
v 0.02374666 0.02259742 0.03149994
v 0.02586477 0.02302921 0.03121198
v 0.02432452 0.03726812 0.03149994
v 0.02407587 0.03726856 0.03149994
v 0.02236951 0.03632765 0.03149994
v 0.02195503 0.02138688 0.03149995
v 0.01089868 -0.01295806 0.03149997
v 0.02011316 -0.01275947 0.03149995
v 0.02048439 -0.01252890 0.03149995
v 0.02438969 0.02272868 0.03149994
v 0.02374666 0.02259742 0.03149994
v 0.02236932 0.03632785 -0.00008911
v 0.08786495 0.03717461 0.01910588
v 0.04022885 0.02736303 0.02840632
v 0.04981393 0.02734905 0.02653669
v 0.04981786 0.02999619 0.02653360
v 0.05064392 0.02999491 0.02637247
v 0.05779047 0.03721887 0.02497218
v 0.08971955 0.03588553 -0.00008915
v 0.08942536 0.03031052 -0.00008914
v 0.08942537 0.03031052 0.01880754
v 0.07808656 0.02326475 0.02102548
v 0.02048439 -0.01252890 0.03149995
v 0.02011316 -0.01275947 0.03149995
v 0.03185652 0.03725709 0.03003077
v 0.02407587 0.03726856 0.03149994
v 0.03185652 0.03725709 0.03003077
v 0.03948910 0.02992878 0.02854839
v 0.04023293 0.02992753 -0.00008912
v 0.02236932 0.03632785 -0.00008911
v -0.00379267 0.03636627 0.01546424
v 0.01067779 0.03634487 0.02266013
v 0.01359811 0.03634065 -0.00008910
v -0.00379267 0.03636627 0.02266015
v 0.02048439 -0.01252890 0.00455083
v 0.07808656 0.02326475 0.00455074
v 0.02374656 0.02259752 0.00455080
v 0.02076211 0.01958245 0.00455081
v 0.00020865 -0.01318838 0.02266016
v -0.00379267 0.03636627 0.02266015
v -0.01233047 0.02746558 0.02266015
v -0.00499904 0.03625876 0.02266015
v -0.00686273 0.03576774 0.02266015
v -0.00868517 0.03465139 0.02266015
v -0.01002257 0.03352286 0.02266015
v -0.01115371 0.03218619 0.02266015
v -0.01204007 0.03067723 0.02266015
v -0.01232665 0.02988765 0.02266015
v -0.01217056 -0.00497095 0.02266018
v -0.01114548 -0.00709033 0.02266017
v -0.00944901 -0.00916631 0.02266016
v -0.00738039 -0.01087104 0.02266016
v -0.00501954 -0.01213900 0.02266016
v -0.00245694 -0.01292137 0.02266016
v 0.01089868 -0.01295806 0.03149997
v -0.00868517 0.03465139 0.02266015
v -0.00245694 -0.01292137 0.02266016
v -0.00379267 0.03636627 0.01546424
v 0.01381890 -0.01289515 0.01546426
v 0.00020865 -0.01318838 0.01546427
v -0.00245694 -0.01292137 0.01546427
v -0.00501954 -0.01213900 0.01546427
v -0.00738039 -0.01087104 0.01546428
v -0.00944902 -0.00916631 0.01546428
v -0.01114548 -0.00709033 0.01546428
v -0.01204006 0.03067743 0.01546426
v -0.01115371 0.03218619 0.01546426
v -0.01002257 0.03352286 0.01546426
v -0.00868517 0.03465139 0.01546426
v -0.00686273 0.03576774 0.01546426
v -0.00499904 0.03625876 0.01546425
v -0.01204007 0.03067723 0.02266015
v -0.00868517 0.03465139 0.02266015
v -0.00738039 -0.01087104 0.02266016
v -0.00944901 -0.00916631 0.02266016
v -0.00501954 -0.01213900 0.02266016
v -0.00686273 0.03576774 0.02266015
v 0.01381890 -0.01289515 -0.00008909
v 0.02011316 -0.01275947 -0.00008909
v 0.02011316 -0.01275947 0.03149995
v 0.00020865 -0.01318838 0.02266016
v 0.00020865 -0.01318838 0.01546427
v -0.01114548 -0.00709033 0.02266017
v -0.01002257 0.03352286 0.02266015
v -0.00499904 0.03625876 0.02266015
v 0.02586477 0.02302921 0.03121198
v 0.03185652 0.03725709 0.03003077
v 0.02432452 0.03726812 0.03149994
v 0.02586477 0.02302921 0.03121198
v 0.07808656 0.02326475 0.02102548
v 0.02438969 0.02272868 0.03149994
v 0.04022885 0.02736303 0.02840632
v 0.04023294 0.02992753 0.02840332
v 0.03948910 0.02992878 0.02854839
v 0.08942537 0.03031052 0.01880754
v 0.08971955 0.03588553 0.01874533
v 0.08786495 0.03717461 0.01910588
v 0.04981786 0.02999619 0.02653360
v -0.01204006 0.03067743 0.01546426
v -0.01217056 -0.00497095 0.02266018
v -0.01217076 -0.00497085 0.01546427
v 0.01359811 0.03634065 -0.00008910
vn 0.99998996 0.00448057 -0.00000350
vn 0.99998996 0.00448013 -0.00000399
vn 0.99998998 0.00447712 -0.00000734
vn 0.98170920 -0.19038658 -0.00000044
vn 0.98169711 -0.19044893 -0.00000554
vn 0.98170989 -0.19038304 -0.00000015
vn 0.83418644 -0.55148254 -0.00000014
vn 0.83418644 -0.55148254 -0.00000014
vn 0.83418644 -0.55148254 -0.00000014
vn 0.55985338 -0.82859169 0.00000458
vn 0.55989923 -0.82856071 0.00000014
vn 0.55990183 -0.82855896 -0.00000011
vn 0.19984918 -0.97982667 0.00000200
vn 0.19960813 -0.97987581 -0.00000006
vn 0.19969206 -0.97985871 -0.00000485
vn -0.00000014 0.00000003 -1.00000000
vn 0.00000074 0.00000070 -1.00000000
vn -0.00000014 0.00000003 -1.00000000
vn -0.48275300 0.87575655 -0.00000815
vn -0.48286533 0.87569462 -0.00000024
vn -0.48274822 0.87575919 -0.00000849
vn 0.57074003 0.82113081 -0.00000005
vn 0.57074003 0.82113081 -0.00000005
vn 0.57074003 0.82113081 -0.00000005
vn 0.00146033 0.99999893 -0.00000214
vn 0.00146468 0.99999893 -0.00000057
vn 0.00146631 0.99999892 0.00000002
vn -0.99999890 0.00148427 -0.00000251
vn -0.99999886 0.00150938 -0.00000001
vn -0.99999886 0.00151119 0.00000017
vn 0.00154608 0.99999880 -0.00000365
vn 0.00166162 0.99999862 -0.00000004
vn 0.00166401 0.99999862 0.00000003
vn -0.71090545 0.70328759 0.00000013
vn -0.71090545 0.70328759 0.00000013
vn -0.71090545 0.70328759 0.00000013
vn 0.00147174 0.99999892 0.00000003
vn 0.00147174 0.99999892 0.00000003
vn 0.00147174 0.99999892 0.00000003
vn 0.99861061 -0.05269584 -0.00000015
vn 0.99861061 -0.05269584 -0.00000015
vn 0.99861061 -0.05269584 -0.00000015
vn 0.52778444 -0.84937835 0.00001636
vn 0.52779159 -0.84937391 -0.00000658
vn 0.52779025 -0.84937474 -0.00000258
vn 0.00162877 0.99999867 -0.00000016
vn 0.00177398 0.99999843 0.00000003
vn 0.00147473 0.99999891 -0.00000232
vn 0.69258361 0.72133761 0.00000045
vn 0.69258641 0.72133492 0.00000189
vn 0.69258752 0.72133385 0.00000246
vn 0.00168653 0.99999858 0.00000347
vn 0.00155726 0.99999879 0.00000009
vn 0.00155505 0.99999879 0.00000003
vn 0.99999861 -0.00166654 0.00000026
vn 0.99999873 -0.00159681 0.00000654
vn 0.99999860 -0.00167104 -0.00000014
vn 0.00146962 0.99999892 -0.00000443
vn 0.00145741 0.99999894 -0.00000361
vn 0.00146907 0.99999892 -0.00000650
vn 0.00000018 0.00000116 -1.00000000
vn -0.00000197 0.00000313 -1.00000000
vn 0.00000089 0.00000072 -1.00000000
vn 0.00006102 -0.00000006 -1.00000000
vn -0.00002604 0.00000781 -1.00000000
vn 0.00000153 0.00000080 -1.00000000
vn -0.99998996 -0.00448008 0.00000014
vn -0.99998996 -0.00448008 0.00000014
vn -0.99998996 -0.00448008 0.00000014
vn -0.52234693 0.85273307 0.00000010
vn -0.52234693 0.85273307 0.00000010
vn -0.52234693 0.85273307 0.00000010
vn -0.09967237 -0.99502031 -0.00000002
vn -0.09967237 -0.99502031 -0.00000002
vn -0.09967237 -0.99502031 -0.00000002
vn -0.00000131 -0.00000065 1.00000000
vn -0.00000110 -0.00000056 1.00000000
vn -0.00000089 -0.00000082 1.00000000
vn -0.86222574 0.50652421 -0.00000200
vn -0.86224616 0.50648944 -0.00001180
vn -0.86225062 0.50648186 -0.00001394
vn -0.64490374 0.76426380 0.00000012
vn -0.64490374 0.76426380 0.00000012
vn -0.64490374 0.76426380 0.00000012
vn -0.47314928 -0.88098227 0.00000287
vn -0.47313315 -0.88099093 0.00000969
vn -0.47315598 -0.88097867 0.00000004
vn -0.63597180 -0.77171229 0.00001310
vn -0.63599088 -0.77169657 0.00000389
vn -0.63596387 -0.77171883 0.00001693
vn -0.29199561 -0.95641966 0.00000001
vn -0.29199561 -0.95641966 0.00000001
vn -0.29199561 -0.95641966 0.00000001
vn -0.25484676 0.96698145 0.00000007
vn -0.25484676 0.96698145 0.00000007
vn -0.25484676 0.96698145 0.00000007
vn 0.02154230 -0.99976794 0.00000245
vn 0.02154941 -0.99976778 0.00000398
vn 0.02154380 -0.99976791 0.00000342
vn -0.77433491 -0.63277599 0.00000009
vn -0.77433491 -0.63277599 0.00000009
vn -0.77433491 -0.63277599 0.00000009
vn -0.76335562 0.64597848 0.00000013
vn -0.76335562 0.64597848 0.00000013
vn -0.76335562 0.64597848 0.00000013
vn -0.08867811 0.99606034 0.00000005
vn -0.08867811 0.99606034 0.00000005
vn -0.08867811 0.99606034 0.00000005
vn 0.00451045 -0.99998983 -0.00000003
vn 0.00451045 -0.99998983 -0.00000003
vn 0.00451045 -0.99998983 -0.00000003
vn 0.19144971 0.00086221 -0.98150205
vn 0.19145020 0.00086111 -0.98150195
vn 0.19145080 0.00086185 -0.98150183
vn -0.93999543 0.34118704 -0.00002065
vn -0.93996483 0.34127133 -0.00001018
vn -0.93996217 0.34127865 -0.00000927
vn -0.99998997 -0.00447765 -0.00002675
vn -0.99998997 -0.00447767 -0.00002685
vn -0.99998997 -0.00447765 -0.00002673
vn -0.90020970 -0.43545665 -0.00001463
vn -0.90022438 -0.43542631 -0.00000360
vn -0.90022932 -0.43541609 0.00000012
vn -0.99998995 -0.00448435 0.00000008
vn -0.99998995 -0.00448436 0.00000013
vn -0.99998995 -0.00448436 0.00000014
vn 0.99998996 0.00448013 0.00000370
vn 0.99998996 0.00448057 0.00000321
vn 0.99998998 0.00447712 0.00000706
vn 0.98170920 -0.19038658 0.00000014
vn 0.98169711 -0.19044893 0.00000524
vn 0.98169642 -0.19045247 0.00000553
vn 0.83418644 -0.55148254 -0.00000014
vn 0.83418644 -0.55148254 -0.00000014
vn 0.83418644 -0.55148254 -0.00000014
vn 0.55989923 -0.82856071 -0.00000036
vn 0.55985338 -0.82859169 -0.00000480
vn 0.55990183 -0.82855896 -0.00000011
vn 0.19969298 -0.97985852 0.00000329
vn 0.19982954 -0.97983068 -0.00000217
vn 0.19969994 -0.97985710 0.00000330
vn 0.00000081 0.00000022 1.00000000
vn 0.00000014 -0.00000003 1.00000000
vn 0.00000111 0.00000064 1.00000000
vn -0.48275300 0.87575655 0.00000835
vn -0.48286533 0.87569462 0.00000044
vn -0.48287011 0.87569199 0.00000010
vn 0.57074003 0.82113081 -0.00000005
vn 0.57074003 0.82113081 -0.00000005
vn 0.57074003 0.82113081 -0.00000005
vn 0.00146468 0.99999893 0.00000064
vn 0.00146033 0.99999893 0.00000220
vn 0.00146631 0.99999892 0.00000005
vn -0.99999886 0.00150938 0.00000030
vn -0.99999890 0.00148427 0.00000280
vn -0.99999886 0.00151119 0.00000012
vn 0.00166162 0.99999862 0.00000011
vn 0.00154608 0.99999880 0.00000372
vn 0.00166401 0.99999862 0.00000003
vn -0.71090545 0.70328759 0.00000013
vn -0.71090545 0.70328759 0.00000013
vn -0.71090545 0.70328759 0.00000013
vn 0.00147174 0.99999892 0.00000003
vn 0.00147174 0.99999892 0.00000003
vn 0.00147174 0.99999892 0.00000003
vn 0.99861061 -0.05269584 -0.00000015
vn 0.99861061 -0.05269584 -0.00000015
vn 0.99861061 -0.05269584 -0.00000015
vn 0.52778444 -0.84937835 -0.00001657
vn 0.52779159 -0.84937391 0.00000637
vn 0.52768439 -0.84944051 -0.00000679
vn 0.00147473 0.99999891 0.00000239
vn 0.00162877 0.99999867 0.00000023
vn 0.00147174 0.99999892 0.00000205
vn 0.69258641 0.72133492 -0.00000204
vn 0.69258361 0.72133761 -0.00000060
vn 0.69258752 0.72133385 -0.00000261
vn 0.00155726 0.99999879 -0.00000002
vn 0.00168653 0.99999858 -0.00000340
vn 0.00155505 0.99999879 0.00000003
vn 0.99999861 -0.00166654 -0.00000055
vn 0.99999873 -0.00159681 -0.00000683
vn 0.99999873 -0.00159231 -0.00000723
vn 0.00146906 0.99999892 0.00000656
vn 0.00146962 0.99999892 0.00000450
vn 0.00147198 0.99999892 0.00000553
vn 0.00000070 0.00000117 1.00000000
vn -0.00000011 0.00000243 1.00000000
vn 0.00000139 0.00000103 1.00000000
vn 0.00000156 0.00000057 1.00000000
vn 0.00000039 0.00000041 1.00000000
vn 0.00000068 0.00000023 1.00000000
vn -0.99998996 -0.00448008 0.00000014
vn -0.99998996 -0.00448008 0.00000014
vn -0.99998996 -0.00448008 0.00000014
vn -0.52234693 0.85273307 0.00000010
vn -0.52234693 0.85273307 0.00000010
vn -0.52234693 0.85273307 0.00000010
vn -0.09967237 -0.99502031 -0.00000002
vn -0.09967237 -0.99502031 -0.00000002
vn -0.09967237 -0.99502031 -0.00000002
vn -0.00000179 -0.00000158 -1.00000000
vn -0.00000092 -0.00000027 -1.00000000
vn -0.00000074 -0.00000059 -1.00000000
vn -0.86222574 0.50652421 0.00000228
vn -0.86224616 0.50648944 0.00001208
vn -0.86222129 0.50653179 0.00000014
vn -0.64490374 0.76426380 0.00000012
vn -0.64490374 0.76426380 0.00000012
vn -0.64490374 0.76426380 0.00000012
vn -0.47315598 -0.88097867 0.00000004
vn -0.47315598 -0.88097867 0.00000004
vn -0.47315598 -0.88097867 0.00000004
vn -0.63596387 -0.77171883 0.00000007
vn -0.63596387 -0.77171883 0.00000007
vn -0.63596387 -0.77171883 0.00000007
vn -0.29199561 -0.95641966 0.00000001
vn -0.29199561 -0.95641966 0.00000001
vn -0.29199561 -0.95641966 0.00000001
vn -0.25477315 0.96700085 0.00000007
vn -0.25477315 0.96700085 0.00000007
vn -0.25477315 0.96700085 0.00000007
vn 0.02154550 -0.99976787 0.00000145
vn 0.02153846 -0.99976802 0.00000026
vn 0.02154698 -0.99976784 0.00000042
vn -0.77433491 -0.63277599 0.00000009
vn -0.77433491 -0.63277599 0.00000009
vn -0.77433491 -0.63277599 0.00000009
vn -0.76335562 0.64597848 0.00000013
vn -0.76335562 0.64597848 0.00000013
vn -0.76335562 0.64597848 0.00000013
vn -0.08876738 0.99605238 0.00000005
vn -0.08876738 0.99605238 0.00000005
vn -0.08876738 0.99605238 0.00000005
vn 0.00451045 -0.99998983 -0.00000003
vn 0.00451045 -0.99998983 -0.00000003
vn 0.00451045 -0.99998983 -0.00000003
vn 0.19144937 0.00085986 0.98150211
vn 0.19144122 0.00086697 0.98150370
vn 0.19144868 0.00086342 0.98150224
vn -0.93999543 0.34118704 0.00002094
vn -0.93996483 0.34127133 0.00001047
vn -0.93999809 0.34117971 0.00002185
vn -0.99998997 -0.00447767 0.00002714
vn -0.99998997 -0.00447765 0.00002704
vn -0.99998997 -0.00447765 0.00002702
vn -0.90022438 -0.43542631 0.00000383
vn -0.90020970 -0.43545665 0.00001486
vn -0.90022932 -0.43541609 0.00000012
vn -0.99998995 -0.00448434 0.00000014
vn -0.99998995 -0.00448434 0.00000014
vn -0.99998995 -0.00448434 0.00000014
vn 0.99998995 0.00448359 -0.00000014
vn 0.98169642 -0.19045247 -0.00000583
vn 0.83418644 -0.55148254 -0.00000014
vn 0.55985078 -0.82859345 0.00000483
vn 0.19970086 -0.97985691 -0.00000488
vn 0.20006384 -0.97978286 0.00000414
vn 0.00000081 0.00000054 -1.00000000
vn -0.00000014 0.00000003 -1.00000000
vn -0.00000014 0.00000003 -1.00000000
vn -0.00000014 0.00000003 -1.00000000
vn 0.00000519 0.00000057 -1.00000000
vn -0.00000014 0.00000003 -1.00000000
vn 0.00000259 0.00000049 -1.00000000
vn -0.00000014 0.00000003 -1.00000000
vn -0.00000014 0.00000003 -1.00000000
vn -0.48287011 0.87569199 0.00000010
vn 0.57074003 0.82113081 -0.00000005
vn 0.00145888 0.99999894 -0.00000266
vn -0.99999890 0.00148246 -0.00000269
vn 0.00154396 0.99999881 -0.00000371
vn -0.71090545 0.70328759 0.00000013
vn 0.00147174 0.99999892 0.00000003
vn 0.99861061 -0.05269584 -0.00000015
vn 0.52762413 -0.84947794 -0.00000011
vn 0.52768439 -0.84944051 0.00000658
vn 0.52762413 -0.84947794 -0.00000011
vn 0.52778953 -0.84937519 -0.00000011
vn 0.52778953 -0.84937519 -0.00000011
vn 0.00147174 0.99999892 -0.00000198
vn 0.00146330 0.99999893 0.00000003
vn 0.69258258 0.72133859 -0.00000008
vn 0.00168850 0.99999857 0.00000352
vn 0.99999873 -0.00159231 0.00000694
vn 0.00145880 0.99999894 0.00000003
vn 0.00146254 0.99999893 -0.00000207
vn 0.00147198 0.99999892 -0.00000546
vn 0.00147915 0.99999891 0.00000003
vn 0.00147747 0.99999891 -0.00000334
vn 0.00000139 0.00000037 -1.00000000
vn 0.00000138 0.00000037 -1.00000000
vn -0.00001019 0.00000668 -1.00000000
vn -0.00000014 0.00000003 -1.00000000
vn 0.00000100 0.00000037 -1.00000000
vn 0.00000100 0.00000075 -1.00000000
vn 0.00000188 0.00000051 -1.00000000
vn 0.00000108 0.00000121 -1.00000000
vn -0.00000014 0.00000003 -1.00000000
vn -0.00000014 0.00000003 -1.00000000
vn -0.00000014 0.00000003 -1.00000000
vn -0.00000014 0.00000003 -1.00000000
vn 0.00000242 0.00000042 -1.00000000
vn 0.00002447 0.00000371 -1.00000000
vn 0.00000049 0.00000123 -1.00000000
vn -0.00000014 0.00000003 -1.00000000
vn -0.00000014 0.00000003 -1.00000000
vn -0.00000145 0.00000295 -1.00000000
vn -0.00000083 0.00000318 -1.00000000
vn 0.00001631 -0.00000407 -1.00000000
vn -0.99998996 -0.00448008 0.00000014
vn -0.52234693 0.85273307 0.00000010
vn -0.09967237 -0.99502031 -0.00000002
vn -0.00000117 -0.00000056 1.00000000
vn -0.00000165 -0.00000017 1.00000000
vn -0.00000883 0.00001435 1.00000000
vn -0.00000638 0.00000731 1.00000000
vn 0.00000428 -0.00001571 1.00000000
vn -0.00000276 0.00000216 1.00000000
vn 0.00003399 -0.00002165 1.00000000
vn -0.00002931 0.00001066 1.00000000
vn 0.00000014 -0.00000003 1.00000000
vn 0.00000014 -0.00000003 1.00000000
vn -0.00000684 -0.00000570 1.00000000
vn -0.00000005 0.00000116 1.00000000
vn 0.00000035 0.00000147 1.00000000
vn -0.00000104 -0.00000061 1.00000000
vn -0.86222129 0.50653179 0.00000014
vn -0.64490374 0.76426380 0.00000012
vn -0.47312645 -0.88099453 0.00001252
vn -0.63599881 -0.77169004 0.00000007
vn -0.29199561 -0.95641966 0.00000001
vn -0.25484676 0.96698145 0.00000007
vn 0.02154696 -0.99976784 -0.00000488
vn 0.02155084 -0.99976775 -0.00000645
vn 0.02154305 -0.99976792 0.00000368
vn 0.02156055 -0.99976754 0.00000282
vn 0.02154054 -0.99976798 -0.00000004
vn -0.77433491 -0.63277599 0.00000009
vn -0.76335562 0.64597848 0.00000013
vn -0.08867811 0.99606034 0.00000005
vn 0.00451045 -0.99998983 -0.00000003
vn 0.19140797 0.00085541 -0.98151019
vn 0.19144726 0.00085981 -0.98150253
vn 0.19142936 0.00085776 -0.98150602
vn 0.19144320 0.00084642 -0.98150333
vn 0.19142172 0.00083461 -0.98150753
vn 0.19144882 0.00086585 -0.98150222
vn 0.19144996 0.00086019 -0.98150200
vn 0.19144520 0.00086193 -0.98150293
vn 0.19143985 0.00086017 -0.98150397
vn 0.19141388 0.00085454 -0.98150904
vn 0.19144611 0.00086535 -0.98150274
vn 0.19145188 0.00086347 -0.98150162
vn -0.93999809 0.34117972 -0.00002156
vn -0.99998997 -0.00447768 -0.00002687
vn -0.90020476 -0.43546687 -0.00001834
vn -0.99998995 -0.00448434 0.00000007
vn 0.99998995 0.00448359 -0.00000014
vn 0.98170989 -0.19038304 -0.00000015
vn 0.83418644 -0.55148254 -0.00000014
vn 0.55985078 -0.82859345 -0.00000505
vn 0.20000405 -0.97979507 -0.00000426
vn 0.19963414 -0.97987051 -0.00000006
vn 0.00000014 -0.00000003 1.00000000
vn 0.00000014 -0.00000003 1.00000000
vn 0.00000096 0.00000040 1.00000000
vn 0.00000249 0.00000036 1.00000000
vn 0.00000175 -0.00000000 1.00000000
vn 0.00000211 -0.00000319 1.00000000
vn 0.00000200 -0.00000079 1.00000000
vn 0.00000014 -0.00000003 1.00000000
vn 0.00000471 0.00000042 1.00000000
vn -0.48274822 0.87575919 0.00000869
vn 0.57074003 0.82113081 -0.00000005
vn 0.00145888 0.99999894 0.00000273
vn -0.99999890 0.00148246 0.00000298
vn 0.00154396 0.99999881 0.00000378
vn -0.71090545 0.70328759 0.00000013
vn 0.00147174 0.99999892 0.00000003
vn 0.99861061 -0.05269584 -0.00000015
vn 0.52779025 -0.84937474 0.00000237
vn 0.52778953 -0.84937519 -0.00000011
vn 0.52778953 -0.84937519 -0.00000011
vn 0.52762413 -0.84947794 -0.00000011
vn 0.52762413 -0.84947794 -0.00000011
vn 0.00146330 0.99999893 0.00000003
vn 0.00177398 0.99999843 0.00000003
vn 0.69258258 0.72133859 -0.00000008
vn 0.00168850 0.99999857 -0.00000345
vn 0.99999860 -0.00167104 -0.00000014
vn 0.00146254 0.99999893 0.00000214
vn 0.00147743 0.99999891 0.00000341
vn 0.00145740 0.99999894 0.00000368
vn 0.00145880 0.99999894 0.00000003
vn 0.00147911 0.99999891 0.00000003
vn 0.00000108 0.00000096 1.00000000
vn 0.00000110 0.00000095 1.00000000
vn 0.00000014 -0.00000003 1.00000000
vn 0.00001198 -0.00000233 1.00000000
vn 0.00000014 -0.00000003 1.00000000
vn 0.00000093 -0.00000079 1.00000000
vn 0.00000054 0.00000022 1.00000000
vn 0.00000014 -0.00000003 1.00000000
vn 0.00000014 -0.00000003 1.00000000
vn 0.00000014 -0.00000003 1.00000000
vn 0.00000014 -0.00000003 1.00000000
vn 0.00000014 -0.00000003 1.00000000
vn 0.00000014 -0.00000003 1.00000000
vn 0.00000014 -0.00000003 1.00000000
vn 0.00002476 0.00000364 1.00000000
vn 0.00000271 0.00000035 1.00000000
vn 0.00000014 -0.00000003 1.00000000
vn 0.00000014 -0.00000003 1.00000000
vn 0.00000014 -0.00000003 1.00000000
vn 0.00000014 -0.00000003 1.00000000
vn -0.99998996 -0.00448008 0.00000014
vn -0.52234693 0.85273307 0.00000010
vn -0.09967237 -0.99502031 -0.00000002
vn -0.00000082 -0.00000101 -1.00000000
vn -0.00000074 -0.00000067 -1.00000000
vn -0.00000074 -0.00000086 -1.00000000
vn -0.00000014 0.00000003 -1.00000000
vn -0.00000105 -0.00000087 -1.00000000
vn -0.00000891 -0.00000878 -1.00000000
vn -0.00000472 -0.00000531 -1.00000000
vn -0.00001426 -0.00001150 -1.00000000
vn -0.00000014 0.00000003 -1.00000000
vn -0.00000014 0.00000003 -1.00000000
vn -0.00000241 0.00000164 -1.00000000
vn -0.00000380 0.00000439 -1.00000000
vn -0.00000953 0.00001536 -1.00000000
vn 0.00000003 -0.00000657 -1.00000000
vn -0.86225062 0.50648186 0.00001422
vn -0.64490374 0.76426380 0.00000012
vn -0.47315598 -0.88097867 0.00000004
vn -0.63596387 -0.77171883 0.00000007
vn -0.29199561 -0.95641966 0.00000001
vn -0.25477315 0.96700085 0.00000007
vn 0.02155084 -0.99976775 -0.00000004
vn 0.02155084 -0.99976775 -0.00000004
vn 0.02154758 -0.99976782 0.00000124
vn 0.02154054 -0.99976798 -0.00000004
vn 0.02154028 -0.99976798 0.00000035
vn -0.77433491 -0.63277599 0.00000009
vn -0.76335562 0.64597848 0.00000013
vn -0.08876738 0.99605238 0.00000005
vn 0.00451045 -0.99998983 -0.00000003
vn 0.19145028 0.00086010 0.98150194
vn 0.19144953 0.00085980 0.98150208
vn 0.19144206 0.00085913 0.98150354
vn 0.19145128 0.00086213 0.98150174
vn 0.19143348 0.00085800 0.98150521
vn 0.19144914 0.00086183 0.98150216
vn 0.19142201 0.00084123 0.98150747
vn 0.19144234 0.00085065 0.98150349
vn 0.19144510 0.00086195 0.98150295
vn 0.19140450 0.00085238 0.98151087
vn 0.19143782 0.00085991 0.98150437
vn 0.19144931 0.00086433 0.98150212
vn -0.93996217 0.34127865 0.00000956
vn -0.99998997 -0.00447768 0.00002716
vn -0.90020476 -0.43546687 0.00001857
vn -0.99998995 -0.00448434 0.00000014
vt 0.00000000 0.00000000
vt 0.00000000 0.00000000
vt 0.00000000 0.00000000
vt 0.00000000 0.00000000
vt 0.00000000 0.00000000
vt 0.00000000 0.00000000
vt 0.00000000 0.00000000
vt 0.00000000 0.00000000
vt 0.00000000 0.00000000
vt 0.00000000 0.00000000
vt 0.00000000 0.00000000
vt 0.00000000 0.00000000
vt 0.00000000 0.00000000
vt 0.00000000 0.00000000
vt 0.00000000 0.00000000
vt 0.00000000 0.00000000
vt 0.00000000 0.00000000
vt 0.00000000 0.00000000
vt 0.00000000 0.00000000
vt 0.00000000 0.00000000
vt 0.00000000 0.00000000
vt 0.00000000 0.00000000
vt 0.00000000 0.00000000
vt 0.00000000 0.00000000
vt 0.00000000 0.00000000
vt 0.00000000 0.00000000
vt 0.00000000 0.00000000
vt 0.00000000 0.00000000
vt 0.00000000 0.00000000
vt 0.00000000 0.00000000
vt 0.00000000 0.00000000
vt 0.00000000 0.00000000
vt 0.00000000 0.00000000
vt 0.00000000 0.00000000
vt 0.00000000 0.00000000
vt 0.00000000 0.00000000
vt 0.00000000 0.00000000
vt 0.00000000 0.00000000
vt 0.00000000 0.00000000
vt 0.00000000 0.00000000
vt 0.00000000 0.00000000
vt 0.00000000 0.00000000
vt 0.00000000 0.00000000
vt 0.00000000 0.00000000
vt 0.00000000 0.00000000
vt 0.00000000 0.00000000
vt 0.00000000 0.00000000
vt 0.00000000 0.00000000
vt 0.00000000 0.00000000
vt 0.00000000 0.00000000
vt 0.00000000 0.00000000
vt 0.00000000 0.00000000
vt 0.00000000 0.00000000
vt 0.00000000 0.00000000
vt 0.00000000 0.00000000
vt 0.00000000 0.00000000
vt 0.00000000 0.00000000
vt 0.00000000 0.00000000
vt 0.00000000 0.00000000
vt 0.00000000 0.00000000
vt 0.00000000 0.00000000
vt 0.00000000 0.00000000
vt 0.00000000 0.00000000
vt 0.00000000 0.00000000
vt 0.00000000 0.00000000
vt 0.00000000 0.00000000
vt 0.00000000 0.00000000
vt 0.00000000 0.00000000
vt 0.00000000 0.00000000
vt 0.00000000 0.00000000
vt 0.00000000 0.00000000
vt 0.00000000 0.00000000
vt 0.00000000 0.00000000
vt 0.00000000 0.00000000
vt 0.00000000 0.00000000
vt 0.00000000 0.00000000
vt 0.00000000 0.00000000
vt 0.00000000 0.00000000
vt 0.00000000 0.00000000
vt 0.00000000 0.00000000
vt 0.00000000 0.00000000
vt 0.00000000 0.00000000
vt 0.00000000 0.00000000
vt 0.00000000 0.00000000
vt 0.00000000 0.00000000
vt 0.00000000 0.00000000
vt 0.00000000 0.00000000
vt 0.00000000 0.00000000
vt 0.00000000 0.00000000
vt 0.00000000 0.00000000
vt 0.00000000 0.00000000
vt 0.00000000 0.00000000
vt 0.00000000 0.00000000
vt 0.00000000 0.00000000
vt 0.00000000 0.00000000
vt 0.00000000 0.00000000
vt 0.00000000 0.00000000
vt 0.00000000 0.00000000
vt 0.00000000 0.00000000
vt 0.00000000 0.00000000
vt 0.00000000 0.00000000
vt 0.00000000 0.00000000
vt 0.00000000 0.00000000
vt 0.00000000 0.00000000
vt 0.00000000 0.00000000
vt 0.00000000 0.00000000
vt 0.00000000 0.00000000
vt 0.00000000 0.00000000
vt 0.00000000 0.00000000
vt 0.00000000 0.00000000
vt 0.00000000 0.00000000
vt 0.00000000 0.00000000
vt 0.00000000 0.00000000
vt 0.00000000 0.00000000
vt 0.00000000 0.00000000
vt 0.00000000 0.00000000
vt 0.00000000 0.00000000
vt 0.00000000 0.00000000
vt 0.00000000 0.00000000
vt 0.00000000 0.00000000
vt 0.00000000 0.00000000
vt 0.00000000 0.00000000
vt 0.00000000 0.00000000
vt 0.00000000 0.00000000
vt 0.00000000 0.00000000
vt 0.00000000 0.00000000
vt 0.00000000 0.00000000
vt 0.00000000 0.00000000
vt 0.00000000 0.00000000
vt 0.00000000 0.00000000
vt 0.00000000 0.00000000
vt 0.00000000 0.00000000
vt 0.00000000 0.00000000
vt 0.00000000 0.00000000
vt 0.00000000 0.00000000
vt 0.00000000 0.00000000
vt 0.00000000 0.00000000
vt 0.00000000 0.00000000
vt 0.00000000 0.00000000
vt 0.00000000 0.00000000
vt 0.00000000 0.00000000
vt 0.00000000 0.00000000
vt 0.00000000 0.00000000
vt 0.00000000 0.00000000
vt 0.00000000 0.00000000
vt 0.00000000 0.00000000
vt 0.00000000 0.00000000
vt 0.00000000 0.00000000
vt 0.00000000 0.00000000
vt 0.00000000 0.00000000
vt 0.00000000 0.00000000
vt 0.00000000 0.00000000
vt 0.00000000 0.00000000
vt 0.00000000 0.00000000
vt 0.00000000 0.00000000
vt 0.00000000 0.00000000
vt 0.00000000 0.00000000
vt 0.00000000 0.00000000
vt 0.00000000 0.00000000
vt 0.00000000 0.00000000
vt 0.00000000 0.00000000
vt 0.00000000 0.00000000
vt 0.00000000 0.00000000
vt 0.00000000 0.00000000
vt 0.00000000 0.00000000
vt 0.00000000 0.00000000
vt 0.00000000 0.00000000
vt 0.00000000 0.00000000
vt 0.00000000 0.00000000
vt 0.00000000 0.00000000
vt 0.00000000 0.00000000
vt 0.00000000 0.00000000
vt 0.00000000 0.00000000
vt 0.00000000 0.00000000
vt 0.00000000 0.00000000
vt 0.00000000 0.00000000
vt 0.00000000 0.00000000
vt 0.00000000 0.00000000
vt 0.00000000 0.00000000
vt 0.00000000 0.00000000
vt 0.00000000 0.00000000
vt 0.00000000 0.00000000
vt 0.00000000 0.00000000
vt 0.00000000 0.00000000
vt 0.00000000 0.00000000
vt 0.00000000 0.00000000
vt 0.00000000 0.00000000
vt 0.00000000 0.00000000
vt 0.00000000 0.00000000
vt 0.00000000 0.00000000
vt 0.00000000 0.00000000
vt 0.00000000 0.00000000
vt 0.00000000 0.00000000
vt 0.00000000 0.00000000
vt 0.00000000 0.00000000
vt 0.00000000 0.00000000
vt 0.00000000 0.00000000
vt 0.00000000 0.00000000
vt 0.00000000 0.00000000
vt 0.00000000 0.00000000
vt 0.00000000 0.00000000
vt 0.00000000 0.00000000
vt 0.00000000 0.00000000
vt 0.00000000 0.00000000
vt 0.00000000 0.00000000
vt 0.00000000 0.00000000
vt 0.00000000 0.00000000
vt 0.00000000 0.00000000
vt 0.00000000 0.00000000
vt 0.00000000 0.00000000
vt 0.00000000 0.00000000
vt 0.00000000 0.00000000
vt 0.00000000 0.00000000
vt 0.00000000 0.00000000
vt 0.00000000 0.00000000
vt 0.00000000 0.00000000
vt 0.00000000 0.00000000
vt 0.00000000 0.00000000
vt 0.00000000 0.00000000
vt 0.00000000 0.00000000
vt 0.00000000 0.00000000
vt 0.00000000 0.00000000
vt 0.00000000 0.00000000
vt 0.00000000 0.00000000
vt 0.00000000 0.00000000
vt 0.00000000 0.00000000
vt 0.00000000 0.00000000
vt 0.00000000 0.00000000
vt 0.00000000 0.00000000
vt 0.00000000 0.00000000
vt 0.00000000 0.00000000
vt 0.00000000 0.00000000
vt 0.00000000 0.00000000
vt 0.00000000 0.00000000
vt 0.00000000 0.00000000
vt 0.00000000 0.00000000
vt 0.00000000 0.00000000
vt 0.00000000 0.00000000
vt 0.00000000 0.00000000
vt 0.00000000 0.00000000
vt 0.00000000 0.00000000
vt 0.00000000 0.00000000
vt 0.00000000 0.00000000
vt 0.00000000 0.00000000
vt 0.00000000 0.00000000
vt 0.00000000 0.00000000
vt 0.00000000 0.00000000
vt 0.00000000 0.00000000
vt 0.00000000 0.00000000
vt 0.00000000 0.00000000
vt 0.00000000 0.00000000
vt 0.00000000 0.00000000
vt 0.00000000 0.00000000
vt 0.00000000 0.00000000
vt 0.00000000 0.00000000
vt 0.00000000 0.00000000
vt 0.00000000 0.00000000
vt 0.00000000 0.00000000
vt 0.00000000 0.00000000
vt 0.00000000 0.00000000
vt 0.00000000 0.00000000
vt 0.00000000 0.00000000
vt 0.00000000 0.00000000
vt 0.00000000 0.00000000
vt 0.00000000 0.00000000
vt 0.00000000 0.00000000
vt 0.00000000 0.00000000
vt 0.00000000 0.00000000
vt 0.00000000 0.00000000
vt 0.00000000 0.00000000
vt 0.00000000 0.00000000
vt 0.00000000 0.00000000
vt 0.00000000 0.00000000
vt 0.00000000 0.00000000
vt 0.00000000 0.00000000
vt 0.00000000 0.00000000
vt 0.00000000 0.00000000
vt 0.00000000 0.00000000
vt 0.00000000 0.00000000
vt 0.00000000 0.00000000
vt 0.00000000 0.00000000
vt 0.00000000 0.00000000
vt 0.00000000 0.00000000
vt 0.00000000 0.00000000
vt 0.00000000 0.00000000
vt 0.00000000 0.00000000
vt 0.00000000 0.00000000
vt 0.00000000 0.00000000
vt 0.00000000 0.00000000
vt 0.00000000 0.00000000
vt 0.00000000 0.00000000
vt 0.00000000 0.00000000
vt 0.00000000 0.00000000
vt 0.00000000 0.00000000
vt 0.00000000 0.00000000
vt 0.00000000 0.00000000
vt 0.00000000 0.00000000
vt 0.00000000 0.00000000
vt 0.00000000 0.00000000
vt 0.00000000 0.00000000
vt 0.00000000 0.00000000
vt 0.00000000 0.00000000
vt 0.00000000 0.00000000
vt 0.00000000 0.00000000
vt 0.00000000 0.00000000
vt 0.00000000 0.00000000
vt 0.00000000 0.00000000
vt 0.00000000 0.00000000
vt 0.00000000 0.00000000
vt 0.00000000 0.00000000
vt 0.00000000 0.00000000
vt 0.00000000 0.00000000
vt 0.00000000 0.00000000
vt 0.00000000 0.00000000
vt 0.00000000 0.00000000
vt 0.00000000 0.00000000
vt 0.00000000 0.00000000
vt 0.00000000 0.00000000
vt 0.00000000 0.00000000
vt 0.00000000 0.00000000
vt 0.00000000 0.00000000
vt 0.00000000 0.00000000
vt 0.00000000 0.00000000
vt 0.00000000 0.00000000
vt 0.00000000 0.00000000
vt 0.00000000 0.00000000
vt 0.00000000 0.00000000
vt 0.00000000 0.00000000
vt 0.00000000 0.00000000
vt 0.00000000 0.00000000
vt 0.00000000 0.00000000
vt 0.00000000 0.00000000
vt 0.00000000 0.00000000
vt 0.00000000 0.00000000
vt 0.00000000 0.00000000
vt 0.00000000 0.00000000
vt 0.00000000 0.00000000
vt 0.00000000 0.00000000
vt 0.00000000 0.00000000
vt 0.00000000 0.00000000
vt 0.00000000 0.00000000
vt 0.00000000 0.00000000
vt 0.00000000 0.00000000
vt 0.00000000 0.00000000
vt 0.00000000 0.00000000
vt 0.00000000 0.00000000
vt 0.00000000 0.00000000
vt 0.00000000 0.00000000
vt 0.00000000 0.00000000
vt 0.00000000 0.00000000
vt 0.00000000 0.00000000
vt 0.00000000 0.00000000
vt 0.00000000 0.00000000
vt 0.00000000 0.00000000
vt 0.00000000 0.00000000
vt 0.00000000 0.00000000
vt 0.00000000 0.00000000
vt 0.00000000 0.00000000
vt 0.00000000 0.00000000
vt 0.00000000 0.00000000
vt 0.00000000 0.00000000
vt 0.00000000 0.00000000
vt 0.00000000 0.00000000
vt 0.00000000 0.00000000
vt 0.00000000 0.00000000
vt 0.00000000 0.00000000
vt 0.00000000 0.00000000
vt 0.00000000 0.00000000
vt 0.00000000 0.00000000
vt 0.00000000 0.00000000
vt 0.00000000 0.00000000
vt 0.00000000 0.00000000
vt 0.00000000 0.00000000
vt 0.00000000 0.00000000
vt 0.00000000 0.00000000
vt 0.00000000 0.00000000
vt 0.00000000 0.00000000
vt 0.00000000 0.00000000
vt 0.00000000 0.00000000
vt 0.00000000 0.00000000
vt 0.00000000 0.00000000
vt 0.00000000 0.00000000
vt 0.00000000 0.00000000
vt 0.00000000 0.00000000
vt 0.00000000 0.00000000
vt 0.00000000 0.00000000
vt 0.00000000 0.00000000
vt 0.00000000 0.00000000
vt 0.00000000 0.00000000
vt 0.00000000 0.00000000
vt 0.00000000 0.00000000
vt 0.00000000 0.00000000
vt 0.00000000 0.00000000
vt 0.00000000 0.00000000
vt 0.00000000 0.00000000
vt 0.00000000 0.00000000
vt 0.00000000 0.00000000
vt 0.00000000 0.00000000
vt 0.00000000 0.00000000
vt 0.00000000 0.00000000
vt 0.00000000 0.00000000
vt 0.00000000 0.00000000
vt 0.00000000 0.00000000
vt 0.00000000 0.00000000
vt 0.00000000 0.00000000
vt 0.00000000 0.00000000
vt 0.00000000 0.00000000
vt 0.00000000 0.00000000
vt 0.00000000 0.00000000
vt 0.00000000 0.00000000
vt 0.00000000 0.00000000
vt 0.00000000 0.00000000
vt 0.00000000 0.00000000
vt 0.00000000 0.00000000
vt 0.00000000 0.00000000
vt 0.00000000 0.00000000
vt 0.00000000 0.00000000
vt 0.00000000 0.00000000
vt 0.00000000 0.00000000
vt 0.00000000 0.00000000
vt 0.00000000 0.00000000
vt 0.00000000 0.00000000
vt 0.00000000 0.00000000
vt 0.00000000 0.00000000
vt 0.00000000 0.00000000
vt 0.00000000 0.00000000
vt 0.00000000 0.00000000
vt 0.00000000 0.00000000
vt 0.00000000 0.00000000
vt 0.00000000 0.00000000
vt 0.00000000 0.00000000
vt 0.00000000 0.00000000
vt 0.00000000 0.00000000
vt 0.00000000 0.00000000
vt 0.00000000 0.00000000
vt 0.00000000 0.00000000
vt 0.00000000 0.00000000
vt 0.00000000 0.00000000
vt 0.00000000 0.00000000
vt 0.00000000 0.00000000
vt 0.00000000 0.00000000
vt 0.00000000 0.00000000
vt 0.00000000 0.00000000
vt 0.00000000 0.00000000
vt 0.00000000 0.00000000
vt 0.00000000 0.00000000
vt 0.00000000 0.00000000
vt 0.00000000 0.00000000
vt 0.00000000 0.00000000
vt 0.00000000 0.00000000
vt 0.00000000 0.00000000
vt 0.00000000 0.00000000
vt 0.00000000 0.00000000
vt 0.00000000 0.00000000
vt 0.00000000 0.00000000
vt 0.00000000 0.00000000
vt 0.00000000 0.00000000
vt 0.00000000 0.00000000
vt 0.00000000 0.00000000
vt 0.00000000 0.00000000
vt 0.00000000 0.00000000
vt 0.00000000 0.00000000
vt 0.00000000 0.00000000
vt 0.00000000 0.00000000
f 193/193/193 194/194/194 195/195/195
f 196/196/196 197/197/197 198/198/198
f 199/199/199 200/200/200 201/201/201
f 202/202/202 203/203/203 204/204/204
f 205/205/205 206/206/206 207/207/207
f 208/208/208 209/209/209 210/210/210
f 211/211/211 212/212/212 213/213/213
f 214/214/214 215/215/215 216/216/216
f 217/217/217 218/218/218 219/219/219
f 220/220/220 221/221/221 222/222/222
f 223/223/223 224/224/224 225/225/225
f 226/226/226 227/227/227 228/228/228
f 229/229/229 230/230/230 231/231/231
f 232/232/232 233/233/233 234/234/234
f 235/235/235 236/236/236 237/237/237
f 238/238/238 239/239/239 240/240/240
f 241/241/241 242/242/242 243/243/243
f 244/244/244 245/245/245 246/246/246
f 247/247/247 248/248/248 249/249/249
f 250/250/250 251/251/251 252/252/252
f 253/253/253 254/254/254 255/255/255
f 256/256/256 257/257/257 258/258/258
f 259/259/259 260/260/260 261/261/261
f 262/262/262 263/263/263 264/264/264
f 265/265/265 266/266/266 267/267/267
f 268/268/268 269/269/269 270/270/270
f 271/271/271 272/272/272 273/273/273
f 274/274/274 275/275/275 276/276/276
f 277/277/277 278/278/278 279/279/279
f 280/280/280 281/281/281 282/282/282
f 283/283/283 284/284/284 285/285/285
f 286/286/286 287/287/287 288/288/288
f 289/289/289 290/290/290 291/291/291
f 292/292/292 293/293/293 294/294/294
f 295/295/295 296/296/296 297/297/297
f 298/298/298 299/299/299 300/300/300
f 301/301/301 302/302/302 303/303/303
f 304/304/304 305/305/305 306/306/306
f 307/307/307 308/308/308 309/309/309
f 310/310/310 311/311/311 312/312/312
f 313/313/313 314/314/314 315/315/315
f 316/316/316 317/317/317 318/318/318
f 319/319/319 320/320/320 321/321/321
f 322/322/322 323/323/323 324/324/324
f 325/325/325 326/326/326 327/327/327
f 328/328/328 329/329/329 330/330/330
f 331/331/331 332/332/332 333/333/333
f 334/334/334 335/335/335 336/336/336
f 337/337/337 338/338/338 339/339/339
f 340/340/340 341/341/341 342/342/342
f 343/343/343 344/344/344 345/345/345
f 346/346/346 347/347/347 348/348/348
f 349/349/349 350/350/350 351/351/351
f 352/352/352 353/353/353 354/354/354
f 355/355/355 356/356/356 357/357/357
f 358/358/358 359/359/359 360/360/360
f 361/361/361 362/362/362 363/363/363
f 364/364/364 365/365/365 366/366/366
f 367/367/367 368/368/368 369/369/369
f 370/370/370 371/371/371 372/372/372
f 373/373/373 374/374/374 375/375/375
f 376/376/376 377/377/377 378/378/378
f 379/379/379 380/380/380 381/381/381
f 382/382/382 383/383/383 384/384/384
f 385/385/385 386/386/386 387/387/387
f 388/388/388 389/389/389 390/390/390
f 391/391/391 392/392/392 393/393/393
f 394/394/394 395/395/395 396/396/396
f 397/397/397 398/398/398 399/399/399
f 400/400/400 401/401/401 402/402/402
f 403/403/403 404/404/404 405/405/405
f 406/406/406 407/407/407 408/408/408
f 409/409/409 410/410/410 411/411/411
f 412/412/412 413/413/413 414/414/414
f 415/415/415 416/416/416 417/417/417
f 418/418/418 419/419/419 420/420/420
f 421/421/421 422/422/422 423/423/423
f 424/424/424 425/425/425 426/426/426
f 427/427/427 428/428/428 429/429/429
f 430/430/430 431/431/431 432/432/432
f 433/433/433 434/434/434 435/435/435
f 436/436/436 437/437/437 438/438/438
f 439/439/439 440/440/440 441/441/441
f 442/442/442 443/443/443 444/444/444
f 193/193/193 445/445/445 194/194/194
f 196/196/196 446/446/446 197/197/197
f 199/199/199 447/447/447 200/200/200
f 202/202/202 448/448/448 203/203/203
f 207/207/207 449/449/449 205/205/205
f 450/450/450 205/205/205 449/449/449
f 451/451/451 452/452/452 453/453/453
f 453/453/453 454/454/454 451/451/451
f 454/454/454 455/455/455 451/451/451
f 456/456/456 209/209/209 208/208/208
f 451/451/451 455/455/455 457/457/457
f 451/451/451 457/457/457 209/209/209
f 458/458/458 459/459/459 456/456/456
f 457/457/457 210/210/210 209/209/209
f 208/208/208 458/458/458 456/456/456
f 211/211/211 460/460/460 212/212/212
f 214/214/214 461/461/461 215/215/215
f 217/217/217 462/462/462 218/218/218
f 220/220/220 463/463/463 221/221/221
f 223/223/223 464/464/464 224/224/224
f 226/226/226 465/465/465 227/227/227
f 229/229/229 466/466/466 230/230/230
f 232/232/232 467/467/467 233/233/233
f 235/235/235 468/468/468 469/469/469
f 468/468/468 470/470/470 469/469/469
f 471/471/471 472/472/472 236/236/236
f 235/235/235 469/469/469 236/236/236
f 236/236/236 472/472/472 237/237/237
f 240/240/240 473/473/473 238/238/238
f 474/474/474 238/238/238 473/473/473
f 241/241/241 475/475/475 242/242/242
f 244/244/244 476/476/476 245/245/245
f 247/247/247 477/477/477 248/248/248
f 478/478/478 479/479/479 252/252/252
f 480/480/480 250/250/250 252/252/252
f 251/251/251 481/481/481 482/482/482
f 252/252/252 479/479/479 480/480/480
f 251/251/251 482/482/482 252/252/252
f 255/255/255 483/483/483 484/484/484
f 484/484/484 253/253/253 255/255/255
f 485/485/485 254/254/254 253/253/253
f 486/486/486 255/255/255 254/254/254
f 487/487/487 488/488/488 489/489/489
f 490/490/490 491/491/491 489/489/489
f 492/492/492 493/493/493 489/489/489
f 494/494/494 495/495/495 489/489/489
f 489/489/489 258/258/258 487/487/487
f 495/495/495 496/496/496 489/489/489
f 491/491/491 492/492/492 489/489/489
f 497/497/497 487/487/487 258/258/258
f 498/498/498 499/499/499 500/500/500
f 501/501/501 500/500/500 258/258/258
f 257/257/257 502/502/502 258/258/258
f 500/500/500 499/499/499 497/497/497
f 493/493/493 494/494/494 489/489/489
f 497/497/497 258/258/258 500/500/500
f 502/502/502 501/501/501 258/258/258
f 490/490/490 489/489/489 488/488/488
f 259/259/259 503/503/503 260/260/260
f 262/262/262 504/504/504 263/263/263
f 265/265/265 505/505/505 266/266/266
f 506/506/506 270/270/270 269/269/269
f 507/507/507 508/508/508 509/509/509
f 510/510/510 509/509/509 508/508/508
f 511/511/511 512/512/512 268/268/268
f 513/513/513 268/268/268 512/512/512
f 269/269/269 514/514/514 515/515/515
f 515/515/515 516/516/516 269/269/269
f 517/517/517 518/518/518 269/269/269
f 519/519/519 506/506/506 269/269/269
f 507/507/507 509/509/509 511/511/511
f 511/511/511 268/268/268 507/507/507
f 269/269/269 516/516/516 517/517/517
f 518/518/518 519/519/519 269/269/269
f 507/507/507 268/268/268 270/270/270
f 271/271/271 520/520/520 272/272/272
f 274/274/274 521/521/521 275/275/275
f 277/277/277 522/522/522 278/278/278
f 280/280/280 523/523/523 281/281/281
f 283/283/283 524/524/524 284/284/284
f 286/286/286 525/525/525 287/287/287
f 526/526/526 527/527/527 289/289/289
f 289/289/289 528/528/528 529/529/529
f 529/529/529 290/290/290 289/289/289
f 528/528/528 530/530/530 529/529/529
f 291/291/291 526/526/526 289/289/289
f 292/292/292 531/531/531 293/293/293
f 295/295/295 532/532/532 296/296/296
f 298/298/298 533/533/533 299/299/299
f 301/301/301 534/534/534 302/302/302
f 535/535/535 536/536/536 537/537/537
f 538/538/538 539/539/539 540/540/540
f 536/536/536 541/541/541 537/537/537
f 542/542/542 306/306/306 543/543/543
f 537/537/537 541/541/541 538/538/538
f 537/537/537 538/538/538 540/540/540
f 543/543/543 544/544/544 542/542/542
f 545/545/545 305/305/305 304/304/304
f 304/304/304 546/546/546 545/545/545
f 537/537/537 540/540/540 304/304/304
f 305/305/305 543/543/543 306/306/306
f 306/306/306 537/537/537 304/304/304
f 307/307/307 547/547/547 308/308/308
f 310/310/310 548/548/548 311/311/311
f 313/313/313 549/549/549 314/314/314
f 316/316/316 550/550/550 317/317/317
f 319/319/319 551/551/551 320/320/320
f 322/322/322 552/552/552 323/323/323
f 325/325/325 553/553/553 326/326/326
f 328/328/328 554/554/554 329/329/329
f 555/555/555 333/333/333 332/332/332
f 331/331/331 556/556/556 332/332/332
f 557/557/557 558/558/558 559/559/559
f 559/559/559 336/336/336 560/560/560
f 561/561/561 562/562/562 563/563/563
f 561/561/561 563/563/563 334/334/334
f 557/557/557 559/559/559 564/564/564
f 565/565/565 564/564/564 559/559/559
f 560/560/560 565/565/565 559/559/559
f 561/561/561 334/334/334 336/336/336
f 335/335/335 560/560/560 336/336/336
f 337/337/337 566/566/566 338/338/338
f 340/340/340 567/567/567 341/341/341
f 343/343/343 568/568/568 344/344/344
f 346/346/346 569/569/569 347/347/347
f 349/349/349 570/570/570 350/350/350
f 352/352/352 571/571/571 353/353/353
f 355/355/355 572/572/572 356/356/356
f 358/358/358 573/573/573 359/359/359
f 574/574/574 575/575/575 362/362/362
f 575/575/575 576/576/576 362/362/362
f 577/577/577 578/578/578 363/363/363
f 574/574/574 362/362/362 361/361/361
f 363/363/363 578/578/578 361/361/361
f 579/579/579 366/366/366 365/365/365
f 364/364/364 580/580/580 365/365/365
f 367/367/367 581/581/581 368/368/368
f 370/370/370 582/582/582 371/371/371
f 373/373/373 583/583/583 374/374/374
f 378/378/378 584/584/584 376/376/376
f 376/376/376 585/585/585 586/586/586
f 584/584/584 587/587/587 376/376/376
f 586/586/586 377/377/377 376/376/376
f 585/585/585 588/588/588 586/586/586
f 589/589/589 590/590/590 379/379/379
f 379/379/379 591/591/591 380/380/380
f 380/380/380 592/592/592 381/381/381
f 381/381/381 589/589/589 379/379/379
f 593/593/593 383/383/383 382/382/382
f 384/384/384 594/594/594 595/595/595
f 596/596/596 597/597/597 598/598/598
f 598/598/598 599/599/599 595/595/595
f 600/600/600 601/601/601 595/595/595
f 602/602/602 595/595/595 601/601/601
f 382/382/382 603/603/603 604/604/604
f 604/604/604 605/605/605 382/382/382
f 606/606/606 607/607/607 382/382/382
f 608/608/608 593/593/593 382/382/382
f 594/594/594 598/598/598 595/595/595
f 599/599/599 600/600/600 595/595/595
f 595/595/595 382/382/382 384/384/384
f 605/605/605 606/606/606 382/382/382
f 608/608/608 382/382/382 607/607/607
f 598/598/598 594/594/594 596/596/596
f 385/385/385 609/609/609 386/386/386
f 388/388/388 610/610/610 389/389/389
f 391/391/391 611/611/611 392/392/392
f 612/612/612 396/396/396 395/395/395
f 613/613/613 614/614/614 394/394/394
f 615/615/615 616/616/616 394/394/394
f 617/617/617 618/618/618 394/394/394
f 619/619/619 394/394/394 618/618/618
f 395/395/395 620/620/620 621/621/621
f 621/621/621 622/622/622 395/395/395
f 623/623/623 624/624/624 625/625/625
f 625/625/625 612/612/612 623/623/623
f 614/614/614 615/615/615 394/394/394
f 617/617/617 394/394/394 616/616/616
f 395/395/395 622/622/622 612/612/612
f 623/623/623 612/612/612 622/622/622
f 613/613/613 394/394/394 396/396/396
f 397/397/397 626/626/626 398/398/398
f 400/400/400 627/627/627 401/401/401
f 403/403/403 628/628/628 404/404/404
f 406/406/406 629/629/629 407/407/407
f 409/409/409 630/630/630 410/410/410
f 412/412/412 631/631/631 413/413/413
f 417/417/417 632/632/632 633/633/633
f 633/633/633 634/634/634 417/417/417
f 416/416/416 635/635/635 636/636/636
f 417/417/417 634/634/634 415/415/415
f 416/416/416 636/636/636 417/417/417
f 418/418/418 637/637/637 419/419/419
f 421/421/421 638/638/638 422/422/422
f 424/424/424 639/639/639 425/425/425
f 427/427/427 640/640/640 428/428/428
f 641/641/641 642/642/642 643/643/643
f 643/643/643 644/644/644 432/432/432
f 642/642/642 645/645/645 643/643/643
f 646/646/646 647/647/647 648/648/648
f 648/648/648 641/641/641 643/643/643
f 649/649/649 650/650/650 651/651/651
f 651/651/651 430/430/430 644/644/644
f 431/431/431 652/652/652 432/432/432
f 646/646/646 648/648/648 643/643/643
f 430/430/430 432/432/432 644/644/644
f 432/432/432 646/646/646 643/643/643
f 649/649/649 651/651/651 644/644/644
f 433/433/433 653/653/653 434/434/434
f 436/436/436 654/654/654 437/437/437
f 439/439/439 655/655/655 440/440/440
f 442/442/442 656/656/656 443/443/443

